<svg xmlns="http://www.w3.org/2000/svg" xmlns:xlink="http://www.w3.org/1999/xlink" viewBox="0 0 375 245"><defs><style>.cls-1{fill:#fff;}.cls-11,.cls-2,.cls-3{fill:#3c3c41;}.cls-2{opacity:0.05;}.cls-2,.cls-3{isolation:isolate;}.cls-3{opacity:0.18;}.cls-4{fill:url(#Degradado_sin_nombre);}.cls-5{fill:#003067;}.cls-6{fill:#50e6ff;}.cls-7{fill:url(#Degradado_sin_nombre_2);}.cls-8{fill:url(#Degradado_sin_nombre_3);}.cls-10,.cls-15,.cls-16,.cls-9{fill:none;stroke:#3c3c41;stroke-miterlimit:10;}.cls-10{stroke-dasharray:8.26 4.13;}.cls-12{fill:url(#Degradado_sin_nombre_4);}.cls-13{fill:#b4ec36;}.cls-14{fill:#5ea0ef;}.cls-15{stroke-dasharray:7.6 3.8;}.cls-16{stroke-dasharray:8.39 4.2;}.cls-17{fill:#1e1e1e;}</style><linearGradient id="Degradado_sin_nombre" x1="240.52" y1="304.5" x2="240.52" y2="336.5" gradientTransform="translate(0 -258)" gradientUnits="userSpaceOnUse"><stop offset="0" stop-color="#b3b2b3"/><stop offset="0.38" stop-color="#afaeaf"/><stop offset="0.76" stop-color="#a2a2a2"/><stop offset="1" stop-color="#979797"/></linearGradient><linearGradient id="Degradado_sin_nombre_2" x1="240.52" y1="383" x2="240.52" y2="415" xlink:href="#Degradado_sin_nombre"/><linearGradient id="Degradado_sin_nombre_3" x1="240.52" y1="463.18" x2="240.52" y2="495.18" xlink:href="#Degradado_sin_nombre"/><linearGradient id="Degradado_sin_nombre_4" x1="144.48" y1="417.41" x2="144.48" y2="382.63" gradientTransform="translate(0 -258)" gradientUnits="userSpaceOnUse"><stop offset="0" stop-color="#5e9624"/><stop offset="0.02" stop-color="#5f9724"/><stop offset="1" stop-color="#76bc2d"/></linearGradient></defs><title>OJ105690780</title><g id="bg"><rect class="cls-1" y="35" width="375" height="210"/><rect class="cls-2" y="35" width="375" height="210"/><rect class="cls-1" width="375" height="35"/><rect class="cls-3" width="375" height="35"/></g><g id="shapes"><path class="cls-4" d="M250.91,77.41a1.16,1.16,0,0,1-1.2,1.09H231.33a1.16,1.16,0,0,1-1.2-1.09V47.59a1.16,1.16,0,0,1,1.2-1.09h18.38a1.16,1.16,0,0,1,1.2,1.09Z"/><path class="cls-5" d="M233.19,60.18a2.38,2.38,0,0,1,2.22-2.5h10.37a2.39,2.39,0,0,1,2.22,2.5h0a2.36,2.36,0,0,1-2.11,2.59H235.45a2.39,2.39,0,0,1-2.22-2.49Z"/><path class="cls-5" d="M233.19,52.78a2.37,2.37,0,0,1,2.22-2.49h10.37A2.38,2.38,0,0,1,248,52.78h0a2.39,2.39,0,0,1-2.22,2.5H235.45a2.39,2.39,0,0,1-2.22-2.5Z"/><circle class="cls-6" cx="236.09" cy="52.78" r="1.66"/><circle class="cls-6" cx="236.09" cy="60.18" r="1.66"/><path class="cls-7" d="M250.91,155.91a1.16,1.16,0,0,1-1.2,1.09H231.33a1.16,1.16,0,0,1-1.2-1.09V126.09a1.16,1.16,0,0,1,1.2-1.09h18.38a1.16,1.16,0,0,1,1.2,1.09Z"/><path class="cls-5" d="M233.19,138.68a2.38,2.38,0,0,1,2.22-2.5h10.37a2.39,2.39,0,0,1,2.22,2.5h0a2.36,2.36,0,0,1-2.11,2.59H235.45a2.39,2.39,0,0,1-2.22-2.49Z"/><path class="cls-5" d="M233.19,131.28a2.37,2.37,0,0,1,2.22-2.49h10.37a2.38,2.38,0,0,1,2.22,2.49h0a2.39,2.39,0,0,1-2.22,2.5H235.45a2.39,2.39,0,0,1-2.22-2.5Z"/><circle class="cls-6" cx="236.09" cy="131.28" r="1.66"/><circle class="cls-6" cx="236.09" cy="138.68" r="1.66"/><path class="cls-8" d="M250.91,236.09a1.16,1.16,0,0,1-1.2,1.09H231.33a1.16,1.16,0,0,1-1.2-1.09V206.27a1.15,1.15,0,0,1,1.2-1.09h18.38a1.16,1.16,0,0,1,1.2,1.09Z"/><path class="cls-5" d="M233.19,218.86a2.4,2.4,0,0,1,2.22-2.51h10.37a2.4,2.4,0,0,1,2.22,2.51h0a2.37,2.37,0,0,1-2.13,2.59H235.45a2.39,2.39,0,0,1-2.22-2.49Z"/><path class="cls-5" d="M233.19,211.45a2.36,2.36,0,0,1,2.22-2.48h10.37a2.38,2.38,0,0,1,2.22,2.48h0a2.4,2.4,0,0,1-2.22,2.51H235.45a2.4,2.4,0,0,1-2.22-2.51Z"/><circle class="cls-6" cx="236.09" cy="211.45" r="1.66"/><circle class="cls-6" cx="236.09" cy="218.86" r="1.66"/><line class="cls-9" x1="144.98" y1="160.39" x2="144.98" y2="156.39"/><path class="cls-10" d="M145,152.26V66.83a5,5,0,0,1,5-5h65.65"/><line class="cls-9" x1="217.7" y1="61.83" x2="221.7" y2="61.83"/><polygon class="cls-11" points="220.6 65.57 227.08 61.83 220.6 58.09 220.6 65.57"/><path class="cls-12" d="M129.77,140.61l14-14a1,1,0,0,1,1.41,0h0l14,14a1,1,0,0,1,0,1.41h0l-14,14a1,1,0,0,1-1.4,0l-14-14a1,1,0,0,1,0-1.41h0Z"/><path class="cls-13" d="M148.13,133l-3.53-3.52a.2.2,0,0,0-.27,0L140.8,133a.16.16,0,0,0-.06.22h0a.18.18,0,0,0,.18.07H143a.18.18,0,0,1,.18.18v3.33a.19.19,0,0,0,.18.19h2.2a.2.2,0,0,0,.19-.19h0v-3.33a.18.18,0,0,1,.18-.18H148a.16.16,0,0,0,.2-.12A.16.16,0,0,0,148.13,133Z"/><path class="cls-13" d="M136.13,137.35l-3.5,3.55a.2.2,0,0,0,0,.25l3.5,3.51a.18.18,0,0,0,.25,0h0a.2.2,0,0,0,.06-.14v-2.05a.18.18,0,0,1,.18-.18H140a.17.17,0,0,0,.16-.17V139.9a.17.17,0,0,0-.06-.23h-3.34a.17.17,0,0,1-.18-.15h0v-2a.21.21,0,0,0-.12-.25.19.19,0,0,0-.27,0A.17.17,0,0,0,136.13,137.35Z"/><path class="cls-13" d="M152.93,144.66l3.55-3.53a.2.2,0,0,0,0-.25l-3.55-3.53a.18.18,0,0,0-.25,0h0a.21.21,0,0,0,0,.11v2.08a.18.18,0,0,1-.17.17h-3.35a.16.16,0,0,0-.16.16h0v2.22a.16.16,0,0,0,.14.18h3.35a.18.18,0,0,1,.18.18v2.06a.16.16,0,0,0,.18.16h.09Z"/><path class="cls-1" d="M149.11,141.33a4.65,4.65,0,1,0-5.9,4.45v1.58a2.85,2.85,0,1,0,3.84,1.22h0a2.87,2.87,0,0,0-1.22-1.22v-1.67A4.61,4.61,0,0,0,149.11,141.33Z"/><circle id="e99c3387-15c3-4f28-bd4b-cb209b430e06" class="cls-14" cx="144.48" cy="141.31" r="2.7"/><line class="cls-9" x1="144.48" y1="193.23" x2="144.48" y2="197.23"/><path class="cls-15" d="M144.48,201v15.15a5,5,0,0,0,5,5H215.8"/><line class="cls-9" x1="217.7" y1="221.18" x2="221.7" y2="221.18"/><polygon class="cls-11" points="220.6 224.92 227.08 221.18 220.6 217.44 220.6 224.92"/><line class="cls-9" x1="159.16" y1="142.05" x2="163.16" y2="142.05"/><line class="cls-16" x1="167.36" y1="142.05" x2="215.6" y2="142.05"/><line class="cls-9" x1="217.7" y1="142.05" x2="221.7" y2="142.05"/><polygon class="cls-11" points="220.6 145.78 227.08 142.04 220.6 138.31 220.6 145.78"/></g><g id="txt"><path class="cls-17" d="M121.11,172.69h-2.06l-.6-1.87h-3l-.59,1.87h-2.05l3.06-8.4h2.24ZM118,169.37l-.9-2.82a3.22,3.22,0,0,1-.14-.76h0a3.06,3.06,0,0,1-.15.73l-.91,2.85Z"/><path class="cls-17" d="M126.73,172.69h-5.38v-.77l3-3.86h-2.71v-1.37h5.06v.92l-2.86,3.72h2.88Z"/><path class="cls-17" d="M133.43,172.69h-1.85v-.91h0a2.07,2.07,0,0,1-1.83,1.06c-1.39,0-2.09-.84-2.09-2.53v-3.62h1.85v3.46c0,.85.34,1.27,1,1.27a1,1,0,0,0,.79-.35,1.4,1.4,0,0,0,.3-.94v-3.44h1.85Z"/><path class="cls-17" d="M138.9,168.36a1.61,1.61,0,0,0-.78-.18,1.14,1.14,0,0,0-.94.44,1.93,1.93,0,0,0-.34,1.21v2.86H135v-6h1.85v1.12h0a1.6,1.6,0,0,1,1.58-1.22,1.14,1.14,0,0,1,.46.07Z"/><path class="cls-17" d="M145.11,170.22h-3.92c.06.87.61,1.31,1.65,1.31a3.24,3.24,0,0,0,1.74-.47v1.33a4.56,4.56,0,0,1-2.16.45,2.79,2.79,0,0,1-3.06-3.05,3.2,3.2,0,0,1,.87-2.37,2.87,2.87,0,0,1,2.13-.87,2.63,2.63,0,0,1,2,.78,3,3,0,0,1,.72,2.11Zm-1.72-1.14c0-.86-.35-1.29-1-1.29a1,1,0,0,0-.77.37,1.72,1.72,0,0,0-.4.92Z"/><path class="cls-17" d="M154.7,172.69h-5v-8.4h1.89v6.87h3.11Z"/><path class="cls-17" d="M158.51,172.84a3.24,3.24,0,0,1-2.36-.84,3,3,0,0,1-.85-2.28,3,3,0,0,1,.89-2.33,3.34,3.34,0,0,1,2.4-.84,3.2,3.2,0,0,1,2.35.84,3,3,0,0,1,.85,2.22,3.15,3.15,0,0,1-.88,2.36A3.24,3.24,0,0,1,158.51,172.84Zm.05-4.88a1.21,1.21,0,0,0-1,.46,2,2,0,0,0-.36,1.27c0,1.15.46,1.73,1.39,1.73s1.33-.59,1.33-1.77S159.45,168,158.56,168Z"/><path class="cls-17" d="M167.86,172.69h-1.75v-.86h0a2,2,0,0,1-1.79,1,1.86,1.86,0,0,1-1.37-.5,1.75,1.75,0,0,1-.5-1.32q0-1.74,2.07-2l1.62-.22c0-.66-.35-1-1.06-1a3.65,3.65,0,0,0-2,.63v-1.39a4.67,4.67,0,0,1,1.06-.35,5.56,5.56,0,0,1,1.22-.15,2.26,2.26,0,0,1,2.56,2.56Zm-1.74-2.44v-.4L165,170c-.6.08-.9.35-.9.82a.67.67,0,0,0,.22.51.84.84,0,0,0,.6.21,1.11,1.11,0,0,0,.85-.36A1.36,1.36,0,0,0,166.12,170.25Z"/><path class="cls-17" d="M175.2,172.69h-1.85v-.82h0a2.11,2.11,0,0,1-1.86,1,2.27,2.27,0,0,1-1.81-.8,3.23,3.23,0,0,1-.69-2.21,3.55,3.55,0,0,1,.76-2.39,2.44,2.44,0,0,1,2-.89,1.69,1.69,0,0,1,1.62.83h0v-3.57h1.85Zm-1.82-2.92v-.45a1.4,1.4,0,0,0-.34-1,1.1,1.1,0,0,0-.88-.39,1.12,1.12,0,0,0-1,.49,2.22,2.22,0,0,0-.35,1.32,1.89,1.89,0,0,0,.34,1.22,1.09,1.09,0,0,0,.92.43A1.12,1.12,0,0,0,173,171,1.86,1.86,0,0,0,173.38,169.77Z"/><path class="cls-17" d="M121.18,185.89v-8.4h3.06a3.75,3.75,0,0,1,2.16.52,1.66,1.66,0,0,1,.76,1.45,1.76,1.76,0,0,1-.46,1.19,2.49,2.49,0,0,1-1.18.71v0A2.36,2.36,0,0,1,127,182a1.86,1.86,0,0,1,.54,1.34,2.28,2.28,0,0,1-.83,1.84,3.45,3.45,0,0,1-2.25.67Zm1.89-7v2h.83a1.42,1.42,0,0,0,.93-.29,1,1,0,0,0,.33-.78q0-.93-1.38-.93Zm0,3.4v2.22h1a1.55,1.55,0,0,0,1-.31,1,1,0,0,0,.37-.83.94.94,0,0,0-.37-.79,1.61,1.61,0,0,0-1-.29Z"/><path class="cls-17" d="M133.68,185.89h-1.75V185h0a2,2,0,0,1-1.79,1,1.86,1.86,0,0,1-1.37-.5,1.75,1.75,0,0,1-.5-1.32c0-1.16.69-1.83,2.06-2l1.63-.22c0-.66-.35-1-1.06-1a3.65,3.65,0,0,0-2,.63v-1.39a4.67,4.67,0,0,1,1.06-.35,5.56,5.56,0,0,1,1.22-.15,2.26,2.26,0,0,1,2.56,2.56Zm-1.74-2.43v-.41l-1.09.14c-.6.08-.9.35-.9.82a.64.64,0,0,0,.22.51.84.84,0,0,0,.6.21,1.11,1.11,0,0,0,.85-.36A1.35,1.35,0,0,0,131.94,183.46Z"/><path class="cls-17" d="M137,185.89h-1.85V177H137Z"/><path class="cls-17" d="M143.55,185.89H141.8V185h0a2,2,0,0,1-1.79,1,1.9,1.9,0,0,1-1.38-.5,1.79,1.79,0,0,1-.5-1.32q0-1.74,2.07-2l1.63-.22c0-.66-.35-1-1.07-1a3.65,3.65,0,0,0-2,.63v-1.39a4.57,4.57,0,0,1,1-.35,5.7,5.7,0,0,1,1.22-.15,2.26,2.26,0,0,1,2.57,2.56Zm-1.74-2.43v-.41l-1.09.14c-.6.08-.9.35-.9.82a.64.64,0,0,0,.22.51.8.8,0,0,0,.59.21,1.1,1.1,0,0,0,.85-.36A1.31,1.31,0,0,0,141.81,183.46Z"/><path class="cls-17" d="M150.81,185.89H149v-3.33c0-.93-.33-1.4-1-1.4a1,1,0,0,0-.79.37,1.4,1.4,0,0,0-.31.94v3.42H145v-6h1.85v1h0a2.11,2.11,0,0,1,1.93-1.09c1.33,0,2,.82,2,2.47Z"/><path class="cls-17" d="M156.82,185.68A3.69,3.69,0,0,1,155,186a3.06,3.06,0,0,1-2.24-.84,2.89,2.89,0,0,1-.85-2.16,3.19,3.19,0,0,1,.91-2.41,3.4,3.4,0,0,1,2.46-.88,3.1,3.1,0,0,1,1.53.28v1.57a2.1,2.1,0,0,0-1.29-.44,1.82,1.82,0,0,0-1.29,3,1.66,1.66,0,0,0,1.23.45,2.42,2.42,0,0,0,1.35-.43Z"/><path class="cls-17" d="M163.43,183.42h-3.92c.06.87.61,1.31,1.65,1.31a3.24,3.24,0,0,0,1.74-.47v1.33a4.56,4.56,0,0,1-2.16.45,2.79,2.79,0,0,1-3.06-3,3.24,3.24,0,0,1,.86-2.37,2.9,2.9,0,0,1,2.14-.87,2.63,2.63,0,0,1,2,.78,3,3,0,0,1,.72,2.11Zm-1.72-1.14c0-.86-.35-1.29-1-1.29a1,1,0,0,0-.77.37,1.72,1.72,0,0,0-.4.92Z"/><path class="cls-17" d="M168.44,181.56a1.61,1.61,0,0,0-.78-.18,1.14,1.14,0,0,0-.94.44,1.93,1.93,0,0,0-.34,1.21v2.86h-1.85v-6h1.85V181h0a1.6,1.6,0,0,1,1.58-1.22,1.14,1.14,0,0,1,.46.07Z"/><path class="cls-17" d="M129,21.88h-2.17l-1.31-2.16a4.22,4.22,0,0,0-.28-.44A2.39,2.39,0,0,0,125,19a1.12,1.12,0,0,0-.29-.21.72.72,0,0,0-.32-.08h-.51v3.22H122v-8.4h3c2,0,3.05.76,3.05,2.28a2.3,2.3,0,0,1-.13.81,2.38,2.38,0,0,1-.38.68,2.49,2.49,0,0,1-.6.51,2.82,2.82,0,0,1-.77.34v0a1.57,1.57,0,0,1,.36.19,3.28,3.28,0,0,1,.34.31c.11.12.21.25.31.38l.28.4Zm-5.15-7v2.33h.82a1.36,1.36,0,0,0,1-.35,1.16,1.16,0,0,0,.37-.88c0-.74-.44-1.1-1.32-1.1Z"/><path class="cls-17" d="M134.74,19.41h-3.91c.06.87.61,1.3,1.64,1.3a3.23,3.23,0,0,0,1.74-.46v1.33a4.5,4.5,0,0,1-2.16.45A2.8,2.8,0,0,1,129,19a3.19,3.19,0,0,1,.87-2.36,2.87,2.87,0,0,1,2.13-.88,2.62,2.62,0,0,1,2,.78,3,3,0,0,1,.72,2.12ZM133,18.27c0-.86-.35-1.29-1-1.29a1,1,0,0,0-.77.37,1.68,1.68,0,0,0-.4.92Z"/><path class="cls-17" d="M141.72,21.19a3.4,3.4,0,0,1-1,2.59,3.94,3.94,0,0,1-2.8.92,4.5,4.5,0,0,1-1.93-.35V22.79a3.68,3.68,0,0,0,1.87.54,2,2,0,0,0,1.46-.49,1.79,1.79,0,0,0,.51-1.35V21h0A2.08,2.08,0,0,1,138,22a2.24,2.24,0,0,1-1.82-.81,3.28,3.28,0,0,1-.68-2.17,3.65,3.65,0,0,1,.75-2.42,2.45,2.45,0,0,1,2-.9,1.83,1.83,0,0,1,1.64.85h0v-.7h1.85ZM139.9,19v-.48a1.49,1.49,0,0,0-.34-1,1.18,1.18,0,0,0-1.84.08,2.22,2.22,0,0,0-.36,1.36,1.9,1.9,0,0,0,.34,1.18,1.09,1.09,0,0,0,.91.44,1.14,1.14,0,0,0,.93-.44A1.82,1.82,0,0,0,139.9,19Z"/><path class="cls-17" d="M147.18,17.55a1.59,1.59,0,0,0-.77-.18,1.14,1.14,0,0,0-.95.44,2,2,0,0,0-.34,1.21v2.86h-1.85v-6h1.85V17h0a1.6,1.6,0,0,1,1.58-1.22,1.07,1.07,0,0,1,.45.08Z"/><path class="cls-17" d="M153,21.88h-1.75V21h0a2,2,0,0,1-1.78,1,1.88,1.88,0,0,1-1.38-.5,1.79,1.79,0,0,1-.5-1.32c0-1.16.69-1.84,2.07-2L151.3,18c0-.66-.36-1-1.07-1a3.72,3.72,0,0,0-2,.64V16.24a4.22,4.22,0,0,1,1.06-.35,5.12,5.12,0,0,1,1.22-.16A2.27,2.27,0,0,1,153,18.29Zm-1.74-2.44V19l-1.09.14q-.9.12-.9.81a.66.66,0,0,0,.22.52.8.8,0,0,0,.59.2,1.1,1.1,0,0,0,.85-.36A1.29,1.29,0,0,0,151.3,19.44Z"/><path class="cls-17" d="M163.68,21.88h-1.85v-.83h0A2.08,2.08,0,0,1,160,22a2.28,2.28,0,0,1-1.81-.8,3.27,3.27,0,0,1-.68-2.21,3.6,3.6,0,0,1,.75-2.39,2.48,2.48,0,0,1,2-.9,1.68,1.68,0,0,1,1.62.84h0V13h1.85ZM161.87,19v-.45a1.45,1.45,0,0,0-.34-1,1.12,1.12,0,0,0-.89-.39,1.1,1.1,0,0,0-1,.49,2.23,2.23,0,0,0-.34,1.32,2,2,0,0,0,.33,1.22,1.18,1.18,0,0,0,1.84,0A1.87,1.87,0,0,0,161.87,19Z"/><path class="cls-17" d="M168.1,22a3.24,3.24,0,0,1-2.36-.84,3.07,3.07,0,0,1-.85-2.29,3,3,0,0,1,.89-2.33,3.34,3.34,0,0,1,2.4-.84,3.2,3.2,0,0,1,2.35.84,3,3,0,0,1,.85,2.23,3.16,3.16,0,0,1-.88,2.36A3.24,3.24,0,0,1,168.1,22Zm.05-4.88a1.23,1.23,0,0,0-1,.45,2,2,0,0,0-.36,1.28c0,1.15.46,1.73,1.39,1.73s1.33-.59,1.33-1.78S169,17.15,168.15,17.15Z"/><path class="cls-17" d="M181.08,21.88h-5v-8.4H178v6.87h3.12Z"/><path class="cls-17" d="M184.88,22a3.2,3.2,0,0,1-2.35-.84,3,3,0,0,1-.86-2.29,3,3,0,0,1,.89-2.33,3.35,3.35,0,0,1,2.41-.84,3.19,3.19,0,0,1,2.34.84,3,3,0,0,1,.85,2.23,3.16,3.16,0,0,1-.88,2.36A3.24,3.24,0,0,1,184.88,22Zm.05-4.88a1.23,1.23,0,0,0-1,.45,2,2,0,0,0-.36,1.28c0,1.15.46,1.73,1.39,1.73s1.33-.59,1.33-1.78S185.83,17.15,184.93,17.15Z"/><path class="cls-17" d="M194.24,21.88h-1.76V21h0a2,2,0,0,1-1.79,1,1.86,1.86,0,0,1-1.37-.5,1.75,1.75,0,0,1-.5-1.32c0-1.16.69-1.84,2.07-2L192.5,18c0-.66-.36-1-1.07-1a3.67,3.67,0,0,0-2,.64V16.24a4.22,4.22,0,0,1,1.06-.35,5.05,5.05,0,0,1,1.22-.16,2.27,2.27,0,0,1,2.57,2.56Zm-1.74-2.44V19l-1.09.14c-.61.08-.91.35-.91.81a.69.69,0,0,0,.22.52.84.84,0,0,0,.6.2,1.1,1.1,0,0,0,.85-.36A1.29,1.29,0,0,0,192.5,19.44Z"/><path class="cls-17" d="M201.57,21.88h-1.85v-.83h0a2.09,2.09,0,0,1-1.86,1,2.28,2.28,0,0,1-1.81-.8,3.27,3.27,0,0,1-.69-2.21,3.55,3.55,0,0,1,.76-2.39,2.45,2.45,0,0,1,2-.9,1.69,1.69,0,0,1,1.62.84h0V13h1.85ZM199.75,19v-.45a1.44,1.44,0,0,0-.33-1,1.14,1.14,0,0,0-.89-.39,1.1,1.1,0,0,0-1,.49,2.22,2.22,0,0,0-.35,1.32,1.89,1.89,0,0,0,.34,1.22,1.09,1.09,0,0,0,.92.43,1.12,1.12,0,0,0,.92-.45A1.86,1.86,0,0,0,199.75,19Z"/><path class="cls-17" d="M206.62,21.88v-8.4h3.06a3.83,3.83,0,0,1,2.16.51,1.66,1.66,0,0,1,.76,1.46,1.71,1.71,0,0,1-.46,1.19,2.49,2.49,0,0,1-1.18.71v0a2.31,2.31,0,0,1,1.44.66,1.89,1.89,0,0,1,.53,1.34,2.24,2.24,0,0,1-.82,1.83,3.48,3.48,0,0,1-2.26.68Zm1.89-7v2h.84a1.39,1.39,0,0,0,.92-.28,1,1,0,0,0,.34-.78c0-.62-.46-.93-1.39-.93Zm0,3.4v2.22h1a1.6,1.6,0,0,0,1-.31,1,1,0,0,0,.37-.83.93.93,0,0,0-.37-.79,1.61,1.61,0,0,0-1-.29Z"/><path class="cls-17" d="M219.13,21.88h-1.76V21h0a2,2,0,0,1-1.79,1,1.86,1.86,0,0,1-1.37-.5,1.79,1.79,0,0,1-.5-1.32c0-1.16.69-1.84,2.07-2l1.63-.21c0-.66-.36-1-1.07-1a3.67,3.67,0,0,0-2,.64V16.24a4.22,4.22,0,0,1,1.06-.35,5.12,5.12,0,0,1,1.22-.16,2.27,2.27,0,0,1,2.57,2.56Zm-1.74-2.44V19l-1.09.14c-.61.08-.91.35-.91.81a.69.69,0,0,0,.22.52.84.84,0,0,0,.6.2,1.1,1.1,0,0,0,.85-.36A1.29,1.29,0,0,0,217.39,19.44Z"/><path class="cls-17" d="M222.44,21.88h-1.85V13h1.85Z"/><path class="cls-17" d="M229,21.88h-1.75V21h0a2,2,0,0,1-1.79,1,1.86,1.86,0,0,1-1.37-.5,1.75,1.75,0,0,1-.5-1.32c0-1.16.69-1.84,2.06-2l1.63-.21c0-.66-.35-1-1.06-1a3.67,3.67,0,0,0-2,.64V16.24a4.22,4.22,0,0,1,1.06-.35,5.05,5.05,0,0,1,1.22-.16A2.26,2.26,0,0,1,229,18.29Zm-1.74-2.44V19l-1.09.14q-.9.12-.9.81a.66.66,0,0,0,.22.52.84.84,0,0,0,.6.2,1.07,1.07,0,0,0,.84-.36A1.29,1.29,0,0,0,227.25,19.44Z"/><path class="cls-17" d="M236.25,21.88h-1.84V18.55c0-.93-.33-1.4-1-1.4a1,1,0,0,0-.79.37,1.4,1.4,0,0,0-.31.94v3.42h-1.85v-6h1.85v.95h0a2.13,2.13,0,0,1,1.93-1.1c1.33,0,2,.83,2,2.48Z"/><path class="cls-17" d="M242.26,21.66a3.55,3.55,0,0,1-1.81.37,3,3,0,0,1-2.23-.84,2.9,2.9,0,0,1-.86-2.16,3.18,3.18,0,0,1,.92-2.41,3.38,3.38,0,0,1,2.45-.89,3.06,3.06,0,0,1,1.53.29v1.57a2.08,2.08,0,0,0-1.29-.44,1.71,1.71,0,0,0-1.26.47,1.74,1.74,0,0,0-.47,1.28,1.68,1.68,0,0,0,.45,1.25,1.59,1.59,0,0,0,1.22.46,2.5,2.5,0,0,0,1.35-.43Z"/><path class="cls-17" d="M248.87,19.41H245c.07.87.62,1.3,1.65,1.3a3.23,3.23,0,0,0,1.74-.46v1.33a4.5,4.5,0,0,1-2.16.45A2.8,2.8,0,0,1,243.12,19a3.19,3.19,0,0,1,.87-2.36,2.87,2.87,0,0,1,2.13-.88,2.62,2.62,0,0,1,2,.78,3,3,0,0,1,.72,2.12Zm-1.72-1.14c0-.86-.35-1.29-1-1.29a1,1,0,0,0-.77.37,1.68,1.68,0,0,0-.4.92Z"/><path class="cls-17" d="M253.88,17.55a1.61,1.61,0,0,0-.78-.18,1.14,1.14,0,0,0-.94.44,1.93,1.93,0,0,0-.34,1.21v2.86H250v-6h1.85V17h0a1.62,1.62,0,0,1,1.59-1.22,1.1,1.1,0,0,1,.45.08Z"/><path class="cls-17" d="M258.33,67.27V58.86H261a3.14,3.14,0,0,1,1.93.54,1.66,1.66,0,0,1,.71,1.39,2,2,0,0,1-.4,1.24,2.23,2.23,0,0,1-1.12.75v0a2.18,2.18,0,0,1,1.38.64,1.93,1.93,0,0,1,.52,1.41,2.12,2.12,0,0,1-.85,1.75,3.38,3.38,0,0,1-2.14.67ZM259.72,60v2.39h.9a1.71,1.71,0,0,0,1.14-.34,1.18,1.18,0,0,0,.42-1c0-.72-.48-1.08-1.45-1.08Zm0,3.51v2.66h1.19a1.79,1.79,0,0,0,1.2-.36,1.21,1.21,0,0,0,.43-1c0-.87-.6-1.31-1.81-1.31Z"/><path class="cls-17" d="M269.85,67.27h-1.32v-.94h0a2,2,0,0,1-1.82,1.08,1.94,1.94,0,0,1-1.39-.48,1.71,1.71,0,0,1-.5-1.28c0-1.13.65-1.79,2-2l1.78-.25c0-.85-.41-1.28-1.22-1.28a2.9,2.9,0,0,0-1.93.74V61.69a4.15,4.15,0,0,1,2.19-.56,2,2,0,0,1,2.27,2.23Zm-1.31-3-1.26.17a2.11,2.11,0,0,0-.88.29.83.83,0,0,0-.3.73.77.77,0,0,0,.28.62,1,1,0,0,0,.72.25,1.34,1.34,0,0,0,1-.44,1.56,1.56,0,0,0,.41-1.1Z"/><path class="cls-17" d="M275.63,67a3.33,3.33,0,0,1-1.71.42,2.89,2.89,0,0,1-2.16-.84,3,3,0,0,1-.82-2.16,3.27,3.27,0,0,1,.89-2.39,3.16,3.16,0,0,1,2.35-.89,3.47,3.47,0,0,1,1.45.28v1.27a2.2,2.2,0,0,0-1.33-.47,1.86,1.86,0,0,0-1.42.58,2.17,2.17,0,0,0-.55,1.53,2.06,2.06,0,0,0,.52,1.47,1.85,1.85,0,0,0,1.39.54,2.25,2.25,0,0,0,1.39-.52Z"/><path class="cls-17" d="M282.24,67.27h-1.73l-2.33-2.89h0v2.89h-1.37V58.38h1.37V64h0l2.21-2.74H282l-2.48,2.89Z"/><path class="cls-17" d="M285.33,64.49h-3.2v-1h3.2Z"/><path class="cls-17" d="M291.89,64.64H287.8a1.77,1.77,0,0,0,.51,1.28,1.93,1.93,0,0,0,1.35.45,3,3,0,0,0,1.76-.57v1.09a4,4,0,0,1-2.17.52,2.69,2.69,0,0,1-2.07-.82,3.7,3.7,0,0,1,.07-4.58,2.72,2.72,0,0,1,2.06-.88,2.37,2.37,0,0,1,1.91.79,3.26,3.26,0,0,1,.67,2.19Zm-1.31-1a1.8,1.8,0,0,0-.35-1.14,1.15,1.15,0,0,0-.94-.4,1.3,1.3,0,0,0-1,.43,1.91,1.91,0,0,0-.5,1.11Z"/><path class="cls-17" d="M298.35,67.27H297V63.89c0-1.13-.4-1.69-1.19-1.69a1.29,1.29,0,0,0-1,.47,1.72,1.72,0,0,0-.41,1.17v3.43H293v-6h1.36v1h0a2.13,2.13,0,0,1,1.95-1.13,1.81,1.81,0,0,1,1.49.63,2.84,2.84,0,0,1,.52,1.84Z"/><path class="cls-17" d="M305.28,67.27h-1.36v-1h0a2.34,2.34,0,0,1-3.79.35,3.31,3.31,0,0,1-.67-2.19,3.65,3.65,0,0,1,.74-2.39,2.39,2.39,0,0,1,2-.89,1.87,1.87,0,0,1,1.76,1h0V58.38h1.36Zm-1.34-2.75v-.78a1.57,1.57,0,0,0-.41-1.09,1.52,1.52,0,0,0-2.26.13,2.53,2.53,0,0,0-.44,1.57,2.29,2.29,0,0,0,.42,1.45,1.37,1.37,0,0,0,1.13.53,1.42,1.42,0,0,0,1.13-.51A2,2,0,0,0,303.94,64.52Z"/><path class="cls-17" d="M307.44,62.76a.88.88,0,0,1-.6-.23.75.75,0,0,1-.24-.55.78.78,0,0,1,.24-.57.91.91,0,0,1,1.21,0,.79.79,0,0,1,.25.57.76.76,0,0,1-.25.55A.89.89,0,0,1,307.44,62.76Zm0,4.64a.85.85,0,0,1-.6-.24.76.76,0,0,1,0-1.11.88.88,0,0,1,1.21,0,.74.74,0,0,1,0,1.11A.85.85,0,0,1,307.44,67.4Z"/><path class="cls-17" d="M314.25,64.22v3h-1.39V58.86h2.55a3.38,3.38,0,0,1,2.25.68,2.35,2.35,0,0,1,.79,1.9,2.6,2.6,0,0,1-.83,2,3.14,3.14,0,0,1-2.25.78Zm0-4.21v3.07h.91a2,2,0,0,0,1.36-.41,1.51,1.51,0,0,0,.47-1.18c0-1-.57-1.48-1.72-1.48Z"/><path class="cls-17" d="M321.8,67.41a3,3,0,0,1-2.22-.84,3.06,3.06,0,0,1-.83-2.23,3,3,0,0,1,3.2-3.21,2.88,2.88,0,0,1,2.19.82,3.21,3.21,0,0,1,.78,2.29,3.14,3.14,0,0,1-.84,2.3A3.05,3.05,0,0,1,321.8,67.41Zm.07-5.2a1.53,1.53,0,0,0-1.26.56,2.31,2.31,0,0,0-.47,1.53,2.22,2.22,0,0,0,.47,1.49,1.58,1.58,0,0,0,1.26.54,1.51,1.51,0,0,0,1.23-.53,2.92,2.92,0,0,0,0-3A1.49,1.49,0,0,0,321.87,62.21Z"/><path class="cls-17" d="M329.61,62.56a1.13,1.13,0,0,0-.71-.19,1.22,1.22,0,0,0-1,.54,2.46,2.46,0,0,0-.4,1.49v2.87h-1.36v-6h1.36V62.5h0a2.06,2.06,0,0,1,.61-1,1.39,1.39,0,0,1,.92-.36,1.22,1.22,0,0,1,.57.11Z"/><path class="cls-17" d="M333.9,67.2a2.42,2.42,0,0,1-1,.2c-1.16,0-1.75-.56-1.75-1.67v-3.4h-1V61.27h1V59.88l1.36-.39v1.78h1.44v1.06h-1.44v3a1.15,1.15,0,0,0,.2.76.77.77,0,0,0,.64.23.91.91,0,0,0,.6-.2Z"/><path class="cls-17" d="M339.5,67.27h-1.32v-.94h0a2,2,0,0,1-1.82,1.08,1.9,1.9,0,0,1-1.38-.48,1.68,1.68,0,0,1-.51-1.28c0-1.13.66-1.79,2-2l1.78-.25c0-.85-.4-1.28-1.22-1.28a2.9,2.9,0,0,0-1.93.74V61.69a4.15,4.15,0,0,1,2.19-.56,2,2,0,0,1,2.28,2.23Zm-1.32-3-1.26.17a2.11,2.11,0,0,0-.88.29.82.82,0,0,0-.29.73.8.8,0,0,0,.27.62,1.06,1.06,0,0,0,.73.25,1.38,1.38,0,0,0,1-.44,1.55,1.55,0,0,0,.4-1.1Z"/><path class="cls-17" d="M343.74,64.92a2.74,2.74,0,0,1,.09-.7,2.22,2.22,0,0,1,.27-.63,2.47,2.47,0,0,1,.46-.51,2.08,2.08,0,0,1,.65-.37,2.54,2.54,0,0,1-.87-.78,1.84,1.84,0,0,1-.32-1.06,1.9,1.9,0,0,1,.19-.86,2,2,0,0,1,.52-.68,2.6,2.6,0,0,1,.8-.45,3.16,3.16,0,0,1,1-.16,3,3,0,0,1,1,.17,2.6,2.6,0,0,1,.8.45,2,2,0,0,1,.52.68,1.86,1.86,0,0,1,.19.85,1.91,1.91,0,0,1-.32,1.06,2.7,2.7,0,0,1-.86.78,2.21,2.21,0,0,1,.64.36,2.23,2.23,0,0,1,.75,1.14,2.82,2.82,0,0,1,.09.71,2.53,2.53,0,0,1-.2,1,2.24,2.24,0,0,1-.58.78,2.55,2.55,0,0,1-.88.51,3.67,3.67,0,0,1-2.27,0,2.64,2.64,0,0,1-.88-.51,2.24,2.24,0,0,1-.58-.78A2.37,2.37,0,0,1,343.74,64.92Zm1.33-.11a1.87,1.87,0,0,0,.1.64,1.44,1.44,0,0,0,.3.49,1.27,1.27,0,0,0,.47.3,1.64,1.64,0,0,0,.6.11,1.59,1.59,0,0,0,.59-.11,1.38,1.38,0,0,0,.47-.31,1.64,1.64,0,0,0,.31-.49,1.81,1.81,0,0,0,.11-.63,1.74,1.74,0,0,0-.11-.61,1.48,1.48,0,0,0-.3-.5,1.29,1.29,0,0,0-.46-.33,1.51,1.51,0,0,0-.61-.12,1.44,1.44,0,0,0-.59.11,1.51,1.51,0,0,0-.47.32,1.48,1.48,0,0,0-.3.5A1.61,1.61,0,0,0,345.07,64.81Zm.28-3.8a1.16,1.16,0,0,0,.1.49,1.14,1.14,0,0,0,.25.39,1.08,1.08,0,0,0,.37.26,1.22,1.22,0,0,0,.92,0,1.26,1.26,0,0,0,.38-.27,1.3,1.3,0,0,0,.25-.39,1.28,1.28,0,0,0,.09-.48,1.3,1.3,0,0,0-.09-.49,1.09,1.09,0,0,0-.25-.4,1.05,1.05,0,0,0-.37-.25,1.07,1.07,0,0,0-.47-.1,1.06,1.06,0,0,0-.48.1,1.19,1.19,0,0,0-.61.66A1.28,1.28,0,0,0,345.35,61Z"/><path class="cls-17" d="M352.93,67.41a2.34,2.34,0,0,1-2.05-1.08,5.44,5.44,0,0,1-.73-3.1,6.06,6.06,0,0,1,.76-3.36,2.51,2.51,0,0,1,2.22-1.15q2.78,0,2.77,4.31a5.65,5.65,0,0,1-.78,3.25A2.52,2.52,0,0,1,352.93,67.41Zm.13-7.6c-1,0-1.52,1.12-1.52,3.37q0,3.15,1.5,3.15t1.47-3.21C354.51,60.91,354,59.81,353.06,59.81Z"/><path class="cls-17" d="M258.33,143.94v-8.41H261a3.14,3.14,0,0,1,1.93.54,1.65,1.65,0,0,1,.71,1.39,2,2,0,0,1-.4,1.24,2.23,2.23,0,0,1-1.12.75v0a2.18,2.18,0,0,1,1.38.64,1.93,1.93,0,0,1,.52,1.41,2.12,2.12,0,0,1-.85,1.75,3.38,3.38,0,0,1-2.14.67Zm1.39-7.29V139h.9a1.71,1.71,0,0,0,1.14-.34,1.18,1.18,0,0,0,.42-1c0-.72-.48-1.08-1.45-1.08Zm0,3.51v2.66h1.19a1.79,1.79,0,0,0,1.2-.36,1.21,1.21,0,0,0,.43-1c0-.87-.6-1.31-1.81-1.31Z"/><path class="cls-17" d="M269.85,143.94h-1.32V143h0a2,2,0,0,1-1.82,1.08,1.94,1.94,0,0,1-1.39-.48,1.71,1.71,0,0,1-.5-1.28c0-1.13.65-1.79,2-2l1.78-.25c0-.85-.41-1.28-1.22-1.28a2.85,2.85,0,0,0-1.93.74v-1.19a4.16,4.16,0,0,1,2.19-.57,2,2,0,0,1,2.27,2.24ZM268.54,141l-1.26.17a2,2,0,0,0-.88.29.83.83,0,0,0-.3.73.77.77,0,0,0,.28.62,1,1,0,0,0,.72.24,1.34,1.34,0,0,0,1-.43,1.56,1.56,0,0,0,.41-1.1Z"/><path class="cls-17" d="M275.63,143.66a3.33,3.33,0,0,1-1.71.42,2.89,2.89,0,0,1-2.16-.84,3,3,0,0,1-.82-2.16,3.27,3.27,0,0,1,.89-2.39,3.13,3.13,0,0,1,2.35-.9,3.47,3.47,0,0,1,1.45.29v1.27a2.2,2.2,0,0,0-1.33-.47,1.86,1.86,0,0,0-1.42.58,2.17,2.17,0,0,0-.55,1.53,2.06,2.06,0,0,0,.52,1.47,1.85,1.85,0,0,0,1.39.54,2.25,2.25,0,0,0,1.39-.52Z"/><path class="cls-17" d="M282.24,143.94h-1.73l-2.33-2.89h0v2.89h-1.37v-8.89h1.37v5.63h0l2.21-2.74H282l-2.48,2.89Z"/><path class="cls-17" d="M285.33,141.16h-3.2v-1h3.2Z"/><path class="cls-17" d="M291.89,141.3H287.8a1.77,1.77,0,0,0,.51,1.29,1.93,1.93,0,0,0,1.35.45,2.9,2.9,0,0,0,1.76-.58v1.1a4,4,0,0,1-2.17.52,2.69,2.69,0,0,1-2.07-.82,3.24,3.24,0,0,1-.76-2.3,3.2,3.2,0,0,1,.83-2.28,2.72,2.72,0,0,1,2.06-.89,2.38,2.38,0,0,1,1.91.8,3.26,3.26,0,0,1,.67,2.19Zm-1.31-1a1.8,1.8,0,0,0-.35-1.14,1.15,1.15,0,0,0-.94-.4,1.32,1.32,0,0,0-1,.42,2,2,0,0,0-.5,1.12Z"/><path class="cls-17" d="M298.35,143.94H297v-3.39c0-1.12-.4-1.68-1.19-1.68a1.29,1.29,0,0,0-1,.47,1.72,1.72,0,0,0-.41,1.17v3.43H293v-6h1.36v1h0a2.14,2.14,0,0,1,1.95-1.14,1.82,1.82,0,0,1,1.49.64,2.82,2.82,0,0,1,.52,1.84Z"/><path class="cls-17" d="M305.28,143.94h-1.36v-1h0a2.34,2.34,0,0,1-3.79.35,3.31,3.31,0,0,1-.67-2.19,3.65,3.65,0,0,1,.74-2.39,2.4,2.4,0,0,1,2-.9,1.88,1.88,0,0,1,1.76,1h0v-3.72h1.36Zm-1.34-2.75v-.78a1.57,1.57,0,0,0-.41-1.09,1.52,1.52,0,0,0-2.26.13,2.53,2.53,0,0,0-.44,1.57,2.29,2.29,0,0,0,.42,1.45,1.37,1.37,0,0,0,1.13.53,1.42,1.42,0,0,0,1.13-.51A2,2,0,0,0,303.94,141.19Z"/><path class="cls-17" d="M307.44,139.43a.88.88,0,0,1-.6-.23.76.76,0,0,1-.24-.56.77.77,0,0,1,.24-.56.91.91,0,0,1,1.21,0,.78.78,0,0,1,.25.56.77.77,0,0,1-.25.56A.89.89,0,0,1,307.44,139.43Zm0,4.63a.84.84,0,0,1-.6-.23.76.76,0,0,1,0-1.11.88.88,0,0,1,1.21,0,.74.74,0,0,1,0,1.11A.84.84,0,0,1,307.44,144.06Z"/><path class="cls-17" d="M314.25,140.89v3.05h-1.39v-8.41h2.55a3.38,3.38,0,0,1,2.25.68,2.35,2.35,0,0,1,.79,1.9,2.6,2.6,0,0,1-.83,2,3.14,3.14,0,0,1-2.25.78Zm0-4.21v3.07h.91a2,2,0,0,0,1.36-.41,1.51,1.51,0,0,0,.47-1.18c0-1-.57-1.48-1.72-1.48Z"/><path class="cls-17" d="M321.8,144.08a3,3,0,0,1-2.22-.84,3.07,3.07,0,0,1-.83-2.23,3,3,0,0,1,3.2-3.22,2.89,2.89,0,0,1,2.19.83,3.21,3.21,0,0,1,.78,2.29,3.14,3.14,0,0,1-.84,2.3A3.05,3.05,0,0,1,321.8,144.08Zm.07-5.2a1.51,1.51,0,0,0-1.26.56,2.31,2.31,0,0,0-.47,1.53,2.24,2.24,0,0,0,.47,1.49,1.58,1.58,0,0,0,1.26.54,1.49,1.49,0,0,0,1.23-.54,2.32,2.32,0,0,0,.43-1.51,2.38,2.38,0,0,0-.43-1.53A1.49,1.49,0,0,0,321.87,138.88Z"/><path class="cls-17" d="M329.61,139.23a1.13,1.13,0,0,0-.71-.19,1.22,1.22,0,0,0-1,.54,2.45,2.45,0,0,0-.4,1.48v2.88h-1.36v-6h1.36v1.23h0a2.14,2.14,0,0,1,.61-1,1.43,1.43,0,0,1,.92-.35,1.22,1.22,0,0,1,.57.11Z"/><path class="cls-17" d="M333.9,143.87a2.42,2.42,0,0,1-1,.2c-1.16,0-1.75-.56-1.75-1.68V139h-1v-1.06h1v-1.39l1.36-.39v1.78h1.44V139h-1.44v3a1.15,1.15,0,0,0,.2.76.77.77,0,0,0,.64.23.91.91,0,0,0,.6-.2Z"/><path class="cls-17" d="M339.5,143.94h-1.32V143h0a2,2,0,0,1-1.82,1.08,1.9,1.9,0,0,1-1.38-.48,1.68,1.68,0,0,1-.51-1.28c0-1.13.66-1.79,2-2l1.78-.25c0-.85-.4-1.28-1.22-1.28a2.85,2.85,0,0,0-1.93.74v-1.19a4.16,4.16,0,0,1,2.19-.57A2,2,0,0,1,339.5,140ZM338.18,141l-1.26.17a2,2,0,0,0-.88.29.82.82,0,0,0-.29.73.8.8,0,0,0,.27.62,1.05,1.05,0,0,0,.73.24,1.37,1.37,0,0,0,1-.43,1.55,1.55,0,0,0,.4-1.1Z"/><path class="cls-17" d="M343.74,141.59a2.74,2.74,0,0,1,.09-.7,2.22,2.22,0,0,1,.27-.63,2.47,2.47,0,0,1,.46-.51,2.08,2.08,0,0,1,.65-.37,2.47,2.47,0,0,1-.87-.79,1.78,1.78,0,0,1-.32-1.05,1.9,1.9,0,0,1,.19-.86,2,2,0,0,1,.52-.68,2.6,2.6,0,0,1,.8-.45,3.16,3.16,0,0,1,1-.16,3,3,0,0,1,1,.17,2.6,2.6,0,0,1,.8.45,2,2,0,0,1,.52.68,1.93,1.93,0,0,1-.13,1.9,2.62,2.62,0,0,1-.86.79,2.21,2.21,0,0,1,.64.36,2.11,2.11,0,0,1,.47.52,2.31,2.31,0,0,1,.28.62,2.82,2.82,0,0,1,.09.71,2.56,2.56,0,0,1-.2,1,2.24,2.24,0,0,1-.58.78,2.55,2.55,0,0,1-.88.51,3.67,3.67,0,0,1-2.27,0,2.64,2.64,0,0,1-.88-.51,2.24,2.24,0,0,1-.58-.78A2.4,2.4,0,0,1,343.74,141.59Zm1.33-.12a1.89,1.89,0,0,0,.1.65,1.44,1.44,0,0,0,.3.49,1.27,1.27,0,0,0,.47.3,1.64,1.64,0,0,0,.6.11,1.59,1.59,0,0,0,.59-.11,1.54,1.54,0,0,0,.47-.31,1.64,1.64,0,0,0,.31-.49,1.83,1.83,0,0,0,.11-.64,1.73,1.73,0,0,0-.11-.6,1.48,1.48,0,0,0-.3-.5,1.29,1.29,0,0,0-.46-.33,1.51,1.51,0,0,0-.61-.12,1.44,1.44,0,0,0-.59.11,1.51,1.51,0,0,0-.47.32,1.48,1.48,0,0,0-.3.5A1.59,1.59,0,0,0,345.07,141.47Zm.28-3.79a1.16,1.16,0,0,0,.1.49,1.14,1.14,0,0,0,.25.39,1.08,1.08,0,0,0,.37.26,1.22,1.22,0,0,0,.92,0,1.26,1.26,0,0,0,.38-.27,1.3,1.3,0,0,0,.25-.39,1.28,1.28,0,0,0,.09-.48,1.3,1.3,0,0,0-.09-.49,1.09,1.09,0,0,0-.25-.4,1.05,1.05,0,0,0-.37-.25,1.07,1.07,0,0,0-.47-.1,1.06,1.06,0,0,0-.48.1,1.08,1.08,0,0,0-.37.26,1.1,1.1,0,0,0-.24.4A1.28,1.28,0,0,0,345.35,137.68Z"/><path class="cls-17" d="M352.93,144.08a2.34,2.34,0,0,1-2.05-1.08,5.44,5.44,0,0,1-.73-3.1,6.06,6.06,0,0,1,.76-3.36,2.51,2.51,0,0,1,2.22-1.15q2.78,0,2.77,4.31a5.65,5.65,0,0,1-.78,3.25A2.52,2.52,0,0,1,352.93,144.08Zm.13-7.6c-1,0-1.52,1.12-1.52,3.37q0,3.15,1.5,3.15t1.47-3.21C354.51,137.58,354,136.48,353.06,136.48Z"/><path class="cls-17" d="M21.9,136.72H18.76v2.52h2.9v1.18h-2.9v3.52H17.37v-8.41H21.9Z"/><path class="cls-17" d="M26.48,139.23a1.1,1.1,0,0,0-.7-.19,1.21,1.21,0,0,0-1,.54,2.45,2.45,0,0,0-.41,1.48v2.88H23v-6h1.36v1.23h0a2.07,2.07,0,0,1,.61-1,1.39,1.39,0,0,1,.92-.35,1.15,1.15,0,0,1,.56.11Z"/><path class="cls-17" d="M29.76,144.08a3,3,0,0,1-2.22-.84,3.07,3.07,0,0,1-.83-2.23,3,3,0,0,1,3.2-3.22,2.9,2.9,0,0,1,2.19.83,3.21,3.21,0,0,1,.78,2.29,3.14,3.14,0,0,1-.84,2.3A3.05,3.05,0,0,1,29.76,144.08Zm.06-5.2a1.53,1.53,0,0,0-1.26.56A2.37,2.37,0,0,0,28.1,141a2.24,2.24,0,0,0,.47,1.49,1.57,1.57,0,0,0,1.25.54,1.5,1.5,0,0,0,1.24-.54,2.32,2.32,0,0,0,.43-1.51,2.38,2.38,0,0,0-.43-1.53A1.5,1.5,0,0,0,29.82,138.88Z"/><path class="cls-17" d="M39.37,143.94H38v-3.39c0-1.12-.4-1.68-1.19-1.68a1.29,1.29,0,0,0-1,.47,1.72,1.72,0,0,0-.41,1.17v3.43H34v-6h1.36v1h0a2.14,2.14,0,0,1,2-1.14,1.82,1.82,0,0,1,1.49.64,2.82,2.82,0,0,1,.52,1.84Z"/><path class="cls-17" d="M44,143.87a2.36,2.36,0,0,1-1.05.2,1.51,1.51,0,0,1-1.74-1.68V139h-1v-1.06h1v-1.39l1.36-.39v1.78H44V139H42.52v3a1.16,1.16,0,0,0,.19.76.77.77,0,0,0,.64.23.91.91,0,0,0,.6-.2Z"/><path class="cls-17" d="M47.43,141.16h-3.2v-1h3.2Z"/><path class="cls-17" d="M53.94,141.3H49.85a1.7,1.7,0,0,0,.51,1.29,1.91,1.91,0,0,0,1.34.45,2.93,2.93,0,0,0,1.77-.58v1.1a4.07,4.07,0,0,1-2.17.52,2.73,2.73,0,0,1-2.08-.82,3.28,3.28,0,0,1-.75-2.3,3.2,3.2,0,0,1,.83-2.28,2.71,2.71,0,0,1,2.06-.89,2.36,2.36,0,0,1,1.9.8,3.26,3.26,0,0,1,.68,2.19Zm-1.32-1a1.74,1.74,0,0,0-.34-1.14,1.16,1.16,0,0,0-.94-.4,1.32,1.32,0,0,0-1,.42,2,2,0,0,0-.5,1.12Z"/><path class="cls-17" d="M60.34,143.94H59v-3.39c0-1.12-.4-1.68-1.19-1.68a1.31,1.31,0,0,0-1,.47,1.71,1.71,0,0,0-.4,1.17v3.43H55v-6h1.37v1h0a2.14,2.14,0,0,1,1.95-1.14,1.82,1.82,0,0,1,1.49.64,2.88,2.88,0,0,1,.52,1.84Z"/><path class="cls-17" d="M67.21,143.94H65.85v-1h0a2.35,2.35,0,0,1-3.8.35,3.37,3.37,0,0,1-.66-2.19,3.65,3.65,0,0,1,.73-2.39,2.41,2.41,0,0,1,2-.9,1.89,1.89,0,0,1,1.77,1h0v-3.72h1.36Zm-1.34-2.75v-.78a1.53,1.53,0,0,0-.42-1.09,1.41,1.41,0,0,0-1.06-.44,1.43,1.43,0,0,0-1.2.57,2.53,2.53,0,0,0-.43,1.57,2.36,2.36,0,0,0,.41,1.45,1.38,1.38,0,0,0,1.13.53,1.41,1.41,0,0,0,1.13-.51A2,2,0,0,0,65.87,141.19Z"/><path class="cls-17" d="M69.31,139.43a.85.85,0,0,1-.6-.23.73.73,0,0,1-.25-.56.75.75,0,0,1,.25-.56.85.85,0,0,1,.6-.23.86.86,0,0,1,.6.23.75.75,0,0,1,.25.56.73.73,0,0,1-.25.56A.86.86,0,0,1,69.31,139.43Zm0,4.63a.81.81,0,0,1-.6-.23.74.74,0,0,1,0-1.11.81.81,0,0,1,.6-.24.83.83,0,0,1,.6.24.74.74,0,0,1,0,1.11A.82.82,0,0,1,69.31,144.06Z"/><path class="cls-17" d="M76,140.89v3.05H74.61v-8.41h2.55a3.37,3.37,0,0,1,2.24.68,2.36,2.36,0,0,1,.8,1.9,2.64,2.64,0,0,1-.83,2,3.18,3.18,0,0,1-2.25.78Zm0-4.21v3.07h.9a2.06,2.06,0,0,0,1.37-.41,1.5,1.5,0,0,0,.46-1.18c0-1-.57-1.48-1.72-1.48Z"/><path class="cls-17" d="M83.49,144.08a3,3,0,0,1-2.22-.84,3.07,3.07,0,0,1-.83-2.23,3,3,0,0,1,3.19-3.22,2.91,2.91,0,0,1,2.2.83,3.21,3.21,0,0,1,.78,2.29,3.11,3.11,0,0,1-.85,2.3A3,3,0,0,1,83.49,144.08Zm.06-5.2a1.53,1.53,0,0,0-1.26.56,2.31,2.31,0,0,0-.46,1.53,2.24,2.24,0,0,0,.47,1.49,1.57,1.57,0,0,0,1.25.54,1.5,1.5,0,0,0,1.24-.54,2.38,2.38,0,0,0,.43-1.51,2.44,2.44,0,0,0-.43-1.53A1.5,1.5,0,0,0,83.55,138.88Z"/><path class="cls-17" d="M91.23,139.23a1.11,1.11,0,0,0-.71-.19,1.21,1.21,0,0,0-1,.54,2.45,2.45,0,0,0-.41,1.48v2.88H87.75v-6h1.36v1.23h0a2.07,2.07,0,0,1,.61-1,1.39,1.39,0,0,1,.92-.35,1.18,1.18,0,0,1,.56.11Z"/><path class="cls-17" d="M95.46,143.87a2.35,2.35,0,0,1-1,.2c-1.17,0-1.75-.56-1.75-1.68V139h-1v-1.06h1v-1.39l1.36-.39v1.78h1.43V139H94v3a1.16,1.16,0,0,0,.19.76.79.79,0,0,0,.65.23.86.86,0,0,0,.59-.2Z"/><path class="cls-17" d="M101,143.94H99.68V143h0a2,2,0,0,1-1.82,1.08,1.94,1.94,0,0,1-1.39-.48,1.71,1.71,0,0,1-.5-1.28c0-1.13.65-1.79,2-2l1.78-.25c0-.85-.41-1.28-1.22-1.28a2.85,2.85,0,0,0-1.93.74v-1.19a4.16,4.16,0,0,1,2.19-.57A2,2,0,0,1,101,140ZM99.69,141l-1.26.17a1.93,1.93,0,0,0-.88.29.83.83,0,0,0-.3.73.8.8,0,0,0,.27.62,1.09,1.09,0,0,0,.73.24,1.34,1.34,0,0,0,1-.43,1.56,1.56,0,0,0,.41-1.1Z"/><path class="cls-17" d="M105.13,141.59a2.74,2.74,0,0,1,.09-.7,2.22,2.22,0,0,1,.27-.63,2.29,2.29,0,0,1,1.1-.88,2.65,2.65,0,0,1-.87-.79,1.86,1.86,0,0,1-.32-1.05,2,2,0,0,1,.19-.86,2.19,2.19,0,0,1,.53-.68,2.54,2.54,0,0,1,.79-.45,3.22,3.22,0,0,1,1-.16,3,3,0,0,1,1,.17,2.54,2.54,0,0,1,.79.45,2.06,2.06,0,0,1,.53.68,2,2,0,0,1,.18.85,1.78,1.78,0,0,1-.32,1.05,2.58,2.58,0,0,1-.85.79,2.35,2.35,0,0,1,.64.36,2.07,2.07,0,0,1,.46.52,2,2,0,0,1,.28.62,2.44,2.44,0,0,1,.1.71,2.4,2.4,0,0,1-.21,1,2.1,2.1,0,0,1-.57.78,2.59,2.59,0,0,1-.89.51,3.64,3.64,0,0,1-2.26,0,2.55,2.55,0,0,1-.88-.51,2.27,2.27,0,0,1-.59-.78A2.56,2.56,0,0,1,105.13,141.59Zm1.32-.12a1.88,1.88,0,0,0,.11.65,1.44,1.44,0,0,0,.3.49,1.23,1.23,0,0,0,.46.3,1.7,1.7,0,0,0,.61.11,1.63,1.63,0,0,0,.59-.11,1.67,1.67,0,0,0,.47-.31,1.44,1.44,0,0,0,.3-.49,1.62,1.62,0,0,0,.11-.64,1.72,1.72,0,0,0-.1-.6,1.48,1.48,0,0,0-.3-.5,1.33,1.33,0,0,0-.47-.33,1.46,1.46,0,0,0-.6-.12,1.44,1.44,0,0,0-.59.11,1.4,1.4,0,0,0-.47.32,1.69,1.69,0,0,0-.31.5A1.8,1.8,0,0,0,106.45,141.47Zm.29-3.79a1.33,1.33,0,0,0,.09.49,1.3,1.3,0,0,0,.25.39,1.12,1.12,0,0,0,.38.26,1.14,1.14,0,0,0,.46.09,1.07,1.07,0,0,0,.83-.36,1.33,1.33,0,0,0,.26-.39,1.28,1.28,0,0,0,.09-.48,1.3,1.3,0,0,0-.09-.49,1.09,1.09,0,0,0-.63-.65,1,1,0,0,0-.46-.1,1.06,1.06,0,0,0-.48.1,1.12,1.12,0,0,0-.38.26,1.47,1.47,0,0,0-.24.4A1.51,1.51,0,0,0,106.74,137.68Z"/><path class="cls-17" d="M114.26,144.08a2.34,2.34,0,0,1-2.05-1.08,5.44,5.44,0,0,1-.74-3.1,6,6,0,0,1,.77-3.36,2.49,2.49,0,0,1,2.22-1.15c1.84,0,2.77,1.44,2.77,4.31a5.57,5.57,0,0,1-.79,3.25A2.51,2.51,0,0,1,114.26,144.08Zm.13-7.6c-1,0-1.53,1.12-1.53,3.37q0,3.15,1.5,3.15c1,0,1.48-1.07,1.48-3.21S115.36,136.48,114.39,136.48Z"/><path class="cls-17" d="M258.33,224.84v-8.4H261a3.2,3.2,0,0,1,1.93.53,1.68,1.68,0,0,1,.71,1.39,2,2,0,0,1-.4,1.24,2.23,2.23,0,0,1-1.12.75v0a2.13,2.13,0,0,1,1.38.64,1.93,1.93,0,0,1,.52,1.41,2.09,2.09,0,0,1-.85,1.74,3.32,3.32,0,0,1-2.14.67Zm1.39-7.28V220h.9a1.76,1.76,0,0,0,1.14-.34,1.19,1.19,0,0,0,.42-1c0-.72-.48-1.08-1.45-1.08Zm0,3.51v2.66h1.19a1.79,1.79,0,0,0,1.2-.36,1.22,1.22,0,0,0,.43-1c0-.87-.6-1.3-1.81-1.3Z"/><path class="cls-17" d="M269.85,224.84h-1.32v-.94h0a2,2,0,0,1-1.82,1.08,1.94,1.94,0,0,1-1.39-.48,1.69,1.69,0,0,1-.5-1.27c0-1.13.65-1.79,2-2l1.78-.25c0-.86-.41-1.29-1.22-1.29a2.9,2.9,0,0,0-1.93.74v-1.19a4.25,4.25,0,0,1,2.19-.56,2,2,0,0,1,2.27,2.24Zm-1.31-3-1.26.18a2,2,0,0,0-.88.28.84.84,0,0,0-.3.73.79.79,0,0,0,.28.63,1,1,0,0,0,.72.24,1.34,1.34,0,0,0,1-.44,1.54,1.54,0,0,0,.41-1.09Z"/><path class="cls-17" d="M275.63,224.57a3.43,3.43,0,0,1-1.71.41,2.92,2.92,0,0,1-2.16-.83,3,3,0,0,1-.82-2.17,3.25,3.25,0,0,1,.89-2.38,3.13,3.13,0,0,1,2.35-.9,3.47,3.47,0,0,1,1.45.29v1.26a2.2,2.2,0,0,0-1.33-.47,1.87,1.87,0,0,0-1.42.59,2.15,2.15,0,0,0-.55,1.52,2.06,2.06,0,0,0,.52,1.47,1.85,1.85,0,0,0,1.39.54,2.19,2.19,0,0,0,1.39-.52Z"/><path class="cls-17" d="M282.24,224.84h-1.73L278.18,222h0v2.88h-1.37V216h1.37v5.63h0l2.21-2.75H282l-2.48,2.9Z"/><path class="cls-17" d="M285.33,222.06h-3.2v-1h3.2Z"/><path class="cls-17" d="M291.89,222.21H287.8a1.77,1.77,0,0,0,.51,1.28,1.93,1.93,0,0,0,1.35.45,3,3,0,0,0,1.76-.57v1.1a4.05,4.05,0,0,1-2.17.51,2.65,2.65,0,0,1-2.07-.82,3.7,3.7,0,0,1,.07-4.58,2.72,2.72,0,0,1,2.06-.88,2.37,2.37,0,0,1,1.91.79,3.29,3.29,0,0,1,.67,2.2Zm-1.31-1a1.76,1.76,0,0,0-.35-1.14,1.16,1.16,0,0,0-.94-.41,1.3,1.3,0,0,0-1,.43,2,2,0,0,0-.5,1.12Z"/><path class="cls-17" d="M298.35,224.84H297v-3.38c0-1.12-.4-1.68-1.19-1.68a1.28,1.28,0,0,0-1,.46,1.75,1.75,0,0,0-.41,1.18v3.42H293v-6h1.36v1h0a2.14,2.14,0,0,1,1.95-1.14,1.79,1.79,0,0,1,1.49.64,2.79,2.79,0,0,1,.52,1.83Z"/><path class="cls-17" d="M305.28,224.84h-1.36v-1h0a2.35,2.35,0,0,1-3.79.36,3.32,3.32,0,0,1-.67-2.2,3.62,3.62,0,0,1,.74-2.38,2.4,2.4,0,0,1,2-.9,1.87,1.87,0,0,1,1.76,1h0V216h1.36Zm-1.34-2.74v-.79a1.56,1.56,0,0,0-.41-1.08,1.4,1.4,0,0,0-1.07-.45,1.42,1.42,0,0,0-1.19.57,2.56,2.56,0,0,0-.44,1.58,2.24,2.24,0,0,0,.42,1.44,1.34,1.34,0,0,0,1.13.53,1.42,1.42,0,0,0,1.13-.51A1.92,1.92,0,0,0,303.94,222.1Z"/><path class="cls-17" d="M307.44,220.33a.84.84,0,0,1-.6-.23.76.76,0,0,1,0-1.11.88.88,0,0,1,1.21,0,.74.74,0,0,1,0,1.11A.84.84,0,0,1,307.44,220.33Zm0,4.64a.88.88,0,0,1-.6-.23.76.76,0,0,1-.24-.56.77.77,0,0,1,.24-.56.91.91,0,0,1,1.21,0,.78.78,0,0,1,.25.56.77.77,0,0,1-.25.56A.89.89,0,0,1,307.44,225Z"/><path class="cls-17" d="M314.25,221.79v3.05h-1.39v-8.4h2.55a3.38,3.38,0,0,1,2.25.67,2.35,2.35,0,0,1,.79,1.9,2.58,2.58,0,0,1-.83,2,3.14,3.14,0,0,1-2.25.78Zm0-4.2v3.07h.91a2,2,0,0,0,1.36-.42,1.5,1.5,0,0,0,.47-1.17c0-1-.57-1.48-1.72-1.48Z"/><path class="cls-17" d="M321.8,225a3,3,0,0,1-2.22-.84,3,3,0,0,1-.83-2.23,3,3,0,0,1,3.2-3.21,2.89,2.89,0,0,1,2.19.83,3.66,3.66,0,0,1-.06,4.59A3.08,3.08,0,0,1,321.8,225Zm.07-5.2a1.53,1.53,0,0,0-1.26.56,2.32,2.32,0,0,0-.47,1.54,2.21,2.21,0,0,0,.47,1.48,1.58,1.58,0,0,0,1.26.54,1.48,1.48,0,0,0,1.23-.53,2.35,2.35,0,0,0,.43-1.52,2.38,2.38,0,0,0-.43-1.53A1.49,1.49,0,0,0,321.87,219.78Z"/><path class="cls-17" d="M329.61,220.14a1.13,1.13,0,0,0-.71-.2,1.21,1.21,0,0,0-1,.55,2.41,2.41,0,0,0-.4,1.48v2.87h-1.36v-6h1.36v1.24h0a2.14,2.14,0,0,1,.61-1,1.38,1.38,0,0,1,.92-.35,1.11,1.11,0,0,1,.57.11Z"/><path class="cls-17" d="M333.9,224.78a2.42,2.42,0,0,1-1,.2c-1.16,0-1.75-.56-1.75-1.68v-3.39h-1v-1.07h1v-1.39l1.36-.38v1.77h1.44v1.07h-1.44v3a1.17,1.17,0,0,0,.2.76.8.8,0,0,0,.64.23,1,1,0,0,0,.6-.2Z"/><path class="cls-17" d="M339.5,224.84h-1.32v-.94h0a2,2,0,0,1-1.82,1.08,1.9,1.9,0,0,1-1.38-.48,1.66,1.66,0,0,1-.51-1.27c0-1.13.66-1.79,2-2l1.78-.25c0-.86-.4-1.29-1.22-1.29a2.9,2.9,0,0,0-1.93.74v-1.19a4.25,4.25,0,0,1,2.19-.56,2,2,0,0,1,2.28,2.24Zm-1.32-3-1.26.18a2,2,0,0,0-.88.28.83.83,0,0,0-.29.73.82.82,0,0,0,.27.63,1.05,1.05,0,0,0,.73.24,1.38,1.38,0,0,0,1-.44,1.53,1.53,0,0,0,.4-1.09Z"/><path class="cls-17" d="M343.74,222.5a2.76,2.76,0,0,1,.09-.71,2.29,2.29,0,0,1,.27-.62,2.52,2.52,0,0,1,.46-.52,2.56,2.56,0,0,1,.65-.37,2.36,2.36,0,0,1-.87-.78,1.81,1.81,0,0,1-.32-1.06,1.86,1.86,0,0,1,.19-.85,2,2,0,0,1,.52-.68,2.6,2.6,0,0,1,.8-.45,2.9,2.9,0,0,1,1-.16,3,3,0,0,1,1,.16,2.6,2.6,0,0,1,.8.45,2,2,0,0,1,.52.68,1.95,1.95,0,0,1-.13,1.91,2.49,2.49,0,0,1-.86.78,2.5,2.5,0,0,1,.64.37,2.13,2.13,0,0,1,.75,1.14,2.71,2.71,0,0,1,.09.71,2.51,2.51,0,0,1-.2,1,2.28,2.28,0,0,1-.58.79,2.7,2.7,0,0,1-.88.5,3.49,3.49,0,0,1-2.27,0,2.8,2.8,0,0,1-.88-.5,2.28,2.28,0,0,1-.58-.79A2.36,2.36,0,0,1,343.74,222.5Zm1.33-.12a1.83,1.83,0,0,0,.1.64,1.27,1.27,0,0,0,.3.49,1.29,1.29,0,0,0,.47.31,1.64,1.64,0,0,0,.6.1,1.59,1.59,0,0,0,.59-.11,1.25,1.25,0,0,0,.47-.31,1.47,1.47,0,0,0,.31-.48,1.87,1.87,0,0,0,.11-.64,1.78,1.78,0,0,0-.11-.61,1.5,1.5,0,0,0-.76-.83,1.51,1.51,0,0,0-.61-.12,1.45,1.45,0,0,0-.59.12,1.36,1.36,0,0,0-.47.32,1.44,1.44,0,0,0-.3.49A1.61,1.61,0,0,0,345.07,222.38Zm.28-3.8a1.31,1.31,0,0,0,.35.88,1.11,1.11,0,0,0,.37.27,1.18,1.18,0,0,0,.46.09,1,1,0,0,0,.46-.1,1.22,1.22,0,0,0,.38-.26,1.3,1.3,0,0,0,.25-.39,1.38,1.38,0,0,0,0-1,1.14,1.14,0,0,0-.25-.39,1.08,1.08,0,0,0-.37-.26,1.23,1.23,0,0,0-.47-.09,1.21,1.21,0,0,0-.48.09,1.26,1.26,0,0,0-.37.27,1,1,0,0,0-.24.4A1.27,1.27,0,0,0,345.35,218.58Z"/><path class="cls-17" d="M352.93,225a2.35,2.35,0,0,1-2.05-1.07,5.49,5.49,0,0,1-.73-3.1,6.09,6.09,0,0,1,.76-3.37,2.52,2.52,0,0,1,2.22-1.14q2.78,0,2.77,4.3a5.69,5.69,0,0,1-.78,3.26A2.51,2.51,0,0,1,352.93,225Zm.13-7.6c-1,0-1.52,1.12-1.52,3.37q0,3.15,1.5,3.15c1,0,1.47-1.07,1.47-3.2S354,217.38,353.06,217.38Z"/></g></svg>