<svg xmlns="http://www.w3.org/2000/svg" viewBox="0 0 224.94 200.3"><title>OJ104440668</title><path d="M211.09,79h-20.5a1.09,1.09,0,0,0-1.09,1.1V96.88a1.09,1.09,0,0,0,1.09,1.1h5.28a3.29,3.29,0,0,0,3.21,2.27,3.38,3.38,0,0,0,0-6.75,3.29,3.29,0,0,0-3.21,2.27h-4.19v-12H210v12h-3.45a7.61,7.61,0,0,0-7.46-6.56,8.25,8.25,0,0,0-3.64.92l1,2a5.27,5.27,0,0,1,2.55-.67,5.46,5.46,0,0,1,0,10.91,5.27,5.27,0,0,1-2.55-.67l-1,2a7.51,7.51,0,0,0,3.64.92A7.61,7.61,0,0,0,206.54,98h4.55a1.09,1.09,0,0,0,1.09-1.1V80.13A1.14,1.14,0,0,0,211.09,79Z" fill="#008bfd" fill-rule="evenodd"/><path d="M73.65,106H59.44V77.6H73.65v7.67h.76V76.83H58.68v29.91H74.41v-2.32h-.76Z" fill="#0078d7" fill-rule="evenodd"/><path d="M72.88,78.39H60.24V83H72.88ZM63.3,80.31h6.53v.76H63.3Zm6.59,1.84H63.27v-.76h6.62Z" fill="#0078d7" fill-rule="evenodd"/><path d="M60.21,83.74V86.8h8.6V85.27h4.08V83.74Z" fill="#0078d7" fill-rule="evenodd"/><rect x="60.21" y="87.57" width="8.6" height="2.68" fill="#0078d7"/><path d="M60.21,105.21H72.86v-.8H68.78V91h-8.6v14.17Zm1.53-2.74H64v1.21H61.74Z" fill="#0078d7" fill-rule="evenodd"/><path d="M83.43,102.15H81v-1.87H78.46v1.87H76a1.32,1.32,0,0,0-1.31,1.15h10A1.29,1.29,0,0,0,83.43,102.15Z" fill="#0078d7" fill-rule="evenodd"/><path d="M88.27,88.17H71.17a.65.65,0,0,0-.67.61V98.91a.65.65,0,0,0,.67.6h17.1a.64.64,0,0,0,.67-.6V88.78A.63.63,0,0,0,88.27,88.17Zm-1,9.84H72.19V89.7H87.25Z" fill="#0078d7" fill-rule="evenodd"/><path d="M83.63,95.52V92.08l-3.51-1.84L76.62,92v3.54l3.5,1.81Zm-4.4-2.29.89-.45.86.45-.86.48Zm0-1.15.86-.44.86.44-.86.48Zm1.91,4.53-1,.51v-.93l1-.51Zm0-1.18-1,.51V95l1-.51Zm0-1.12-1,.51V93.9l1-.51Zm-.82-1.65.86-.45.89.45-.86.44Zm2,3.34-.95.51v-.92l.95-.51Zm0-1.18-.95.51v-.92l.95-.51Zm0-1.14-.95.51v-.9l.95-.51Zm1.05,1.75-.86.44V95l.86-.45Zm0-1.15-.86.45V93.8l.86-.44Zm0-1.14-.86.44v-.92l.86-.45Zm-.19-1.06-.89.45-.89-.45.86-.44Zm-1.11-.57-.89.45-.86-.45.86-.44Zm-2-1.05.86.45-.86.44-.89-.44ZM79,91.07l.86.44L79,92l-.86-.45Zm-1.08.57.89.44-.89.45-.9-.45Zm-.26,4.27-.86-.45v-.92l.86.44Zm0-1.18-.86-.45v-.92l.86.44Zm0-1.15-.86-.44v-.9l.86.45Zm1.18,2.93-1-.51v-.92l1,.51Zm0-1.18-1-.51V93.9l1,.51Zm0-1.14-1-.51v-.9l1,.51Zm-.7-1.53.89-.45.86.45-.89.48ZM80,97.12l-1-.51v-.89l1,.5ZM80,96l-1-.51v-.92l1,.51Zm0-1.15-1-.51v-.92l1,.51Z" fill="#0078d7" fill-rule="evenodd"/><path d="M84.06,154.79H63.56a1.09,1.09,0,0,0-1.09,1.1v16.75a1.09,1.09,0,0,0,1.09,1.1h5.28A3.29,3.29,0,0,0,72.05,176a3.38,3.38,0,0,0,0-6.75,3.29,3.29,0,0,0-3.21,2.27H64.65v-12H83v12H79.51A7.61,7.61,0,0,0,72.05,165a8.25,8.25,0,0,0-3.64.92l1,2a5.27,5.27,0,0,1,2.55-.67,5.46,5.46,0,0,1,0,10.91,5.27,5.27,0,0,1-2.55-.67l-1,2a7.51,7.51,0,0,0,3.64.92,7.61,7.61,0,0,0,7.46-6.56h4.55a1.09,1.09,0,0,0,1.09-1.1V155.89A1.14,1.14,0,0,0,84.06,154.79Z" fill="#008bfd" fill-rule="evenodd"/><g style="isolation:isolate"><path d="M44.68,193.3h-.91l-.74-2h-3l-.7,2h-.91l2.68-7H42Zm-1.92-2.7-1.1-3a2.53,2.53,0,0,1-.11-.47h0a2.53,2.53,0,0,1-.11.47l-1.09,3Z" fill="#008bfd"/><path d="M46.28,190.65v2.65h-.82v-7h1.92a2.56,2.56,0,0,1,1.74.55,2,2,0,0,1,.62,1.54,2.14,2.14,0,0,1-.69,1.64,2.61,2.61,0,0,1-1.85.63Zm0-3.61v2.87h.86a1.91,1.91,0,0,0,1.29-.39,1.37,1.37,0,0,0,.45-1.1c0-.92-.55-1.38-1.64-1.38Z" fill="#008bfd"/><path d="M51.63,193.3h-.82v-7h.82Z" fill="#008bfd"/><path d="M64,186.29l-2,7h-1l-1.44-5.12a3.19,3.19,0,0,1-.11-.71h0a4.11,4.11,0,0,1-.13.7l-1.45,5.13H57l-2-7h.9l1.49,5.38a3.94,3.94,0,0,1,.12.7h0a5,5,0,0,1,.15-.7l1.55-5.38h.79l1.48,5.42a4.48,4.48,0,0,1,.12.65h0a3.2,3.2,0,0,1,.13-.67l1.43-5.4Z" fill="#008bfd"/><path d="M68.32,191H64.79a1.87,1.87,0,0,0,.45,1.29,1.54,1.54,0,0,0,1.18.45,2.46,2.46,0,0,0,1.55-.56v.76a3,3,0,0,1-1.74.47,2.11,2.11,0,0,1-1.67-.68,2.79,2.79,0,0,1-.6-1.91,2.76,2.76,0,0,1,.66-1.91,2.12,2.12,0,0,1,1.64-.73,1.88,1.88,0,0,1,1.52.63,2.67,2.67,0,0,1,.54,1.77Zm-.82-.68a1.62,1.62,0,0,0-.34-1.08,1.12,1.12,0,0,0-.91-.39,1.28,1.28,0,0,0-1,.41,1.78,1.78,0,0,0-.49,1.06Z" fill="#008bfd"/><path d="M70.1,192.57h0v.73h-.8v-7.41h.8v3.29h0a1.88,1.88,0,0,1,1.73-1,1.81,1.81,0,0,1,1.5.67,2.74,2.74,0,0,1,.55,1.8,3.07,3.07,0,0,1-.61,2,2,2,0,0,1-1.67.75A1.65,1.65,0,0,1,70.1,192.57Zm0-2v.7a1.48,1.48,0,0,0,.4,1.05,1.34,1.34,0,0,0,1,.43,1.36,1.36,0,0,0,1.14-.56,2.56,2.56,0,0,0,.41-1.54,2,2,0,0,0-.39-1.31,1.25,1.25,0,0,0-1-.48,1.42,1.42,0,0,0-1.12.49A1.75,1.75,0,0,0,70.08,190.56Z" fill="#008bfd"/><path d="M77.51,193.3v-7h1.93q3.7,0,3.7,3.42a3.4,3.4,0,0,1-1,2.6,3.79,3.79,0,0,1-2.75,1Zm.82-6.26v5.51h1a3,3,0,0,0,2.14-.73,2.73,2.73,0,0,0,.77-2.09c0-1.8-1-2.69-2.86-2.69Z" fill="#008bfd"/><path d="M87.74,193.3h-.8v-.78h0a1.69,1.69,0,0,1-1.54.89,1.65,1.65,0,0,1-1.17-.39,1.38,1.38,0,0,1-.42-1.05c0-.94.55-1.48,1.65-1.63l1.5-.21c0-.85-.35-1.28-1-1.28a2.46,2.46,0,0,0-1.63.62v-.82a3.1,3.1,0,0,1,1.7-.47c1.17,0,1.76.62,1.76,1.86Zm-.8-2.53-1.21.16a2.11,2.11,0,0,0-.84.28.92.92,0,0,0,0,1.3,1,1,0,0,0,.7.23,1.29,1.29,0,0,0,1-.42,1.48,1.48,0,0,0,.39-1Z" fill="#008bfd"/><path d="M93,191H89.49a1.87,1.87,0,0,0,.45,1.29,1.54,1.54,0,0,0,1.18.45,2.46,2.46,0,0,0,1.55-.56v.76a3,3,0,0,1-1.74.47,2.11,2.11,0,0,1-1.67-.68,2.79,2.79,0,0,1-.6-1.91,2.76,2.76,0,0,1,.66-1.91,2.12,2.12,0,0,1,1.64-.73,1.9,1.9,0,0,1,1.52.63,2.67,2.67,0,0,1,.54,1.77Zm-.82-.68a1.68,1.68,0,0,0-.34-1.08,1.12,1.12,0,0,0-.91-.39,1.32,1.32,0,0,0-1,.41,1.83,1.83,0,0,0-.48,1.06Z" fill="#008bfd"/><path d="M101.08,193.3h-.8v-2.87a2.19,2.19,0,0,0-.26-1.21,1,1,0,0,0-.86-.37,1.08,1.08,0,0,0-.87.47,1.8,1.8,0,0,0-.36,1.13v2.85h-.8v-3c0-1-.38-1.48-1.14-1.48a1.07,1.07,0,0,0-.87.44,1.84,1.84,0,0,0-.34,1.16v2.85H94v-5h.8v.79h0a1.68,1.68,0,0,1,1.55-.91,1.43,1.43,0,0,1,.89.28,1.53,1.53,0,0,1,.53.75,1.77,1.77,0,0,1,1.66-1q1.65,0,1.65,2Z" fill="#008bfd"/><path d="M104.43,193.41a2.31,2.31,0,0,1-1.77-.7,2.57,2.57,0,0,1-.66-1.85,2.7,2.7,0,0,1,.69-2,2.49,2.49,0,0,1,1.86-.71,2.24,2.24,0,0,1,1.74.69,2.72,2.72,0,0,1,.63,1.91,2.67,2.67,0,0,1-.68,1.91A2.36,2.36,0,0,1,104.43,193.41Zm.06-4.56a1.52,1.52,0,0,0-1.22.53,2.15,2.15,0,0,0-.45,1.45,2,2,0,0,0,.45,1.4,1.56,1.56,0,0,0,1.22.51,1.47,1.47,0,0,0,1.19-.5,2.2,2.2,0,0,0,.42-1.43,2.22,2.22,0,0,0-.42-1.45A1.45,1.45,0,0,0,104.49,188.85Z" fill="#008bfd"/><path d="M112.1,193.3h-.8v-2.85c0-1.07-.39-1.6-1.16-1.6a1.29,1.29,0,0,0-1,.45,1.72,1.72,0,0,0-.39,1.15v2.85H108v-5h.8v.83h0a1.81,1.81,0,0,1,1.64-.95,1.55,1.55,0,0,1,1.26.53,2.34,2.34,0,0,1,.43,1.53Z" fill="#008bfd"/></g><path d="M17.37,169.49H10.65a.59.59,0,0,1-.61-.57v-6.44H12v-1.77H24.4a.59.59,0,0,1,.62.57v.09a6.4,6.4,0,0,1,1,.33v-.42a1.53,1.53,0,0,0-1.58-1.46h-13L9.08,162v6.9a1.51,1.51,0,0,0,1.57,1.46h7.28A5.8,5.8,0,0,1,17.37,169.49Z" fill="gray" fill-rule="evenodd"/><path d="M26,171l2.34,3.26-2.17-.54-.61,1.64-2.34-2.88-1.75,2.88-.8-1.74-2.17.54,2.14-3.42s.58.92,2.69.92S26,171,26,171Z" fill="gray" fill-rule="evenodd"/><path d="M23.43,170.42a3.43,3.43,0,1,1,0-6.83,3.43,3.43,0,1,1,0,6.83Zm0-6.06a2.66,2.66,0,1,0,2.9,2.65A2.78,2.78,0,0,0,23.43,164.36Z" fill="gray" fill-rule="evenodd"/><path d="M23.43,172.23a5.24,5.24,0,1,1,0-10.45,5.24,5.24,0,1,1,0,10.45Zm0-9.69a4.48,4.48,0,1,0,0,8.93,4.48,4.48,0,1,0,0-8.93Z" fill="gray" fill-rule="evenodd"/><rect x="104.46" y="61.11" width="114.21" height="20" fill="none"/><g style="isolation:isolate"><path d="M122.56,63h-2.73v2.42h2.53v.74h-2.53v3.1H119v-7h3.55Z" fill="#00b0f0"/><path d="M124.34,69.29h-.8V61.88h.8Z" fill="#00b0f0"/><path d="M129.75,69.29H129V68.5h0a1.65,1.65,0,0,1-1.54.9c-1.19,0-1.79-.71-1.79-2.12v-3h.8v2.86c0,1,.4,1.58,1.21,1.58a1.21,1.21,0,0,0,1-.43,1.68,1.68,0,0,0,.38-1.13V64.29h.8Z" fill="#00b0f0"/><path d="M134.77,64.29l-1.68,2.53,1.65,2.47h-.93l-1-1.62a3.9,3.9,0,0,1-.22-.38h0a3.78,3.78,0,0,0-.23.38l-1,1.62h-.93l1.71-2.45-1.63-2.55h.93l1,1.71q.1.18.21.39h0l1.25-2.1Z" fill="#00b0f0"/><path d="M137.55,69.4a2.31,2.31,0,0,1-1.77-.7,2.53,2.53,0,0,1-.67-1.85,2.7,2.7,0,0,1,.69-2,2.49,2.49,0,0,1,1.86-.71,2.25,2.25,0,0,1,1.75.69,2.72,2.72,0,0,1,.63,1.91,2.67,2.67,0,0,1-.68,1.91A2.37,2.37,0,0,1,137.55,69.4Zm0-4.56a1.53,1.53,0,0,0-1.22.53,2.15,2.15,0,0,0-.45,1.45,2.05,2.05,0,0,0,.46,1.4,1.54,1.54,0,0,0,1.21.51,1.49,1.49,0,0,0,1.2-.5,2.18,2.18,0,0,0,.42-1.43,2.22,2.22,0,0,0-.42-1.45A1.47,1.47,0,0,0,137.6,64.84Z" fill="#00b0f0"/><path d="M147.82,69.29H147v-.85h0a2,2,0,0,1-3.22.29,2.71,2.71,0,0,1-.57-1.83,3,3,0,0,1,.63-2,2,2,0,0,1,1.66-.75A1.6,1.6,0,0,1,147,65h0v-3.1h.8ZM147,67v-.74a1.43,1.43,0,0,0-.4-1,1.34,1.34,0,0,0-1-.42,1.39,1.39,0,0,0-1.16.54,2.36,2.36,0,0,0-.42,1.49,2.1,2.1,0,0,0,.41,1.36,1.33,1.33,0,0,0,1.08.5,1.36,1.36,0,0,0,1.08-.48A1.81,1.81,0,0,0,147,67Z" fill="#00b0f0"/><path d="M153.21,67h-3.53a1.92,1.92,0,0,0,.45,1.29,1.56,1.56,0,0,0,1.18.45,2.49,2.49,0,0,0,1.56-.56v.76a2.92,2.92,0,0,1-1.75.47,2.09,2.09,0,0,1-1.66-.68,3.19,3.19,0,0,1,0-3.82,2.15,2.15,0,0,1,1.65-.73,1.86,1.86,0,0,1,1.51.63,2.67,2.67,0,0,1,.54,1.77Zm-.82-.68a1.62,1.62,0,0,0-.33-1.08,1.14,1.14,0,0,0-.92-.39,1.28,1.28,0,0,0-1,.41,1.84,1.84,0,0,0-.49,1.06Z" fill="#00b0f0"/><path d="M160.07,69.06a2.6,2.6,0,0,1-1.37.34,2.27,2.27,0,0,1-1.72-.69,2.54,2.54,0,0,1-.66-1.81,2.78,2.78,0,0,1,.71-2,2.47,2.47,0,0,1,1.89-.75,2.64,2.64,0,0,1,1.16.24v.82a2,2,0,0,0-1.19-.39,1.64,1.64,0,0,0-1.26.55,2.09,2.09,0,0,0-.49,1.45,2,2,0,0,0,.46,1.38,1.59,1.59,0,0,0,1.24.51,2,2,0,0,0,1.23-.43Z" fill="#00b0f0"/><path d="M163.64,65.1a1,1,0,0,0-.61-.16,1,1,0,0,0-.85.48,2.22,2.22,0,0,0-.35,1.32v2.55H161v-5h.8v1h0a1.88,1.88,0,0,1,.52-.83,1.24,1.24,0,0,1,.79-.29,1.22,1.22,0,0,1,.48.07Z" fill="#00b0f0"/><path d="M168.28,67h-3.53a1.87,1.87,0,0,0,.45,1.29,1.54,1.54,0,0,0,1.18.45,2.46,2.46,0,0,0,1.55-.56v.76a2.89,2.89,0,0,1-1.74.47,2.11,2.11,0,0,1-1.67-.68,2.79,2.79,0,0,1-.6-1.91,2.76,2.76,0,0,1,.66-1.91,2.15,2.15,0,0,1,1.64-.73,1.88,1.88,0,0,1,1.52.63,2.67,2.67,0,0,1,.54,1.77Zm-.82-.68a1.68,1.68,0,0,0-.34-1.08,1.12,1.12,0,0,0-.91-.39,1.32,1.32,0,0,0-1,.41,1.83,1.83,0,0,0-.48,1.06Z" fill="#00b0f0"/><path d="M173.5,69.29h-.8v-.85h0a1.84,1.84,0,0,1-1.71,1,1.87,1.87,0,0,1-1.51-.67,2.71,2.71,0,0,1-.56-1.83,3,3,0,0,1,.62-2,2.06,2.06,0,0,1,1.67-.75,1.59,1.59,0,0,1,1.49.81h0v-3.1h.8ZM172.7,67v-.74a1.43,1.43,0,0,0-.4-1,1.32,1.32,0,0,0-1-.42,1.37,1.37,0,0,0-1.15.54,2.36,2.36,0,0,0-.42,1.49,2.1,2.1,0,0,0,.4,1.36,1.33,1.33,0,0,0,1.08.5,1.38,1.38,0,0,0,1.09-.48A1.8,1.8,0,0,0,172.7,67Z" fill="#00b0f0"/><path d="M178.89,67h-3.53a2,2,0,0,0,.45,1.29,1.57,1.57,0,0,0,1.19.45,2.46,2.46,0,0,0,1.55-.56v.76a2.9,2.9,0,0,1-1.75.47,2.09,2.09,0,0,1-1.66-.68,2.79,2.79,0,0,1-.61-1.91,2.72,2.72,0,0,1,.67-1.91,2.13,2.13,0,0,1,1.64-.73,1.9,1.9,0,0,1,1.52.63,2.67,2.67,0,0,1,.53,1.77Zm-.82-.68a1.62,1.62,0,0,0-.33-1.08,1.14,1.14,0,0,0-.92-.39,1.32,1.32,0,0,0-1,.41,1.91,1.91,0,0,0-.49,1.06Z" fill="#00b0f0"/><path d="M184,69.29h-.8V66.44c0-1.07-.39-1.6-1.17-1.6a1.25,1.25,0,0,0-1,.45,1.72,1.72,0,0,0-.39,1.15v2.85h-.8v-5h.8v.83h0a1.8,1.8,0,0,1,1.64-1,1.54,1.54,0,0,1,1.25.53,2.35,2.35,0,0,1,.44,1.53Z" fill="#00b0f0"/><path d="M188.67,69.06a2.59,2.59,0,0,1-1.36.34,2.27,2.27,0,0,1-1.73-.69,2.54,2.54,0,0,1-.66-1.81,2.78,2.78,0,0,1,.71-2,2.47,2.47,0,0,1,1.89-.75,2.64,2.64,0,0,1,1.16.24v.82a2,2,0,0,0-1.19-.39,1.64,1.64,0,0,0-1.26.55,2.14,2.14,0,0,0-.49,1.45,2,2,0,0,0,.47,1.38,1.56,1.56,0,0,0,1.23.51,2,2,0,0,0,1.23-.43Z" fill="#00b0f0"/><path d="M190,63a.49.49,0,0,1-.36-.15.53.53,0,0,1,0-.74A.49.49,0,0,1,190,62a.52.52,0,0,1,.38.15.5.5,0,0,1,.15.37.51.51,0,0,1-.15.37A.52.52,0,0,1,190,63Zm.39,6.27h-.8v-5h.8Z" fill="#00b0f0"/><path d="M195.38,69.29h-.8v-.78h0a1.67,1.67,0,0,1-1.53.89,1.65,1.65,0,0,1-1.17-.39,1.37,1.37,0,0,1-.43-1.05c0-.94.56-1.48,1.65-1.63l1.5-.21c0-.85-.34-1.28-1-1.28a2.48,2.48,0,0,0-1.63.62v-.82a3.15,3.15,0,0,1,1.7-.47c1.18,0,1.76.62,1.76,1.87Zm-.8-2.53-1.2.16a2.11,2.11,0,0,0-.84.28.8.8,0,0,0-.29.7.77.77,0,0,0,.27.6,1,1,0,0,0,.69.23,1.29,1.29,0,0,0,1-.42,1.48,1.48,0,0,0,.38-1Z" fill="#00b0f0"/><path d="M197.05,63a.49.49,0,0,1-.36-.15.53.53,0,0,1,0-.74.49.49,0,0,1,.36-.15.52.52,0,0,1,.38.15.5.5,0,0,1,.15.37.51.51,0,0,1-.15.37A.52.52,0,0,1,197.05,63Zm.39,6.27h-.8v-5h.8Z" fill="#00b0f0"/><path d="M198.51,69.11v-.86a2.4,2.4,0,0,0,1.44.48c.71,0,1.06-.23,1.06-.7a.59.59,0,0,0-.09-.34.75.75,0,0,0-.25-.25,2,2,0,0,0-.36-.19l-.44-.18a5.6,5.6,0,0,1-.59-.27,1.74,1.74,0,0,1-.42-.3,1.19,1.19,0,0,1-.25-.38,1.31,1.31,0,0,1-.09-.5,1.28,1.28,0,0,1,.16-.63,1.42,1.42,0,0,1,.43-.45,2.06,2.06,0,0,1,.62-.28,2.76,2.76,0,0,1,.71-.09,3,3,0,0,1,1.16.22v.82a2.2,2.2,0,0,0-1.27-.37,1.7,1.7,0,0,0-.41,0,1.28,1.28,0,0,0-.31.15.7.7,0,0,0-.2.22.69.69,0,0,0-.07.29.72.72,0,0,0,.07.32.79.79,0,0,0,.21.24,1.29,1.29,0,0,0,.33.18l.45.18c.22.09.42.18.59.27a2,2,0,0,1,.45.3,1.11,1.11,0,0,1,.29.39,1.34,1.34,0,0,1,.1.52,1.29,1.29,0,0,1-.16.64,1.38,1.38,0,0,1-.44.46,2,2,0,0,1-.63.27,3.08,3.08,0,0,1-.75.08A3,3,0,0,1,198.51,69.11Z" fill="#00b0f0"/><path d="M145,81.29h-.8v-.85h0a1.85,1.85,0,0,1-1.72,1,1.87,1.87,0,0,1-1.51-.67,2.76,2.76,0,0,1-.56-1.83,3,3,0,0,1,.63-2,2,2,0,0,1,1.66-.75,1.6,1.6,0,0,1,1.5.81h0v-3.1h.8Zm-.8-2.26v-.74a1.43,1.43,0,0,0-.4-1,1.36,1.36,0,0,0-1-.42,1.37,1.37,0,0,0-1.15.54,2.36,2.36,0,0,0-.42,1.49,2.1,2.1,0,0,0,.4,1.36,1.33,1.33,0,0,0,1.09.5,1.37,1.37,0,0,0,1.08-.48A1.81,1.81,0,0,0,144.16,79Z" fill="#00b0f0"/><path d="M150.35,79h-3.53a1.87,1.87,0,0,0,.45,1.29,1.54,1.54,0,0,0,1.18.45,2.46,2.46,0,0,0,1.55-.56v.76a2.89,2.89,0,0,1-1.74.47,2.11,2.11,0,0,1-1.67-.68,2.79,2.79,0,0,1-.6-1.91,2.76,2.76,0,0,1,.66-1.91,2.15,2.15,0,0,1,1.64-.73,1.88,1.88,0,0,1,1.52.63,2.67,2.67,0,0,1,.54,1.77Zm-.82-.68a1.62,1.62,0,0,0-.34-1.08,1.12,1.12,0,0,0-.91-.39,1.28,1.28,0,0,0-1,.41,1.78,1.78,0,0,0-.49,1.06Z" fill="#00b0f0"/><path d="M157.21,81.06a2.63,2.63,0,0,1-1.37.34,2.29,2.29,0,0,1-1.73-.69,2.57,2.57,0,0,1-.65-1.81,2.73,2.73,0,0,1,.71-2,2.47,2.47,0,0,1,1.89-.75,2.67,2.67,0,0,1,1.16.24v.82a2,2,0,0,0-1.19-.39,1.63,1.63,0,0,0-1.26.55,2.09,2.09,0,0,0-.49,1.45,2,2,0,0,0,.46,1.38,1.59,1.59,0,0,0,1.24.51,2,2,0,0,0,1.23-.43Z" fill="#00b0f0"/><path d="M159,81.29h-.8V73.88h.8Z" fill="#00b0f0"/><path d="M160.75,75a.53.53,0,0,1-.37-.15.53.53,0,0,1,0-.74.53.53,0,0,1,.37-.15.5.5,0,0,1,.37.15.47.47,0,0,1,.16.37.49.49,0,0,1-.16.37A.5.5,0,0,1,160.75,75Zm.39,6.27h-.8v-5h.8Z" fill="#00b0f0"/><path d="M166.53,79H163a1.87,1.87,0,0,0,.45,1.29,1.56,1.56,0,0,0,1.18.45,2.46,2.46,0,0,0,1.55-.56v.76a2.87,2.87,0,0,1-1.74.47,2.07,2.07,0,0,1-1.66-.68,3.19,3.19,0,0,1,.05-3.82,2.15,2.15,0,0,1,1.65-.73,1.86,1.86,0,0,1,1.51.63,2.67,2.67,0,0,1,.54,1.77Zm-.82-.68a1.62,1.62,0,0,0-.33-1.08,1.14,1.14,0,0,0-.92-.39,1.28,1.28,0,0,0-1,.41,1.84,1.84,0,0,0-.49,1.06Z" fill="#00b0f0"/><path d="M171.64,81.29h-.8V78.44c0-1.07-.39-1.6-1.16-1.6a1.25,1.25,0,0,0-1,.45,1.68,1.68,0,0,0-.4,1.15v2.85h-.8v-5h.8v.83h0a1.82,1.82,0,0,1,1.64-1,1.55,1.55,0,0,1,1.26.53,2.34,2.34,0,0,1,.43,1.53Z" fill="#00b0f0"/><path d="M175.22,81.24a1.61,1.61,0,0,1-.75.15c-.87,0-1.31-.48-1.31-1.46V77h-.86v-.68h.86V75.07l.8-.26v1.48h1.26V77H174v2.82a1.23,1.23,0,0,0,.17.72.7.7,0,0,0,.57.21.79.79,0,0,0,.52-.17Z" fill="#00b0f0"/><path d="M180.06,79h-3.53a1.87,1.87,0,0,0,.45,1.29,1.54,1.54,0,0,0,1.18.45,2.46,2.46,0,0,0,1.55-.56v.76a2.89,2.89,0,0,1-1.74.47,2.11,2.11,0,0,1-1.67-.68,2.79,2.79,0,0,1-.6-1.91,2.76,2.76,0,0,1,.66-1.91,2.15,2.15,0,0,1,1.64-.73,1.88,1.88,0,0,1,1.52.63,2.67,2.67,0,0,1,.54,1.77Zm-.82-.68a1.68,1.68,0,0,0-.34-1.08,1.12,1.12,0,0,0-.91-.39,1.28,1.28,0,0,0-1,.41,1.78,1.78,0,0,0-.49,1.06Z" fill="#00b0f0"/></g><path d="M59.05,42.31h-.91l-.74-2h-3l-.7,2h-.91l2.68-7h.85Zm-1.92-2.7-1.1-3a2.59,2.59,0,0,1-.11-.46h0a2.6,2.6,0,0,1-.11.46l-1.09,3Z" fill="#008bfd"/><path d="M60.54,41.59h0v3h-.8v-7.3h.8v.88h0a1.88,1.88,0,0,1,1.73-1,1.83,1.83,0,0,1,1.51.67,2.8,2.8,0,0,1,.54,1.8,3.13,3.13,0,0,1-.61,2,2.06,2.06,0,0,1-1.67.76A1.67,1.67,0,0,1,60.54,41.59Zm0-2v.7a1.48,1.48,0,0,0,.4,1,1.44,1.44,0,0,0,2.17-.13,2.56,2.56,0,0,0,.41-1.54,2,2,0,0,0-.39-1.31,1.26,1.26,0,0,0-1-.48,1.45,1.45,0,0,0-1.13.49A1.79,1.79,0,0,0,60.52,39.57Z" fill="#008bfd"/><path d="M66.15,42.31h-.8v-7.4h.8Z" fill="#008bfd"/><path d="M67.93,36a.51.51,0,0,1-.37-.15.53.53,0,0,1,0-.74.51.51,0,0,1,.37-.15.5.5,0,0,1,.37.15.47.47,0,0,1,.16.37.49.49,0,0,1-.16.37A.5.5,0,0,1,67.93,36Zm.39,6.27h-.8v-5h.8Z" fill="#008bfd"/><path d="M73.1,42.08a2.61,2.61,0,0,1-1.37.35,2.26,2.26,0,0,1-1.72-.7,2.51,2.51,0,0,1-.66-1.8,2.78,2.78,0,0,1,.71-2A2.47,2.47,0,0,1,72,37.19a2.54,2.54,0,0,1,1.16.25v.82a2.05,2.05,0,0,0-1.19-.4,1.64,1.64,0,0,0-1.26.55,2.09,2.09,0,0,0-.49,1.45,2,2,0,0,0,.46,1.38,1.59,1.59,0,0,0,1.24.51,2,2,0,0,0,1.23-.43Z" fill="#008bfd"/><path d="M77.64,42.31h-.8v-.78h0a1.68,1.68,0,0,1-1.54.9,1.66,1.66,0,0,1-1.17-.4A1.36,1.36,0,0,1,73.69,41c0-.93.55-1.48,1.65-1.63l1.5-.21c0-.85-.35-1.28-1-1.28a2.46,2.46,0,0,0-1.63.62v-.82a3.1,3.1,0,0,1,1.7-.47c1.17,0,1.76.62,1.76,1.87Zm-.8-2.53-1.21.16a2.11,2.11,0,0,0-.84.28.79.79,0,0,0-.28.7.78.78,0,0,0,.26.6,1,1,0,0,0,.7.23,1.29,1.29,0,0,0,1-.42,1.47,1.47,0,0,0,.39-1Z" fill="#008bfd"/><path d="M81.22,42.26a1.61,1.61,0,0,1-.75.16c-.88,0-1.31-.49-1.31-1.47V38H78.3v-.68h.86V36.09l.8-.26v1.48h1.26V38H80v2.82a1.16,1.16,0,0,0,.17.72.68.68,0,0,0,.56.21.86.86,0,0,0,.53-.16Z" fill="#008bfd"/><path d="M82.45,36a.52.52,0,1,1,0-1,.51.51,0,0,1,.37.15.5.5,0,0,1,.15.37.51.51,0,0,1-.52.52Zm.39,6.27H82v-5h.8Z" fill="#008bfd"/><path d="M88.14,37.31l-2,5h-.79l-1.89-5h.88l1.26,3.63a2.89,2.89,0,0,1,.18.7h0A3.23,3.23,0,0,1,86,41l1.32-3.65Z" fill="#008bfd"/><path d="M90.84,42.43a2.31,2.31,0,0,1-1.77-.71,2.57,2.57,0,0,1-.66-1.85,2.7,2.7,0,0,1,.69-2A2.46,2.46,0,0,1,91,37.19a2.24,2.24,0,0,1,1.74.69,3.13,3.13,0,0,1,0,3.83A2.36,2.36,0,0,1,90.84,42.43Zm.06-4.57a1.52,1.52,0,0,0-1.22.53,2.15,2.15,0,0,0-.45,1.45,2,2,0,0,0,.45,1.4,1.55,1.55,0,0,0,1.22.51,1.48,1.48,0,0,0,1.19-.5,2.18,2.18,0,0,0,.42-1.43,2.22,2.22,0,0,0-.42-1.45A1.46,1.46,0,0,0,90.9,37.86Z" fill="#008bfd"/><path d="M53.27,47.31l-2,7h-1l-1.44-5.12a3.11,3.11,0,0,1-.11-.71h0a3.32,3.32,0,0,1-.13.7l-1.45,5.13h-1l-2-7h.9l1.49,5.37a3.94,3.94,0,0,1,.12.7h0a4.07,4.07,0,0,1,.16-.7l1.54-5.37h.79l1.48,5.41a2.79,2.79,0,0,1,.12.65h0A4,4,0,0,1,51,52.7l1.43-5.39Z" fill="#008bfd"/><path d="M58,52H54.44a2,2,0,0,0,.45,1.29,1.56,1.56,0,0,0,1.18.45,2.43,2.43,0,0,0,1.56-.56V54a2.9,2.9,0,0,1-1.75.48,2.09,2.09,0,0,1-1.66-.69,3.18,3.18,0,0,1,.05-3.81,2.14,2.14,0,0,1,1.65-.74,1.87,1.87,0,0,1,1.52.64A2.68,2.68,0,0,1,58,51.59Zm-.82-.68a1.62,1.62,0,0,0-.33-1.08,1.14,1.14,0,0,0-.92-.39,1.3,1.3,0,0,0-1,.41,1.84,1.84,0,0,0-.49,1.06Z" fill="#008bfd"/><path d="M59.75,53.59h0v.72h-.8v-7.4h.8v3.28h0a1.89,1.89,0,0,1,1.73-1,1.83,1.83,0,0,1,1.51.67,2.8,2.8,0,0,1,.54,1.8,3.07,3.07,0,0,1-.61,2,2,2,0,0,1-1.67.76A1.65,1.65,0,0,1,59.75,53.59Zm0-2v.7a1.49,1.49,0,0,0,.41,1,1.33,1.33,0,0,0,1,.43,1.31,1.31,0,0,0,1.14-.56,2.49,2.49,0,0,0,.41-1.54,2,2,0,0,0-.38-1.31,1.28,1.28,0,0,0-1-.48,1.43,1.43,0,0,0-1.12.49A1.8,1.8,0,0,0,59.73,51.57Z" fill="#008bfd"/><path d="M67.16,54.31v-7h1.93c2.47,0,3.7,1.13,3.7,3.41a3.43,3.43,0,0,1-1,2.6,3.82,3.82,0,0,1-2.75,1ZM68,48.05v5.52h1a3,3,0,0,0,2.15-.74,2.77,2.77,0,0,0,.77-2.09c0-1.79-1-2.69-2.87-2.69Z" fill="#008bfd"/><path d="M77.39,54.31h-.8v-.78h0a1.82,1.82,0,0,1-2.71.5A1.36,1.36,0,0,1,73.44,53c0-.93.55-1.48,1.65-1.63l1.5-.21c0-.85-.34-1.28-1-1.28a2.48,2.48,0,0,0-1.63.62v-.82a3.12,3.12,0,0,1,1.7-.47c1.18,0,1.76.62,1.76,1.87Zm-.8-2.53-1.2.16a2.05,2.05,0,0,0-.84.28.8.8,0,0,0-.29.7.78.78,0,0,0,.26.6,1.05,1.05,0,0,0,.7.23,1.27,1.27,0,0,0,1-.42,1.47,1.47,0,0,0,.39-1Z" fill="#008bfd"/><path d="M82.67,52H79.14a1.87,1.87,0,0,0,.45,1.29,1.56,1.56,0,0,0,1.18.45,2.41,2.41,0,0,0,1.55-.56V54a2.89,2.89,0,0,1-1.74.48,2.08,2.08,0,0,1-1.66-.69,3.18,3.18,0,0,1,0-3.81,2.12,2.12,0,0,1,1.64-.74,1.86,1.86,0,0,1,1.52.64,2.63,2.63,0,0,1,.54,1.76Zm-.82-.68a1.62,1.62,0,0,0-.33-1.08,1.14,1.14,0,0,0-.92-.39,1.28,1.28,0,0,0-1,.41,1.78,1.78,0,0,0-.49,1.06Z" fill="#008bfd"/><path d="M90.73,54.31h-.8V51.44a2.13,2.13,0,0,0-.26-1.2,1,1,0,0,0-.86-.38,1.08,1.08,0,0,0-.87.47,1.82,1.82,0,0,0-.36,1.13v2.85h-.8v-3c0-1-.38-1.48-1.14-1.48a1.05,1.05,0,0,0-.87.45,1.85,1.85,0,0,0-.34,1.15v2.85h-.8v-5h.8v.79h0A1.69,1.69,0,0,1,86,49.19a1.47,1.47,0,0,1,.9.29,1.43,1.43,0,0,1,.52.75,1.79,1.79,0,0,1,1.66-1q1.65,0,1.65,2Z" fill="#008bfd"/><path d="M94.08,54.43a2.34,2.34,0,0,1-1.77-.71,2.57,2.57,0,0,1-.66-1.85,2.7,2.7,0,0,1,.69-2,2.49,2.49,0,0,1,1.86-.71,2.25,2.25,0,0,1,1.75.69,3.17,3.17,0,0,1,0,3.83A2.38,2.38,0,0,1,94.08,54.43Zm.06-4.57a1.53,1.53,0,0,0-1.22.53,2.15,2.15,0,0,0-.45,1.45,2,2,0,0,0,.46,1.4,1.54,1.54,0,0,0,1.21.51,1.49,1.49,0,0,0,1.2-.5,2.18,2.18,0,0,0,.41-1.43,2.22,2.22,0,0,0-.41-1.45A1.47,1.47,0,0,0,94.14,49.86Z" fill="#008bfd"/><path d="M101.75,54.31H101V51.46c0-1.06-.38-1.6-1.16-1.6a1.26,1.26,0,0,0-1,.46,1.68,1.68,0,0,0-.4,1.14v2.85h-.8v-5h.8v.83h0a1.82,1.82,0,0,1,1.64-1,1.55,1.55,0,0,1,1.26.53,2.34,2.34,0,0,1,.43,1.53Z" fill="#008bfd"/><path d="M184.75,117.39h-.91l-.74-2h-3l-.7,2h-.91l2.68-7h.85Zm-1.92-2.7-1.1-3a2.75,2.75,0,0,1-.11-.47h0a2.53,2.53,0,0,1-.11.47l-1.09,3Z" fill="#008bfd"/><path d="M186.66,116.67h0v3h-.8v-7.3h.8v.88h0a1.89,1.89,0,0,1,1.73-1,1.83,1.83,0,0,1,1.51.67,2.8,2.8,0,0,1,.54,1.8,3.11,3.11,0,0,1-.61,2,2,2,0,0,1-1.67.75A1.67,1.67,0,0,1,186.66,116.67Zm0-2v.7a1.45,1.45,0,0,0,.4,1.05,1.43,1.43,0,0,0,2.17-.12,2.6,2.6,0,0,0,.41-1.55,2,2,0,0,0-.39-1.31,1.27,1.27,0,0,0-1-.47,1.42,1.42,0,0,0-1.13.49A1.78,1.78,0,0,0,186.64,114.65Z" fill="#008bfd"/><path d="M192.69,117.39h-.8V110h.8Z" fill="#008bfd"/><path d="M194.89,111.12a.5.5,0,0,1-.37-.14.5.5,0,0,1-.15-.37.52.52,0,0,1,.15-.38.51.51,0,0,1,.37-.15.5.5,0,0,1,.37.15.49.49,0,0,1,.16.38.46.46,0,0,1-.16.36A.5.5,0,0,1,194.89,111.12Zm.39,6.27h-.8v-5h.8Z" fill="#008bfd"/><path d="M200.48,117.16a2.61,2.61,0,0,1-1.37.35,2.22,2.22,0,0,1-1.72-.7,2.5,2.5,0,0,1-.66-1.8,2.78,2.78,0,0,1,.71-2,2.47,2.47,0,0,1,1.89-.75,2.67,2.67,0,0,1,1.16.24v.82a2,2,0,0,0-1.19-.39,1.61,1.61,0,0,0-1.26.55,2.08,2.08,0,0,0-.49,1.44,2,2,0,0,0,.46,1.39,1.59,1.59,0,0,0,1.24.51,2,2,0,0,0,1.23-.44Z" fill="#008bfd"/><path d="M205.44,117.39h-.8v-.78h0a1.68,1.68,0,0,1-1.54.9,1.65,1.65,0,0,1-1.17-.39,1.39,1.39,0,0,1-.42-1.05c0-.94.55-1.48,1.65-1.64l1.5-.21c0-.84-.35-1.27-1-1.27a2.46,2.46,0,0,0-1.63.62v-.82a3,3,0,0,1,1.7-.47c1.17,0,1.76.62,1.76,1.86Zm-.8-2.53-1.21.17a1.84,1.84,0,0,0-.84.28.78.78,0,0,0-.28.7.76.76,0,0,0,.26.59,1,1,0,0,0,.7.24,1.29,1.29,0,0,0,1-.42,1.49,1.49,0,0,0,.39-1.06Z" fill="#008bfd"/><path d="M209.44,117.34a1.49,1.49,0,0,1-.75.16c-.88,0-1.31-.49-1.31-1.46v-3h-.86v-.69h.86v-1.22l.8-.26v1.48h1.26v.69h-1.26v2.81a1.12,1.12,0,0,0,.17.72.69.69,0,0,0,.57.22.85.85,0,0,0,.52-.17Z" fill="#008bfd"/><path d="M211.09,111.12a.49.49,0,0,1-.37-.14.5.5,0,0,1-.15-.37.52.52,0,0,1,.15-.38.5.5,0,0,1,.37-.15.51.51,0,0,1,.37.15.53.53,0,0,1,.16.38.5.5,0,0,1-.16.36A.51.51,0,0,1,211.09,111.12Zm.39,6.27h-.8v-5h.8Z" fill="#008bfd"/><path d="M217.2,112.39l-2,5h-.79l-1.89-5h.88l1.27,3.64a3.27,3.27,0,0,1,.17.69h0a3.13,3.13,0,0,1,.16-.67l1.33-3.66Z" fill="#008bfd"/><path d="M220.32,117.51a2.31,2.31,0,0,1-1.77-.7,2.61,2.61,0,0,1-.66-1.86,2.72,2.72,0,0,1,.69-2,2.48,2.48,0,0,1,1.86-.7,2.27,2.27,0,0,1,1.74.68,2.73,2.73,0,0,1,.63,1.91,2.7,2.7,0,0,1-.68,1.92A2.36,2.36,0,0,1,220.32,117.51Zm.06-4.56a1.54,1.54,0,0,0-1.22.52,2.19,2.19,0,0,0-.45,1.45,2,2,0,0,0,.45,1.4,1.52,1.52,0,0,0,1.22.52,1.45,1.45,0,0,0,1.19-.51,2.16,2.16,0,0,0,.42-1.43,2.21,2.21,0,0,0-.42-1.44A1.45,1.45,0,0,0,220.38,113Z" fill="#008bfd"/><path d="M191.21,129.39h-.8v-.85h0a2,2,0,0,1-3.22.3,2.75,2.75,0,0,1-.57-1.83,3,3,0,0,1,.63-2,2.07,2.07,0,0,1,1.66-.74,1.6,1.6,0,0,1,1.5.81h0V122h.8Zm-.8-2.26v-.73a1.42,1.42,0,0,0-.4-1,1.34,1.34,0,0,0-1-.42,1.39,1.39,0,0,0-1.16.54,2.33,2.33,0,0,0-.42,1.48,2.13,2.13,0,0,0,.41,1.37,1.32,1.32,0,0,0,1.08.5,1.33,1.33,0,0,0,1.08-.49A1.79,1.79,0,0,0,190.41,127.13Z" fill="#008bfd"/><path d="M197,127.09h-3.53a1.83,1.83,0,0,0,.45,1.29,1.53,1.53,0,0,0,1.18.46,2.44,2.44,0,0,0,1.55-.56V129a2.87,2.87,0,0,1-1.74.48,2.12,2.12,0,0,1-1.66-.68,3.19,3.19,0,0,1,0-3.82,2.12,2.12,0,0,1,1.65-.73,1.86,1.86,0,0,1,1.51.63,2.63,2.63,0,0,1,.54,1.76Zm-.82-.67a1.59,1.59,0,0,0-.33-1.08A1.14,1.14,0,0,0,195,125a1.25,1.25,0,0,0-1,.41,1.84,1.84,0,0,0-.49,1.06Z" fill="#008bfd"/><path d="M206.84,129.39h-.91l-.74-2h-3l-.7,2h-.91l2.68-7h.85Zm-1.92-2.7-1.1-3a4.26,4.26,0,0,1-.11-.47h0a2.53,2.53,0,0,1-.11.47l-1.09,3Z" fill="#008bfd"/><path d="M208.86,126.75v2.64H208v-7H210a2.51,2.51,0,0,1,1.74.55,1.92,1.92,0,0,1,.62,1.54,2.1,2.1,0,0,1-.69,1.63,2.57,2.57,0,0,1-1.85.64Zm0-3.62V126h.86a1.92,1.92,0,0,0,1.3-.38,1.41,1.41,0,0,0,.44-1.1c0-.92-.54-1.39-1.64-1.39Z" fill="#008bfd"/><path d="M214.63,129.39h-.82v-7h.82Z" fill="#008bfd"/><path d="M182.61,141.39v-7h1.93q3.71,0,3.7,3.41a3.44,3.44,0,0,1-1,2.61,3.78,3.78,0,0,1-2.75,1Zm.82-6.26v5.52h1a3,3,0,0,0,2.15-.74,2.75,2.75,0,0,0,.76-2.09c0-1.79-.95-2.69-2.86-2.69Z" fill="#008bfd"/><path d="M193.26,141.39h-.8v-.78h0a1.68,1.68,0,0,1-1.54.9,1.65,1.65,0,0,1-1.17-.39,1.39,1.39,0,0,1-.42-1.05c0-.94.55-1.48,1.65-1.64l1.5-.21c0-.84-.34-1.27-1-1.27a2.46,2.46,0,0,0-1.63.62v-.82a3,3,0,0,1,1.7-.47c1.17,0,1.76.62,1.76,1.86Zm-.8-2.53-1.21.17a1.84,1.84,0,0,0-.84.28.78.78,0,0,0-.28.7.76.76,0,0,0,.26.59,1,1,0,0,0,.7.24,1.29,1.29,0,0,0,1-.42,1.49,1.49,0,0,0,.39-1.06Z" fill="#008bfd"/><path d="M199,139.09h-3.53a1.83,1.83,0,0,0,.45,1.29,1.52,1.52,0,0,0,1.18.46,2.46,2.46,0,0,0,1.55-.56V141a2.89,2.89,0,0,1-1.74.48,2.13,2.13,0,0,1-1.67-.68,2.8,2.8,0,0,1-.6-1.92,2.73,2.73,0,0,1,.66-1.9,2.12,2.12,0,0,1,1.64-.73,1.9,1.9,0,0,1,1.52.63,2.63,2.63,0,0,1,.54,1.76Zm-.82-.67a1.64,1.64,0,0,0-.34-1.08,1.12,1.12,0,0,0-.91-.39,1.29,1.29,0,0,0-1,.41,1.83,1.83,0,0,0-.48,1.06Z" fill="#008bfd"/><path d="M207.44,141.39h-.8v-2.87a2.18,2.18,0,0,0-.26-1.2,1,1,0,0,0-.86-.37,1.08,1.08,0,0,0-.87.47,1.79,1.79,0,0,0-.36,1.12v2.85h-.8v-3q0-1.47-1.14-1.47a1.07,1.07,0,0,0-.87.44,1.83,1.83,0,0,0-.34,1.15v2.85h-.8v-5h.8v.79h0a1.69,1.69,0,0,1,1.55-.9,1.45,1.45,0,0,1,1.42,1,1.77,1.77,0,0,1,1.66-1c1.1,0,1.65.68,1.65,2Z" fill="#008bfd"/><path d="M211.21,141.51a2.31,2.31,0,0,1-1.77-.7,2.61,2.61,0,0,1-.66-1.86,2.72,2.72,0,0,1,.69-2,2.48,2.48,0,0,1,1.86-.7,2.27,2.27,0,0,1,1.74.68,2.73,2.73,0,0,1,.63,1.91,2.7,2.7,0,0,1-.68,1.92A2.36,2.36,0,0,1,211.21,141.51Zm.06-4.56a1.54,1.54,0,0,0-1.22.52,2.19,2.19,0,0,0-.45,1.45,2,2,0,0,0,.45,1.4,1.54,1.54,0,0,0,1.22.52,1.45,1.45,0,0,0,1.19-.51,2.16,2.16,0,0,0,.42-1.43,2.21,2.21,0,0,0-.42-1.44A1.45,1.45,0,0,0,211.27,137Z" fill="#008bfd"/><path d="M219.3,141.39h-.8v-2.85c0-1.06-.39-1.59-1.16-1.59a1.29,1.29,0,0,0-1,.45,1.68,1.68,0,0,0-.39,1.14v2.85h-.8v-5h.8v.83h0a1.8,1.8,0,0,1,1.64-.94,1.52,1.52,0,0,1,1.26.53,2.34,2.34,0,0,1,.43,1.53Z" fill="#008bfd"/><path d="M57.48,117.39h-.91l-.74-2h-3l-.7,2h-.91l2.68-7h.85Zm-1.92-2.7-1.1-3a4.26,4.26,0,0,1-.11-.47h0a1.92,1.92,0,0,1-.11.47l-1.09,3Z" fill="#0078d7"/><path d="M59.39,116.67h0v3h-.8v-7.3h.8v.88h0a1.9,1.9,0,0,1,1.73-1,1.82,1.82,0,0,1,1.51.67,2.8,2.8,0,0,1,.54,1.8,3.11,3.11,0,0,1-.61,2,2,2,0,0,1-1.67.75A1.67,1.67,0,0,1,59.39,116.67Zm0-2v.7a1.46,1.46,0,0,0,.41,1.05,1.32,1.32,0,0,0,1,.44,1.36,1.36,0,0,0,1.14-.56,2.6,2.6,0,0,0,.41-1.55,2.08,2.08,0,0,0-.38-1.31,1.3,1.3,0,0,0-1-.47,1.4,1.4,0,0,0-1.12.49A1.74,1.74,0,0,0,59.37,114.65Z" fill="#0078d7"/><path d="M65.42,117.39h-.8V110h.8Z" fill="#0078d7"/><path d="M67.62,111.12a.48.48,0,0,1-.36-.14.5.5,0,0,1-.15-.37.52.52,0,0,1,.15-.38.49.49,0,0,1,.36-.15.54.54,0,0,1,.38.15.52.52,0,0,1,.15.38A.49.49,0,0,1,68,111,.54.54,0,0,1,67.62,111.12Zm.39,6.27h-.8v-5H68Z" fill="#0078d7"/><path d="M73.21,117.16a2.6,2.6,0,0,1-1.36.35,2.25,2.25,0,0,1-1.73-.7,2.5,2.5,0,0,1-.66-1.8,2.78,2.78,0,0,1,.71-2,2.47,2.47,0,0,1,1.89-.75,2.64,2.64,0,0,1,1.16.24v.82A2,2,0,0,0,72,113a1.61,1.61,0,0,0-1.26.55,2.13,2.13,0,0,0-.49,1.44,2,2,0,0,0,.46,1.39,1.59,1.59,0,0,0,1.24.51,2,2,0,0,0,1.23-.44Z" fill="#0078d7"/><path d="M78.17,117.39h-.8v-.78h0a1.83,1.83,0,0,1-2.71.51,1.39,1.39,0,0,1-.42-1.05c0-.94.55-1.48,1.65-1.64l1.5-.21c0-.84-.34-1.27-1-1.27a2.48,2.48,0,0,0-1.63.62v-.82a3,3,0,0,1,1.7-.47c1.17,0,1.76.62,1.76,1.86Zm-.8-2.53-1.2.17a1.75,1.75,0,0,0-.84.28.79.79,0,0,0-.29.7.76.76,0,0,0,.26.59,1,1,0,0,0,.7.24,1.27,1.27,0,0,0,1-.42,1.49,1.49,0,0,0,.39-1.06Z" fill="#0078d7"/><path d="M82.17,117.34a1.49,1.49,0,0,1-.75.16c-.87,0-1.31-.49-1.31-1.46v-3h-.86v-.69h.86v-1.22l.8-.26v1.48h1.26v.69H80.91v2.81a1.19,1.19,0,0,0,.17.72.7.7,0,0,0,.57.22.85.85,0,0,0,.52-.17Z" fill="#0078d7"/><path d="M83.82,111.12a.48.48,0,0,1-.36-.14.47.47,0,0,1-.16-.37.53.53,0,0,1,.52-.53.5.5,0,0,1,.37.15.49.49,0,0,1,.16.38.46.46,0,0,1-.16.36A.5.5,0,0,1,83.82,111.12Zm.39,6.27h-.8v-5h.8Z" fill="#0078d7"/><path d="M89.93,112.39l-2,5h-.78l-1.9-5h.88L87.41,116a3.27,3.27,0,0,1,.17.69h0a3.88,3.88,0,0,1,.16-.67l1.33-3.66Z" fill="#0078d7"/><path d="M93.05,117.51a2.31,2.31,0,0,1-1.77-.7,2.61,2.61,0,0,1-.66-1.86,2.72,2.72,0,0,1,.69-2,2.48,2.48,0,0,1,1.86-.7,2.27,2.27,0,0,1,1.75.68,2.78,2.78,0,0,1,.62,1.91,2.69,2.69,0,0,1-.67,1.92A2.38,2.38,0,0,1,93.05,117.51Zm.06-4.56a1.56,1.56,0,0,0-1.22.52,2.19,2.19,0,0,0-.45,1.45,2,2,0,0,0,.46,1.4,1.5,1.5,0,0,0,1.21.52,1.43,1.43,0,0,0,1.19-.51,2.16,2.16,0,0,0,.42-1.43,2.21,2.21,0,0,0-.42-1.44A1.43,1.43,0,0,0,93.11,113Z" fill="#0078d7"/><path d="M45.41,128.67h0v3h-.8v-7.3h.8v.88h0a1.89,1.89,0,0,1,1.73-1,1.84,1.84,0,0,1,1.51.67,2.8,2.8,0,0,1,.54,1.8,3.17,3.17,0,0,1-.61,2,2,2,0,0,1-1.67.75A1.67,1.67,0,0,1,45.41,128.67Zm0-2v.7a1.45,1.45,0,0,0,.4,1.05,1.42,1.42,0,0,0,2.16-.12,2.53,2.53,0,0,0,.42-1.55,2,2,0,0,0-.39-1.31,1.28,1.28,0,0,0-1-.47,1.42,1.42,0,0,0-1.13.49A1.78,1.78,0,0,0,45.39,126.65Z" fill="#0078d7"/><path d="M54.22,129.39h-.81v-.78h0a1.69,1.69,0,0,1-1.54.9,1.65,1.65,0,0,1-1.17-.39,1.39,1.39,0,0,1-.42-1.05c0-.94.55-1.48,1.65-1.64l1.49-.21c0-.84-.34-1.27-1-1.27a2.48,2.48,0,0,0-1.63.62v-.82a3.06,3.06,0,0,1,1.7-.47q1.77,0,1.77,1.86Zm-.81-2.53-1.2.17a1.84,1.84,0,0,0-.84.28.78.78,0,0,0-.28.7.73.73,0,0,0,.26.59,1,1,0,0,0,.69.24,1.29,1.29,0,0,0,1-.42,1.48,1.48,0,0,0,.38-1.06Z" fill="#0078d7"/><path d="M58.5,125.2a1,1,0,0,0-.6-.16,1,1,0,0,0-.86.49,2.21,2.21,0,0,0-.35,1.31v2.55h-.8v-5h.8v1h0a1.77,1.77,0,0,1,.53-.82,1.15,1.15,0,0,1,.78-.29,1.48,1.48,0,0,1,.48.06Z" fill="#0078d7"/><path d="M63.12,129.39h-.8v-.78h0a1.68,1.68,0,0,1-1.54.9,1.65,1.65,0,0,1-1.17-.39,1.39,1.39,0,0,1-.42-1.05c0-.94.55-1.48,1.65-1.64l1.5-.21c0-.84-.34-1.27-1-1.27a2.46,2.46,0,0,0-1.63.62v-.82a3,3,0,0,1,1.7-.47c1.17,0,1.76.62,1.76,1.86Zm-.8-2.53-1.21.17a1.84,1.84,0,0,0-.84.28.78.78,0,0,0-.28.7.76.76,0,0,0,.26.59,1,1,0,0,0,.7.24,1.29,1.29,0,0,0,1-.42,1.49,1.49,0,0,0,.39-1.06Z" fill="#0078d7"/><path d="M72,129.39h-.8v-.85h0a1.83,1.83,0,0,1-1.71,1,1.86,1.86,0,0,1-1.51-.67,2.74,2.74,0,0,1-.56-1.83,3,3,0,0,1,.62-2,2.09,2.09,0,0,1,1.67-.74,1.59,1.59,0,0,1,1.49.81h0V122H72Zm-.8-2.26v-.73a1.42,1.42,0,0,0-.4-1,1.32,1.32,0,0,0-1-.42,1.37,1.37,0,0,0-1.15.54,2.33,2.33,0,0,0-.42,1.48,2.13,2.13,0,0,0,.4,1.37,1.33,1.33,0,0,0,1.08.5,1.35,1.35,0,0,0,1.09-.49A1.78,1.78,0,0,0,71.17,127.13Z" fill="#0078d7"/><path d="M77.78,127.09H74.25a1.93,1.93,0,0,0,.45,1.29,1.53,1.53,0,0,0,1.18.46,2.47,2.47,0,0,0,1.56-.56V129a2.9,2.9,0,0,1-1.75.48,2.12,2.12,0,0,1-1.66-.68,2.8,2.8,0,0,1-.61-1.92,2.69,2.69,0,0,1,.67-1.9,2.1,2.1,0,0,1,1.64-.73,1.9,1.9,0,0,1,1.52.63,2.62,2.62,0,0,1,.53,1.76Zm-.82-.67a1.59,1.59,0,0,0-.33-1.08,1.14,1.14,0,0,0-.92-.39,1.28,1.28,0,0,0-1,.41,1.91,1.91,0,0,0-.49,1.06Z" fill="#0078d7"/><path d="M78.86,129.21v-.86a2.34,2.34,0,0,0,1.44.49c.71,0,1.06-.24,1.06-.71a.64.64,0,0,0-.09-.34.82.82,0,0,0-.25-.24,2,2,0,0,0-.36-.2l-.44-.17a5.6,5.6,0,0,1-.59-.27,1.74,1.74,0,0,1-.42-.3,1.14,1.14,0,0,1-.25-.39A1.34,1.34,0,0,1,79,125.1a1.71,1.71,0,0,1,.43-.46,2,2,0,0,1,.62-.27,2.76,2.76,0,0,1,.71-.09,2.86,2.86,0,0,1,1.16.22v.81a2.27,2.27,0,0,0-1.27-.36,1.7,1.7,0,0,0-.41,0,1,1,0,0,0-.31.15.7.7,0,0,0-.2.22.64.64,0,0,0-.07.28.81.81,0,0,0,.07.33.66.66,0,0,0,.21.23,1.69,1.69,0,0,0,.33.19l.45.18c.22.09.42.17.59.26a2,2,0,0,1,.45.3,1.32,1.32,0,0,1,.29.39,1.22,1.22,0,0,1,.1.53,1.32,1.32,0,0,1-.16.64,1.45,1.45,0,0,1-.44.45,2,2,0,0,1-.63.27,3.08,3.08,0,0,1-.75.09A2.85,2.85,0,0,1,78.86,129.21Z" fill="#0078d7"/><path d="M87.73,129.39H86.61L84.4,127h0v2.4h-.8V122h.8v4.69h0l2.1-2.29h1l-2.32,2.42Z" fill="#0078d7"/><path d="M91,129.34a1.49,1.49,0,0,1-.75.16C89.42,129.5,89,129,89,128v-3h-.86v-.69H89v-1.22l.8-.26v1.48H91v.69H89.78v2.81a1.19,1.19,0,0,0,.17.72.69.69,0,0,0,.57.22.85.85,0,0,0,.52-.17Z" fill="#0078d7"/><path d="M94.37,129.51a2.31,2.31,0,0,1-1.77-.7,2.61,2.61,0,0,1-.66-1.86,2.72,2.72,0,0,1,.69-2,2.45,2.45,0,0,1,1.86-.7,2.27,2.27,0,0,1,1.74.68,2.73,2.73,0,0,1,.63,1.91,2.7,2.7,0,0,1-.68,1.92A2.36,2.36,0,0,1,94.37,129.51Zm.06-4.56a1.54,1.54,0,0,0-1.22.52,2.19,2.19,0,0,0-.45,1.45,2,2,0,0,0,.45,1.4,1.52,1.52,0,0,0,1.22.52,1.46,1.46,0,0,0,1.19-.51A2.16,2.16,0,0,0,96,126.9a2.21,2.21,0,0,0-.42-1.44A1.46,1.46,0,0,0,94.43,125Z" fill="#0078d7"/><path d="M99.13,128.67h0v3h-.8v-7.3h.8v.88h0a1.89,1.89,0,0,1,1.73-1,1.84,1.84,0,0,1,1.51.67,2.8,2.8,0,0,1,.54,1.8,3.17,3.17,0,0,1-.61,2,2,2,0,0,1-1.67.75A1.67,1.67,0,0,1,99.13,128.67Zm0-2v.7a1.45,1.45,0,0,0,.4,1.05,1.42,1.42,0,0,0,2.16-.12,2.53,2.53,0,0,0,.42-1.55,2,2,0,0,0-.39-1.31,1.28,1.28,0,0,0-1-.47,1.42,1.42,0,0,0-1.13.49A1.78,1.78,0,0,0,99.11,126.65Z" fill="#0078d7"/><path d="M55.34,141.39v-7h1.93q3.7,0,3.7,3.41a3.47,3.47,0,0,1-1,2.61,3.82,3.82,0,0,1-2.76,1Zm.82-6.26v5.52h1a2.94,2.94,0,0,0,2.15-.74,2.75,2.75,0,0,0,.76-2.09c0-1.79-1-2.69-2.86-2.69Z" fill="#0078d7"/><path d="M66,141.39h-.8v-.78h0a1.83,1.83,0,0,1-2.71.51,1.39,1.39,0,0,1-.42-1.05c0-.94.55-1.48,1.65-1.64l1.5-.21c0-.84-.34-1.27-1-1.27a2.48,2.48,0,0,0-1.63.62v-.82a3,3,0,0,1,1.7-.47c1.17,0,1.76.62,1.76,1.86Zm-.8-2.53L64,139a1.75,1.75,0,0,0-.84.28.79.79,0,0,0-.29.7.76.76,0,0,0,.26.59,1,1,0,0,0,.7.24,1.27,1.27,0,0,0,1-.42,1.49,1.49,0,0,0,.39-1.06Z" fill="#0078d7"/><path d="M71.69,139.09H68.16a1.83,1.83,0,0,0,.45,1.29,1.52,1.52,0,0,0,1.18.46,2.46,2.46,0,0,0,1.55-.56V141a2.89,2.89,0,0,1-1.74.48,2.14,2.14,0,0,1-1.67-.68,2.8,2.8,0,0,1-.6-1.92A2.73,2.73,0,0,1,68,137a2.12,2.12,0,0,1,1.64-.73,1.88,1.88,0,0,1,1.52.63,2.63,2.63,0,0,1,.54,1.76Zm-.82-.67a1.59,1.59,0,0,0-.34-1.08,1.11,1.11,0,0,0-.91-.39,1.25,1.25,0,0,0-1,.41,1.78,1.78,0,0,0-.49,1.06Z" fill="#0078d7"/><path d="M80.17,141.39h-.8v-2.87a2.18,2.18,0,0,0-.26-1.2,1,1,0,0,0-.86-.37,1.08,1.08,0,0,0-.87.47,1.79,1.79,0,0,0-.36,1.12v2.85h-.8v-3q0-1.47-1.14-1.47a1.07,1.07,0,0,0-.87.44,1.89,1.89,0,0,0-.34,1.15v2.85h-.8v-5h.8v.79h0a1.7,1.7,0,0,1,1.55-.9,1.46,1.46,0,0,1,.9.28,1.48,1.48,0,0,1,.52.75,1.77,1.77,0,0,1,1.66-1c1.1,0,1.65.68,1.65,2Z" fill="#0078d7"/><path d="M83.94,141.51a2.31,2.31,0,0,1-1.77-.7,2.61,2.61,0,0,1-.66-1.86,2.72,2.72,0,0,1,.69-2,2.48,2.48,0,0,1,1.86-.7,2.27,2.27,0,0,1,1.75.68,2.78,2.78,0,0,1,.62,1.91,2.69,2.69,0,0,1-.67,1.92A2.38,2.38,0,0,1,83.94,141.51ZM84,137a1.56,1.56,0,0,0-1.22.52,2.19,2.19,0,0,0-.45,1.45,2,2,0,0,0,.46,1.4,1.5,1.5,0,0,0,1.21.52,1.47,1.47,0,0,0,1.2-.51,2.21,2.21,0,0,0,.41-1.43,2.26,2.26,0,0,0-.41-1.44A1.47,1.47,0,0,0,84,137Z" fill="#0078d7"/><path d="M92,141.39h-.8v-2.85c0-1.06-.39-1.59-1.16-1.59a1.25,1.25,0,0,0-1,.45,1.64,1.64,0,0,0-.4,1.14v2.85h-.8v-5h.8v.83h0a1.81,1.81,0,0,1,1.64-.94,1.52,1.52,0,0,1,1.26.53,2.34,2.34,0,0,1,.43,1.53Z" fill="#0078d7"/><path d="M3.52,112.33v-1a1.75,1.75,0,0,0,.4.27,3.43,3.43,0,0,0,.48.19,3.59,3.59,0,0,0,.52.13,2.74,2.74,0,0,0,.48,0,1.86,1.86,0,0,0,1.13-.28,1.07,1.07,0,0,0,.25-1.3,1.39,1.39,0,0,0-.35-.38,3.12,3.12,0,0,0-.52-.34l-.64-.33a7.37,7.37,0,0,1-.69-.38,2.58,2.58,0,0,1-.55-.42,1.71,1.71,0,0,1-.29-2,1.7,1.7,0,0,1,.55-.58,2.51,2.51,0,0,1,.78-.35,3.8,3.8,0,0,1,.89-.11,3.52,3.52,0,0,1,1.51.25v.92a2.81,2.81,0,0,0-1.59-.43,2.48,2.48,0,0,0-.54.06,1.71,1.71,0,0,0-.48.18,1.19,1.19,0,0,0-.34.33.85.85,0,0,0-.13.49,1,1,0,0,0,.1.46,1.07,1.07,0,0,0,.29.36,2.66,2.66,0,0,0,.48.31l.65.33.71.39a3.44,3.44,0,0,1,.59.46,1.94,1.94,0,0,1,.4.55,1.52,1.52,0,0,1,.15.69,1.82,1.82,0,0,1-.2.88,1.7,1.7,0,0,1-.55.58,2.44,2.44,0,0,1-.79.33,4.19,4.19,0,0,1-1,.1l-.41,0a4.71,4.71,0,0,1-.5-.08,3.37,3.37,0,0,1-.48-.12A1.52,1.52,0,0,1,3.52,112.33Z" fill="#008bfd"/><path d="M12.82,110.31H9.29a1.83,1.83,0,0,0,.45,1.29,1.54,1.54,0,0,0,1.18.45,2.45,2.45,0,0,0,1.55-.55v.75a2.89,2.89,0,0,1-1.74.48,2.14,2.14,0,0,1-1.67-.68,2.83,2.83,0,0,1-.6-1.92,2.73,2.73,0,0,1,.66-1.9,2.12,2.12,0,0,1,1.64-.74,1.89,1.89,0,0,1,1.52.64,2.63,2.63,0,0,1,.54,1.76Zm-.82-.68a1.62,1.62,0,0,0-.34-1.08,1.15,1.15,0,0,0-.91-.38,1.28,1.28,0,0,0-1,.4,1.81,1.81,0,0,0-.49,1.06Z" fill="#008bfd"/><path d="M18.05,112.21c0,1.84-.88,2.75-2.64,2.75a3.45,3.45,0,0,1-1.62-.35v-.8a3.24,3.24,0,0,0,1.61.47c1.23,0,1.85-.65,1.85-2v-.55h0a2,2,0,0,1-3.22.29,2.65,2.65,0,0,1-.57-1.79,3.08,3.08,0,0,1,.61-2,2.06,2.06,0,0,1,1.68-.76,1.64,1.64,0,0,1,1.5.81h0v-.69h.8Zm-.8-1.86v-.74a1.45,1.45,0,0,0-.41-1,1.31,1.31,0,0,0-1-.42,1.39,1.39,0,0,0-1.16.54,2.4,2.4,0,0,0-.42,1.51,2,2,0,0,0,.4,1.33,1.29,1.29,0,0,0,1.07.5,1.37,1.37,0,0,0,1.09-.47A1.76,1.76,0,0,0,17.25,110.35Z" fill="#008bfd"/><path d="M22,108.42a1,1,0,0,0-.61-.16,1,1,0,0,0-.86.48,2.27,2.27,0,0,0-.34,1.32v2.55h-.8v-5h.8v1h0a1.76,1.76,0,0,1,.52-.82,1.2,1.2,0,0,1,.79-.3,1.43,1.43,0,0,1,.48.07Z" fill="#008bfd"/><path d="M26.66,110.31H23.13a1.93,1.93,0,0,0,.45,1.29,1.56,1.56,0,0,0,1.18.45,2.48,2.48,0,0,0,1.56-.55v.75a2.9,2.9,0,0,1-1.75.48,2.12,2.12,0,0,1-1.66-.68,2.78,2.78,0,0,1-.61-1.92,2.73,2.73,0,0,1,.66-1.9,2.14,2.14,0,0,1,1.65-.74,1.9,1.9,0,0,1,1.52.64,2.68,2.68,0,0,1,.53,1.76Zm-.82-.68a1.62,1.62,0,0,0-.33-1.08,1.17,1.17,0,0,0-.92-.38,1.31,1.31,0,0,0-1,.4,1.94,1.94,0,0,0-.49,1.06Z" fill="#008bfd"/><path d="M31.89,112.61h-.8v-.85h0a1.84,1.84,0,0,1-1.72,1,1.87,1.87,0,0,1-1.5-.67,2.75,2.75,0,0,1-.57-1.83,3,3,0,0,1,.63-2,2,2,0,0,1,1.66-.75,1.6,1.6,0,0,1,1.5.81h0v-3.09h.8Zm-.8-2.26v-.74a1.41,1.41,0,0,0-.4-1,1.34,1.34,0,0,0-1-.42,1.39,1.39,0,0,0-1.16.54,2.33,2.33,0,0,0-.42,1.48,2.08,2.08,0,0,0,.41,1.36,1.28,1.28,0,0,0,1.08.5,1.36,1.36,0,0,0,1.08-.48A1.79,1.79,0,0,0,31.09,110.35Z" fill="#008bfd"/><path d="M35.35,112.73a2.31,2.31,0,0,1-1.77-.7,2.61,2.61,0,0,1-.66-1.86,2.7,2.7,0,0,1,.69-2,2.49,2.49,0,0,1,1.86-.71,2.25,2.25,0,0,1,1.75.69,2.78,2.78,0,0,1,.62,1.91,2.69,2.69,0,0,1-.67,1.92A2.38,2.38,0,0,1,35.35,112.73Zm.06-4.56a1.52,1.52,0,0,0-1.22.52,2.17,2.17,0,0,0-.45,1.45,2,2,0,0,0,.46,1.4,1.53,1.53,0,0,0,1.21.51,1.46,1.46,0,0,0,1.2-.5,2.21,2.21,0,0,0,.41-1.43,2.25,2.25,0,0,0-.41-1.44A1.47,1.47,0,0,0,35.41,108.17Z" fill="#008bfd"/><path d="M3.52,183.45v-1a2.13,2.13,0,0,0,.4.26,3.45,3.45,0,0,0,.48.2l.52.12a2.8,2.8,0,0,0,.48.05,1.86,1.86,0,0,0,1.13-.29.92.92,0,0,0,.37-.8,1,1,0,0,0-.12-.5,1.55,1.55,0,0,0-.35-.38,2.58,2.58,0,0,0-.52-.33l-.64-.34c-.25-.12-.48-.25-.69-.37a3.46,3.46,0,0,1-.55-.42,1.84,1.84,0,0,1-.37-.52,1.62,1.62,0,0,1-.13-.68,1.64,1.64,0,0,1,.21-.84,1.79,1.79,0,0,1,.55-.58,2.5,2.5,0,0,1,.78-.34,3.34,3.34,0,0,1,.89-.11,3.37,3.37,0,0,1,1.51.25v.92a2.73,2.73,0,0,0-1.59-.43,2.48,2.48,0,0,0-.54.06,1.26,1.26,0,0,0-.48.18,1,1,0,0,0-.34.32.88.88,0,0,0-.13.49,1,1,0,0,0,.1.47,1,1,0,0,0,.29.35,2.67,2.67,0,0,0,.48.32l.65.33a8.06,8.06,0,0,1,.71.39,4,4,0,0,1,.59.45,2.09,2.09,0,0,1,.4.55,1.6,1.6,0,0,1,.15.7,1.8,1.8,0,0,1-.2.87,1.73,1.73,0,0,1-.55.59,2.23,2.23,0,0,1-.79.32,4.19,4.19,0,0,1-1,.1l-.41,0-.5-.08-.48-.13A1.52,1.52,0,0,1,3.52,183.45Z" fill="#008bfd"/><path d="M12.82,181.44H9.29a1.82,1.82,0,0,0,.45,1.28,1.52,1.52,0,0,0,1.18.46,2.46,2.46,0,0,0,1.55-.56v.75a2.89,2.89,0,0,1-1.74.48,2.11,2.11,0,0,1-1.67-.68,2.8,2.8,0,0,1-.6-1.92,2.75,2.75,0,0,1,.66-1.9,2.12,2.12,0,0,1,1.64-.73,1.88,1.88,0,0,1,1.52.63,2.66,2.66,0,0,1,.54,1.77Zm-.82-.68a1.59,1.59,0,0,0-.34-1.08,1.12,1.12,0,0,0-.91-.39,1.28,1.28,0,0,0-1,.41,1.78,1.78,0,0,0-.49,1.06Z" fill="#008bfd"/><path d="M18.05,183.33q0,2.76-2.64,2.76a3.58,3.58,0,0,1-1.62-.35v-.8a3.35,3.35,0,0,0,1.61.47c1.23,0,1.85-.66,1.85-2v-.54h0a2,2,0,0,1-3.22.29,2.67,2.67,0,0,1-.57-1.79,3.11,3.11,0,0,1,.61-2,2.06,2.06,0,0,1,1.68-.75,1.64,1.64,0,0,1,1.5.81h0v-.69h.8Zm-.8-1.86v-.73a1.42,1.42,0,0,0-.41-1,1.29,1.29,0,0,0-1-.43,1.39,1.39,0,0,0-1.16.54,2.42,2.42,0,0,0-.42,1.51,2.08,2.08,0,0,0,.4,1.34,1.32,1.32,0,0,0,1.07.5,1.38,1.38,0,0,0,1.09-.48A1.76,1.76,0,0,0,17.25,181.47Z" fill="#008bfd"/><path d="M22,179.55a1,1,0,0,0-.61-.17,1,1,0,0,0-.86.49,2.23,2.23,0,0,0-.34,1.32v2.55h-.8v-5h.8v1h0a1.74,1.74,0,0,1,.52-.83,1.24,1.24,0,0,1,.79-.29,1.22,1.22,0,0,1,.48.07Z" fill="#008bfd"/><path d="M26.66,181.44H23.13a1.92,1.92,0,0,0,.45,1.28,1.53,1.53,0,0,0,1.18.46,2.49,2.49,0,0,0,1.56-.56v.75a2.9,2.9,0,0,1-1.75.48,2.09,2.09,0,0,1-1.66-.68,3.19,3.19,0,0,1,.05-3.82,2.14,2.14,0,0,1,1.65-.73,1.9,1.9,0,0,1,1.52.63,2.71,2.71,0,0,1,.53,1.77Zm-.82-.68a1.59,1.59,0,0,0-.33-1.08,1.14,1.14,0,0,0-.92-.39,1.32,1.32,0,0,0-1,.41,1.91,1.91,0,0,0-.49,1.06Z" fill="#008bfd"/><path d="M31.89,183.74h-.8v-.85h0a2,2,0,0,1-3.22.29,2.75,2.75,0,0,1-.57-1.83,3,3,0,0,1,.63-2,2,2,0,0,1,1.66-.75,1.6,1.6,0,0,1,1.5.81h0v-3.1h.8Zm-.8-2.27v-.73a1.42,1.42,0,0,0-.4-1,1.34,1.34,0,0,0-1-.42,1.39,1.39,0,0,0-1.16.54,2.35,2.35,0,0,0-.42,1.48,2.13,2.13,0,0,0,.41,1.37,1.3,1.3,0,0,0,1.08.5,1.36,1.36,0,0,0,1.08-.48A1.82,1.82,0,0,0,31.09,181.47Z" fill="#008bfd"/><path d="M35.35,183.85a2.31,2.31,0,0,1-1.77-.7,2.6,2.6,0,0,1-.66-1.86,2.68,2.68,0,0,1,.69-2,2.45,2.45,0,0,1,1.86-.71,2.25,2.25,0,0,1,1.75.69,2.76,2.76,0,0,1,.62,1.91,2.68,2.68,0,0,1-.67,1.91A2.38,2.38,0,0,1,35.35,183.85Zm.06-4.56a1.53,1.53,0,0,0-1.22.53,2.14,2.14,0,0,0-.45,1.44,2,2,0,0,0,.46,1.41,1.53,1.53,0,0,0,1.21.51,1.49,1.49,0,0,0,1.2-.5,2.73,2.73,0,0,0,0-2.88A1.47,1.47,0,0,0,35.41,179.29Z" fill="#008bfd"/><path d="M3.52,35.14v-1a1.73,1.73,0,0,0,.4.26,2.55,2.55,0,0,0,.48.2,3.25,3.25,0,0,0,.52.12,2.8,2.8,0,0,0,.48,0,1.94,1.94,0,0,0,1.13-.28,1.07,1.07,0,0,0,.25-1.3,1.59,1.59,0,0,0-.35-.39,3.92,3.92,0,0,0-.52-.33l-.64-.33c-.25-.13-.48-.25-.69-.38A3.46,3.46,0,0,1,4,31.37a1.71,1.71,0,0,1-.37-.52,1.79,1.79,0,0,1,.08-1.51,1.82,1.82,0,0,1,.55-.59,2.75,2.75,0,0,1,.78-.34A3.8,3.8,0,0,1,6,28.3a3.37,3.37,0,0,1,1.51.25v.92A2.81,2.81,0,0,0,5.88,29a2.48,2.48,0,0,0-.54.06,1.71,1.71,0,0,0-.48.18,1.07,1.07,0,0,0-.34.33.83.83,0,0,0-.13.49,1,1,0,0,0,.1.46,1.07,1.07,0,0,0,.29.36,3.33,3.33,0,0,0,.48.31l.65.33c.25.13.48.25.71.39a3.44,3.44,0,0,1,.59.46,1.94,1.94,0,0,1,.4.55,1.52,1.52,0,0,1,.15.69,1.82,1.82,0,0,1-.2.88,1.7,1.7,0,0,1-.55.58,2.44,2.44,0,0,1-.79.33,4.85,4.85,0,0,1-1,.1l-.41,0a4.71,4.71,0,0,1-.5-.08,3.36,3.36,0,0,1-.48-.13A1.54,1.54,0,0,1,3.52,35.14Z" fill="#008bfd"/><path d="M12.82,33.12H9.29a1.85,1.85,0,0,0,.45,1.29,1.54,1.54,0,0,0,1.18.45,2.45,2.45,0,0,0,1.55-.55v.75a2.89,2.89,0,0,1-1.74.48,2.11,2.11,0,0,1-1.67-.69,2.79,2.79,0,0,1-.6-1.91A2.73,2.73,0,0,1,9.12,31a2.12,2.12,0,0,1,1.64-.74,1.86,1.86,0,0,1,1.52.64,2.63,2.63,0,0,1,.54,1.76ZM12,32.44a1.68,1.68,0,0,0-.34-1.08,1.12,1.12,0,0,0-.91-.38,1.28,1.28,0,0,0-1,.4,1.78,1.78,0,0,0-.49,1.06Z" fill="#008bfd"/><path d="M18.05,35c0,1.83-.88,2.75-2.64,2.75a3.58,3.58,0,0,1-1.62-.35v-.8a3.35,3.35,0,0,0,1.61.47c1.23,0,1.85-.66,1.85-2v-.55h0a2,2,0,0,1-3.22.29,2.67,2.67,0,0,1-.57-1.79,3.11,3.11,0,0,1,.61-2,2.06,2.06,0,0,1,1.68-.75,1.64,1.64,0,0,1,1.5.81h0v-.69h.8Zm-.8-1.86v-.74a1.42,1.42,0,0,0-.41-1,1.33,1.33,0,0,0-1-.42,1.38,1.38,0,0,0-1.16.53A2.43,2.43,0,0,0,14.26,33a2,2,0,0,0,.4,1.33,1.31,1.31,0,0,0,1.07.5,1.38,1.38,0,0,0,1.09-.48A1.73,1.73,0,0,0,17.25,33.16Z" fill="#008bfd"/><path d="M22,31.23a1,1,0,0,0-.61-.16,1,1,0,0,0-.86.48,2.23,2.23,0,0,0-.34,1.32v2.55h-.8v-5h.8v1h0a1.71,1.71,0,0,1,.52-.82,1.2,1.2,0,0,1,.79-.3,1.25,1.25,0,0,1,.48.07Z" fill="#008bfd"/><path d="M26.66,33.12H23.13a2,2,0,0,0,.45,1.29,1.56,1.56,0,0,0,1.18.45,2.48,2.48,0,0,0,1.56-.55v.75a2.9,2.9,0,0,1-1.75.48,2.09,2.09,0,0,1-1.66-.69A3.18,3.18,0,0,1,23,31a2.14,2.14,0,0,1,1.65-.74,1.87,1.87,0,0,1,1.52.64,2.68,2.68,0,0,1,.53,1.76Zm-.82-.68a1.62,1.62,0,0,0-.33-1.08,1.14,1.14,0,0,0-.92-.38,1.29,1.29,0,0,0-1,.4,1.84,1.84,0,0,0-.49,1.06Z" fill="#008bfd"/><path d="M31.89,35.42h-.8v-.85h0a2,2,0,0,1-3.22.29A2.7,2.7,0,0,1,27.28,33a3,3,0,0,1,.63-2,2,2,0,0,1,1.66-.75,1.6,1.6,0,0,1,1.5.81h0V28h.8Zm-.8-2.26v-.74a1.41,1.41,0,0,0-.4-1,1.32,1.32,0,0,0-1-.42,1.38,1.38,0,0,0-1.15.53A2.36,2.36,0,0,0,28.1,33a2.1,2.1,0,0,0,.41,1.36,1.3,1.3,0,0,0,1.08.5,1.36,1.36,0,0,0,1.08-.48A1.79,1.79,0,0,0,31.09,33.16Z" fill="#008bfd"/><path d="M35.35,35.54a2.31,2.31,0,0,1-1.77-.71A2.57,2.57,0,0,1,32.92,33a2.7,2.7,0,0,1,.69-2,2.49,2.49,0,0,1,1.86-.71,2.25,2.25,0,0,1,1.75.69,2.78,2.78,0,0,1,.62,1.91,2.65,2.65,0,0,1-.67,1.91A2.35,2.35,0,0,1,35.35,35.54ZM35.41,31a1.52,1.52,0,0,0-1.22.52A2.15,2.15,0,0,0,33.74,33a2,2,0,0,0,.46,1.4,1.53,1.53,0,0,0,1.21.51,1.46,1.46,0,0,0,1.19-.5A2.18,2.18,0,0,0,37,32.93a2.22,2.22,0,0,0-.42-1.45A1.43,1.43,0,0,0,35.41,31Z" fill="#008bfd"/><path d="M17.37,98.69H10.65a.59.59,0,0,1-.61-.57V91.68H12V89.91H24.4a.59.59,0,0,1,.62.57v.09a6.4,6.4,0,0,1,1,.33v-.42A1.53,1.53,0,0,0,24.4,89h-13l-2.34,2.2v6.9a1.51,1.51,0,0,0,1.57,1.46h7.28A5.8,5.8,0,0,1,17.37,98.69Z" fill="gray" fill-rule="evenodd"/><path d="M26,100.22l2.34,3.26-2.17-.54-.61,1.64-2.34-2.88-1.75,2.88-.8-1.74-2.17.54L20.65,100s.58.92,2.69.92S26,100.22,26,100.22Z" fill="gray" fill-rule="evenodd"/><path d="M23.43,99.63a3.43,3.43,0,1,1,0-6.83,3.43,3.43,0,1,1,0,6.83Zm0-6.06a2.66,2.66,0,1,0,2.9,2.65A2.78,2.78,0,0,0,23.43,93.57Z" fill="gray" fill-rule="evenodd"/><path d="M23.43,101.44a5.24,5.24,0,1,1,0-10.45,5.24,5.24,0,1,1,0,10.45Zm0-9.69a4.48,4.48,0,1,0,0,8.93,4.48,4.48,0,1,0,0-8.93Z" fill="gray" fill-rule="evenodd"/><path d="M17.37,21.52H10.65A.59.59,0,0,1,10,21V14.51H12V12.74H24.4a.59.59,0,0,1,.62.57v.09a6.4,6.4,0,0,1,1,.33v-.42a1.53,1.53,0,0,0-1.58-1.46h-13l-2.34,2.2V21a1.51,1.51,0,0,0,1.57,1.46h7.28A5.8,5.8,0,0,1,17.37,21.52Z" fill="gray" fill-rule="evenodd"/><path d="M26,23.05l2.34,3.26-2.17-.54-.61,1.64-2.34-2.88-1.75,2.88-.8-1.74-2.17.54,2.14-3.42s.58.92,2.69.92S26,23.05,26,23.05Z" fill="gray" fill-rule="evenodd"/><path d="M23.43,22.45A3.58,3.58,0,0,1,19.72,19a3.58,3.58,0,0,1,3.71-3.42A3.58,3.58,0,0,1,27.15,19,3.58,3.58,0,0,1,23.43,22.45Zm0-6.06A2.78,2.78,0,0,0,20.54,19a2.91,2.91,0,0,0,5.79,0A2.79,2.79,0,0,0,23.43,16.39Z" fill="gray" fill-rule="evenodd"/><path d="M23.43,24.27a5.48,5.48,0,0,1-5.7-5.22,5.48,5.48,0,0,1,5.7-5.23,5.48,5.48,0,0,1,5.69,5.23A5.47,5.47,0,0,1,23.43,24.27Zm0-9.69a4.7,4.7,0,0,0-4.88,4.47,4.69,4.69,0,0,0,4.88,4.46,4.68,4.68,0,0,0,4.87-4.46A4.69,4.69,0,0,0,23.43,14.58Z" fill="gray" fill-rule="evenodd"/><path d="M80.65,24.41a11.81,11.81,0,0,1-16.84-2.29A12.56,12.56,0,0,1,66.05,4.83a11.82,11.82,0,0,1,16.84,2.3A12.54,12.54,0,0,1,80.65,24.41ZM84.31,6A13.57,13.57,0,0,0,65,3.37,14.43,14.43,0,0,0,62.4,23.24a13.62,13.62,0,0,0,11,5.55,13.45,13.45,0,0,0,8.39-2.92A14.44,14.44,0,0,0,84.31,6Z" fill="#008bfd"/><path d="M66.68,17.19a17,17,0,0,1-2-2.35,18.28,18.28,0,0,0-1.66,6.88c.11.16.11.29.23.44a12.55,12.55,0,0,0,2,2.05A14.13,14.13,0,0,1,66.68,17.19Z" fill="#008bfd"/><path d="M71.29,7.75a21,21,0,0,0-3.33,3,15.71,15.71,0,0,0-1.61,2,15.42,15.42,0,0,0,1.9,2.46,16.32,16.32,0,0,1,2.2-2.56,26.47,26.47,0,0,1,3.13-2.61C72.78,9.31,72,8.54,71.29,7.75Z" fill="#008bfd"/><path d="M82.76,7A12,12,0,0,0,81,5.13a12.53,12.53,0,0,0-8,1.53c.76.84,1.51,1.63,2.24,2.36C79.63,6.59,82.76,7,82.76,7Z" fill="#008bfd"/><path d="M65,15a19.82,19.82,0,0,1,1.19-2.06,9.84,9.84,0,0,1-1.6-6.79,13.09,13.09,0,0,0-1.29,1.6C62.87,9.34,62.85,11.9,65,15Z" fill="#008bfd"/><path d="M70.52,17.37a21.6,21.6,0,0,1-2.27-2.14,14.25,14.25,0,0,0-1.14,1.95,23.54,23.54,0,0,0,2.09,1.91,19.12,19.12,0,0,0,12.56,4.38,9,9,0,0,0,1.54-1.94C82.07,21.79,76.81,22.48,70.52,17.37Z" fill="#008bfd"/><path d="M65.16,14.83a15.72,15.72,0,0,0,2,2.35,15.36,15.36,0,0,1,1.14-1.95,15.42,15.42,0,0,1-1.9-2.46A15.58,15.58,0,0,0,65.16,14.83Z" fill="#008bfd"/><path d="M73.58,10.07a97,97,0,0,0,11.15,8.82,9.82,9.82,0,0,0,.33-1.05A95.51,95.51,0,0,1,75.23,9Q74.44,9.47,73.58,10.07Z" fill="#008bfd"/><path d="M73,6.66q-1.65-1.77-3.36-3.8A10.05,10.05,0,0,0,68,3.52a26.3,26.3,0,0,0,3.24,4.22A17.22,17.22,0,0,1,73,6.66Z" fill="#008bfd"/><path d="M73.06,6.62a18.74,18.74,0,0,0-1.87,1.19c.72.78,1.45,1.59,2.25,2.35.57-.4,1.34-.88,1.87-1.18C74.57,8.25,73.82,7.46,73.06,6.62Z" fill="#008bfd"/><path d="M72.86,6.52a16.24,16.24,0,0,0-1.67,1.12c.72.79,1.74,1.81,2.54,2.57.57-.4,1-.8,1.58-1.11C74.57,8.38,73.61,7.35,72.86,6.52Z" fill="#008bfd"/><path d="M78.92,13.07a2.7,2.7,0,0,0-.48,3.7,2.56,2.56,0,0,0,3.63.51,2.72,2.72,0,0,0,.48-3.72A2.55,2.55,0,0,0,78.92,13.07Z" fill="#008bfd"/><path d="M73.75,19.2a2.52,2.52,0,0,0-.45,3.44,2.37,2.37,0,0,0,3.36.45,2.49,2.49,0,0,0,.44-3.43A2.36,2.36,0,0,0,73.75,19.2Z" fill="#008bfd"/><path d="M64.6,11.87a3.79,3.79,0,0,0-.68,5.21,3.58,3.58,0,0,0,5.1.7,3.8,3.8,0,0,0,.67-5.23A3.59,3.59,0,0,0,64.6,11.87Z" fill="#008bfd"/><path d="M107,154V131.82C107,113.88,106,92,144,92" fill="none" stroke="#505050" stroke-miterlimit="10"/><path d="M87.59,165.63h8.24c6.36,0,11.15-3.46,11.15-9.41v-16.7" fill="none" stroke="#505050" stroke-miterlimit="10"/><path d="M106.19,29.55V51.92c0,18.06-1,40.08,37,40.08" fill="none" stroke="#505050" stroke-miterlimit="10"/><path d="M89.12,16.36h7.26c5.59,0,9.81,3.67,9.81,10V44.08" fill="none" stroke="#505050" stroke-miterlimit="10"/><path d="M181,87.78l8,4-8,4a9,9,0,0,0,0-8" fill="#505050" fill-rule="evenodd"/><path d="M181,87.79l8,4-8,4a9,9,0,0,0,0-8" fill="#505050" fill-rule="evenodd"/><path d="M181,87.79l8,4-8,4a9.06,9.06,0,0,0,0-8" fill="#505050" fill-rule="evenodd"/><rect x="91.55" y="91.49" width="91.09" height="1" rx="0.42" fill="#505050"/></svg>