<svg xmlns="http://www.w3.org/2000/svg" width="224.94" height="200.3" viewBox="0 0 224.94 200.3"><title>OJ104440668</title><path d="M211.09,79h-20.5a1.09,1.09,0,0,0-1.09,1.1V96.88a1.09,1.09,0,0,0,1.09,1.1h5.28a3.29,3.29,0,0,0,3.21,2.27,3.38,3.38,0,0,0,0-6.75,3.29,3.29,0,0,0-3.21,2.27h-4.19v-12H210v12h-3.45a7.61,7.61,0,0,0-7.46-6.56,8.25,8.25,0,0,0-3.64.92l1,2a5.27,5.27,0,0,1,2.55-.67,5.46,5.46,0,0,1,0,10.91,5.27,5.27,0,0,1-2.55-.67l-1,2a7.51,7.51,0,0,0,3.64.92A7.61,7.61,0,0,0,206.54,98h4.55a1.09,1.09,0,0,0,1.09-1.1V80.13A1.14,1.14,0,0,0,211.09,79Z" fill="#008bfd" fill-rule="evenodd"/><path d="M73.65,106H59.44V77.6H73.65v7.67h.76V76.83H58.68v29.91H74.41v-2.32h-.76Z" fill="#0078d7" fill-rule="evenodd"/><path d="M72.88,78.39H60.24V83H72.88ZM63.3,80.31h6.53v.76H63.3Zm6.59,1.84H63.27v-.76h6.62Z" fill="#0078d7" fill-rule="evenodd"/><path d="M60.21,83.74V86.8h8.6V85.27h4.08V83.74Z" fill="#0078d7" fill-rule="evenodd"/><rect x="60.21" y="87.57" width="8.6" height="2.68" fill="#0078d7"/><path d="M60.21,105.21H72.86v-.8H68.78V91h-8.6v14.17Zm1.53-2.74H64v1.21H61.74Z" fill="#0078d7" fill-rule="evenodd"/><path d="M83.43,102.15H81v-1.87H78.46v1.87H76a1.32,1.32,0,0,0-1.31,1.15h10A1.29,1.29,0,0,0,83.43,102.15Z" fill="#0078d7" fill-rule="evenodd"/><path d="M88.27,88.17H71.17a.65.65,0,0,0-.67.61V98.91a.65.65,0,0,0,.67.6h17.1a.64.64,0,0,0,.67-.6V88.78A.63.63,0,0,0,88.27,88.17Zm-1,9.84H72.19V89.7H87.25Z" fill="#0078d7" fill-rule="evenodd"/><path d="M83.63,95.52V92.08l-3.51-1.84L76.62,92v3.54l3.5,1.81Zm-4.4-2.29.89-.45.86.45-.86.48Zm0-1.15.86-.44.86.44-.86.48Zm1.91,4.53-1,.51v-.93l1-.51Zm0-1.18-1,.51V95l1-.51Zm0-1.12-1,.51V93.9l1-.51Zm-.82-1.65.86-.45.89.45-.86.44Zm2,3.34-.95.51v-.92l.95-.51Zm0-1.18-.95.51v-.92l.95-.51Zm0-1.14-.95.51v-.9l.95-.51Zm1.05,1.75-.86.44V95l.86-.45Zm0-1.15-.86.45V93.8l.86-.44Zm0-1.14-.86.44v-.92l.86-.45Zm-.19-1.06-.89.45-.89-.45.86-.44Zm-1.11-.57-.89.45-.86-.45.86-.44Zm-2-1.05.86.45-.86.44-.89-.44ZM79,91.07l.86.44L79,92l-.86-.45Zm-1.08.57.89.44-.89.45-.9-.45Zm-.26,4.27-.86-.45v-.92l.86.44Zm0-1.18-.86-.45v-.92l.86.44Zm0-1.15-.86-.44v-.9l.86.45Zm1.18,2.93-1-.51v-.92l1,.51Zm0-1.18-1-.51V93.9l1,.51Zm0-1.14-1-.51v-.9l1,.51Zm-.7-1.53.89-.45.86.45-.89.48ZM80,97.12l-1-.51v-.89l1,.5ZM80,96l-1-.51v-.92l1,.51Zm0-1.15-1-.51v-.92l1,.51Z" fill="#0078d7" fill-rule="evenodd"/><path d="M84.06,154.79H63.56a1.09,1.09,0,0,0-1.09,1.1v16.75a1.09,1.09,0,0,0,1.09,1.1h5.28A3.29,3.29,0,0,0,72.05,176a3.38,3.38,0,0,0,0-6.75,3.29,3.29,0,0,0-3.21,2.27H64.65v-12H83v12H79.51A7.61,7.61,0,0,0,72.05,165a8.25,8.25,0,0,0-3.64.92l1,2a5.27,5.27,0,0,1,2.55-.67,5.46,5.46,0,0,1,0,10.91,5.27,5.27,0,0,1-2.55-.67l-1,2a7.51,7.51,0,0,0,3.64.92,7.61,7.61,0,0,0,7.46-6.56h4.55a1.09,1.09,0,0,0,1.09-1.1V155.89A1.14,1.14,0,0,0,84.06,154.79Z" fill="#008bfd" fill-rule="evenodd"/><path d="M181.12,88c0,.08,0,.15.08.22a9.46,9.46,0,0,1,.7,2.77h-1.26c-.36,0-.81,0-1.31,0q-23.16,0-46.31,0c-16.48,0-27.75-11.24-27.75-27.68,0-13.52,0-27,0-40.55,0-4.62-3.18-8.5-7.48-8.85a50.47,50.47,0,0,0-10.28.1.7.7,0,0,0,0,1c2.54.56,5.1.21,7.64.24,5.83.08,8.66,2.88,8.66,8.73,0,13.6-.13,27.19,0,40.78.14,11.42,5.6,19.71,15.68,25,.62.33,1.36.49,1.83,1.21-9.81,0-19.57,0-29.32,0-.91,0-2-.38-2.64.65l0,.17c.69,1,1.73.66,2.65.67q14.13,0,28.27,0h2.52c-.74.48-.91.62-1.11.72-11.32,5.41-16.81,14.45-16.79,26.94,0,12.3,0,24.6,0,36.9,0,5.82-3.78,9.57-9.58,9.68-3.28.06-6.55.07-9.82.1-.83.15-.8.71-.63,1.33a.41.41,0,0,0,.56.19c3,0,5.92-.05,8.88-.06,7.94,0,12.24-4.33,12.25-12.35V119.42c0-15.62,11.3-27,26.88-27h48.54a9.57,9.57,0,0,1-.68,3.19v0l8.08-4C186.4,90.43,184.24,88.85,181.12,88Z" fill="#505050"/><path d="M66.68,17.18a16.47,16.47,0,0,1-2-2.35,18.32,18.32,0,0,0-1.66,6.89c.11.16.11.28.23.44a13.4,13.4,0,0,0,2,2.05A14.18,14.18,0,0,1,66.68,17.18Z" fill="#008bfd" fill-rule="evenodd"/><path d="M71.29,7.75a21,21,0,0,0-3.33,3,16.41,16.41,0,0,0-1.61,2,15,15,0,0,0,1.9,2.47,16.84,16.84,0,0,1,2.2-2.57,27.32,27.32,0,0,1,3.13-2.6C72.78,9.31,72,8.54,71.29,7.75Z" fill="#008bfd" fill-rule="evenodd"/><path d="M82.76,7A12.55,12.55,0,0,0,81,5.12a12.55,12.55,0,0,0-8,1.54c.76.84,1.51,1.62,2.24,2.36C79.63,6.59,82.76,7,82.76,7Z" fill="#008bfd" fill-rule="evenodd"/><path d="M65.16,14.64a18.83,18.83,0,0,1,1.19-2.06,9.86,9.86,0,0,1-1.6-6.8,13.19,13.19,0,0,0-1.29,1.61C63.08,9,63.06,11.55,65.16,14.64Z" fill="#008bfd" fill-rule="evenodd"/><path d="M70.52,17.36a21.57,21.57,0,0,1-2.27-2.13,13.68,13.68,0,0,0-1.14,1.95,23.54,23.54,0,0,0,2.09,1.91,19.18,19.18,0,0,0,12.56,4.38,9,9,0,0,0,1.54-1.94C82.07,21.79,76.81,22.47,70.52,17.36Z" fill="#008bfd" fill-rule="evenodd"/><path d="M65.16,14.83a16.24,16.24,0,0,0,2,2.35,14.7,14.7,0,0,1,1.14-1.95,15,15,0,0,1-1.9-2.47A16.34,16.34,0,0,0,65.16,14.83Z" fill="#008bfd" fill-rule="evenodd"/><path d="M73.58,10.07a98.21,98.21,0,0,0,11.15,8.82,9.82,9.82,0,0,0,.33-1.05A96.8,96.8,0,0,1,75.23,9,16,16,0,0,0,73.58,10.07Z" fill="#008bfd" fill-rule="evenodd"/><path d="M73,6.65q-1.65-1.77-3.36-3.79A10.05,10.05,0,0,0,68,3.52a26.74,26.74,0,0,0,3.24,4.22A15.69,15.69,0,0,1,73,6.65Z" fill="#008bfd" fill-rule="evenodd"/><path d="M73.06,6.62a18.74,18.74,0,0,0-1.87,1.19c.72.78,1.45,1.59,2.25,2.35.57-.4,1.34-.89,1.87-1.19C74.57,8.24,73.82,7.46,73.06,6.62Z" fill="#008bfd" fill-rule="evenodd"/><path d="M72.86,6.51a14.89,14.89,0,0,0-1.67,1.13c.72.79,1.74,1.81,2.54,2.57.57-.4,1-.81,1.58-1.11C74.57,8.37,73.61,7.35,72.86,6.51Z" fill="#008bfd" fill-rule="evenodd"/><path d="M78.92,13.07a2.7,2.7,0,0,0-.48,3.7,2.55,2.55,0,0,0,3.63.5,2.71,2.71,0,0,0,.48-3.71A2.54,2.54,0,0,0,78.92,13.07Z" fill="#008bfd" fill-rule="evenodd"/><path d="M64,19.68a2.52,2.52,0,0,0-.45,3.44,2.37,2.37,0,0,0,3.36.45,2.49,2.49,0,0,0,.44-3.43A2.35,2.35,0,0,0,64,19.68Z" fill="#008bfd" fill-rule="evenodd"/><path d="M64.61,11.87a3.79,3.79,0,0,0-.68,5.21,3.58,3.58,0,0,0,5.1.7,3.8,3.8,0,0,0,.67-5.23A3.58,3.58,0,0,0,64.61,11.87Z" fill="#008bfd" fill-rule="evenodd"/><path d="M80.65,24.41a11.81,11.81,0,0,1-16.84-2.29A12.55,12.55,0,0,1,66.05,4.83a11.72,11.72,0,0,1,7.29-2.54,11.89,11.89,0,0,1,9.55,4.84A12.54,12.54,0,0,1,80.65,24.41ZM84.31,6A13.57,13.57,0,0,0,65,3.36,14.45,14.45,0,0,0,62.4,23.24a13.65,13.65,0,0,0,11,5.55,13.45,13.45,0,0,0,8.39-2.92A14.44,14.44,0,0,0,84.31,6Z" fill="#008bfd" fill-rule="evenodd"/><path d="M17.37,21.09H10.65a.59.59,0,0,1-.61-.57V14.08H12V12.31H24.4a.59.59,0,0,1,.62.57V13a6.4,6.4,0,0,1,1,.33v-.42a1.53,1.53,0,0,0-1.58-1.46h-13l-2.34,2.2v6.9A1.51,1.51,0,0,0,10.65,22h7.28A5.8,5.8,0,0,1,17.37,21.09Z" fill="gray" fill-rule="evenodd"/><path d="M26,23.3l2.34,3.26L26.16,26l-.61,1.64-2.34-2.88-1.75,2.88-.8-1.74-2.17.54L20.63,23s.58.92,2.69.92S26,23.3,26,23.3Z" fill="gray" fill-rule="evenodd"/><path d="M24.19,22.71a3.58,3.58,0,0,1-3.71-3.41,3.58,3.58,0,0,1,3.71-3.42,3.58,3.58,0,0,1,3.72,3.42A3.58,3.58,0,0,1,24.19,22.71Zm0-6.06A2.78,2.78,0,0,0,21.3,19.3a2.91,2.91,0,0,0,5.79,0A2.79,2.79,0,0,0,24.19,16.65Z" fill="gray" fill-rule="evenodd"/><path d="M24.19,24.52a5.48,5.48,0,0,1-5.7-5.22,5.48,5.48,0,0,1,5.7-5.23,5.48,5.48,0,0,1,5.69,5.23A5.47,5.47,0,0,1,24.19,24.52Zm0-9.69a4.7,4.7,0,0,0-4.88,4.47,4.69,4.69,0,0,0,4.88,4.46,4.68,4.68,0,0,0,4.87-4.46A4.69,4.69,0,0,0,24.19,14.83Z" fill="gray" fill-rule="evenodd"/><path d="M17.54,98.67H10.82a.59.59,0,0,1-.61-.57V91.66h1.94V89.89H24.57a.59.59,0,0,1,.62.57v.09a6.4,6.4,0,0,1,1,.33v-.42A1.53,1.53,0,0,0,24.57,89h-13L9.25,91.2v6.9a1.51,1.51,0,0,0,1.57,1.46H18.1A5.8,5.8,0,0,1,17.54,98.67Z" fill="gray" fill-rule="evenodd"/><path d="M26.16,100.89l2.34,3.26-2.17-.54-.61,1.64-2.34-2.88-1.75,2.88-.8-1.74-2.17.54,2.14-3.42s.58.92,2.69.92S26.16,100.89,26.16,100.89Z" fill="gray" fill-rule="evenodd"/><path d="M24.35,100.29a3.43,3.43,0,1,1,0-6.83,3.43,3.43,0,1,1,0,6.83Zm0-6.06a2.66,2.66,0,1,0,2.9,2.65A2.78,2.78,0,0,0,24.35,94.23Z" fill="gray" fill-rule="evenodd"/><path d="M24.36,102.1a5.24,5.24,0,1,1,0-10.45,5.24,5.24,0,1,1,0,10.45Zm0-9.69a4.48,4.48,0,1,0,0,8.93,4.48,4.48,0,1,0,0-8.93Z" fill="gray" fill-rule="evenodd"/><path d="M17.54,168.78H10.82a.59.59,0,0,1-.61-.57v-6.44h1.94V160H24.57a.59.59,0,0,1,.62.57v.09a6.4,6.4,0,0,1,1,.33v-.42a1.53,1.53,0,0,0-1.58-1.46h-13l-2.34,2.2v6.9a1.51,1.51,0,0,0,1.57,1.46H18.1A5.8,5.8,0,0,1,17.54,168.78Z" fill="gray" fill-rule="evenodd"/><path d="M26.16,171l2.34,3.26-2.17-.54-.61,1.64-2.34-2.88-1.75,2.88-.8-1.74-2.17.54,2.14-3.42s.58.92,2.69.92S26.16,171,26.16,171Z" fill="gray" fill-rule="evenodd"/><path d="M24.35,170.4a3.43,3.43,0,1,1,0-6.83,3.43,3.43,0,1,1,0,6.83Zm0-6.06a2.66,2.66,0,1,0,2.9,2.65A2.78,2.78,0,0,0,24.35,164.34Z" fill="gray" fill-rule="evenodd"/><path d="M24.36,172.21a5.24,5.24,0,1,1,0-10.45,5.24,5.24,0,1,1,0,10.45Zm0-9.69a4.48,4.48,0,1,0,0,8.93,4.48,4.48,0,1,0,0-8.93Z" fill="gray" fill-rule="evenodd"/><path d="M5.84,35.18v-.77a1.48,1.48,0,0,0,.32.21,3.52,3.52,0,0,0,.39.16l.41.1.38,0a1.51,1.51,0,0,0,.91-.22.77.77,0,0,0,.3-.65.81.81,0,0,0-.1-.39,1,1,0,0,0-.28-.31,2.91,2.91,0,0,0-.41-.27l-.52-.26a5.67,5.67,0,0,1-.55-.31,2.53,2.53,0,0,1-.44-.33A1.37,1.37,0,0,1,6,31.75a1.13,1.13,0,0,1-.11-.54A1.22,1.22,0,0,1,6,30.54a1.38,1.38,0,0,1,.44-.46,1.84,1.84,0,0,1,.62-.28,2.82,2.82,0,0,1,.71-.09,2.75,2.75,0,0,1,1.21.2v.74a2.16,2.16,0,0,0-1.27-.34,2,2,0,0,0-.43,0,1.08,1.08,0,0,0-.38.15.7.7,0,0,0-.38.65.72.72,0,0,0,.08.37,1,1,0,0,0,.23.29,3.13,3.13,0,0,0,.38.25l.52.26c.2.1.39.2.57.31a2.2,2.2,0,0,1,.47.37,1.54,1.54,0,0,1,.33.44,1.2,1.2,0,0,1,.12.55,1.37,1.37,0,0,1-.17.7,1.22,1.22,0,0,1-.43.47,1.92,1.92,0,0,1-.64.26,3.69,3.69,0,0,1-.76.08l-.32,0c-.14,0-.27,0-.4-.06l-.39-.1A1.58,1.58,0,0,1,5.84,35.18Z"/><path d="M13.48,33.57H10.66a1.49,1.49,0,0,0,.36,1A1.24,1.24,0,0,0,12,35a2,2,0,0,0,1.24-.44v.6a2.34,2.34,0,0,1-1.39.38A1.68,1.68,0,0,1,10.48,35,2.23,2.23,0,0,1,10,33.42a2.2,2.2,0,0,1,.53-1.52,1.72,1.72,0,0,1,1.32-.59,1.49,1.49,0,0,1,1.21.51,2.1,2.1,0,0,1,.43,1.41ZM12.83,33a1.38,1.38,0,0,0-.27-.86.94.94,0,0,0-.73-.31,1,1,0,0,0-.77.33,1.35,1.35,0,0,0-.39.84Z"/><path d="M17.86,35.09c0,1.47-.7,2.2-2.11,2.2A2.79,2.79,0,0,1,14.46,37v-.64a2.65,2.65,0,0,0,1.29.37c1,0,1.47-.52,1.47-1.57v-.43h0a1.51,1.51,0,0,1-1.38.76,1.53,1.53,0,0,1-1.2-.53,2.15,2.15,0,0,1-.45-1.43,2.47,2.47,0,0,1,.49-1.62A1.6,1.6,0,0,1,16,31.31a1.31,1.31,0,0,1,1.2.65h0v-.55h.64Zm-.64-1.49V33a1.13,1.13,0,0,0-.32-.82,1.07,1.07,0,0,0-.8-.34,1.12,1.12,0,0,0-.93.43,1.91,1.91,0,0,0-.34,1.21,1.63,1.63,0,0,0,.33,1.07A1,1,0,0,0,16,35a1.14,1.14,0,0,0,.88-.38A1.45,1.45,0,0,0,17.22,33.6Z"/><path d="M21.25,32.06a.77.77,0,0,0-.49-.13.82.82,0,0,0-.68.38,1.75,1.75,0,0,0-.28,1.06v2h-.64v-4h.64v.82h0a1.4,1.4,0,0,1,.42-.66,1,1,0,0,1,.62-.23,1,1,0,0,1,.39.05Z"/><path d="M25.16,33.57H22.33a1.49,1.49,0,0,0,.36,1,1.26,1.26,0,0,0,.95.36,2,2,0,0,0,1.24-.44v.6a2.36,2.36,0,0,1-1.39.38A1.72,1.72,0,0,1,22.15,35a2.27,2.27,0,0,1-.48-1.54,2.2,2.2,0,0,1,.53-1.52,1.7,1.7,0,0,1,1.31-.59,1.51,1.51,0,0,1,1.22.51,2.16,2.16,0,0,1,.43,1.41ZM24.5,33a1.27,1.27,0,0,0-.27-.86.92.92,0,0,0-.73-.31,1,1,0,0,0-.77.33,1.47,1.47,0,0,0-.39.84Z"/><path d="M29.54,35.41H28.9v-.68h0a1.47,1.47,0,0,1-1.37.77A1.5,1.5,0,0,1,26.3,35a2.18,2.18,0,0,1-.45-1.46,2.42,2.42,0,0,1,.5-1.59,1.66,1.66,0,0,1,1.33-.6,1.29,1.29,0,0,1,1.2.65h0V29.49h.64ZM28.9,33.6V33a1.16,1.16,0,0,0-.32-.82,1.06,1.06,0,0,0-.81-.34,1.15,1.15,0,0,0-.93.43,1.91,1.91,0,0,0-.33,1.19,1.72,1.72,0,0,0,.32,1.09,1,1,0,0,0,.87.4,1.14,1.14,0,0,0,.87-.38A1.47,1.47,0,0,0,28.9,33.6Z"/><path d="M32.51,35.5a1.89,1.89,0,0,1-1.42-.56,2.09,2.09,0,0,1-.53-1.49,2.19,2.19,0,0,1,.55-1.57,2,2,0,0,1,1.49-.57,1.83,1.83,0,0,1,1.4.55,2.22,2.22,0,0,1,.5,1.53A2.13,2.13,0,0,1,34,34.92,1.87,1.87,0,0,1,32.51,35.5Zm.05-3.65a1.21,1.21,0,0,0-1,.42,1.73,1.73,0,0,0-.36,1.16,1.64,1.64,0,0,0,.36,1.12,1.23,1.23,0,0,0,1,.41,1.16,1.16,0,0,0,.95-.4,1.76,1.76,0,0,0,.33-1.14,1.8,1.8,0,0,0-.33-1.16A1.16,1.16,0,0,0,32.56,31.85Z"/><path d="M5.84,112.35v-.77a1.48,1.48,0,0,0,.32.21,2.27,2.27,0,0,0,.39.16,3.06,3.06,0,0,0,.41.1l.38,0a1.51,1.51,0,0,0,.91-.22.77.77,0,0,0,.3-.65.81.81,0,0,0-.1-.39,1.16,1.16,0,0,0-.28-.31,2.23,2.23,0,0,0-.41-.26L7.24,110l-.55-.3a2.56,2.56,0,0,1-.44-.34,1.46,1.46,0,0,1-.29-.41,1.2,1.2,0,0,1-.11-.55,1.24,1.24,0,0,1,.17-.67,1.48,1.48,0,0,1,.44-.46,2.06,2.06,0,0,1,.62-.28,2.82,2.82,0,0,1,.71-.09,2.75,2.75,0,0,1,1.21.2v.74a2.16,2.16,0,0,0-1.27-.34,2,2,0,0,0-.43,0,1.08,1.08,0,0,0-.38.15.78.78,0,0,0-.28.26.71.71,0,0,0-.1.39.72.72,0,0,0,.08.37.89.89,0,0,0,.23.29,3.13,3.13,0,0,0,.38.25l.52.26c.2.1.39.21.57.32a2.53,2.53,0,0,1,.47.36,1.54,1.54,0,0,1,.33.44,1.25,1.25,0,0,1,.12.56,1.39,1.39,0,0,1-.17.7,1.26,1.26,0,0,1-.43.46,1.92,1.92,0,0,1-.64.26,3.11,3.11,0,0,1-.76.08,2,2,0,0,1-.32,0,2.57,2.57,0,0,1-.4-.06l-.39-.1A1.12,1.12,0,0,1,5.84,112.35Z"/><path d="M13.48,110.74H10.66a1.47,1.47,0,0,0,.36,1,1.24,1.24,0,0,0,.94.36,1.92,1.92,0,0,0,1.24-.44v.6a2.27,2.27,0,0,1-1.39.38,1.68,1.68,0,0,1-1.33-.54A2.2,2.2,0,0,1,10,110.6a2.22,2.22,0,0,1,.53-1.53,1.71,1.71,0,0,1,1.32-.58,1.51,1.51,0,0,1,1.21.5,2.1,2.1,0,0,1,.43,1.41Zm-.65-.54a1.41,1.41,0,0,0-.27-.87.93.93,0,0,0-.73-.3,1,1,0,0,0-.77.32,1.38,1.38,0,0,0-.39.85Z"/><path d="M17.86,112.26c0,1.47-.7,2.2-2.11,2.2a2.79,2.79,0,0,1-1.29-.28v-.64a2.67,2.67,0,0,0,1.29.38c1,0,1.47-.53,1.47-1.57v-.44h0a1.63,1.63,0,0,1-2.58.23,2.13,2.13,0,0,1-.45-1.43,2.47,2.47,0,0,1,.49-1.62,1.62,1.62,0,0,1,1.34-.6,1.3,1.3,0,0,1,1.2.64h0v-.55h.64Zm-.64-1.49v-.59a1.09,1.09,0,0,0-.32-.81,1,1,0,0,0-.8-.34,1.1,1.1,0,0,0-.93.43,1.87,1.87,0,0,0-.34,1.21,1.6,1.6,0,0,0,.33,1.06,1,1,0,0,0,.85.4,1.11,1.11,0,0,0,.88-.38A1.43,1.43,0,0,0,17.22,110.77Z"/><path d="M21.25,109.23a.77.77,0,0,0-.49-.13.81.81,0,0,0-.68.39,1.72,1.72,0,0,0-.28,1.05v2h-.64v-4h.64v.82h0a1.32,1.32,0,0,1,.42-.65.91.91,0,0,1,.62-.24,1.27,1.27,0,0,1,.39,0Z"/><path d="M25.16,110.74H22.33a1.47,1.47,0,0,0,.36,1,1.26,1.26,0,0,0,.95.36,1.94,1.94,0,0,0,1.24-.44v.6a2.29,2.29,0,0,1-1.39.38,1.72,1.72,0,0,1-1.34-.54,2.57,2.57,0,0,1,.05-3.06,1.69,1.69,0,0,1,1.31-.58,1.53,1.53,0,0,1,1.22.5,2.16,2.16,0,0,1,.43,1.41Zm-.66-.54a1.29,1.29,0,0,0-.27-.87.91.91,0,0,0-.73-.3,1,1,0,0,0-.77.32,1.5,1.5,0,0,0-.39.85Z"/><path d="M29.54,112.58H28.9v-.68h0a1.45,1.45,0,0,1-1.37.77,1.53,1.53,0,0,1-1.21-.53,2.23,2.23,0,0,1-.45-1.47,2.42,2.42,0,0,1,.5-1.59,1.68,1.68,0,0,1,1.33-.59,1.28,1.28,0,0,1,1.2.64h0v-2.47h.64Zm-.64-1.81v-.59a1.16,1.16,0,0,0-.32-.82,1.09,1.09,0,0,0-.81-.33,1.12,1.12,0,0,0-.93.43,1.88,1.88,0,0,0-.33,1.18,1.7,1.7,0,0,0,.32,1.09,1,1,0,0,0,.87.4,1.1,1.1,0,0,0,.87-.38A1.47,1.47,0,0,0,28.9,110.77Z"/><path d="M32.51,112.67a1.85,1.85,0,0,1-1.42-.56,2.08,2.08,0,0,1-.53-1.48,2.22,2.22,0,0,1,.55-1.58,2,2,0,0,1,1.49-.56A1.79,1.79,0,0,1,34,109a2.51,2.51,0,0,1,0,3.06A1.9,1.9,0,0,1,32.51,112.67Zm.05-3.64a1.21,1.21,0,0,0-1,.42,1.69,1.69,0,0,0-.36,1.15,1.62,1.62,0,0,0,.36,1.12,1.23,1.23,0,0,0,1,.41,1.16,1.16,0,0,0,.95-.4,1.76,1.76,0,0,0,.33-1.14,1.8,1.8,0,0,0-.33-1.16A1.16,1.16,0,0,0,32.56,109Z"/><path d="M5.84,183.15v-.77a3,3,0,0,0,.32.21,2.26,2.26,0,0,0,.39.15,2,2,0,0,0,.41.1,1.82,1.82,0,0,0,.38,0,1.5,1.5,0,0,0,.91-.23.75.75,0,0,0,.3-.64.88.88,0,0,0-.1-.4,1.13,1.13,0,0,0-.28-.3,2.24,2.24,0,0,0-.41-.27l-.52-.27-.55-.3a2.53,2.53,0,0,1-.44-.33,1.5,1.5,0,0,1-.29-.42,1.16,1.16,0,0,1-.11-.54,1.22,1.22,0,0,1,.17-.67,1.52,1.52,0,0,1,.44-.47,2,2,0,0,1,.62-.27,2.82,2.82,0,0,1,.71-.09,2.75,2.75,0,0,1,1.21.2v.74a2.17,2.17,0,0,0-1.27-.35,2,2,0,0,0-.43,0,1.31,1.31,0,0,0-.38.14.81.81,0,0,0-.28.27.67.67,0,0,0-.1.39.75.75,0,0,0,.08.37.86.86,0,0,0,.23.28,2.27,2.27,0,0,0,.38.25l.52.27c.2.1.39.2.57.31a2.53,2.53,0,0,1,.47.36,1.73,1.73,0,0,1,.33.45,1.2,1.2,0,0,1,.12.55,1.37,1.37,0,0,1-.17.7,1.29,1.29,0,0,1-.43.47,1.92,1.92,0,0,1-.64.26,3.69,3.69,0,0,1-.76.08l-.32,0-.4-.07a2.22,2.22,0,0,1-.39-.1A1.13,1.13,0,0,1,5.84,183.15Z"/><path d="M13.48,181.54H10.66a1.51,1.51,0,0,0,.36,1,1.24,1.24,0,0,0,.94.36,1.93,1.93,0,0,0,1.24-.45v.61a2.34,2.34,0,0,1-1.39.38,1.66,1.66,0,0,1-1.33-.55,2.54,2.54,0,0,1,0-3,1.72,1.72,0,0,1,1.32-.59,1.49,1.49,0,0,1,1.21.51,2.1,2.1,0,0,1,.43,1.41Zm-.65-.55a1.36,1.36,0,0,0-.27-.86.9.9,0,0,0-.73-.31,1,1,0,0,0-.77.32,1.38,1.38,0,0,0-.39.85Z"/><path d="M17.86,183.05c0,1.47-.7,2.21-2.11,2.21a2.92,2.92,0,0,1-1.29-.28v-.64a2.65,2.65,0,0,0,1.29.37c1,0,1.47-.52,1.47-1.57v-.44h0a1.52,1.52,0,0,1-1.38.77,1.53,1.53,0,0,1-1.2-.53,2.18,2.18,0,0,1-.45-1.44,2.47,2.47,0,0,1,.49-1.62,1.62,1.62,0,0,1,1.34-.6,1.31,1.31,0,0,1,1.2.65h0v-.55h.64Zm-.64-1.48V181a1.13,1.13,0,0,0-.32-.82,1,1,0,0,0-.8-.34,1.1,1.1,0,0,0-.93.43,1.89,1.89,0,0,0-.34,1.21,1.63,1.63,0,0,0,.33,1.07,1,1,0,0,0,.85.4,1.14,1.14,0,0,0,.88-.38A1.47,1.47,0,0,0,17.22,181.57Z"/><path d="M21.25,180a.84.84,0,0,0-.49-.13.81.81,0,0,0-.68.39,1.75,1.75,0,0,0-.28,1.06v2h-.64v-4h.64v.82h0a1.4,1.4,0,0,1,.42-.66.91.91,0,0,1,.62-.24,1,1,0,0,1,.39.06Z"/><path d="M25.16,181.54H22.33a1.51,1.51,0,0,0,.36,1,1.26,1.26,0,0,0,.95.36,2,2,0,0,0,1.24-.45v.61a2.36,2.36,0,0,1-1.39.38,1.69,1.69,0,0,1-1.34-.55,2.23,2.23,0,0,1-.48-1.53,2.2,2.2,0,0,1,.53-1.52,1.7,1.7,0,0,1,1.31-.59,1.51,1.51,0,0,1,1.22.51,2.16,2.16,0,0,1,.43,1.41ZM24.5,181a1.25,1.25,0,0,0-.27-.86.89.89,0,0,0-.73-.31,1.06,1.06,0,0,0-.77.32,1.5,1.5,0,0,0-.39.85Z"/><path d="M29.54,183.38H28.9v-.68h0a1.47,1.47,0,0,1-1.37.77,1.5,1.5,0,0,1-1.21-.54,2.2,2.2,0,0,1-.45-1.46,2.42,2.42,0,0,1,.5-1.59,1.66,1.66,0,0,1,1.33-.6,1.29,1.29,0,0,1,1.2.65h0v-2.48h.64Zm-.64-1.81V181a1.14,1.14,0,0,0-.32-.82,1.06,1.06,0,0,0-.81-.34,1.12,1.12,0,0,0-.93.43,1.91,1.91,0,0,0-.33,1.19,1.72,1.72,0,0,0,.32,1.09,1,1,0,0,0,.87.4,1.11,1.11,0,0,0,.87-.39A1.43,1.43,0,0,0,28.9,181.57Z"/><path d="M32.51,183.47a1.89,1.89,0,0,1-1.42-.56,2.09,2.09,0,0,1-.53-1.49,2.19,2.19,0,0,1,.55-1.57,2,2,0,0,1,1.49-.57,1.79,1.79,0,0,1,1.4.55,2.22,2.22,0,0,1,.5,1.53,2.13,2.13,0,0,1-.54,1.53A1.87,1.87,0,0,1,32.51,183.47Zm.05-3.65a1.21,1.21,0,0,0-1,.42,1.73,1.73,0,0,0-.36,1.16,1.64,1.64,0,0,0,.36,1.12,1.27,1.27,0,0,0,1,.41,1.16,1.16,0,0,0,.95-.4,2.17,2.17,0,0,0,0-2.3A1.16,1.16,0,0,0,32.56,179.82Z"/><path d="M47.8,193.3h-.73l-.59-1.57H44.11l-.56,1.57h-.73L45,187.7h.68Zm-1.53-2.16-.88-2.39a2.21,2.21,0,0,1-.09-.37h0a3.37,3.37,0,0,1-.09.37l-.88,2.39Z"/><path d="M49.28,191.18v2.12h-.65v-5.6h1.53a2.06,2.06,0,0,1,1.4.43,1.57,1.57,0,0,1,.49,1.24,1.68,1.68,0,0,1-.55,1.3,2.08,2.08,0,0,1-1.48.51Zm0-2.89v2.3H50a1.59,1.59,0,0,0,1-.31,1.13,1.13,0,0,0,.35-.88c0-.74-.43-1.11-1.31-1.11Z"/><path d="M53.76,193.3h-.65v-5.6h.65Z"/><path d="M64.07,187.7l-1.59,5.6h-.77l-1.15-4.1a2.43,2.43,0,0,1-.09-.57h0a3.57,3.57,0,0,1-.1.57l-1.16,4.1h-.77l-1.64-5.6h.73L58.71,192a2.62,2.62,0,0,1,.09.56h0a3,3,0,0,1,.12-.56l1.24-4.29h.63L62,192a3.42,3.42,0,0,1,.09.53h0a2.87,2.87,0,0,1,.1-.54l1.15-4.31Z"/><path d="M67.71,191.46H64.89a1.49,1.49,0,0,0,.36,1,1.24,1.24,0,0,0,1,.36,2,2,0,0,0,1.24-.44v.6a2.37,2.37,0,0,1-1.4.38,1.7,1.7,0,0,1-1.33-.54,2.27,2.27,0,0,1-.48-1.54,2.15,2.15,0,0,1,.53-1.52,1.7,1.7,0,0,1,1.31-.59,1.52,1.52,0,0,1,1.22.51,2.16,2.16,0,0,1,.42,1.41Zm-.65-.55a1.27,1.27,0,0,0-.27-.86.89.89,0,0,0-.73-.31,1,1,0,0,0-.77.33,1.44,1.44,0,0,0-.39.84Z"/><path d="M69.34,192.72h0v.58h-.64v-5.92h.64V190h0a1.52,1.52,0,0,1,1.38-.8,1.46,1.46,0,0,1,1.21.54,2.23,2.23,0,0,1,.43,1.44,2.53,2.53,0,0,1-.48,1.61,1.65,1.65,0,0,1-1.34.6A1.31,1.31,0,0,1,69.34,192.72Zm0-1.61v.55a1.19,1.19,0,0,0,.33.85,1,1,0,0,0,.81.34,1.1,1.1,0,0,0,.92-.44,2.05,2.05,0,0,0,.33-1.24,1.64,1.64,0,0,0-.31-1,1,1,0,0,0-.84-.38,1.14,1.14,0,0,0-.9.39A1.46,1.46,0,0,0,69.32,191.11Z"/><path d="M75.66,193.3v-5.6h1.55c2,0,3,.91,3,2.73a2.75,2.75,0,0,1-.82,2.08,3.07,3.07,0,0,1-2.2.79Zm.66-5v4.41h.84a2.34,2.34,0,0,0,1.71-.59,2.2,2.2,0,0,0,.61-1.67c0-1.43-.76-2.15-2.28-2.15Z"/><path d="M84.05,193.3h-.64v-.63h0a1.32,1.32,0,0,1-1.23.72,1.27,1.27,0,0,1-.93-.32,1.08,1.08,0,0,1-.34-.84c0-.74.44-1.18,1.32-1.3l1.2-.17c0-.68-.27-1-.82-1a2,2,0,0,0-1.31.49v-.65a2.48,2.48,0,0,1,1.36-.38q1.41,0,1.41,1.5Zm-.64-2-1,.14a1.51,1.51,0,0,0-.68.22.73.73,0,0,0,0,1,.81.81,0,0,0,.55.18,1,1,0,0,0,.79-.33,1.2,1.2,0,0,0,.31-.85Z"/><path d="M88.47,191.46H85.65a1.49,1.49,0,0,0,.36,1,1.24,1.24,0,0,0,.94.36,2,2,0,0,0,1.25-.44v.6a2.39,2.39,0,0,1-1.4.38,1.7,1.7,0,0,1-1.33-.54,2.28,2.28,0,0,1-.49-1.54,2.2,2.2,0,0,1,.53-1.52,1.72,1.72,0,0,1,1.32-.59,1.49,1.49,0,0,1,1.21.51,2.1,2.1,0,0,1,.43,1.41Zm-.65-.55a1.38,1.38,0,0,0-.27-.86.9.9,0,0,0-.73-.31,1,1,0,0,0-.77.33,1.44,1.44,0,0,0-.39.84Z"/><path d="M95.12,193.3h-.64V191a1.81,1.81,0,0,0-.2-1,.78.78,0,0,0-.69-.3.85.85,0,0,0-.7.38,1.45,1.45,0,0,0-.29.9v2.28H92v-2.38c0-.79-.3-1.18-.91-1.18a.83.83,0,0,0-.69.36,1.4,1.4,0,0,0-.28.92v2.28h-.64v-4h.64v.63h0a1.37,1.37,0,0,1,1.24-.73,1.16,1.16,0,0,1,.71.23,1.07,1.07,0,0,1,.42.6,1.44,1.44,0,0,1,1.33-.83c.88,0,1.32.55,1.32,1.63Z"/><path d="M98,193.39a1.85,1.85,0,0,1-1.41-.56,2,2,0,0,1-.53-1.49,2.15,2.15,0,0,1,.55-1.57,2,2,0,0,1,1.49-.57,1.81,1.81,0,0,1,1.39.55,2.18,2.18,0,0,1,.51,1.53,2.13,2.13,0,0,1-.54,1.53A1.91,1.91,0,0,1,98,193.39Zm0-3.65a1.23,1.23,0,0,0-1,.42,1.73,1.73,0,0,0-.36,1.16,1.64,1.64,0,0,0,.37,1.12,1.23,1.23,0,0,0,1,.41,1.19,1.19,0,0,0,1-.4,2.17,2.17,0,0,0,0-2.3A1.2,1.2,0,0,0,98.05,189.74Z"/><path d="M104.34,193.3h-.64V191c0-.85-.31-1.28-.93-1.28a1,1,0,0,0-.8.36,1.4,1.4,0,0,0-.31.92v2.28H101v-4h.64V190h0a1.45,1.45,0,0,1,1.31-.76,1.19,1.19,0,0,1,1,.43,1.89,1.89,0,0,1,.35,1.22Z"/><path d="M184.73,115.57H184l-.59-1.57H181l-.56,1.57h-.73l2.14-5.61h.68Zm-1.53-2.16-.88-2.39a2.13,2.13,0,0,1-.09-.38h0a2,2,0,0,1-.08.38l-.88,2.39Z"/><path d="M185.88,115h0v2.42h-.64v-5.84h.64v.7h0a1.53,1.53,0,0,1,1.39-.8,1.44,1.44,0,0,1,1.2.54,2.23,2.23,0,0,1,.44,1.44,2.47,2.47,0,0,1-.49,1.61,1.64,1.64,0,0,1-1.34.6A1.35,1.35,0,0,1,185.88,115Zm0-1.61v.55a1.25,1.25,0,0,0,.32.85,1.16,1.16,0,0,0,1.73-.1,2.05,2.05,0,0,0,.33-1.24,1.58,1.58,0,0,0-.31-1,1,1,0,0,0-.83-.38,1.13,1.13,0,0,0-.9.39A1.41,1.41,0,0,0,185.87,113.38Z"/><path d="M190.33,115.57h-.64v-5.93h.64Z"/><path d="M191.72,110.55a.41.41,0,0,1-.3-.12.37.37,0,0,1-.12-.29.41.41,0,0,1,.42-.42.44.44,0,0,1,.3.12.41.41,0,0,1,.12.3.4.4,0,0,1-.12.29A.44.44,0,0,1,191.72,110.55Zm.31,5h-.64v-4H192Z"/><path d="M195.81,115.38a2,2,0,0,1-1.09.28,1.82,1.82,0,0,1-1.38-.56,2,2,0,0,1-.53-1.44,2.21,2.21,0,0,1,.57-1.59,2,2,0,0,1,1.51-.6,2.12,2.12,0,0,1,.93.2v.65a1.68,1.68,0,0,0-.95-.31,1.3,1.3,0,0,0-1,.44,1.68,1.68,0,0,0-.39,1.16,1.56,1.56,0,0,0,.37,1.1,1.24,1.24,0,0,0,1,.41,1.59,1.59,0,0,0,1-.35Z"/><path d="M199.41,115.57h-.65v-.63h0a1.46,1.46,0,0,1-2.17.4,1.11,1.11,0,0,1-.33-.84c0-.74.43-1.18,1.32-1.3l1.19-.17c0-.68-.27-1-.82-1a2,2,0,0,0-1.3.49v-.65a2.46,2.46,0,0,1,1.36-.38c.93,0,1.41.5,1.41,1.49Zm-.65-2-1,.14a1.46,1.46,0,0,0-.67.22.72.72,0,0,0,0,1,.82.82,0,0,0,.56.18,1,1,0,0,0,.78-.33,1.2,1.2,0,0,0,.31-.85Z"/><path d="M202.23,115.53a1.28,1.28,0,0,1-.6.12q-1,0-1-1.17v-2.37h-.69v-.54h.69v-1l.64-.21v1.19h1v.54h-1v2.26a.93.93,0,0,0,.14.57.52.52,0,0,0,.45.17.68.68,0,0,0,.42-.13Z"/><path d="M203.17,110.55a.4.4,0,0,1-.29-.12.37.37,0,0,1-.12-.29.41.41,0,0,1,.12-.3.4.4,0,0,1,.29-.12.41.41,0,0,1,.42.42.4.4,0,0,1-.12.29A.41.41,0,0,1,203.17,110.55Zm.31,5h-.64v-4h.64Z"/><path d="M207.69,111.57l-1.6,4h-.63l-1.51-4h.7l1,2.9a3.25,3.25,0,0,1,.14.56h0a2.67,2.67,0,0,1,.13-.54l1.06-2.92Z"/><path d="M209.8,115.66a1.85,1.85,0,0,1-1.41-.56,2.09,2.09,0,0,1-.53-1.49,2.15,2.15,0,0,1,.55-1.57,2,2,0,0,1,1.49-.57,1.81,1.81,0,0,1,1.39.55,2.18,2.18,0,0,1,.51,1.53,2.13,2.13,0,0,1-.54,1.53A1.91,1.91,0,0,1,209.8,115.66Zm0-3.65a1.19,1.19,0,0,0-1,.42,1.68,1.68,0,0,0-.36,1.16,1.64,1.64,0,0,0,.36,1.12,1.25,1.25,0,0,0,1,.41,1.18,1.18,0,0,0,1-.4,2.17,2.17,0,0,0,0-2.3A1.18,1.18,0,0,0,209.85,112Z"/><path d="M218,115.57h-.65v-.68h0a1.61,1.61,0,0,1-2.58.23,2.2,2.2,0,0,1-.45-1.46,2.37,2.37,0,0,1,.5-1.59,1.64,1.64,0,0,1,1.33-.6,1.29,1.29,0,0,1,1.2.65h0v-2.48H218Zm-.65-1.81v-.59a1.1,1.1,0,0,0-.32-.82,1,1,0,0,0-.81-.34,1.09,1.09,0,0,0-.92.43,1.91,1.91,0,0,0-.34,1.19,1.67,1.67,0,0,0,.33,1.09,1,1,0,0,0,.86.4,1.08,1.08,0,0,0,.87-.39A1.43,1.43,0,0,0,217.3,113.76Z"/><path d="M222.22,113.73h-2.83a1.49,1.49,0,0,0,.36,1,1.26,1.26,0,0,0,.95.36,2,2,0,0,0,1.24-.44v.6a2.36,2.36,0,0,1-1.39.38,1.72,1.72,0,0,1-1.34-.54,2.27,2.27,0,0,1-.48-1.54,2.2,2.2,0,0,1,.53-1.52,1.7,1.7,0,0,1,1.31-.59,1.51,1.51,0,0,1,1.22.51,2.16,2.16,0,0,1,.43,1.41Zm-.66-.55a1.27,1.27,0,0,0-.27-.86.89.89,0,0,0-.73-.31,1,1,0,0,0-.77.33,1.44,1.44,0,0,0-.39.84Z"/><path d="M185.28,125.17h-.72l-.6-1.57h-2.37l-.56,1.57h-.73l2.15-5.61h.68ZM183.75,123l-.88-2.39a2.13,2.13,0,0,1-.09-.38h0a3.1,3.1,0,0,1-.09.38l-.87,2.39Z"/><path d="M186.52,123.05v2.12h-.65v-5.61h1.54a2,2,0,0,1,1.39.44,1.57,1.57,0,0,1,.49,1.24,1.7,1.7,0,0,1-.54,1.3,2.11,2.11,0,0,1-1.49.51Zm0-2.89v2.3h.69a1.52,1.52,0,0,0,1-.32,1.07,1.07,0,0,0,.36-.87q0-1.11-1.32-1.11Z"/><path d="M190.77,125.17h-.66v-5.61h.66Z"/><path d="M194,125.17v-5.61h1.55c2,0,3,.91,3,2.73a2.76,2.76,0,0,1-.83,2.09,3.05,3.05,0,0,1-2.2.79Zm.66-5v4.41h.83a2.35,2.35,0,0,0,1.72-.59,2.2,2.2,0,0,0,.61-1.67c0-1.43-.76-2.15-2.29-2.15Z"/><path d="M202.1,125.17h-.64v-.63h0a1.46,1.46,0,0,1-2.17.4,1.11,1.11,0,0,1-.33-.84c0-.74.44-1.18,1.32-1.3l1.2-.17c0-.68-.28-1-.83-1a2,2,0,0,0-1.3.49v-.65a2.46,2.46,0,0,1,1.36-.38c.94,0,1.41.5,1.41,1.49Zm-.64-2-1,.14a1.46,1.46,0,0,0-.67.22.72.72,0,0,0,0,1,.84.84,0,0,0,.56.18,1,1,0,0,0,.78-.33,1.21,1.21,0,0,0,.32-.85Z"/><path d="M206.28,123.33h-2.83a1.49,1.49,0,0,0,.36,1,1.26,1.26,0,0,0,.95.36,2,2,0,0,0,1.24-.44v.6a2.36,2.36,0,0,1-1.39.38,1.69,1.69,0,0,1-1.34-.55,2.23,2.23,0,0,1-.48-1.53,2.2,2.2,0,0,1,.53-1.52,1.7,1.7,0,0,1,1.31-.59,1.51,1.51,0,0,1,1.22.51,2.16,2.16,0,0,1,.43,1.41Zm-.66-.55a1.27,1.27,0,0,0-.27-.86.89.89,0,0,0-.73-.31,1,1,0,0,0-.77.33,1.44,1.44,0,0,0-.39.84Z"/><path d="M212.69,125.17h-.64v-2.3a1.71,1.71,0,0,0-.21-1,.78.78,0,0,0-.69-.3.88.88,0,0,0-.7.38,1.43,1.43,0,0,0-.28.89v2.29h-.64v-2.38c0-.79-.31-1.18-.91-1.18a.85.85,0,0,0-.7.35,1.5,1.5,0,0,0-.27.92v2.29H207v-4h.64v.63h0a1.36,1.36,0,0,1,1.25-.73,1.16,1.16,0,0,1,.71.23,1.18,1.18,0,0,1,.42.6,1.43,1.43,0,0,1,1.33-.83c.88,0,1.32.55,1.32,1.63Z"/><path d="M215.33,125.26a1.89,1.89,0,0,1-1.42-.56,2.09,2.09,0,0,1-.53-1.49,2.19,2.19,0,0,1,.55-1.57,2,2,0,0,1,1.49-.57,1.81,1.81,0,0,1,1.4.55,2.22,2.22,0,0,1,.5,1.53,2.13,2.13,0,0,1-.54,1.53A1.87,1.87,0,0,1,215.33,125.26Zm0-3.65a1.21,1.21,0,0,0-1,.42,1.73,1.73,0,0,0-.36,1.16,1.64,1.64,0,0,0,.36,1.12,1.27,1.27,0,0,0,1,.41,1.16,1.16,0,0,0,1-.4,2.11,2.11,0,0,0,0-2.3A1.16,1.16,0,0,0,215.38,121.61Z"/><path d="M221.42,125.17h-.64v-2.29c0-.84-.31-1.27-.93-1.27a1,1,0,0,0-.79.36,1.34,1.34,0,0,0-.31.91v2.29h-.65v-4h.65v.66h0a1.45,1.45,0,0,1,1.31-.76,1.21,1.21,0,0,1,1,.43,1.89,1.89,0,0,1,.34,1.22Z"/><path d="M55.62,115.26H54.9l-.6-1.57H51.93l-.56,1.57h-.73l2.15-5.61h.68Zm-1.53-2.16-.88-2.39a2.13,2.13,0,0,1-.09-.38h0a3.1,3.1,0,0,1-.09.38l-.87,2.39Z"/><path d="M56.78,114.68h0v2.42h-.64v-5.84h.64v.7h0a1.51,1.51,0,0,1,1.38-.8,1.46,1.46,0,0,1,1.21.54,2.23,2.23,0,0,1,.43,1.44,2.47,2.47,0,0,1-.49,1.61,1.62,1.62,0,0,1-1.33.6A1.33,1.33,0,0,1,56.78,114.68Zm0-1.62v.56a1.17,1.17,0,0,0,.33.84,1,1,0,0,0,.81.35,1.1,1.1,0,0,0,.92-.44,2.05,2.05,0,0,0,.33-1.24,1.64,1.64,0,0,0-.31-1,1,1,0,0,0-.84-.38,1.14,1.14,0,0,0-.9.39A1.45,1.45,0,0,0,56.76,113.06Z"/><path d="M61.23,115.26h-.64v-5.93h.64Z"/><path d="M62.61,110.24a.4.4,0,0,1-.29-.12.38.38,0,0,1-.12-.29.41.41,0,0,1,.12-.3.4.4,0,0,1,.29-.12.41.41,0,0,1,.42.42.4.4,0,0,1-.12.29A.41.41,0,0,1,62.61,110.24Zm.31,5h-.64v-4h.64Z"/><path d="M66.71,115.07a2,2,0,0,1-1.1.28,1.82,1.82,0,0,1-1.38-.56,2,2,0,0,1-.52-1.44,2.25,2.25,0,0,1,.56-1.59,2,2,0,0,1,1.52-.6,2.12,2.12,0,0,1,.93.2V112a1.64,1.64,0,0,0-1-.31,1.28,1.28,0,0,0-1,.44,1.85,1.85,0,0,0,0,2.26,1.29,1.29,0,0,0,1,.41,1.64,1.64,0,0,0,1-.35Z"/><path d="M70.3,115.26h-.64v-.63h0a1.34,1.34,0,0,1-1.23.72,1.3,1.3,0,0,1-.93-.32,1.08,1.08,0,0,1-.34-.84c0-.74.44-1.18,1.32-1.3l1.2-.17c0-.68-.28-1-.83-1a2,2,0,0,0-1.3.49v-.65a2.48,2.48,0,0,1,1.36-.38c.94,0,1.41.5,1.41,1.49Zm-.64-2-1,.14a1.5,1.5,0,0,0-.67.22.63.63,0,0,0-.22.56.66.66,0,0,0,.2.48.84.84,0,0,0,.56.18,1,1,0,0,0,.79-.33,1.2,1.2,0,0,0,.31-.85Z"/><path d="M73.12,115.22a1.28,1.28,0,0,1-.6.12q-1,0-1-1.17V111.8h-.68v-.54h.68v-1l.64-.21v1.19h1v.54h-1v2.26a.93.93,0,0,0,.14.57.52.52,0,0,0,.45.17.66.66,0,0,0,.42-.13Z"/><path d="M74.07,110.24a.41.41,0,0,1-.3-.12.38.38,0,0,1-.12-.29.41.41,0,0,1,.42-.42.4.4,0,0,1,.29.12.38.38,0,0,1,.13.3.37.37,0,0,1-.13.29A.4.4,0,0,1,74.07,110.24Zm.31,5h-.64v-4h.64Z"/><path d="M78.58,111.26l-1.59,4h-.63l-1.52-4h.7l1,2.9a2.53,2.53,0,0,1,.14.56h0a2.14,2.14,0,0,1,.12-.54l1.06-2.92Z"/><path d="M80.7,115.35a1.89,1.89,0,0,1-1.42-.56,2.09,2.09,0,0,1-.53-1.49,2.19,2.19,0,0,1,.55-1.57,2,2,0,0,1,1.49-.57,1.83,1.83,0,0,1,1.4.55,2.22,2.22,0,0,1,.5,1.53,2.13,2.13,0,0,1-.54,1.53A1.87,1.87,0,0,1,80.7,115.35Zm0-3.65a1.21,1.21,0,0,0-1,.42,1.73,1.73,0,0,0-.36,1.16,1.64,1.64,0,0,0,.36,1.12,1.27,1.27,0,0,0,1,.41,1.16,1.16,0,0,0,1-.4,2.17,2.17,0,0,0,0-2.3A1.16,1.16,0,0,0,80.75,111.7Z"/><path d="M88.84,115.26H88.2v-.68h0a1.47,1.47,0,0,1-1.37.77,1.5,1.5,0,0,1-1.21-.54,2.2,2.2,0,0,1-.45-1.46,2.42,2.42,0,0,1,.5-1.59,1.66,1.66,0,0,1,1.33-.6,1.29,1.29,0,0,1,1.2.65h0v-2.48h.64Zm-.64-1.81v-.59a1.14,1.14,0,0,0-.32-.82,1.06,1.06,0,0,0-.81-.34,1.12,1.12,0,0,0-.93.43,1.91,1.91,0,0,0-.33,1.19,1.72,1.72,0,0,0,.32,1.09,1,1,0,0,0,.87.4,1.11,1.11,0,0,0,.87-.39A1.43,1.43,0,0,0,88.2,113.45Z"/><path d="M92.76,115.26h-.64v-.63h0a1.45,1.45,0,0,1-2.16.4,1.08,1.08,0,0,1-.34-.84c0-.74.44-1.18,1.32-1.3l1.2-.17c0-.68-.28-1-.82-1a2,2,0,0,0-1.31.49v-.65a2.48,2.48,0,0,1,1.36-.38c.94,0,1.41.5,1.41,1.49Zm-.64-2-1,.14a1.5,1.5,0,0,0-.67.22.73.73,0,0,0,0,1,.79.79,0,0,0,.55.18,1,1,0,0,0,.79-.33,1.2,1.2,0,0,0,.31-.85Z"/><path d="M49.33,124.86H48.6L48,123.29H45.63l-.56,1.57h-.73l2.15-5.61h.68Zm-1.54-2.16-.88-2.39a1.6,1.6,0,0,1-.08-.38h0a3.1,3.1,0,0,1-.09.38l-.87,2.39Zm-.15-5.24-1,1.28h-.5l.87-1.28Z"/><path d="M51.91,121.5a.81.81,0,0,0-.48-.12.8.8,0,0,0-.69.38,1.83,1.83,0,0,0-.28,1.06v2h-.64v-4h.64v.82h0a1.4,1.4,0,0,1,.42-.66.94.94,0,0,1,.63-.23,1,1,0,0,1,.38,0Z"/><path d="M55.58,123H52.76a1.51,1.51,0,0,0,.36,1,1.22,1.22,0,0,0,.94.36A1.93,1.93,0,0,0,55.3,124v.61a2.34,2.34,0,0,1-1.39.38,1.66,1.66,0,0,1-1.33-.55,2.54,2.54,0,0,1,0-3.05,1.7,1.7,0,0,1,1.32-.59,1.5,1.5,0,0,1,1.21.51,2.1,2.1,0,0,1,.43,1.41Zm-.66-.55a1.32,1.32,0,0,0-.26-.86.91.91,0,0,0-.74-.31,1,1,0,0,0-.77.33,1.44,1.44,0,0,0-.39.84Z"/><path d="M59.17,124.86h-.64v-.63h0a1.46,1.46,0,0,1-2.17.4,1.11,1.11,0,0,1-.34-.84c0-.74.44-1.18,1.32-1.3l1.2-.17c0-.68-.27-1-.82-1a2,2,0,0,0-1.31.49v-.65a2.51,2.51,0,0,1,1.36-.38c.94,0,1.41.5,1.41,1.49Zm-.64-2-1,.13a1.58,1.58,0,0,0-.67.23.61.61,0,0,0-.23.56.59.59,0,0,0,.21.47.77.77,0,0,0,.55.19,1,1,0,0,0,.79-.33,1.2,1.2,0,0,0,.31-.85Z"/><path d="M65.5,124.86h-.64v-.68h0a1.61,1.61,0,0,1-2.58.23,2.2,2.2,0,0,1-.45-1.46,2.37,2.37,0,0,1,.5-1.59,1.63,1.63,0,0,1,1.33-.6,1.29,1.29,0,0,1,1.2.65h0v-2.48h.64Zm-.64-1.81v-.59a1.1,1.1,0,0,0-.32-.82,1,1,0,0,0-.81-.34,1.09,1.09,0,0,0-.92.43,1.91,1.91,0,0,0-.34,1.19A1.67,1.67,0,0,0,62.8,124a1,1,0,0,0,.86.4,1.08,1.08,0,0,0,.87-.39A1.43,1.43,0,0,0,64.86,123.05Z"/><path d="M69.78,123H67a1.51,1.51,0,0,0,.36,1,1.26,1.26,0,0,0,1,.36A2,2,0,0,0,69.5,124v.61a2.37,2.37,0,0,1-1.4.38,1.69,1.69,0,0,1-1.33-.55,2.23,2.23,0,0,1-.48-1.53,2.15,2.15,0,0,1,.53-1.52,1.7,1.7,0,0,1,1.31-.59,1.51,1.51,0,0,1,1.22.51,2.16,2.16,0,0,1,.43,1.41Zm-.66-.55a1.27,1.27,0,0,0-.27-.86.89.89,0,0,0-.73-.31,1,1,0,0,0-.77.33,1.44,1.44,0,0,0-.39.84Z"/><path d="M74.31,124.82a1.28,1.28,0,0,1-.6.12q-1,0-1-1.17V121.4H72v-.54h.68v-1l.64-.21v1.19h1v.54h-1v2.26a.93.93,0,0,0,.14.57.52.52,0,0,0,.45.17.64.64,0,0,0,.42-.13Z"/><path d="M77,121.5a.81.81,0,0,0-.48-.12.82.82,0,0,0-.69.38,1.83,1.83,0,0,0-.27,1.06v2h-.64v-4h.64v.82h0A1.48,1.48,0,0,1,76,121a1.11,1.11,0,0,1,1-.18Z"/><path d="M80.33,124.86h-.64v-.63h0a1.46,1.46,0,0,1-2.17.4,1.11,1.11,0,0,1-.34-.84c0-.74.44-1.18,1.32-1.3l1.2-.17c0-.68-.27-1-.82-1a2,2,0,0,0-1.31.49v-.65a2.51,2.51,0,0,1,1.36-.38c.94,0,1.41.5,1.41,1.49Zm-.64-2-1,.13a1.58,1.58,0,0,0-.67.23.61.61,0,0,0-.23.56.59.59,0,0,0,.21.47.77.77,0,0,0,.55.19,1,1,0,0,0,.79-.33,1.2,1.2,0,0,0,.31-.85Z"/><path d="M82,124.28h0v.58H81.3v-5.93h.64v2.63h0a1.51,1.51,0,0,1,1.38-.8,1.46,1.46,0,0,1,1.2.54,2.23,2.23,0,0,1,.44,1.44,2.47,2.47,0,0,1-.49,1.61,1.62,1.62,0,0,1-1.34.6A1.3,1.3,0,0,1,82,124.28Zm0-1.62v.56a1.2,1.2,0,0,0,.32.84,1.09,1.09,0,0,0,.82.35A1.06,1.06,0,0,0,84,124a2,2,0,0,0,.33-1.23,1.58,1.58,0,0,0-.31-1,1,1,0,0,0-.83-.38,1.14,1.14,0,0,0-.9.39A1.4,1.4,0,0,0,81.94,122.66Z"/><path d="M88.63,124.86H88v-.63h0a1.46,1.46,0,0,1-2.17.4,1.11,1.11,0,0,1-.33-.84c0-.74.44-1.18,1.32-1.3l1.2-.17c0-.68-.28-1-.83-1a1.93,1.93,0,0,0-1.3.49v-.65a2.46,2.46,0,0,1,1.36-.38c.94,0,1.41.5,1.41,1.49Zm-.64-2L87,123a1.58,1.58,0,0,0-.67.23.63.63,0,0,0-.23.56.59.59,0,0,0,.21.47.79.79,0,0,0,.56.19,1,1,0,0,0,.78-.33,1.21,1.21,0,0,0,.32-.85Z"/><path d="M90.23,124.86h-.64v-5.93h.64Z"/><path d="M94.61,124.86H94v-2.31c0-.83-.31-1.25-.93-1.25a1,1,0,0,0-.79.36,1.36,1.36,0,0,0-.32.93v2.27h-.64v-5.93h.64v2.59h0a1.43,1.43,0,0,1,1.31-.76c.9,0,1.35.54,1.35,1.63Z"/><path d="M97.25,125a1.89,1.89,0,0,1-1.42-.56,2.09,2.09,0,0,1-.53-1.49,2.19,2.19,0,0,1,.55-1.57,2,2,0,0,1,1.49-.57,1.81,1.81,0,0,1,1.4.55,2.22,2.22,0,0,1,.5,1.53,2.13,2.13,0,0,1-.54,1.53A1.87,1.87,0,0,1,97.25,125Zm0-3.65a1.21,1.21,0,0,0-1,.42,1.73,1.73,0,0,0-.36,1.16,1.64,1.64,0,0,0,.36,1.12,1.27,1.27,0,0,0,1,.41,1.16,1.16,0,0,0,1-.4,2.11,2.11,0,0,0,0-2.3A1.16,1.16,0,0,0,97.3,121.3Z"/><path d="M58.29,134.46v-5.61h1.54c2,0,3,.91,3,2.73a2.76,2.76,0,0,1-.82,2.09,3.07,3.07,0,0,1-2.2.79Zm.65-5v4.41h.84a2.34,2.34,0,0,0,1.71-.59,2.2,2.2,0,0,0,.62-1.67c0-1.43-.77-2.15-2.29-2.15Z"/><path d="M66.43,134.46h-.64v-.63h0a1.46,1.46,0,0,1-2.17.4,1.11,1.11,0,0,1-.34-.84c0-.74.44-1.18,1.32-1.3l1.2-.17c0-.68-.27-1-.82-1a2,2,0,0,0-1.31.49v-.65a2.51,2.51,0,0,1,1.36-.38c.94,0,1.41.5,1.41,1.49Zm-.64-2-1,.14a1.46,1.46,0,0,0-.67.22.61.61,0,0,0-.23.56.63.63,0,0,0,.21.48.81.81,0,0,0,.55.18,1,1,0,0,0,.79-.33,1.2,1.2,0,0,0,.31-.85Z"/><path d="M70.61,132.62H67.79a1.49,1.49,0,0,0,.36,1,1.24,1.24,0,0,0,.95.36,2,2,0,0,0,1.24-.44v.6a2.37,2.37,0,0,1-1.4.38,1.67,1.67,0,0,1-1.33-.55,2.23,2.23,0,0,1-.48-1.53,2.15,2.15,0,0,1,.53-1.52,1.7,1.7,0,0,1,1.31-.59,1.52,1.52,0,0,1,1.22.51,2.16,2.16,0,0,1,.42,1.41Zm-.65-.55a1.27,1.27,0,0,0-.27-.86.89.89,0,0,0-.73-.31,1,1,0,0,0-.77.33,1.44,1.44,0,0,0-.39.84Z"/><path d="M77,134.46h-.64v-2.3a1.81,1.81,0,0,0-.2-1,.78.78,0,0,0-.69-.3.85.85,0,0,0-.7.38,1.44,1.44,0,0,0-.29.89v2.29h-.64v-2.38c0-.79-.3-1.18-.91-1.18a.84.84,0,0,0-.69.35,1.5,1.5,0,0,0-.28.92v2.29h-.64v-4H72v.63h0a1.35,1.35,0,0,1,1.24-.73,1.19,1.19,0,0,1,.72.23,1.11,1.11,0,0,1,.41.6,1.44,1.44,0,0,1,1.33-.83c.88,0,1.32.55,1.32,1.63Z"/><path d="M79.67,134.55a1.86,1.86,0,0,1-1.42-.56,2.09,2.09,0,0,1-.53-1.49,2.15,2.15,0,0,1,.55-1.57,2,2,0,0,1,1.49-.57,1.83,1.83,0,0,1,1.4.55,2.22,2.22,0,0,1,.5,1.53,2.13,2.13,0,0,1-.54,1.53A1.88,1.88,0,0,1,79.67,134.55Zm0-3.65a1.21,1.21,0,0,0-1,.42,1.73,1.73,0,0,0-.36,1.16,1.64,1.64,0,0,0,.36,1.12,1.25,1.25,0,0,0,1,.41,1.16,1.16,0,0,0,1-.4,2.17,2.17,0,0,0,0-2.3A1.17,1.17,0,0,0,79.71,130.9Z"/><path d="M85.76,134.46h-.64v-2.29c0-.84-.31-1.27-.93-1.27a1,1,0,0,0-.79.36,1.35,1.35,0,0,0-.32.91v2.29h-.64v-4h.64v.66h0a1.43,1.43,0,0,1,1.31-.76,1.19,1.19,0,0,1,1,.43,1.83,1.83,0,0,1,.35,1.22Z"/><path d="M52.37,40.06h-.73l-.59-1.57H48.67l-.56,1.57h-.73l2.15-5.6h.68ZM50.83,37.9,50,35.52a2.64,2.64,0,0,1-.08-.38h0a1.94,1.94,0,0,1-.09.38l-.87,2.38Z"/><path d="M53.52,39.49h0V41.9h-.65V36.06h.65v.71h0A1.53,1.53,0,0,1,54.9,36a1.46,1.46,0,0,1,1.21.54A2.23,2.23,0,0,1,56.54,38a2.53,2.53,0,0,1-.48,1.61,1.64,1.64,0,0,1-1.34.6A1.35,1.35,0,0,1,53.52,39.49Zm0-1.62v.56a1.16,1.16,0,0,0,.32.84,1.14,1.14,0,0,0,1.73-.1,2,2,0,0,0,.33-1.23,1.58,1.58,0,0,0-.31-1,1,1,0,0,0-.84-.38,1.11,1.11,0,0,0-.89.39A1.4,1.4,0,0,0,53.51,37.87Z"/><path d="M58,40.06h-.64V34.14H58Z"/><path d="M59.35,35.05a.41.41,0,0,1-.41-.41.41.41,0,0,1,.12-.3.4.4,0,0,1,.29-.12.41.41,0,0,1,.3.12.42.42,0,0,1,.13.3.43.43,0,0,1-.43.41Zm.32,5H59v-4h.64Z"/><path d="M63.45,39.88a2,2,0,0,1-1.09.28A1.82,1.82,0,0,1,61,39.6a2,2,0,0,1-.53-1.44A2.21,2.21,0,0,1,61,36.57a2,2,0,0,1,1.51-.6,2.12,2.12,0,0,1,.93.2v.65a1.64,1.64,0,0,0-1-.31,1.3,1.3,0,0,0-1,.44,1.67,1.67,0,0,0-.39,1.15,1.57,1.57,0,0,0,.37,1.11,1.26,1.26,0,0,0,1,.41,1.63,1.63,0,0,0,1-.35Z"/><path d="M67,40.06H66.4v-.62h0a1.35,1.35,0,0,1-1.24.72,1.31,1.31,0,0,1-.93-.32,1.08,1.08,0,0,1-.34-.84c0-.75.44-1.18,1.32-1.3l1.2-.17c0-.68-.27-1-.82-1a2,2,0,0,0-1.31.49v-.65A2.51,2.51,0,0,1,65.63,36c.94,0,1.41.5,1.41,1.49Zm-.64-2-1,.13a1.68,1.68,0,0,0-.68.23.63.63,0,0,0-.22.56.59.59,0,0,0,.21.47.77.77,0,0,0,.55.19,1,1,0,0,0,.79-.33,1.2,1.2,0,0,0,.31-.85Z"/><path d="M69.86,40a1.26,1.26,0,0,1-.59.12q-1,0-1-1.17V36.61h-.69v-.55h.69v-1l.64-.21v1.18h1v.55h-1v2.26a.94.94,0,0,0,.13.57.57.57,0,0,0,.46.17.63.63,0,0,0,.41-.13Z"/><path d="M70.81,35.05a.42.42,0,0,1-.3-.12.4.4,0,0,1-.12-.29.41.41,0,0,1,.12-.3.42.42,0,0,1,.3-.12.44.44,0,0,1,.3.12.41.41,0,0,1,.12.3.4.4,0,0,1-.12.29A.44.44,0,0,1,70.81,35.05Zm.31,5h-.64v-4h.64Z"/><path d="M75.32,36.06l-1.59,4H73.1l-1.52-4h.71l1,2.91a2.4,2.4,0,0,1,.14.56h0a2.69,2.69,0,0,1,.12-.54l1.07-2.93Z"/><path d="M77.44,40.16A1.89,1.89,0,0,1,76,39.6a2.1,2.1,0,0,1-.52-1.49,2.15,2.15,0,0,1,.55-1.57A2,2,0,0,1,77.53,36a1.78,1.78,0,0,1,1.4.55,2.17,2.17,0,0,1,.5,1.53,2.13,2.13,0,0,1-.54,1.53A1.87,1.87,0,0,1,77.44,40.16Zm0-3.65a1.23,1.23,0,0,0-1,.42,1.73,1.73,0,0,0-.36,1.16,1.59,1.59,0,0,0,.37,1.12,1.23,1.23,0,0,0,1,.41,1.16,1.16,0,0,0,1-.4,2.11,2.11,0,0,0,0-2.3A1.16,1.16,0,0,0,77.49,36.51Z"/><path d="M88.89,34.46l-1.58,5.6h-.77L85.39,36a2.43,2.43,0,0,1-.09-.57h0a2.64,2.64,0,0,1-.11.56L84,40.06h-.76l-1.64-5.6h.72l1.2,4.3a3.44,3.44,0,0,1,.09.56h0a2.85,2.85,0,0,1,.12-.56L85,34.46h.63l1.18,4.33a2.4,2.4,0,0,1,.1.52h0a3.13,3.13,0,0,1,.11-.53l1.14-4.32Z"/><path d="M92.3,38.23H89.48a1.51,1.51,0,0,0,.36,1,1.24,1.24,0,0,0,.94.36A2,2,0,0,0,92,39.17v.61a2.39,2.39,0,0,1-1.4.38,1.67,1.67,0,0,1-1.33-.55,2.23,2.23,0,0,1-.49-1.53,2.2,2.2,0,0,1,.53-1.52A1.73,1.73,0,0,1,90.66,36a1.49,1.49,0,0,1,1.21.51,2.1,2.1,0,0,1,.43,1.41Zm-.65-.55a1.3,1.3,0,0,0-.27-.86.9.9,0,0,0-.73-.31,1,1,0,0,0-.77.32,1.5,1.5,0,0,0-.39.85Z"/><path d="M93.69,39.49h0v.57H93V34.14h.64v2.63h0a1.51,1.51,0,0,1,1.38-.8,1.48,1.48,0,0,1,1.21.54A2.23,2.23,0,0,1,96.71,38a2.47,2.47,0,0,1-.49,1.61,1.62,1.62,0,0,1-1.33.6A1.33,1.33,0,0,1,93.69,39.49Zm0-1.62v.56a1.2,1.2,0,0,0,.32.84,1.15,1.15,0,0,0,1.74-.1,2,2,0,0,0,.33-1.23,1.64,1.64,0,0,0-.31-1,1,1,0,0,0-.84-.38,1.14,1.14,0,0,0-.9.39A1.45,1.45,0,0,0,93.67,37.87Z"/><path d="M58.54,49.67V44.06h1.55c2,0,3,.91,3,2.73a2.76,2.76,0,0,1-.82,2.09,3.07,3.07,0,0,1-2.2.79Zm.66-5v4.41H60a2.39,2.39,0,0,0,1.72-.59,2.2,2.2,0,0,0,.61-1.67c0-1.44-.76-2.15-2.29-2.15Z"/><path d="M66.69,49.67h-.64V49h0a1.34,1.34,0,0,1-1.23.72,1.3,1.3,0,0,1-.93-.32,1.08,1.08,0,0,1-.34-.84c0-.75.44-1.18,1.32-1.3l1.2-.17c0-.68-.28-1-.83-1a2,2,0,0,0-1.3.49V46a2.46,2.46,0,0,1,1.36-.38c.94,0,1.41.5,1.41,1.49Zm-.64-2-1,.13a1.63,1.63,0,0,0-.67.23.63.63,0,0,0-.23.56.59.59,0,0,0,.21.47.79.79,0,0,0,.56.19,1,1,0,0,0,.79-.33,1.25,1.25,0,0,0,.31-.85Z"/><path d="M70.87,47.83H68.05a1.51,1.51,0,0,0,.36,1,1.22,1.22,0,0,0,.94.36,1.93,1.93,0,0,0,1.24-.45v.61a2.34,2.34,0,0,1-1.39.38,1.66,1.66,0,0,1-1.33-.55,2.54,2.54,0,0,1,0-3.05,1.7,1.7,0,0,1,1.32-.59,1.5,1.5,0,0,1,1.21.51,2.1,2.1,0,0,1,.43,1.41Zm-.66-.55a1.3,1.3,0,0,0-.26-.86.91.91,0,0,0-.74-.31,1.07,1.07,0,0,0-.77.32,1.5,1.5,0,0,0-.39.85Z"/><path d="M77.28,49.67h-.64v-2.3a1.68,1.68,0,0,0-.21-1,.76.76,0,0,0-.69-.3.85.85,0,0,0-.69.38,1.36,1.36,0,0,0-.29.89v2.29h-.64V47.29c0-.79-.31-1.18-.91-1.18a.86.86,0,0,0-.7.35,1.5,1.5,0,0,0-.27.92v2.29H71.6v-4h.64v.63h0a1.36,1.36,0,0,1,1.25-.73,1.16,1.16,0,0,1,.71.23,1.12,1.12,0,0,1,.42.6A1.44,1.44,0,0,1,76,45.57c.88,0,1.32.54,1.32,1.63Z"/><path d="M79.92,49.76a1.85,1.85,0,0,1-1.41-.56A2.06,2.06,0,0,1,78,47.71a2.15,2.15,0,0,1,.55-1.57A2,2,0,0,1,80,45.57a1.77,1.77,0,0,1,1.39.55,2.17,2.17,0,0,1,.5,1.53,2.13,2.13,0,0,1-.54,1.53A1.87,1.87,0,0,1,79.92,49.76Zm0-3.65a1.23,1.23,0,0,0-1,.42,1.73,1.73,0,0,0-.36,1.16A1.59,1.59,0,0,0,79,48.81a1.23,1.23,0,0,0,1,.41,1.16,1.16,0,0,0,1-.4,2.11,2.11,0,0,0,0-2.3A1.16,1.16,0,0,0,80,46.11Z"/><path d="M86,49.67h-.64V47.38c0-.85-.31-1.27-.93-1.27a1,1,0,0,0-.8.36,1.34,1.34,0,0,0-.31.91v2.29H82.7v-4h.64v.66h0a1.45,1.45,0,0,1,1.32-.76,1.21,1.21,0,0,1,1,.43A1.89,1.89,0,0,1,86,47.22Z"/><path d="M115.81,69.1h-2.18V71h2v.59h-2v2.48H113v-5.6h2.84Z" fill="#00b0f0"/><path d="M117.19,74.11h-.64V68.19h.64Z" fill="#00b0f0"/><path d="M121.48,74.11h-.64v-.63h0a1.31,1.31,0,0,1-1.23.73c-1,0-1.43-.57-1.43-1.71V70.11h.64V72.4c0,.85.32,1.27,1,1.27a1,1,0,0,0,.77-.35,1.32,1.32,0,0,0,.3-.9V70.11h.64Z" fill="#00b0f0"/><path d="M125.46,70.11l-1.35,2,1.32,2h-.74l-.79-1.29-.18-.31h0l-.18.31-.81,1.29H122l1.36-2-1.31-2h.75l.77,1.37.17.31h0l1-1.68Z" fill="#00b0f0"/><path d="M127.64,74.21a1.87,1.87,0,0,1-1.42-.56,2.1,2.1,0,0,1-.53-1.49,2.22,2.22,0,0,1,.55-1.58,2,2,0,0,1,1.49-.56,1.79,1.79,0,0,1,1.4.55,2.22,2.22,0,0,1,.5,1.53,2.15,2.15,0,0,1-.54,1.53A1.92,1.92,0,0,1,127.64,74.21Zm0-3.65a1.21,1.21,0,0,0-1,.42,1.71,1.71,0,0,0-.36,1.16,1.66,1.66,0,0,0,.36,1.12,1.25,1.25,0,0,0,1,.41,1.17,1.17,0,0,0,1-.41,1.74,1.74,0,0,0,.33-1.14,1.8,1.8,0,0,0-.33-1.16A1.16,1.16,0,0,0,127.68,70.56Z" fill="#00b0f0"/><path d="M135.78,74.11h-.64v-.68h0a1.46,1.46,0,0,1-1.37.78,1.49,1.49,0,0,1-1.21-.54,2.22,2.22,0,0,1-.45-1.46,2.38,2.38,0,0,1,.5-1.59,1.64,1.64,0,0,1,1.33-.6,1.27,1.27,0,0,1,1.2.65h0V68.19h.64Zm-.64-1.81v-.59a1.17,1.17,0,0,0-.32-.82,1.19,1.19,0,0,0-1.74.1,1.88,1.88,0,0,0-.33,1.18,1.68,1.68,0,0,0,.32,1.1,1.06,1.06,0,0,0,.86.4,1.08,1.08,0,0,0,.87-.39A1.41,1.41,0,0,0,135.14,72.3Z" fill="#00b0f0"/><path d="M140.05,72.27h-2.82a1.52,1.52,0,0,0,.35,1,1.23,1.23,0,0,0,.95.37,2,2,0,0,0,1.24-.45v.6a2.27,2.27,0,0,1-1.39.39,1.69,1.69,0,0,1-1.33-.55,2.54,2.54,0,0,1,0-3,1.67,1.67,0,0,1,1.32-.59,1.5,1.5,0,0,1,1.21.51,2.07,2.07,0,0,1,.43,1.41Zm-.66-.54a1.3,1.3,0,0,0-.26-.86.91.91,0,0,0-.74-.31,1.06,1.06,0,0,0-.77.32,1.5,1.5,0,0,0-.39.85Z" fill="#00b0f0"/><path d="M145.46,73.93a2.14,2.14,0,0,1-1.1.28,1.82,1.82,0,0,1-1.38-.56,2,2,0,0,1-.52-1.44,2.25,2.25,0,0,1,.56-1.59,2,2,0,0,1,1.52-.6,2,2,0,0,1,.92.19v.66a1.59,1.59,0,0,0-1-.31,1.25,1.25,0,0,0-1,.44,1.85,1.85,0,0,0,0,2.26,1.29,1.29,0,0,0,1,.41,1.64,1.64,0,0,0,1-.35Z" fill="#00b0f0"/><path d="M148.27,70.76a.74.74,0,0,0-.48-.13.82.82,0,0,0-.69.39,1.82,1.82,0,0,0-.27,1v2h-.64v-4h.64v.83h0a1.4,1.4,0,0,1,.42-.66,1,1,0,0,1,.63-.24.94.94,0,0,1,.38.06Z" fill="#00b0f0"/><path d="M151.94,72.27h-2.82a1.47,1.47,0,0,0,.36,1,1.21,1.21,0,0,0,.94.37,1.93,1.93,0,0,0,1.24-.45v.6a2.27,2.27,0,0,1-1.39.39,1.69,1.69,0,0,1-1.33-.55,2.54,2.54,0,0,1,0-3A1.67,1.67,0,0,1,150.3,70a1.49,1.49,0,0,1,1.21.51,2.07,2.07,0,0,1,.43,1.41Zm-.65-.54a1.36,1.36,0,0,0-.27-.86.9.9,0,0,0-.73-.31,1,1,0,0,0-.77.32,1.38,1.38,0,0,0-.39.85Z" fill="#00b0f0"/><path d="M156.08,74.11h-.64v-.68h0a1.61,1.61,0,0,1-2.58.24,2.22,2.22,0,0,1-.45-1.46,2.33,2.33,0,0,1,.5-1.59,1.63,1.63,0,0,1,1.33-.6,1.27,1.27,0,0,1,1.2.65h0V68.19h.64Zm-.64-1.81v-.59a1.13,1.13,0,0,0-.32-.82,1.07,1.07,0,0,0-.81-.33,1.09,1.09,0,0,0-.92.43,1.88,1.88,0,0,0-.34,1.18,1.68,1.68,0,0,0,.33,1.1,1.06,1.06,0,0,0,.86.4,1.08,1.08,0,0,0,.87-.39A1.45,1.45,0,0,0,155.44,72.3Z" fill="#00b0f0"/><path d="M160.36,72.27h-2.83a1.47,1.47,0,0,0,.36,1,1.23,1.23,0,0,0,1,.37,2,2,0,0,0,1.24-.45v.6a2.3,2.3,0,0,1-1.4.39,1.72,1.72,0,0,1-1.33-.55,2.23,2.23,0,0,1-.48-1.53,2.15,2.15,0,0,1,.53-1.52,1.66,1.66,0,0,1,1.31-.59,1.51,1.51,0,0,1,1.22.51,2.12,2.12,0,0,1,.43,1.41Zm-.66-.54a1.25,1.25,0,0,0-.27-.86.89.89,0,0,0-.73-.31,1.06,1.06,0,0,0-.77.32,1.5,1.5,0,0,0-.39.85Z" fill="#00b0f0"/><path d="M164.41,74.11h-.65V71.83c0-.85-.3-1.27-.93-1.27a1,1,0,0,0-.79.36,1.32,1.32,0,0,0-.31.91v2.28h-.65v-4h.65v.67h0a1.43,1.43,0,0,1,1.31-.76,1.24,1.24,0,0,1,1,.42,1.92,1.92,0,0,1,.35,1.23Z" fill="#00b0f0"/><path d="M168.1,73.93a2.14,2.14,0,0,1-1.1.28,1.82,1.82,0,0,1-1.38-.56,2,2,0,0,1-.52-1.44,2.21,2.21,0,0,1,.57-1.59,2,2,0,0,1,1.51-.6,2.12,2.12,0,0,1,.93.19v.66a1.64,1.64,0,0,0-1-.31,1.25,1.25,0,0,0-1,.44,1.66,1.66,0,0,0-.4,1.15,1.62,1.62,0,0,0,.37,1.11,1.29,1.29,0,0,0,1,.41,1.64,1.64,0,0,0,1-.35Z" fill="#00b0f0"/><path d="M169.16,69.1a.42.42,0,1,1,0-.84.4.4,0,0,1,.29.12.41.41,0,0,1,0,.6A.4.4,0,0,1,169.16,69.1Zm.31,5h-.64v-4h.64Z" fill="#00b0f0"/><path d="M173.39,74.11h-.64v-.62h0a1.34,1.34,0,0,1-1.23.72,1.3,1.3,0,0,1-.93-.32,1.08,1.08,0,0,1-.34-.84c0-.75.44-1.18,1.32-1.3l1.2-.17c0-.68-.28-1-.83-1a2,2,0,0,0-1.3.49v-.66A2.48,2.48,0,0,1,172,70c.94,0,1.41.5,1.41,1.49Zm-.64-2-1,.13a1.64,1.64,0,0,0-.67.22.64.64,0,0,0-.23.56.6.6,0,0,0,.21.48.84.84,0,0,0,.56.19,1,1,0,0,0,.79-.34,1.21,1.21,0,0,0,.31-.84Z" fill="#00b0f0"/><path d="M174.68,69.1a.4.4,0,0,1-.29-.12.44.44,0,0,1,0-.6.4.4,0,0,1,.29-.12.41.41,0,0,1,.3.12.41.41,0,0,1,0,.6A.41.41,0,0,1,174.68,69.1Zm.32,5h-.64v-4H175Z" fill="#00b0f0"/><path d="M175.81,74v-.69a1.88,1.88,0,0,0,1.15.39c.57,0,.85-.19.85-.57a.5.5,0,0,0-.08-.27.57.57,0,0,0-.19-.19,1.57,1.57,0,0,0-.29-.16l-.36-.14c-.17-.07-.33-.14-.46-.21a1.58,1.58,0,0,1-.34-.25.83.83,0,0,1-.2-.3,1,1,0,0,1-.07-.41.9.9,0,0,1,.13-.49,1.09,1.09,0,0,1,.34-.37,1.83,1.83,0,0,1,.49-.22,2.12,2.12,0,0,1,.57-.07,2.27,2.27,0,0,1,.93.18v.65a1.75,1.75,0,0,0-1-.29,1.08,1.08,0,0,0-.32,0,.82.82,0,0,0-.25.11.55.55,0,0,0-.16.18.46.46,0,0,0-.06.23.53.53,0,0,0,.06.26.6.6,0,0,0,.17.19l.26.15.36.14c.18.07.33.14.47.21a1.25,1.25,0,0,1,.36.24,1,1,0,0,1,.23.31.93.93,0,0,1,.08.42,1,1,0,0,1-.13.52,1.09,1.09,0,0,1-.35.36,1.52,1.52,0,0,1-.5.22,2.9,2.9,0,0,1-.6.07A2.25,2.25,0,0,1,175.81,74Z" fill="#00b0f0"/><path d="M184.57,74.11h-.64v-.68h0a1.61,1.61,0,0,1-2.58.24,2.22,2.22,0,0,1-.45-1.46,2.33,2.33,0,0,1,.5-1.59,1.63,1.63,0,0,1,1.33-.6,1.27,1.27,0,0,1,1.2.65h0V68.19h.64Zm-.64-1.81v-.59a1.13,1.13,0,0,0-.32-.82,1.07,1.07,0,0,0-.81-.33,1.09,1.09,0,0,0-.92.43,1.82,1.82,0,0,0-.34,1.18,1.73,1.73,0,0,0,.32,1.1,1.16,1.16,0,0,0,1.74,0A1.45,1.45,0,0,0,183.93,72.3Z" fill="#00b0f0"/><path d="M188.84,72.27H186a1.47,1.47,0,0,0,.36,1,1.21,1.21,0,0,0,1,.37,2,2,0,0,0,1.24-.45v.6a2.3,2.3,0,0,1-1.4.39,1.7,1.7,0,0,1-1.33-.55,2.23,2.23,0,0,1-.48-1.53,2.15,2.15,0,0,1,.53-1.52A1.66,1.66,0,0,1,187.2,70a1.52,1.52,0,0,1,1.22.51,2.12,2.12,0,0,1,.42,1.41Zm-.65-.54a1.25,1.25,0,0,0-.27-.86.89.89,0,0,0-.73-.31,1.06,1.06,0,0,0-.77.32,1.5,1.5,0,0,0-.39.85Z" fill="#00b0f0"/><path d="M194.25,73.93a2.13,2.13,0,0,1-1.09.28,1.82,1.82,0,0,1-1.38-.56,2,2,0,0,1-.53-1.44,2.21,2.21,0,0,1,.57-1.59,2,2,0,0,1,1.51-.6,2.12,2.12,0,0,1,.93.19v.66a1.63,1.63,0,0,0-.95-.31,1.27,1.27,0,0,0-1,.44,1.65,1.65,0,0,0-.39,1.15,1.57,1.57,0,0,0,.37,1.11,1.26,1.26,0,0,0,1,.41,1.61,1.61,0,0,0,1-.35Z" fill="#00b0f0"/><path d="M195.62,74.11H195V68.19h.64Z" fill="#00b0f0"/><path d="M197,69.1a.42.42,0,1,1,0-.84.4.4,0,0,1,.29.12.41.41,0,0,1,0,.6A.4.4,0,0,1,197,69.1Zm.31,5h-.64v-4h.64Z" fill="#00b0f0"/><path d="M201.59,72.27h-2.82a1.47,1.47,0,0,0,.36,1,1.19,1.19,0,0,0,.94.37,2,2,0,0,0,1.24-.45v.6a2.27,2.27,0,0,1-1.39.39,1.69,1.69,0,0,1-1.33-.55,2.54,2.54,0,0,1,0-3A1.67,1.67,0,0,1,200,70a1.5,1.5,0,0,1,1.21.51,2.07,2.07,0,0,1,.43,1.41Zm-.66-.54a1.3,1.3,0,0,0-.26-.86.91.91,0,0,0-.74-.31,1.07,1.07,0,0,0-.77.32,1.5,1.5,0,0,0-.39.85Z" fill="#00b0f0"/><path d="M205.64,74.11H205V71.83c0-.85-.31-1.27-.93-1.27a1,1,0,0,0-.8.36,1.32,1.32,0,0,0-.31.91v2.28h-.64v-4H203v.67h0a1.45,1.45,0,0,1,1.32-.76,1.23,1.23,0,0,1,1,.42,1.92,1.92,0,0,1,.35,1.23Z" fill="#00b0f0"/><path d="M208.46,74.07a1.16,1.16,0,0,1-.6.13q-1.05,0-1.05-1.17V70.66h-.68v-.55h.68v-1l.64-.21v1.18h1v.55h-1v2.25a1,1,0,0,0,.14.58.55.55,0,0,0,.45.17.75.75,0,0,0,.42-.13Z" fill="#00b0f0"/><path d="M212.29,72.27h-2.82a1.47,1.47,0,0,0,.36,1,1.21,1.21,0,0,0,.94.37,1.93,1.93,0,0,0,1.24-.45v.6a2.27,2.27,0,0,1-1.39.39,1.69,1.69,0,0,1-1.33-.55,2.54,2.54,0,0,1,0-3,1.69,1.69,0,0,1,1.32-.59,1.49,1.49,0,0,1,1.21.51,2.07,2.07,0,0,1,.43,1.41Zm-.65-.54a1.36,1.36,0,0,0-.27-.86.9.9,0,0,0-.73-.31,1,1,0,0,0-.77.32,1.5,1.5,0,0,0-.39.85Z" fill="#00b0f0"/></svg>