<svg xmlns="http://www.w3.org/2000/svg" viewBox="0 0 224.4 98.83"><title>OJ104544462</title><path d="M60.23,66.79H46V38.41H60.23v7.68H61V37.65H45.26v29.9H61V65.23h-.76Z" fill="#0078d7"/><path d="M59.47,39.21H46.83v4.58H59.47Zm-9.58,1.91h6.53v.76H49.89ZM56.48,43H49.86V42.2h6.62Z" fill="#0078d7"/><path d="M46.79,44.57v3h8.6V46.1h4.08V44.57Z" fill="#0078d7"/><rect x="46.79" y="48.38" width="8.6" height="2.68" fill="#0078d7"/><path d="M46.79,66H59.44v-.79H55.36V51.85h-8.6V66Zm1.53-2.73h2.29V64.5H48.32Z" fill="#0078d7"/><path d="M70,63H67.55V61.09H65V63H62.59a1.32,1.32,0,0,0-1.31,1.14h10C71.35,63.54,70.68,63,70,63Z" fill="#0078d7"/><path d="M74.85,49H57.75a.64.64,0,0,0-.67.6V59.72a.64.64,0,0,0,.67.6h17.1a.64.64,0,0,0,.67-.6V49.59A.62.62,0,0,0,74.85,49Zm-1,9.84H58.77V50.52H73.83Z" fill="#0078d7"/><path d="M70.21,56.35V52.91L66.7,51.06l-3.5,1.78v3.54l3.5,1.81Zm-4.4-2.3.89-.44.86.44-.86.48Zm0-1.14.86-.45.86.45-.86.48Zm1.91,4.52-1,.51V57l1-.51Zm0-1.18-1,.51v-.92l1-.51Zm0-1.11-1,.51v-.93l1-.51Zm-.82-1.66.86-.44.89.44-.86.45Zm2,3.35-1,.5v-.92l1-.51Zm0-1.18-1,.51v-.93l1-.51Zm0-1.15L68,55v-.89l1-.51Zm1,1.75-.86.45v-.93l.86-.44Zm0-1.14-.86.44v-.92l.86-.45ZM70,54l-.86.44v-.92L70,53Zm-.19-1.05-.89.44L68,52.91l.86-.45Zm-1.11-.58-.89.45-.86-.45.86-.44Zm-2-1,.86.45-.86.45-.89-.45Zm-1.11.61.86.44-.86.45-.86-.45Zm-1.08.57.89.45-.89.44-.9-.44Zm-.26,4.27-.86-.45v-.92l.86.45Zm0-1.18-.86-.44v-.93l.86.45Zm0-1.15L63.39,54v-.89l.86.44Zm1.18,2.93-1-.5V55.9l1,.51Zm0-1.17-1-.51v-.93l1,.51Zm0-1.15-1-.51v-.89l1,.51Zm-.7-1.53.89-.44.86.44-.89.48Zm1.88,4.46-1-.51v-.89l1,.51Zm0-1.15-1-.51v-.92l1,.51Zm0-1.14-1-.51v-.93l1,.51Z" fill="#0078d7"/><g style="isolation:isolate"><path d="M17.76,77.92h-.82l-.66-1.76H13.6L13,77.92h-.83l2.42-6.3h.77ZM16,75.49l-1-2.68a1.84,1.84,0,0,1-.1-.42h0a2.17,2.17,0,0,1-.1.42l-1,2.68Z" fill="#008bfd"/><path d="M19.33,77.27h0V80h-.72V73.42h.72v.79h0a1.71,1.71,0,0,1,1.56-.89,1.63,1.63,0,0,1,1.35.6,2.47,2.47,0,0,1,.49,1.62,2.77,2.77,0,0,1-.55,1.81,1.83,1.83,0,0,1-1.5.68A1.51,1.51,0,0,1,19.33,77.27Zm0-1.81v.63a1.33,1.33,0,0,0,.36.94,1.3,1.3,0,0,0,1.95-.11A2.27,2.27,0,0,0,22,75.53a1.84,1.84,0,0,0-.34-1.18,1.18,1.18,0,0,0-.94-.43,1.31,1.31,0,0,0-1,.44A1.63,1.63,0,0,0,19.31,75.46Z" fill="#008bfd"/><path d="M24.6,77.92h-.72V71.26h.72Z" fill="#008bfd"/><path d="M26.43,72.28a.44.44,0,0,1-.46-.46.46.46,0,0,1,.46-.48.48.48,0,0,1,.34.14.46.46,0,0,1,.14.34.45.45,0,0,1-.14.32A.48.48,0,0,1,26.43,72.28Zm.35,5.64h-.72v-4.5h.72Z" fill="#008bfd"/><path d="M31.31,77.72a2.44,2.44,0,0,1-1.23.31,2,2,0,0,1-1.55-.63,2.25,2.25,0,0,1-.6-1.62A2.53,2.53,0,0,1,28.57,74a2.23,2.23,0,0,1,1.7-.67,2.32,2.32,0,0,1,1.05.22v.74a1.81,1.81,0,0,0-1.07-.36,1.48,1.48,0,0,0-1.14.5,1.89,1.89,0,0,0-.44,1.3A1.8,1.8,0,0,0,29.09,77a1.45,1.45,0,0,0,1.11.45A1.83,1.83,0,0,0,31.31,77Z" fill="#008bfd"/><path d="M35.62,77.92H34.9v-.7h0A1.5,1.5,0,0,1,33.5,78a1.45,1.45,0,0,1-1-.36,1.21,1.21,0,0,1-.38-.94c0-.84.49-1.33,1.48-1.47l1.35-.19c0-.76-.31-1.15-.93-1.15a2.23,2.23,0,0,0-1.47.56v-.74A2.84,2.84,0,0,1,34,73.32q1.59,0,1.59,1.68Zm-.72-2.27-1.09.15a1.79,1.79,0,0,0-.75.24.72.72,0,0,0-.26.63.67.67,0,0,0,.24.54.9.9,0,0,0,.63.21,1.15,1.15,0,0,0,.88-.37,1.37,1.37,0,0,0,.35-1Z" fill="#008bfd"/><path d="M39.07,77.88a1.46,1.46,0,0,1-.68.14c-.78,0-1.18-.44-1.18-1.32V74h-.77v-.62h.77v-1.1l.72-.23v1.33h1.14V74H37.93v2.53a1,1,0,0,0,.16.65.6.6,0,0,0,.51.19.78.78,0,0,0,.47-.15Z" fill="#008bfd"/><path d="M40.4,72.28a.44.44,0,0,1-.33-.13.45.45,0,0,1-.14-.33.46.46,0,0,1,.14-.34.46.46,0,0,1,.66,0,.42.42,0,0,1,.14.34.41.41,0,0,1-.14.32A.45.45,0,0,1,40.4,72.28Zm.35,5.64H40v-4.5h.72Z" fill="#008bfd"/><path d="M45.75,73.42,44,77.92h-.7l-1.71-4.5h.79l1.14,3.27a2.64,2.64,0,0,1,.16.63h0a3.42,3.42,0,0,1,.14-.61L45,73.42Z" fill="#008bfd"/><path d="M48.4,78a2.06,2.06,0,0,1-1.59-.63,2.33,2.33,0,0,1-.6-1.67A2.47,2.47,0,0,1,46.83,74a2.24,2.24,0,0,1,1.68-.63,2,2,0,0,1,1.57.62,2.46,2.46,0,0,1,.56,1.71A2.41,2.41,0,0,1,50,77.38,2.13,2.13,0,0,1,48.4,78Zm.05-4.11a1.37,1.37,0,0,0-1.1.48,1.93,1.93,0,0,0-.4,1.3A1.85,1.85,0,0,0,47.36,77a1.38,1.38,0,0,0,1.09.46A1.33,1.33,0,0,0,49.53,77a2,2,0,0,0,.37-1.29,2,2,0,0,0-.37-1.3A1.33,1.33,0,0,0,48.45,73.92Z" fill="#008bfd"/><path d="M55,77.27h0V80h-.72V73.42H55v.79h0a1.7,1.7,0,0,1,1.55-.89,1.66,1.66,0,0,1,1.36.6,2.52,2.52,0,0,1,.49,1.62,2.83,2.83,0,0,1-.55,1.81,1.84,1.84,0,0,1-1.5.68A1.48,1.48,0,0,1,55,77.27Zm0-1.81v.63a1.33,1.33,0,0,0,.36.94,1.2,1.2,0,0,0,.92.39,1.22,1.22,0,0,0,1-.5,2.27,2.27,0,0,0,.37-1.39,1.84,1.84,0,0,0-.35-1.18,1.15,1.15,0,0,0-.94-.43,1.29,1.29,0,0,0-1,.44A1.63,1.63,0,0,0,55,75.46Z" fill="#008bfd"/><path d="M62.77,77.92h-.72v-.7h0a1.64,1.64,0,0,1-2.44.45,1.24,1.24,0,0,1-.38-.94c0-.84.5-1.33,1.49-1.47l1.35-.19c0-.76-.31-1.15-.93-1.15a2.23,2.23,0,0,0-1.47.56v-.74a2.84,2.84,0,0,1,1.53-.42q1.59,0,1.59,1.68Zm-.72-2.27L61,75.8a1.79,1.79,0,0,0-.75.24.72.72,0,0,0-.26.63.67.67,0,0,0,.24.54.88.88,0,0,0,.62.21,1.16,1.16,0,0,0,.89-.37,1.37,1.37,0,0,0,.35-1Z" fill="#008bfd"/><path d="M66.47,74.15a.89.89,0,0,0-.54-.14.91.91,0,0,0-.77.43,2,2,0,0,0-.31,1.19v2.29h-.72v-4.5h.72v.93h0a1.55,1.55,0,0,1,.47-.74,1,1,0,0,1,.7-.27,1.16,1.16,0,0,1,.43.06Z" fill="#008bfd"/><path d="M70.48,77.92h-.72v-.7h0a1.64,1.64,0,0,1-2.44.45,1.24,1.24,0,0,1-.38-.94c0-.84.5-1.33,1.49-1.47l1.35-.19c0-.76-.31-1.15-.93-1.15a2.23,2.23,0,0,0-1.47.56v-.74a2.79,2.79,0,0,1,1.53-.42q1.59,0,1.59,1.68Zm-.72-2.27-1.09.15a1.79,1.79,0,0,0-.75.24.72.72,0,0,0-.26.63.67.67,0,0,0,.24.54.88.88,0,0,0,.62.21,1.17,1.17,0,0,0,.89-.37,1.37,1.37,0,0,0,.35-1Z" fill="#008bfd"/><path d="M78.14,77.92h-.72v-.76h0a1.81,1.81,0,0,1-2.9.26A2.46,2.46,0,0,1,74,75.78,2.67,2.67,0,0,1,74.56,74a1.83,1.83,0,0,1,1.49-.67,1.43,1.43,0,0,1,1.35.73h0V71.26h.72Zm-.72-2v-.66a1.29,1.29,0,0,0-.36-.93,1.21,1.21,0,0,0-.91-.38,1.23,1.23,0,0,0-1,.49,2.1,2.1,0,0,0-.38,1.33A1.92,1.92,0,0,0,75.09,77a1.21,1.21,0,0,0,1,.45,1.23,1.23,0,0,0,1-.43A1.63,1.63,0,0,0,77.42,75.89Z" fill="#008bfd"/><path d="M83.22,75.85H80a1.71,1.71,0,0,0,.4,1.16,1.39,1.39,0,0,0,1.07.41,2.24,2.24,0,0,0,1.4-.5v.68a2.61,2.61,0,0,1-1.57.43,1.89,1.89,0,0,1-1.5-.62,2.5,2.5,0,0,1-.55-1.72,2.44,2.44,0,0,1,.6-1.71,1.92,1.92,0,0,1,1.48-.66,1.68,1.68,0,0,1,1.36.57,2.35,2.35,0,0,1,.49,1.59Zm-.74-.61a1.44,1.44,0,0,0-.3-1,1,1,0,0,0-.83-.35,1.17,1.17,0,0,0-.86.37,1.59,1.59,0,0,0-.44.95Z" fill="#008bfd"/><path d="M84,77.76V77a2.11,2.11,0,0,0,1.29.43c.63,0,1-.21,1-.63a.62.62,0,0,0-.08-.31.92.92,0,0,0-.22-.22,1.69,1.69,0,0,0-.33-.17c-.12,0-.25-.11-.4-.16a5.2,5.2,0,0,1-.52-.24,1.61,1.61,0,0,1-.38-.27,1,1,0,0,1-.23-.35,1.25,1.25,0,0,1-.08-.45,1,1,0,0,1,.15-.56,1.27,1.27,0,0,1,.39-.41,1.85,1.85,0,0,1,.55-.25,2.67,2.67,0,0,1,.64-.08,2.64,2.64,0,0,1,1,.2v.73a2,2,0,0,0-1.14-.33,1.3,1.3,0,0,0-.36,0,.73.73,0,0,0-.28.13.49.49,0,0,0-.18.2.46.46,0,0,0-.07.26.54.54,0,0,0,.07.29.6.6,0,0,0,.18.21,1.39,1.39,0,0,0,.3.17l.4.16.54.24a1.75,1.75,0,0,1,.4.27,1.1,1.1,0,0,1,.26.35,1.13,1.13,0,0,1,.09.47,1.09,1.09,0,0,1-.15.58,1.38,1.38,0,0,1-.39.41,1.72,1.72,0,0,1-.57.24,2.93,2.93,0,0,1-.67.08A2.53,2.53,0,0,1,84,77.76Z" fill="#008bfd"/><path d="M91.86,77.92h-1l-2-2.16h0v2.16h-.72V71.26h.72v4.22h0l1.89-2.06h1l-2.09,2.17Z" fill="#008bfd"/><path d="M94.69,77.88A1.45,1.45,0,0,1,94,78c-.79,0-1.19-.44-1.19-1.32V74h-.77v-.62h.77v-1.1l.72-.23v1.33h1.14V74H93.55v2.53a1,1,0,0,0,.16.65.6.6,0,0,0,.51.19.75.75,0,0,0,.47-.15Z" fill="#008bfd"/><path d="M97.53,78a2.08,2.08,0,0,1-1.59-.63,2.33,2.33,0,0,1-.6-1.67A2.47,2.47,0,0,1,96,74a2.25,2.25,0,0,1,1.68-.63,2,2,0,0,1,1.57.62,2.46,2.46,0,0,1,.56,1.71,2.41,2.41,0,0,1-.61,1.73A2.13,2.13,0,0,1,97.53,78Zm0-4.11a1.37,1.37,0,0,0-1.1.48,2,2,0,0,0-.4,1.3A1.85,1.85,0,0,0,96.49,77a1.38,1.38,0,0,0,1.09.46A1.33,1.33,0,0,0,98.66,77,2,2,0,0,0,99,75.68a2,2,0,0,0-.37-1.3A1.33,1.33,0,0,0,97.58,73.92Z" fill="#008bfd"/><path d="M101.66,77.27h0V80h-.72V73.42h.72v.79h0a1.72,1.72,0,0,1,1.56-.89,1.66,1.66,0,0,1,1.36.6,2.52,2.52,0,0,1,.48,1.62,2.77,2.77,0,0,1-.55,1.81A1.82,1.82,0,0,1,103,78,1.51,1.51,0,0,1,101.66,77.27Zm0-1.81v.63A1.34,1.34,0,0,0,102,77a1.29,1.29,0,0,0,1.94-.11,2.27,2.27,0,0,0,.37-1.39,1.84,1.84,0,0,0-.34-1.18,1.17,1.17,0,0,0-.94-.43,1.27,1.27,0,0,0-1,.44A1.59,1.59,0,0,0,101.64,75.46Z" fill="#008bfd"/></g><path d="M7.85,44.76a4.5,4.5,0,0,0-3,5.67c.66,2.55,3,4.21,5.27,3.66a4.49,4.49,0,0,0,3-5.66C12.57,45.76,10.16,44.1,7.85,44.76Z" fill="#008bfd"/><path d="M12.78,54.78c-.43,0-.88.77-1.54,1.11s-1.31.89-3.17,0S6,54.22,4.43,54.22s-4,2.78-4,6.88H16a12.15,12.15,0,0,0-1.11-4.21C13.77,54.78,13.23,54.78,12.78,54.78Z" fill="#008bfd"/><path d="M14.19,49.84H10.07a.7.7,0,0,0-.65.65v2.85a.73.73,0,0,0,.76.66h.76v5.15a1,1,0,0,0,1,1.09,1,1,0,0,0,1-1h.21V58.6c0-.22.33-.33.33-.33v-.33c-.33-.11-.54-.32-.54-.43v-.33L13.1,57a3.53,3.53,0,0,0,.33-.55,2.4,2.4,0,0,1-.33-.55c-.1-.11-.1-.33-.21-.44V55.2a2.52,2.52,0,0,1,.76-1.09h.54a.71.71,0,0,0,.65-.66v-3A.62.62,0,0,0,14.19,49.84ZM11.8,59.37c0,.22,0,.33-.21.33s-.22-.22-.22-.33V54.55c0-.22.11-.33.22-.33s.21.22.21.33Zm.33-7.78a.66.66,0,0,1,0-1.32.71.71,0,0,1,.65.66A.63.63,0,0,1,12.13,51.59Z" fill="#008bfd" stroke="gray" stroke-linecap="round" stroke-linejoin="round" stroke-width="0.75"/><path d="M11.57,59.67a.24.24,0,0,1-.22-.22v-5a.22.22,0,0,1,.44,0v5.1C11.79,59.67,11.68,59.67,11.57,59.67Z" fill="#fff"/><ellipse cx="12.14" cy="50.92" rx="0.66" ry="0.67" fill="#fff"/><path d="M191.76,41.68h-20.5a1.1,1.1,0,0,0-1.09,1.11V59.53a1.09,1.09,0,0,0,1.09,1.1h5.28a3.29,3.29,0,0,0,3.21,2.27,3.37,3.37,0,0,0,0-6.74,3.29,3.29,0,0,0-3.21,2.27h-4.19v-12h18.31v12h-3.45a7.61,7.61,0,0,0-7.46-6.57,8.25,8.25,0,0,0-3.64.92l1,2a5.28,5.28,0,0,1,2.55-.68,5.46,5.46,0,0,1,0,10.92,5.28,5.28,0,0,1-2.55-.68l-1,2a7.4,7.4,0,0,0,3.64.92,7.61,7.61,0,0,0,7.46-6.56h4.55a1.09,1.09,0,0,0,1.09-1.1V42.79A1.14,1.14,0,0,0,191.76,41.68Z" fill="#008bfd"/><g style="isolation:isolate"><path d="M153.62,77.92h-.81l-.67-1.76h-2.67l-.63,1.76H148l2.41-6.3h.77Zm-1.72-2.43-1-2.68a2.61,2.61,0,0,1-.1-.42h0a2.17,2.17,0,0,1-.1.42l-1,2.68Z" fill="#008bfd"/><path d="M155.19,77.27h0V80h-.72V73.42h.72v.79h0a1.72,1.72,0,0,1,1.56-.89,1.66,1.66,0,0,1,1.36.6,2.52,2.52,0,0,1,.48,1.62,2.77,2.77,0,0,1-.55,1.81,1.82,1.82,0,0,1-1.5.68A1.51,1.51,0,0,1,155.19,77.27Zm0-1.81v.63a1.3,1.3,0,0,0,.37.94,1.29,1.29,0,0,0,1.94-.11,2.27,2.27,0,0,0,.37-1.39,1.84,1.84,0,0,0-.34-1.18,1.17,1.17,0,0,0-.94-.43,1.27,1.27,0,0,0-1,.44A1.59,1.59,0,0,0,155.17,75.46Z" fill="#008bfd"/><path d="M160.46,77.92h-.72V71.26h.72Z" fill="#008bfd"/><path d="M162.29,72.28a.44.44,0,0,1-.46-.46.45.45,0,0,1,.13-.34.44.44,0,0,1,.33-.13.47.47,0,0,1,.34.13.46.46,0,0,1,.14.34.45.45,0,0,1-.14.32A.44.44,0,0,1,162.29,72.28Zm.35,5.64h-.72v-4.5h.72Z" fill="#008bfd"/><path d="M167.17,77.72a2.39,2.39,0,0,1-1.23.31,2,2,0,0,1-1.55-.63,2.25,2.25,0,0,1-.59-1.62,2.52,2.52,0,0,1,.63-1.79,2.23,2.23,0,0,1,1.7-.67,2.32,2.32,0,0,1,1.05.22v.74a1.79,1.79,0,0,0-1.07-.36,1.44,1.44,0,0,0-1.13.5,1.85,1.85,0,0,0-.45,1.3A1.8,1.8,0,0,0,165,77a1.45,1.45,0,0,0,1.11.45,1.79,1.79,0,0,0,1.11-.39Z" fill="#008bfd"/><path d="M171.48,77.92h-.72v-.7h0a1.5,1.5,0,0,1-1.38.81,1.45,1.45,0,0,1-1.05-.36,1.19,1.19,0,0,1-.38-.94c0-.84.49-1.33,1.48-1.47l1.35-.19c0-.76-.31-1.15-.93-1.15a2.19,2.19,0,0,0-1.46.56v-.74a2.79,2.79,0,0,1,1.53-.42c1,0,1.58.56,1.58,1.68Zm-.72-2.27-1.08.15a1.79,1.79,0,0,0-.76.24.72.72,0,0,0-.25.64.66.66,0,0,0,.23.53.92.92,0,0,0,.63.21,1.15,1.15,0,0,0,.88-.37,1.36,1.36,0,0,0,.35-1Z" fill="#008bfd"/><path d="M174.93,77.88a1.46,1.46,0,0,1-.68.14c-.78,0-1.18-.44-1.18-1.32V74h-.77v-.62h.77v-1.1l.72-.23v1.33h1.14V74h-1.14v2.53a1,1,0,0,0,.16.65.6.6,0,0,0,.51.19.75.75,0,0,0,.47-.15Z" fill="#008bfd"/><path d="M176.26,72.28a.44.44,0,0,1-.33-.13.45.45,0,0,1-.14-.33.46.46,0,0,1,.14-.34.48.48,0,0,1,.66,0,.42.42,0,0,1,.14.34.41.41,0,0,1-.14.32A.42.42,0,0,1,176.26,72.28Zm.35,5.64h-.72v-4.5h.72Z" fill="#008bfd"/><path d="M181.61,73.42l-1.8,4.5h-.7l-1.71-4.5h.79l1.14,3.27a2.64,2.64,0,0,1,.16.63h0a3.42,3.42,0,0,1,.14-.61l1.2-3.29Z" fill="#008bfd"/><path d="M184.26,78a2.09,2.09,0,0,1-1.59-.63,2.33,2.33,0,0,1-.6-1.67,2.47,2.47,0,0,1,.62-1.78,2.25,2.25,0,0,1,1.68-.63,2,2,0,0,1,1.57.62,2.47,2.47,0,0,1,.56,1.72,2.4,2.4,0,0,1-.61,1.72A2.13,2.13,0,0,1,184.26,78Zm.05-4.11a1.35,1.35,0,0,0-1.09.48,1.93,1.93,0,0,0-.41,1.3,1.85,1.85,0,0,0,.41,1.26,1.38,1.38,0,0,0,1.09.46,1.33,1.33,0,0,0,1.08-.45,2,2,0,0,0,.37-1.29,2,2,0,0,0-.37-1.3A1.33,1.33,0,0,0,184.31,73.92Z" fill="#008bfd"/><path d="M194,77.92h-.72v-.76h0a1.81,1.81,0,0,1-2.9.26,2.46,2.46,0,0,1-.51-1.64,2.72,2.72,0,0,1,.56-1.79,1.86,1.86,0,0,1,1.5-.67,1.43,1.43,0,0,1,1.35.73h0V71.26H194Zm-.72-2v-.66a1.29,1.29,0,0,0-.36-.93,1.23,1.23,0,0,0-.92-.38,1.25,1.25,0,0,0-1,.49,2.12,2.12,0,0,0-.38,1.33,1.92,1.92,0,0,0,.36,1.23,1.19,1.19,0,0,0,1,.45,1.21,1.21,0,0,0,1-.43A1.63,1.63,0,0,0,193.24,75.89Z" fill="#008bfd"/><path d="M199,75.85h-3.18a1.64,1.64,0,0,0,.4,1.16,1.39,1.39,0,0,0,1.07.41,2.16,2.16,0,0,0,1.39-.5v.68a2.55,2.55,0,0,1-1.56.43,1.92,1.92,0,0,1-1.5-.61,2.5,2.5,0,0,1-.55-1.73,2.44,2.44,0,0,1,.6-1.71,1.9,1.9,0,0,1,1.48-.66,1.69,1.69,0,0,1,1.36.57,2.35,2.35,0,0,1,.49,1.59Zm-.74-.61a1.56,1.56,0,0,0-.3-1,1.05,1.05,0,0,0-.83-.35,1.16,1.16,0,0,0-.86.37,1.59,1.59,0,0,0-.44.95Z" fill="#008bfd"/><path d="M207.57,77.92h-.82l-.67-1.76h-2.67l-.63,1.76H202l2.42-6.3h.76Zm-1.73-2.43-1-2.68c0-.09-.06-.23-.1-.42h0a2.07,2.07,0,0,1-.11.42l-1,2.68Z" fill="#008bfd"/><path d="M209.23,75.54v2.38h-.74v-6.3h1.73a2.32,2.32,0,0,1,1.57.49,1.76,1.76,0,0,1,.56,1.39,1.92,1.92,0,0,1-.62,1.47,2.37,2.37,0,0,1-1.67.57Zm0-3.25v2.58H210a1.71,1.71,0,0,0,1.17-.35,1.22,1.22,0,0,0,.4-1c0-.83-.49-1.25-1.47-1.25Z" fill="#008bfd"/><path d="M214.27,77.92h-.74v-6.3h.74Z" fill="#008bfd"/></g><path d="M161.69,50.43l8.05,4-3.46,1.74-4.5,2.27a9,9,0,0,0,0-8" fill="#505050"/><rect x="36.94" y="8" width="187.09" height="20" fill="none"/><g style="isolation:isolate"><path d="M44,6.77h-2.4V6.2H44Z" fill="#00b0f0"/><path d="M50.58,3.36H48.12V5.54H50.4V6.2H48.12V9h-.74V2.69h3.2Z" fill="#00b0f0"/><path d="M52.18,9h-.72V2.33h.72Z" fill="#00b0f0"/><path d="M57.05,9h-.72V8.28h0a1.47,1.47,0,0,1-1.39.82c-1.07,0-1.61-.64-1.61-1.92V4.5H54V7.07c0,.95.36,1.42,1.09,1.42A1.14,1.14,0,0,0,56,8.11a1.53,1.53,0,0,0,.34-1V4.5h.72Z" fill="#00b0f0"/><path d="M61.57,4.5,60.05,6.77,61.54,9H60.7l-.88-1.46a3.34,3.34,0,0,1-.2-.35h0s-.08.14-.21.35L58.49,9h-.83L59.2,6.79,57.73,4.5h.84L59.44,6l.19.35h0L60.77,4.5Z" fill="#00b0f0"/><path d="M64.06,9.1a2.09,2.09,0,0,1-1.59-.63,2.32,2.32,0,0,1-.59-1.67A2.39,2.39,0,0,1,62.5,5a2.2,2.2,0,0,1,1.67-.64A2,2,0,0,1,65.74,5a2.45,2.45,0,0,1,.57,1.72,2.42,2.42,0,0,1-.61,1.72A2.15,2.15,0,0,1,64.06,9.1ZM64.12,5a1.35,1.35,0,0,0-1.1.47,1.93,1.93,0,0,0-.41,1.3A1.84,1.84,0,0,0,63,8a1.4,1.4,0,0,0,1.1.46A1.32,1.32,0,0,0,65.19,8a2,2,0,0,0,.38-1.29,2,2,0,0,0-.38-1.3A1.32,1.32,0,0,0,64.12,5Z" fill="#00b0f0"/><path d="M73.31,9h-.72V8.23h0A1.67,1.67,0,0,1,71,9.1a1.69,1.69,0,0,1-1.36-.6,2.48,2.48,0,0,1-.5-1.65,2.68,2.68,0,0,1,.56-1.79,1.84,1.84,0,0,1,1.5-.67,1.45,1.45,0,0,1,1.35.73h0V2.33h.72Zm-.72-2V6.3a1.31,1.31,0,0,0-.36-.93A1.2,1.2,0,0,0,71.32,5a1.25,1.25,0,0,0-1,.48,2.14,2.14,0,0,0-.38,1.34A1.85,1.85,0,0,0,70.27,8a1.17,1.17,0,0,0,1,.45,1.23,1.23,0,0,0,1-.43A1.63,1.63,0,0,0,72.59,7Z" fill="#00b0f0"/><path d="M76.43,9.1a2.06,2.06,0,0,1-1.59-.63,2.33,2.33,0,0,1-.6-1.67A2.43,2.43,0,0,1,74.86,5a2.2,2.2,0,0,1,1.67-.64A2,2,0,0,1,78.11,5a2.49,2.49,0,0,1,.56,1.72,2.38,2.38,0,0,1-.61,1.72A2.13,2.13,0,0,1,76.43,9.1Zm0-4.1a1.36,1.36,0,0,0-1.1.47,1.93,1.93,0,0,0-.4,1.3A1.79,1.79,0,0,0,75.39,8a1.36,1.36,0,0,0,1.09.46A1.33,1.33,0,0,0,77.56,8a2,2,0,0,0,.37-1.29,2,2,0,0,0-.37-1.3A1.33,1.33,0,0,0,76.48,5Z" fill="#00b0f0"/><path d="M84.9,8.79a2.29,2.29,0,0,1-1.23.31,2,2,0,0,1-1.55-.63,2.26,2.26,0,0,1-.59-1.62,2.49,2.49,0,0,1,.64-1.79,2.21,2.21,0,0,1,1.7-.67,2.31,2.31,0,0,1,1,.22v.74A1.78,1.78,0,0,0,83.84,5a1.43,1.43,0,0,0-1.13.49,1.85,1.85,0,0,0-.44,1.3A1.83,1.83,0,0,0,82.68,8a1.45,1.45,0,0,0,1.12.45,1.78,1.78,0,0,0,1.1-.39Z" fill="#00b0f0"/><path d="M87.65,9.1a2.06,2.06,0,0,1-1.59-.63,2.33,2.33,0,0,1-.6-1.67A2.43,2.43,0,0,1,86.08,5a2.2,2.2,0,0,1,1.67-.64A2,2,0,0,1,89.33,5a2.49,2.49,0,0,1,.56,1.72,2.38,2.38,0,0,1-.61,1.72A2.13,2.13,0,0,1,87.65,9.1Zm0-4.1a1.36,1.36,0,0,0-1.1.47,1.93,1.93,0,0,0-.4,1.3A1.84,1.84,0,0,0,86.61,8a1.38,1.38,0,0,0,1.09.46A1.33,1.33,0,0,0,88.78,8a2,2,0,0,0,.37-1.29,2,2,0,0,0-.37-1.3A1.33,1.33,0,0,0,87.7,5Zm1.06-2.8L87.61,3.64h-.56L88,2.2Z" fill="#00b0f0"/><path d="M94.66,9h-.72V8.23h0a1.66,1.66,0,0,1-1.55.87A1.68,1.68,0,0,1,91,8.5a2.49,2.49,0,0,1-.51-1.65,2.74,2.74,0,0,1,.56-1.79,1.86,1.86,0,0,1,1.5-.67,1.43,1.43,0,0,1,1.35.73h0V2.33h.72Zm-.72-2V6.3a1.31,1.31,0,0,0-.36-.93,1.34,1.34,0,0,0-2,.11,2.08,2.08,0,0,0-.38,1.34A1.91,1.91,0,0,0,91.61,8a1.19,1.19,0,0,0,1,.45,1.22,1.22,0,0,0,1-.43A1.63,1.63,0,0,0,93.94,7Z" fill="#00b0f0"/><path d="M96.26,3.35a.44.44,0,0,1-.46-.46.45.45,0,0,1,.13-.34.44.44,0,0,1,.33-.13.47.47,0,0,1,.34.13.46.46,0,0,1,.14.34.45.45,0,0,1-.14.33A.47.47,0,0,1,96.26,3.35ZM96.61,9h-.72V4.5h.72Z" fill="#00b0f0"/><path d="M101.69,8.63c0,1.66-.79,2.48-2.38,2.48a3.16,3.16,0,0,1-1.45-.31v-.72a3,3,0,0,0,1.45.42c1.1,0,1.66-.59,1.66-1.77V8.24h0a1.82,1.82,0,0,1-2.9.26,2.41,2.41,0,0,1-.51-1.61,2.78,2.78,0,0,1,.55-1.82,1.85,1.85,0,0,1,1.51-.68,1.45,1.45,0,0,1,1.35.73h0V4.5h.72ZM101,7V6.3a1.25,1.25,0,0,0-.37-.92A1.17,1.17,0,0,0,99.7,5a1.25,1.25,0,0,0-1,.48,2.14,2.14,0,0,0-.38,1.36A1.87,1.87,0,0,0,98.64,8a1.17,1.17,0,0,0,1,.45,1.27,1.27,0,0,0,1-.43A1.6,1.6,0,0,0,101,7Z" fill="#00b0f0"/><path d="M104.8,9.1a2.09,2.09,0,0,1-1.59-.63,2.33,2.33,0,0,1-.6-1.67A2.43,2.43,0,0,1,103.23,5a2.22,2.22,0,0,1,1.68-.64,2,2,0,0,1,1.57.62A2.49,2.49,0,0,1,107,6.73a2.42,2.42,0,0,1-.6,1.72A2.17,2.17,0,0,1,104.8,9.1Zm0-4.1a1.34,1.34,0,0,0-1.09.47,1.93,1.93,0,0,0-.41,1.3A1.84,1.84,0,0,0,103.76,8a1.38,1.38,0,0,0,1.09.46A1.33,1.33,0,0,0,105.93,8a2,2,0,0,0,.38-1.29,2,2,0,0,0-.38-1.3A1.33,1.33,0,0,0,104.85,5Z" fill="#00b0f0"/><path d="M114.05,9h-.72V8.23h0a1.66,1.66,0,0,1-1.54.87,1.69,1.69,0,0,1-1.36-.6,2.49,2.49,0,0,1-.51-1.65,2.69,2.69,0,0,1,.57-1.79A1.83,1.83,0,0,1,112,4.39a1.43,1.43,0,0,1,1.35.73h0V2.33h.72Zm-.72-2V6.3a1.31,1.31,0,0,0-.36-.93,1.2,1.2,0,0,0-.91-.37,1.25,1.25,0,0,0-1,.48,2.14,2.14,0,0,0-.38,1.34A1.91,1.91,0,0,0,111,8a1.3,1.3,0,0,0,2,0A1.59,1.59,0,0,0,113.33,7Z" fill="#00b0f0"/><path d="M118.9,6.92h-3.18a1.74,1.74,0,0,0,.41,1.17,1.39,1.39,0,0,0,1.06.4,2.17,2.17,0,0,0,1.4-.5v.68A2.61,2.61,0,0,1,117,9.1a1.9,1.9,0,0,1-1.5-.61A2.54,2.54,0,0,1,115,6.76a2.48,2.48,0,0,1,.59-1.71,1.92,1.92,0,0,1,1.48-.66,1.7,1.7,0,0,1,1.37.57,2.4,2.4,0,0,1,.48,1.59Zm-.74-.61a1.46,1.46,0,0,0-.3-1A1,1,0,0,0,117,5a1.19,1.19,0,0,0-.87.36,1.72,1.72,0,0,0-.44.95Z" fill="#00b0f0"/><path d="M125.23,9h-.72V8.29h0a1.51,1.51,0,0,1-1.38.81,1.54,1.54,0,0,1-1.06-.35,1.27,1.27,0,0,1-.38-1c0-.84.5-1.33,1.49-1.47l1.35-.19q0-1.14-.93-1.14a2.22,2.22,0,0,0-1.47.55V4.81a2.79,2.79,0,0,1,1.53-.42q1.59,0,1.59,1.68Zm-.72-2.28-1.09.15a1.78,1.78,0,0,0-.75.25.72.72,0,0,0-.26.63.68.68,0,0,0,.24.54.92.92,0,0,0,.62.2,1.17,1.17,0,0,0,.89-.37,1.36,1.36,0,0,0,.35-.95Z" fill="#00b0f0"/><path d="M130,9h-.72V8.28h0a1.47,1.47,0,0,1-1.39.82c-1.07,0-1.61-.64-1.61-1.92V4.5H127V7.07c0,.95.36,1.42,1.09,1.42a1.14,1.14,0,0,0,.87-.38,1.48,1.48,0,0,0,.34-1V4.5H130Z" fill="#00b0f0"/><path d="M133.32,9a1.35,1.35,0,0,1-.68.14c-.78,0-1.18-.44-1.18-1.32V5.11h-.77V4.5h.77V3.4l.72-.24V4.5h1.14v.61h-1.14V7.65a1,1,0,0,0,.16.64.61.61,0,0,0,.51.2.75.75,0,0,0,.47-.15Z" fill="#00b0f0"/><path d="M135.94,9.1a2.1,2.1,0,0,1-1.6-.63,2.36,2.36,0,0,1-.59-1.67A2.39,2.39,0,0,1,134.37,5,2.2,2.2,0,0,1,136,4.39a2,2,0,0,1,1.57.62,2.45,2.45,0,0,1,.57,1.72,2.42,2.42,0,0,1-.61,1.72A2.15,2.15,0,0,1,135.94,9.1ZM136,5a1.36,1.36,0,0,0-1.1.47,1.93,1.93,0,0,0-.41,1.3A1.84,1.84,0,0,0,134.89,8a1.4,1.4,0,0,0,1.1.46A1.32,1.32,0,0,0,137.06,8a2,2,0,0,0,.38-1.29,2,2,0,0,0-.38-1.3A1.32,1.32,0,0,0,136,5Z" fill="#00b0f0"/><path d="M141.45,5.22a1,1,0,0,0-.55-.14.93.93,0,0,0-.77.43,2.07,2.07,0,0,0-.31,1.19V9h-.72V4.5h.72v.92h0a1.6,1.6,0,0,1,.47-.74,1.06,1.06,0,0,1,.71-.26,1.19,1.19,0,0,1,.43.06Z" fill="#00b0f0"/><path d="M142.38,3.35a.44.44,0,0,1-.33-.13.45.45,0,0,1-.14-.33.46.46,0,0,1,.14-.34.48.48,0,0,1,.66,0,.46.46,0,0,1,.14.34.45.45,0,0,1-.14.33A.44.44,0,0,1,142.38,3.35ZM142.73,9H142V4.5h.72Z" fill="#00b0f0"/><path d="M147.1,4.7l-2.66,3.68h2.63V9h-3.69V8.77L146,5.11h-2.41V4.5h3.47Z" fill="#00b0f0"/><path d="M151,9h-.72V8.29h0a1.65,1.65,0,0,1-2.44.46,1.27,1.27,0,0,1-.38-1c0-.84.5-1.33,1.49-1.47l1.35-.19q0-1.14-.93-1.14a2.22,2.22,0,0,0-1.47.55V4.81a2.79,2.79,0,0,1,1.53-.42q1.59,0,1.59,1.68Zm-.72-2.28-1.09.15a1.83,1.83,0,0,0-.76.25.72.72,0,0,0-.25.63.68.68,0,0,0,.24.54.92.92,0,0,0,.62.2,1.17,1.17,0,0,0,.89-.37,1.36,1.36,0,0,0,.35-.95Z" fill="#00b0f0"/><path d="M155.23,8.79A2.34,2.34,0,0,1,154,9.1a2.06,2.06,0,0,1-1.56-.63,2.26,2.26,0,0,1-.59-1.62,2.49,2.49,0,0,1,.64-1.79,2.21,2.21,0,0,1,1.7-.67,2.35,2.35,0,0,1,1.05.22v.74A1.83,1.83,0,0,0,154.16,5a1.45,1.45,0,0,0-1.13.49,1.89,1.89,0,0,0-.44,1.3A1.78,1.78,0,0,0,153,8a1.42,1.42,0,0,0,1.11.45,1.83,1.83,0,0,0,1.11-.39Zm-.38,1.33c0,.52-.4.77-1.21.77h-.28v-.39l.3,0c.42,0,.62-.14.62-.4s-.19-.34-.57-.34l-.17,0V9H154v.45a.94.94,0,0,1,.61.18A.59.59,0,0,1,154.85,10.12Z" fill="#00b0f0"/><path d="M159.31,9h-.72V8.29h0a1.64,1.64,0,0,1-2.43.46,1.23,1.23,0,0,1-.38-1c0-.84.49-1.33,1.48-1.47l1.35-.19c0-.76-.31-1.14-.92-1.14a2.19,2.19,0,0,0-1.47.55V4.81a2.79,2.79,0,0,1,1.53-.42c1.05,0,1.58.56,1.58,1.68Zm-.24-6.41a1.23,1.23,0,0,1-.21.75.65.65,0,0,1-.57.29,1.45,1.45,0,0,1-.71-.22,1.17,1.17,0,0,0-.53-.19c-.25,0-.38.16-.38.49h-.42a1.23,1.23,0,0,1,.21-.75.7.7,0,0,1,.59-.28,1.32,1.32,0,0,1,.66.22,1.15,1.15,0,0,0,.56.2c.25,0,.37-.17.37-.51Zm-.48,4.13-1.08.15a1.78,1.78,0,0,0-.76.25.72.72,0,0,0-.25.63.68.68,0,0,0,.23.54,1,1,0,0,0,.63.2,1.15,1.15,0,0,0,.88-.37,1.31,1.31,0,0,0,.35-.95Z" fill="#00b0f0"/><path d="M162.33,9.1a2.1,2.1,0,0,1-1.6-.63,2.36,2.36,0,0,1-.59-1.67A2.39,2.39,0,0,1,160.76,5a2.2,2.2,0,0,1,1.67-.64A2,2,0,0,1,164,5a2.45,2.45,0,0,1,.57,1.72A2.38,2.38,0,0,1,164,8.45,2.15,2.15,0,0,1,162.33,9.1Zm0-4.1a1.36,1.36,0,0,0-1.1.47,1.93,1.93,0,0,0-.4,1.3A1.79,1.79,0,0,0,161.29,8a1.36,1.36,0,0,0,1.09.46A1.31,1.31,0,0,0,163.45,8a1.91,1.91,0,0,0,.38-1.29,2,2,0,0,0-.38-1.3A1.31,1.31,0,0,0,162.38,5Z" fill="#00b0f0"/><path d="M169.63,10.43H169a5.62,5.62,0,0,1-1.36-3.84A5.85,5.85,0,0,1,169,2.69h.65a5.94,5.94,0,0,0-1.38,3.89A5.81,5.81,0,0,0,169.63,10.43Z" fill="#00b0f0"/><path d="M173.29,8.79a2.29,2.29,0,0,1-1.23.31,2,2,0,0,1-1.55-.63,2.26,2.26,0,0,1-.59-1.62,2.52,2.52,0,0,1,.63-1.79,2.25,2.25,0,0,1,1.71-.67,2.31,2.31,0,0,1,1,.22v.74A1.78,1.78,0,0,0,172.23,5a1.43,1.43,0,0,0-1.13.49,1.85,1.85,0,0,0-.44,1.3A1.78,1.78,0,0,0,171.07,8a1.45,1.45,0,0,0,1.12.45,1.78,1.78,0,0,0,1.1-.39Z" fill="#00b0f0"/><path d="M176,9.1a2.06,2.06,0,0,1-1.59-.63,2.33,2.33,0,0,1-.6-1.67A2.43,2.43,0,0,1,174.47,5a2.2,2.2,0,0,1,1.67-.64,2,2,0,0,1,1.57.62,2.45,2.45,0,0,1,.57,1.72,2.38,2.38,0,0,1-.61,1.72A2.13,2.13,0,0,1,176,9.1Zm.05-4.1a1.36,1.36,0,0,0-1.1.47,1.93,1.93,0,0,0-.4,1.3A1.79,1.79,0,0,0,175,8a1.36,1.36,0,0,0,1.09.46A1.33,1.33,0,0,0,177.17,8a2,2,0,0,0,.37-1.29,2,2,0,0,0-.37-1.3A1.33,1.33,0,0,0,176.09,5Z" fill="#00b0f0"/><path d="M185.6,9h-.72V6.41a1.87,1.87,0,0,0-.24-1.08.87.87,0,0,0-.77-.33,1,1,0,0,0-.79.42,1.65,1.65,0,0,0-.32,1V9H182V6.32Q182,5,181,5a1,1,0,0,0-.79.39,1.69,1.69,0,0,0-.3,1V9h-.72V4.5h.72v.71h0a1.53,1.53,0,0,1,1.4-.82,1.33,1.33,0,0,1,.81.26,1.29,1.29,0,0,1,.47.67,1.6,1.6,0,0,1,1.49-.93c1,0,1.49.61,1.49,1.83Z" fill="#00b0f0"/><path d="M189.81,6.61V9h-.74V2.69h1.73a2.28,2.28,0,0,1,1.57.5,1.74,1.74,0,0,1,.55,1.38A1.91,1.91,0,0,1,192.31,6a2.38,2.38,0,0,1-1.67.57Zm0-3.25V6h.77a1.76,1.76,0,0,0,1.17-.35,1.25,1.25,0,0,0,.4-1c0-.83-.49-1.25-1.48-1.25Z" fill="#00b0f0"/><path d="M198.27,9h-1l-2.43-2.89a1.91,1.91,0,0,1-.17-.22h0V9h-.73V2.69h.73v3h0a1.46,1.46,0,0,1,.17-.22l2.35-2.75h.92l-2.7,3Z" fill="#00b0f0"/><path d="M202.78,8.73A3.67,3.67,0,0,1,201,9.1a2.84,2.84,0,0,1-2.16-.86A3.21,3.21,0,0,1,198.07,6,3.38,3.38,0,0,1,199,3.52a3.1,3.1,0,0,1,2.31-.93,3.62,3.62,0,0,1,1.49.26v.78a3.06,3.06,0,0,0-1.5-.37,2.31,2.31,0,0,0-1.76.72,2.73,2.73,0,0,0-.67,1.94,2.58,2.58,0,0,0,.63,1.83,2.13,2.13,0,0,0,1.65.69A3.08,3.08,0,0,0,202.78,8Z" fill="#00b0f0"/><path d="M207.17,9h-3.34V2.69H207v.67h-2.46v2.1h2.28v.66h-2.28V8.33h2.6Z" fill="#00b0f0"/><path d="M208.08,10.43h-.64a5.86,5.86,0,0,0,1.37-3.85,5.94,5.94,0,0,0-1.38-3.89h.65a5.81,5.81,0,0,1,1.37,3.9A5.58,5.58,0,0,1,208.08,10.43Z" fill="#00b0f0"/><path d="M44,17.57h-2.4V17H44Z" fill="#00b0f0"/><path d="M52.71,19.8h-.82L51.23,18H48.55l-.63,1.77H47.1l2.42-6.31h.76ZM51,17.37l-1-2.69a2.85,2.85,0,0,1-.09-.42h0a2.17,2.17,0,0,1-.1.42l-1,2.69Z" fill="#00b0f0"/><path d="M57.18,19.8h-.72v-.72h0a1.47,1.47,0,0,1-1.39.82c-1.07,0-1.61-.64-1.61-1.92V15.3h.72v2.57c0,.95.36,1.42,1.09,1.42a1.14,1.14,0,0,0,.87-.38,1.48,1.48,0,0,0,.34-1V15.3h.72Z" fill="#00b0f0"/><path d="M60.72,19.75a1.42,1.42,0,0,1-.67.14c-.79,0-1.18-.44-1.18-1.32V15.91h-.78V15.3h.78V14.2l.72-.24V15.3h1.13v.61H59.59v2.54a1.06,1.06,0,0,0,.15.64.61.61,0,0,0,.51.2.75.75,0,0,0,.47-.15Z" fill="#00b0f0"/><path d="M65.3,17.72H62.12a1.69,1.69,0,0,0,.41,1.16,1.36,1.36,0,0,0,1.06.41,2.19,2.19,0,0,0,1.4-.5v.68a2.61,2.61,0,0,1-1.57.43,1.89,1.89,0,0,1-1.5-.61,2.54,2.54,0,0,1-.54-1.73A2.44,2.44,0,0,1,62,15.85a1.92,1.92,0,0,1,1.48-.66,1.7,1.7,0,0,1,1.37.57,2.4,2.4,0,0,1,.48,1.59Zm-.74-.61a1.46,1.46,0,0,0-.3-1,1,1,0,0,0-.82-.34,1.19,1.19,0,0,0-.87.36,1.65,1.65,0,0,0-.44.95Z" fill="#00b0f0"/><path d="M70.13,19.8h-.72V17.23c0-1-.35-1.43-1-1.43a1.15,1.15,0,0,0-.9.4,1.55,1.55,0,0,0-.35,1V19.8h-.72V15.3h.72V16h0a1.62,1.62,0,0,1,1.48-.85,1.36,1.36,0,0,1,1.12.48,2,2,0,0,1,.4,1.37Z" fill="#00b0f0"/><path d="M73.57,19.75a1.42,1.42,0,0,1-.67.14c-.79,0-1.18-.44-1.18-1.32V15.91h-.78V15.3h.78V14.2l.72-.24V15.3h1.13v.61H72.44v2.54a1.06,1.06,0,0,0,.15.64.61.61,0,0,0,.51.2.75.75,0,0,0,.47-.15Z" fill="#00b0f0"/><path d="M74.9,14.15a.44.44,0,0,1-.46-.46.45.45,0,0,1,.13-.34.44.44,0,0,1,.33-.13.47.47,0,0,1,.34.13.46.46,0,0,1,.14.34.45.45,0,0,1-.14.33A.47.47,0,0,1,74.9,14.15Zm.35,5.65h-.72V15.3h.72Z" fill="#00b0f0"/><path d="M79.78,19.59a2.32,2.32,0,0,1-1.23.31A2,2,0,0,1,77,19.27a2.21,2.21,0,0,1-.59-1.62A2.52,2.52,0,0,1,77,15.86a2.23,2.23,0,0,1,1.7-.67,2.32,2.32,0,0,1,1.05.22v.74a1.78,1.78,0,0,0-1.07-.35,1.43,1.43,0,0,0-1.13.49,1.85,1.85,0,0,0-.45,1.3,1.78,1.78,0,0,0,.42,1.25,1.45,1.45,0,0,0,1.11.45,1.79,1.79,0,0,0,1.11-.39Z" fill="#00b0f0"/><path d="M84.09,19.8h-.72v-.71h0a1.64,1.64,0,0,1-2.43.46,1.23,1.23,0,0,1-.38-.95c0-.84.49-1.33,1.48-1.47l1.35-.19q0-1.14-.93-1.14a2.18,2.18,0,0,0-1.46.55v-.74a2.79,2.79,0,0,1,1.53-.42c1,0,1.58.56,1.58,1.68Zm-.72-2.28-1.08.15a1.65,1.65,0,0,0-.76.25.72.72,0,0,0-.26.63.68.68,0,0,0,.24.54,1,1,0,0,0,.63.2,1.15,1.15,0,0,0,.88-.37,1.36,1.36,0,0,0,.35-1Z" fill="#00b0f0"/><path d="M88.52,19.59a2.34,2.34,0,0,1-1.23.31,2.06,2.06,0,0,1-1.56-.63,2.26,2.26,0,0,1-.59-1.62,2.49,2.49,0,0,1,.64-1.79,2.21,2.21,0,0,1,1.7-.67,2.35,2.35,0,0,1,1,.22v.74a1.83,1.83,0,0,0-1.08-.35,1.45,1.45,0,0,0-1.13.49,1.89,1.89,0,0,0-.44,1.3,1.78,1.78,0,0,0,.42,1.25,1.42,1.42,0,0,0,1.11.45,1.83,1.83,0,0,0,1.11-.39Zm-.38,1.33c0,.52-.4.77-1.21.77h-.28v-.39l.3,0c.42,0,.62-.14.62-.4s-.19-.34-.56-.34h-.18V19.8h.47v.45a.94.94,0,0,1,.61.18A.59.59,0,0,1,88.14,20.92Z" fill="#00b0f0"/><path d="M92.83,19.8h-.72v-.71h0a1.51,1.51,0,0,1-1.38.81,1.54,1.54,0,0,1-1.06-.35,1.27,1.27,0,0,1-.38-.95c0-.84.5-1.33,1.49-1.47l1.35-.19q0-1.14-.93-1.14a2.22,2.22,0,0,0-1.47.55v-.74a2.79,2.79,0,0,1,1.53-.42q1.59,0,1.59,1.68Zm-.24-6.41a1.23,1.23,0,0,1-.21.75.68.68,0,0,1-.58.29,1.51,1.51,0,0,1-.71-.22,1.14,1.14,0,0,0-.52-.19c-.26,0-.39.16-.39.49h-.41a1.23,1.23,0,0,1,.21-.75.69.69,0,0,1,.59-.28,1.26,1.26,0,0,1,.65.22,1.18,1.18,0,0,0,.57.2c.24,0,.37-.17.37-.51Zm-.48,4.13L91,17.67a1.65,1.65,0,0,0-.75.25.72.72,0,0,0-.26.63.68.68,0,0,0,.24.54.92.92,0,0,0,.62.2,1.17,1.17,0,0,0,.89-.37,1.36,1.36,0,0,0,.35-1Z" fill="#00b0f0"/><path d="M96.07,19.9a2.1,2.1,0,0,1-1.6-.63,2.36,2.36,0,0,1-.59-1.67,2.39,2.39,0,0,1,.62-1.77,2.2,2.2,0,0,1,1.67-.64,2,2,0,0,1,1.57.62,2.45,2.45,0,0,1,.57,1.72,2.42,2.42,0,0,1-.61,1.72A2.15,2.15,0,0,1,96.07,19.9Zm.05-4.1a1.36,1.36,0,0,0-1.1.47,1.93,1.93,0,0,0-.4,1.3A1.79,1.79,0,0,0,95,18.83a1.36,1.36,0,0,0,1.09.46,1.31,1.31,0,0,0,1.07-.45,2,2,0,0,0,.38-1.29,2,2,0,0,0-.38-1.3A1.31,1.31,0,0,0,96.12,15.8Z" fill="#00b0f0"/><path d="M102.76,19.8H102V13.49h.74Z" fill="#00b0f0"/><path d="M108.06,19.8h-.73V17.23c0-1-.34-1.43-1-1.43a1.15,1.15,0,0,0-.9.4,1.55,1.55,0,0,0-.35,1V19.8h-.72V15.3H105V16h0a1.61,1.61,0,0,1,1.47-.85,1.36,1.36,0,0,1,1.13.48,2.09,2.09,0,0,1,.4,1.37Z" fill="#00b0f0"/><path d="M111.5,19.75a1.42,1.42,0,0,1-.67.14c-.79,0-1.18-.44-1.18-1.32V15.91h-.78V15.3h.78V14.2l.72-.24V15.3h1.13v.61h-1.13v2.54a1.06,1.06,0,0,0,.15.64.61.61,0,0,0,.51.2.75.75,0,0,0,.47-.15Z" fill="#00b0f0"/><path d="M116.08,17.72H112.9a1.65,1.65,0,0,0,.41,1.16,1.35,1.35,0,0,0,1.06.41,2.19,2.19,0,0,0,1.4-.5v.68a2.61,2.61,0,0,1-1.57.43,1.89,1.89,0,0,1-1.5-.61,2.54,2.54,0,0,1-.54-1.73,2.44,2.44,0,0,1,.59-1.71,1.92,1.92,0,0,1,1.48-.66,1.71,1.71,0,0,1,1.37.57,2.4,2.4,0,0,1,.48,1.59Zm-.74-.61a1.46,1.46,0,0,0-.3-1,1,1,0,0,0-.82-.34,1.19,1.19,0,0,0-.87.36,1.65,1.65,0,0,0-.44.95Z" fill="#00b0f0"/><path d="M121,19.43c0,1.66-.79,2.48-2.37,2.48a3.17,3.17,0,0,1-1.46-.31v-.72a3,3,0,0,0,1.45.42c1.11,0,1.66-.59,1.66-1.77V19h0a1.82,1.82,0,0,1-2.9.26,2.41,2.41,0,0,1-.51-1.61,2.78,2.78,0,0,1,.55-1.82,1.85,1.85,0,0,1,1.51-.68,1.45,1.45,0,0,1,1.35.73h0V15.3H121Zm-.72-1.67V17.1a1.28,1.28,0,0,0-.36-.92,1.19,1.19,0,0,0-.91-.38,1.25,1.25,0,0,0-1,.48,2.2,2.2,0,0,0-.38,1.36,1.87,1.87,0,0,0,.36,1.2,1.18,1.18,0,0,0,1,.45,1.24,1.24,0,0,0,1-.43A1.6,1.6,0,0,0,120.29,17.76Z" fill="#00b0f0"/><path d="M124.82,16a1,1,0,0,0-.55-.14.91.91,0,0,0-.77.43,2,2,0,0,0-.31,1.19v2.3h-.72V15.3h.72v.92h0a1.6,1.6,0,0,1,.47-.74,1.05,1.05,0,0,1,.7-.26,1.25,1.25,0,0,1,.44.06Z" fill="#00b0f0"/><path d="M128.82,19.8h-.72v-.71h0a1.5,1.5,0,0,1-1.38.81,1.54,1.54,0,0,1-1.06-.35,1.27,1.27,0,0,1-.38-.95c0-.84.5-1.33,1.49-1.47l1.35-.19q0-1.14-.93-1.14a2.22,2.22,0,0,0-1.47.55v-.74a2.84,2.84,0,0,1,1.53-.42q1.59,0,1.59,1.68Zm-.72-2.28-1.09.15a1.65,1.65,0,0,0-.75.25.72.72,0,0,0-.26.63.68.68,0,0,0,.24.54.92.92,0,0,0,.62.2,1.16,1.16,0,0,0,.89-.37,1.36,1.36,0,0,0,.35-1Z" fill="#00b0f0"/><path d="M134,19.8h-.72V19h0a1.82,1.82,0,0,1-2.9.27,2.5,2.5,0,0,1-.51-1.65,2.74,2.74,0,0,1,.56-1.79,1.86,1.86,0,0,1,1.5-.67,1.43,1.43,0,0,1,1.35.73h0V13.13H134Zm-.72-2V17.1a1.31,1.31,0,0,0-.36-.93,1.34,1.34,0,0,0-1.95.11,2.08,2.08,0,0,0-.38,1.34,1.91,1.91,0,0,0,.36,1.22,1.19,1.19,0,0,0,1,.45,1.22,1.22,0,0,0,1-.43A1.63,1.63,0,0,0,133.3,17.76Z" fill="#00b0f0"/><path d="M138.7,19.8H138v-.71h0a1.5,1.5,0,0,1-1.38.81,1.54,1.54,0,0,1-1.06-.35,1.27,1.27,0,0,1-.38-.95c0-.84.5-1.33,1.49-1.47l1.35-.19q0-1.14-.93-1.14a2.22,2.22,0,0,0-1.47.55v-.74a2.84,2.84,0,0,1,1.53-.42q1.59,0,1.59,1.68ZM138,17.52l-1.09.15a1.65,1.65,0,0,0-.75.25.72.72,0,0,0-.26.63.68.68,0,0,0,.24.54.92.92,0,0,0,.62.2,1.17,1.17,0,0,0,.89-.37,1.36,1.36,0,0,0,.35-1Z" fill="#00b0f0"/><path d="M146.36,19.8h-.72V19h0a1.66,1.66,0,0,1-1.54.87,1.69,1.69,0,0,1-1.36-.6,2.5,2.5,0,0,1-.51-1.65,2.69,2.69,0,0,1,.57-1.79,1.84,1.84,0,0,1,1.5-.67,1.43,1.43,0,0,1,1.34.73h0V13.13h.72Zm-.72-2V17.1a1.31,1.31,0,0,0-.36-.93,1.2,1.2,0,0,0-.91-.37,1.25,1.25,0,0,0-1,.48,2.14,2.14,0,0,0-.38,1.34,1.91,1.91,0,0,0,.36,1.22,1.21,1.21,0,0,0,1,.45,1.23,1.23,0,0,0,1-.43A1.63,1.63,0,0,0,145.64,17.76Z" fill="#00b0f0"/><path d="M149.7,19.9a2.09,2.09,0,0,1-1.59-.63,2.33,2.33,0,0,1-.6-1.67,2.43,2.43,0,0,1,.62-1.77,2.22,2.22,0,0,1,1.68-.64,2,2,0,0,1,1.57.62,2.49,2.49,0,0,1,.56,1.72,2.38,2.38,0,0,1-.61,1.72A2.13,2.13,0,0,1,149.7,19.9Zm.05-4.1a1.34,1.34,0,0,0-1.09.47,1.93,1.93,0,0,0-.41,1.3,1.84,1.84,0,0,0,.41,1.26,1.38,1.38,0,0,0,1.09.46,1.33,1.33,0,0,0,1.08-.45,2,2,0,0,0,.38-1.29,2,2,0,0,0-.38-1.3A1.33,1.33,0,0,0,149.75,15.8Z" fill="#00b0f0"/><path d="M163.13,13.49l-1.78,6.31h-.87l-1.29-4.61a3.16,3.16,0,0,1-.11-.64h0a3.34,3.34,0,0,1-.12.63l-1.3,4.62h-.86L155,13.49h.81l1.34,4.84a3.19,3.19,0,0,1,.1.63h0a3.53,3.53,0,0,1,.13-.63l1.39-4.84h.71l1.34,4.87a3.14,3.14,0,0,1,.1.59h0a3.36,3.36,0,0,1,.12-.61l1.29-4.85Z" fill="#00b0f0"/><path d="M164.34,14.15A.44.44,0,0,1,164,14a.45.45,0,0,1-.14-.33.46.46,0,0,1,.14-.34.48.48,0,0,1,.66,0,.46.46,0,0,1,.14.34.45.45,0,0,1-.14.33A.44.44,0,0,1,164.34,14.15Zm.35,5.65H164V15.3h.72Z" fill="#00b0f0"/><path d="M169.88,19.8h-.72V17.23c0-1-.35-1.43-1-1.43a1.14,1.14,0,0,0-.9.4,1.5,1.5,0,0,0-.35,1V19.8h-.72V15.3h.72V16h0a1.63,1.63,0,0,1,1.48-.85,1.38,1.38,0,0,1,1.13.48,2.09,2.09,0,0,1,.39,1.37Z" fill="#00b0f0"/><path d="M175.08,19.8h-.72V19h0a1.66,1.66,0,0,1-1.55.87,1.68,1.68,0,0,1-1.35-.6,2.5,2.5,0,0,1-.51-1.65,2.74,2.74,0,0,1,.56-1.79,1.86,1.86,0,0,1,1.5-.67,1.43,1.43,0,0,1,1.35.73h0V13.13h.72Zm-.72-2V17.1a1.31,1.31,0,0,0-.36-.93,1.2,1.2,0,0,0-.91-.37,1.25,1.25,0,0,0-1,.48,2.14,2.14,0,0,0-.38,1.34,1.91,1.91,0,0,0,.36,1.22,1.3,1.3,0,0,0,1.95,0A1.63,1.63,0,0,0,174.36,17.76Z" fill="#00b0f0"/><path d="M178.42,19.9a2.08,2.08,0,0,1-1.59-.63,2.33,2.33,0,0,1-.6-1.67,2.43,2.43,0,0,1,.62-1.77,2.21,2.21,0,0,1,1.68-.64,2,2,0,0,1,1.57.62,2.49,2.49,0,0,1,.56,1.72,2.38,2.38,0,0,1-.61,1.72A2.13,2.13,0,0,1,178.42,19.9Zm.05-4.1a1.33,1.33,0,0,0-1.09.47,1.93,1.93,0,0,0-.41,1.3,1.84,1.84,0,0,0,.41,1.26,1.38,1.38,0,0,0,1.09.46,1.33,1.33,0,0,0,1.08-.45,2,2,0,0,0,.37-1.29,2,2,0,0,0-.37-1.3A1.33,1.33,0,0,0,178.47,15.8Z" fill="#00b0f0"/><path d="M187.48,15.3l-1.35,4.5h-.74l-.93-3.23a1.67,1.67,0,0,1-.07-.41h0a2.14,2.14,0,0,1-.09.4l-1,3.24h-.72l-1.36-4.5H182l.93,3.38a1.89,1.89,0,0,1,.06.4h0a2.27,2.27,0,0,1,.08-.41l1-3.37h.66l.93,3.39a3,3,0,0,1,.07.4h0a1.76,1.76,0,0,1,.08-.4l.91-3.39Z" fill="#00b0f0"/><path d="M188,19.63v-.77a2.16,2.16,0,0,0,1.3.43c.63,0,.95-.21.95-.63a.56.56,0,0,0-.08-.3,1,1,0,0,0-.22-.23,1.69,1.69,0,0,0-.33-.17l-.4-.16a5.2,5.2,0,0,1-.52-.24,1.61,1.61,0,0,1-.38-.27,1,1,0,0,1-.23-.35,1.25,1.25,0,0,1-.08-.45,1,1,0,0,1,.15-.56,1.24,1.24,0,0,1,.38-.41,2,2,0,0,1,.56-.25,2.67,2.67,0,0,1,.64-.08,2.64,2.64,0,0,1,1,.2v.73a2,2,0,0,0-1.14-.32,1.4,1.4,0,0,0-.37,0A1,1,0,0,0,189,16a.57.57,0,0,0-.18.2.48.48,0,0,0-.07.26.52.52,0,0,0,.07.29.6.6,0,0,0,.18.21,1.07,1.07,0,0,0,.3.17c.12,0,.25.11.4.16l.54.24a1.75,1.75,0,0,1,.4.27,1.1,1.1,0,0,1,.26.35,1.13,1.13,0,0,1,.09.47,1.09,1.09,0,0,1-.15.58,1.27,1.27,0,0,1-.39.41,1.81,1.81,0,0,1-.57.24,2.93,2.93,0,0,1-.67.08A2.57,2.57,0,0,1,188,19.63Z" fill="#00b0f0"/><path d="M44,28.37h-2.4V27.8H44Z" fill="#00b0f0"/><path d="M52.91,30.59H52l-3.25-5a2.05,2.05,0,0,1-.2-.39h0a7.44,7.44,0,0,1,0,.86v4.55h-.74v-6.3h1L52,29.24a4.73,4.73,0,0,1,.25.42h0a6.31,6.31,0,0,1,0-.93V24.29h.74Z" fill="#00b0f0"/><path d="M56.35,30.7a2.06,2.06,0,0,1-1.59-.63,2.33,2.33,0,0,1-.6-1.67,2.43,2.43,0,0,1,.62-1.77A2.2,2.2,0,0,1,56.45,26a2,2,0,0,1,1.58.62,2.47,2.47,0,0,1,.56,1.72A2.38,2.38,0,0,1,58,30.05,2.13,2.13,0,0,1,56.35,30.7Zm0-4.1a1.36,1.36,0,0,0-1.1.47,1.93,1.93,0,0,0-.4,1.3,1.84,1.84,0,0,0,.41,1.26,1.36,1.36,0,0,0,1.09.46,1.33,1.33,0,0,0,1.08-.45,2,2,0,0,0,.37-1.29,2,2,0,0,0-.37-1.3A1.33,1.33,0,0,0,56.4,26.6Z" fill="#00b0f0"/><path d="M66.13,30.59h-.72V28a2,2,0,0,0-.23-1.08.88.88,0,0,0-.78-.33,1,1,0,0,0-.78.42,1.58,1.58,0,0,0-.32,1v2.56h-.72V27.92c0-.88-.35-1.32-1-1.32a1,1,0,0,0-.78.39,1.63,1.63,0,0,0-.31,1v2.56h-.72v-4.5h.72v.72h0a1.53,1.53,0,0,1,1.4-.82,1.3,1.3,0,0,1,.8.26,1.24,1.24,0,0,1,.47.67,1.61,1.61,0,0,1,1.5-.93c1,0,1.48.61,1.48,1.83Z" fill="#00b0f0"/><path d="M71.11,28.52H67.93a1.65,1.65,0,0,0,.41,1.16,1.36,1.36,0,0,0,1.06.41,2.19,2.19,0,0,0,1.4-.5v.68a2.61,2.61,0,0,1-1.57.43,1.89,1.89,0,0,1-1.5-.61,2.54,2.54,0,0,1-.54-1.73,2.44,2.44,0,0,1,.59-1.71A1.92,1.92,0,0,1,69.26,26a1.71,1.71,0,0,1,1.37.57,2.4,2.4,0,0,1,.48,1.59Zm-.74-.61a1.44,1.44,0,0,0-.3-1,1,1,0,0,0-.82-.34,1.19,1.19,0,0,0-.87.36,1.65,1.65,0,0,0-.44.95Z" fill="#00b0f0"/><path d="M78.51,30.59h-.72v-.76h0a1.82,1.82,0,0,1-2.9.27,2.5,2.5,0,0,1-.51-1.65,2.74,2.74,0,0,1,.56-1.79,1.85,1.85,0,0,1,1.5-.67,1.43,1.43,0,0,1,1.35.73h0V23.93h.72Zm-.72-2V27.9a1.31,1.31,0,0,0-.36-.93,1.22,1.22,0,0,0-.92-.37,1.26,1.26,0,0,0-1,.48,2.13,2.13,0,0,0-.37,1.34,1.91,1.91,0,0,0,.36,1.22,1.17,1.17,0,0,0,1,.45,1.23,1.23,0,0,0,1-.43A1.63,1.63,0,0,0,77.79,28.56Z" fill="#00b0f0"/><path d="M83.58,28.52H80.4a1.69,1.69,0,0,0,.41,1.16,1.36,1.36,0,0,0,1.06.41,2.17,2.17,0,0,0,1.4-.5v.68a2.61,2.61,0,0,1-1.57.43,1.92,1.92,0,0,1-1.5-.61,2.54,2.54,0,0,1-.54-1.73,2.48,2.48,0,0,1,.59-1.71A1.92,1.92,0,0,1,81.73,26a1.7,1.7,0,0,1,1.37.57,2.4,2.4,0,0,1,.48,1.59Zm-.74-.61a1.44,1.44,0,0,0-.3-1,1,1,0,0,0-.82-.34,1.19,1.19,0,0,0-.87.36,1.72,1.72,0,0,0-.44.95Z" fill="#00b0f0"/><path d="M90.78,30.59h-.72v-.71h0a1.47,1.47,0,0,1-1.39.82c-1.07,0-1.61-.64-1.61-1.92V26.09h.72v2.58c0,.95.36,1.42,1.09,1.42a1.1,1.1,0,0,0,.86-.38,1.49,1.49,0,0,0,.35-1v-2.6h.72Z" fill="#00b0f0"/><path d="M92,30.43v-.77a2.11,2.11,0,0,0,1.29.43c.64,0,1-.21,1-.63a.48.48,0,0,0-.08-.3.68.68,0,0,0-.22-.23,1.91,1.91,0,0,0-.32-.17l-.4-.16a5.46,5.46,0,0,1-.53-.24,1.61,1.61,0,0,1-.38-.27,1,1,0,0,1-.23-.35,1.25,1.25,0,0,1-.07-.45,1.13,1.13,0,0,1,.14-.56,1.38,1.38,0,0,1,.39-.41,1.85,1.85,0,0,1,.55-.25,2.74,2.74,0,0,1,.64-.08,2.69,2.69,0,0,1,1,.2v.73a2.06,2.06,0,0,0-1.15-.32,1.37,1.37,0,0,0-.36,0,1,1,0,0,0-.28.13.57.57,0,0,0-.18.2.55.55,0,0,0-.06.26.62.62,0,0,0,.06.29.54.54,0,0,0,.19.21,1.17,1.17,0,0,0,.29.17l.4.16.54.24a1.75,1.75,0,0,1,.4.27,1,1,0,0,1,.26.35,1.13,1.13,0,0,1,.09.47,1.09,1.09,0,0,1-.15.58,1.17,1.17,0,0,1-.39.41,1.63,1.63,0,0,1-.57.24,2.86,2.86,0,0,1-.67.08A2.53,2.53,0,0,1,92,30.43Z" fill="#00b0f0"/><path d="M99.69,30.59H99v-.71h0a1.47,1.47,0,0,1-1.39.82c-1.07,0-1.61-.64-1.61-1.92V26.09h.72v2.58c0,.95.36,1.42,1.09,1.42a1.14,1.14,0,0,0,.87-.38,1.53,1.53,0,0,0,.34-1v-2.6h.72Z" fill="#00b0f0"/><path d="M104.36,30.59h-.72v-.7h0a1.52,1.52,0,0,1-1.39.81,1.45,1.45,0,0,1-1-.36,1.23,1.23,0,0,1-.38-.94c0-.84.49-1.33,1.48-1.47l1.35-.19c0-.76-.31-1.14-.92-1.14a2.19,2.19,0,0,0-1.47.55v-.74a2.79,2.79,0,0,1,1.53-.42c1,0,1.58.56,1.58,1.68Zm-.72-2.27-1.08.15a1.65,1.65,0,0,0-.76.25.72.72,0,0,0-.25.63.67.67,0,0,0,.23.53.92.92,0,0,0,.63.21,1.13,1.13,0,0,0,.88-.37,1.31,1.31,0,0,0,.35-.95Zm.1-4.52-1.15,1.44H102l1-1.44Z" fill="#00b0f0"/><path d="M108.07,26.82a1,1,0,0,0-.55-.14.93.93,0,0,0-.77.43,2.07,2.07,0,0,0-.31,1.19v2.29h-.72v-4.5h.72V27h0a1.6,1.6,0,0,1,.47-.74,1.06,1.06,0,0,1,.71-.26,1.19,1.19,0,0,1,.43.06Z" fill="#00b0f0"/><path d="M109.22,25a.44.44,0,0,1-.33-.13.45.45,0,0,1-.14-.33.46.46,0,0,1,.14-.34.44.44,0,0,1,.33-.13.48.48,0,0,1,.34.13.45.45,0,0,1,.13.34.44.44,0,0,1-.13.33A.48.48,0,0,1,109.22,25Zm.35,5.64h-.72v-4.5h.72Z" fill="#00b0f0"/><path d="M112.91,30.7a2.08,2.08,0,0,1-1.59-.63,2.33,2.33,0,0,1-.6-1.67,2.43,2.43,0,0,1,.62-1.77A2.22,2.22,0,0,1,113,26a2,2,0,0,1,1.57.62,2.47,2.47,0,0,1,.56,1.72,2.38,2.38,0,0,1-.61,1.72A2.13,2.13,0,0,1,112.91,30.7Zm0-4.1a1.33,1.33,0,0,0-1.09.47,1.93,1.93,0,0,0-.41,1.3,1.84,1.84,0,0,0,.41,1.26,1.38,1.38,0,0,0,1.09.46,1.33,1.33,0,0,0,1.08-.45,2,2,0,0,0,.37-1.29,2,2,0,0,0-.37-1.3A1.33,1.33,0,0,0,113,26.6Z" fill="#00b0f0"/><path d="M119.15,24.29l-3,7.35h-.67l3-7.35Z" fill="#00b0f0"/><path d="M119.61,30.34v-.87a1.61,1.61,0,0,0,.36.24,2.35,2.35,0,0,0,.44.17,3.9,3.9,0,0,0,.46.12,3.62,3.62,0,0,0,.43,0,1.66,1.66,0,0,0,1-.26.83.83,0,0,0,.34-.72.94.94,0,0,0-.11-.45,1.41,1.41,0,0,0-.31-.34,2.7,2.7,0,0,0-.47-.3l-.58-.3c-.22-.11-.43-.23-.62-.34a2.44,2.44,0,0,1-.5-.38,1.54,1.54,0,0,1-.33-.47,1.41,1.41,0,0,1-.12-.61,1.39,1.39,0,0,1,.19-.75,1.55,1.55,0,0,1,.5-.52,2.23,2.23,0,0,1,.7-.31,3.85,3.85,0,0,1,2.16.12v.83a2.44,2.44,0,0,0-1.43-.38,2,2,0,0,0-.49.05,1.47,1.47,0,0,0-.43.16,1.11,1.11,0,0,0-.31.3.75.75,0,0,0-.12.43.77.77,0,0,0,.1.42.79.79,0,0,0,.26.32,2.46,2.46,0,0,0,.43.28c.17.1.36.19.58.3s.44.23.64.35a3.32,3.32,0,0,1,.54.41,1.92,1.92,0,0,1,.36.5,1.38,1.38,0,0,1,.13.62,1.59,1.59,0,0,1-.18.79,1.56,1.56,0,0,1-.49.53,2.31,2.31,0,0,1-.72.29,3.89,3.89,0,0,1-.85.09l-.37,0-.45-.07a3,3,0,0,1-.43-.12A1.13,1.13,0,0,1,119.61,30.34Z" fill="#00b0f0"/><path d="M128.21,28.52H125a1.65,1.65,0,0,0,.41,1.16,1.35,1.35,0,0,0,1.06.41,2.19,2.19,0,0,0,1.4-.5v.68a2.61,2.61,0,0,1-1.57.43,1.89,1.89,0,0,1-1.5-.61,2.55,2.55,0,0,1-.55-1.73,2.44,2.44,0,0,1,.6-1.71,1.92,1.92,0,0,1,1.48-.66,1.68,1.68,0,0,1,1.36.57,2.35,2.35,0,0,1,.49,1.59Zm-.74-.61a1.44,1.44,0,0,0-.3-1,1,1,0,0,0-.82-.34,1.19,1.19,0,0,0-.87.36,1.65,1.65,0,0,0-.44.95Z" fill="#00b0f0"/><path d="M133,30.59h-.72V28c0-1-.35-1.43-1-1.43a1.15,1.15,0,0,0-.9.4,1.55,1.55,0,0,0-.35,1v2.56h-.72v-4.5H130v.75h0a1.61,1.61,0,0,1,1.47-.85,1.36,1.36,0,0,1,1.13.48,2.09,2.09,0,0,1,.39,1.37Z" fill="#00b0f0"/><path d="M138.13,30.59h-.72V28c0-.94-.35-1.4-1-1.4a1.14,1.14,0,0,0-.89.4,1.52,1.52,0,0,0-.36,1.05v2.54h-.72V23.93h.72v2.91h0a1.64,1.64,0,0,1,1.48-.85c1,0,1.52.61,1.52,1.83Z" fill="#00b0f0"/><path d="M142.71,30.59H142v-.7h0a1.52,1.52,0,0,1-1.39.81,1.45,1.45,0,0,1-1.05-.36,1.23,1.23,0,0,1-.38-.94c0-.84.5-1.33,1.49-1.47l1.35-.19q0-1.14-.93-1.14a2.22,2.22,0,0,0-1.47.55v-.74a2.79,2.79,0,0,1,1.53-.42q1.59,0,1.59,1.68ZM142,28.32l-1.09.15a1.69,1.69,0,0,0-.76.25.72.72,0,0,0-.25.63.65.65,0,0,0,.24.53.88.88,0,0,0,.62.21,1.17,1.17,0,0,0,.89-.37,1.36,1.36,0,0,0,.35-.95Z" fill="#00b0f0"/></g><line x1="75.52" y1="54.53" x2="162.7" y2="54.53" fill="none" stroke="#505050" stroke-miterlimit="10"/></svg>