<svg xmlns="http://www.w3.org/2000/svg" viewBox="0 0 218.8 88.6"><title>OJ104544462</title><path d="M60.2,66.8H46V38.4H60.2v7.7H61V37.7H45.3V67.6H61V65.2h-.8Z" transform="translate(-0.4 -1.4)" fill="#0078d7"/><path d="M59.5,39.2H46.8v4.6H59.5Zm-9.6,1.9h6.5v.8H49.9ZM56.5,43H49.9v-.8h6.6Z" transform="translate(-0.4 -1.4)" fill="#0078d7"/><path d="M46.8,44.6v3h8.6V46.1h4.1V44.6Z" transform="translate(-0.4 -1.4)" fill="#0078d7"/><rect x="46.4" y="46.9" width="8.6" height="2.68" fill="#0078d7"/><path d="M46.8,66H59.4v-.8h-4V51.9H46.8V66Zm1.5-2.7h2.3v1.2H48.3Z" transform="translate(-0.4 -1.4)" fill="#0078d7"/><path d="M70,63H67.6V61.1H65V63H62.6a1.2,1.2,0,0,0-1.3,1.1h10A1.2,1.2,0,0,0,70,63Z" transform="translate(-0.4 -1.4)" fill="#0078d7"/><path d="M74.9,49H57.8c-.4,0-.7.2-.7.6V59.7a.7.7,0,0,0,.7.6H74.9a.6.6,0,0,0,.6-.6V49.6A.6.6,0,0,0,74.9,49Zm-1.1,9.8h-15V50.5h15Z" transform="translate(-0.4 -1.4)" fill="#0078d7"/><path d="M70.2,56.3V52.9l-3.5-1.8-3.5,1.7v3.6l3.5,1.8ZM65.8,54l.9-.4.9.4-.9.5Zm0-1.1.9-.4.9.4-.9.5Zm1.9,4.5-.9.5V57l.9-.5Zm0-1.2-.9.6v-1l.9-.5Zm0-1.1-.9.5v-.9l.9-.5Zm-.8-1.6.9-.5.9.5-.9.4Zm2,3.3-.9.5v-.9l.9-.5Zm0-1.2-.9.6v-1l.9-.5Zm0-1.1L68,55v-.9l.9-.5ZM70,56.2l-.9.5v-.9l.9-.5Zm0-1.1-.9.4v-.9l.9-.4ZM70,54l-.9.4v-.9L70,53Zm-.2-1.1-.9.4-.9-.4.9-.4Zm-1.1-.6-.9.5-.9-.5.9-.4Zm-2-1,.9.4-.9.5-.9-.5Zm-1.1.6.8.4-.8.5-.9-.5Zm-1.1.6.9.4-.9.4-.9-.4Zm-.3,4.2-.8-.4v-.9l.8.4Zm0-1.2-.8-.4v-.9l.8.4Zm0-1.1-.8-.4v-.9l.8.4Zm1.2,2.9-.9-.5v-.9l.9.5Zm0-1.1-.9-.6v-.9l.9.5Zm0-1.2-.9-.5v-.9l.9.5Zm-.7-1.5.9-.5.9.5-.9.5Zm1.9,4.4-1-.5v-.9l1,.5Zm0-1.1-1-.5v-.9l1,.5Zm0-1.2-1-.5v-.9l1,.5Z" transform="translate(-0.4 -1.4)" fill="#0078d7"/><path d="M7.8,44.8c-2.3.5-3.6,3.1-2.9,5.6a4.6,4.6,0,0,0,5.3,3.7,4.5,4.5,0,0,0,2.9-5.7A4.3,4.3,0,0,0,7.8,44.8Z" transform="translate(-0.4 -1.4)" fill="#008bfd"/><path d="M12.8,54.8c-.5,0-.9.8-1.6,1.1a2.7,2.7,0,0,1-3.1,0C6.2,55,6,54.2,4.4,54.2s-4,2.8-4,6.9H16a14,14,0,0,0-1.1-4.2C13.8,54.8,13.2,54.8,12.8,54.8Z" transform="translate(-0.4 -1.4)" fill="#008bfd"/><path d="M14.2,49.8H10.1a.8.8,0,0,0-.7.7v2.8a.8.8,0,0,0,.8.7h.7v5.2a1,1,0,0,0,1,1,.9.9,0,0,0,1-.9h.2v-.7c0-.2.3-.3.3-.3v-.4c-.3-.1-.5-.3-.5-.4v-.3l.2-.2a3.3,3.3,0,0,0,.3-.6,2.2,2.2,0,0,1-.3-.5c-.1-.1-.1-.4-.2-.5v-.2a2.7,2.7,0,0,1,.8-1.1h.5a.6.6,0,0,0,.6-.6v-3A.7.7,0,0,0,14.2,49.8Zm-2.4,9.6c0,.2,0,.3-.2.3s-.2-.2-.2-.3V54.6c0-.3.1-.4.2-.4s.2.2.2.4Zm.3-7.8a.7.7,0,0,1-.6-.7.6.6,0,0,1,.6-.6.7.7,0,0,1,.7.6A.6.6,0,0,1,12.1,51.6Z" transform="translate(-0.4 -1.4)" fill="#008bfd" stroke="gray" stroke-linecap="round" stroke-linejoin="round" stroke-width="0.75"/><path d="M11.6,59.7c-.1,0-.3-.1-.3-.2v-5a.5.5,0,0,1,.3-.3c.1,0,.2.2.2.3v5.1C11.8,59.7,11.7,59.7,11.6,59.7Z" transform="translate(-0.4 -1.4)" fill="#fff"/><ellipse cx="11.8" cy="49.5" rx="0.7" ry="0.7" fill="#fff"/><path d="M191.8,41.7H171.3a1.1,1.1,0,0,0-1.1,1.1V59.5a1.1,1.1,0,0,0,1.1,1.1h5.2a3.3,3.3,0,0,0,3.2,2.3,3.4,3.4,0,1,0-3.2-4.5h-4.2V46.5h18.4V58.4h-3.5a7.6,7.6,0,0,0-11.1-5.6l1,2a4.8,4.8,0,0,1,2.6-.7,5.5,5.5,0,0,1,0,10.9,5.9,5.9,0,0,1-2.6-.7l-1,2a7.6,7.6,0,0,0,11.1-5.7h4.6a1,1,0,0,0,1-1.1V42.8A1,1,0,0,0,191.8,41.7Z" transform="translate(-0.4 -1.4)" fill="#008bfd"/><path d="M161.7,50.4l8,4-7.9,4a9,9,0,0,0-.1-8" transform="translate(-0.4 -1.4)" fill="#505050"/><path d="M162.7,54.5" transform="translate(-0.4 -1.4)" fill="#505050"/><path d="M150.5,80.2h-.9l-.7-2h-3l-.7,2h-.9l2.7-7h.8Zm-1.9-2.7-1.1-3a2,2,0,0,1-.1-.5h0a1.1,1.1,0,0,0-.1.5l-1.1,3Z" transform="translate(-0.4 -1.4)"/><path d="M152.3,79.5h-.1v3h-.8V75.2h.8v.9h.1a1.8,1.8,0,0,1,1.7-1,1.8,1.8,0,0,1,1.5.7,2.4,2.4,0,0,1,.5,1.8,3.2,3.2,0,0,1-.6,2,1.9,1.9,0,0,1-1.6.7A1.6,1.6,0,0,1,152.3,79.5Zm-.1-2v.7a1.4,1.4,0,0,0,.5,1,1.2,1.2,0,0,0,1,.4,1.2,1.2,0,0,0,1.1-.5,2.5,2.5,0,0,0,.4-1.6,1.8,1.8,0,0,0-.4-1.3,1.2,1.2,0,0,0-1-.4,1.4,1.4,0,0,0-1.1.4A2.1,2.1,0,0,0,152.2,77.5Z" transform="translate(-0.4 -1.4)"/><path d="M158.1,80.2h-.8V72.8h.8Z" transform="translate(-0.4 -1.4)"/><path d="M160.2,73.9h-.4a.5.5,0,0,1-.2-.4.8.8,0,0,1,.2-.4h.7a.8.8,0,0,1,.2.4.5.5,0,0,1-.2.4Zm.3,6.3h-.8v-5h.8Z" transform="translate(-0.4 -1.4)"/><path d="M165.6,80a3.2,3.2,0,0,1-1.4.3,2.1,2.1,0,0,1-1.7-.7,2.1,2.1,0,0,1-.7-1.8,3.2,3.2,0,0,1,.7-2,2.5,2.5,0,0,1,1.9-.7l1.2.2v.8a2.7,2.7,0,0,0-1.2-.3,1.7,1.7,0,0,0-1.3.5,2.5,2.5,0,0,0-.5,1.5,1.9,1.9,0,0,0,.5,1.3,1.3,1.3,0,0,0,1.2.5,2,2,0,0,0,1.3-.4Z" transform="translate(-0.4 -1.4)"/><path d="M170.4,80.2h-.8v-.8h-.1a1.6,1.6,0,0,1-1.5.9,1.6,1.6,0,0,1-1.2-.4,1.5,1.5,0,0,1-.4-1c0-1,.6-1.5,1.7-1.7l1.5-.2c0-.8-.4-1.2-1.1-1.2a2.5,2.5,0,0,0-1.6.6v-.8a2.6,2.6,0,0,1,1.7-.5,1.6,1.6,0,0,1,1.8,1.8Zm-.8-2.5h-1.2l-.9.3a.8.8,0,0,0-.3.7.6.6,0,0,0,.3.6.8.8,0,0,0,.7.2,1.3,1.3,0,0,0,1-.4,1.8,1.8,0,0,0,.4-1Z" transform="translate(-0.4 -1.4)"/><path d="M174.2,80.2h-.8c-.8,0-1.3-.5-1.3-1.5V75.9h-.8v-.7h.8V74l.8-.3v1.5h1.3v.7h-1.3v2.8a1.2,1.2,0,0,0,.2.7c.1.2.3.2.6.2h.5Z" transform="translate(-0.4 -1.4)"/><path d="M175.7,73.9h-.4c-.1-.1-.1-.2-.1-.4a.6.6,0,0,1,.1-.4h.7a.4.4,0,0,1,.2.4c0,.2,0,.3-.2.4Zm.4,6.3h-.8v-5h.8Z" transform="translate(-0.4 -1.4)"/><path d="M181.6,75.2l-2,5h-.8l-1.9-5h.9l1.3,3.6a6.4,6.4,0,0,0,.2.7h0c0-.2.1-.4.1-.6l1.4-3.7Z" transform="translate(-0.4 -1.4)"/><path d="M184.6,80.3a2.1,2.1,0,0,1-1.8-.7,2.7,2.7,0,0,1-.7-1.8,3,3,0,0,1,.7-2,2.5,2.5,0,0,1,1.9-.7,2.1,2.1,0,0,1,1.7.7,2.7,2.7,0,0,1,.7,1.9,2.9,2.9,0,0,1-.7,1.9A2.4,2.4,0,0,1,184.6,80.3Zm0-4.5a1.3,1.3,0,0,0-1.2.5,2.7,2.7,0,0,0,0,2.8,1.7,1.7,0,0,0,2.4,0,2.7,2.7,0,0,0,0-2.8A1.3,1.3,0,0,0,184.6,75.8Z" transform="translate(-0.4 -1.4)"/><path d="M195.3,80.2h-.8v-.8h0a1.8,1.8,0,0,1-1.7.9,1.8,1.8,0,0,1-1.5-.7,2.4,2.4,0,0,1-.6-1.8,2.7,2.7,0,0,1,.7-2,1.9,1.9,0,0,1,1.6-.7,1.6,1.6,0,0,1,1.5.8h0V72.8h.8Zm-.8-2.3v-.7a1.3,1.3,0,0,0-.4-1,1.2,1.2,0,0,0-1-.4,1.2,1.2,0,0,0-1.1.5,2.2,2.2,0,0,0-.4,1.5,1.7,1.7,0,0,0,.4,1.3,1,1,0,0,0,1,.5,1.4,1.4,0,0,0,1.1-.4A2,2,0,0,0,194.5,77.9Z" transform="translate(-0.4 -1.4)"/><path d="M201,77.9h-3.5a1.7,1.7,0,0,0,.4,1.3,1.6,1.6,0,0,0,1.2.4,2.1,2.1,0,0,0,1.5-.5v.7a2.3,2.3,0,0,1-1.7.5,2.1,2.1,0,0,1-1.7-.7,2.7,2.7,0,0,1-.6-1.9,2.5,2.5,0,0,1,.7-1.9,2,2,0,0,1,1.6-.7,1.8,1.8,0,0,1,1.5.6,2.4,2.4,0,0,1,.6,1.8Zm-.8-.7a2.1,2.1,0,0,0-.4-1.1,1.2,1.2,0,0,0-.9-.3,1,1,0,0,0-.9.4,1.2,1.2,0,0,0-.5,1Z" transform="translate(-0.4 -1.4)"/><path d="M210.5,80.2h-.9l-.8-2h-3l-.7,2h-.9l2.7-7h.9Zm-2-2.7-1.1-3a1.3,1.3,0,0,0-.1-.5h0a4.3,4.3,0,0,1-.1.5l-1.1,3Z" transform="translate(-0.4 -1.4)"/><path d="M212.3,77.6v2.6h-.8v-7h1.9a3.2,3.2,0,0,1,1.8.5,2.1,2.1,0,0,1,.6,1.6,2.2,2.2,0,0,1-.7,1.6,2.9,2.9,0,0,1-1.9.7Zm0-3.7v2.9h.9a1.8,1.8,0,0,0,1.3-.4,1.2,1.2,0,0,0,.4-1.1c0-.9-.5-1.4-1.6-1.4Z" transform="translate(-0.4 -1.4)"/><path d="M217.9,80.2h-.8v-7h.8Z" transform="translate(-0.4 -1.4)"/><path d="M35.3,6.5H32.6V5.9h2.7Z" transform="translate(-0.4 -1.4)" fill="#00b0f0"/><path d="M42.7,2.7H39.9V5.2h2.5v.7H39.9V9h-.8V2h3.6Z" transform="translate(-0.4 -1.4)" fill="#00b0f0"/><path d="M44.4,9h-.8V1.6h.8Z" transform="translate(-0.4 -1.4)" fill="#00b0f0"/><path d="M49.8,9H49V8.2h0a1.6,1.6,0,0,1-1.5.9q-1.8,0-1.8-2.1V4h.8V6.9q0,1.5,1.2,1.5a1.3,1.3,0,0,0,1-.4A2,2,0,0,0,49,6.9V4h.8Z" transform="translate(-0.4 -1.4)" fill="#00b0f0"/><path d="M54.9,4,53.2,6.5,54.8,9h-.9l-1-1.6a.8.8,0,0,0-.2-.4h0l-.3.4L51.4,9h-.9l1.7-2.5L50.6,4h.9l1,1.7c.1.1.1.3.2.4h0L54,4Z" transform="translate(-0.4 -1.4)" fill="#00b0f0"/><path d="M57.6,9.1a2.1,2.1,0,0,1-1.7-.7,2.4,2.4,0,0,1-.7-1.8,2.6,2.6,0,0,1,.7-2,2.5,2.5,0,0,1,1.9-.7,2.1,2.1,0,0,1,1.7.7,2.7,2.7,0,0,1,.6,1.9,2.5,2.5,0,0,1-.7,1.9A2.1,2.1,0,0,1,57.6,9.1Zm.1-4.5a1.3,1.3,0,0,0-1.2.5A2,2,0,0,0,56,6.5a2,2,0,0,0,.5,1.4,1.7,1.7,0,0,0,2.4,0,2,2,0,0,0,.4-1.4,2,2,0,0,0-.4-1.4A1.3,1.3,0,0,0,57.7,4.6Z" transform="translate(-0.4 -1.4)" fill="#00b0f0"/><path d="M67.9,9h-.8V8.1h0a1.9,1.9,0,0,1-1.7,1,1.6,1.6,0,0,1-1.5-.7,2.4,2.4,0,0,1-.6-1.8,3.2,3.2,0,0,1,.6-2,2.1,2.1,0,0,1,1.7-.7,1.5,1.5,0,0,1,1.5.8h0V1.6h.8Zm-.8-2.3V6a1.4,1.4,0,0,0-1.4-1.4,1.3,1.3,0,0,0-1.2.5,2.7,2.7,0,0,0-.4,1.5,2.5,2.5,0,0,0,.4,1.3,1.3,1.3,0,0,0,1.1.5A1.4,1.4,0,0,0,66.7,8,2,2,0,0,0,67.1,6.7Z" transform="translate(-0.4 -1.4)" fill="#00b0f0"/><path d="M71.4,9.1a2.1,2.1,0,0,1-1.8-.7,2.9,2.9,0,0,1-.7-1.8,3,3,0,0,1,.7-2,2.5,2.5,0,0,1,1.9-.7,2.1,2.1,0,0,1,1.7.7,2.4,2.4,0,0,1,.7,1.9,2.9,2.9,0,0,1-.7,1.9A2.4,2.4,0,0,1,71.4,9.1Zm0-4.5a1.3,1.3,0,0,0-1.2.5,2,2,0,0,0-.4,1.4,2,2,0,0,0,.4,1.4,1.7,1.7,0,0,0,2.4,0A2,2,0,0,0,73,6.5a2,2,0,0,0-.4-1.4A1.3,1.3,0,0,0,71.4,4.6Z" transform="translate(-0.4 -1.4)" fill="#00b0f0"/><path d="M80.8,8.8a3.2,3.2,0,0,1-1.4.3,2.1,2.1,0,0,1-1.7-.7A2.5,2.5,0,0,1,77,6.6a3.2,3.2,0,0,1,.7-2,2.5,2.5,0,0,1,1.9-.7l1.2.2v.8a2.7,2.7,0,0,0-1.2-.3,1.3,1.3,0,0,0-1.2.5,1.7,1.7,0,0,0-.5,1.4,2,2,0,0,0,.4,1.4,1.4,1.4,0,0,0,1.3.5A1.9,1.9,0,0,0,80.8,8Z" transform="translate(-0.4 -1.4)" fill="#00b0f0"/><path d="M83.8,9.1a2.1,2.1,0,0,1-1.7-.7,2.4,2.4,0,0,1-.7-1.8,2.6,2.6,0,0,1,.7-2A2.5,2.5,0,0,1,84,3.9a2.1,2.1,0,0,1,1.7.7,2.7,2.7,0,0,1,.6,1.9,2.9,2.9,0,0,1-.6,1.9A2.5,2.5,0,0,1,83.8,9.1Zm.1-4.5a1.3,1.3,0,0,0-1.2.5,2,2,0,0,0-.5,1.4,2,2,0,0,0,.5,1.4,1.7,1.7,0,0,0,2.4,0,2,2,0,0,0,.4-1.4,2,2,0,0,0-.4-1.4A1.3,1.3,0,0,0,83.9,4.6Zm1.2-3.2L83.8,3h-.6l1.1-1.6Z" transform="translate(-0.4 -1.4)" fill="#00b0f0"/><path d="M91.6,9h-.8V8.1h0a1.8,1.8,0,0,1-1.7,1,1.8,1.8,0,0,1-1.5-.7A2.4,2.4,0,0,1,87,6.6a3.2,3.2,0,0,1,.6-2,2.2,2.2,0,0,1,1.7-.7,1.5,1.5,0,0,1,1.5.8h0V1.6h.8Zm-.8-2.3V6a1.3,1.3,0,0,0-.4-1,1.2,1.2,0,0,0-1-.4c-.5,0-.9.1-1.1.5a2.1,2.1,0,0,0-.5,1.5,2.5,2.5,0,0,0,.4,1.3,1.3,1.3,0,0,0,1.1.5A1.4,1.4,0,0,0,90.4,8,2,2,0,0,0,90.8,6.7Z" transform="translate(-0.4 -1.4)" fill="#00b0f0"/><path d="M93.4,2.7H93c-.1-.1-.1-.2-.1-.4a.6.6,0,0,1,.1-.4h.8a.6.6,0,0,1,.1.4c0,.2,0,.3-.1.4ZM93.8,9H93V4h.8Z" transform="translate(-0.4 -1.4)" fill="#00b0f0"/><path d="M99.4,8.6c0,1.8-.8,2.7-2.6,2.7a3.8,3.8,0,0,1-1.6-.3v-.8a3.3,3.3,0,0,0,1.6.5c1.2,0,1.8-.7,1.8-2V8.2h0a1.9,1.9,0,0,1-1.7.9,1.8,1.8,0,0,1-1.5-.7,2.4,2.4,0,0,1-.6-1.7,3.3,3.3,0,0,1,.6-2.1,2.1,2.1,0,0,1,1.7-.7,1.5,1.5,0,0,1,1.5.8h0V4h.8Zm-.8-1.9V6a1.3,1.3,0,0,0-.4-1,1.2,1.2,0,0,0-1-.4c-.5,0-.9.1-1.1.5a2.5,2.5,0,0,0-.5,1.5,1.7,1.7,0,0,0,.5,1.3,1,1,0,0,0,1,.5A1.4,1.4,0,0,0,98.2,8,2,2,0,0,0,98.6,6.7Z" transform="translate(-0.4 -1.4)" fill="#00b0f0"/><path d="M102.9,9.1a2.4,2.4,0,0,1-1.8-.7,2.8,2.8,0,0,1-.6-1.8,2.6,2.6,0,0,1,.7-2,2.1,2.1,0,0,1,1.8-.7,2.3,2.3,0,0,1,1.8.7,2.7,2.7,0,0,1,.6,1.9,2.5,2.5,0,0,1-.7,1.9A2.1,2.1,0,0,1,102.9,9.1Zm.1-4.5a1.4,1.4,0,0,0-1.3.5,2,2,0,0,0-.4,1.4,2,2,0,0,0,.4,1.4,1.4,1.4,0,0,0,1.3.5,1.3,1.3,0,0,0,1.2-.5,2.6,2.6,0,0,0,0-2.8A1.3,1.3,0,0,0,103,4.6Z" transform="translate(-0.4 -1.4)" fill="#00b0f0"/><path d="M113.2,9h-.8V8.1h0a1.9,1.9,0,0,1-1.8,1,1.8,1.8,0,0,1-1.5-.7,3,3,0,0,1-.5-1.8,3.2,3.2,0,0,1,.6-2,2.1,2.1,0,0,1,1.7-.7,1.7,1.7,0,0,1,1.5.8h0V1.6h.8Zm-.8-2.3V6a1.8,1.8,0,0,0-.4-1,1.3,1.3,0,0,0-1-.4,1.3,1.3,0,0,0-1.2.5,2.1,2.1,0,0,0-.4,1.5,1.8,1.8,0,0,0,.4,1.3,1.2,1.2,0,0,0,1.1.5A1.5,1.5,0,0,0,112,8,2.8,2.8,0,0,0,112.4,6.7Z" transform="translate(-0.4 -1.4)" fill="#00b0f0"/><path d="M118.6,6.7H115a1.7,1.7,0,0,0,.5,1.3,1.6,1.6,0,0,0,1.2.4,2.3,2.3,0,0,0,1.5-.5v.7a2.3,2.3,0,0,1-1.7.5,2.1,2.1,0,0,1-1.7-.7,2.7,2.7,0,0,1-.6-1.9,2.5,2.5,0,0,1,.7-1.9,2,2,0,0,1,1.6-.7,1.8,1.8,0,0,1,1.5.6,2.4,2.4,0,0,1,.6,1.8Zm-.9-.7a2,2,0,0,0-.3-1.1,1.2,1.2,0,0,0-.9-.3,1.3,1.3,0,0,0-1,.4,2.3,2.3,0,0,0-.5,1Z" transform="translate(-0.4 -1.4)" fill="#00b0f0"/><path d="M125.6,9h-.8V8.2h0a1.8,1.8,0,0,1-1.6.9,1.2,1.2,0,0,1-1.1-.4,1.2,1.2,0,0,1-.5-1c0-1,.6-1.5,1.7-1.7l1.5-.2c0-.8-.4-1.2-1-1.2a2.7,2.7,0,0,0-1.7.6V4.3a3.3,3.3,0,0,1,1.7-.4,1.6,1.6,0,0,1,1.8,1.8Zm-.8-2.5h-1.2l-.9.3a1.2,1.2,0,0,0-.2.7.8.8,0,0,0,.2.6.8.8,0,0,0,.7.2A1.4,1.4,0,0,0,124.8,7Z" transform="translate(-0.4 -1.4)" fill="#00b0f0"/><path d="M130.9,9h-.8V8.2h0a1.8,1.8,0,0,1-1.6.9q-1.8,0-1.8-2.1V4h.8V6.9c0,1,.4,1.5,1.3,1.5a1.1,1.1,0,0,0,.9-.4,1.5,1.5,0,0,0,.4-1.1V4h.8Z" transform="translate(-0.4 -1.4)" fill="#00b0f0"/><path d="M134.6,8.9a1.1,1.1,0,0,1-.8.2c-.8,0-1.3-.5-1.3-1.5V4.7h-.8V4h.8V2.8l.8-.3V4h1.3v.7h-1.3V7.5a1.2,1.2,0,0,0,.2.7c.1.2.3.2.6.2h.5Z" transform="translate(-0.4 -1.4)" fill="#00b0f0"/><path d="M137.5,9.1a2.4,2.4,0,0,1-1.8-.7,2.8,2.8,0,0,1-.6-1.8,3,3,0,0,1,.6-2,2.5,2.5,0,0,1,1.9-.7,2.3,2.3,0,0,1,1.8.7,2.7,2.7,0,0,1,.6,1.9,2.5,2.5,0,0,1-.7,1.9A2.3,2.3,0,0,1,137.5,9.1Zm0-4.5a1.3,1.3,0,0,0-1.2.5,2,2,0,0,0-.4,1.4,2,2,0,0,0,.4,1.4,1.3,1.3,0,0,0,1.2.5c.6,0,1-.1,1.2-.5a2,2,0,0,0,.5-1.4,2,2,0,0,0-.5-1.4C138.5,4.7,138.1,4.6,137.5,4.6Z" transform="translate(-0.4 -1.4)" fill="#00b0f0"/><path d="M143.6,4.8a.8.8,0,0,0-.6-.2,1,1,0,0,0-.8.5,2,2,0,0,0-.4,1.3V9H141V4h.8V5h0a1.6,1.6,0,0,1,.6-.8.9.9,0,0,1,.7-.3h.5Z" transform="translate(-0.4 -1.4)" fill="#00b0f0"/><path d="M144.6,2.7h-.3a.5.5,0,0,1-.2-.4.8.8,0,0,1,.2-.4h.7a.8.8,0,0,1,.2.4.5.5,0,0,1-.2.4ZM145,9h-.8V4h.8Z" transform="translate(-0.4 -1.4)" fill="#00b0f0"/><path d="M149.9,4.2l-3,4.1h3V9h-4.1V8.7l2.9-4H146V4h3.9Z" transform="translate(-0.4 -1.4)" fill="#00b0f0"/><path d="M154.3,9h-.8V8.2h-.1a1.6,1.6,0,0,1-1.5.9,1.6,1.6,0,0,1-1.2-.4,1.2,1.2,0,0,1-.4-1c0-1,.6-1.5,1.7-1.7l1.5-.2c0-.8-.4-1.2-1.1-1.2a2.5,2.5,0,0,0-1.6.6V4.3a3.3,3.3,0,0,1,1.7-.4,1.6,1.6,0,0,1,1.8,1.8Zm-.8-2.5h-1.2l-.9.3a.8.8,0,0,0-.3.7.6.6,0,0,0,.3.6.8.8,0,0,0,.7.2,1.3,1.3,0,0,0,1-.4,1.8,1.8,0,0,0,.4-1Z" transform="translate(-0.4 -1.4)" fill="#00b0f0"/><path d="M158.9,8.8a2.8,2.8,0,0,1-1.3.3,2.3,2.3,0,0,1-1.8-.7,2.4,2.4,0,0,1-.6-1.8,2.7,2.7,0,0,1,.7-2,2.5,2.5,0,0,1,1.9-.7l1.1.2v.8a2.1,2.1,0,0,0-1.2-.3,1.3,1.3,0,0,0-1.2.5,2.2,2.2,0,0,0-.5,1.4,2,2,0,0,0,.5,1.4,1.3,1.3,0,0,0,1.2.5,1.9,1.9,0,0,0,1.2-.4Zm-.4,1.4c0,.6-.4.9-1.3.9h-.4v-.4h.4c.4,0,.7-.2.7-.5s-.2-.3-.7-.3H157V9h.6v.5l.7.2A.8.8,0,0,1,158.5,10.2Z" transform="translate(-0.4 -1.4)" fill="#00b0f0"/><path d="M163.5,9h-.8V8.2h-.1a1.6,1.6,0,0,1-1.5.9,1.6,1.6,0,0,1-1.2-.4,1.5,1.5,0,0,1-.4-1c0-1,.6-1.5,1.7-1.7l1.5-.2c0-.8-.4-1.2-1.1-1.2a2.5,2.5,0,0,0-1.6.6V4.3a3.3,3.3,0,0,1,1.7-.4,1.6,1.6,0,0,1,1.8,1.8Zm-.3-7.1a1.9,1.9,0,0,1-.2.8.9.9,0,0,1-.7.3,1.3,1.3,0,0,1-.8-.2.6.6,0,0,0-.5-.2.5.5,0,0,0-.5.5h-.4a1.1,1.1,0,0,1,.2-.8A.9.9,0,0,1,161,2l.7.2a.7.7,0,0,0,.6.2c.3,0,.4-.1.4-.5Zm-.5,4.6h-1.2l-.9.3a.8.8,0,0,0-.3.7.6.6,0,0,0,.3.6.8.8,0,0,0,.7.2,1.3,1.3,0,0,0,1-.4,1.8,1.8,0,0,0,.4-1Z" transform="translate(-0.4 -1.4)" fill="#00b0f0"/><path d="M166.8,9.1a2.4,2.4,0,0,1-1.8-.7,2.8,2.8,0,0,1-.6-1.8,2.6,2.6,0,0,1,.7-2,2.3,2.3,0,0,1,1.8-.7,2.1,2.1,0,0,1,1.8.7,2.7,2.7,0,0,1,.6,1.9,2.5,2.5,0,0,1-.7,1.9A2.1,2.1,0,0,1,166.8,9.1Zm.1-4.5a1.3,1.3,0,0,0-1.2.5,2,2,0,0,0-.5,1.4,2,2,0,0,0,.5,1.4,1.7,1.7,0,0,0,2.4,0,2.7,2.7,0,0,0,0-2.8A1.3,1.3,0,0,0,166.9,4.6Z" transform="translate(-0.4 -1.4)" fill="#00b0f0"/><path d="M174.9,10.6h-.7a6.4,6.4,0,0,1-1.5-4.3A6.4,6.4,0,0,1,174.2,2h.7a6.6,6.6,0,0,0-1.5,4.3A6.6,6.6,0,0,0,174.9,10.6Z" transform="translate(-0.4 -1.4)" fill="#00b0f0"/><path d="M179,8.8a2.9,2.9,0,0,1-1.4.3,2.1,2.1,0,0,1-1.7-.7,2.5,2.5,0,0,1-.7-1.8,2.8,2.8,0,0,1,.8-2,2.3,2.3,0,0,1,1.8-.7l1.2.2v.8l-1.2-.3a1.3,1.3,0,0,0-1.2.5,1.7,1.7,0,0,0-.5,1.4,2,2,0,0,0,.4,1.4,1.5,1.5,0,0,0,1.3.5A1.9,1.9,0,0,0,179,8Z" transform="translate(-0.4 -1.4)" fill="#00b0f0"/><path d="M182,9.1a2.1,2.1,0,0,1-1.7-.7,2.4,2.4,0,0,1-.7-1.8,2.6,2.6,0,0,1,.7-2,2.5,2.5,0,0,1,1.9-.7,2.1,2.1,0,0,1,1.7.7,2.7,2.7,0,0,1,.6,1.9,2.9,2.9,0,0,1-.6,1.9A2.5,2.5,0,0,1,182,9.1Zm.1-4.5a1.3,1.3,0,0,0-1.2.5,2,2,0,0,0-.5,1.4,2,2,0,0,0,.5,1.4,1.7,1.7,0,0,0,2.4,0,2,2,0,0,0,.4-1.4,2,2,0,0,0-.4-1.4A1.3,1.3,0,0,0,182.1,4.6Z" transform="translate(-0.4 -1.4)" fill="#00b0f0"/><path d="M192.7,9h-.8V6.1a2.1,2.1,0,0,0-.3-1.2,1.2,1.2,0,0,0-1.7.1,1.5,1.5,0,0,0-.4,1.1V9h-.8V6c0-1-.4-1.4-1.1-1.4a1,1,0,0,0-.9.4,2,2,0,0,0-.3,1.1V9h-.8V4h.8v.8h0a1.6,1.6,0,0,1,1.5-.9,1.2,1.2,0,0,1,.9.3,1.3,1.3,0,0,1,.6.7,1.6,1.6,0,0,1,1.6-1c1.1,0,1.7.7,1.7,2Z" transform="translate(-0.4 -1.4)" fill="#00b0f0"/><path d="M197.3,6.3V9h-.8V2h2a2.9,2.9,0,0,1,1.7.5,2.1,2.1,0,0,1,.6,1.6,2,2,0,0,1-.7,1.6,2.4,2.4,0,0,1-1.8.6Zm0-3.6V5.6h.9a1.7,1.7,0,0,0,1.3-.4,1.3,1.3,0,0,0,.5-1.1c0-.9-.6-1.4-1.7-1.4Z" transform="translate(-0.4 -1.4)" fill="#00b0f0"/><path d="M206.8,9h-1.2l-2.7-3.2-.2-.3h0V9h-.8V2h.8V5.3h0l.2-.3,2.6-3h1l-3,3.4Z" transform="translate(-0.4 -1.4)" fill="#00b0f0"/><path d="M211.8,8.7a4.2,4.2,0,0,1-2,.4,3.2,3.2,0,0,1-2.4-.9,3.7,3.7,0,0,1-.9-2.6,4.1,4.1,0,0,1,1-2.7,3.5,3.5,0,0,1,2.6-1,4.3,4.3,0,0,1,1.7.3V3a4.7,4.7,0,0,0-1.7-.4,2.8,2.8,0,0,0-2,.8,3.2,3.2,0,0,0-.7,2.2,2.7,2.7,0,0,0,.7,2,2.5,2.5,0,0,0,1.8.8,4.1,4.1,0,0,0,1.9-.5Z" transform="translate(-0.4 -1.4)" fill="#00b0f0"/><path d="M216.6,9h-3.7V2h3.6v.7h-2.7V5.1h2.5v.7h-2.5V8.3h2.8Z" transform="translate(-0.4 -1.4)" fill="#00b0f0"/><path d="M217.7,10.6h-.8a6.2,6.2,0,0,0,1.6-4.3A6.2,6.2,0,0,0,216.9,2h.8a6.4,6.4,0,0,1,1.5,4.3A6.4,6.4,0,0,1,217.7,10.6Z" transform="translate(-0.4 -1.4)" fill="#00b0f0"/><path d="M35.3,18.5H32.6v-.6h2.7Z" transform="translate(-0.4 -1.4)" fill="#00b0f0"/><path d="M45,21h-.9l-.7-2h-3l-.7,2h-.9l2.7-7h.8Zm-1.9-2.7-1.1-3a2,2,0,0,1-.1-.5h0a1.1,1.1,0,0,0-.1.5l-1.1,3Z" transform="translate(-0.4 -1.4)" fill="#00b0f0"/><path d="M50,21h-.8v-.8h0a1.8,1.8,0,0,1-1.6.9q-1.8,0-1.8-2.1V16h.8v2.9q0,1.5,1.2,1.5a1.2,1.2,0,0,0,1-.4,1.5,1.5,0,0,0,.4-1.1V16H50Z" transform="translate(-0.4 -1.4)" fill="#00b0f0"/><path d="M53.9,20.9a.8.8,0,0,1-.7.2c-.9,0-1.3-.5-1.3-1.5V16.7H51V16h.9V14.8l.8-.3V16h1.2v.7H52.7v2.8c0,.3,0,.6.1.7s.3.2.6.2h.5Z" transform="translate(-0.4 -1.4)" fill="#00b0f0"/><path d="M59,18.7H55.5a1.7,1.7,0,0,0,.4,1.3,1.6,1.6,0,0,0,1.2.4,2.4,2.4,0,0,0,1.6-.5v.7a2.7,2.7,0,0,1-1.8.5,1.9,1.9,0,0,1-1.6-.7,2.4,2.4,0,0,1-.7-1.9,2.9,2.9,0,0,1,.7-1.9,2.2,2.2,0,0,1,1.7-.7,2,2,0,0,1,1.5.6,3,3,0,0,1,.5,1.8Zm-.8-.7a2,2,0,0,0-.3-1.1,1.7,1.7,0,0,0-1-.3,1.1,1.1,0,0,0-.9.4,1.2,1.2,0,0,0-.5,1Z" transform="translate(-0.4 -1.4)" fill="#00b0f0"/><path d="M64.4,21h-.8V18.1q0-1.5-1.2-1.5a1.3,1.3,0,0,0-1,.4,2.1,2.1,0,0,0-.4,1.1V21h-.8V16H61v.8h0a2,2,0,0,1,1.7-.9,1.7,1.7,0,0,1,1.2.5,2.5,2.5,0,0,1,.5,1.5Z" transform="translate(-0.4 -1.4)" fill="#00b0f0"/><path d="M68.2,20.9a.8.8,0,0,1-.7.2c-.9,0-1.4-.5-1.4-1.5V16.7h-.8V16h.8V14.8l.8-.3V16h1.3v.7H66.9v2.8a1.2,1.2,0,0,0,.2.7c.1.2.3.2.6.2h.5Z" transform="translate(-0.4 -1.4)" fill="#00b0f0"/><path d="M69.7,14.7h-.4c-.1-.1-.1-.2-.1-.4a.6.6,0,0,1,.1-.4h.8a.6.6,0,0,1,.1.4c0,.2,0,.3-.1.4Zm.4,6.3h-.8V16h.8Z" transform="translate(-0.4 -1.4)" fill="#00b0f0"/><path d="M75.1,20.8a2.9,2.9,0,0,1-1.4.3,2.1,2.1,0,0,1-1.7-.7,2.5,2.5,0,0,1-.7-1.8,2.8,2.8,0,0,1,.8-2,2.3,2.3,0,0,1,1.8-.7l1.2.2v.8a2.7,2.7,0,0,0-1.2-.3,1.3,1.3,0,0,0-1.2.5,1.7,1.7,0,0,0-.5,1.4,2,2,0,0,0,.4,1.4,1.4,1.4,0,0,0,1.3.5,1.9,1.9,0,0,0,1.2-.4Z" transform="translate(-0.4 -1.4)" fill="#00b0f0"/><path d="M79.9,21h-.8v-.8h0a1.8,1.8,0,0,1-1.6.9,1.2,1.2,0,0,1-1.1-.4,1.2,1.2,0,0,1-.5-1c0-1,.6-1.5,1.7-1.7l1.5-.2c0-.8-.4-1.2-1-1.2a2.7,2.7,0,0,0-1.7.6v-.9a3.3,3.3,0,0,1,1.7-.4,1.6,1.6,0,0,1,1.8,1.8Zm-.8-2.5H77.9l-.9.3a1.2,1.2,0,0,0-.2.7c0,.3,0,.5.2.6a.8.8,0,0,0,.7.2A1.4,1.4,0,0,0,79.1,19Z" transform="translate(-0.4 -1.4)" fill="#00b0f0"/><path d="M84.8,20.8a2.9,2.9,0,0,1-1.4.3,2.1,2.1,0,0,1-1.7-.7,2.4,2.4,0,0,1-.6-1.8,2.7,2.7,0,0,1,.7-2,2.4,2.4,0,0,1,1.9-.7l1.1.2v.8a2.7,2.7,0,0,0-1.2-.3,1.3,1.3,0,0,0-1.2.5,1.7,1.7,0,0,0-.5,1.4,2,2,0,0,0,.4,1.4,1.5,1.5,0,0,0,1.3.5,1.9,1.9,0,0,0,1.2-.4Zm-.4,1.4c0,.6-.5.9-1.4.9h-.3v-.4h.4c.4,0,.7-.2.7-.5s-.3-.3-.7-.3h-.2V21h.6v.5l.6.2A.5.5,0,0,1,84.4,22.2Z" transform="translate(-0.4 -1.4)" fill="#00b0f0"/><path d="M89.6,21h-.8v-.8h0a1.8,1.8,0,0,1-1.6.9,1.2,1.2,0,0,1-1.1-.4,1.2,1.2,0,0,1-.5-1c0-1,.6-1.5,1.7-1.7l1.5-.2c0-.8-.4-1.2-1-1.2a2.7,2.7,0,0,0-1.7.6v-.9a3.3,3.3,0,0,1,1.7-.4,1.6,1.6,0,0,1,1.8,1.8Zm-.3-7.1a1.9,1.9,0,0,1-.2.8.9.9,0,0,1-.6.3,1.2,1.2,0,0,1-.8-.2,1,1,0,0,0-.6-.2c-.3,0-.4.2-.4.5h-.5a1.9,1.9,0,0,1,.2-.8.9.9,0,0,1,.7-.3l.7.2a1,1,0,0,0,.6.2c.3,0,.4-.1.4-.5Zm-.5,4.6H87.6l-.9.3a1.2,1.2,0,0,0-.2.7.7.7,0,0,0,.9.8A1.4,1.4,0,0,0,88.8,19Z" transform="translate(-0.4 -1.4)" fill="#00b0f0"/><path d="M93.2,21.1a2.4,2.4,0,0,1-1.8-.7,2.8,2.8,0,0,1-.6-1.8,3,3,0,0,1,.6-2,2.5,2.5,0,0,1,1.9-.7,2.3,2.3,0,0,1,1.8.7,2.7,2.7,0,0,1,.6,1.9,2.5,2.5,0,0,1-.7,1.9A2.1,2.1,0,0,1,93.2,21.1Zm.1-4.5a1.4,1.4,0,0,0-1.3.5,2,2,0,0,0-.4,1.4,2,2,0,0,0,.4,1.4,1.4,1.4,0,0,0,1.3.5c.5,0,.9-.1,1.1-.5a2.2,2.2,0,0,0,0-2.8C94.2,16.7,93.8,16.6,93.3,16.6Z" transform="translate(-0.4 -1.4)" fill="#00b0f0"/><path d="M100.6,21h-.8V14h.8Z" transform="translate(-0.4 -1.4)" fill="#00b0f0"/><path d="M106.5,21h-.8V18.1q0-1.5-1.2-1.5a1,1,0,0,0-.9.4,1.5,1.5,0,0,0-.4,1.1V21h-.8V16h.8v.8h0a1.8,1.8,0,0,1,1.6-.9,1.7,1.7,0,0,1,1.3.5,2.4,2.4,0,0,1,.4,1.5Z" transform="translate(-0.4 -1.4)" fill="#00b0f0"/><path d="M110.3,20.9c-.1.2-.4.2-.7.2s-1.3-.5-1.3-1.5V16.7h-.9V16h.9V14.8l.8-.3V16h1.2v.7h-1.2v2.8c0,.3,0,.6.2.7s.3.2.5.2h.5Z" transform="translate(-0.4 -1.4)" fill="#00b0f0"/><path d="M115.4,18.7h-3.5a2.2,2.2,0,0,0,.4,1.3,1.6,1.6,0,0,0,1.2.4,2.4,2.4,0,0,0,1.6-.5v.7a2.6,2.6,0,0,1-1.8.5,1.9,1.9,0,0,1-1.6-.7,2.7,2.7,0,0,1-.6-1.9,2.9,2.9,0,0,1,.6-1.9,2.2,2.2,0,0,1,1.7-.7,2,2,0,0,1,1.5.6,2.4,2.4,0,0,1,.5,1.8Zm-.8-.7a2,2,0,0,0-.3-1.1,1.4,1.4,0,0,0-.9-.3,1.3,1.3,0,0,0-1,.4,1.6,1.6,0,0,0-.5,1Z" transform="translate(-0.4 -1.4)" fill="#00b0f0"/><path d="M120.9,20.6c0,1.8-.9,2.7-2.6,2.7a4.7,4.7,0,0,1-1.7-.3v-.8a4.1,4.1,0,0,0,1.7.5c1.2,0,1.8-.7,1.8-2v-.5h0a2,2,0,0,1-1.7.9,1.6,1.6,0,0,1-1.5-.7,2.4,2.4,0,0,1-.6-1.7,3.3,3.3,0,0,1,.6-2.1,2.1,2.1,0,0,1,1.7-.7,1.5,1.5,0,0,1,1.5.8h0V16h.8Zm-.8-1.9V18a1.4,1.4,0,0,0-1.4-1.4,1.3,1.3,0,0,0-1.2.5,3.3,3.3,0,0,0-.4,1.5,2.2,2.2,0,0,0,.4,1.3,1.2,1.2,0,0,0,1.1.5,1.5,1.5,0,0,0,1.1-.4A2,2,0,0,0,120.1,18.7Z" transform="translate(-0.4 -1.4)" fill="#00b0f0"/><path d="M125.1,16.8a.8.8,0,0,0-.6-.2,1,1,0,0,0-.8.5,2,2,0,0,0-.4,1.3V21h-.8V16h.8v1h0a2.4,2.4,0,0,1,.6-.8,1.1,1.1,0,0,1,.8-.3h.4Z" transform="translate(-0.4 -1.4)" fill="#00b0f0"/><path d="M129.6,21h-.8v-.8h0a1.8,1.8,0,0,1-1.6.9,1.2,1.2,0,0,1-1.1-.4,1.2,1.2,0,0,1-.5-1c0-1,.6-1.5,1.7-1.7l1.5-.2c0-.8-.4-1.2-1-1.2a2.7,2.7,0,0,0-1.7.6v-.9a3.3,3.3,0,0,1,1.7-.4,1.6,1.6,0,0,1,1.8,1.8Zm-.8-2.5h-1.2l-.9.3c-.2.1-.2.4-.2.7s0,.5.2.6a.8.8,0,0,0,.7.2,1.4,1.4,0,0,0,1.4-1.4Z" transform="translate(-0.4 -1.4)" fill="#00b0f0"/><path d="M135.4,21h-.8v-.9h-.1a1.7,1.7,0,0,1-1.7,1,1.8,1.8,0,0,1-1.5-.7,2.4,2.4,0,0,1-.5-1.8,3.2,3.2,0,0,1,.6-2,1.9,1.9,0,0,1,1.6-.7,1.5,1.5,0,0,1,1.5.8h.1V13.6h.8Zm-.8-2.3V18a1.8,1.8,0,0,0-.4-1,1.4,1.4,0,0,0-1.1-.4,1.3,1.3,0,0,0-1.1.5,2.1,2.1,0,0,0-.4,1.5,1.8,1.8,0,0,0,.4,1.3c.2.4.6.5,1.1.5a1.2,1.2,0,0,0,1-.4A2.1,2.1,0,0,0,134.6,18.7Z" transform="translate(-0.4 -1.4)" fill="#00b0f0"/><path d="M140.6,21h-.8v-.8h-.1a1.6,1.6,0,0,1-1.5.9,1.6,1.6,0,0,1-1.2-.4,1.5,1.5,0,0,1-.4-1c0-1,.6-1.5,1.7-1.7l1.5-.2c0-.8-.4-1.2-1.1-1.2a2.5,2.5,0,0,0-1.6.6v-.9a3.3,3.3,0,0,1,1.7-.4,1.6,1.6,0,0,1,1.8,1.8Zm-.8-2.5h-1.2l-.9.3a.8.8,0,0,0-.3.7.6.6,0,0,0,.3.6.8.8,0,0,0,.7.2,1.3,1.3,0,0,0,1-.4,1.8,1.8,0,0,0,.4-1Z" transform="translate(-0.4 -1.4)" fill="#00b0f0"/><path d="M149.1,21h-.8v-.9h0a1.9,1.9,0,0,1-1.8,1,1.8,1.8,0,0,1-1.5-.7,3,3,0,0,1-.5-1.8,3.2,3.2,0,0,1,.6-2,2.1,2.1,0,0,1,1.7-.7,1.7,1.7,0,0,1,1.5.8h0V13.6h.8Zm-.8-2.3V18a1.8,1.8,0,0,0-.4-1,1.3,1.3,0,0,0-1-.4,1.3,1.3,0,0,0-1.2.5,2.1,2.1,0,0,0-.4,1.5,1.8,1.8,0,0,0,.4,1.3,1.2,1.2,0,0,0,1.1.5,1.5,1.5,0,0,0,1.1-.4A2.8,2.8,0,0,0,148.3,18.7Z" transform="translate(-0.4 -1.4)" fill="#00b0f0"/><path d="M152.8,21.1a2.3,2.3,0,0,1-1.8-.7,2.8,2.8,0,0,1-.6-1.8,3,3,0,0,1,.6-2,2.5,2.5,0,0,1,1.9-.7,2.4,2.4,0,0,1,1.8.7,2.7,2.7,0,0,1,.6,1.9,2.5,2.5,0,0,1-.7,1.9A2.3,2.3,0,0,1,152.8,21.1Zm0-4.5a1.3,1.3,0,0,0-1.2.5,2,2,0,0,0-.4,1.4,2,2,0,0,0,.4,1.4,1.3,1.3,0,0,0,1.2.5c.6,0,1-.1,1.2-.5a2.2,2.2,0,0,0,0-2.8C153.8,16.7,153.4,16.6,152.8,16.6Z" transform="translate(-0.4 -1.4)" fill="#00b0f0"/><path d="M167.7,14l-2,7h-.9l-1.5-5.1c0-.2-.1-.5-.1-.7h0c0,.2-.1.4-.1.7L161.6,21h-.9l-2.1-7h.9l1.5,5.4a1.5,1.5,0,0,1,.1.7h0a6.4,6.4,0,0,0,.2-.7l1.5-5.4h.8l1.5,5.4a1.5,1.5,0,0,1,.1.7h.1a2,2,0,0,1,.1-.7l1.4-5.4Z" transform="translate(-0.4 -1.4)" fill="#00b0f0"/><path d="M169,14.7h-.3a.5.5,0,0,1-.2-.4l.2-.4h.7l.2.4a.5.5,0,0,1-.2.4Zm.4,6.3h-.8V16h.8Z" transform="translate(-0.4 -1.4)" fill="#00b0f0"/><path d="M175.2,21h-.8V18.1q0-1.5-1.2-1.5a1,1,0,0,0-.9.4,1.5,1.5,0,0,0-.4,1.1V21h-.8V16h.8v.8h0a1.8,1.8,0,0,1,1.6-.9,1.7,1.7,0,0,1,1.3.5,2.4,2.4,0,0,1,.4,1.5Z" transform="translate(-0.4 -1.4)" fill="#00b0f0"/><path d="M181,21h-.8v-.9h0a1.9,1.9,0,0,1-1.8,1,1.8,1.8,0,0,1-1.5-.7,3,3,0,0,1-.5-1.8,3.2,3.2,0,0,1,.6-2,2.1,2.1,0,0,1,1.7-.7,1.5,1.5,0,0,1,1.5.8h0V13.6h.8Zm-.8-2.3V18a1.4,1.4,0,0,0-1.4-1.4,1.3,1.3,0,0,0-1.2.5,2.1,2.1,0,0,0-.4,1.5,1.8,1.8,0,0,0,.4,1.3,1.2,1.2,0,0,0,1.1.5,1.5,1.5,0,0,0,1.1-.4A2.8,2.8,0,0,0,180.2,18.7Z" transform="translate(-0.4 -1.4)" fill="#00b0f0"/><path d="M184.7,21.1a2.4,2.4,0,0,1-1.8-.7,2.8,2.8,0,0,1-.6-1.8,2.6,2.6,0,0,1,.7-2,2.1,2.1,0,0,1,1.8-.7,2.3,2.3,0,0,1,1.8.7,2.7,2.7,0,0,1,.6,1.9,2.5,2.5,0,0,1-.7,1.9A2.1,2.1,0,0,1,184.7,21.1Zm.1-4.5a1.4,1.4,0,0,0-1.3.5,2,2,0,0,0-.4,1.4,2,2,0,0,0,.4,1.4,1.4,1.4,0,0,0,1.3.5c.5,0,.9-.1,1.1-.5a2.2,2.2,0,0,0,0-2.8C185.7,16.7,185.3,16.6,184.8,16.6Z" transform="translate(-0.4 -1.4)" fill="#00b0f0"/><path d="M194.8,16l-1.5,5h-.9l-1-3.6c0-.1-.1-.3-.1-.4h0a.8.8,0,0,1-.1.4L190.1,21h-.8l-1.5-5h.8l1,3.8c.1.1.1.2.1.4h.1v-.5L191,16h.7l1.1,3.8v.4h.1a.6.6,0,0,1,.1-.4l1-3.8Z" transform="translate(-0.4 -1.4)" fill="#00b0f0"/><path d="M195.4,20.8V20a2.3,2.3,0,0,0,1.4.4c.7,0,1.1-.2,1.1-.7a.4.4,0,0,0-.1-.3l-.2-.3h-.4l-.5-.2-.5-.3-.5-.3a.5.5,0,0,1-.2-.4.7.7,0,0,1-.1-.5,1.4,1.4,0,0,1,.2-.6l.4-.5.6-.2h.7l1.2.2v.8a2.8,2.8,0,0,0-1.3-.3h-.7c-.1.1-.2.2-.2.3a.5.5,0,0,0,0,.6l.2.2.3.2.5.2.6.2.4.3.3.4a1.3,1.3,0,0,1,.1.6.7.7,0,0,1-.2.6l-.4.5-.6.2h-.8A2.8,2.8,0,0,1,195.4,20.8Z" transform="translate(-0.4 -1.4)" fill="#00b0f0"/><path d="M35.3,30.5H32.6v-.6h2.7Z" transform="translate(-0.4 -1.4)" fill="#00b0f0"/><path d="M45.2,33h-1l-3.6-5.6c-.1-.1-.1-.3-.2-.4h0v6h-.8V26h1.1l3.5,5.5.3.5h0a3.1,3.1,0,0,1-.1-1.1V26h.8Z" transform="translate(-0.4 -1.4)" fill="#00b0f0"/><path d="M49.1,33.1a2.1,2.1,0,0,1-1.8-.7,2.9,2.9,0,0,1-.7-1.8,3,3,0,0,1,.7-2,2.5,2.5,0,0,1,1.9-.7,2.1,2.1,0,0,1,1.7.7,2.7,2.7,0,0,1,.7,1.9,2.9,2.9,0,0,1-.7,1.9A2.4,2.4,0,0,1,49.1,33.1Zm0-4.5a1.3,1.3,0,0,0-1.2.5,2,2,0,0,0-.4,1.4,2,2,0,0,0,.4,1.4,1.7,1.7,0,0,0,2.4,0,2,2,0,0,0,.4-1.4,2,2,0,0,0-.4-1.4A1.3,1.3,0,0,0,49.1,28.6Z" transform="translate(-0.4 -1.4)" fill="#00b0f0"/><path d="M59.9,33h-.8V30.1a3.7,3.7,0,0,0-.2-1.2,1.3,1.3,0,0,0-1.8.1,2,2,0,0,0-.3,1.1V33H56V30c0-1-.4-1.4-1.2-1.4a.9.9,0,0,0-.8.4,1.5,1.5,0,0,0-.4,1.1V33h-.8V28h.8v.8h.1a1.6,1.6,0,0,1,1.5-.9l.9.3a1.2,1.2,0,0,1,.5.7,1.8,1.8,0,0,1,1.7-1c1.1,0,1.6.7,1.6,2Z" transform="translate(-0.4 -1.4)" fill="#00b0f0"/><path d="M65.5,30.7H61.9a1.7,1.7,0,0,0,.5,1.3,1.6,1.6,0,0,0,1.2.4,2.3,2.3,0,0,0,1.5-.5v.7a2.3,2.3,0,0,1-1.7.5,2.1,2.1,0,0,1-1.7-.7,2.7,2.7,0,0,1-.6-1.9,2.5,2.5,0,0,1,.7-1.9,2,2,0,0,1,1.6-.7,1.8,1.8,0,0,1,1.5.6,2.4,2.4,0,0,1,.6,1.8Zm-.9-.7a2,2,0,0,0-.3-1.1,1.2,1.2,0,0,0-.9-.3,1.3,1.3,0,0,0-1,.4,2.3,2.3,0,0,0-.5,1Z" transform="translate(-0.4 -1.4)" fill="#00b0f0"/><path d="M73.7,33h-.8v-.9h0a1.9,1.9,0,0,1-1.8,1,1.8,1.8,0,0,1-1.5-.7,3,3,0,0,1-.5-1.8,3.2,3.2,0,0,1,.6-2,2.1,2.1,0,0,1,1.7-.7,1.7,1.7,0,0,1,1.5.8h0V25.6h.8Zm-.8-2.3V30a1.8,1.8,0,0,0-.4-1,1.3,1.3,0,0,0-1-.4,1.3,1.3,0,0,0-1.2.5,2.1,2.1,0,0,0-.4,1.5,1.8,1.8,0,0,0,.4,1.3,1.2,1.2,0,0,0,1.1.5,1.5,1.5,0,0,0,1.1-.4A2.8,2.8,0,0,0,72.9,30.7Z" transform="translate(-0.4 -1.4)" fill="#00b0f0"/><path d="M79.3,30.7H75.8a2.2,2.2,0,0,0,.4,1.3,1.6,1.6,0,0,0,1.2.4,2.4,2.4,0,0,0,1.6-.5v.7a2.6,2.6,0,0,1-1.8.5,1.9,1.9,0,0,1-1.6-.7,2.7,2.7,0,0,1-.6-1.9,2.9,2.9,0,0,1,.6-1.9,2.2,2.2,0,0,1,1.7-.7,2,2,0,0,1,1.5.6,3,3,0,0,1,.5,1.8Zm-.8-.7a2,2,0,0,0-.3-1.1,1.6,1.6,0,0,0-.9-.3,1.3,1.3,0,0,0-1,.4,1.6,1.6,0,0,0-.5,1Z" transform="translate(-0.4 -1.4)" fill="#00b0f0"/><path d="M87.3,33h-.8v-.8h0a1.6,1.6,0,0,1-1.5.9q-1.8,0-1.8-2.1V28H84v2.9q0,1.5,1.2,1.5a1,1,0,0,0,.9-.4,1.5,1.5,0,0,0,.4-1.1V28h.8Z" transform="translate(-0.4 -1.4)" fill="#00b0f0"/><path d="M88.6,32.8V32a2.6,2.6,0,0,0,1.5.4c.7,0,1-.2,1-.7a.4.4,0,0,0-.1-.3l-.2-.3h-.4l-.4-.2-.6-.3-.4-.3-.3-.4a4.3,4.3,0,0,1-.1-.5,1.4,1.4,0,0,1,.2-.6l.4-.5.6-.2h.8l1.1.2v.8a2.8,2.8,0,0,0-1.3-.3h-.7l-.2.3v.6l.2.2.4.2.4.2.6.2.5.3c.1.2.2.3.2.4a1.8,1.8,0,0,1,0,1.2c-.1.2-.3.3-.5.5l-.6.2H90A3.2,3.2,0,0,1,88.6,32.8Z" transform="translate(-0.4 -1.4)" fill="#00b0f0"/><path d="M97.2,33h-.8v-.8h0a1.6,1.6,0,0,1-1.5.9q-1.8,0-1.8-2.1V28h.8v2.9q0,1.5,1.2,1.5A1,1,0,0,0,96,32a1.5,1.5,0,0,0,.4-1.1V28h.8Z" transform="translate(-0.4 -1.4)" fill="#00b0f0"/><path d="M102.4,33h-.8v-.8h0a1.8,1.8,0,0,1-1.5.9,1.6,1.6,0,0,1-1.2-.4,1.2,1.2,0,0,1-.4-1c0-1,.5-1.5,1.6-1.7l1.5-.2c0-.8-.3-1.2-1-1.2a2.7,2.7,0,0,0-1.7.6v-.9a3.3,3.3,0,0,1,1.7-.4,1.6,1.6,0,0,1,1.8,1.8Zm-.8-2.5h-1.2l-.8.3a.8.8,0,0,0-.3.7.7.7,0,0,0,.9.8,1.2,1.2,0,0,0,1-.4,1.3,1.3,0,0,0,.4-1Zm.1-5.1L100.4,27h-.6l1.1-1.6Z" transform="translate(-0.4 -1.4)" fill="#00b0f0"/><path d="M106.5,28.8a.8.8,0,0,0-.6-.2,1,1,0,0,0-.8.5,2,2,0,0,0-.4,1.3V33h-.8V28h.8v1h0a2.4,2.4,0,0,1,.6-.8,1.1,1.1,0,0,1,.7-.3h.5Z" transform="translate(-0.4 -1.4)" fill="#00b0f0"/><path d="M107.8,26.7h-.4c-.1-.1-.1-.2-.1-.4a.6.6,0,0,1,.1-.4h.8a.6.6,0,0,1,.1.4c0,.2,0,.3-.1.4Zm.4,6.3h-.8V28h.8Z" transform="translate(-0.4 -1.4)" fill="#00b0f0"/><path d="M111.9,33.1a2.4,2.4,0,0,1-1.8-.7,2.8,2.8,0,0,1-.6-1.8,2.6,2.6,0,0,1,.7-2,2.7,2.7,0,0,1,3.6,0,2.7,2.7,0,0,1,.6,1.9,2.5,2.5,0,0,1-.7,1.9A2.1,2.1,0,0,1,111.9,33.1Zm.1-4.5a1.5,1.5,0,0,0-1.3.5,2,2,0,0,0-.4,1.4,1.6,1.6,0,0,0,.5,1.4,1.7,1.7,0,0,0,2.4,0,2.6,2.6,0,0,0,0-2.8A1.3,1.3,0,0,0,112,28.6Z" transform="translate(-0.4 -1.4)" fill="#00b0f0"/><path d="M118.8,26l-3.3,8.2h-.8l3.4-8.2Z" transform="translate(-0.4 -1.4)" fill="#00b0f0"/><path d="M119.4,32.7v-1l.4.3.4.2h1a2.1,2.1,0,0,0,1.2-.3,1.1,1.1,0,0,0,.3-.8.7.7,0,0,0-.1-.5l-.3-.4-.5-.3-.7-.4-.7-.3c-.2-.2-.4-.3-.5-.5a1,1,0,0,1-.4-.5,1.5,1.5,0,0,1-.1-.7,1.1,1.1,0,0,1,.2-.8l.5-.6.8-.3h.9l1.5.2V27a3.4,3.4,0,0,0-1.6-.4h-.5l-.5.2a.5.5,0,0,0-.3.3.8.8,0,0,0-.2.5c0,.2.1.3.1.4l.3.4.5.3.6.3.8.4c.2.2.4.3.5.5a1,1,0,0,1,.4.5,1.9,1.9,0,0,1,.2.7,2,2,0,0,1-.2.9l-.6.6-.7.3h-2.4Z" transform="translate(-0.4 -1.4)" fill="#00b0f0"/><path d="M128.9,30.7h-3.5a1.7,1.7,0,0,0,.4,1.3,1.6,1.6,0,0,0,1.2.4,2.4,2.4,0,0,0,1.6-.5v.7a2.7,2.7,0,0,1-1.8.5,1.9,1.9,0,0,1-1.6-.7,2.4,2.4,0,0,1-.7-1.9,2.9,2.9,0,0,1,.7-1.9,2,2,0,0,1,1.6-.7,2.1,2.1,0,0,1,1.6.6,3,3,0,0,1,.5,1.8Zm-.8-.7a2,2,0,0,0-.3-1.1,1.7,1.7,0,0,0-1-.3,1.1,1.1,0,0,0-.9.4,1.2,1.2,0,0,0-.5,1Z" transform="translate(-0.4 -1.4)" fill="#00b0f0"/><path d="M134.3,33h-.8V30.1q0-1.5-1.2-1.5a1.3,1.3,0,0,0-1,.4,1.5,1.5,0,0,0-.4,1.1V33h-.8V28h.8v.8h0a2,2,0,0,1,1.7-.9,1.7,1.7,0,0,1,1.2.5,2.5,2.5,0,0,1,.5,1.5Z" transform="translate(-0.4 -1.4)" fill="#00b0f0"/><path d="M139.9,33h-.8V30.1c0-1-.4-1.5-1.1-1.5a1.2,1.2,0,0,0-1,.4,1.6,1.6,0,0,0-.4,1.2V33h-.8V25.6h.8v3.2h0a1.8,1.8,0,0,1,1.6-.9c1.2,0,1.7.7,1.7,2Z" transform="translate(-0.4 -1.4)" fill="#00b0f0"/><path d="M145,33h-.8v-.8h0a1.8,1.8,0,0,1-1.5.9,1.6,1.6,0,0,1-1.2-.4,1.2,1.2,0,0,1-.4-1c0-1,.5-1.5,1.6-1.7l1.5-.2c0-.8-.3-1.2-1-1.2a2.3,2.3,0,0,0-1.6.6v-.9a2.9,2.9,0,0,1,1.7-.4c1.1,0,1.7.6,1.7,1.8Zm-.8-2.5H143l-.8.3a.8.8,0,0,0-.3.7.8.8,0,0,0,.2.6,1,1,0,0,0,.7.2,1.2,1.2,0,0,0,1-.4,1.3,1.3,0,0,0,.4-1Z" transform="translate(-0.4 -1.4)" fill="#00b0f0"/><path d="M27.1,77.9h-.9L25.5,76h-3l-.7,1.9h-.9l2.7-7h.8Zm-1.9-2.7-1.1-3a.8.8,0,0,0-.1-.4h0c0,.2-.1.3-.1.4l-1.1,3Z" transform="translate(-0.4 -1.4)"/><path d="M28.9,77.2h0v3h-.8V72.9h.8v.9h0a1.9,1.9,0,0,1,1.7-1,1.6,1.6,0,0,1,1.5.7,2.4,2.4,0,0,1,.6,1.8,3.2,3.2,0,0,1-.6,2,2.1,2.1,0,0,1-1.7.7A1.7,1.7,0,0,1,28.9,77.2Zm0-2v.7a1.2,1.2,0,0,0,.4,1,1.4,1.4,0,0,0,1,.5,1.4,1.4,0,0,0,1.2-.6,3.3,3.3,0,0,0,.4-1.5,2.2,2.2,0,0,0-.4-1.3,1.2,1.2,0,0,0-1.1-.5,1.3,1.3,0,0,0-1.1.5A1.6,1.6,0,0,0,28.9,75.2Z" transform="translate(-0.4 -1.4)"/><path d="M34.8,77.9H34V70.5h.8Z" transform="translate(-0.4 -1.4)"/><path d="M36.8,71.7l-.3-.2a.5.5,0,0,1-.2-.4l.2-.3.3-.2.4.2.2.3a.7.7,0,0,1-.6.6Zm.4,6.2h-.8v-5h.8Z" transform="translate(-0.4 -1.4)"/><path d="M42.3,77.7a3.2,3.2,0,0,1-1.4.3,2.1,2.1,0,0,1-1.7-.7,2.1,2.1,0,0,1-.7-1.8,2.9,2.9,0,0,1,.7-1.9,2.6,2.6,0,0,1,1.9-.8,2.1,2.1,0,0,1,1.2.3v.8a1.9,1.9,0,0,0-1.2-.4,2.1,2.1,0,0,0-1.3.5,2.5,2.5,0,0,0-.5,1.5,2.2,2.2,0,0,0,.5,1.4,1.7,1.7,0,0,0,1.2.5,2.1,2.1,0,0,0,1.3-.5Z" transform="translate(-0.4 -1.4)"/><path d="M47.1,77.9h-.8v-.8h0a1.8,1.8,0,0,1-1.6.9,1.2,1.2,0,0,1-1.1-.4,1.2,1.2,0,0,1-.5-1c0-.9.6-1.5,1.7-1.6l1.5-.2c0-.9-.4-1.3-1-1.3a2.7,2.7,0,0,0-1.7.6v-.8a3.4,3.4,0,0,1,1.7-.5c1.2,0,1.8.6,1.8,1.9Zm-.8-2.5-1.2.2-.9.2a1.4,1.4,0,0,0-.2.7c0,.3,0,.5.2.6a.9.9,0,0,0,.7.3,1.8,1.8,0,0,0,1-.4,1.5,1.5,0,0,0,.4-1.1Z" transform="translate(-0.4 -1.4)"/><path d="M50.9,77.9h-.7c-.9,0-1.3-.5-1.3-1.4v-3H48v-.7h.9V71.7l.8-.3v1.5h1.2v.7H49.7v2.8c0,.4,0,.6.1.7a.7.7,0,0,0,.6.3l.5-.2Z" transform="translate(-0.4 -1.4)"/><path d="M52.4,71.7l-.3-.2a.5.5,0,0,1-.2-.4l.2-.3.3-.2a.5.5,0,0,1,.4.2l.2.3a.7.7,0,0,1-.6.6Zm.4,6.2H52v-5h.8Z" transform="translate(-0.4 -1.4)"/><path d="M58.4,72.9l-2,5h-.8l-1.9-5h.9l1.3,3.7a1.7,1.7,0,0,1,.1.7h.1c0-.3.1-.5.1-.7l1.4-3.7Z" transform="translate(-0.4 -1.4)"/><path d="M61.4,78a2.1,2.1,0,0,1-1.8-.7,2.5,2.5,0,0,1-.7-1.8,3,3,0,0,1,.7-2,2.5,2.5,0,0,1,1.9-.7,2.1,2.1,0,0,1,1.7.7,2.9,2.9,0,0,1,0,3.8A2.4,2.4,0,0,1,61.4,78Zm0-4.5a1.7,1.7,0,0,0-1.2.5,2.2,2.2,0,0,0-.4,1.5,2.3,2.3,0,0,0,.4,1.4,1.7,1.7,0,0,0,2.4,0,2.2,2.2,0,0,0,.4-1.5,2,2,0,0,0-.4-1.4A1.7,1.7,0,0,0,61.4,73.5Z" transform="translate(-0.4 -1.4)"/><path d="M72.2,77.9h-.8v-.8h0a2.2,2.2,0,0,1-3.3.3,3.6,3.6,0,0,1-.5-1.9,2.9,2.9,0,0,1,.6-1.9,2.1,2.1,0,0,1,1.7-.8,1.6,1.6,0,0,1,1.5.8h0V70.5h.8Zm-.8-2.2v-.8a1.8,1.8,0,0,0-.4-1,1.3,1.3,0,0,0-1-.4,1.7,1.7,0,0,0-1.2.5,2.4,2.4,0,0,0-.4,1.5,2.1,2.1,0,0,0,.4,1.4,1.4,1.4,0,0,0,1.1.5,1.6,1.6,0,0,0,1.1-.5A2.1,2.1,0,0,0,71.4,75.7Z" transform="translate(-0.4 -1.4)"/><path d="M77.4,77.9h-.8v-.8h0A1.8,1.8,0,0,1,75,78a1.4,1.4,0,0,1-1.1-.4,1.2,1.2,0,0,1-.4-1c0-.9.5-1.5,1.6-1.6l1.5-.2c0-.9-.3-1.3-1-1.3a2.7,2.7,0,0,0-1.7.6v-.8a3.4,3.4,0,0,1,1.7-.5c1.2,0,1.8.6,1.8,1.9Zm-.8-2.5-1.2.2-.8.2a.9.9,0,0,0-.3.7.8.8,0,0,0,.2.6.9.9,0,0,0,.7.3,1.5,1.5,0,0,0,1-.4,1.5,1.5,0,0,0,.4-1.1Z" transform="translate(-0.4 -1.4)"/><path d="M87.2,77.9h-.9L85.6,76h-3l-.7,1.9H81l2.7-7h.8Zm-1.9-2.7-1.1-3c0-.1-.1-.2-.1-.4h0a.8.8,0,0,0-.1.4l-1.1,3Zm-.2-6.5-1.3,1.6h-.6l1.1-1.6Z" transform="translate(-0.4 -1.4)"/><path d="M90.8,73.7h-.6a.9.9,0,0,0-.9.5,2.3,2.3,0,0,0-.3,1.3v2.5h-.8v-5H89V74h0a1.9,1.9,0,0,1,.5-.9,1.1,1.1,0,0,1,.8-.3h.5Z" transform="translate(-0.4 -1.4)"/><path d="M95.7,75.6H92.1a2.2,2.2,0,0,0,.5,1.3,1.7,1.7,0,0,0,1.2.5,2.2,2.2,0,0,0,1.5-.6v.8a2.9,2.9,0,0,1-1.7.4,2.4,2.4,0,0,1-1.7-.6,3,3,0,0,1-.6-2,2.6,2.6,0,0,1,.7-1.9,2.4,2.4,0,0,1,1.6-.7,1.8,1.8,0,0,1,1.5.6,2.8,2.8,0,0,1,.6,1.8Zm-.8-.7a1.5,1.5,0,0,0-.4-1,1,1,0,0,0-.9-.4,1.3,1.3,0,0,0-1,.4,1.8,1.8,0,0,0-.4,1Z" transform="translate(-0.4 -1.4)"/><path d="M100.5,77.9h-.8v-.8h0a1.8,1.8,0,0,1-1.6.9,1.2,1.2,0,0,1-1.1-.4,1.2,1.2,0,0,1-.5-1c0-.9.6-1.5,1.7-1.6l1.5-.2c0-.9-.4-1.3-1-1.3a2.7,2.7,0,0,0-1.7.6v-.8a3.4,3.4,0,0,1,1.7-.5c1.2,0,1.8.6,1.8,1.9Zm-.8-2.5-1.2.2-.9.2a1.4,1.4,0,0,0-.2.7c0,.3,0,.5.2.6a.9.9,0,0,0,.7.3,1.8,1.8,0,0,0,1-.4,1.5,1.5,0,0,0,.4-1.1Z" transform="translate(-0.4 -1.4)"/><path d="M40.1,89.9h-.8v-.8h0a1.9,1.9,0,0,1-1.7.9,2,2,0,0,1-1.5-.6,3.3,3.3,0,0,1,0-3.8,2.3,2.3,0,0,1,1.7-.8,1.6,1.6,0,0,1,1.5.8h0V82.5h.8Zm-.8-2.2v-.8a1.3,1.3,0,0,0-.4-1,1.2,1.2,0,0,0-1-.4,1.3,1.3,0,0,0-1.1.5,2.5,2.5,0,0,0-.5,1.5,2.9,2.9,0,0,0,.4,1.4,1.6,1.6,0,0,0,1.1.5,1.4,1.4,0,0,0,1.1-.5A1.6,1.6,0,0,0,39.3,87.7Z" transform="translate(-0.4 -1.4)"/><path d="M45.8,87.6H42.3a1.7,1.7,0,0,0,.4,1.3,1.7,1.7,0,0,0,1.2.5,2.2,2.2,0,0,0,1.5-.6v.8a2.9,2.9,0,0,1-1.7.4,2.4,2.4,0,0,1-1.7-.6,3,3,0,0,1-.6-2,2.6,2.6,0,0,1,.7-1.9,2.4,2.4,0,0,1,1.6-.7,1.8,1.8,0,0,1,1.5.6,2.8,2.8,0,0,1,.6,1.8Zm-.8-.7a1.5,1.5,0,0,0-.4-1,1.2,1.2,0,0,0-1.8,0,1.4,1.4,0,0,0-.5,1Z" transform="translate(-0.4 -1.4)"/><path d="M54,83.7H52v6.2h-.8V83.7h-2v-.8H54Z" transform="translate(-0.4 -1.4)"/><path d="M56.8,85.7h-.6a.9.9,0,0,0-.9.5,2.3,2.3,0,0,0-.3,1.3v2.5h-.8v-5H55V86h0a1.9,1.9,0,0,1,.5-.9,1.1,1.1,0,0,1,.8-.3h.5Z" transform="translate(-0.4 -1.4)"/><path d="M61.2,89.9h-.8v-.8h0a1.6,1.6,0,0,1-1.5.9,1.6,1.6,0,0,1-1.2-.4,1.2,1.2,0,0,1-.4-1c0-.9.5-1.5,1.6-1.6l1.5-.2c0-.9-.3-1.3-1-1.3a2.5,2.5,0,0,0-1.6.6v-.8a3.1,3.1,0,0,1,1.7-.5c1.2,0,1.7.6,1.7,1.9Zm-.8-2.5-1.2.2-.8.2a.9.9,0,0,0-.3.7.6.6,0,0,0,.3.6.8.8,0,0,0,.7.3,1.8,1.8,0,0,0,1-.4,2,2,0,0,0,.3-1.1Z" transform="translate(-0.4 -1.4)"/><path d="M63.6,89.2h0v.7h-.8V82.5h.8v3.3h0a1.9,1.9,0,0,1,1.7-1,1.6,1.6,0,0,1,1.5.7,2.4,2.4,0,0,1,.6,1.8,3.2,3.2,0,0,1-.6,2,2.1,2.1,0,0,1-1.7.7A1.5,1.5,0,0,1,63.6,89.2Zm0-2v.7a1.2,1.2,0,0,0,.4,1,1.2,1.2,0,0,0,1,.5,1.1,1.1,0,0,0,1.1-.6,2.4,2.4,0,0,0,.4-1.5,2.3,2.3,0,0,0-.3-1.3,1.2,1.2,0,0,0-1.1-.5A1.3,1.3,0,0,0,64,86,1.6,1.6,0,0,0,63.6,87.2Z" transform="translate(-0.4 -1.4)"/><path d="M72.2,89.9h-.8v-.8h0a1.6,1.6,0,0,1-1.5.9,1.6,1.6,0,0,1-1.2-.4,1.2,1.2,0,0,1-.4-1c0-.9.5-1.5,1.6-1.6l1.5-.2c0-.9-.3-1.3-1-1.3a2.5,2.5,0,0,0-1.6.6v-.8a3.1,3.1,0,0,1,1.7-.5c1.2,0,1.7.6,1.7,1.9Zm-.8-2.5-1.2.2-.8.2a.9.9,0,0,0-.3.7.6.6,0,0,0,.3.6.9.9,0,0,0,.7.3,1.8,1.8,0,0,0,1-.4,2,2,0,0,0,.3-1.1Z" transform="translate(-0.4 -1.4)"/><path d="M74.6,89.9h-.8V82.5h.8Z" transform="translate(-0.4 -1.4)"/><path d="M80.4,89.9h-.8V87q0-1.5-1.2-1.5a1.3,1.3,0,0,0-1,.4,2.1,2.1,0,0,0-.4,1.2v2.8h-.8V82.5H77v3.3h0a1.9,1.9,0,0,1,1.7-1c1.1,0,1.7.7,1.7,2Z" transform="translate(-0.4 -1.4)"/><path d="M84,90a2.3,2.3,0,0,1-1.8-.7,2.4,2.4,0,0,1-.6-1.8,3,3,0,0,1,.6-2,2.5,2.5,0,0,1,1.9-.7,2.1,2.1,0,0,1,1.7.7,2.9,2.9,0,0,1,0,3.8A2.4,2.4,0,0,1,84,90Zm0-4.5a1.7,1.7,0,0,0-1.2.5,2.2,2.2,0,0,0-.4,1.5,2.3,2.3,0,0,0,.4,1.4,1.7,1.7,0,0,0,1.2.5,1.4,1.4,0,0,0,1.2-.5,2.3,2.3,0,0,0,.5-1.5,2,2,0,0,0-.5-1.4A1.4,1.4,0,0,0,84,85.5Z" transform="translate(-0.4 -1.4)"/><path d="M165.9,54h-8.3l-53,.2H75.3a.9.9,0,0,0-.4.5.8.8,0,0,0,.4.7c.2.1.5,0,.8,0l41.9-.2h47.9Z" transform="translate(-0.4 -1.4)" fill="#505050"/></svg>