<svg xmlns="http://www.w3.org/2000/svg" viewBox="0 0 200.7 60.3"><title>OJ104546516</title><path d="M69.7,9.3H63.6c-.3,0-.4.2-.4.5V12c0,.2.1.3.4.3H67v3.4c0,.3.2.4.5.4h2.2c.2,0,.3-.1.3-.4v-6C70,9.5,69.9,9.3,69.7,9.3Zm-17.2,21H49V26.9c0-.2-.1-.3-.4-.3H46.4c-.2,0-.4.1-.4.3V33c0,.2.2.3.4.3h6.1c.2,0,.3-.1.3-.4V30.7C52.8,30.5,52.7,30.3,52.5,30.3ZM66,26.6h-.4l-2.3-4a3.1,3.1,0,0,0,.9-2.1,2.9,2.9,0,0,0-2.8-2.8,2,2,0,0,0-1.1.3l-2.5-3.5a2,2,0,0,0,.5-1.5A2.3,2.3,0,1,0,56,15.4h.7l2.5,3.5a3,3,0,0,0-.7,1.5l-7.2.6a1.8,1.8,0,0,0-1.6-1,1.8,1.8,0,0,0-1.9,1.9,1.8,1.8,0,0,0,1.9,1.8,1.9,1.9,0,0,0,1.9-1.5l7-.6a7.5,7.5,0,0,0,.7,1.2l-1.8,2.9h-.2a1.8,1.8,0,0,0-1.9,1.9,1.9,1.9,0,1,0,3.7,0,2.2,2.2,0,0,0-.5-1.4l1.7-2.8h1.8l2.4,4a2.4,2.4,0,0,0-.7,1.6,2.2,2.2,0,1,0,4.4,0A2.3,2.3,0,0,0,66,26.6Z" transform="translate(-0.4 -1.2)" fill="#007efd"/><path d="M7.8,13.6a4.5,4.5,0,0,0-2.9,5.7,4.5,4.5,0,0,0,5.3,3.6c2.3-.5,3.6-3.1,2.9-5.6S10.2,12.9,7.8,13.6Z" transform="translate(-0.4 -1.2)" fill="#008bfd"/><path d="M12.8,23.6c-.5,0-.9.8-1.6,1.1s-1.3.9-3.1,0S6,23.1,4.4,23.1.4,25.8.4,30H16a15.1,15.1,0,0,0-1.1-4.3C13.8,23.6,13.2,23.6,12.8,23.6Z" transform="translate(-0.4 -1.2)" fill="#008bfd"/><path d="M14.2,18.7H10.1c-.3,0-.7.3-.7.6v2.9a.9.9,0,0,0,.8.7h.7V28a1,1,0,0,0,1,1.1.9.9,0,0,0,1-1h.2v-.6a.4.4,0,0,1,.3-.4v-.3c-.3-.1-.5-.3-.5-.4V26l.2-.2.3-.5a3.3,3.3,0,0,1-.3-.6c-.1-.1-.1-.3-.2-.4v-.2a2.1,2.1,0,0,1,.8-1.1h.5c.3,0,.6-.4.6-.7v-3A.6.6,0,0,0,14.2,18.7Zm-2.4,9.5c0,.2,0,.3-.2.3s-.2-.2-.2-.3V23.4c0-.2.1-.3.2-.3s.2.2.2.3Zm.3-7.8a.6.6,0,0,1-.6-.6c0-.3.3-.7.6-.7a.8.8,0,0,1,.7.7C12.8,20.1,12.6,20.4,12.1,20.4Z" transform="translate(-0.4 -1.2)" fill="#008bfd" stroke="gray" stroke-linecap="round" stroke-linejoin="round" stroke-width="0.75"/><path d="M11.6,28.5l-.3-.2v-5c0-.1.2-.2.3-.2a.2.2,0,0,1,.2.2v5.1C11.8,28.5,11.7,28.5,11.6,28.5Z" transform="translate(-0.4 -1.2)" fill="#fff"/><ellipse cx="11.8" cy="18.6" rx="0.7" ry="0.7" fill="#fff"/><path d="M191.8,8.2H171.3a1.1,1.1,0,0,0-1.1,1.1V26a1.1,1.1,0,0,0,1.1,1.2h5.2a3.4,3.4,0,0,0,3.3,2.2,3.4,3.4,0,0,0,0-6.7,3.4,3.4,0,0,0-3.3,2.2h-4.1V13h18.3V24.9h-3.5a7.6,7.6,0,0,0-7.4-6.5,9.2,9.2,0,0,0-3.7.9l1,2a4.8,4.8,0,0,1,2.6-.7,5.5,5.5,0,0,1,0,10.9,4.8,4.8,0,0,1-2.6-.7l-1,2a7.8,7.8,0,0,0,3.7.9,7.6,7.6,0,0,0,7.4-6.5h4.6a1.1,1.1,0,0,0,1.1-1.2V9.3A1.2,1.2,0,0,0,191.8,8.2Z" transform="translate(-0.4 -1.2)" fill="#008bfd"/><path d="M161.7,17l8,4-7.9,4a9,9,0,0,0-.1-8" transform="translate(-0.4 -1.2)" fill="#505050"/><path d="M162.7,21" transform="translate(-0.4 -1.2)" fill="#505050"/><path d="M32.7,47.2h-.9l-.8-2H28l-.7,2h-.9l2.7-7.1H30Zm-2-2.7-1.1-3a1.1,1.1,0,0,0-.1-.5h0a.7.7,0,0,1-.1.5l-1.1,3Z" transform="translate(-0.4 -1.2)"/><path d="M34.4,46.4h0v3.1h-.8V42.2h.8V43h0a2.1,2.1,0,0,1,1.7-1,1.8,1.8,0,0,1,1.5.7,2.8,2.8,0,0,1,.6,1.8,3.2,3.2,0,0,1-.6,2,2.1,2.1,0,0,1-1.7.8A1.8,1.8,0,0,1,34.4,46.4Zm0-2v.7a1.5,1.5,0,0,0,.4,1.1,1.3,1.3,0,0,0,1,.4A1.4,1.4,0,0,0,37,46a2.7,2.7,0,0,0,.4-1.5,2.2,2.2,0,0,0-.4-1.3,1.4,1.4,0,0,0-1.1-.5,1.5,1.5,0,0,0-1.5,1.7Z" transform="translate(-0.4 -1.2)"/><path d="M40.3,47.2h-.8V39.7h.8Z" transform="translate(-0.4 -1.2)"/><path d="M42.3,40.9l-.4-.2a.4.4,0,0,1-.1-.3c0-.2,0-.3.1-.4l.4-.2.4.2c.1.1.1.2.1.4a.4.4,0,0,1-.1.3Zm.4,6.3h-.8v-5h.8Z" transform="translate(-0.4 -1.2)"/><path d="M47.7,46.9a2,2,0,0,1-1.3.4,2.7,2.7,0,0,1-1.8-.7,2.8,2.8,0,0,1-.6-1.8,2.6,2.6,0,0,1,.7-2,2.4,2.4,0,0,1,1.9-.8,2,2,0,0,1,1.1.3v.8a1.6,1.6,0,0,0-1.2-.4,1.4,1.4,0,0,0-1.2.6,2,2,0,0,0-.5,1.4,1.7,1.7,0,0,0,.5,1.4,1.7,1.7,0,0,0,1.2.5,2.8,2.8,0,0,0,1.2-.4Z" transform="translate(-0.4 -1.2)"/><path d="M52.5,47.2h-.8v-.8h0a1.8,1.8,0,0,1-1.5.9,2.1,2.1,0,0,1-1.2-.4,1.4,1.4,0,0,1-.4-1.1c0-.9.5-1.5,1.6-1.6l1.5-.2c0-.9-.3-1.3-1-1.3a2.7,2.7,0,0,0-1.7.6v-.8a3.4,3.4,0,0,1,1.7-.5,1.7,1.7,0,0,1,1.8,1.9Zm-.8-2.6-1.2.2a1,1,0,0,0-.8.3c-.2.1-.3.3-.3.7a1.4,1.4,0,0,0,.2.6l.7.2a1.2,1.2,0,0,0,1-.4,1.5,1.5,0,0,0,.4-1.1Z" transform="translate(-0.4 -1.2)"/><path d="M56.3,47.1l-.7.2c-.9,0-1.3-.5-1.3-1.5v-3h-.9v-.6h.9V40.9l.8-.2v1.5h1.2v.6H55.1v2.9a1.5,1.5,0,0,0,.1.7l.6.2.5-.2Z" transform="translate(-0.4 -1.2)"/><path d="M57.8,40.9l-.3-.2c-.2-.1-.2-.2-.2-.3s0-.3.2-.4l.3-.2a.5.5,0,0,1,.4.2c.1.1.1.2.1.4a.4.4,0,0,1-.1.3A.5.5,0,0,1,57.8,40.9Zm.4,6.3h-.8v-5h.8Z" transform="translate(-0.4 -1.2)"/><path d="M63.8,42.2l-2,5H61l-1.9-5H60l1.2,3.6a2.5,2.5,0,0,1,.2.7h0a6.4,6.4,0,0,1,.2-.7l1.3-3.6Z" transform="translate(-0.4 -1.2)"/><path d="M66.7,47.3a2.3,2.3,0,0,1-2.4-2.6,2.7,2.7,0,0,1,.7-2,2.7,2.7,0,0,1,3.6,0,2.9,2.9,0,0,1,.6,1.9,2.4,2.4,0,0,1-.7,1.9A2.2,2.2,0,0,1,66.7,47.3Zm.1-4.6a1.9,1.9,0,0,0-1.3.5,2.4,2.4,0,0,0-.4,1.5,1.7,1.7,0,0,0,.5,1.4,1.7,1.7,0,0,0,2.4,0,2.6,2.6,0,0,0,.4-1.4,3,3,0,0,0-.4-1.5A1.7,1.7,0,0,0,66.8,42.7Z" transform="translate(-0.4 -1.2)"/><path d="M72.9,47v-.9a2.7,2.7,0,0,0,1.5.5c.7,0,1-.2,1-.7s0-.3-.1-.3-.1-.2-.2-.3l-.4-.2-.4-.2-.6-.2-.4-.3L73,44c0-.2-.1-.3-.1-.5a.8.8,0,0,1,.2-.6,1,1,0,0,1,.4-.5l.6-.3h.7a2.1,2.1,0,0,1,1.2.3v.8a2,2,0,0,0-1.3-.4H74l-.2.2c0,.1-.1.2-.1.3a1,1,0,0,0,.1.3l.2.3.4.2h.4l.6.3.4.3c.2.1.3.2.3.4a.7.7,0,0,1,.1.5,1.5,1.5,0,0,1-.1.7l-.5.4-.6.3h-.7A2.9,2.9,0,0,1,72.9,47Z" transform="translate(-0.4 -1.2)"/><path d="M81.5,44.9H77.9a2.2,2.2,0,0,0,.5,1.2,1.7,1.7,0,0,0,1.2.5,2.2,2.2,0,0,0,1.5-.6v.8a2.9,2.9,0,0,1-1.7.5,2.4,2.4,0,0,1-1.7-.7,2.9,2.9,0,0,1-.6-1.9,2.5,2.5,0,0,1,.7-1.9,2.1,2.1,0,0,1,1.6-.8,1.6,1.6,0,0,1,1.5.7,2.4,2.4,0,0,1,.6,1.7Zm-.8-.7a1.8,1.8,0,0,0-.4-1.1,1,1,0,0,0-.9-.4,1.3,1.3,0,0,0-1,.4,1.8,1.8,0,0,0-.4,1.1Z" transform="translate(-0.4 -1.2)"/><path d="M89.8,47.2H89V44.3a1.7,1.7,0,0,0-.3-1.2c-.1-.3-.4-.4-.8-.4a1.1,1.1,0,0,0-.9.5,2.1,2.1,0,0,0-.4,1.1v2.9h-.8v-3c0-1-.3-1.5-1.1-1.5a1.8,1.8,0,0,0-.9.4,2.1,2.1,0,0,0-.3,1.2v2.9h-.8v-5h.8v.7h0a1.8,1.8,0,0,1,1.6-.9,1.6,1.6,0,0,1,.9.3,2.2,2.2,0,0,1,.5.8A1.8,1.8,0,0,1,88.1,42c1.1,0,1.7.7,1.7,2.1Z" transform="translate(-0.4 -1.2)"/><path d="M23.6,59.2h-.8v-.8h0a1.8,1.8,0,0,1-1.6.9c-1.2,0-1.7-.7-1.7-2.2V54.2h.7V57c0,1.1.4,1.6,1.3,1.6a1.1,1.1,0,0,0,.9-.4,1.6,1.6,0,0,0,.4-1.2V54.2h.8Z" transform="translate(-0.4 -1.2)"/><path d="M24.9,59v-.9a2.7,2.7,0,0,0,1.5.5c.7,0,1-.2,1-.7s0-.3-.1-.3-.1-.2-.2-.3l-.4-.2-.4-.2-.6-.2-.4-.3L25,56c0-.2-.1-.3-.1-.5a.8.8,0,0,1,.2-.6,1,1,0,0,1,.4-.5l.6-.3h.7a2.1,2.1,0,0,1,1.2.3v.8a2,2,0,0,0-1.3-.4H26l-.2.2c0,.1-.1.2-.1.3a1,1,0,0,0,.1.3l.2.3.4.2h.4l.6.3.4.3c.2.1.3.2.3.4a.7.7,0,0,1,.1.5,1.5,1.5,0,0,1-.1.7l-.5.4-.6.3h-.7A2.9,2.9,0,0,1,24.9,59Z" transform="translate(-0.4 -1.2)"/><path d="M31.5,59.3a2.4,2.4,0,0,1-1.7-.7,2.5,2.5,0,0,1-.7-1.9,2.7,2.7,0,0,1,.7-2,2.9,2.9,0,0,1,1.9-.7,2.4,2.4,0,0,1,1.7.7,2.9,2.9,0,0,1,.6,1.9,2.7,2.7,0,0,1-.6,1.9A2.6,2.6,0,0,1,31.5,59.3Zm.1-4.6a1.7,1.7,0,0,0-1.2.5,2.5,2.5,0,0,0-.5,1.5,2.2,2.2,0,0,0,.5,1.4,1.7,1.7,0,0,0,2.4,0,2,2,0,0,0,.4-1.4,2.2,2.2,0,0,0-.4-1.5A1.7,1.7,0,0,0,31.6,54.7Z" transform="translate(-0.4 -1.2)"/><path d="M42.3,59.2h-.8v-.9h0a1.9,1.9,0,0,1-1.7,1,2.1,2.1,0,0,1-1.5-.7,2.8,2.8,0,0,1-.6-1.8,3,3,0,0,1,.6-2A2.3,2.3,0,0,1,40,54a1.6,1.6,0,0,1,1.5.8h0V51.7h.8Zm-.8-2.3v-.7a1.4,1.4,0,0,0-.4-1.1,1.2,1.2,0,0,0-1-.4,1.3,1.3,0,0,0-1.1.5,2.5,2.5,0,0,0-.5,1.5,2.6,2.6,0,0,0,.4,1.4,1.6,1.6,0,0,0,1.1.5,1.4,1.4,0,0,0,1.1-.5A1.6,1.6,0,0,0,41.5,56.9Z" transform="translate(-0.4 -1.2)"/><path d="M48,56.9H44.4a1.7,1.7,0,0,0,1.7,1.7,2.4,2.4,0,0,0,1.5-.6v.8a2.9,2.9,0,0,1-1.7.5,2.4,2.4,0,0,1-1.7-.7,2.9,2.9,0,0,1-.6-1.9,2.5,2.5,0,0,1,.7-1.9,2.1,2.1,0,0,1,1.6-.8,1.6,1.6,0,0,1,1.5.7,2.4,2.4,0,0,1,.6,1.7Zm-.9-.7a1.8,1.8,0,0,0-.3-1.1,1,1,0,0,0-.9-.4,1.3,1.3,0,0,0-1,.4,2.8,2.8,0,0,0-.5,1.1Z" transform="translate(-0.4 -1.2)"/><path d="M56.1,59.2h-.8V56.3c0-1.1-.4-1.6-1.2-1.6a1.4,1.4,0,0,0-1,.5,1.4,1.4,0,0,0-.4,1.1v2.9h-.8v-5h.8V55h0a1.9,1.9,0,0,1,1.7-1,1.4,1.4,0,0,1,1.2.6,2.1,2.1,0,0,1,.5,1.5Z" transform="translate(-0.4 -1.2)"/><path d="M61.2,59.2h-.8v-.8h-.1a1.6,1.6,0,0,1-1.5.9,2.1,2.1,0,0,1-1.2-.4,1.4,1.4,0,0,1-.4-1.1c0-.9.6-1.5,1.7-1.6l1.5-.2c0-.9-.4-1.3-1.1-1.3a2.5,2.5,0,0,0-1.6.6v-.8a3.4,3.4,0,0,1,1.7-.5,1.7,1.7,0,0,1,1.8,1.9Zm-.8-2.6-1.3.2a1.1,1.1,0,0,0-.8.3c-.2.1-.3.3-.3.7a.9.9,0,0,0,.3.6l.7.2a1.3,1.3,0,0,0,1-.4,2.1,2.1,0,0,0,.4-1.1Z" transform="translate(-0.4 -1.2)"/><path d="M66.6,54.2l-2,5h-.8l-1.9-5h.9l1.3,3.6a2,2,0,0,1,.1.7h.1a1.5,1.5,0,0,1,.1-.7l1.3-3.6Z" transform="translate(-0.4 -1.2)"/><path d="M71.5,56.9H67.9a2.2,2.2,0,0,0,.5,1.2,1.7,1.7,0,0,0,1.2.5,2.2,2.2,0,0,0,1.5-.6v.8a2.9,2.9,0,0,1-1.7.5,2.4,2.4,0,0,1-1.7-.7,2.9,2.9,0,0,1-.6-1.9,2.5,2.5,0,0,1,.7-1.9,2.1,2.1,0,0,1,1.6-.8,1.6,1.6,0,0,1,1.5.7,2.4,2.4,0,0,1,.6,1.7Zm-.8-.7a2.8,2.8,0,0,0-.4-1.1,1,1,0,0,0-.9-.4,1.3,1.3,0,0,0-1,.4,1.8,1.8,0,0,0-.4,1.1Z" transform="translate(-0.4 -1.2)"/><path d="M77,58.8a2.4,2.4,0,0,1-2.7,2.7,4.1,4.1,0,0,1-1.6-.3v-.8a3.4,3.4,0,0,0,1.6.4c1.2,0,1.8-.6,1.8-1.9v-.6h0a1.9,1.9,0,0,1-1.7,1,2.1,2.1,0,0,1-1.5-.7,2.4,2.4,0,0,1-.6-1.8,2.7,2.7,0,0,1,.7-2,1.9,1.9,0,0,1,1.6-.8,1.6,1.6,0,0,1,1.5.8h0v-.6H77Zm-.9-1.9v-.7a1.5,1.5,0,0,0-.4-1.1,1.2,1.2,0,0,0-1-.4,1.4,1.4,0,0,0-1.1.5,2.5,2.5,0,0,0-.4,1.6,1.8,1.8,0,0,0,.4,1.3,1.2,1.2,0,0,0,1,.5,1.4,1.4,0,0,0,1.1-.5A1.6,1.6,0,0,0,76.1,56.9Z" transform="translate(-0.4 -1.2)"/><path d="M82.2,59.2h-.9v-.8h0a1.6,1.6,0,0,1-1.5.9,2.1,2.1,0,0,1-1.2-.4,1.4,1.4,0,0,1-.4-1.1c0-.9.6-1.5,1.7-1.6l1.4-.2c0-.9-.3-1.3-1-1.3a2.5,2.5,0,0,0-1.6.6v-.8a3.1,3.1,0,0,1,1.7-.5,1.7,1.7,0,0,1,1.8,1.9Zm-.9-2.6-1.2.2a1.1,1.1,0,0,0-.8.3c-.2.1-.3.3-.3.7a.9.9,0,0,0,.3.6l.7.2a1.3,1.3,0,0,0,1-.4,2,2,0,0,0,.3-1.1Z" transform="translate(-0.4 -1.2)"/><path d="M87.9,59.2h-.8v-.9h0a1.9,1.9,0,0,1-1.7,1,2.1,2.1,0,0,1-1.5-.7,2.8,2.8,0,0,1-.6-1.8,3,3,0,0,1,.6-2,2.3,2.3,0,0,1,1.7-.8,1.6,1.6,0,0,1,1.5.8h0V51.7h.8Zm-.8-2.3v-.7a1.4,1.4,0,0,0-.4-1.1,1.2,1.2,0,0,0-1-.4,1.3,1.3,0,0,0-1.1.5,2.5,2.5,0,0,0-.5,1.5,2.6,2.6,0,0,0,.4,1.4,1.6,1.6,0,0,0,1.1.5,1.4,1.4,0,0,0,1.1-.5A1.6,1.6,0,0,0,87.1,56.9Z" transform="translate(-0.4 -1.2)"/><path d="M91.6,59.3a2.4,2.4,0,0,1-1.7-.7,2.5,2.5,0,0,1-.7-1.9,2.7,2.7,0,0,1,.7-2,2.9,2.9,0,0,1,1.9-.7,2.4,2.4,0,0,1,1.7.7,2.9,2.9,0,0,1,.6,1.9,2.7,2.7,0,0,1-.6,1.9A2.6,2.6,0,0,1,91.6,59.3Zm.1-4.6a1.7,1.7,0,0,0-1.2.5,2.5,2.5,0,0,0-.5,1.5,2.2,2.2,0,0,0,.5,1.4,1.7,1.7,0,0,0,2.4,0,2,2,0,0,0,.4-1.4,2.2,2.2,0,0,0-.4-1.5A1.7,1.7,0,0,0,91.7,54.7Z" transform="translate(-0.4 -1.2)"/><path d="M98,55a.8.8,0,0,0-.6-.2,1,1,0,0,0-.8.5,1.7,1.7,0,0,0-.4,1.3v2.6h-.8v-5h.8v1h0a1.2,1.2,0,0,1,.6-.8.9.9,0,0,1,.7-.3H98Z" transform="translate(-0.4 -1.2)"/><path d="M164.5,47.2h-.9l-.7-2h-3l-.7,2h-.9l2.7-7.1h.8Zm-1.9-2.7-1.1-3a4.3,4.3,0,0,1-.1-.5h0a1.1,1.1,0,0,0-.1.5l-1.1,3Z" transform="translate(-0.4 -1.2)"/><path d="M166.3,46.4h0v3.1h-.9V42.2h.9V43h0a1.9,1.9,0,0,1,1.7-1,2.1,2.1,0,0,1,1.5.7,2.7,2.7,0,0,1,.5,1.8,3.2,3.2,0,0,1-.6,2,1.9,1.9,0,0,1-1.6.8A1.6,1.6,0,0,1,166.3,46.4Zm0-2v.7a1.5,1.5,0,0,0,.4,1.1,1.2,1.2,0,0,0,1,.4,1.3,1.3,0,0,0,1.1-.6,2.1,2.1,0,0,0,.4-1.5,1.7,1.7,0,0,0-.4-1.3,1.2,1.2,0,0,0-1-.5,1.4,1.4,0,0,0-1.1.5A1.6,1.6,0,0,0,166.3,44.4Z" transform="translate(-0.4 -1.2)"/><path d="M172.1,47.2h-.8V39.7h.8Z" transform="translate(-0.4 -1.2)"/><path d="M174.2,40.9a.5.5,0,0,1-.4-.2c-.1-.1-.2-.2-.2-.3a.7.7,0,0,1,.6-.6l.3.2a.5.5,0,0,1,.2.4c0,.1-.1.2-.2.3Zm.4,6.3h-.8v-5h.8Z" transform="translate(-0.4 -1.2)"/><path d="M179.6,46.9a2.3,2.3,0,0,1-1.4.4,2.4,2.4,0,0,1-2.4-2.5,3,3,0,0,1,.7-2,2.6,2.6,0,0,1,1.9-.8,2.1,2.1,0,0,1,1.2.3v.8a1.9,1.9,0,0,0-1.2-.4,1.8,1.8,0,0,0-1.3.6,2,2,0,0,0-.4,1.4,2.1,2.1,0,0,0,.4,1.4,1.7,1.7,0,0,0,1.2.5,2.8,2.8,0,0,0,1.3-.4Z" transform="translate(-0.4 -1.2)"/><path d="M184.4,47.2h-.8v-.8h-.1a1.6,1.6,0,0,1-1.5.9,2.1,2.1,0,0,1-1.2-.4,1.8,1.8,0,0,1-.4-1.1c0-.9.6-1.5,1.7-1.6l1.5-.2c0-.9-.4-1.3-1.1-1.3a2.5,2.5,0,0,0-1.6.6v-.8a3.4,3.4,0,0,1,1.7-.5,1.7,1.7,0,0,1,1.8,1.9Zm-.8-2.6-1.2.2a1.2,1.2,0,0,0-.9.3c-.2.1-.3.3-.3.7a.9.9,0,0,0,.3.6l.7.2a1.3,1.3,0,0,0,1-.4,2.1,2.1,0,0,0,.4-1.1Z" transform="translate(-0.4 -1.2)"/><path d="M188.2,47.1l-.7.2c-.9,0-1.4-.5-1.4-1.5v-3h-.8v-.6h.8V40.9l.8-.2v1.5h1.3v.6h-1.3v2.9a1.4,1.4,0,0,0,.2.7l.6.2.5-.2Z" transform="translate(-0.4 -1.2)"/><path d="M189.7,40.9a.5.5,0,0,1-.4-.2.4.4,0,0,1-.1-.3c0-.2,0-.3.1-.4a.5.5,0,0,1,.4-.2l.4.2c.1.1.1.2.1.4a.4.4,0,0,1-.1.3Zm.4,6.3h-.8v-5h.8Z" transform="translate(-0.4 -1.2)"/><path d="M195.6,42.2l-2,5h-.8l-1.9-5h.9l1.3,3.6a6.4,6.4,0,0,0,.2.7h0c0-.3.1-.5.1-.7l1.4-3.6Z" transform="translate(-0.4 -1.2)"/><path d="M198.6,47.3a2.5,2.5,0,0,1-1.8-.7,2.9,2.9,0,0,1-.7-1.9,3.2,3.2,0,0,1,.7-2,2.9,2.9,0,0,1,1.9-.7,2.4,2.4,0,0,1,1.7.7,2.5,2.5,0,0,1,.7,1.9,2.7,2.7,0,0,1-.7,1.9A2.5,2.5,0,0,1,198.6,47.3Zm0-4.6a1.7,1.7,0,0,0-1.2.5,2.4,2.4,0,0,0-.4,1.5,2.1,2.1,0,0,0,.4,1.4,1.7,1.7,0,0,0,2.4,0,2,2,0,0,0,.4-1.4,2.2,2.2,0,0,0-.4-1.5A1.7,1.7,0,0,0,198.6,42.7Z" transform="translate(-0.4 -1.2)"/><path d="M170.7,59.2h-.8v-.9h-.1a1.8,1.8,0,0,1-1.7,1,2.1,2.1,0,0,1-1.5-.7,2.8,2.8,0,0,1-.6-1.8,3,3,0,0,1,.7-2,1.9,1.9,0,0,1,1.6-.8,1.6,1.6,0,0,1,1.5.8h.1V51.7h.8Zm-.8-2.3v-.7a1.8,1.8,0,0,0-.4-1.1,1.5,1.5,0,0,0-1.1-.4,1.4,1.4,0,0,0-1.1.5,2.4,2.4,0,0,0-.4,1.5,2,2,0,0,0,.4,1.4,1.2,1.2,0,0,0,1,.5,1.3,1.3,0,0,0,1.1-.5A1.7,1.7,0,0,0,169.9,56.9Z" transform="translate(-0.4 -1.2)"/><path d="M176.3,56.9h-3.5a1.6,1.6,0,0,0,.4,1.2,1.7,1.7,0,0,0,1.2.5,2,2,0,0,0,1.5-.6v.8a2.9,2.9,0,0,1-1.7.5,2.4,2.4,0,0,1-1.7-.7,2.9,2.9,0,0,1-.6-1.9,2.9,2.9,0,0,1,.7-1.9,2.1,2.1,0,0,1,1.6-.8,1.9,1.9,0,0,1,1.6.7,2.9,2.9,0,0,1,.5,1.7Zm-.8-.7a1.4,1.4,0,0,0-.4-1.1,1.2,1.2,0,0,0-1.8,0,1.4,1.4,0,0,0-.5,1.1Z" transform="translate(-0.4 -1.2)"/><path d="M185.8,59.2h-.9l-.8-2h-2.9l-.7,2h-1l2.7-7.1h.9Zm-1.9-2.7-1.1-3c-.1-.1-.1-.3-.2-.5h0a.7.7,0,0,1-.1.5l-1.1,3Z" transform="translate(-0.4 -1.2)"/><path d="M187.6,56.5v2.7h-.8V52.1h1.9a2.4,2.4,0,0,1,1.8.6,2,2,0,0,1,.6,1.5,2.2,2.2,0,0,1-.7,1.7,2.9,2.9,0,0,1-1.9.6Zm0-3.6v2.9h.9a2.5,2.5,0,0,0,1.3-.4,1.4,1.4,0,0,0,.4-1.1c0-.9-.5-1.4-1.6-1.4Z" transform="translate(-0.4 -1.2)"/><path d="M193.2,59.2h-.8V52.1h.8Z" transform="translate(-0.4 -1.2)"/><path d="M87.9,2.5H85.2V4.9h2.5v.7H85.2V8.7h-.9v-7h3.6Z" transform="translate(-0.4 -1.2)" fill="#00b0f0"/><path d="M89.9,8.7h-.8V1.3h.8Z" transform="translate(-0.4 -1.2)" fill="#00b0f0"/><path d="M95.6,8.7h-.8V7.9h0a1.8,1.8,0,0,1-1.6.9q-1.8,0-1.8-2.1v-3h.8V6.6c0,1,.4,1.6,1.2,1.6a1.2,1.2,0,0,0,1-.5,1.4,1.4,0,0,0,.4-1.1V3.7h.8Z" transform="translate(-0.4 -1.2)" fill="#00b0f0"/><path d="M100.9,3.7,99.2,6.2l1.6,2.5h-.9l-1-1.6c-.1-.1-.1-.2-.2-.4h0l-.3.4-1,1.6h-.9l1.7-2.4L96.6,3.7h.9l1,1.7c.1.2.1.3.2.4h0L100,3.7Z" transform="translate(-0.4 -1.2)" fill="#00b0f0"/><path d="M103.9,8.8a2.1,2.1,0,0,1-1.8-.7,2.7,2.7,0,0,1-.7-1.8,3,3,0,0,1,.7-2,2.5,2.5,0,0,1,1.9-.7,2.1,2.1,0,0,1,1.7.7,2.4,2.4,0,0,1,.7,1.9,2.9,2.9,0,0,1-.7,1.9A2.4,2.4,0,0,1,103.9,8.8Zm0-4.5a1.3,1.3,0,0,0-1.2.5,2,2,0,0,0-.4,1.4,2,2,0,0,0,.4,1.4,1.4,1.4,0,0,0,1.2.6,1.4,1.4,0,0,0,1.2-.5,2.4,2.4,0,0,0,.4-1.5,2,2,0,0,0-.4-1.4C104.9,4.4,104.5,4.3,103.9,4.3Z" transform="translate(-0.4 -1.2)" fill="#00b0f0"/><path d="M114.7,8.7h-.8V7.9h-.1a1.8,1.8,0,0,1-1.7.9,2,2,0,0,1-1.5-.6,2.9,2.9,0,0,1-.6-1.9,3.2,3.2,0,0,1,.7-2,1.9,1.9,0,0,1,1.6-.7,1.6,1.6,0,0,1,1.5.8h.1V1.3h.8Zm-.8-2.2V5.7a1.8,1.8,0,0,0-.4-1,1.5,1.5,0,0,0-1.1-.4,1.4,1.4,0,0,0-1.1.5,2.4,2.4,0,0,0-.4,1.5,2.1,2.1,0,0,0,.4,1.4,1.2,1.2,0,0,0,1,.5,1.3,1.3,0,0,0,1.1-.5A1.8,1.8,0,0,0,113.9,6.5Z" transform="translate(-0.4 -1.2)" fill="#00b0f0"/><path d="M118.4,8.8a2.1,2.1,0,0,1-1.8-.7,2.7,2.7,0,0,1-.7-1.8,3,3,0,0,1,.7-2,2.5,2.5,0,0,1,1.9-.7,2.1,2.1,0,0,1,1.7.7,2.7,2.7,0,0,1,.7,1.9,2.9,2.9,0,0,1-.7,1.9A2.4,2.4,0,0,1,118.4,8.8Zm0-4.5a1.3,1.3,0,0,0-1.2.5,2,2,0,0,0-.4,1.4,2,2,0,0,0,.4,1.4,1.4,1.4,0,0,0,1.2.6,1.7,1.7,0,0,0,1.2-.5,2.4,2.4,0,0,0,.4-1.5,2,2,0,0,0-.4-1.4A1.3,1.3,0,0,0,118.4,4.3Z" transform="translate(-0.4 -1.2)" fill="#00b0f0"/><path d="M128.3,8.5a3.2,3.2,0,0,1-1.4.3,2.1,2.1,0,0,1-1.7-.7,2.5,2.5,0,0,1-.7-1.8,3.2,3.2,0,0,1,.7-2,2.5,2.5,0,0,1,1.9-.7l1.2.2v.9a1.9,1.9,0,0,0-1.2-.4,2.1,2.1,0,0,0-1.3.5,2.4,2.4,0,0,0-.4,1.5,2.1,2.1,0,0,0,.4,1.4,1.7,1.7,0,0,0,1.3.5,2.1,2.1,0,0,0,1.2-.5Z" transform="translate(-0.4 -1.2)" fill="#00b0f0"/><path d="M131.6,8.8a2.3,2.3,0,0,1-1.8-.7,2.6,2.6,0,0,1-.6-1.8,3,3,0,0,1,.6-2,2.5,2.5,0,0,1,1.9-.7,2.1,2.1,0,0,1,1.7.7,2.4,2.4,0,0,1,.7,1.9,2.9,2.9,0,0,1-.7,1.9A2.4,2.4,0,0,1,131.6,8.8Zm0-4.5a1.3,1.3,0,0,0-1.2.5,2,2,0,0,0-.4,1.4,2,2,0,0,0,.4,1.4,1.4,1.4,0,0,0,1.2.6,1.4,1.4,0,0,0,1.2-.5,2.5,2.5,0,0,0,.5-1.5,2,2,0,0,0-.5-1.4C132.6,4.4,132.2,4.3,131.6,4.3Zm1.2-3.1-1.3,1.6h-.6L132,1.2Z" transform="translate(-0.4 -1.2)" fill="#00b0f0"/><path d="M139.6,8.7h-.8V7.9h0a1.9,1.9,0,0,1-1.7.9,2,2,0,0,1-1.5-.6,2.9,2.9,0,0,1-.6-1.9,3.2,3.2,0,0,1,.6-2,2.2,2.2,0,0,1,1.7-.7,1.6,1.6,0,0,1,1.5.8h0V1.3h.8Zm-.8-2.2V5.7a1.3,1.3,0,0,0-.4-1,1.2,1.2,0,0,0-1-.4,1.3,1.3,0,0,0-1.1.5,2.5,2.5,0,0,0-.5,1.5,2.9,2.9,0,0,0,.4,1.4,1.6,1.6,0,0,0,1.1.5,1.4,1.4,0,0,0,1.1-.5A1.7,1.7,0,0,0,138.8,6.5Z" transform="translate(-0.4 -1.2)" fill="#00b0f0"/><path d="M141.7,2.4h-.4a.5.5,0,0,1-.2-.4l.2-.3a.5.5,0,0,1,.4-.2l.3.2.2.3a.5.5,0,0,1-.2.4Zm.3,6.3h-.8v-5h.8Z" transform="translate(-0.4 -1.2)" fill="#00b0f0"/><path d="M147.9,8.3c0,1.9-.8,2.8-2.6,2.8a2.7,2.7,0,0,1-1.6-.4V9.9a3.3,3.3,0,0,0,1.6.5c1.2,0,1.8-.7,1.8-2V7.9h0a1.9,1.9,0,0,1-1.7.9,2,2,0,0,1-1.5-.6,2.8,2.8,0,0,1-.6-1.8,3,3,0,0,1,.6-2,1.9,1.9,0,0,1,1.7-.8,1.6,1.6,0,0,1,1.5.8h0V3.7h.8Zm-.8-1.8V5.7a1.3,1.3,0,0,0-.4-1,1.2,1.2,0,0,0-1-.4,1.3,1.3,0,0,0-1.1.5,2.5,2.5,0,0,0-.5,1.5,2.9,2.9,0,0,0,.4,1.4,1.6,1.6,0,0,0,1.1.5,1.4,1.4,0,0,0,1.1-.5A1.6,1.6,0,0,0,147.1,6.5Z" transform="translate(-0.4 -1.2)" fill="#00b0f0"/><path d="M151.6,8.8a2.1,2.1,0,0,1-1.7-.7,2.3,2.3,0,0,1-.7-1.8,2.6,2.6,0,0,1,.7-2,2.5,2.5,0,0,1,1.9-.7,2.1,2.1,0,0,1,1.7.7,2.7,2.7,0,0,1,.6,1.9,2.9,2.9,0,0,1-.6,1.9A2.5,2.5,0,0,1,151.6,8.8Zm.1-4.5a1.3,1.3,0,0,0-1.2.5,2,2,0,0,0-.5,1.4,2,2,0,0,0,.5,1.4,1.4,1.4,0,0,0,1.2.6,1.7,1.7,0,0,0,1.2-.5,2.4,2.4,0,0,0,.4-1.5,2,2,0,0,0-.4-1.4A1.3,1.3,0,0,0,151.7,4.3Z" transform="translate(-0.4 -1.2)" fill="#00b0f0"/><path d="M93.1,17.7h-.8v-.8h0a1.9,1.9,0,0,1-1.7.9,2,2,0,0,1-1.5-.6,2.9,2.9,0,0,1-.6-1.9,2.7,2.7,0,0,1,.7-2,1.9,1.9,0,0,1,1.6-.7,1.6,1.6,0,0,1,1.5.8h0V10.3h.8Zm-.8-2.2v-.8a1.3,1.3,0,0,0-.4-1,1.2,1.2,0,0,0-1-.4,1.3,1.3,0,0,0-1.1.5,2.5,2.5,0,0,0-.5,1.5,2.2,2.2,0,0,0,.5,1.4,1.2,1.2,0,0,0,1,.5,1.4,1.4,0,0,0,1.1-.5A1.7,1.7,0,0,0,92.3,15.5Z" transform="translate(-0.4 -1.2)" fill="#00b0f0"/><path d="M96.8,17.8a2.1,2.1,0,0,1-1.7-.7,2.3,2.3,0,0,1-.7-1.8,2.6,2.6,0,0,1,.7-2,2.5,2.5,0,0,1,1.9-.7,2.1,2.1,0,0,1,1.7.7,2.7,2.7,0,0,1,.6,1.9,2.9,2.9,0,0,1-.6,1.9A2.5,2.5,0,0,1,96.8,17.8Zm.1-4.5a1.3,1.3,0,0,0-1.2.5,2,2,0,0,0-.5,1.4,2,2,0,0,0,.5,1.4,1.4,1.4,0,0,0,1.2.6,1.7,1.7,0,0,0,1.2-.5,2.4,2.4,0,0,0,.4-1.5,2,2,0,0,0-.4-1.4A1.3,1.3,0,0,0,96.9,13.3Z" transform="translate(-0.4 -1.2)" fill="#00b0f0"/><path d="M107.6,17.7h-.8v-.8h0a1.9,1.9,0,0,1-1.7.9,2,2,0,0,1-1.5-.6,2.9,2.9,0,0,1-.6-1.9,3.2,3.2,0,0,1,.6-2,2.2,2.2,0,0,1,1.7-.7,1.6,1.6,0,0,1,1.5.8h0V10.3h.8Zm-.8-2.2v-.8a1.3,1.3,0,0,0-.4-1,1.2,1.2,0,0,0-1-.4,1.3,1.3,0,0,0-1.1.5,2.5,2.5,0,0,0-.5,1.5,2.9,2.9,0,0,0,.4,1.4,1.6,1.6,0,0,0,1.1.5,1.4,1.4,0,0,0,1.1-.5A1.7,1.7,0,0,0,106.8,15.5Z" transform="translate(-0.4 -1.2)" fill="#00b0f0"/><path d="M109.7,11.4h-.4a.5.5,0,0,1-.2-.4l.2-.3.4-.2.3.2.2.3a.5.5,0,0,1-.2.4Zm.3,6.3h-.8v-5h.8Z" transform="translate(-0.4 -1.2)" fill="#00b0f0"/><path d="M111.4,17.5v-.8a2.4,2.4,0,0,0,1.4.5c.7,0,1.1-.3,1.1-.7s-.1-.3-.1-.4l-.3-.2-.3-.2-.5-.2-.6-.3-.4-.3a.5.5,0,0,1-.2-.4.7.7,0,0,1-.1-.5,1.3,1.3,0,0,1,.1-.6,1,1,0,0,1,.5-.4c.1-.2.3-.2.6-.3h.7l1.2.2v.8a2.8,2.8,0,0,0-1.3-.3h-.4l-.3.2-.2.2a.5.5,0,0,0,0,.6l.2.2.3.2.5.2.5.3.5.3.3.4a4.3,4.3,0,0,1,.1.5,1.4,1.4,0,0,1-.2.6,1,1,0,0,1-.4.5l-.6.2h-.8A2.5,2.5,0,0,1,111.4,17.5Z" transform="translate(-0.4 -1.2)" fill="#00b0f0"/><path d="M116.7,17h0v3h-.8V12.7h.8v.9h0a1.9,1.9,0,0,1,1.8-1,1.8,1.8,0,0,1,1.5.7,3,3,0,0,1,.5,1.8,3.2,3.2,0,0,1-.6,2,2.1,2.1,0,0,1-1.7.7A1.7,1.7,0,0,1,116.7,17Zm0-2v.7a1.3,1.3,0,0,0,.4,1,1.4,1.4,0,0,0,1,.5,1.4,1.4,0,0,0,1.2-.6,2.4,2.4,0,0,0,.4-1.5,2.1,2.1,0,0,0-.4-1.4,1.3,1.3,0,0,0-1-.4,1.3,1.3,0,0,0-1.2.5A2.1,2.1,0,0,0,116.7,15Z" transform="translate(-0.4 -1.2)" fill="#00b0f0"/><path d="M123.9,17.8a2.3,2.3,0,0,1-1.8-.7,2.7,2.7,0,0,1-.7-1.8,3,3,0,0,1,.7-2,2.5,2.5,0,0,1,1.9-.7,2.1,2.1,0,0,1,1.7.7,2.4,2.4,0,0,1,.7,1.9,2.9,2.9,0,0,1-.7,1.9A2.4,2.4,0,0,1,123.9,17.8Zm0-4.5a1.3,1.3,0,0,0-1.2.5,2,2,0,0,0-.4,1.4,2,2,0,0,0,.4,1.4,1.4,1.4,0,0,0,1.2.6,1.4,1.4,0,0,0,1.2-.5,2.4,2.4,0,0,0,.4-1.5,2,2,0,0,0-.4-1.4C124.9,13.4,124.5,13.3,123.9,13.3Z" transform="translate(-0.4 -1.2)" fill="#00b0f0"/><path d="M127.3,17.5v-.8a3,3,0,0,0,1.5.5c.7,0,1-.3,1-.7v-.4l-.3-.2a.5.5,0,0,0-.4-.2l-.4-.2-.6-.3-.4-.3-.3-.4V14a1.3,1.3,0,0,1,.1-.6c.1-.2.3-.3.4-.4s.4-.2.7-.3h.7l1.1.2v.8a2.4,2.4,0,0,0-1.2-.3h-.4l-.4.2-.2.2v.6l.3.2.3.2.4.2.6.3.5.3.3.4a4.3,4.3,0,0,1,.1.5,1.4,1.4,0,0,1-.2.6l-.4.5-.7.2h-.7A3.2,3.2,0,0,1,127.3,17.5Z" transform="translate(-0.4 -1.2)" fill="#00b0f0"/><path d="M132.3,11.4h-.4c-.1-.1-.1-.2-.1-.4a.4.4,0,0,1,.1-.3l.4-.2.4.2a.4.4,0,0,1,.1.3c0,.2,0,.3-.1.4Zm.4,6.3h-.8v-5h.8Z" transform="translate(-0.4 -1.2)" fill="#00b0f0"/><path d="M136.6,17.7h-.7c-.9,0-1.3-.5-1.3-1.4v-3h-.9v-.7h.9V11.5l.8-.3v1.5h1.2v.7h-1.2v2.8c0,.4,0,.6.1.7a.7.7,0,0,0,.6.3l.5-.2Z" transform="translate(-0.4 -1.2)" fill="#00b0f0"/><path d="M138.1,11.4h-.4c-.1-.1-.1-.2-.1-.4a.4.4,0,0,1,.1-.3l.4-.2a.5.5,0,0,1,.4.2.4.4,0,0,1,.1.3c0,.2,0,.3-.1.4Zm.4,6.3h-.8v-5h.8Z" transform="translate(-0.4 -1.2)" fill="#00b0f0"/><path d="M144.1,12.7l-2,5h-.8l-1.9-5h.9l1.2,3.6a2.5,2.5,0,0,1,.2.7h0c.1-.2.1-.4.2-.6l1.3-3.7Z" transform="translate(-0.4 -1.2)" fill="#00b0f0"/><path d="M147,17.8a2.4,2.4,0,0,1-1.8-.7,2.6,2.6,0,0,1-.6-1.8,2.6,2.6,0,0,1,.7-2,2.7,2.7,0,0,1,3.6,0,2.7,2.7,0,0,1,.6,1.9,2.5,2.5,0,0,1-.7,1.9A2.1,2.1,0,0,1,147,17.8Zm.1-4.5a1.4,1.4,0,0,0-1.3.5,2,2,0,0,0-.4,1.4,2,2,0,0,0,.4,1.4,1.8,1.8,0,0,0,1.3.6,1.7,1.7,0,0,0,1.2-.5,3.3,3.3,0,0,0,.4-1.5,2.6,2.6,0,0,0-.4-1.4A1.3,1.3,0,0,0,147.1,13.3Z" transform="translate(-0.4 -1.2)" fill="#00b0f0"/><path d="M163.6,20.4h-8.4l-52.8.2H74.5l-1.3.2c-.2,0-.5.3-.4.5a.8.8,0,0,0,.4.6h.7l41.9-.2h47.8Z" transform="translate(-0.4 -1.2)" fill="#505050"/></svg>