<svg xmlns="http://www.w3.org/2000/svg" viewBox="0 0 204.71 66.15"><title>OJ104546516</title><line x1="62.13" y1="20.99" x2="163.68" y2="20.99" fill="none" stroke="#505050" stroke-miterlimit="10"/><path d="M69.66,9.34H63.58c-.23,0-.38.15-.38.46V12a.35.35,0,0,0,.38.37H67v3.39c0,.23.15.38.45.38h2.18a.35.35,0,0,0,.37-.38v-6A.35.35,0,0,0,69.66,9.34Zm-17.19,21H49V27c0-.22-.15-.37-.45-.37H46.4A.35.35,0,0,0,46,27v6a.36.36,0,0,0,.38.39h6.07c.23,0,.38-.15.38-.46V30.72A.36.36,0,0,0,52.47,30.34Zm13.58-3.69a.9.9,0,0,0-.45.08l-2.32-4.07a2.77,2.77,0,0,0-1.88-4.81,3,3,0,0,0-1.12.22L57.8,14.61a2,2,0,0,0,.53-1.5A2.33,2.33,0,1,0,56,15.44a2.38,2.38,0,0,0,.75-.15l2.48,3.54a2.82,2.82,0,0,0-.68,1.43l-7.2.6a1.78,1.78,0,0,0-1.65-1,1.88,1.88,0,0,0,0,3.76,1.92,1.92,0,0,0,1.87-1.58l7.06-.6a3.74,3.74,0,0,0,.67,1.2L57.5,25.6h-.22a1.88,1.88,0,1,0,1.87,1.88,2.13,2.13,0,0,0-.52-1.35l1.72-2.86a4,4,0,0,0,1,.15,3.38,3.38,0,0,0,.82-.15l2.33,4.06a2.34,2.34,0,0,0-.68,1.58,2.18,2.18,0,1,0,2.25-2.26Z" fill="#007efd"/><g style="isolation:isolate"><path d="M34.82,45.87H34l-.67-1.77H30.66L30,45.87h-.82l2.42-6.3h.76Zm-1.73-2.43-1-2.69c0-.09-.06-.23-.1-.42h0a2.07,2.07,0,0,1-.11.42l-1,2.69Z" fill="#007efd"/><path d="M36.38,45.22h0v2.72h-.72V41.37h.72v.79h0a1.72,1.72,0,0,1,1.56-.9,1.64,1.64,0,0,1,1.36.61,2.51,2.51,0,0,1,.49,1.61,2.81,2.81,0,0,1-.55,1.81,1.82,1.82,0,0,1-1.51.68A1.52,1.52,0,0,1,36.38,45.22Zm0-1.82V44a1.36,1.36,0,0,0,.36.95,1.29,1.29,0,0,0,2-.12,2.32,2.32,0,0,0,.37-1.39,1.84,1.84,0,0,0-.35-1.18,1.15,1.15,0,0,0-.94-.42,1.24,1.24,0,0,0-1,.44A1.56,1.56,0,0,0,36.37,43.4Z" fill="#007efd"/><path d="M41.66,45.87h-.72V39.2h.72Z" fill="#007efd"/><path d="M43.49,40.22a.44.44,0,0,1-.33-.13.45.45,0,0,1-.14-.33.46.46,0,0,1,.14-.34.48.48,0,0,1,.66,0,.46.46,0,0,1,.14.34.45.45,0,0,1-.14.33A.44.44,0,0,1,43.49,40.22Zm.35,5.65h-.72v-4.5h.72Z" fill="#007efd"/><path d="M48.36,45.66a2.29,2.29,0,0,1-1.23.31,2,2,0,0,1-1.55-.62A2.3,2.3,0,0,1,45,43.72a2.46,2.46,0,0,1,.64-1.78,2.22,2.22,0,0,1,1.7-.68,2.31,2.31,0,0,1,1,.22v.74a1.78,1.78,0,0,0-1.07-.35,1.43,1.43,0,0,0-1.13.49,1.85,1.85,0,0,0-.44,1.3,1.83,1.83,0,0,0,.41,1.25,1.46,1.46,0,0,0,1.12.46,1.74,1.74,0,0,0,1.1-.4Z" fill="#007efd"/><path d="M52.67,45.87H52v-.71h0a1.52,1.52,0,0,1-1.39.81,1.5,1.5,0,0,1-1-.35,1.27,1.27,0,0,1-.38-.95c0-.84.49-1.33,1.48-1.47L52,43c0-.77-.3-1.15-.92-1.15a2.2,2.2,0,0,0-1.47.55v-.74a2.79,2.79,0,0,1,1.53-.42c1.06,0,1.58.56,1.58,1.68ZM52,43.59l-1.08.15a1.78,1.78,0,0,0-.76.25.83.83,0,0,0,0,1.17.92.92,0,0,0,.63.21A1.14,1.14,0,0,0,51.6,45,1.31,1.31,0,0,0,52,44Z" fill="#007efd"/><path d="M56.12,45.82a1.31,1.31,0,0,1-.67.14c-.79,0-1.18-.44-1.18-1.31V42h-.78v-.61h.78v-1.1L55,40v1.34h1.13V42H55v2.54a1.06,1.06,0,0,0,.15.64.61.61,0,0,0,.51.2.75.75,0,0,0,.47-.15Z" fill="#007efd"/><path d="M57.45,40.22a.44.44,0,0,1-.46-.46.45.45,0,0,1,.13-.34.44.44,0,0,1,.33-.13.47.47,0,0,1,.34.13.46.46,0,0,1,.14.34.45.45,0,0,1-.14.33A.47.47,0,0,1,57.45,40.22Zm.35,5.65h-.72v-4.5h.72Z" fill="#007efd"/><path d="M62.8,41.37,61,45.87H60.3l-1.71-4.5h.8l1.14,3.27a3.23,3.23,0,0,1,.16.63h0a3.54,3.54,0,0,1,.14-.62L62,41.37Z" fill="#007efd"/><path d="M65.45,46a2.09,2.09,0,0,1-1.59-.63,2.32,2.32,0,0,1-.59-1.67,2.39,2.39,0,0,1,.62-1.77,2.2,2.2,0,0,1,1.67-.64,2,2,0,0,1,1.57.62,2.8,2.8,0,0,1,0,3.44A2.12,2.12,0,0,1,65.45,46Zm.06-4.1a1.35,1.35,0,0,0-1.1.47,1.93,1.93,0,0,0-.41,1.3,1.82,1.82,0,0,0,.41,1.26,1.41,1.41,0,0,0,1.1.47,1.3,1.3,0,0,0,1.07-.46A2,2,0,0,0,67,43.63a2,2,0,0,0-.38-1.31A1.32,1.32,0,0,0,65.51,41.87Z" fill="#007efd"/><path d="M71,45.7v-.77a2.13,2.13,0,0,0,1.3.44c.63,0,1-.22,1-.64a.49.49,0,0,0-.09-.3.58.58,0,0,0-.22-.22,1.4,1.4,0,0,0-.32-.18l-.4-.16a5.46,5.46,0,0,1-.53-.24,1.61,1.61,0,0,1-.38-.27,1,1,0,0,1-.22-.34,1.11,1.11,0,0,1-.08-.46,1.13,1.13,0,0,1,.14-.56,1.38,1.38,0,0,1,.39-.41,1.7,1.7,0,0,1,.55-.24,2.3,2.3,0,0,1,.64-.09,2.69,2.69,0,0,1,1,.2v.73a2.11,2.11,0,0,0-1.15-.32,1.37,1.37,0,0,0-.36,0A1,1,0,0,0,72,42a.67.67,0,0,0-.18.2.58.58,0,0,0-.06.26.6.6,0,0,0,.06.29A.77.77,0,0,0,72,43a1.39,1.39,0,0,0,.3.16l.4.17a4.43,4.43,0,0,1,.53.23,2.08,2.08,0,0,1,.41.27,1.07,1.07,0,0,1,.25.35,1.13,1.13,0,0,1,.09.47,1.16,1.16,0,0,1-.14.58,1.21,1.21,0,0,1-.4.41,1.67,1.67,0,0,1-.56.24A2.85,2.85,0,0,1,71,45.7Z" fill="#007efd"/><path d="M78.75,43.8H75.57A1.71,1.71,0,0,0,76,45a1.42,1.42,0,0,0,1.07.41,2.22,2.22,0,0,0,1.4-.51v.68a2.61,2.61,0,0,1-1.57.43,1.89,1.89,0,0,1-1.5-.61,2.48,2.48,0,0,1-.55-1.73,2.44,2.44,0,0,1,.6-1.71,1.92,1.92,0,0,1,1.48-.66,1.68,1.68,0,0,1,1.36.57,2.35,2.35,0,0,1,.49,1.59ZM78,43.19a1.47,1.47,0,0,0-.3-1,1,1,0,0,0-.83-.34,1.16,1.16,0,0,0-.86.36,1.62,1.62,0,0,0-.44,1Z" fill="#007efd"/><path d="M86.23,45.87h-.72V43.28a2,2,0,0,0-.23-1.08.9.9,0,0,0-.78-.33.94.94,0,0,0-.78.42,1.59,1.59,0,0,0-.33,1v2.57h-.72V43.19q0-1.32-1-1.32a.92.92,0,0,0-.78.4,1.6,1.6,0,0,0-.31,1v2.57h-.72v-4.5h.72v.71h0A1.51,1.51,0,0,1,82,41.26a1.33,1.33,0,0,1,.81.26,1.29,1.29,0,0,1,.47.67,1.6,1.6,0,0,1,1.49-.93c1,0,1.49.61,1.49,1.83Z" fill="#007efd"/><path d="M26.66,56.67h-.72V56h0a1.47,1.47,0,0,1-1.39.82c-1.07,0-1.61-.64-1.61-1.91V52.17h.72v2.57c0,.95.36,1.43,1.09,1.43a1.11,1.11,0,0,0,.87-.39,1.53,1.53,0,0,0,.34-1V52.17h.72Z" fill="#007efd"/><path d="M27.84,56.5v-.77a2.13,2.13,0,0,0,1.3.44c.63,0,.94-.22.94-.64a.48.48,0,0,0-.08-.3.58.58,0,0,0-.22-.22,1.4,1.4,0,0,0-.32-.18l-.4-.16a5.46,5.46,0,0,1-.53-.24,1.61,1.61,0,0,1-.38-.27,1,1,0,0,1-.22-.34,1.11,1.11,0,0,1-.08-.46A1.13,1.13,0,0,1,28,52.8a1.38,1.38,0,0,1,.39-.41,1.7,1.7,0,0,1,.55-.24,2.3,2.3,0,0,1,.64-.09,2.69,2.69,0,0,1,1.05.2V53a2.11,2.11,0,0,0-1.15-.32,1.37,1.37,0,0,0-.36,0,1,1,0,0,0-.28.13.67.67,0,0,0-.18.2.58.58,0,0,0-.06.26.6.6,0,0,0,.06.29.64.64,0,0,0,.19.22,1.39,1.39,0,0,0,.3.16l.4.17a5.27,5.27,0,0,1,.53.23,2.08,2.08,0,0,1,.41.27,1.07,1.07,0,0,1,.25.35,1.13,1.13,0,0,1,.09.47,1.16,1.16,0,0,1-.14.58,1.21,1.21,0,0,1-.4.41,1.67,1.67,0,0,1-.56.24,2.85,2.85,0,0,1-1.88-.19Z" fill="#007efd"/><path d="M33.81,56.77a2.09,2.09,0,0,1-1.59-.63,2.33,2.33,0,0,1-.6-1.67,2.43,2.43,0,0,1,.62-1.77,2.22,2.22,0,0,1,1.68-.64,2,2,0,0,1,1.57.62,2.49,2.49,0,0,1,.56,1.72,2.38,2.38,0,0,1-.61,1.72A2.1,2.1,0,0,1,33.81,56.77Zm0-4.1a1.34,1.34,0,0,0-1.09.47,1.93,1.93,0,0,0-.41,1.3,1.82,1.82,0,0,0,.41,1.26,1.39,1.39,0,0,0,1.09.47,1.3,1.3,0,0,0,1.08-.46,2,2,0,0,0,.37-1.28,2,2,0,0,0-.37-1.31A1.33,1.33,0,0,0,33.86,52.67Z" fill="#007efd"/><path d="M43.51,56.67h-.72V55.9h0a1.66,1.66,0,0,1-1.54.87,1.69,1.69,0,0,1-1.36-.6,2.47,2.47,0,0,1-.51-1.65,2.74,2.74,0,0,1,.56-1.79,1.89,1.89,0,0,1,1.5-.67,1.43,1.43,0,0,1,1.35.73h0V50h.72Zm-.72-2V54a1.28,1.28,0,0,0-.36-.92,1.19,1.19,0,0,0-.91-.38,1.25,1.25,0,0,0-1,.48,2.14,2.14,0,0,0-.38,1.34,1.94,1.94,0,0,0,.36,1.23,1.19,1.19,0,0,0,1,.45,1.22,1.22,0,0,0,1-.44A1.63,1.63,0,0,0,42.79,54.63Z" fill="#007efd"/><path d="M48.59,54.6H45.41a1.73,1.73,0,0,0,.4,1.16,1.42,1.42,0,0,0,1.07.41,2.17,2.17,0,0,0,1.39-.51v.68a2.55,2.55,0,0,1-1.56.43,1.89,1.89,0,0,1-1.5-.61,2.48,2.48,0,0,1-.55-1.73,2.44,2.44,0,0,1,.6-1.71,1.9,1.9,0,0,1,1.48-.66,1.69,1.69,0,0,1,1.36.57,2.4,2.4,0,0,1,.49,1.59ZM47.85,54a1.59,1.59,0,0,0-.3-1,1,1,0,0,0-.83-.34,1.15,1.15,0,0,0-.86.36,1.62,1.62,0,0,0-.44,1Z" fill="#007efd"/><path d="M55.88,56.67h-.72V54.1c0-1-.35-1.43-1-1.43a1.12,1.12,0,0,0-.89.4,1.52,1.52,0,0,0-.36,1v2.57h-.72v-4.5h.72v.74h0a1.64,1.64,0,0,1,1.48-.85,1.39,1.39,0,0,1,1.13.48,2.14,2.14,0,0,1,.39,1.38Z" fill="#007efd"/><path d="M60.46,56.67h-.73V56h0a1.52,1.52,0,0,1-1.39.81,1.5,1.5,0,0,1-1-.35,1.27,1.27,0,0,1-.38-1c0-.84.5-1.33,1.49-1.47l1.34-.18c0-.77-.3-1.15-.92-1.15a2.22,2.22,0,0,0-1.47.55v-.74a2.79,2.79,0,0,1,1.53-.42q1.59,0,1.59,1.68Zm-.73-2.28-1.08.15a1.83,1.83,0,0,0-.76.25.83.83,0,0,0,0,1.17.92.92,0,0,0,.63.21,1.18,1.18,0,0,0,.89-.38,1.35,1.35,0,0,0,.34-.95Z" fill="#007efd"/><path d="M65.35,52.17l-1.79,4.5h-.71l-1.7-4.5h.79l1.14,3.27a3.23,3.23,0,0,1,.16.63h0a2.81,2.81,0,0,1,.15-.62l1.19-3.28Z" fill="#007efd"/><path d="M69.74,54.6H66.56A1.73,1.73,0,0,0,67,55.76a1.4,1.4,0,0,0,1.06.41,2.2,2.2,0,0,0,1.4-.51v.68a2.61,2.61,0,0,1-1.57.43,1.9,1.9,0,0,1-1.5-.61,2.53,2.53,0,0,1-.54-1.73,2.48,2.48,0,0,1,.59-1.71,1.92,1.92,0,0,1,1.48-.66,1.7,1.7,0,0,1,1.37.57,2.4,2.4,0,0,1,.48,1.59ZM69,54a1.47,1.47,0,0,0-.3-1,1,1,0,0,0-.82-.34A1.19,1.19,0,0,0,67,53a1.68,1.68,0,0,0-.44,1Z" fill="#007efd"/><path d="M74.67,56.31c0,1.65-.79,2.47-2.37,2.47a3.2,3.2,0,0,1-1.46-.31v-.72a3,3,0,0,0,1.45.42c1.11,0,1.66-.59,1.66-1.77v-.49h0a1.81,1.81,0,0,1-2.89.26,2.34,2.34,0,0,1-.52-1.61,2.79,2.79,0,0,1,.56-1.82,1.83,1.83,0,0,1,1.5-.68,1.45,1.45,0,0,1,1.35.73h0v-.62h.72ZM74,54.63V54a1.3,1.3,0,0,0-.36-.92,1.2,1.2,0,0,0-.9-.38,1.26,1.26,0,0,0-1,.48,2.2,2.2,0,0,0-.38,1.36,1.91,1.91,0,0,0,.36,1.21,1.19,1.19,0,0,0,1,.45,1.25,1.25,0,0,0,1-.44A1.6,1.6,0,0,0,74,54.63Z" fill="#007efd"/><path d="M79.35,56.67h-.72V56h0a1.64,1.64,0,0,1-2.43.46,1.23,1.23,0,0,1-.38-1c0-.84.49-1.33,1.48-1.47l1.35-.18c0-.77-.31-1.15-.93-1.15a2.18,2.18,0,0,0-1.46.55v-.74a2.79,2.79,0,0,1,1.53-.42c1,0,1.58.56,1.58,1.68Zm-.72-2.28-1.08.15a1.78,1.78,0,0,0-.76.25.72.72,0,0,0-.25.63.68.68,0,0,0,.23.54.92.92,0,0,0,.63.21,1.16,1.16,0,0,0,.88-.38,1.36,1.36,0,0,0,.35-.95Z" fill="#007efd"/><path d="M84.55,56.67h-.72V55.9h0a1.66,1.66,0,0,1-1.54.87,1.69,1.69,0,0,1-1.36-.6,2.47,2.47,0,0,1-.51-1.65A2.74,2.74,0,0,1,81,52.73a1.89,1.89,0,0,1,1.5-.67,1.43,1.43,0,0,1,1.35.73h0V50h.72Zm-.72-2V54a1.28,1.28,0,0,0-.36-.92,1.19,1.19,0,0,0-.91-.38,1.25,1.25,0,0,0-1,.48,2.14,2.14,0,0,0-.38,1.34,1.94,1.94,0,0,0,.36,1.23,1.21,1.21,0,0,0,1,.45,1.22,1.22,0,0,0,1-.44A1.59,1.59,0,0,0,83.83,54.63Z" fill="#007efd"/><path d="M87.89,56.77a2.08,2.08,0,0,1-1.59-.63,2.33,2.33,0,0,1-.6-1.67,2.43,2.43,0,0,1,.62-1.77A2.21,2.21,0,0,1,88,52.06a2,2,0,0,1,1.57.62,2.49,2.49,0,0,1,.56,1.72,2.38,2.38,0,0,1-.61,1.72A2.1,2.1,0,0,1,87.89,56.77Zm0-4.1a1.36,1.36,0,0,0-1.1.47,2,2,0,0,0-.4,1.3,1.82,1.82,0,0,0,.41,1.26,1.39,1.39,0,0,0,1.09.47A1.3,1.3,0,0,0,89,55.71a2,2,0,0,0,.37-1.28A2,2,0,0,0,89,53.12,1.33,1.33,0,0,0,87.94,52.67Z" fill="#007efd"/><path d="M93.63,52.9a.88.88,0,0,0-.55-.15.94.94,0,0,0-.77.44A2,2,0,0,0,92,54.37v2.3h-.72v-4.5H92v.92h0a1.6,1.6,0,0,1,.47-.74,1.11,1.11,0,0,1,.71-.26,1.19,1.19,0,0,1,.43.06Z" fill="#007efd"/></g><path d="M7.85,13.61a4.49,4.49,0,0,0-3,5.66c.66,2.56,3,4.22,5.27,3.67a4.5,4.5,0,0,0,3-5.67C12.57,14.61,10.16,12.94,7.85,13.61Z" fill="#008bfd"/><path d="M12.79,23.63c-.44,0-.88.78-1.54,1.11s-1.32.89-3.18,0S6,23.08,4.44,23.08.38,25.85.38,30H16a12.14,12.14,0,0,0-1.1-4.22C13.77,23.63,13.23,23.63,12.79,23.63Z" fill="#008bfd"/><path d="M14.19,18.69H10.07a.71.71,0,0,0-.65.66V22.2a.73.73,0,0,0,.76.66h.76V28a1,1,0,0,0,1,1.1,1,1,0,0,0,1-1h.21v-.65c0-.22.33-.33.33-.33V26.8c-.33-.11-.54-.33-.54-.44V26l.21-.22a3.55,3.55,0,0,0,.33-.54,2.4,2.4,0,0,1-.33-.55c-.1-.11-.1-.33-.21-.44v-.22a2.51,2.51,0,0,1,.76-1.1h.54a.7.7,0,0,0,.65-.65v-3A.63.63,0,0,0,14.19,18.69ZM11.8,28.22c0,.22,0,.33-.21.33s-.22-.22-.22-.33V23.4c0-.22.11-.33.22-.33s.21.22.21.33Zm.33-7.78a.69.69,0,0,1-.65-.65.7.7,0,0,1,.65-.66.71.71,0,0,1,.65.66A.62.62,0,0,1,12.13,20.44Z" fill="#008bfd" stroke="gray" stroke-linecap="round" stroke-linejoin="round" stroke-width="0.75"/><path d="M11.57,28.53a.24.24,0,0,1-.22-.22v-5a.22.22,0,1,1,.44,0v5.11C11.79,28.53,11.68,28.53,11.57,28.53Z" fill="#fff"/><ellipse cx="12.14" cy="19.77" rx="0.66" ry="0.67" fill="#fff"/><path d="M191.76,8.21h-20.5a1.09,1.09,0,0,0-1.09,1.1V26.05a1.1,1.1,0,0,0,1.09,1.11h5.28a3.29,3.29,0,0,0,3.21,2.27,3.38,3.38,0,0,0,0-6.75A3.29,3.29,0,0,0,176.54,25h-4.19V13h18.31V25h-3.45a7.61,7.61,0,0,0-7.46-6.56,8.25,8.25,0,0,0-3.64.92l1,2a5.27,5.27,0,0,1,2.55-.67,5.46,5.46,0,0,1,0,10.91,5.27,5.27,0,0,1-2.55-.67l-1,2a7.51,7.51,0,0,0,3.64.92,7.61,7.61,0,0,0,7.46-6.56h4.55a1.1,1.1,0,0,0,1.09-1.11V9.31A1.14,1.14,0,0,0,191.76,8.21Z" fill="#008bfd"/><g style="isolation:isolate"><path d="M166.48,46.72h-.82L165,45h-2.67l-.63,1.77h-.82l2.42-6.31h.76Zm-1.73-2.43-1-2.69a2.85,2.85,0,0,1-.09-.42h0a2.17,2.17,0,0,1-.1.42l-1,2.69Z" fill="#008bfd"/><path d="M168.05,46.07h0v2.72h-.72V42.22H168V43h0a1.69,1.69,0,0,1,1.55-.9,1.63,1.63,0,0,1,1.36.61,2.46,2.46,0,0,1,.49,1.61,2.75,2.75,0,0,1-.55,1.81,1.82,1.82,0,0,1-1.5.68A1.49,1.49,0,0,1,168.05,46.07Zm0-1.82v.63a1.36,1.36,0,0,0,.36.95,1.29,1.29,0,0,0,2-.12,2.25,2.25,0,0,0,.37-1.39,1.84,1.84,0,0,0-.35-1.18,1.15,1.15,0,0,0-.94-.42,1.28,1.28,0,0,0-1,.43A1.65,1.65,0,0,0,168,44.25Z" fill="#008bfd"/><path d="M173.32,46.72h-.72V40.05h.72Z" fill="#008bfd"/><path d="M175.15,41.07a.44.44,0,0,1-.33-.13.45.45,0,0,1-.14-.33.46.46,0,0,1,.14-.34.44.44,0,0,1,.33-.13.48.48,0,0,1,.34.13.45.45,0,0,1,.13.34.44.44,0,0,1-.13.33A.48.48,0,0,1,175.15,41.07Zm.35,5.65h-.72v-4.5h.72Z" fill="#008bfd"/><path d="M180,46.51a2.34,2.34,0,0,1-1.23.31,2.09,2.09,0,0,1-1.56-.62,2.3,2.3,0,0,1-.59-1.63,2.44,2.44,0,0,1,.64-1.78,2.22,2.22,0,0,1,1.7-.68,2.35,2.35,0,0,1,1,.22v.74a1.83,1.83,0,0,0-1.08-.35,1.45,1.45,0,0,0-1.13.49,1.89,1.89,0,0,0-.44,1.3,1.78,1.78,0,0,0,.42,1.25,1.42,1.42,0,0,0,1.11.46,1.78,1.78,0,0,0,1.11-.4Z" fill="#008bfd"/><path d="M184.34,46.72h-.72V46h0a1.5,1.5,0,0,1-1.38.81,1.54,1.54,0,0,1-1.06-.35,1.27,1.27,0,0,1-.38-.95c0-.84.5-1.33,1.49-1.47l1.35-.19q0-1.14-.93-1.14a2.22,2.22,0,0,0-1.47.55v-.74a2.81,2.81,0,0,1,1.53-.42q1.59,0,1.59,1.68Zm-.72-2.28-1.09.15a1.78,1.78,0,0,0-.75.25.72.72,0,0,0-.26.63.68.68,0,0,0,.24.54.88.88,0,0,0,.62.21,1.16,1.16,0,0,0,.89-.38,1.36,1.36,0,0,0,.35-1Z" fill="#008bfd"/><path d="M187.78,46.67a1.31,1.31,0,0,1-.67.14c-.79,0-1.18-.44-1.18-1.32V42.83h-.77v-.61h.77v-1.1l.72-.24v1.34h1.13v.61h-1.13v2.54a1.06,1.06,0,0,0,.15.64.63.63,0,0,0,.51.2.73.73,0,0,0,.47-.15Z" fill="#008bfd"/><path d="M189.12,41.07a.44.44,0,0,1-.33-.13.42.42,0,0,1-.14-.33.42.42,0,0,1,.14-.34.48.48,0,0,1,.66,0,.46.46,0,0,1,.14.34.45.45,0,0,1-.14.33A.44.44,0,0,1,189.12,41.07Zm.35,5.65h-.72v-4.5h.72Z" fill="#008bfd"/><path d="M194.46,42.22l-1.79,4.5H192l-1.7-4.5h.79l1.14,3.27a2.7,2.7,0,0,1,.16.62h0a2.86,2.86,0,0,1,.14-.61l1.19-3.28Z" fill="#008bfd"/><path d="M197.12,46.82a2.1,2.1,0,0,1-1.6-.63,2.36,2.36,0,0,1-.59-1.67,2.43,2.43,0,0,1,.62-1.77,2.2,2.2,0,0,1,1.67-.64,2,2,0,0,1,1.57.62,2.45,2.45,0,0,1,.57,1.72,2.38,2.38,0,0,1-.61,1.72A2.11,2.11,0,0,1,197.12,46.82Zm0-4.1a1.36,1.36,0,0,0-1.1.47,1.93,1.93,0,0,0-.4,1.3,1.77,1.77,0,0,0,.41,1.26,1.37,1.37,0,0,0,1.09.47,1.28,1.28,0,0,0,1.07-.46,1.9,1.9,0,0,0,.38-1.28,2,2,0,0,0-.38-1.31A1.31,1.31,0,0,0,197.17,42.72Z" fill="#008bfd"/><path d="M173.22,57.52h-.72v-.77h0a1.67,1.67,0,0,1-1.55.87,1.69,1.69,0,0,1-1.36-.6,2.48,2.48,0,0,1-.5-1.65,2.68,2.68,0,0,1,.56-1.79,1.87,1.87,0,0,1,1.5-.67,1.45,1.45,0,0,1,1.35.73h0V50.85h.72Zm-.72-2v-.66a1.27,1.27,0,0,0-.36-.92,1.17,1.17,0,0,0-.91-.38,1.25,1.25,0,0,0-1,.48,2.14,2.14,0,0,0-.38,1.34,1.88,1.88,0,0,0,.37,1.23,1.2,1.2,0,0,0,1,.45,1.24,1.24,0,0,0,1-.44A1.63,1.63,0,0,0,172.5,55.48Z" fill="#008bfd"/><path d="M178.3,55.45h-3.18a1.68,1.68,0,0,0,.41,1.16,1.39,1.39,0,0,0,1.06.41,2.2,2.2,0,0,0,1.4-.51v.68a2.61,2.61,0,0,1-1.57.43,1.89,1.89,0,0,1-1.5-.61,2.54,2.54,0,0,1-.54-1.73,2.44,2.44,0,0,1,.59-1.71,1.92,1.92,0,0,1,1.48-.66,1.71,1.71,0,0,1,1.37.57,2.4,2.4,0,0,1,.48,1.59Zm-.74-.61a1.47,1.47,0,0,0-.3-1,1,1,0,0,0-.82-.34,1.19,1.19,0,0,0-.87.36,1.68,1.68,0,0,0-.44,1Z" fill="#008bfd"/><path d="M186.83,57.52H186l-.67-1.77h-2.67L182,57.52h-.82l2.42-6.31h.76Zm-1.73-2.43-1-2.69A2.85,2.85,0,0,1,184,52h0a2.17,2.17,0,0,1-.1.42l-1,2.69Z" fill="#008bfd"/><path d="M188.5,55.13v2.39h-.74V51.21h1.73a2.27,2.27,0,0,1,1.56.5,1.75,1.75,0,0,1,.56,1.39,1.91,1.91,0,0,1-.62,1.46,2.34,2.34,0,0,1-1.66.57Zm0-3.25v2.59h.77a1.76,1.76,0,0,0,1.17-.35,1.27,1.27,0,0,0,.4-1c0-.83-.5-1.25-1.48-1.25Z" fill="#008bfd"/><path d="M193.54,57.52h-.74V51.21h.74Z" fill="#008bfd"/></g><path d="M161.69,17l8.05,4-8,4a9,9,0,0,0,0-8" fill="#505050"/><rect x="73.89" y="0.37" width="90.38" height="20" fill="none"/><g style="isolation:isolate"><path d="M87.67,2.7H85.21V4.88h2.27v.66H85.21V8.33h-.74V2h3.2Z" fill="#00b0f0"/><path d="M89.49,8.33h-.72V1.67h.72Z" fill="#00b0f0"/><path d="M94.58,8.33h-.72V7.62h0a1.48,1.48,0,0,1-1.39.82c-1.08,0-1.61-.64-1.61-1.92V3.83h.71V6.41c0,1,.37,1.42,1.09,1.42a1.1,1.1,0,0,0,.87-.39,1.44,1.44,0,0,0,.34-1V3.83h.72Z" fill="#00b0f0"/><path d="M99.33,3.83,97.81,6.11,99.3,8.33h-.84l-.88-1.45c-.06-.1-.13-.21-.2-.35h0s-.08.14-.21.35l-.9,1.45h-.83L97,6.13l-1.47-2.3h.84l.87,1.54.19.35h0l1.13-1.89Z" fill="#00b0f0"/><path d="M102.05,8.44a2.06,2.06,0,0,1-1.59-.63,2.33,2.33,0,0,1-.6-1.67,2.43,2.43,0,0,1,.62-1.77,2.21,2.21,0,0,1,1.68-.64,2,2,0,0,1,1.57.62,2.47,2.47,0,0,1,.56,1.72,2.4,2.4,0,0,1-.61,1.72A2.13,2.13,0,0,1,102.05,8.44Zm0-4.1a1.36,1.36,0,0,0-1.1.47,1.93,1.93,0,0,0-.4,1.3A1.84,1.84,0,0,0,101,7.37a1.38,1.38,0,0,0,1.09.46,1.33,1.33,0,0,0,1.08-.45,2,2,0,0,0,.37-1.29,2,2,0,0,0-.37-1.3A1.33,1.33,0,0,0,102.1,4.34Z" fill="#00b0f0"/><path d="M111.75,8.33H111V7.57h0a1.66,1.66,0,0,1-1.55.87,1.68,1.68,0,0,1-1.35-.6,2.5,2.5,0,0,1-.51-1.65,2.74,2.74,0,0,1,.56-1.79,1.86,1.86,0,0,1,1.5-.67,1.43,1.43,0,0,1,1.35.73h0V1.67h.72Zm-.72-2V5.64a1.31,1.31,0,0,0-.36-.93,1.34,1.34,0,0,0-2,.11,2.06,2.06,0,0,0-.38,1.33,1.92,1.92,0,0,0,.36,1.23,1.19,1.19,0,0,0,1,.45,1.22,1.22,0,0,0,1-.43A1.63,1.63,0,0,0,111,6.3Z" fill="#00b0f0"/><path d="M115.09,8.44a2.06,2.06,0,0,1-1.59-.63,2.33,2.33,0,0,1-.6-1.67,2.43,2.43,0,0,1,.62-1.77,2.2,2.2,0,0,1,1.67-.64,2,2,0,0,1,1.58.62,2.47,2.47,0,0,1,.56,1.72,2.4,2.4,0,0,1-.61,1.72A2.13,2.13,0,0,1,115.09,8.44Zm0-4.1a1.36,1.36,0,0,0-1.1.47,1.93,1.93,0,0,0-.4,1.3,1.79,1.79,0,0,0,.41,1.26,1.36,1.36,0,0,0,1.09.46,1.33,1.33,0,0,0,1.08-.45,2,2,0,0,0,.37-1.29,2,2,0,0,0-.37-1.3A1.33,1.33,0,0,0,115.14,4.34Z" fill="#00b0f0"/><path d="M124,8.13a2.29,2.29,0,0,1-1.23.31,2,2,0,0,1-1.55-.63,2.26,2.26,0,0,1-.59-1.62,2.49,2.49,0,0,1,.64-1.79,2.21,2.21,0,0,1,1.7-.67A2.31,2.31,0,0,1,124,4v.74A1.78,1.78,0,0,0,123,4.34a1.43,1.43,0,0,0-1.13.49,1.85,1.85,0,0,0-.44,1.3,1.83,1.83,0,0,0,.41,1.25,1.45,1.45,0,0,0,1.12.45,1.78,1.78,0,0,0,1.1-.39Z" fill="#00b0f0"/><path d="M127,8.44a2.09,2.09,0,0,1-1.59-.63,2.32,2.32,0,0,1-.59-1.67,2.39,2.39,0,0,1,.62-1.77,2.2,2.2,0,0,1,1.67-.64,2,2,0,0,1,1.57.62,2.43,2.43,0,0,1,.57,1.72,2.44,2.44,0,0,1-.61,1.72A2.15,2.15,0,0,1,127,8.44Zm.06-4.1a1.35,1.35,0,0,0-1.1.47,1.93,1.93,0,0,0-.41,1.3,1.84,1.84,0,0,0,.41,1.26,1.4,1.4,0,0,0,1.1.46,1.32,1.32,0,0,0,1.07-.45,2,2,0,0,0,.38-1.29,2,2,0,0,0-.38-1.3A1.32,1.32,0,0,0,127,4.34Zm1-2.8L126.94,3h-.56l1-1.44Z" fill="#00b0f0"/><path d="M134.22,8.33h-.72V7.57h0a1.66,1.66,0,0,1-1.55.87,1.68,1.68,0,0,1-1.35-.6,2.5,2.5,0,0,1-.51-1.65,2.74,2.74,0,0,1,.56-1.79,1.86,1.86,0,0,1,1.5-.67,1.43,1.43,0,0,1,1.35.73h0V1.67h.72Zm-.72-2V5.64a1.31,1.31,0,0,0-.36-.93,1.34,1.34,0,0,0-1.95.11,2.06,2.06,0,0,0-.38,1.33,1.92,1.92,0,0,0,.36,1.23,1.19,1.19,0,0,0,1,.45,1.23,1.23,0,0,0,1-.43A1.63,1.63,0,0,0,133.5,6.3Z" fill="#00b0f0"/><path d="M136.05,2.69a.44.44,0,0,1-.33-.13.45.45,0,0,1-.14-.33.46.46,0,0,1,.14-.34.48.48,0,0,1,.66,0,.46.46,0,0,1,.14.34.45.45,0,0,1-.14.33A.44.44,0,0,1,136.05,2.69Zm.35,5.64h-.72V3.83h.72Z" fill="#00b0f0"/><path d="M141.7,8c0,1.66-.79,2.48-2.38,2.48a3.16,3.16,0,0,1-1.45-.31V9.42a3,3,0,0,0,1.45.42c1.1,0,1.66-.59,1.66-1.77V7.58h0a1.82,1.82,0,0,1-2.9.26,2.41,2.41,0,0,1-.51-1.61,2.78,2.78,0,0,1,.55-1.82,1.82,1.82,0,0,1,1.51-.68,1.45,1.45,0,0,1,1.35.73h0V3.83h.72ZM141,6.3V5.64a1.25,1.25,0,0,0-.37-.92,1.17,1.17,0,0,0-.9-.38,1.25,1.25,0,0,0-1,.48,2.14,2.14,0,0,0-.38,1.36,1.87,1.87,0,0,0,.36,1.2,1.17,1.17,0,0,0,1,.45,1.27,1.27,0,0,0,1-.43A1.6,1.6,0,0,0,141,6.3Z" fill="#00b0f0"/><path d="M145,8.44a2.1,2.1,0,0,1-1.6-.63,2.36,2.36,0,0,1-.59-1.67,2.43,2.43,0,0,1,.62-1.77,2.2,2.2,0,0,1,1.67-.64,2,2,0,0,1,1.57.62,2.43,2.43,0,0,1,.57,1.72,2.4,2.4,0,0,1-.61,1.72A2.15,2.15,0,0,1,145,8.44Zm.05-4.1a1.36,1.36,0,0,0-1.1.47,1.93,1.93,0,0,0-.4,1.3A1.79,1.79,0,0,0,144,7.37a1.36,1.36,0,0,0,1.09.46,1.31,1.31,0,0,0,1.07-.45,1.91,1.91,0,0,0,.38-1.29,2,2,0,0,0-.38-1.3A1.31,1.31,0,0,0,145.09,4.34Z" fill="#00b0f0"/><path d="M92.38,17.33h-.72v-.76h0a1.67,1.67,0,0,1-1.55.87,1.69,1.69,0,0,1-1.36-.6,2.5,2.5,0,0,1-.5-1.65,2.68,2.68,0,0,1,.56-1.79,1.84,1.84,0,0,1,1.5-.67,1.44,1.44,0,0,1,1.35.73h0V10.67h.72Zm-.72-2v-.66a1.31,1.31,0,0,0-.36-.93,1.2,1.2,0,0,0-.91-.37,1.25,1.25,0,0,0-1,.48A2.12,2.12,0,0,0,89,15.15a1.92,1.92,0,0,0,.37,1.23,1.17,1.17,0,0,0,1,.45,1.23,1.23,0,0,0,1-.43A1.63,1.63,0,0,0,91.66,15.3Z" fill="#00b0f0"/><path d="M95.72,17.44a2.09,2.09,0,0,1-1.59-.63,2.32,2.32,0,0,1-.59-1.67,2.39,2.39,0,0,1,.62-1.77,2.2,2.2,0,0,1,1.67-.64,2,2,0,0,1,1.57.62A2.43,2.43,0,0,1,98,15.07a2.44,2.44,0,0,1-.61,1.72A2.15,2.15,0,0,1,95.72,17.44Zm.06-4.1a1.35,1.35,0,0,0-1.1.47,1.93,1.93,0,0,0-.41,1.3,1.84,1.84,0,0,0,.41,1.26,1.4,1.4,0,0,0,1.1.46,1.32,1.32,0,0,0,1.07-.45,2,2,0,0,0,.38-1.29,2,2,0,0,0-.38-1.3A1.32,1.32,0,0,0,95.78,13.34Z" fill="#00b0f0"/><path d="M105.42,17.33h-.72v-.76h0a1.66,1.66,0,0,1-1.54.87,1.69,1.69,0,0,1-1.36-.6,2.5,2.5,0,0,1-.51-1.65,2.69,2.69,0,0,1,.57-1.79,1.84,1.84,0,0,1,1.5-.67,1.43,1.43,0,0,1,1.34.73h0V10.67h.72Zm-.72-2v-.66a1.31,1.31,0,0,0-.36-.93,1.2,1.2,0,0,0-.91-.37,1.25,1.25,0,0,0-1,.48,2.12,2.12,0,0,0-.38,1.33,1.86,1.86,0,0,0,.37,1.23,1.17,1.17,0,0,0,1,.45,1.23,1.23,0,0,0,1-.43A1.63,1.63,0,0,0,104.7,15.3Z" fill="#00b0f0"/><path d="M107.25,11.69a.44.44,0,0,1-.46-.46.45.45,0,0,1,.13-.34.44.44,0,0,1,.33-.13.47.47,0,0,1,.34.13.46.46,0,0,1,.14.34.45.45,0,0,1-.14.33A.47.47,0,0,1,107.25,11.69Zm.35,5.64h-.72v-4.5h.72Z" fill="#00b0f0"/><path d="M108.79,17.17V16.4a2.12,2.12,0,0,0,1.3.43c.63,0,1-.21,1-.63a.49.49,0,0,0-.09-.3.68.68,0,0,0-.22-.23,1.91,1.91,0,0,0-.32-.17l-.4-.16a5.46,5.46,0,0,1-.53-.24,1.61,1.61,0,0,1-.38-.27,1,1,0,0,1-.22-.35,1.06,1.06,0,0,1-.08-.45,1.13,1.13,0,0,1,.14-.56,1.38,1.38,0,0,1,.39-.41,1.85,1.85,0,0,1,.55-.25,2.74,2.74,0,0,1,.64-.08,2.69,2.69,0,0,1,1,.2v.73a2,2,0,0,0-1.15-.32,1.37,1.37,0,0,0-.36,0,1,1,0,0,0-.28.13.57.57,0,0,0-.18.2.55.55,0,0,0-.06.26.55.55,0,0,0,.25.5,1.07,1.07,0,0,0,.3.17l.4.16L111,15a2.08,2.08,0,0,1,.41.27,1.07,1.07,0,0,1,.25.35,1.13,1.13,0,0,1,.09.47,1.18,1.18,0,0,1-.14.58,1.3,1.3,0,0,1-.4.41,1.67,1.67,0,0,1-.56.24,3,3,0,0,1-.68.08A2.53,2.53,0,0,1,108.79,17.17Z" fill="#00b0f0"/><path d="M113.62,16.68h0V19.4h-.72V12.83h.72v.8h0a1.69,1.69,0,0,1,1.55-.9,1.65,1.65,0,0,1,1.36.6A2.5,2.5,0,0,1,117,15a2.75,2.75,0,0,1-.55,1.81,1.84,1.84,0,0,1-1.5.68A1.49,1.49,0,0,1,113.62,16.68Zm0-1.81v.63a1.31,1.31,0,0,0,.36.94,1.22,1.22,0,0,0,.92.39,1.2,1.2,0,0,0,1-.5,2.27,2.27,0,0,0,.37-1.39,1.79,1.79,0,0,0-.35-1.18,1.15,1.15,0,0,0-.94-.42,1.29,1.29,0,0,0-1,.43A1.63,1.63,0,0,0,113.6,14.87Z" fill="#00b0f0"/><path d="M120.05,17.44a2.09,2.09,0,0,1-1.59-.63,2.33,2.33,0,0,1-.6-1.67,2.43,2.43,0,0,1,.62-1.77,2.24,2.24,0,0,1,1.68-.64,2,2,0,0,1,1.57.62,2.43,2.43,0,0,1,.56,1.72,2.44,2.44,0,0,1-.6,1.72A2.15,2.15,0,0,1,120.05,17.44Zm.06-4.1a1.35,1.35,0,0,0-1.1.47,1.93,1.93,0,0,0-.41,1.3,1.84,1.84,0,0,0,.41,1.26,1.38,1.38,0,0,0,1.1.46,1.32,1.32,0,0,0,1.07-.45,2,2,0,0,0,.38-1.29,2,2,0,0,0-.38-1.3A1.32,1.32,0,0,0,120.11,13.34Z" fill="#00b0f0"/><path d="M123.17,17.17V16.4a2.16,2.16,0,0,0,1.3.43c.63,0,1-.21,1-.63a.56.56,0,0,0-.08-.3,1,1,0,0,0-.22-.23,1.69,1.69,0,0,0-.33-.17l-.4-.16a5.2,5.2,0,0,1-.52-.24,1.42,1.42,0,0,1-.38-.27,1,1,0,0,1-.23-.35,1.25,1.25,0,0,1-.08-.45,1,1,0,0,1,.15-.56,1.24,1.24,0,0,1,.38-.41,2,2,0,0,1,.55-.25,2.74,2.74,0,0,1,.64-.08,2.69,2.69,0,0,1,1,.2v.73a2,2,0,0,0-1.14-.32,1.4,1.4,0,0,0-.37,0,1,1,0,0,0-.28.13.86.86,0,0,0-.18.2.55.55,0,0,0-.06.26.62.62,0,0,0,.06.29.76.76,0,0,0,.19.21,1.07,1.07,0,0,0,.3.17l.4.16.54.24a2,2,0,0,1,.4.27,1.1,1.1,0,0,1,.26.35,1.13,1.13,0,0,1,.09.47,1.09,1.09,0,0,1-.15.58,1.38,1.38,0,0,1-.39.41,1.81,1.81,0,0,1-.57.24,3,3,0,0,1-.67.08A2.54,2.54,0,0,1,123.17,17.17Z" fill="#00b0f0"/><path d="M127.63,11.69a.44.44,0,0,1-.46-.46.45.45,0,0,1,.13-.34.44.44,0,0,1,.33-.13.47.47,0,0,1,.34.13.46.46,0,0,1,.14.34.45.45,0,0,1-.14.33A.47.47,0,0,1,127.63,11.69Zm.35,5.64h-.72v-4.5H128Z" fill="#00b0f0"/><path d="M131.53,17.29a1.42,1.42,0,0,1-.67.14c-.79,0-1.18-.44-1.18-1.32V13.45h-.78v-.62h.78V11.74l.72-.24v1.33h1.13v.62H130.4V16a1.07,1.07,0,0,0,.15.65.6.6,0,0,0,.51.19.82.82,0,0,0,.47-.14Z" fill="#00b0f0"/><path d="M132.86,11.69a.44.44,0,0,1-.46-.46.45.45,0,0,1,.13-.34.44.44,0,0,1,.33-.13.47.47,0,0,1,.34.13.46.46,0,0,1,.14.34.45.45,0,0,1-.14.33A.47.47,0,0,1,132.86,11.69Zm.35,5.64h-.72v-4.5h.72Z" fill="#00b0f0"/><path d="M138.21,12.83l-1.79,4.5h-.71L134,12.83h.8l1.14,3.27a3.23,3.23,0,0,1,.16.63h0a3.42,3.42,0,0,1,.14-.61l1.2-3.29Z" fill="#00b0f0"/><path d="M140.87,17.44a2.1,2.1,0,0,1-1.6-.63,2.36,2.36,0,0,1-.59-1.67,2.39,2.39,0,0,1,.62-1.77,2.2,2.2,0,0,1,1.67-.64,2,2,0,0,1,1.57.62,2.43,2.43,0,0,1,.57,1.72,2.44,2.44,0,0,1-.61,1.72A2.15,2.15,0,0,1,140.87,17.44Zm0-4.1a1.36,1.36,0,0,0-1.1.47,1.93,1.93,0,0,0-.4,1.3,1.83,1.83,0,0,0,.4,1.26,1.4,1.4,0,0,0,1.1.46,1.32,1.32,0,0,0,1.07-.45,2,2,0,0,0,.38-1.29,2,2,0,0,0-.38-1.3A1.32,1.32,0,0,0,140.92,13.34Z" fill="#00b0f0"/></g></svg>