<svg xmlns="http://www.w3.org/2000/svg" width="204.71" height="64.78" viewBox="0 0 204.71 64.78"><title>OJ104440671</title><path d="M66,40.4a11.81,11.81,0,0,1-16.84-2.29,12.56,12.56,0,0,1,2.24-17.29,11.82,11.82,0,0,1,16.84,2.3A12.54,12.54,0,0,1,66,40.4ZM69.69,22a13.57,13.57,0,0,0-19.36-2.63,14.43,14.43,0,0,0-2.55,19.87,13.62,13.62,0,0,0,11,5.55,13.45,13.45,0,0,0,8.39-2.92A14.44,14.44,0,0,0,69.69,22Z" fill="#008bfd" fill-rule="evenodd"/><path d="M52.06,33.18a17,17,0,0,1-2-2.35,18.28,18.28,0,0,0-1.66,6.88c.11.16.11.29.23.44a12.55,12.55,0,0,0,2,2.05A14.13,14.13,0,0,1,52.06,33.18Z" fill="#008bfd" fill-rule="evenodd"/><path d="M56.67,23.74a21,21,0,0,0-3.33,3,15.71,15.71,0,0,0-1.61,2.05,15.42,15.42,0,0,0,1.9,2.46,16.32,16.32,0,0,1,2.2-2.56A26.47,26.47,0,0,1,59,26.06C58.16,25.3,57.38,24.53,56.67,23.74Z" fill="#008bfd" fill-rule="evenodd"/><path d="M68.14,22.94a12,12,0,0,0-1.73-1.82,12.53,12.53,0,0,0-8,1.53c.76.84,1.51,1.63,2.24,2.36C65,22.58,68.14,22.94,68.14,22.94Z" fill="#008bfd" fill-rule="evenodd"/><path d="M50.54,30.63a19.82,19.82,0,0,1,1.19-2.06,9.84,9.84,0,0,1-1.6-6.79,13.09,13.09,0,0,0-1.29,1.6C48.46,25,48.44,27.55,50.54,30.63Z" fill="#008bfd" fill-rule="evenodd"/><path d="M55.9,33.36a21.6,21.6,0,0,1-2.27-2.14,14.25,14.25,0,0,0-1.14,2,23.54,23.54,0,0,0,2.09,1.91,19.12,19.12,0,0,0,12.56,4.38,9,9,0,0,0,1.54-1.94C67.45,37.78,62.19,38.47,55.9,33.36Z" fill="#008bfd" fill-rule="evenodd"/><path d="M50.54,30.82a15.72,15.72,0,0,0,2,2.35,15.36,15.36,0,0,1,1.14-2,15.42,15.42,0,0,1-1.9-2.46A15.58,15.58,0,0,0,50.54,30.82Z" fill="#008bfd" fill-rule="evenodd"/><path d="M59,26.06a97,97,0,0,0,11.15,8.82,9.82,9.82,0,0,0,.33-1.05A95.51,95.51,0,0,1,60.61,25Q59.82,25.46,59,26.06Z" fill="#008bfd" fill-rule="evenodd"/><path d="M58.38,22.65q-1.65-1.77-3.36-3.8a10.05,10.05,0,0,0-1.59.66,26.3,26.3,0,0,0,3.24,4.22A17.22,17.22,0,0,1,58.38,22.65Z" fill="#008bfd" fill-rule="evenodd"/><path d="M58.45,22.61a18.74,18.74,0,0,0-1.87,1.19c.72.78,1.45,1.59,2.25,2.35.57-.4,1.34-.88,1.87-1.18C60,24.24,59.21,23.45,58.45,22.61Z" fill="#008bfd" fill-rule="evenodd"/><path d="M58.25,22.51a16.24,16.24,0,0,0-1.67,1.12c.72.79,1.74,1.81,2.54,2.57.57-.4,1.05-.8,1.58-1.11C60,24.37,59,23.34,58.25,22.51Z" fill="#008bfd" fill-rule="evenodd"/><path d="M64.3,29.06a2.7,2.7,0,0,0-.48,3.7,2.56,2.56,0,0,0,3.63.51,2.72,2.72,0,0,0,.48-3.72A2.55,2.55,0,0,0,64.3,29.06Z" fill="#008bfd" fill-rule="evenodd"/><path d="M49.34,35.67a2.52,2.52,0,0,0-.45,3.44,2.37,2.37,0,0,0,3.36.45,2.49,2.49,0,0,0,.44-3.43A2.36,2.36,0,0,0,49.34,35.67Z" fill="#008bfd" fill-rule="evenodd"/><path d="M50,27.86a3.79,3.79,0,0,0-.68,5.21,3.58,3.58,0,0,0,5.1.7,3.8,3.8,0,0,0,.67-5.23A3.59,3.59,0,0,0,50,27.86Z" fill="#008bfd" fill-rule="evenodd"/><path d="M191.76,17.85h-20.5A1.1,1.1,0,0,0,170.17,19V35.7a1.09,1.09,0,0,0,1.09,1.1h5.28a3.29,3.29,0,0,0,3.21,2.27,3.37,3.37,0,0,0,0-6.74,3.29,3.29,0,0,0-3.21,2.26h-4.19v-12h18.31v12h-3.45A7.61,7.61,0,0,0,179.75,28a8.25,8.25,0,0,0-3.64.92l1,2a5.39,5.39,0,0,1,2.55-.67,5.46,5.46,0,0,1,0,10.92,5.28,5.28,0,0,1-2.55-.68l-1,2a7.4,7.4,0,0,0,3.64.92,7.61,7.61,0,0,0,7.46-6.56h4.55a1.09,1.09,0,0,0,1.09-1.1V19A1.14,1.14,0,0,0,191.76,17.85Z" fill="#008bfd" fill-rule="evenodd"/><path d="M161.7,26.59l8,4-8,4a9,9,0,0,0,0-8" fill="#505050" fill-rule="evenodd"/><path d="M7.85,22.77a4.5,4.5,0,0,0-3,5.67c.66,2.55,3,4.21,5.27,3.66a4.49,4.49,0,0,0,3-5.66C12.57,23.77,10.16,22.11,7.85,22.77Z" fill="#008bfd" fill-rule="evenodd"/><path d="M12.79,32.79c-.44,0-.88.77-1.54,1.11s-1.32.88-3.18,0S6,32.23,4.44,32.23.38,35,.38,39.11H16a12.05,12.05,0,0,0-1.1-4.21C13.77,32.79,13.23,32.79,12.79,32.79Z" fill="#008bfd" fill-rule="evenodd"/><path d="M14.19,27.84H10.07a.71.71,0,0,0-.65.66v2.85a.73.73,0,0,0,.76.66h.76v5.15a1,1,0,0,0,1,1.09,1,1,0,0,0,1-1h.21v-.66c0-.22.33-.33.33-.33V36c-.33-.11-.54-.33-.54-.44v-.32L13.1,35a3.53,3.53,0,0,0,.33-.55,2.4,2.4,0,0,1-.33-.55c-.1-.11-.1-.33-.21-.44v-.22a2.52,2.52,0,0,1,.76-1.09h.54a.71.71,0,0,0,.65-.66v-3A.63.63,0,0,0,14.19,27.84ZM11.8,37.38c0,.22,0,.33-.21.33s-.22-.22-.22-.33V32.56c0-.22.11-.33.22-.33s.21.22.21.33Zm.33-7.78a.66.66,0,0,1,0-1.32.71.71,0,0,1,.65.66A.63.63,0,0,1,12.13,29.6Z" fill="#008bfd" stroke="gray" stroke-linecap="round" stroke-linejoin="round" stroke-width="0.75" fill-rule="evenodd"/><path d="M11.57,37.68a.24.24,0,0,1-.22-.22v-5a.22.22,0,1,1,.44,0v5.1C11.79,37.68,11.68,37.68,11.57,37.68Z" fill="#fff" fill-rule="evenodd"/><ellipse cx="12.14" cy="28.92" rx="0.66" ry="0.67" fill="#fff"/><rect x="72.98" y="29.74" width="91.04" height="1.75" rx="0.76" ry="0.76" fill="#505050"/><rect x="65.1" y="0.38" width="114.21" height="20" fill="none"/><path d="M45.16,52.82h-.82l-.67-1.77H41l-.63,1.77h-.82L42,46.52h.76Zm-1.73-2.43-1-2.68a2.76,2.76,0,0,1-.09-.43h0a2.51,2.51,0,0,1-.1.43l-1,2.68Z"/><path d="M46.73,52.17h0v2.72H46V48.32h.72v.79h0a1.69,1.69,0,0,1,1.55-.9,1.66,1.66,0,0,1,1.36.61,2.47,2.47,0,0,1,.49,1.62,2.79,2.79,0,0,1-.55,1.81,1.84,1.84,0,0,1-1.5.68A1.5,1.5,0,0,1,46.73,52.17Zm0-1.81V51a1.34,1.34,0,0,0,.36,1,1.2,1.2,0,0,0,.92.39,1.22,1.22,0,0,0,1-.5,2.29,2.29,0,0,0,.37-1.39A1.8,1.8,0,0,0,49,49.25a1.13,1.13,0,0,0-.94-.43,1.29,1.29,0,0,0-1,.44A1.63,1.63,0,0,0,46.71,50.36Z"/><path d="M52,52.82h-.72V46.16H52Z"/><path d="M53.83,47.18a.49.49,0,0,1-.33-.13.46.46,0,0,1-.14-.34.44.44,0,0,1,.14-.33.45.45,0,0,1,.33-.14.49.49,0,0,1,.34.14.43.43,0,0,1,.13.33.44.44,0,0,1-.13.33A.49.49,0,0,1,53.83,47.18Zm.35,5.64h-.72v-4.5h.72Z"/><path d="M58.71,52.61a2.35,2.35,0,0,1-1.23.32,2,2,0,0,1-1.56-.63,2.29,2.29,0,0,1-.59-1.62A2.47,2.47,0,0,1,56,48.89a2.22,2.22,0,0,1,1.7-.68,2.49,2.49,0,0,1,1,.22v.74a1.9,1.9,0,0,0-1.08-.35,1.46,1.46,0,0,0-1.13.5,1.89,1.89,0,0,0-.44,1.29,1.77,1.77,0,0,0,.42,1.25,1.39,1.39,0,0,0,1.11.46,1.83,1.83,0,0,0,1.11-.39Z"/><path d="M63,52.82H62.3v-.7h0a1.64,1.64,0,0,1-2.44.45,1.24,1.24,0,0,1-.38-.94c0-.85.5-1.34,1.49-1.47L62.3,50c0-.77-.31-1.15-.93-1.15a2.23,2.23,0,0,0-1.47.56v-.74a2.79,2.79,0,0,1,1.53-.43q1.59,0,1.59,1.68Zm-.72-2.28-1.09.15a1.78,1.78,0,0,0-.75.25.72.72,0,0,0-.26.63.68.68,0,0,0,.24.54.88.88,0,0,0,.62.21,1.18,1.18,0,0,0,.89-.38A1.34,1.34,0,0,0,62.3,51Z"/><path d="M66.46,52.78a1.42,1.42,0,0,1-.67.14c-.79,0-1.18-.44-1.18-1.32V48.94h-.77v-.62h.77v-1.1l.72-.23v1.33h1.13v.62H65.33v2.53a1.09,1.09,0,0,0,.15.65.63.63,0,0,0,.51.19.75.75,0,0,0,.47-.15Z"/><path d="M67.79,47.18a.48.48,0,0,1-.32-.13.42.42,0,0,1-.14-.34.4.4,0,0,1,.14-.33.45.45,0,0,1,.32-.14.46.46,0,0,1,.34.14.44.44,0,0,1,.14.33.45.45,0,0,1-.14.33A.46.46,0,0,1,67.79,47.18Zm.36,5.64h-.72v-4.5h.72Z"/><path d="M73.14,48.32l-1.79,4.5h-.71l-1.7-4.5h.79l1.14,3.27a2.64,2.64,0,0,1,.16.63h0a2.61,2.61,0,0,1,.14-.61l1.19-3.29Z"/><path d="M75.8,52.93a2,2,0,0,1-1.59-.64,2.29,2.29,0,0,1-.6-1.67,2.46,2.46,0,0,1,.62-1.77,2.24,2.24,0,0,1,1.67-.64,2,2,0,0,1,1.57.62A2.46,2.46,0,0,1,78,50.55a2.41,2.41,0,0,1-.61,1.73A2.15,2.15,0,0,1,75.8,52.93Zm0-4.11a1.39,1.39,0,0,0-1.1.47,2,2,0,0,0-.4,1.31,1.81,1.81,0,0,0,.41,1.26,1.36,1.36,0,0,0,1.09.46,1.31,1.31,0,0,0,1.07-.45,1.91,1.91,0,0,0,.38-1.29,1.94,1.94,0,0,0-.38-1.3A1.28,1.28,0,0,0,75.85,48.82Z"/><path d="M58.23,56.52l-1.78,6.3h-.87l-1.29-4.61a2.52,2.52,0,0,1-.1-.64h0a3.44,3.44,0,0,1-.12.64l-1.3,4.61h-.86l-1.84-6.3h.81l1.34,4.83a3.29,3.29,0,0,1,.1.64h0a3.79,3.79,0,0,1,.13-.64l1.4-4.83h.7l1.34,4.87A2.88,2.88,0,0,1,56,62h0a3.07,3.07,0,0,1,.12-.61l1.29-4.85Z"/><path d="M62.33,60.75H59.16a1.66,1.66,0,0,0,.4,1.16,1.4,1.4,0,0,0,1.06.41,2.22,2.22,0,0,0,1.4-.5v.68a2.65,2.65,0,0,1-1.57.43,1.92,1.92,0,0,1-1.5-.62,2.52,2.52,0,0,1-.54-1.72A2.48,2.48,0,0,1,59,58.88a1.93,1.93,0,0,1,1.48-.67,1.7,1.7,0,0,1,1.37.58,2.39,2.39,0,0,1,.48,1.58Zm-.74-.61a1.43,1.43,0,0,0-.3-1,1,1,0,0,0-.82-.35,1.16,1.16,0,0,0-.87.37,1.72,1.72,0,0,0-.44,1Z"/><path d="M64.16,62.17h0v.65h-.72V56.16h.72v3h0a1.71,1.71,0,0,1,1.56-.9,1.65,1.65,0,0,1,1.35.61,2.47,2.47,0,0,1,.49,1.62A2.79,2.79,0,0,1,67,62.25a1.82,1.82,0,0,1-1.5.68A1.5,1.5,0,0,1,64.16,62.17Zm0-1.81V61a1.3,1.3,0,0,0,.37,1,1.19,1.19,0,0,0,.92.39,1.2,1.2,0,0,0,1-.5,2.29,2.29,0,0,0,.37-1.39,1.8,1.8,0,0,0-.34-1.18,1.14,1.14,0,0,0-.94-.43,1.27,1.27,0,0,0-1,.44A1.59,1.59,0,0,0,64.14,60.36Z"/><path d="M167.71,52.43h-.82l-.66-1.77h-2.68l-.62,1.77h-.83l2.42-6.3h.77ZM166,50l-1-2.69a1.84,1.84,0,0,1-.1-.42h0a2.17,2.17,0,0,1-.1.42l-1,2.69Z"/><path d="M169.28,51.78h0V54.5h-.72V47.93h.72v.79h0a1.7,1.7,0,0,1,1.56-.9,1.61,1.61,0,0,1,1.35.61,2.46,2.46,0,0,1,.49,1.61,2.75,2.75,0,0,1-.55,1.81,1.8,1.8,0,0,1-1.5.68A1.52,1.52,0,0,1,169.28,51.78Zm0-1.82v.63a1.32,1.32,0,0,0,.37.95,1.19,1.19,0,0,0,.92.39,1.2,1.2,0,0,0,1-.51,2.25,2.25,0,0,0,.37-1.39,1.84,1.84,0,0,0-.34-1.18,1.17,1.17,0,0,0-.94-.42,1.28,1.28,0,0,0-1,.44A1.61,1.61,0,0,0,169.26,50Z"/><path d="M174.55,52.43h-.72V45.76h.72Z"/><path d="M176.38,46.78a.44.44,0,0,1-.46-.46.45.45,0,0,1,.13-.34.44.44,0,0,1,.33-.13.47.47,0,0,1,.34.13.46.46,0,0,1,.14.34.45.45,0,0,1-.14.33A.47.47,0,0,1,176.38,46.78Zm.35,5.65H176v-4.5h.72Z"/><path d="M181.26,52.22a2.34,2.34,0,0,1-1.23.31,2,2,0,0,1-1.55-.62,2.26,2.26,0,0,1-.6-1.63,2.5,2.5,0,0,1,.64-1.78,2.24,2.24,0,0,1,1.7-.68,2.32,2.32,0,0,1,1.05.22v.74a1.8,1.8,0,0,0-1.07-.35,1.47,1.47,0,0,0-1.14.49,1.89,1.89,0,0,0-.44,1.3,1.78,1.78,0,0,0,.42,1.25,1.45,1.45,0,0,0,1.11.46,1.78,1.78,0,0,0,1.11-.4Z"/><path d="M185.57,52.43h-.72v-.71h0a1.64,1.64,0,0,1-2.43.46,1.23,1.23,0,0,1-.38-1c0-.84.49-1.33,1.48-1.47l1.35-.18c0-.77-.31-1.15-.93-1.15a2.18,2.18,0,0,0-1.46.55v-.74a2.78,2.78,0,0,1,1.52-.42q1.59,0,1.59,1.68Zm-.72-2.28-1.09.15a1.78,1.78,0,0,0-.75.25.72.72,0,0,0-.26.63.68.68,0,0,0,.24.54.9.9,0,0,0,.63.21,1.16,1.16,0,0,0,.88-.38,1.36,1.36,0,0,0,.35-.95Z"/><path d="M189,52.38a1.35,1.35,0,0,1-.68.14c-.78,0-1.18-.44-1.18-1.31V48.54h-.77v-.61h.77v-1.1l.72-.24v1.34H189v.61h-1.14v2.54a1,1,0,0,0,.16.64.61.61,0,0,0,.51.2.78.78,0,0,0,.47-.15Z"/><path d="M190.35,46.78a.44.44,0,0,1-.33-.13.45.45,0,0,1-.14-.33A.46.46,0,0,1,190,46a.48.48,0,0,1,.66,0,.42.42,0,0,1,.14.34.42.42,0,0,1-.14.33A.44.44,0,0,1,190.35,46.78Zm.35,5.65H190v-4.5h.72Z"/><path d="M195.7,47.93l-1.8,4.5h-.7l-1.71-4.5h.79l1.14,3.27a2.64,2.64,0,0,1,.16.63h0a3.54,3.54,0,0,1,.14-.62l1.2-3.28Z"/><path d="M198.35,52.53a2.08,2.08,0,0,1-1.59-.63,2.33,2.33,0,0,1-.6-1.67,2.43,2.43,0,0,1,.62-1.77,2.22,2.22,0,0,1,1.68-.64,2,2,0,0,1,1.57.62,2.49,2.49,0,0,1,.56,1.72,2.38,2.38,0,0,1-.61,1.72A2.1,2.1,0,0,1,198.35,52.53Zm.05-4.1a1.36,1.36,0,0,0-1.1.47,2,2,0,0,0-.4,1.3,1.82,1.82,0,0,0,.41,1.26,1.39,1.39,0,0,0,1.09.47,1.3,1.3,0,0,0,1.08-.46,2,2,0,0,0,.37-1.28,2,2,0,0,0-.37-1.31A1.33,1.33,0,0,0,198.4,48.43Z"/><path d="M173.22,62.43h-.72v-.77h0a1.67,1.67,0,0,1-1.55.87,1.69,1.69,0,0,1-1.36-.6,2.52,2.52,0,0,1-.5-1.65,2.68,2.68,0,0,1,.56-1.79,1.87,1.87,0,0,1,1.5-.67,1.44,1.44,0,0,1,1.35.73h0V55.76h.72Zm-.72-2v-.66a1.28,1.28,0,0,0-.36-.92,1.17,1.17,0,0,0-.91-.38,1.25,1.25,0,0,0-1,.48,2.14,2.14,0,0,0-.38,1.34,1.94,1.94,0,0,0,.37,1.23,1.17,1.17,0,0,0,1,.45,1.24,1.24,0,0,0,1-.44A1.63,1.63,0,0,0,172.5,60.39Z"/><path d="M178.3,60.36h-3.18a1.66,1.66,0,0,0,.41,1.16,1.4,1.4,0,0,0,1.06.41,2.2,2.2,0,0,0,1.4-.51v.68a2.61,2.61,0,0,1-1.57.43,1.89,1.89,0,0,1-1.5-.61,2.53,2.53,0,0,1-.54-1.73,2.44,2.44,0,0,1,.59-1.71,1.92,1.92,0,0,1,1.48-.66,1.71,1.71,0,0,1,1.37.57A2.4,2.4,0,0,1,178.3,60Zm-.74-.61a1.47,1.47,0,0,0-.3-1,1,1,0,0,0-.82-.34,1.19,1.19,0,0,0-.87.36,1.68,1.68,0,0,0-.44,1Z"/><path d="M186.83,62.43H186l-.67-1.77h-2.67L182,62.43h-.82l2.42-6.3h.76ZM185.1,60l-1-2.69a2.85,2.85,0,0,1-.09-.42h0a2.17,2.17,0,0,1-.1.42l-1,2.69Z"/><path d="M188.49,60v2.39h-.73v-6.3h1.73a2.26,2.26,0,0,1,1.56.49,1.76,1.76,0,0,1,.56,1.39,1.91,1.91,0,0,1-.62,1.46,2.37,2.37,0,0,1-1.67.57Zm0-3.25v2.59h.78a1.71,1.71,0,0,0,1.16-.35,1.25,1.25,0,0,0,.41-1c0-.83-.5-1.25-1.48-1.25Z"/><path d="M193.54,62.43h-.74v-6.3h.74Z"/><path d="M89.84,7.74H87.38V9.92h2.27v.66H87.38v2.79h-.74V7.07h3.2Z" fill="#00b0f0"/><path d="M91.66,13.37h-.72V6.71h.72Z" fill="#00b0f0"/><path d="M96.75,13.37H96v-.71h0a1.5,1.5,0,0,1-1.39.82c-1.08,0-1.61-.64-1.61-1.92V8.87h.72v2.58c0,.94.36,1.42,1.09,1.42a1.08,1.08,0,0,0,.86-.39,1.48,1.48,0,0,0,.34-1V8.87h.72Z" fill="#00b0f0"/><path d="M101.5,8.87,100,11.15l1.49,2.22h-.84l-.88-1.46a3.08,3.08,0,0,1-.2-.34h0s-.08.14-.21.34l-.9,1.46h-.83l1.54-2.21L97.66,8.87h.84l.87,1.54.19.35h0l1.13-1.89Z" fill="#00b0f0"/><path d="M104.22,13.48a2,2,0,0,1-1.59-.64,2.31,2.31,0,0,1-.6-1.67,2.46,2.46,0,0,1,.62-1.77,2.25,2.25,0,0,1,1.68-.64,2,2,0,0,1,1.57.62,2.51,2.51,0,0,1,.56,1.72,2.41,2.41,0,0,1-.61,1.73A2.13,2.13,0,0,1,104.22,13.48Zm0-4.11a1.39,1.39,0,0,0-1.1.47,2,2,0,0,0-.4,1.31,1.85,1.85,0,0,0,.41,1.26,1.38,1.38,0,0,0,1.09.46,1.33,1.33,0,0,0,1.08-.45,2,2,0,0,0,.37-1.29,2,2,0,0,0-.37-1.3A1.3,1.3,0,0,0,104.27,9.37Z" fill="#00b0f0"/><path d="M113.92,13.37h-.72v-.76h0a1.66,1.66,0,0,1-1.55.87,1.69,1.69,0,0,1-1.35-.61,2.46,2.46,0,0,1-.51-1.64,2.72,2.72,0,0,1,.56-1.79,1.87,1.87,0,0,1,1.5-.68,1.45,1.45,0,0,1,1.35.73h0V6.71h.72Zm-.72-2v-.66a1.28,1.28,0,0,0-.36-.92,1.33,1.33,0,0,0-2,.1,2.09,2.09,0,0,0-.38,1.34,1.92,1.92,0,0,0,.36,1.23,1.19,1.19,0,0,0,1,.45,1.23,1.23,0,0,0,1-.44A1.62,1.62,0,0,0,113.2,11.33Z" fill="#00b0f0"/><path d="M117.26,13.48a2,2,0,0,1-1.59-.64,2.31,2.31,0,0,1-.6-1.67,2.46,2.46,0,0,1,.62-1.77,2.24,2.24,0,0,1,1.67-.64,2,2,0,0,1,1.57.62,2.46,2.46,0,0,1,.57,1.72,2.41,2.41,0,0,1-.61,1.73A2.15,2.15,0,0,1,117.26,13.48Zm0-4.11a1.39,1.39,0,0,0-1.1.47,2,2,0,0,0-.4,1.31,1.81,1.81,0,0,0,.41,1.26,1.36,1.36,0,0,0,1.09.46,1.31,1.31,0,0,0,1.07-.45,1.91,1.91,0,0,0,.38-1.29,1.94,1.94,0,0,0-.38-1.3A1.28,1.28,0,0,0,117.31,9.37Z" fill="#00b0f0"/><path d="M126.18,13.16a2.3,2.3,0,0,1-1.23.32,2,2,0,0,1-1.55-.63,2.29,2.29,0,0,1-.59-1.62,2.47,2.47,0,0,1,.64-1.79,2.22,2.22,0,0,1,1.7-.68,2.45,2.45,0,0,1,1,.22v.74a1.85,1.85,0,0,0-1.07-.35,1.44,1.44,0,0,0-1.13.5,1.84,1.84,0,0,0-.44,1.29,1.81,1.81,0,0,0,.41,1.25,1.43,1.43,0,0,0,1.12.46,1.78,1.78,0,0,0,1.1-.39Z" fill="#00b0f0"/><path d="M129.15,13.48a2.07,2.07,0,0,1-1.59-.64,2.3,2.3,0,0,1-.59-1.67,2.46,2.46,0,0,1,.61-1.77,2.28,2.28,0,0,1,1.68-.64,2,2,0,0,1,1.57.62,2.46,2.46,0,0,1,.57,1.72,2.45,2.45,0,0,1-.61,1.73A2.15,2.15,0,0,1,129.15,13.48Zm.06-4.11a1.38,1.38,0,0,0-1.1.47,2,2,0,0,0-.41,1.31,1.85,1.85,0,0,0,.41,1.26,1.4,1.4,0,0,0,1.1.46,1.32,1.32,0,0,0,1.07-.45,2,2,0,0,0,.38-1.29,2,2,0,0,0-.38-1.3A1.3,1.3,0,0,0,129.21,9.37Zm1-2.79L129.11,8h-.56l1-1.44Z" fill="#00b0f0"/><path d="M136.39,13.37h-.72v-.76h0a1.81,1.81,0,0,1-2.9.26,2.46,2.46,0,0,1-.51-1.64,2.72,2.72,0,0,1,.56-1.79,1.87,1.87,0,0,1,1.5-.68,1.45,1.45,0,0,1,1.35.73h0V6.71h.72Zm-.72-2v-.66a1.28,1.28,0,0,0-.36-.92,1.33,1.33,0,0,0-1.95.1,2.09,2.09,0,0,0-.38,1.34,1.92,1.92,0,0,0,.36,1.23,1.19,1.19,0,0,0,1,.45,1.24,1.24,0,0,0,1-.44A1.62,1.62,0,0,0,135.67,11.33Z" fill="#00b0f0"/><path d="M138.22,7.73a.49.49,0,0,1-.33-.13.42.42,0,0,1-.14-.34.4.4,0,0,1,.14-.33.46.46,0,0,1,.66,0,.44.44,0,0,1,.14.33.48.48,0,0,1-.47.47Zm.35,5.64h-.72V8.87h.72Z" fill="#00b0f0"/><path d="M143.87,13c0,1.65-.79,2.48-2.38,2.48a3.16,3.16,0,0,1-1.45-.32v-.72a3,3,0,0,0,1.45.42c1.1,0,1.66-.59,1.66-1.76v-.5h0a1.82,1.82,0,0,1-2.9.27,2.42,2.42,0,0,1-.51-1.62,2.78,2.78,0,0,1,.55-1.82,1.85,1.85,0,0,1,1.51-.68,1.47,1.47,0,0,1,1.35.73h0V8.87h.72Zm-.72-1.68v-.66a1.27,1.27,0,0,0-.37-.92,1.2,1.2,0,0,0-.9-.38,1.26,1.26,0,0,0-1,.49,2.16,2.16,0,0,0-.37,1.36,1.87,1.87,0,0,0,.36,1.2,1.17,1.17,0,0,0,1,.45,1.27,1.27,0,0,0,1-.43A1.64,1.64,0,0,0,143.15,11.33Z" fill="#00b0f0"/><path d="M147.21,13.48a2.07,2.07,0,0,1-1.6-.64,2.35,2.35,0,0,1-.59-1.67,2.46,2.46,0,0,1,.62-1.77,2.24,2.24,0,0,1,1.67-.64,2,2,0,0,1,1.57.62,2.46,2.46,0,0,1,.57,1.72,2.41,2.41,0,0,1-.61,1.73A2.15,2.15,0,0,1,147.21,13.48Zm0-4.11a1.39,1.39,0,0,0-1.1.47,2,2,0,0,0-.4,1.31,1.81,1.81,0,0,0,.41,1.26,1.36,1.36,0,0,0,1.09.46,1.31,1.31,0,0,0,1.07-.45,2,2,0,0,0,.38-1.29,2,2,0,0,0-.38-1.3A1.28,1.28,0,0,0,147.26,9.37Z" fill="#00b0f0"/><path d="M93.19,23.37h-.72v-.76h0a1.67,1.67,0,0,1-1.55.87,1.7,1.7,0,0,1-1.36-.61,2.45,2.45,0,0,1-.5-1.64,2.67,2.67,0,0,1,.56-1.79,1.84,1.84,0,0,1,1.5-.68,1.47,1.47,0,0,1,1.35.73h0V16.71h.72Zm-.72-2v-.66a1.28,1.28,0,0,0-.36-.92,1.21,1.21,0,0,0-.91-.38,1.25,1.25,0,0,0-1,.48,2.16,2.16,0,0,0-.38,1.34,1.92,1.92,0,0,0,.37,1.23,1.17,1.17,0,0,0,1,.45,1.24,1.24,0,0,0,1-.44A1.61,1.61,0,0,0,92.47,21.33Z" fill="#00b0f0"/><path d="M98.27,21.3H95.09a1.66,1.66,0,0,0,.41,1.16,1.39,1.39,0,0,0,1.06.41,2.24,2.24,0,0,0,1.4-.5V23a2.61,2.61,0,0,1-1.57.44,1.89,1.89,0,0,1-1.5-.62,2.52,2.52,0,0,1-.54-1.72,2.44,2.44,0,0,1,.59-1.71,1.93,1.93,0,0,1,1.48-.67,1.72,1.72,0,0,1,1.37.58,2.39,2.39,0,0,1,.48,1.58Zm-.74-.61a1.43,1.43,0,0,0-.3-1,1,1,0,0,0-.82-.35,1.16,1.16,0,0,0-.87.37,1.65,1.65,0,0,0-.44,1Z" fill="#00b0f0"/><path d="M105.05,23.37h-.72v-.7h0a1.52,1.52,0,0,1-1.39.81,1.49,1.49,0,0,1-1-.36,1.25,1.25,0,0,1-.38-.95c0-.84.5-1.33,1.49-1.46l1.35-.19c0-.77-.31-1.15-.93-1.15a2.28,2.28,0,0,0-1.47.55v-.73a2.79,2.79,0,0,1,1.53-.43q1.59,0,1.59,1.68Zm-.72-2.28-1.09.15a1.83,1.83,0,0,0-.76.25.83.83,0,0,0,0,1.17.92.92,0,0,0,.63.21,1.18,1.18,0,0,0,.89-.38,1.34,1.34,0,0,0,.35-.95Z" fill="#00b0f0"/><path d="M110,23.37h-.72v-.71h0a1.48,1.48,0,0,1-1.38.82c-1.08,0-1.61-.64-1.61-1.92V18.87H107v2.58c0,.94.37,1.42,1.09,1.42a1.1,1.1,0,0,0,.87-.39,1.48,1.48,0,0,0,.34-1V18.87H110Z" fill="#00b0f0"/><path d="M113.58,23.33a1.42,1.42,0,0,1-.67.14c-.79,0-1.18-.44-1.18-1.32V19.49H111v-.62h.77v-1.1l.72-.23v1.33h1.13v.62h-1.13V22a1.09,1.09,0,0,0,.15.65.63.63,0,0,0,.51.19.73.73,0,0,0,.47-.15Z" fill="#00b0f0"/><path d="M116.43,23.48a2.07,2.07,0,0,1-1.6-.64,2.35,2.35,0,0,1-.59-1.67,2.46,2.46,0,0,1,.62-1.77,2.24,2.24,0,0,1,1.67-.64,2,2,0,0,1,1.57.62,2.46,2.46,0,0,1,.57,1.72,2.41,2.41,0,0,1-.61,1.73A2.15,2.15,0,0,1,116.43,23.48Zm0-4.11a1.39,1.39,0,0,0-1.1.47,2,2,0,0,0-.4,1.31,1.81,1.81,0,0,0,.41,1.26,1.36,1.36,0,0,0,1.09.46,1.31,1.31,0,0,0,1.07-.45,1.91,1.91,0,0,0,.38-1.29,1.94,1.94,0,0,0-.38-1.3A1.28,1.28,0,0,0,116.48,19.37Z" fill="#00b0f0"/><path d="M122.17,19.6a.88.88,0,0,0-.55-.15.92.92,0,0,0-.77.44,2,2,0,0,0-.31,1.19v2.29h-.72v-4.5h.72v.93h0a1.51,1.51,0,0,1,.47-.74,1.07,1.07,0,0,1,.71-.27,1.23,1.23,0,0,1,.43.06Z" fill="#00b0f0"/><path d="M123.32,17.73a.49.49,0,0,1-.33-.13.46.46,0,0,1-.14-.34.44.44,0,0,1,.14-.33.46.46,0,0,1,.66,0,.4.4,0,0,1,.14.33.42.42,0,0,1-.14.33A.45.45,0,0,1,123.32,17.73Zm.35,5.64H123v-4.5h.72Z" fill="#00b0f0"/><path d="M128.27,19.08l-2.67,3.67h2.64v.62h-3.7v-.22l2.67-3.66h-2.42v-.62h3.48Z" fill="#00b0f0"/><path d="M132.42,23.37h-.72v-.7h0a1.64,1.64,0,0,1-2.44.45,1.25,1.25,0,0,1-.38-.95c0-.84.5-1.33,1.49-1.46l1.35-.19c0-.77-.31-1.15-.93-1.15a2.28,2.28,0,0,0-1.47.55v-.73a2.84,2.84,0,0,1,1.53-.43q1.59,0,1.59,1.68Zm-.72-2.28-1.09.15a1.78,1.78,0,0,0-.75.25.72.72,0,0,0-.26.63.68.68,0,0,0,.24.54.88.88,0,0,0,.62.21,1.16,1.16,0,0,0,.89-.38,1.34,1.34,0,0,0,.35-.95Z" fill="#00b0f0"/><path d="M136.84,23.16a2.3,2.3,0,0,1-1.23.32,2,2,0,0,1-1.55-.63,2.29,2.29,0,0,1-.59-1.62,2.47,2.47,0,0,1,.64-1.79,2.22,2.22,0,0,1,1.7-.68,2.45,2.45,0,0,1,1,.22v.74a1.85,1.85,0,0,0-1.07-.35,1.44,1.44,0,0,0-1.13.5,1.89,1.89,0,0,0-.44,1.29,1.81,1.81,0,0,0,.41,1.25,1.43,1.43,0,0,0,1.12.46,1.78,1.78,0,0,0,1.1-.39Zm-.37,1.34c0,.51-.41.77-1.21.77H135v-.4l.31,0c.41,0,.62-.13.62-.39s-.19-.35-.57-.35l-.18,0v-.8h.48v.46a1,1,0,0,1,.61.17A.6.6,0,0,1,136.47,24.5Z" fill="#00b0f0"/><path d="M141.16,23.37h-.72v-.7h0a1.52,1.52,0,0,1-1.39.81,1.45,1.45,0,0,1-1.05-.36,1.25,1.25,0,0,1-.38-.95c0-.84.5-1.33,1.49-1.46l1.35-.19c0-.77-.31-1.15-.93-1.15a2.28,2.28,0,0,0-1.47.55v-.73a2.79,2.79,0,0,1,1.53-.43q1.59,0,1.59,1.68ZM140.91,17a1.29,1.29,0,0,1-.21.76.68.68,0,0,1-.57.29,1.5,1.5,0,0,1-.71-.23,1.18,1.18,0,0,0-.52-.19c-.26,0-.39.17-.39.5h-.41a1.25,1.25,0,0,1,.21-.76.7.7,0,0,1,.59-.28,1.28,1.28,0,0,1,.65.23,1.16,1.16,0,0,0,.56.19c.25,0,.37-.17.37-.51Zm-.47,4.13-1.09.15a1.83,1.83,0,0,0-.76.25.83.83,0,0,0,0,1.17.92.92,0,0,0,.63.21,1.18,1.18,0,0,0,.89-.38,1.34,1.34,0,0,0,.35-.95Z" fill="#00b0f0"/><path d="M144.39,23.48a2.07,2.07,0,0,1-1.59-.64,2.3,2.3,0,0,1-.59-1.67,2.42,2.42,0,0,1,.62-1.77,2.24,2.24,0,0,1,1.67-.64,2,2,0,0,1,1.57.62,2.46,2.46,0,0,1,.57,1.72,2.45,2.45,0,0,1-.61,1.73A2.15,2.15,0,0,1,144.39,23.48Zm.06-4.11a1.38,1.38,0,0,0-1.1.47,2,2,0,0,0-.41,1.31,1.85,1.85,0,0,0,.41,1.26,1.4,1.4,0,0,0,1.1.46,1.32,1.32,0,0,0,1.07-.45,2,2,0,0,0,.38-1.29,2,2,0,0,0-.38-1.3A1.3,1.3,0,0,0,144.45,19.37Z" fill="#00b0f0"/></svg>