<svg id="svg95" xmlns="http://www.w3.org/2000/svg" viewBox="0 0 205.55 55.68">
  <defs>
    <style>
      .cls-1, .cls-4 {
        fill: #fff;
      }

      .cls-1 {
        stroke: #000;
        stroke-width: 0.24px;
      }

      .cls-1, .cls-3 {
        stroke-linecap: round;
        stroke-linejoin: round;
      }

      .cls-2, .cls-3 {
        fill: #008bfd;
      }

      .cls-3 {
        stroke: gray;
        stroke-width: 0.75px;
      }

      .cls-5 {
        isolation: isolate;
      }

      .cls-6 {
        fill: #00b0f0;
      }

      .cls-7 {
        fill: #505050;
      }

      .cls-8 {
        fill: none;
        stroke: #505050;
        stroke-miterlimit: 10;
      }
    </style>
  </defs>
  <title>OJ104546506</title>
  <g id="shape1000-1">
    <path id="path15" class="cls-1" d="M16,9.82.12,21.25,6.2,39.73H25.86l6.08-18.48Z"/>
  </g>
  <g id="group1216-3">
    <g id="group1217-4">
      <g id="group1218-5">
        <g id="group1219-6">
          <g id="shape1220-7">
            <path id="path28" class="cls-2" d="M15.7,16.94a4.49,4.49,0,0,0-3,5.66c.66,2.55,3,4.22,5.27,3.67a4.5,4.5,0,0,0,3-5.67C20.42,17.94,18,16.27,15.7,16.94Z"/>
          </g>
        </g>
        <g id="group1221-9">
          <g id="shape1222-10">
            <path id="path36" class="cls-2" d="M20.64,27c-.44,0-.88.78-1.54,1.11s-1.32.89-3.18,0-2.09-1.66-3.63-1.66-4.06,2.77-4.06,6.88H23.82a12.09,12.09,0,0,0-1.1-4.22C21.62,27,21.08,27,20.64,27Z"/>
          </g>
        </g>
      </g>
    </g>
    <g id="group1223-12">
      <g id="shape1224-13">
        <path id="path46" class="cls-3" d="M22.05,22H17.93a.71.71,0,0,0-.65.66v2.85a.72.72,0,0,0,.76.65h.76v5.15a1,1,0,0,0,1,1.1,1,1,0,0,0,1-1H21v-.65c0-.22.33-.33.33-.33v-.33c-.33-.11-.54-.33-.54-.44v-.33l.21-.22a3.55,3.55,0,0,0,.33-.54A2.4,2.4,0,0,1,21,28c-.1-.11-.1-.33-.21-.44v-.22a2.51,2.51,0,0,1,.76-1.1h.54a.7.7,0,0,0,.65-.65v-3A.63.63,0,0,0,22.05,22Zm-2.39,9.53c0,.22,0,.33-.21.33s-.22-.22-.22-.33V26.72c0-.22.11-.33.22-.33s.21.22.21.33ZM20,23.76a.69.69,0,0,1-.65-.65.7.7,0,0,1,.65-.66.71.71,0,0,1,.65.66A.62.62,0,0,1,20,23.76Z"/>
      </g>
      <g id="shape1225-15">
        <path id="path51" class="cls-4" d="M19.43,31.85a.24.24,0,0,1-.22-.22v-5a.22.22,0,0,1,.44,0v5.11C19.65,31.85,19.54,31.85,19.43,31.85Z"/>
      </g>
      <g id="shape1226-17">
        <ellipse id="ellipse56" class="cls-4" cx="20" cy="23.09" rx="0.66" ry="0.67"/>
      </g>
    </g>
  </g>
  <path id="path65" class="cls-2" d="M188.24,8.81h-20.5a1.09,1.09,0,0,0-1.09,1.1V26.65a1.1,1.1,0,0,0,1.09,1.11H173A3.29,3.29,0,0,0,176.23,30a3.38,3.38,0,0,0,0-6.75A3.29,3.29,0,0,0,173,25.55h-4.19v-12h18.31v12h-3.45A7.61,7.61,0,0,0,176.23,19a8.25,8.25,0,0,0-3.64.92l1,2a5.27,5.27,0,0,1,2.55-.67,5.46,5.46,0,0,1,0,10.91,5.27,5.27,0,0,1-2.55-.67l-1,2a7.51,7.51,0,0,0,3.64.92,7.61,7.61,0,0,0,7.46-6.56h4.55a1.1,1.1,0,0,0,1.09-1.11V9.91A1.14,1.14,0,0,0,188.24,8.81Z"/>
  <g id="text67" class="cls-5">
    <path class="cls-2" d="M144.81,47.32H144l-.67-1.77h-2.67L140,47.32h-.82L141.62,41h.77Zm-1.72-2.43-1-2.69a2.61,2.61,0,0,1-.1-.42h0a2.17,2.17,0,0,1-.1.42l-1,2.69Z"/>
    <path class="cls-2" d="M146.2,46.66h0v2.73h-.72V42.82h.72v.79h0a1.72,1.72,0,0,1,1.56-.9,1.66,1.66,0,0,1,1.36.6,2.56,2.56,0,0,1,.48,1.62,2.75,2.75,0,0,1-.55,1.81,1.82,1.82,0,0,1-1.5.68A1.51,1.51,0,0,1,146.2,46.66Zm0-1.81v.63a1.36,1.36,0,0,0,.37,1,1.23,1.23,0,0,0,.92.38,1.18,1.18,0,0,0,1-.5,2.25,2.25,0,0,0,.38-1.39,1.84,1.84,0,0,0-.35-1.18,1.16,1.16,0,0,0-.94-.42,1.27,1.27,0,0,0-1,.43A1.59,1.59,0,0,0,146.18,44.85Z"/>
    <path class="cls-2" d="M151.3,47.32h-.72V40.65h.72Z"/>
    <path class="cls-2" d="M152.94,41.67a.46.46,0,0,1-.33-.13.44.44,0,0,1-.13-.33.45.45,0,0,1,.13-.34.46.46,0,0,1,.33-.13.45.45,0,0,1,.34.13.46.46,0,0,1,.14.34.46.46,0,0,1-.48.46Zm.35,5.65h-.72v-4.5h.72Z"/>
    <path class="cls-2" d="M157.64,47.11a2.29,2.29,0,0,1-1.23.31,2,2,0,0,1-1.55-.63,2.21,2.21,0,0,1-.59-1.62,2.52,2.52,0,0,1,.63-1.79,2.24,2.24,0,0,1,1.7-.67,2.32,2.32,0,0,1,1.05.22v.74a1.78,1.78,0,0,0-1.07-.35,1.43,1.43,0,0,0-1.13.49,1.85,1.85,0,0,0-.45,1.3,1.78,1.78,0,0,0,.42,1.25,1.45,1.45,0,0,0,1.11.45,1.79,1.79,0,0,0,1.11-.39Z"/>
    <path class="cls-2" d="M161.77,47.32h-.72v-.71h0a1.64,1.64,0,0,1-2.43.46,1.23,1.23,0,0,1-.38-1c0-.84.49-1.33,1.48-1.47l1.35-.19c0-.76-.31-1.14-.92-1.14a2.19,2.19,0,0,0-1.47.55v-.74a2.79,2.79,0,0,1,1.53-.42c1.05,0,1.58.56,1.58,1.68ZM161.05,45l-1.08.15a1.65,1.65,0,0,0-.76.25.72.72,0,0,0-.25.63.68.68,0,0,0,.23.54,1,1,0,0,0,.63.2,1.15,1.15,0,0,0,.88-.37,1.31,1.31,0,0,0,.35-.95Z"/>
    <path class="cls-2" d="M165,47.27a1.45,1.45,0,0,1-.67.14c-.79,0-1.19-.44-1.19-1.32V43.43h-.77v-.61h.77v-1.1l.72-.24v1.34H165v.61H163.9V46a1,1,0,0,0,.16.64.61.61,0,0,0,.51.2.75.75,0,0,0,.47-.15Z"/>
    <path class="cls-2" d="M166.19,41.67a.44.44,0,0,1-.33-.13.45.45,0,0,1-.14-.33.46.46,0,0,1,.14-.34.44.44,0,0,1,.33-.13.48.48,0,0,1,.34.13.45.45,0,0,1,.13.34.44.44,0,0,1-.13.33A.48.48,0,0,1,166.19,41.67Zm.35,5.65h-.72v-4.5h.72Z"/>
    <path class="cls-2" d="M171.36,42.82l-1.8,4.5h-.7l-1.71-4.5h.79l1.15,3.26a3.13,3.13,0,0,1,.15.63h0a3.42,3.42,0,0,1,.14-.61l1.2-3.28Z"/>
    <path class="cls-2" d="M173.83,47.42a2.09,2.09,0,0,1-1.59-.63,2.33,2.33,0,0,1-.6-1.67,2.43,2.43,0,0,1,.62-1.77,2.22,2.22,0,0,1,1.68-.64,2,2,0,0,1,1.57.62,2.49,2.49,0,0,1,.56,1.72,2.38,2.38,0,0,1-.61,1.72A2.13,2.13,0,0,1,173.83,47.42Zm0-4.1a1.34,1.34,0,0,0-1.09.47,1.93,1.93,0,0,0-.41,1.3,1.84,1.84,0,0,0,.41,1.26,1.38,1.38,0,0,0,1.09.46,1.33,1.33,0,0,0,1.08-.45,2,2,0,0,0,.37-1.29,2,2,0,0,0-.37-1.3A1.33,1.33,0,0,0,173.88,43.32Z"/>
    <path class="cls-2" d="M183.17,47.32h-.72v-.77h0a1.66,1.66,0,0,1-1.54.87,1.69,1.69,0,0,1-1.36-.6,2.5,2.5,0,0,1-.51-1.65,2.74,2.74,0,0,1,.56-1.79,1.86,1.86,0,0,1,1.5-.67,1.43,1.43,0,0,1,1.35.73h0V40.65h.72Zm-.72-2v-.66a1.31,1.31,0,0,0-.36-.93,1.21,1.21,0,0,0-.91-.37,1.25,1.25,0,0,0-1,.48,2.14,2.14,0,0,0-.38,1.34,1.91,1.91,0,0,0,.36,1.22,1.3,1.3,0,0,0,1.95,0A1.59,1.59,0,0,0,182.45,45.28Z"/>
    <path class="cls-2" d="M188.07,45.24h-3.18a1.69,1.69,0,0,0,.4,1.16,1.39,1.39,0,0,0,1.07.41,2.16,2.16,0,0,0,1.39-.5V47a2.55,2.55,0,0,1-1.56.43,1.89,1.89,0,0,1-1.5-.61,2.5,2.5,0,0,1-.55-1.73,2.44,2.44,0,0,1,.6-1.71,1.9,1.9,0,0,1,1.48-.66,1.69,1.69,0,0,1,1.36.57,2.35,2.35,0,0,1,.49,1.59Zm-.74-.61a1.52,1.52,0,0,0-.3-1,1,1,0,0,0-.83-.34,1.15,1.15,0,0,0-.86.36,1.59,1.59,0,0,0-.44,1Z"/>
    <path class="cls-2" d="M196.24,47.32h-.82l-.67-1.77h-2.67l-.63,1.77h-.82L193.05,41h.76Zm-1.73-2.43-1-2.69c0-.09-.06-.23-.1-.42h0a2.07,2.07,0,0,1-.11.42l-1,2.69Z"/>
    <path class="cls-2" d="M197.72,44.93v2.39H197V41h1.73a2.28,2.28,0,0,1,1.57.5,1.74,1.74,0,0,1,.56,1.38,1.92,1.92,0,0,1-.62,1.47,2.37,2.37,0,0,1-1.67.57Zm0-3.25v2.59h.78a1.75,1.75,0,0,0,1.16-.35,1.25,1.25,0,0,0,.4-1c0-.83-.49-1.25-1.47-1.25Z"/>
    <path class="cls-2" d="M202.58,47.32h-.74V41h.74Z"/>
  </g>
  <g id="text76" class="cls-5">
    <path class="cls-6" d="M86.5,7.74H84V9.92h2.27v.66H84v2.79H83.3V7.07h3.2Z"/>
    <path class="cls-6" d="M88.32,13.37H87.6V6.71h.72Z"/>
    <path class="cls-6" d="M93.42,13.37H92.7v-.71h0a1.47,1.47,0,0,1-1.39.82c-1.07,0-1.61-.64-1.61-1.92V8.87h.72v2.58c0,1,.36,1.42,1.09,1.42a1.08,1.08,0,0,0,.86-.39,1.44,1.44,0,0,0,.35-1V8.87h.72Z"/>
    <path class="cls-6" d="M98.16,8.87l-1.51,2.28,1.48,2.22h-.84l-.88-1.45-.2-.35h0s-.08.14-.2.35l-.9,1.45h-.83l1.53-2.2-1.47-2.3h.84L96,10.41l.19.35h0l1.12-1.89Z"/>
    <path class="cls-6" d="M100.88,13.48a2.09,2.09,0,0,1-1.59-.63,2.33,2.33,0,0,1-.6-1.67,2.43,2.43,0,0,1,.62-1.77A2.22,2.22,0,0,1,101,8.77a2,2,0,0,1,1.57.62,2.43,2.43,0,0,1,.56,1.72,2.44,2.44,0,0,1-.6,1.72A2.17,2.17,0,0,1,100.88,13.48Zm.06-4.1a1.35,1.35,0,0,0-1.1.47,1.93,1.93,0,0,0-.41,1.3,1.84,1.84,0,0,0,.41,1.26,1.38,1.38,0,0,0,1.1.46,1.32,1.32,0,0,0,1.07-.45,2,2,0,0,0,.38-1.29,2,2,0,0,0-.38-1.3A1.32,1.32,0,0,0,100.94,9.38Z"/>
    <path class="cls-6" d="M109.38,13.48a2.76,2.76,0,0,1-2.15-.88,3.28,3.28,0,0,1-.81-2.3,3.48,3.48,0,0,1,.83-2.43,2.86,2.86,0,0,1,2.23-.9,2.68,2.68,0,0,1,2.1.88,3.23,3.23,0,0,1,.8,2.29,3.49,3.49,0,0,1-.81,2.44A2.83,2.83,0,0,1,109.38,13.48Zm.05-5.84a2,2,0,0,0-1.61.71,2.75,2.75,0,0,0-.62,1.88,2.83,2.83,0,0,0,.6,1.88,2,2,0,0,0,1.58.71,2.07,2.07,0,0,0,1.63-.68,2.75,2.75,0,0,0,.6-1.89A2.85,2.85,0,0,0,111,8.32,2,2,0,0,0,109.43,7.64Z"/>
    <path class="cls-6" d="M117.26,13.37h-.72V10.81c0-1-.35-1.43-1.05-1.43a1.12,1.12,0,0,0-.89.4,1.5,1.5,0,0,0-.35,1v2.56h-.72V8.87h.72v.75h0a1.63,1.63,0,0,1,1.48-.85,1.38,1.38,0,0,1,1.13.48,2.09,2.09,0,0,1,.39,1.37Z"/>
    <path class="cls-6" d="M120.92,11.15h-2.4v-.57h2.4Z"/>
    <path class="cls-6" d="M122.31,13.37V7.07h1.8a2,2,0,0,1,1.29.4,1.3,1.3,0,0,1,.48,1,1.52,1.52,0,0,1-.29.94,1.56,1.56,0,0,1-.8.56v0a1.59,1.59,0,0,1,1,.48,1.44,1.44,0,0,1,.38,1.05,1.63,1.63,0,0,1-.58,1.31,2.11,2.11,0,0,1-1.46.5Zm.74-5.63v2h.76a1.4,1.4,0,0,0,1-.29,1,1,0,0,0,.35-.82c0-.61-.4-.92-1.21-.92Zm0,2.7v2.27h1a1.52,1.52,0,0,0,1-.31,1.06,1.06,0,0,0,.36-.84c0-.75-.51-1.12-1.52-1.12Z"/>
    <path class="cls-6" d="M131,11.3h-3.17a1.64,1.64,0,0,0,.4,1.16,1.36,1.36,0,0,0,1.06.41,2.17,2.17,0,0,0,1.4-.5v.68a2.59,2.59,0,0,1-1.57.43,1.92,1.92,0,0,1-1.5-.61,2.54,2.54,0,0,1-.54-1.73,2.44,2.44,0,0,1,.6-1.71,1.88,1.88,0,0,1,1.47-.66,1.7,1.7,0,0,1,1.37.57,2.4,2.4,0,0,1,.48,1.59Zm-.74-.61a1.44,1.44,0,0,0-.3-1,1,1,0,0,0-.82-.34,1.19,1.19,0,0,0-.87.36,1.64,1.64,0,0,0-.43.95Z"/>
    <path class="cls-6" d="M135.82,13.37h-.72V10.78c0-.94-.35-1.4-1-1.4a1.14,1.14,0,0,0-.89.4,1.52,1.52,0,0,0-.36,1.05v2.54h-.72V6.71h.72V9.62h0a1.64,1.64,0,0,1,1.48-.85c1,0,1.52.61,1.52,1.83Z"/>
    <path class="cls-6" d="M140.4,13.37h-.72v-.7h0a1.64,1.64,0,0,1-2.44.45,1.23,1.23,0,0,1-.38-.94c0-.84.5-1.33,1.49-1.47l1.35-.19q0-1.14-.93-1.14a2.22,2.22,0,0,0-1.47.55V9.19a2.79,2.79,0,0,1,1.53-.42q1.59,0,1.59,1.68Zm-.72-2.27-1.09.15a1.65,1.65,0,0,0-.75.25.7.7,0,0,0-.26.63.65.65,0,0,0,.24.53.88.88,0,0,0,.62.21,1.17,1.17,0,0,0,.89-.37,1.36,1.36,0,0,0,.35-.95Z"/>
    <path class="cls-6" d="M142.48,13.37h-.72V6.71h.72Z"/>
    <path class="cls-6" d="M146.16,7.35a1,1,0,0,0-.48-.12c-.5,0-.76.31-.76.95v.69H146v.62h-1.06v3.88h-.71V9.49h-.77V8.87h.77V8.15A1.47,1.47,0,0,1,144.62,7a1.35,1.35,0,0,1,1-.41,1.48,1.48,0,0,1,.52.07Z"/>
    <path class="cls-6" d="M149.05,11.15h-2.39v-.57h2.39Z"/>
    <path class="cls-6" d="M153,13.48a2.76,2.76,0,0,1-2.15-.88,3.27,3.27,0,0,1-.8-2.3,3.47,3.47,0,0,1,.82-2.43,2.86,2.86,0,0,1,2.23-.9,2.7,2.7,0,0,1,2.11.88,3.27,3.27,0,0,1,.79,2.29,3.49,3.49,0,0,1-.81,2.44A2.83,2.83,0,0,1,153,13.48Zm0-5.84a2,2,0,0,0-1.61.71,2.75,2.75,0,0,0-.62,1.88,2.83,2.83,0,0,0,.6,1.88,2,2,0,0,0,1.58.71,2.07,2.07,0,0,0,1.63-.68,2.75,2.75,0,0,0,.6-1.89,2.85,2.85,0,0,0-.58-1.93A2,2,0,0,0,153,7.64Z"/>
    <path class="cls-6" d="M159.36,7.35a1,1,0,0,0-.48-.12c-.5,0-.75.31-.75.95v.69h1.05v.62h-1.05v3.88h-.72V9.49h-.77V8.87h.77V8.15A1.47,1.47,0,0,1,157.82,7a1.35,1.35,0,0,1,1-.41,1.48,1.48,0,0,1,.52.07Z"/>
  </g>
  <path id="path83" class="cls-2" d="M76.23,9.3H55.73a1.09,1.09,0,0,0-1.09,1.1V27.14a1.1,1.1,0,0,0,1.09,1.11H61a3.29,3.29,0,0,0,3.21,2.27,3.38,3.38,0,0,0,0-6.75A3.29,3.29,0,0,0,61,26H56.82v-12H75.13V26H71.68a7.61,7.61,0,0,0-7.46-6.56,8.25,8.25,0,0,0-3.64.92l1,2a5.27,5.27,0,0,1,2.55-.67,5.46,5.46,0,0,1,0,10.91,5.27,5.27,0,0,1-2.55-.67l-1,2a7.51,7.51,0,0,0,3.64.92,7.61,7.61,0,0,0,7.46-6.56h4.55a1.1,1.1,0,0,0,1.09-1.11V10.4A1.14,1.14,0,0,0,76.23,9.3Z"/>
  <g id="text85" class="cls-5">
    <path class="cls-2" d="M39.44,47.81h-.82L38,46H35.28l-.63,1.77h-.82l2.42-6.31H37Zm-1.73-2.43-1-2.69a2.85,2.85,0,0,1-.09-.42h0a2.17,2.17,0,0,1-.1.42l-1,2.69Z"/>
    <path class="cls-2" d="M40.83,47.16h0v2.72h-.72V43.31h.72v.79h0a1.69,1.69,0,0,1,1.55-.9,1.63,1.63,0,0,1,1.36.61,2.46,2.46,0,0,1,.49,1.61,2.75,2.75,0,0,1-.55,1.81,1.82,1.82,0,0,1-1.5.68A1.49,1.49,0,0,1,40.83,47.16Zm0-1.82V46a1.36,1.36,0,0,0,.36,1,1.29,1.29,0,0,0,1.95-.12,2.25,2.25,0,0,0,.37-1.39,1.79,1.79,0,0,0-.35-1.18,1.15,1.15,0,0,0-.94-.42,1.28,1.28,0,0,0-1,.43A1.65,1.65,0,0,0,40.81,45.34Z"/>
    <path class="cls-2" d="M45.92,47.81H45.2V41.14h.72Z"/>
    <path class="cls-2" d="M47.57,42.16a.44.44,0,0,1-.33-.13.45.45,0,0,1-.14-.33.46.46,0,0,1,.14-.34.44.44,0,0,1,.33-.13.48.48,0,0,1,.34.13.45.45,0,0,1,.13.34.44.44,0,0,1-.13.33A.48.48,0,0,1,47.57,42.16Zm.35,5.65H47.2v-4.5h.72Z"/>
    <path class="cls-2" d="M52.27,47.6a2.34,2.34,0,0,1-1.23.31,2.09,2.09,0,0,1-1.56-.62,2.3,2.3,0,0,1-.59-1.63,2.44,2.44,0,0,1,.64-1.78,2.22,2.22,0,0,1,1.7-.68,2.35,2.35,0,0,1,1.05.22v.74a1.83,1.83,0,0,0-1.08-.35,1.45,1.45,0,0,0-1.13.49,1.89,1.89,0,0,0-.44,1.3,1.78,1.78,0,0,0,.42,1.25,1.42,1.42,0,0,0,1.11.46,1.78,1.78,0,0,0,1.11-.4Z"/>
    <path class="cls-2" d="M56.4,47.81h-.72V47.1h0a1.5,1.5,0,0,1-1.38.81,1.54,1.54,0,0,1-1.06-.35,1.27,1.27,0,0,1-.38-1c0-.84.5-1.33,1.49-1.47L55.68,45q0-1.14-.93-1.14a2.22,2.22,0,0,0-1.47.55v-.74a2.84,2.84,0,0,1,1.53-.42q1.59,0,1.59,1.68Zm-.72-2.28-1.09.15a1.78,1.78,0,0,0-.75.25.72.72,0,0,0-.26.63.68.68,0,0,0,.24.54.88.88,0,0,0,.62.21,1.16,1.16,0,0,0,.89-.38,1.36,1.36,0,0,0,.35-1Z"/>
    <path class="cls-2" d="M59.66,47.76a1.31,1.31,0,0,1-.67.14c-.79,0-1.18-.44-1.18-1.32V43.92H57v-.61h.77v-1.1l.72-.24v1.34h1.13v.61H58.53v2.54a1.06,1.06,0,0,0,.15.64.63.63,0,0,0,.51.2.73.73,0,0,0,.47-.15Z"/>
    <path class="cls-2" d="M60.82,42.16a.44.44,0,0,1-.33-.13.45.45,0,0,1-.14-.33.46.46,0,0,1,.14-.34.48.48,0,0,1,.66,0,.46.46,0,0,1,.14.34.45.45,0,0,1-.14.33A.44.44,0,0,1,60.82,42.16Zm.35,5.65h-.72v-4.5h.72Z"/>
    <path class="cls-2" d="M66,43.31l-1.79,4.5h-.71l-1.7-4.5h.79l1.14,3.27a2.7,2.7,0,0,1,.16.62h0a2.73,2.73,0,0,1,.14-.61l1.19-3.28Z"/>
    <path class="cls-2" d="M68.46,47.91a2.06,2.06,0,0,1-1.59-.63,2.33,2.33,0,0,1-.6-1.67,2.43,2.43,0,0,1,.62-1.77,2.2,2.2,0,0,1,1.67-.64,2,2,0,0,1,1.57.62,2.45,2.45,0,0,1,.57,1.72,2.38,2.38,0,0,1-.61,1.72A2.11,2.11,0,0,1,68.46,47.91Zm.05-4.1a1.36,1.36,0,0,0-1.1.47,1.93,1.93,0,0,0-.4,1.3,1.77,1.77,0,0,0,.41,1.26,1.37,1.37,0,0,0,1.09.47,1.31,1.31,0,0,0,1.07-.46A1.9,1.9,0,0,0,70,45.57a2,2,0,0,0-.38-1.31A1.31,1.31,0,0,0,68.51,43.81Z"/>
    <path class="cls-2" d="M77.8,47.81h-.72V47h0a1.82,1.82,0,0,1-2.9.27,2.49,2.49,0,0,1-.51-1.65,2.74,2.74,0,0,1,.56-1.79,1.89,1.89,0,0,1,1.5-.67,1.43,1.43,0,0,1,1.35.73h0V41.14h.72Zm-.72-2v-.66a1.27,1.27,0,0,0-.36-.92,1.19,1.19,0,0,0-.92-.38,1.26,1.26,0,0,0-1,.48,2.13,2.13,0,0,0-.37,1.34,1.94,1.94,0,0,0,.36,1.23,1.22,1.22,0,0,0,1,.45,1.24,1.24,0,0,0,1-.44A1.63,1.63,0,0,0,77.08,45.77Z"/>
    <path class="cls-2" d="M82.69,45.74H79.52a1.68,1.68,0,0,0,.4,1.16,1.4,1.4,0,0,0,1.06.41,2.18,2.18,0,0,0,1.4-.51v.68a2.61,2.61,0,0,1-1.57.43,1.92,1.92,0,0,1-1.5-.61,2.53,2.53,0,0,1-.54-1.73,2.48,2.48,0,0,1,.59-1.71,1.92,1.92,0,0,1,1.48-.66,1.7,1.7,0,0,1,1.37.57,2.4,2.4,0,0,1,.48,1.59ZM82,45.13a1.47,1.47,0,0,0-.3-1,1,1,0,0,0-.82-.34,1.19,1.19,0,0,0-.87.36,1.75,1.75,0,0,0-.44,1Z"/>
    <path class="cls-2" d="M90.86,47.81H90L89.38,46H86.71l-.63,1.77h-.83l2.42-6.31h.77Zm-1.72-2.43-1-2.69a1.84,1.84,0,0,1-.1-.42h0a2.17,2.17,0,0,1-.1.42l-1,2.69Z"/>
    <path class="cls-2" d="M92.35,45.42v2.39h-.74V41.5h1.73a2.29,2.29,0,0,1,1.57.5,1.74,1.74,0,0,1,.55,1.39,1.9,1.9,0,0,1-.61,1.46,2.38,2.38,0,0,1-1.67.57Zm0-3.25v2.59h.77a1.76,1.76,0,0,0,1.17-.35,1.24,1.24,0,0,0,.4-1c0-.83-.49-1.25-1.48-1.25Z"/>
    <path class="cls-2" d="M97.21,47.81h-.74V41.5h.74Z"/>
  </g>
  <g id="shape1230-28">
    <g id="use7">
      <g id="lend5">
        <path id="path4" class="cls-7" d="M156.38,17.59l8.06,4-7.95,4a9,9,0,0,0-.05-8"/>
      </g>
    </g>
  </g>
  <line class="cls-8" x1="77.32" y1="21.56" x2="162.55" y2="21.56"/>
</svg>
