<svg id="svg198" xmlns="http://www.w3.org/2000/svg" viewBox="0 0 204.71 64.78">
  <defs>
    <style>
      .cls-1, .cls-6 {
        fill: #008bfd;
      }

      .cls-2 {
        isolation: isolate;
      }

      .cls-3, .cls-8 {
        fill: none;
      }

      .cls-4 {
        fill: #00b0f0;
      }

      .cls-5 {
        fill: #505050;
      }

      .cls-6 {
        stroke: gray;
        stroke-linecap: round;
        stroke-linejoin: round;
        stroke-width: 0.75px;
      }

      .cls-7 {
        fill: #fff;
      }

      .cls-8 {
        stroke: #505050;
        stroke-miterlimit: 10;
      }
    </style>
  </defs>
  <title>OJ104440671</title>
  <g id="group1113-2">
    <g id="shape1114-3">
      <path id="path21" class="cls-1" d="M66,40.4a11.81,11.81,0,0,1-16.84-2.29,12.56,12.56,0,0,1,2.24-17.29,11.82,11.82,0,0,1,16.84,2.3A12.54,12.54,0,0,1,66,40.4ZM69.69,22a13.57,13.57,0,0,0-19.36-2.63,14.43,14.43,0,0,0-2.55,19.87,13.62,13.62,0,0,0,11,5.55,13.45,13.45,0,0,0,8.39-2.92A14.44,14.44,0,0,0,69.69,22Z"/>
    </g>
  </g>
  <g id="group1115-5">
    <g id="group1116-6">
      <g id="group1117-7">
        <g id="shape1118-8">
          <path id="path33" class="cls-1" d="M52.06,33.18a17,17,0,0,1-2-2.35,18.28,18.28,0,0,0-1.66,6.88c.11.16.11.29.23.44a12.55,12.55,0,0,0,2,2.05A14.13,14.13,0,0,1,52.06,33.18Z"/>
        </g>
      </g>
      <g id="shape1119-10">
        <path id="path39" class="cls-1" d="M56.67,23.74a21,21,0,0,0-3.33,3,15.71,15.71,0,0,0-1.61,2.05,15.42,15.42,0,0,0,1.9,2.46,16.32,16.32,0,0,1,2.2-2.56A26.47,26.47,0,0,1,59,26.06C58.16,25.3,57.38,24.53,56.67,23.74Z"/>
      </g>
      <g id="group1120-12">
        <g id="shape1121-13">
          <path id="path46" class="cls-1" d="M68.14,22.94a12,12,0,0,0-1.73-1.82,12.53,12.53,0,0,0-8,1.53c.76.84,1.51,1.63,2.24,2.36C65,22.58,68.14,22.94,68.14,22.94Z"/>
        </g>
      </g>
      <g id="group1122-15">
        <g id="shape1123-16">
          <path id="path54" class="cls-1" d="M50.34,31a19.82,19.82,0,0,1,1.19-2.06,9.84,9.84,0,0,1-1.6-6.79,13.09,13.09,0,0,0-1.29,1.6C48.26,25.33,48.24,27.89,50.34,31Z"/>
        </g>
      </g>
      <g id="group1124-18">
        <g id="shape1125-19">
          <path id="path62" class="cls-1" d="M55.9,33.36a21.6,21.6,0,0,1-2.27-2.14,14.25,14.25,0,0,0-1.14,2,23.54,23.54,0,0,0,2.09,1.91,19.12,19.12,0,0,0,12.56,4.38,9,9,0,0,0,1.54-1.94C67.45,37.78,62.19,38.47,55.9,33.36Z"/>
        </g>
      </g>
      <g id="group1126-21">
        <g id="shape1127-22">
          <path id="path70" class="cls-1" d="M50.54,30.82a15.72,15.72,0,0,0,2,2.35,15.36,15.36,0,0,1,1.14-2,15.42,15.42,0,0,1-1.9-2.46A15.58,15.58,0,0,0,50.54,30.82Z"/>
        </g>
      </g>
      <g id="group1128-24">
        <g id="shape1129-25">
          <path id="path78" class="cls-1" d="M59,26.06a97,97,0,0,0,11.15,8.82,9.82,9.82,0,0,0,.33-1.05A95.51,95.51,0,0,1,60.61,25Q59.82,25.46,59,26.06Z"/>
        </g>
      </g>
      <g id="group1130-27">
        <g id="shape1131-28">
          <path id="path86" class="cls-1" d="M58.38,22.65q-1.65-1.77-3.36-3.8a10.05,10.05,0,0,0-1.59.66,26.3,26.3,0,0,0,3.24,4.22A17.22,17.22,0,0,1,58.38,22.65Z"/>
        </g>
      </g>
      <g id="shape1132-30">
        <path id="path92" class="cls-1" d="M58.45,22.61a18.74,18.74,0,0,0-1.87,1.19c.72.78,1.45,1.59,2.25,2.35.57-.4,1.34-.88,1.87-1.18C60,24.24,59.21,23.45,58.45,22.61Z"/>
      </g>
      <g id="shape1133-32">
        <path id="path97" class="cls-1" d="M58.25,22.51a16.24,16.24,0,0,0-1.67,1.12c.72.79,1.74,1.81,2.54,2.57.57-.4,1.05-.8,1.58-1.11C60,24.37,59,23.34,58.25,22.51Z"/>
      </g>
    </g>
    <g id="group1134-34">
      <g id="shape1135-35">
        <path id="path105" class="cls-1" d="M64.3,29.06a2.7,2.7,0,0,0-.48,3.7,2.56,2.56,0,0,0,3.63.51,2.72,2.72,0,0,0,.48-3.72A2.55,2.55,0,0,0,64.3,29.06Z"/>
      </g>
    </g>
    <g id="group1136-37">
      <g id="shape1137-38">
        <path id="path113" class="cls-1" d="M59.13,35.19a2.52,2.52,0,0,0-.45,3.44,2.37,2.37,0,0,0,3.36.45,2.49,2.49,0,0,0,.44-3.43A2.36,2.36,0,0,0,59.13,35.19Z"/>
      </g>
    </g>
    <g id="group1138-40">
      <g id="shape1139-41">
        <path id="path121" class="cls-1" d="M50,27.86a3.79,3.79,0,0,0-.68,5.21,3.58,3.58,0,0,0,5.1.7,3.8,3.8,0,0,0,.67-5.23A3.59,3.59,0,0,0,50,27.86Z"/>
      </g>
    </g>
  </g>
  <g id="shape1112-43">
    <g id="text126" class="cls-2">
      <path class="cls-1" d="M33.1,57.79h-.9l-.75-2h-3l-.69,2h-.92l2.69-7h.85Zm-1.91-2.7-1.1-3a1.91,1.91,0,0,1-.11-.47h0a2.53,2.53,0,0,1-.11.47l-1.09,3Z"/>
      <path class="cls-1" d="M34.65,57.06h0v3h-.8v-7.3h.8v.88h0a1.88,1.88,0,0,1,1.73-1,1.81,1.81,0,0,1,1.5.67,2.74,2.74,0,0,1,.55,1.8,3.13,3.13,0,0,1-.61,2,2,2,0,0,1-1.67.75A1.67,1.67,0,0,1,34.65,57.06Zm0-2v.7a1.48,1.48,0,0,0,.4,1,1.43,1.43,0,0,0,2.16-.13,2.49,2.49,0,0,0,.42-1.54,2,2,0,0,0-.39-1.31,1.28,1.28,0,0,0-1-.48,1.45,1.45,0,0,0-1.13.49A1.79,1.79,0,0,0,34.63,55.05Z"/>
      <path class="cls-1" d="M40.31,57.79h-.8V50.38h.8Z"/>
      <path class="cls-1" d="M42.14,51.52a.52.52,0,1,1,0-1,.51.51,0,0,1,.37.15.51.51,0,0,1,.16.37.52.52,0,0,1-.16.37A.51.51,0,0,1,42.14,51.52Zm.39,6.27h-.8v-5h.8Z"/>
      <path class="cls-1" d="M47.36,57.56A2.63,2.63,0,0,1,46,57.9a2.29,2.29,0,0,1-1.73-.69,2.57,2.57,0,0,1-.65-1.81,2.73,2.73,0,0,1,.71-2,2.47,2.47,0,0,1,1.89-.75,2.67,2.67,0,0,1,1.16.24v.82a2,2,0,0,0-1.19-.39,1.64,1.64,0,0,0-1.26.55,2.09,2.09,0,0,0-.49,1.45,2,2,0,0,0,.46,1.38,1.59,1.59,0,0,0,1.24.51,2,2,0,0,0,1.23-.43Z"/>
      <path class="cls-1" d="M52,57.79h-.8V57h0a1.69,1.69,0,0,1-1.54.89,1.65,1.65,0,0,1-1.17-.39,1.38,1.38,0,0,1-.42-1c0-.94.55-1.48,1.65-1.63l1.5-.21c0-.85-.35-1.28-1-1.28a2.44,2.44,0,0,0-1.63.62v-.82a3.1,3.1,0,0,1,1.7-.47c1.17,0,1.76.62,1.76,1.86Zm-.8-2.53-1.21.16a2.11,2.11,0,0,0-.84.28.79.79,0,0,0-.28.7.76.76,0,0,0,.26.6,1,1,0,0,0,.69.23,1.29,1.29,0,0,0,1-.42,1.48,1.48,0,0,0,.39-1.05Z"/>
      <path class="cls-1" d="M55.58,57.74a1.61,1.61,0,0,1-.75.15c-.88,0-1.31-.48-1.31-1.46v-3h-.86v-.68h.86V51.57l.8-.26v1.48h1.26v.68H54.32v2.82a1.16,1.16,0,0,0,.17.72.68.68,0,0,0,.56.21.86.86,0,0,0,.53-.17Z"/>
      <path class="cls-1" d="M56.86,51.52a.52.52,0,1,1,0-1,.51.51,0,0,1,.37.15.5.5,0,0,1,.15.37.51.51,0,0,1-.52.52Zm.39,6.27h-.8v-5h.8Z"/>
      <path class="cls-1" d="M62.6,52.79l-2,5h-.79l-1.9-5h.88l1.27,3.63a2.89,2.89,0,0,1,.18.7h0a3.25,3.25,0,0,1,.15-.68l1.33-3.65Z"/>
      <path class="cls-1" d="M65.35,57.9a2.31,2.31,0,0,1-1.77-.7,2.57,2.57,0,0,1-.66-1.85,2.74,2.74,0,0,1,.68-2,2.49,2.49,0,0,1,1.86-.71,2.25,2.25,0,0,1,1.75.69,2.72,2.72,0,0,1,.63,1.91,2.67,2.67,0,0,1-.68,1.91A2.36,2.36,0,0,1,65.35,57.9Zm.06-4.56a1.5,1.5,0,0,0-1.22.53,2.15,2.15,0,0,0-.45,1.45,2,2,0,0,0,.45,1.4,1.55,1.55,0,0,0,1.22.51,1.48,1.48,0,0,0,1.19-.5A2.2,2.2,0,0,0,67,55.3a2.22,2.22,0,0,0-.42-1.45A1.46,1.46,0,0,0,65.41,53.34Z"/>
      <path class="cls-1" d="M79.86,50.78l-2,7h-1l-1.44-5.12a3.91,3.91,0,0,1-.11-.71h0a4.1,4.1,0,0,1-.12.7l-1.45,5.13h-1l-2-7h.91l1.49,5.38a3.1,3.1,0,0,1,.11.7h0a3.17,3.17,0,0,1,.15-.7L75,50.78h.78l1.49,5.41a3.78,3.78,0,0,1,.11.66h0a5.43,5.43,0,0,1,.13-.67L79,50.78Z"/>
      <path class="cls-1" d="M84.22,55.49H80.69a2,2,0,0,0,.45,1.29,1.57,1.57,0,0,0,1.19.45,2.46,2.46,0,0,0,1.55-.56v.76a3,3,0,0,1-1.75.47,2.09,2.09,0,0,1-1.66-.68,2.79,2.79,0,0,1-.61-1.91,2.72,2.72,0,0,1,.67-1.91,2.1,2.1,0,0,1,1.64-.73,1.9,1.9,0,0,1,1.52.63,2.67,2.67,0,0,1,.53,1.77Zm-.82-.68a1.62,1.62,0,0,0-.33-1.08,1.14,1.14,0,0,0-.92-.39,1.32,1.32,0,0,0-1,.41,1.91,1.91,0,0,0-.49,1.06Z"/>
      <path class="cls-1" d="M86.06,57.06h0v.73h-.8V50.38H86v3.29h0a1.88,1.88,0,0,1,1.72-1,1.82,1.82,0,0,1,1.51.67,2.8,2.8,0,0,1,.55,1.8,3.13,3.13,0,0,1-.61,2,2,2,0,0,1-1.67.75A1.63,1.63,0,0,1,86.06,57.06Zm0-2v.7a1.48,1.48,0,0,0,.4,1,1.43,1.43,0,0,0,2.16-.13A2.49,2.49,0,0,0,89,55.13a2,2,0,0,0-.39-1.31,1.28,1.28,0,0,0-1-.48,1.43,1.43,0,0,0-1.12.49A1.79,1.79,0,0,0,86,55.05Z"/>
    </g>
  </g>
  <rect id="rect134" class="cls-3" x="65.1" y="0.37" width="114.21" height="20"/>
  <g id="text136" class="cls-2">
    <path class="cls-4" d="M56.77,7.11H54V9.53h2.53v.74H54v3.1h-.82v-7h3.55Z"/>
    <path class="cls-4" d="M58.59,13.37h-.8V6h.8Z"/>
    <path class="cls-4" d="M64.06,13.37h-.8v-.79h0a1.65,1.65,0,0,1-1.55.91c-1.19,0-1.78-.71-1.78-2.13v-3h.79v2.86c0,1.06.41,1.58,1.21,1.58a1.24,1.24,0,0,0,1-.43,1.66,1.66,0,0,0,.38-1.13V8.37h.8Z"/>
    <path class="cls-4" d="M69.12,8.37,67.44,10.9l1.66,2.47h-.94l-1-1.62L67,11.37h0s-.09.15-.23.38l-1,1.62h-.92l1.7-2.45L64.86,8.37h.93l1,1.71.21.39h0l1.25-2.1Z"/>
    <path class="cls-4" d="M72,13.49a2.34,2.34,0,0,1-1.77-.7,2.61,2.61,0,0,1-.66-1.86,2.7,2.7,0,0,1,.69-2,2.49,2.49,0,0,1,1.86-.71,2.22,2.22,0,0,1,1.74.69,2.73,2.73,0,0,1,.63,1.91,2.69,2.69,0,0,1-.67,1.92A2.38,2.38,0,0,1,72,13.49ZM72,8.93a1.52,1.52,0,0,0-1.22.52,2.15,2.15,0,0,0-.45,1.45,2,2,0,0,0,.45,1.4,1.56,1.56,0,0,0,1.22.51,1.43,1.43,0,0,0,1.19-.5,2.16,2.16,0,0,0,.42-1.43,2.19,2.19,0,0,0-.42-1.44A1.43,1.43,0,0,0,72,8.93Z"/>
    <path class="cls-4" d="M82.33,13.37h-.8v-.85h0a1.85,1.85,0,0,1-1.72,1,1.9,1.9,0,0,1-1.51-.67A2.8,2.8,0,0,1,77.72,11a3,3,0,0,1,.62-2A2.08,2.08,0,0,1,80,8.25a1.6,1.6,0,0,1,1.5.81h0V6h.8Zm-.8-2.26v-.74a1.45,1.45,0,0,0-.4-1,1.36,1.36,0,0,0-1-.42A1.39,1.39,0,0,0,79,9.46,2.38,2.38,0,0,0,78.54,11a2.1,2.1,0,0,0,.4,1.36,1.3,1.3,0,0,0,1.08.5,1.38,1.38,0,0,0,1.09-.48A1.79,1.79,0,0,0,81.53,11.11Z"/>
    <path class="cls-4" d="M85.84,13.49a2.34,2.34,0,0,1-1.77-.7,2.61,2.61,0,0,1-.66-1.86,2.7,2.7,0,0,1,.69-2A2.49,2.49,0,0,1,86,8.25a2.24,2.24,0,0,1,1.74.69,2.73,2.73,0,0,1,.63,1.91,2.7,2.7,0,0,1-.68,1.92A2.36,2.36,0,0,1,85.84,13.49Zm.06-4.56a1.51,1.51,0,0,0-1.22.52,2.15,2.15,0,0,0-.45,1.45,2,2,0,0,0,.45,1.4,1.55,1.55,0,0,0,1.22.51,1.44,1.44,0,0,0,1.19-.5,2.16,2.16,0,0,0,.42-1.43,2.19,2.19,0,0,0-.42-1.44A1.45,1.45,0,0,0,85.9,8.93Z"/>
    <path class="cls-4" d="M95.36,13.14a2.63,2.63,0,0,1-1.37.35,2.26,2.26,0,0,1-1.73-.7,2.53,2.53,0,0,1-.65-1.8,2.78,2.78,0,0,1,.7-2,2.5,2.5,0,0,1,1.89-.75,2.58,2.58,0,0,1,1.17.25v.82a2,2,0,0,0-1.2-.39,1.57,1.57,0,0,0-1.25.55,2,2,0,0,0-.49,1.44,2,2,0,0,0,.46,1.39,1.58,1.58,0,0,0,1.24.5,2,2,0,0,0,1.23-.43Z"/>
    <path class="cls-4" d="M98.46,13.49a2.34,2.34,0,0,1-1.77-.7A2.61,2.61,0,0,1,96,10.93a2.7,2.7,0,0,1,.68-2,2.49,2.49,0,0,1,1.86-.71,2.25,2.25,0,0,1,1.75.69,2.73,2.73,0,0,1,.63,1.91,2.7,2.7,0,0,1-.68,1.92A2.36,2.36,0,0,1,98.46,13.49Zm.06-4.56a1.53,1.53,0,0,0-1.23.52,2.2,2.2,0,0,0-.44,1.45,2,2,0,0,0,.45,1.4,1.55,1.55,0,0,0,1.22.51,1.45,1.45,0,0,0,1.19-.5,2.16,2.16,0,0,0,.42-1.43,2.19,2.19,0,0,0-.42-1.44A1.46,1.46,0,0,0,98.52,8.93Zm1.17-3.11-1.28,1.6h-.62l1.09-1.6Z"/>
    <path class="cls-4" d="M106.29,13.37h-.8v-.85h0a1.83,1.83,0,0,1-1.71,1,1.9,1.9,0,0,1-1.51-.67,2.74,2.74,0,0,1-.56-1.83,3,3,0,0,1,.62-2A2.06,2.06,0,0,1,104,8.25a1.59,1.59,0,0,1,1.49.81h0V6h.8Zm-.8-2.26v-.74a1.41,1.41,0,0,0-.4-1,1.32,1.32,0,0,0-1-.42,1.39,1.39,0,0,0-1.15.53,2.38,2.38,0,0,0-.42,1.49,2.1,2.1,0,0,0,.4,1.36,1.3,1.3,0,0,0,1.08.5,1.38,1.38,0,0,0,1.09-.48A1.84,1.84,0,0,0,105.49,11.11Z"/>
    <path class="cls-4" d="M108.13,7.1a.5.5,0,0,1-.37-.15.48.48,0,0,1-.15-.37.51.51,0,0,1,.52-.52.51.51,0,0,1,.37.15.53.53,0,0,1,0,.74A.51.51,0,0,1,108.13,7.1Zm.39,6.27h-.8v-5h.8Z"/>
    <path class="cls-4" d="M114.21,13c0,1.84-.88,2.75-2.64,2.75a3.45,3.45,0,0,1-1.62-.35v-.8a3.35,3.35,0,0,0,1.61.47c1.23,0,1.84-.65,1.84-2v-.55h0a1.86,1.86,0,0,1-1.71,1,1.84,1.84,0,0,1-1.5-.67A2.65,2.65,0,0,1,109.6,11a3.08,3.08,0,0,1,.61-2,2,2,0,0,1,1.68-.76,1.61,1.61,0,0,1,1.49.81h0V8.37h.81Zm-.81-1.86v-.74a1.44,1.44,0,0,0-.4-1,1.33,1.33,0,0,0-1-.42,1.38,1.38,0,0,0-1.16.54,2.4,2.4,0,0,0-.42,1.51,2,2,0,0,0,.4,1.33,1.28,1.28,0,0,0,1.07.5,1.41,1.41,0,0,0,1.09-.47A1.8,1.8,0,0,0,113.4,11.11Z"/>
    <path class="cls-4" d="M117.72,13.49a2.34,2.34,0,0,1-1.77-.7,2.57,2.57,0,0,1-.67-1.86A2.7,2.7,0,0,1,116,9a2.49,2.49,0,0,1,1.86-.71,2.25,2.25,0,0,1,1.75.69,2.73,2.73,0,0,1,.63,1.91,2.7,2.7,0,0,1-.68,1.92A2.37,2.37,0,0,1,117.72,13.49Zm0-4.56a1.52,1.52,0,0,0-1.22.52,2.15,2.15,0,0,0-.45,1.45,2.05,2.05,0,0,0,.46,1.4,1.54,1.54,0,0,0,1.21.51,1.46,1.46,0,0,0,1.2-.5,2.16,2.16,0,0,0,.42-1.43A2.19,2.19,0,0,0,119,9.44,1.47,1.47,0,0,0,117.77,8.93Z"/>
    <path class="cls-4" d="M128.09,13.37h-.8v-.85h0a1.84,1.84,0,0,1-1.72,1,1.87,1.87,0,0,1-1.5-.67,2.75,2.75,0,0,1-.57-1.83,3,3,0,0,1,.63-2,2,2,0,0,1,1.66-.75,1.6,1.6,0,0,1,1.5.81h0V6h.8Zm-.8-2.26v-.74a1.41,1.41,0,0,0-.4-1,1.34,1.34,0,0,0-1-.42,1.41,1.41,0,0,0-1.16.53A2.38,2.38,0,0,0,124.3,11a2.1,2.1,0,0,0,.41,1.36,1.28,1.28,0,0,0,1.08.5,1.36,1.36,0,0,0,1.08-.48A1.79,1.79,0,0,0,127.29,11.11Z"/>
    <path class="cls-4" d="M133.53,11.07H130a1.83,1.83,0,0,0,.45,1.29,1.56,1.56,0,0,0,1.18.45,2.48,2.48,0,0,0,1.56-.55V13a2.9,2.9,0,0,1-1.75.48,2.12,2.12,0,0,1-1.66-.68,2.78,2.78,0,0,1-.61-1.92,2.73,2.73,0,0,1,.66-1.9,2.13,2.13,0,0,1,1.65-.74,1.9,1.9,0,0,1,1.52.64,2.68,2.68,0,0,1,.53,1.76Zm-.82-.68a1.62,1.62,0,0,0-.33-1.08,1.17,1.17,0,0,0-.92-.38,1.28,1.28,0,0,0-1,.4,1.87,1.87,0,0,0-.49,1.06Z"/>
    <path class="cls-4" d="M140.66,13.37h-.8v-.78h0a1.68,1.68,0,0,1-1.54.9,1.63,1.63,0,0,1-1.17-.4,1.36,1.36,0,0,1-.42-1.05c0-.93.55-1.47,1.65-1.63l1.5-.21c0-.85-.34-1.27-1-1.27a2.45,2.45,0,0,0-1.63.61V8.72a3.12,3.12,0,0,1,1.7-.47c1.17,0,1.76.63,1.76,1.87Zm-.8-2.53-1.21.17a2,2,0,0,0-.84.27.82.82,0,0,0-.28.7.76.76,0,0,0,.26.6,1,1,0,0,0,.7.23,1.3,1.3,0,0,0,1-.41,1.49,1.49,0,0,0,.39-1.06Z"/>
    <path class="cls-4" d="M146,13.37h-.8v-.79h0a1.63,1.63,0,0,1-1.54.91c-1.19,0-1.79-.71-1.79-2.13v-3h.8v2.86c0,1.06.4,1.58,1.21,1.58a1.21,1.21,0,0,0,1-.43,1.61,1.61,0,0,0,.38-1.13V8.37h.8Z"/>
    <path class="cls-4" d="M149.75,13.32a1.49,1.49,0,0,1-.75.16c-.87,0-1.31-.49-1.31-1.47v-3h-.86V8.37h.86V7.15l.8-.26V8.37h1.26v.68h-1.26v2.82a1.19,1.19,0,0,0,.17.72.68.68,0,0,0,.57.21.85.85,0,0,0,.52-.16Z"/>
    <path class="cls-4" d="M152.71,13.49a2.34,2.34,0,0,1-1.77-.7,2.61,2.61,0,0,1-.66-1.86A2.74,2.74,0,0,1,151,9a2.49,2.49,0,0,1,1.87-.71,2.24,2.24,0,0,1,1.74.69,2.73,2.73,0,0,1,.63,1.91,2.7,2.7,0,0,1-.68,1.92A2.36,2.36,0,0,1,152.71,13.49Zm.06-4.56a1.5,1.5,0,0,0-1.22.52,2.15,2.15,0,0,0-.45,1.45,2,2,0,0,0,.45,1.4,1.55,1.55,0,0,0,1.22.51,1.45,1.45,0,0,0,1.19-.5,2.16,2.16,0,0,0,.42-1.43A2.19,2.19,0,0,0,154,9.44,1.46,1.46,0,0,0,152.77,8.93Z"/>
    <path class="cls-4" d="M158.88,9.18a.93.93,0,0,0-.6-.16,1,1,0,0,0-.86.48,2.27,2.27,0,0,0-.34,1.32v2.55h-.8v-5h.8v1h0a1.71,1.71,0,0,1,.52-.82,1.18,1.18,0,0,1,.79-.3,1.37,1.37,0,0,1,.47.07Z"/>
    <path class="cls-4" d="M160,7.1A.49.49,0,0,1,159.6,7a.48.48,0,0,1-.15-.37.5.5,0,0,1,.15-.37.49.49,0,0,1,.36-.15.52.52,0,0,1,.38.15.53.53,0,0,1,0,.74A.52.52,0,0,1,160,7.1Zm.39,6.27h-.8v-5h.8Z"/>
    <path class="cls-4" d="M165.26,8.6l-3,4.09h2.93v.68h-4.1v-.25l3-4.07h-2.68V8.37h3.85Z"/>
    <path class="cls-4" d="M169.68,13.37h-.8v-.78h0a1.68,1.68,0,0,1-1.54.9,1.61,1.61,0,0,1-1.17-.4,1.36,1.36,0,0,1-.42-1.05c0-.93.55-1.47,1.65-1.63l1.5-.21c0-.85-.35-1.27-1-1.27a2.47,2.47,0,0,0-1.64.61V8.72a3.15,3.15,0,0,1,1.7-.47c1.18,0,1.77.63,1.77,1.87Zm-.8-2.53-1.21.17a2,2,0,0,0-.84.27.79.79,0,0,0-.28.7.73.73,0,0,0,.26.6,1,1,0,0,0,.69.23,1.32,1.32,0,0,0,1-.41,1.49,1.49,0,0,0,.39-1.06Z"/>
    <path class="cls-4" d="M174.39,13.14a2.6,2.6,0,0,1-1.36.35,2.25,2.25,0,0,1-1.73-.7,2.5,2.5,0,0,1-.66-1.8,2.78,2.78,0,0,1,.71-2,2.47,2.47,0,0,1,1.89-.75,2.51,2.51,0,0,1,1.16.25v.82a2,2,0,0,0-1.19-.39,1.61,1.61,0,0,0-1.26.55,2.09,2.09,0,0,0-.49,1.44,2,2,0,0,0,.46,1.39,1.6,1.6,0,0,0,1.24.5,2,2,0,0,0,1.23-.43ZM174,14.62c0,.57-.44.86-1.34.86h-.32V15l.35,0c.45,0,.68-.15.68-.44s-.21-.38-.63-.38l-.2,0v-.89H173v.51a1.08,1.08,0,0,1,.68.19A.66.66,0,0,1,174,14.62Z"/>
    <path class="cls-4" d="M179,13.37h-.8v-.78h0a1.66,1.66,0,0,1-1.53.9,1.61,1.61,0,0,1-1.17-.4A1.34,1.34,0,0,1,175,12c0-.93.55-1.47,1.65-1.63l1.5-.21c0-.85-.34-1.27-1-1.27a2.47,2.47,0,0,0-1.63.61V8.72a3.12,3.12,0,0,1,1.7-.47c1.18,0,1.76.63,1.76,1.87Zm-.27-7.12a1.39,1.39,0,0,1-.23.84.73.73,0,0,1-.63.32,1.67,1.67,0,0,1-.8-.25,1.32,1.32,0,0,0-.58-.21c-.28,0-.43.18-.43.55h-.46a1.35,1.35,0,0,1,.24-.84.76.76,0,0,1,.65-.31,1.39,1.39,0,0,1,.73.25,1.22,1.22,0,0,0,.63.22c.27,0,.41-.19.41-.57Zm-.53,4.59L177,11a2,2,0,0,0-.84.27.8.8,0,0,0-.29.7.74.74,0,0,0,.27.6,1,1,0,0,0,.69.23,1.28,1.28,0,0,0,1-.41,1.49,1.49,0,0,0,.39-1.06Z"/>
    <path class="cls-4" d="M182.38,13.49a2.34,2.34,0,0,1-1.77-.7,2.61,2.61,0,0,1-.66-1.86,2.7,2.7,0,0,1,.69-2,2.49,2.49,0,0,1,1.86-.71,2.25,2.25,0,0,1,1.75.69,2.78,2.78,0,0,1,.62,1.91,2.69,2.69,0,0,1-.67,1.92A2.38,2.38,0,0,1,182.38,13.49Zm.06-4.56a1.52,1.52,0,0,0-1.22.52,2.15,2.15,0,0,0-.45,1.45,2,2,0,0,0,.45,1.4,1.56,1.56,0,0,0,1.22.51,1.43,1.43,0,0,0,1.19-.5,2.16,2.16,0,0,0,.42-1.43,2.19,2.19,0,0,0-.42-1.44A1.43,1.43,0,0,0,182.44,8.93Z"/>
  </g>
  <path id="path143" class="cls-1" d="M191.76,17.85h-20.5A1.1,1.1,0,0,0,170.17,19V35.7a1.09,1.09,0,0,0,1.09,1.1h5.28a3.29,3.29,0,0,0,3.21,2.27,3.37,3.37,0,0,0,0-6.74,3.29,3.29,0,0,0-3.21,2.26h-4.19v-12h18.31v12h-3.45A7.61,7.61,0,0,0,179.75,28a8.25,8.25,0,0,0-3.64.92l1,2a5.39,5.39,0,0,1,2.55-.67,5.46,5.46,0,0,1,0,10.92,5.28,5.28,0,0,1-2.55-.68l-1,2a7.4,7.4,0,0,0,3.64.92,7.61,7.61,0,0,0,7.46-6.56h4.55a1.09,1.09,0,0,0,1.09-1.1V19A1.14,1.14,0,0,0,191.76,17.85Z"/>
  <g id="text145" class="cls-2">
    <path class="cls-1" d="M167.52,53.37h-.9l-.75-2h-3l-.69,2h-.92l2.69-7h.85Zm-1.92-2.7-1.09-3a2.18,2.18,0,0,1-.11-.47h0a3,3,0,0,1-.11.47l-1.09,3Z"/>
    <path class="cls-1" d="M169.07,52.65h0v3h-.8v-7.3h.8v.88h0a1.88,1.88,0,0,1,1.72-1,1.85,1.85,0,0,1,1.51.67,2.8,2.8,0,0,1,.55,1.8,3.07,3.07,0,0,1-.62,2,2,2,0,0,1-1.67.76A1.67,1.67,0,0,1,169.07,52.65Zm0-2v.7a1.48,1.48,0,0,0,.4,1.05,1.44,1.44,0,0,0,2.16-.12,2.55,2.55,0,0,0,.42-1.55,2,2,0,0,0-.39-1.31,1.27,1.27,0,0,0-1-.47,1.42,1.42,0,0,0-1.12.48A1.79,1.79,0,0,0,169.05,50.63Z"/>
    <path class="cls-1" d="M174.73,53.37h-.81V46h.81Z"/>
    <path class="cls-1" d="M176.56,47.1a.5.5,0,0,1-.37-.15.48.48,0,0,1-.15-.37.51.51,0,0,1,.52-.52.51.51,0,0,1,.37.15.53.53,0,0,1,0,.74A.51.51,0,0,1,176.56,47.1Zm.39,6.27h-.8v-5h.8Z"/>
    <path class="cls-1" d="M181.78,53.14a2.63,2.63,0,0,1-1.37.35,2.3,2.3,0,0,1-1.73-.7A2.53,2.53,0,0,1,178,51a2.78,2.78,0,0,1,.7-2,2.51,2.51,0,0,1,1.9-.75,2.57,2.57,0,0,1,1.16.25v.82a2,2,0,0,0-1.19-.39,1.62,1.62,0,0,0-1.26.54,2.09,2.09,0,0,0-.49,1.45,2,2,0,0,0,.46,1.38,1.59,1.59,0,0,0,1.24.51,2,2,0,0,0,1.23-.43Z"/>
    <path class="cls-1" d="M186.37,53.37h-.8v-.78h0a1.68,1.68,0,0,1-1.54.9,1.66,1.66,0,0,1-1.17-.4,1.36,1.36,0,0,1-.42-1.05c0-.93.55-1.48,1.65-1.63l1.5-.21c0-.85-.35-1.27-1-1.27a2.47,2.47,0,0,0-1.64.61v-.82a3.15,3.15,0,0,1,1.7-.47c1.18,0,1.77.62,1.77,1.87Zm-.8-2.53-1.21.17a2,2,0,0,0-.84.27.79.79,0,0,0-.28.7.73.73,0,0,0,.26.6,1,1,0,0,0,.69.23,1.29,1.29,0,0,0,1-.42,1.47,1.47,0,0,0,.39-1Z"/>
    <path class="cls-1" d="M190,53.32a1.61,1.61,0,0,1-.75.16q-1.32,0-1.32-1.47v-3h-.85v-.68h.85V47.15l.81-.26v1.48H190v.68h-1.26v2.82a1.16,1.16,0,0,0,.17.72.68.68,0,0,0,.56.21.88.88,0,0,0,.53-.16Z"/>
    <path class="cls-1" d="M191.27,47.1a.49.49,0,0,1-.36-.15.48.48,0,0,1-.15-.37.5.5,0,0,1,.15-.37.49.49,0,0,1,.36-.15.54.54,0,0,1,.38.15.53.53,0,0,1,0,.74A.54.54,0,0,1,191.27,47.1Zm.4,6.27h-.81v-5h.81Z"/>
    <path class="cls-1" d="M197,48.37l-2,5h-.78l-1.9-5h.88L194.49,52a3.44,3.44,0,0,1,.18.7h0a3.25,3.25,0,0,1,.15-.68l1.33-3.65Z"/>
    <path class="cls-1" d="M199.77,53.49a2.31,2.31,0,0,1-1.77-.71,2.53,2.53,0,0,1-.67-1.85,2.7,2.7,0,0,1,.69-2,2.49,2.49,0,0,1,1.86-.71,2.25,2.25,0,0,1,1.75.69,2.73,2.73,0,0,1,.63,1.91,2.7,2.7,0,0,1-.68,1.92A2.37,2.37,0,0,1,199.77,53.49Zm0-4.56a1.52,1.52,0,0,0-1.22.52,2.15,2.15,0,0,0-.45,1.45,2.05,2.05,0,0,0,.46,1.4,1.54,1.54,0,0,0,1.21.51,1.49,1.49,0,0,0,1.2-.5,2.18,2.18,0,0,0,.42-1.43,2.22,2.22,0,0,0-.42-1.45A1.46,1.46,0,0,0,199.82,48.93Z"/>
    <path class="cls-1" d="M173.25,63.37h-.8v-.85h0a2,2,0,0,1-3.23.29,2.75,2.75,0,0,1-.56-1.82,3,3,0,0,1,.62-2,2.08,2.08,0,0,1,1.67-.75,1.6,1.6,0,0,1,1.5.81h0V56h.8Zm-.8-2.26v-.74a1.45,1.45,0,0,0-.4-1,1.48,1.48,0,0,0-2.17.11,2.38,2.38,0,0,0-.42,1.49,2.1,2.1,0,0,0,.4,1.36,1.3,1.3,0,0,0,1.08.5,1.38,1.38,0,0,0,1.09-.48A1.79,1.79,0,0,0,172.45,61.11Z"/>
    <path class="cls-1" d="M178.69,61.07h-3.53a1.83,1.83,0,0,0,.45,1.29,1.54,1.54,0,0,0,1.18.45,2.45,2.45,0,0,0,1.55-.55V63a2.89,2.89,0,0,1-1.74.48,2.11,2.11,0,0,1-1.67-.69,2.79,2.79,0,0,1-.6-1.91A2.73,2.73,0,0,1,175,59a2.12,2.12,0,0,1,1.64-.74,1.86,1.86,0,0,1,1.52.64,2.63,2.63,0,0,1,.54,1.76Zm-.82-.68a1.68,1.68,0,0,0-.34-1.08,1.12,1.12,0,0,0-.91-.38,1.28,1.28,0,0,0-1,.4,1.78,1.78,0,0,0-.49,1.06Z"/>
    <path class="cls-1" d="M187.77,63.37h-.91l-.74-2h-3l-.7,2h-.91l2.68-7h.85Zm-1.92-2.7-1.1-3a3,3,0,0,1-.11-.47h0a3,3,0,0,1-.11.47l-1.09,3Z"/>
    <path class="cls-1" d="M189.42,60.72v2.65h-.82v-7h1.92a2.55,2.55,0,0,1,1.74.54,2,2,0,0,1,.62,1.55,2.13,2.13,0,0,1-.69,1.63,2.63,2.63,0,0,1-1.85.63Zm0-3.61V60h.86a1.91,1.91,0,0,0,1.29-.39A1.36,1.36,0,0,0,192,58.5c0-.93-.55-1.39-1.64-1.39Z"/>
    <path class="cls-1" d="M194.82,63.37H194v-7h.82Z"/>
  </g>
  <g id="shape1142-51">
    <g id="use7">
      <g id="lend5">
        <path id="path4" class="cls-5" d="M161.7,26.59l8,4-8,4a9,9,0,0,0,0-8"/>
      </g>
    </g>
  </g>
  <g id="group1143-57">
    <g id="group1144-58">
      <g id="group1145-59">
        <g id="group1146-60">
          <g id="shape1147-61">
            <path id="path163" class="cls-1" d="M7.85,22.77a4.5,4.5,0,0,0-3,5.67c.66,2.55,3,4.21,5.27,3.66a4.49,4.49,0,0,0,3-5.66C12.57,23.77,10.16,22.11,7.85,22.77Z"/>
          </g>
        </g>
        <g id="group1148-63">
          <g id="shape1149-64">
            <path id="path171" class="cls-1" d="M12.79,32.79c-.44,0-.88.77-1.54,1.11s-1.32.88-3.18,0S6,32.23,4.44,32.23.38,35,.38,39.11H16a12.05,12.05,0,0,0-1.1-4.21C13.77,32.79,13.23,32.79,12.79,32.79Z"/>
          </g>
        </g>
      </g>
    </g>
    <g id="group1150-66">
      <g id="shape1151-67">
        <path id="path181" class="cls-6" d="M14.19,27.84H10.07a.71.71,0,0,0-.65.66v2.85a.73.73,0,0,0,.76.66h.76v5.15a1,1,0,0,0,1,1.09,1,1,0,0,0,1-1h.21v-.66c0-.22.33-.33.33-.33V36c-.33-.11-.54-.33-.54-.44v-.32L13.1,35a3.53,3.53,0,0,0,.33-.55,2.4,2.4,0,0,1-.33-.55c-.1-.11-.1-.33-.21-.44v-.22a2.52,2.52,0,0,1,.76-1.09h.54a.71.71,0,0,0,.65-.66v-3A.63.63,0,0,0,14.19,27.84ZM11.8,37.38c0,.22,0,.33-.21.33s-.22-.22-.22-.33V32.56c0-.22.11-.33.22-.33s.21.22.21.33Zm.33-7.78a.66.66,0,0,1,0-1.32.71.71,0,0,1,.65.66A.63.63,0,0,1,12.13,29.6Z"/>
      </g>
      <g id="shape1152-69">
        <path id="path186" class="cls-7" d="M11.57,37.68a.24.24,0,0,1-.22-.22v-5a.22.22,0,1,1,.44,0v5.1C11.79,37.68,11.68,37.68,11.57,37.68Z"/>
      </g>
      <g id="shape1153-71">
        <ellipse id="ellipse191" class="cls-7" cx="12.14" cy="28.92" rx="0.66" ry="0.67"/>
      </g>
    </g>
  </g>
  <line class="cls-8" x1="162.7" y1="30.61" x2="72.52" y2="30.61"/>
</svg>
