<svg xmlns="http://www.w3.org/2000/svg" xmlns:xlink="http://www.w3.org/1999/xlink" viewBox="0 0 316 315.2"><defs><style>.cls-1,.cls-4{fill:#fff;}.cls-16,.cls-2,.cls-6{fill:#3c3c41;}.cls-2{opacity:0.05;}.cls-2,.cls-4,.cls-5,.cls-6{isolation:isolate;}.cls-15,.cls-17,.cls-18,.cls-3,.cls-5{fill:none;}.cls-4{opacity:0.6;}.cls-5{stroke:#75757a;stroke-width:0.5px;opacity:0.5;}.cls-15,.cls-17,.cls-18,.cls-5{stroke-miterlimit:10;}.cls-6{opacity:0.2;}.cls-7{fill:#ccc;fill-opacity:0.3;}.cls-8{fill:url(#Degradado_sin_nombre);}.cls-9{fill:#50e6ff;}.cls-10{fill:#c3f1ff;}.cls-11{fill:#9cebff;}.cls-12{fill:url(#Degradado_sin_nombre_2);}.cls-13{fill:url(#Degradado_sin_nombre_3);}.cls-14{fill:url(#Degradado_sin_nombre_4);}.cls-15,.cls-17,.cls-18{stroke:#3c3c41;}.cls-17{stroke-dasharray:1.46 2.43;}.cls-18{stroke-dasharray:1.31 2.19;}.cls-19{fill:url(#Degradado_sin_nombre_5);}.cls-20{fill:url(#Degradado_sin_nombre_6);}.cls-21{fill:url(#Degradado_sin_nombre_7);}.cls-22{fill:#1490df;}.cls-23{fill:url(#Degradado_sin_nombre_8);}.cls-24{fill:url(#Degradado_sin_nombre_9);}.cls-25{fill:url(#Degradado_sin_nombre_10);}.cls-26{fill:url(#Degradado_sin_nombre_11);}.cls-27{fill:url(#Degradado_sin_nombre_12);}.cls-28{fill:url(#Degradado_sin_nombre_13);}.cls-29{fill:url(#Degradado_sin_nombre_14);}.cls-30{fill:url(#Degradado_sin_nombre_15);}.cls-31{fill:#e81122;}.cls-32{fill:#6ebcdb;}.cls-33{fill:#5db4d7;}.cls-34{fill:#e6e6e6;}.cls-35{fill:#86d633;}.cls-36{fill:#1e1e1e;}</style><linearGradient id="Degradado_sin_nombre" x1="39.57" y1="450.22" x2="39.57" y2="431.46" gradientTransform="translate(0 -284.26)" gradientUnits="userSpaceOnUse"><stop offset="0" stop-color="#0078d4"/><stop offset="0.82" stop-color="#5ea0ef"/></linearGradient><linearGradient id="Degradado_sin_nombre_2" x1="39.57" y1="457.46" x2="39.57" y2="450.22" gradientTransform="translate(0 -284.26)" gradientUnits="userSpaceOnUse"><stop offset="0.15" stop-color="#ccc"/><stop offset="1" stop-color="#707070"/></linearGradient><linearGradient id="Degradado_sin_nombre_3" x1="76.43" y1="450.22" x2="76.43" y2="431.46" xlink:href="#Degradado_sin_nombre"/><linearGradient id="Degradado_sin_nombre_4" x1="76.43" y1="457.46" x2="76.43" y2="450.22" xlink:href="#Degradado_sin_nombre_2"/><linearGradient id="Degradado_sin_nombre_5" x1="24" y1="511.25" x2="26.37" y2="513.62" gradientTransform="translate(2.88 -284.87)" gradientUnits="userSpaceOnUse"><stop offset="0" stop-color="#86d633"/><stop offset="0.24" stop-color="#83d232"/><stop offset="0.5" stop-color="#7cc52f"/><stop offset="0.76" stop-color="#6fb02a"/><stop offset="1" stop-color="#5e9624"/></linearGradient><linearGradient id="Degradado_sin_nombre_6" x1="18.65" y1="511.26" x2="21.01" y2="513.63" xlink:href="#Degradado_sin_nombre_5"/><linearGradient id="Degradado_sin_nombre_7" x1="13.31" y1="511.26" x2="15.67" y2="513.63" xlink:href="#Degradado_sin_nombre_5"/><linearGradient id="Degradado_sin_nombre_8" x1="139.57" y1="450.22" x2="139.57" y2="431.46" xlink:href="#Degradado_sin_nombre"/><linearGradient id="Degradado_sin_nombre_9" x1="139.57" y1="457.46" x2="139.57" y2="450.22" xlink:href="#Degradado_sin_nombre_2"/><linearGradient id="Degradado_sin_nombre_10" x1="176.43" y1="450.22" x2="176.43" y2="431.46" xlink:href="#Degradado_sin_nombre"/><linearGradient id="Degradado_sin_nombre_11" x1="176.43" y1="457.46" x2="176.43" y2="450.22" xlink:href="#Degradado_sin_nombre_2"/><linearGradient id="Degradado_sin_nombre_12" x1="239.57" y1="450.22" x2="239.57" y2="431.46" xlink:href="#Degradado_sin_nombre"/><linearGradient id="Degradado_sin_nombre_13" x1="239.57" y1="457.46" x2="239.57" y2="450.22" xlink:href="#Degradado_sin_nombre_2"/><linearGradient id="Degradado_sin_nombre_14" x1="276.43" y1="450.22" x2="276.43" y2="431.46" xlink:href="#Degradado_sin_nombre"/><linearGradient id="Degradado_sin_nombre_15" x1="276.43" y1="457.46" x2="276.43" y2="450.22" xlink:href="#Degradado_sin_nombre_2"/></defs><title>OJ104903205</title><g id="Target"><g id="Shapes"><rect class="cls-1" width="316" height="315.2"/><rect class="cls-1" x="0.5" y="75.2" width="315" height="151.85" rx="5"/><rect class="cls-2" x="0.5" y="75.2" width="315" height="151.85" rx="5"/><rect class="cls-3" x="0.5" y="75.2" width="315" height="151.85" rx="5"/><rect class="cls-4" x="110.5" y="15.2" width="95" height="200"/><rect class="cls-5" x="110.5" y="15.2" width="95" height="200"/><rect class="cls-4" x="210.5" y="15.2" width="95" height="200"/><rect class="cls-5" x="210.5" y="15.2" width="95" height="200"/><rect class="cls-4" x="10.5" y="15.2" width="95" height="200"/><rect class="cls-5" x="10.5" y="15.2" width="95" height="200"/><rect class="cls-1" x="15.99" y="120.2" width="284.01" height="90" rx="0.3"/><rect class="cls-6" x="15.99" y="120.2" width="284.01" height="90" rx="0.3"/><rect class="cls-7" x="160.5" y="240.2" width="155" height="35"/><rect class="cls-7" x="160.5" y="280.2" width="155" height="35"/><rect class="cls-8" x="25.5" y="147.2" width="28.14" height="18.76" rx="0.94"/><polygon class="cls-9" points="44.26 153.85 44.26 159.3 39.57 162.05 39.57 156.58 44.26 153.85"/><polygon class="cls-10" points="44.26 153.85 39.57 156.6 34.88 153.85 39.57 151.11 44.26 153.85"/><polygon class="cls-11" points="39.57 156.6 39.57 162.05 34.88 159.3 34.88 153.85 39.57 156.6"/><polygon class="cls-10" points="34.88 159.3 39.57 156.58 39.57 162.05 34.88 159.3"/><polygon class="cls-11" points="44.26 159.3 39.57 156.58 39.57 162.05 44.26 159.3"/><path class="cls-12" d="M45.21,171.64c-2.78-.44-2.89-2.44-2.89-5.68H36.8c0,3.24-.09,5.24-2.87,5.68a1.55,1.55,0,0,0-1.39,1.56H46.61A1.57,1.57,0,0,0,45.21,171.64Z"/><rect class="cls-13" x="62.36" y="147.2" width="28.14" height="18.76" rx="0.94"/><polygon class="cls-9" points="81.12 153.85 81.12 159.3 76.43 162.05 76.43 156.58 81.12 153.85"/><polygon class="cls-10" points="81.12 153.85 76.43 156.6 71.74 153.85 76.43 151.11 81.12 153.85"/><polygon class="cls-11" points="76.43 156.6 76.43 162.05 71.74 159.3 71.74 153.85 76.43 156.6"/><polygon class="cls-10" points="71.74 159.3 76.43 156.58 76.43 162.05 71.74 159.3"/><polygon class="cls-11" points="81.12 159.3 76.43 156.58 76.43 162.05 81.12 159.3"/><path class="cls-14" d="M82.07,171.64c-2.78-.44-2.89-2.44-2.89-5.68H73.66c0,3.24-.09,5.24-2.87,5.68a1.57,1.57,0,0,0-1.4,1.56H83.46A1.55,1.55,0,0,0,82.07,171.64Z"/><line class="cls-15" x1="58.25" y1="120.2" x2="58.25" y2="55.2"/><line class="cls-15" x1="50.72" y1="112.67" x2="50.72" y2="100.98"/><polygon class="cls-16" points="53.71 101.85 50.72 96.67 47.73 101.85 53.71 101.85"/><line class="cls-15" x1="65.77" y1="108.37" x2="65.77" y2="107.62"/><line class="cls-17" x1="65.77" y1="105.19" x2="65.77" y2="98.64"/><line class="cls-15" x1="65.77" y1="97.42" x2="65.77" y2="96.67"/><polygon class="cls-16" points="68.76 107.49 65.77 112.67 62.78 107.49 68.76 107.49"/><line class="cls-15" x1="169.81" y1="250.2" x2="180.93" y2="250.2"/><polygon class="cls-16" points="170.68 253.19 165.5 250.2 170.68 247.21 170.68 253.19"/><line class="cls-15" x1="176.19" y1="290.2" x2="175.44" y2="290.2"/><line class="cls-18" x1="173.25" y1="290.2" x2="167.34" y2="290.2"/><line class="cls-15" x1="166.25" y1="290.2" x2="165.5" y2="290.2"/><polygon class="cls-16" points="175.32 287.21 180.5 290.2 175.32 293.19 175.32 287.21"/><circle class="cls-19" cx="27.9" cy="227.4" r="1.67"/><circle class="cls-20" cx="22.56" cy="227.42" r="1.67"/><circle class="cls-21" cx="17.22" cy="227.42" r="1.67"/><path class="cls-9" d="M18.43,234.11l-1,1a.43.43,0,0,1-.61,0h0l-7-7.11a.89.89,0,0,1,0-1.23h0l1-1h0l7.71,7.69a.43.43,0,0,1,0,.61h0Z"/><path class="cls-22" d="M17.33,219.78l1,.95a.44.44,0,0,1,0,.62l-7.57,7.59h0l-1-1a.88.88,0,0,1,0-1.22h0l7-7A.43.43,0,0,1,17.33,219.78Z"/><path class="cls-9" d="M34.28,225.8l1,1a.87.87,0,0,1,0,1.23h0l-7.1,7.07a.43.43,0,0,1-.61,0h0l-1-1a.43.43,0,0,1,0-.61h0Z"/><path class="cls-22" d="M35.24,228l-1,1h0l-7.57-7.59a.44.44,0,0,1,0-.62h0l1-1a.43.43,0,0,1,.61,0h0l7,7a.88.88,0,0,1,0,1.22h0Z"/><rect class="cls-1" x="40.75" y="20.2" width="35" height="35"/><rect class="cls-6" x="40.75" y="20.2" width="35" height="35"/><rect class="cls-23" x="125.5" y="147.2" width="28.14" height="18.76" rx="0.94"/><polygon class="cls-9" points="144.26 153.85 144.26 159.3 139.57 162.05 139.57 156.58 144.26 153.85"/><polygon class="cls-10" points="144.26 153.85 139.57 156.6 134.88 153.85 139.57 151.11 144.26 153.85"/><polygon class="cls-11" points="139.57 156.6 139.57 162.05 134.88 159.3 134.88 153.85 139.57 156.6"/><polygon class="cls-10" points="134.88 159.3 139.57 156.58 139.57 162.05 134.88 159.3"/><polygon class="cls-11" points="144.26 159.3 139.57 156.58 139.57 162.05 144.26 159.3"/><path class="cls-24" d="M145.21,171.64c-2.78-.44-2.89-2.44-2.89-5.68H136.8c0,3.24-.09,5.24-2.87,5.68a1.55,1.55,0,0,0-1.39,1.56h14.07A1.57,1.57,0,0,0,145.21,171.64Z"/><rect class="cls-25" x="162.36" y="147.2" width="28.14" height="18.76" rx="0.94"/><polygon class="cls-9" points="181.12 153.85 181.12 159.3 176.43 162.05 176.43 156.58 181.12 153.85"/><polygon class="cls-10" points="181.12 153.85 176.43 156.6 171.74 153.85 176.43 151.11 181.12 153.85"/><polygon class="cls-11" points="176.43 156.6 176.43 162.05 171.74 159.3 171.74 153.85 176.43 156.6"/><polygon class="cls-10" points="171.74 159.3 176.43 156.58 176.43 162.05 171.74 159.3"/><polygon class="cls-11" points="181.12 159.3 176.43 156.58 176.43 162.05 181.12 159.3"/><path class="cls-26" d="M182.07,171.64c-2.78-.44-2.89-2.44-2.89-5.68h-5.52c0,3.24-.09,5.24-2.87,5.68a1.57,1.57,0,0,0-1.4,1.56h14.07A1.55,1.55,0,0,0,182.07,171.64Z"/><line class="cls-15" x1="158.25" y1="120.2" x2="158.25" y2="55.2"/><line class="cls-15" x1="150.72" y1="112.67" x2="150.72" y2="100.98"/><polygon class="cls-16" points="153.71 101.85 150.72 96.67 147.73 101.85 153.71 101.85"/><line class="cls-15" x1="165.77" y1="108.37" x2="165.77" y2="107.62"/><line class="cls-17" x1="165.77" y1="105.19" x2="165.77" y2="98.64"/><line class="cls-15" x1="165.77" y1="97.42" x2="165.77" y2="96.67"/><polygon class="cls-16" points="168.76 107.49 165.77 112.67 162.78 107.49 168.76 107.49"/><rect class="cls-1" x="140.75" y="20.2" width="35" height="35"/><rect class="cls-6" x="140.75" y="20.2" width="35" height="35"/><rect class="cls-27" x="225.5" y="147.2" width="28.14" height="18.76" rx="0.94"/><polygon class="cls-9" points="244.26 153.85 244.26 159.3 239.57 162.05 239.57 156.58 244.26 153.85"/><polygon class="cls-10" points="244.26 153.85 239.57 156.6 234.88 153.85 239.57 151.11 244.26 153.85"/><polygon class="cls-11" points="239.57 156.6 239.57 162.05 234.88 159.3 234.88 153.85 239.57 156.6"/><polygon class="cls-10" points="234.88 159.3 239.57 156.58 239.57 162.05 234.88 159.3"/><polygon class="cls-11" points="244.26 159.3 239.57 156.58 239.57 162.05 244.26 159.3"/><path class="cls-28" d="M245.21,171.64c-2.78-.44-2.89-2.44-2.89-5.68H236.8c0,3.24-.09,5.24-2.87,5.68a1.55,1.55,0,0,0-1.39,1.56h14.07A1.57,1.57,0,0,0,245.21,171.64Z"/><rect class="cls-29" x="262.36" y="147.2" width="28.14" height="18.76" rx="0.94"/><polygon class="cls-9" points="281.12 153.85 281.12 159.3 276.43 162.05 276.43 156.58 281.12 153.85"/><polygon class="cls-10" points="281.12 153.85 276.43 156.6 271.74 153.85 276.43 151.11 281.12 153.85"/><polygon class="cls-11" points="276.43 156.6 276.43 162.05 271.74 159.3 271.74 153.85 276.43 156.6"/><polygon class="cls-10" points="271.74 159.3 276.43 156.58 276.43 162.05 271.74 159.3"/><polygon class="cls-11" points="281.12 159.3 276.43 156.58 276.43 162.05 281.12 159.3"/><path class="cls-30" d="M282.07,171.64c-2.78-.44-2.89-2.44-2.89-5.68h-5.52c0,3.24-.09,5.24-2.87,5.68a1.57,1.57,0,0,0-1.4,1.56h14.07A1.55,1.55,0,0,0,282.07,171.64Z"/><line class="cls-15" x1="258.25" y1="120.2" x2="258.25" y2="55.2"/><line class="cls-15" x1="250.72" y1="112.67" x2="250.72" y2="100.98"/><polygon class="cls-16" points="253.71 101.85 250.72 96.67 247.73 101.85 253.71 101.85"/><line class="cls-15" x1="265.77" y1="108.37" x2="265.77" y2="107.62"/><line class="cls-17" x1="265.77" y1="105.19" x2="265.77" y2="98.64"/><line class="cls-15" x1="265.77" y1="97.42" x2="265.77" y2="96.67"/><polygon class="cls-16" points="268.76 107.49 265.77 112.67 262.78 107.49 268.76 107.49"/><rect class="cls-1" x="240.75" y="20.2" width="35" height="35"/><rect class="cls-6" x="240.75" y="20.2" width="35" height="35"/><path class="cls-16" d="M309.34,227.55h-1v-1h1Zm-3,0h-1v-1h1Zm-3,0h-1v-1h1Zm-3,0h-1v-1h1Zm-3,0h-1v-1h1Zm-3,0h-1v-1h1Zm-3,0h-1v-1h1Zm-3,0h-1v-1h1Zm-3,0h-1v-1h1Zm-3,0h-1v-1h1Zm-3,0h-1v-1h1Zm-3,0h-1v-1h1Zm-3,0h-1v-1h1Zm-3,0h-1v-1h1Zm-3,0h-1v-1h1Zm-3,0h-1v-1h1Zm-3,0h-1v-1h1Zm-3,0h-1v-1h1Zm-3,0h-1v-1h1Zm-3,0h-1v-1h1Zm-3,0h-1v-1h1Zm-3,0h-1v-1h1Zm-3,0h-1v-1h1Zm-3,0h-1v-1h1Zm-3,0h-1v-1h1Zm-3,0h-1v-1h1Zm-3,0h-1v-1h1Zm-3,0h-1v-1h1Zm-3,0h-1v-1h1Zm-3,0h-1v-1h1Zm-3,0h-1v-1h1Zm-3,0h-1v-1h1Zm-3,0h-1v-1h1Zm-3,0h-1v-1h1Zm-3,0h-1v-1h1Zm-3,0h-1v-1h1Zm-3,0h-1v-1h1Zm-3,0h-1v-1h1Zm-3,0h-1v-1h1Zm-3,0h-1v-1h1Zm-3,0h-1v-1h1Zm-3,0h-1v-1h1Zm-3,0h-1v-1h1Zm-3,0h-1v-1h1Zm-3,0h-1v-1h1Zm-3,0h-1v-1h1Zm-3,0h-1v-1h1Zm-3,0h-1v-1h1Zm-3,0h-1v-1h1Zm-3,0h-1v-1h1Zm-3,0h-1v-1h1Zm-3,0h-1v-1h1Zm-3,0h-1v-1h1Zm-3,0h-1v-1h1Zm-3,0h-1v-1h1Zm-3,0h-1v-1h1Zm-3,0h-1v-1h1Zm-3,0h-1v-1h1Zm-3,0h-1v-1h1Zm-3,0h-1v-1h1Zm-3,0h-1v-1h1Zm-3,0h-1v-1h1Zm-3,0h-1v-1h1Zm-3,0h-1v-1h1Zm-3,0h-1v-1h1Zm-3,0h-1v-1h1Zm-3,0h-1v-1h1Zm-3,0h-1v-1h1Zm-3,0h-1v-1h1Zm-3,0h-1v-1h1Zm-3,0h-1v-1h1Zm-3,0h-1v-1h1Zm-3,0h-1v-1h1Zm-3,0h-1v-1h1Zm-3,0h-1v-1h1Zm-3,0h-1v-1h1Zm-3,0h-1v-1h1Zm-3,0h-1v-1h1Zm-3,0h-1v-1h1Zm-3,0h-1v-1h1Zm-3,0h-1v-1h1Zm-3,0h-1v-1h1Zm-3,0h-1v-1h1Zm-3,0h-1v-1h1Zm-3,0h-1v-1h1Zm-3,0h-1v-1h1Zm-3,0h-1v-1h1Zm-3,0H47v-1h1Zm-3,0H44v-1h1Zm-3,0H41v-1h1Zm-3,0H38v-1h1Zm-33,0H5l.1-1H6Zm305.42-.08-.16-1a4.4,4.4,0,0,0,.86-.24l.37.93a5.64,5.64,0,0,1-1.41.31ZM3.2,226.87a6.34,6.34,0,0,1-.91-.62l.65-.77a4.7,4.7,0,0,0,.74.52ZM314.32,226l-.69-.72a4.82,4.82,0,0,0,.58-.69l.82.57A5.18,5.18,0,0,1,314.32,226ZM.6,224.54a5.09,5.09,0,0,1-.4-1l1-.27a4.31,4.31,0,0,0,.33.84Zm315.29-1.39-1-.2a4.58,4.58,0,0,0,.09-.9l1-.06v.06A5.06,5.06,0,0,1,315.89,223.15ZM1,221.39H0v-1H1ZM316,220h-1v-1h1ZM1,218.39H0v-1H1ZM316,217h-1v-1h1ZM1,215.38H0v-1H1ZM316,214h-1v-1h1ZM1,212.38H0v-1H1ZM316,211h-1v-1h1ZM1,209.38H0v-1H1ZM316,208h-1v-1h1ZM1,206.37H0v-1H1ZM316,205h-1v-1h1ZM1,203.37H0v-1H1ZM316,202h-1v-1h1ZM1,200.37H0v-1H1ZM316,199h-1v-1h1ZM1,197.36H0v-1H1ZM316,196h-1v-1h1ZM1,194.36H0v-1H1ZM316,193h-1v-1h1ZM1,191.36H0v-1H1ZM316,190h-1v-1h1ZM1,188.35H0v-1H1ZM316,187h-1v-1h1ZM1,185.35H0v-1H1ZM316,184h-1v-1h1ZM1,182.35H0v-1H1ZM316,181h-1v-1h1ZM1,179.34H0v-1H1Zm315-1.4h-1v-1h1ZM1,176.34H0v-1H1Zm315-1.4h-1v-1h1ZM1,173.34H0v-1H1Zm315-1.4h-1v-1h1ZM1,170.33H0v-1H1Zm315-1.4h-1v-1h1ZM1,167.33H0v-1H1Zm315-1.4h-1v-1h1ZM1,164.33H0v-1H1Zm315-1.4h-1v-1h1ZM1,161.32H0v-1H1Zm315-1.4h-1v-1h1ZM1,158.32H0v-1H1Zm315-1.4h-1v-1h1ZM1,155.32H0v-1H1Zm315-1.4h-1v-1h1ZM1,152.31H0v-1H1Zm315-1.4h-1v-1h1ZM1,149.31H0v-1H1Zm315-1.4h-1v-1h1ZM1,146.3H0v-1H1Zm315-1.39h-1v-1h1ZM1,143.3H0v-1H1Zm315-1.4h-1v-1h1ZM1,140.3H0v-1H1Zm315-1.4h-1v-1h1ZM1,137.3H0v-1H1Zm315-1.4h-1v-1h1ZM1,134.29H0v-1H1Zm315-1.4h-1v-1h1ZM1,131.29H0v-1H1Zm315-1.4h-1v-1h1ZM1,128.28H0v-1H1Zm315-1.39h-1v-1h1ZM1,125.28H0v-1H1Zm315-1.4h-1v-1h1ZM1,122.28H0v-1H1Zm315-1.4h-1v-1h1ZM1,119.27H0v-1H1Zm315-1.39h-1v-1h1ZM1,116.27H0v-1H1Zm315-1.4h-1v-1h1ZM1,113.27H0v-1H1Zm315-1.4h-1v-1h1ZM1,110.26H0v-1H1Zm315-1.39h-1v-1h1ZM1,107.26H0v-1H1Zm315-1.4h-1v-1h1ZM1,104.26H0v-1H1Zm315-1.4h-1v-1h1ZM1,101.25H0v-1H1Zm315-1.39h-1v-1h1ZM1,98.25H0v-1H1Zm315-1.4h-1v-1h1ZM1,95.25H0v-1H1Zm315-1.4h-1v-1h1ZM1,92.24H0v-1H1Zm315-1.4h-1v-1h1ZM1,89.24H0v-1H1Zm315-1.4h-1v-1h1ZM1,86.24H0v-1H1Zm315-1.4h-1v-1h1ZM1,83.23H0v-1H1Zm315-1.39h-1v-1h1ZM0,80.23H0a6.24,6.24,0,0,1,.1-1.06l1,.19a4.81,4.81,0,0,0-.1.84ZM314.83,79a4,4,0,0,0-.33-.83l.89-.46a5.09,5.09,0,0,1,.4,1Zm-313-1.3L1,77.12a6.24,6.24,0,0,1,.7-.84l.7.71a5.09,5.09,0,0,0-.62.69Zm311.6-.93a4.58,4.58,0,0,0-.74-.5l.48-.88a5.48,5.48,0,0,1,.9.61ZM3.85,76l-.36-.92a4.43,4.43,0,0,1,1-.3l.18,1A4.73,4.73,0,0,0,3.85,76Zm307.08-.29H310v-1h1.05Zm-3,0h-1v-1h1Zm-3,0h-1v-1h1Zm-3,0h-1v-1h1Zm-3,0h-1v-1h1Zm-3,0h-1v-1h1Zm-3,0h-1v-1h1Zm-3,0h-1v-1h1Zm-3,0h-1v-1h1Zm-3,0h-1v-1h1Zm-3,0h-1v-1h1Zm-3,0h-1v-1h1Zm-3,0h-1v-1h1Zm-3,0h-1v-1h1Zm-3,0h-1v-1h1Zm-3,0h-1v-1h1Zm-3,0h-1v-1h1Zm-3,0h-1v-1h1Zm-3,0h-1v-1h1Zm-3,0h-1v-1h1Zm-3,0h-1v-1h1Zm-3,0h-1v-1h1Zm-3,0h-1v-1h1Zm-3,0h-1v-1h1Zm-3,0h-1v-1h1Zm-3,0h-1v-1h1Zm-3,0h-1v-1h1Zm-3,0h-1v-1h1Zm-3,0h-1v-1h1Zm-3,0h-1v-1h1Zm-3,0h-1v-1h1Zm-3,0h-1v-1h1Zm-3,0h-1v-1h1Zm-3,0h-1v-1h1Zm-3,0h-1v-1h1Zm-3,0h-1v-1h1Zm-3,0h-1v-1h1Zm-3,0h-1v-1h1Zm-3,0h-1v-1h1Zm-3,0h-1v-1h1Zm-3,0h-1v-1h1Zm-3,0h-1v-1h1Zm-3,0h-1v-1h1Zm-3,0h-1v-1h1Zm-3,0h-1v-1h1Zm-3,0h-1v-1h1Zm-3,0h-1v-1h1Zm-3,0h-1v-1h1Zm-3,0h-1v-1h1Zm-3,0h-1v-1h1Zm-3,0h-1v-1h1Zm-3,0h-1v-1h1Zm-3,0h-1v-1h1Zm-3,0h-1v-1h1Zm-3,0h-1v-1h1Zm-3,0h-1v-1h1Zm-3,0h-1v-1h1Zm-3,0h-1v-1h1Zm-3,0h-1v-1h1Zm-3,0h-1v-1h1Zm-3,0h-1v-1h1Zm-3,0h-1v-1h1Zm-3,0h-1v-1h1Zm-3,0h-1v-1h1Zm-3,0h-1v-1h1Zm-3,0h-1v-1h1Zm-3,0h-1v-1h1Zm-3,0h-1v-1h1Zm-3,0h-1v-1h1Zm-3,0h-1v-1h1Zm-3,0h-1v-1h1Zm-3,0h-1v-1h1Zm-3,0h-1v-1h1Zm-3,0h-1v-1h1Zm-3,0h-1v-1h1Zm-3,0h-1v-1h1Zm-3,0h-1v-1h1Zm-3,0h-1v-1h1Zm-3,0h-1v-1h1Zm-3,0h-1v-1h1Zm-3,0h-1v-1h1Zm-3,0h-1v-1h1Zm-3,0h-1v-1h1Zm-3,0h-1v-1h1Zm-3,0h-1v-1h1Zm-3,0h-1v-1h1Zm-3,0h-1v-1h1Zm-3,0h-1v-1h1Zm-3,0h-1v-1h1Zm-3,0h-1v-1h1Zm-3,0h-1v-1h1Zm-3,0h-1v-1h1Zm-3,0h-1v-1h1Zm-3,0h-1v-1h1Zm-3,0h-1v-1h1Zm-3,0h-1v-1h1Zm-3,0h-1v-1h1Zm-3,0h-1v-1h1Zm-3,0h-1v-1h1Zm-3,0h-1v-1h1Zm-3,0h-1v-1h1Zm-3,0h-1v-1h1Z"/><polygon class="cls-31" points="266.98 102.88 263.82 99.7 258 105.52 252.18 99.7 249 102.88 254.81 108.7 249 114.51 252.18 117.69 257.98 111.88 263.81 117.7 266.98 114.52 261.16 108.7 266.98 102.88"/><polygon class="cls-31" points="167.5 102.88 164.34 99.7 158.52 105.52 152.69 99.7 149.52 102.88 155.32 108.7 149.52 114.51 152.69 117.69 158.5 111.88 164.32 117.7 167.5 114.52 161.68 108.7 167.5 102.88"/><g id="ad94e297-0e86-4eaf-aac0-d146ee9aea65"><path class="cls-32" d="M54.08,82.59,49.4,77.75a2.29,2.29,0,0,1-.78.14,2.43,2.43,0,1,1,2.24-3.32h4.62v1.61H50.93a3.68,3.68,0,0,1-.26.57L55,81.22l2.34-3.57V66.47H54.19l4-4,3.94,4H59V75.2l5.93-9-6-6a1,1,0,0,0-1.41-.06l-.06.06h0L43,74.63A1,1,0,0,0,42.94,76l.06.06h0L57.44,90.59l-5.17-5.17Z"/><path class="cls-33" d="M57.34,82.8V77.63L55,81.22l1.72,1.84A1.78,1.78,0,0,1,57.34,82.8Z"/><path class="cls-33" d="M73.36,74.63l-8.47-8.47L59,75.2v7.62a2.1,2.1,0,0,1,.53.29l6.22-6.29a2.91,2.91,0,0,1-.31-.64H60.73V74.57h4.74a2.41,2.41,0,1,1,2.24,3.32,3,3,0,0,1-.67-.1l-6.62,6.66a2.18,2.18,0,0,1,.11.62,2.43,2.43,0,0,1-4.86.19,2.25,2.25,0,0,1,.14-.89l-1.73-1.72L52.24,85.4l5.17,5.17a1,1,0,0,0,1.41,0l0,0L73.33,76.1a1,1,0,0,0,0-1.41l0,0Z"/><path class="cls-34" d="M65.47,74.57H60.73v1.61H65.4a2.22,2.22,0,0,1-.12-.72A2.26,2.26,0,0,1,65.47,74.57Z"/><path class="cls-34" d="M50.93,76.18h4.55V74.57H50.86a2.26,2.26,0,0,1,.19.89A2.18,2.18,0,0,1,50.93,76.18Z"/><path class="cls-34" d="M60.42,84.45,67,77.79a2.43,2.43,0,0,1-1.33-1l-6.22,6.29A2.29,2.29,0,0,1,60.42,84.45Z"/><path class="cls-34" d="M56.77,83.06l-1.72-1.84-4.38-4.47a2.46,2.46,0,0,1-1.27,1l4.68,4.84,1.73,1.73A2.28,2.28,0,0,1,56.77,83.06Z"/><path class="cls-1" d="M62.09,66.47l-3.92-4-4,4h3.15V82.8a1.73,1.73,0,0,0-.57.26,2.34,2.34,0,0,0-1,1.31,2.41,2.41,0,0,0,4.57,1.54s0-.09,0-.14a2.38,2.38,0,0,0,.11-.7,2.66,2.66,0,0,0-1-2,2.1,2.1,0,0,0-.53-.29V66.47Zm-3.92,20a1.35,1.35,0,1,1,1.34-1.36h0a1.35,1.35,0,0,1-1.34,1.3Z"/><path class="cls-1" d="M50.67,76.75a3.68,3.68,0,0,0,.26-.57,2.18,2.18,0,0,0,.12-.72,2.26,2.26,0,0,0-.19-.89,2.41,2.41,0,1,0-2.24,3.32,2.29,2.29,0,0,0,.78-.14A2.46,2.46,0,0,0,50.67,76.75Zm-2.05,0A1.34,1.34,0,1,1,50,75.41h0a1.33,1.33,0,0,1-1.27,1.39h-.07Z"/><path class="cls-1" d="M67,77.79a3,3,0,0,0,.67.1,2.43,2.43,0,1,0-2.24-3.32,2.26,2.26,0,0,0-.19.89,2.22,2.22,0,0,0,.12.72,2.91,2.91,0,0,0,.31.64A2.45,2.45,0,0,0,67,77.79Zm.67-3.66a1.34,1.34,0,0,1,1.18,1.48h0a1.34,1.34,0,1,1-1.48-1.49Z"/><path class="cls-35" d="M58.17,83.73a1.35,1.35,0,1,0,1.34,1.36v0h0A1.34,1.34,0,0,0,58.17,83.73Z"/><circle class="cls-35" cx="48.62" cy="75.46" r="1.34"/><path class="cls-35" d="M67.71,76.81a1.35,1.35,0,1,0-1.34-1.36h0A1.36,1.36,0,0,0,67.71,76.81Z"/></g><g id="ad94e297-0e86-4eaf-aac0-d146ee9aea65-2"><path class="cls-32" d="M154.14,82.59l-4.68-4.84a2.29,2.29,0,0,1-.78.14,2.43,2.43,0,1,1,2.24-3.32h4.62v1.61H151a3.68,3.68,0,0,1-.26.57l4.33,4.47,2.34-3.57V66.47h-3.15l4-4,3.94,4H159V75.2l5.92-9-6-6a1,1,0,0,0-1.41-.06l-.06.06h0L143,74.63a1,1,0,0,0-.06,1.41l.06.06h0l14.5,14.49-5.17-5.17Z"/><path class="cls-33" d="M157.4,82.8V77.63l-2.34,3.59,1.72,1.84A1.78,1.78,0,0,1,157.4,82.8Z"/><path class="cls-33" d="M173.42,74.63l-8.48-8.47-5.92,9v7.62a2.1,2.1,0,0,1,.53.29l6.22-6.29a2.91,2.91,0,0,1-.31-.64h-4.67V74.57h4.74a2.41,2.41,0,1,1,2.24,3.32,3,3,0,0,1-.67-.1l-6.62,6.66a2.6,2.6,0,0,1,.11.62,2.43,2.43,0,0,1-4.86.16,2.53,2.53,0,0,1,.13-.86l-1.72-1.72L152.3,85.4l5.17,5.17a1,1,0,0,0,1.41,0l0,0L173.39,76.1a1,1,0,0,0,.05-1.41s0,0-.05,0Z"/><path class="cls-34" d="M165.53,74.57h-4.74v1.61h4.67a2.18,2.18,0,0,1-.12-.72A2.26,2.26,0,0,1,165.53,74.57Z"/><path class="cls-34" d="M151,76.18h4.55V74.57h-4.62a2.26,2.26,0,0,1,.19.89A2.18,2.18,0,0,1,151,76.18Z"/><path class="cls-34" d="M160.48,84.45l6.62-6.66a2.43,2.43,0,0,1-1.33-1l-6.22,6.29A2.27,2.27,0,0,1,160.48,84.45Z"/><path class="cls-34" d="M156.83,83.06l-1.72-1.84-4.38-4.47a2.46,2.46,0,0,1-1.27,1l4.68,4.84,1.72,1.73A2.38,2.38,0,0,1,156.83,83.06Z"/><path class="cls-1" d="M162.15,66.47l-3.92-4-4,4h3.15V82.8a1.73,1.73,0,0,0-.57.26,2.38,2.38,0,0,0-1,1.31,2.41,2.41,0,1,0,4.62,1.4h0a2.76,2.76,0,0,0,.11-.7,2.6,2.6,0,0,0-.11-.62,2.24,2.24,0,0,0-.93-1.34,2.1,2.1,0,0,0-.53-.29V66.47Zm-3.92,20a1.35,1.35,0,1,1,1.34-1.36h0a1.35,1.35,0,0,1-1.34,1.3Z"/><path class="cls-1" d="M150.73,76.75a3.68,3.68,0,0,0,.26-.57,2.18,2.18,0,0,0,.12-.72,2.26,2.26,0,0,0-.19-.89,2.41,2.41,0,1,0-2.24,3.32,2.29,2.29,0,0,0,.78-.14A2.46,2.46,0,0,0,150.73,76.75Zm-2,0A1.34,1.34,0,1,1,150,75.34v.07h0a1.33,1.33,0,0,1-1.27,1.39h0Z"/><path class="cls-1" d="M167.1,77.79a3,3,0,0,0,.67.1,2.43,2.43,0,1,0-2.24-3.32,2.26,2.26,0,0,0-.19.89,2.18,2.18,0,0,0,.12.72,2.91,2.91,0,0,0,.31.64A2.45,2.45,0,0,0,167.1,77.79Zm.67-3.66A1.35,1.35,0,0,1,169,75.57v.05a1.34,1.34,0,1,1-1.48-1.49Z"/><path class="cls-35" d="M158.23,83.73a1.35,1.35,0,1,0,1.34,1.36v0h0A1.34,1.34,0,0,0,158.23,83.73Z"/><circle class="cls-35" cx="148.68" cy="75.46" r="1.34"/><path class="cls-35" d="M167.77,76.81a1.35,1.35,0,1,0-1.34-1.36h0A1.36,1.36,0,0,0,167.77,76.81Z"/></g><g id="ad94e297-0e86-4eaf-aac0-d146ee9aea65-3"><path class="cls-32" d="M254.18,82.59l-4.69-4.84a2.28,2.28,0,0,1-.77.14A2.43,2.43,0,1,1,251,74.57h4.61v1.61H251a3.68,3.68,0,0,1-.26.57l4.32,4.47,2.35-3.57V66.47h-3.16l4-4,3.95,4H259V75.2l5.93-9-6-6a1,1,0,0,0-1.41-.05l-.05.05h0L243.07,74.63A1,1,0,0,0,243,76l.06.06h0l14.47,14.47-5.17-5.17Z"/><path class="cls-33" d="M257.44,82.8V77.63l-2.35,3.59,1.72,1.84A1.59,1.59,0,0,1,257.44,82.8Z"/><path class="cls-33" d="M273.46,74.63,265,66.16l-5.93,9v7.62a2.16,2.16,0,0,1,.54.29l6.22-6.29a2.53,2.53,0,0,1-.31-.64h-4.67V74.57h4.74a2.41,2.41,0,1,1,2.24,3.32,3.1,3.1,0,0,1-.68-.1l-6.61,6.66a2.17,2.17,0,0,1,.1.62,2.43,2.43,0,1,1-4.84.44,2.18,2.18,0,0,1,0-.25,2.47,2.47,0,0,1,.13-.89l-1.72-1.72-1.84,2.75,5.16,5.17a1,1,0,0,0,1.41,0l0,0L273.42,76.1a1,1,0,0,0,.05-1.41l-.05,0Z"/><path class="cls-34" d="M265.57,74.57h-4.74v1.61h4.67a2.18,2.18,0,0,1-.12-.72A2.09,2.09,0,0,1,265.57,74.57Z"/><path class="cls-34" d="M251,76.18h4.54V74.57H251a2.26,2.26,0,0,1,.19.89A2.94,2.94,0,0,1,251,76.18Z"/><path class="cls-34" d="M260.52,84.45l6.61-6.66a2.44,2.44,0,0,1-1.32-1l-6.22,6.29A2.3,2.3,0,0,1,260.52,84.45Z"/><path class="cls-34" d="M256.87,83.06l-1.73-1.84-4.37-4.47a2.45,2.45,0,0,1-1.28,1l4.69,4.84,1.72,1.73A2.38,2.38,0,0,1,256.87,83.06Z"/><path class="cls-1" d="M262.19,66.47l-3.93-4-4,4h3.16V82.8a1.73,1.73,0,0,0-.57.26,2.38,2.38,0,0,0-1,1.31,2.41,2.41,0,0,0,4.62,1.4h0a2.37,2.37,0,0,0,.1-.7,2.17,2.17,0,0,0-.1-.62,2.36,2.36,0,0,0-.93-1.34,2.16,2.16,0,0,0-.54-.29V66.47Zm-3.93,20a1.35,1.35,0,1,1,1.35-1.35h0a1.35,1.35,0,0,1-1.35,1.3Z"/><path class="cls-1" d="M250.77,76.75a3.68,3.68,0,0,0,.26-.57,2.93,2.93,0,0,0,.12-.72,2.26,2.26,0,0,0-.19-.89,2.41,2.41,0,1,0-2.24,3.32,2.28,2.28,0,0,0,.77-.14A2.45,2.45,0,0,0,250.77,76.75Zm-2.05,0a1.34,1.34,0,1,1,1.34-1.34h0a1.33,1.33,0,0,1-1.27,1.39h-.07Z"/><path class="cls-1" d="M267.13,77.79a3.1,3.1,0,0,0,.68.1,2.43,2.43,0,1,0-2.24-3.32,2.09,2.09,0,0,0-.19.89,2.18,2.18,0,0,0,.12.72,2.53,2.53,0,0,0,.31.64A2.39,2.39,0,0,0,267.13,77.79Zm.68-3.66a1.34,1.34,0,1,1-.31,0Z"/><path class="cls-35" d="M258.26,83.73a1.35,1.35,0,1,0,1.35,1.35h0A1.36,1.36,0,0,0,258.26,83.73Z"/><circle class="cls-35" cx="248.72" cy="75.46" r="1.34"/><path class="cls-35" d="M267.81,76.81a1.35,1.35,0,1,0-1.35-1.35h0a1.34,1.34,0,0,0,1.35,1.35Z"/></g></g></g><g id="Text"><path class="cls-36" d="M52.14,32V35.2h-1V26.8h2.31a3,3,0,0,1,2.09.65,2.37,2.37,0,0,1,.74,1.85,2.54,2.54,0,0,1-.82,2,3.14,3.14,0,0,1-2.23.76Zm0-4.33v3.44h1a2.28,2.28,0,0,0,1.55-.46,1.65,1.65,0,0,0,.54-1.32c0-1.11-.66-1.66-2-1.66Z"/><path class="cls-36" d="M58.86,35.2h-1V26.8h1Z"/><path class="cls-36" d="M62.05,32V35.2h-1V26.8h2.31a3,3,0,0,1,2.08.65,2.34,2.34,0,0,1,.75,1.85,2.55,2.55,0,0,1-.83,2,3.13,3.13,0,0,1-2.22.76Zm0-4.33v3.44h1a2.32,2.32,0,0,0,1.56-.46,1.64,1.64,0,0,0,.53-1.32c0-1.11-.65-1.66-2-1.66Z"/><path class="cls-36" d="M55.1,48.35H54L53.12,46H49.56l-.84,2.35h-1.1L50.84,40h1Zm-2.3-3.24-1.32-3.58a2.59,2.59,0,0,1-.13-.56h0a2.59,2.59,0,0,1-.13.56l-1.31,3.58Z"/><path class="cls-36" d="M62.17,40.18l-4.92,7.28h4.8v.89H55.78v-.27l4.88-7.24H56.17V40h6Z"/><path class="cls-36" d="M66.67,48.35h-1V41.09a1.72,1.72,0,0,1-.33.26,5.1,5.1,0,0,1-.48.28,5.85,5.85,0,0,1-.56.26,3.63,3.63,0,0,1-.58.2v-1a4.2,4.2,0,0,0,.68-.23,7.33,7.33,0,0,0,.69-.34c.23-.12.45-.25.65-.38a6.62,6.62,0,0,0,.53-.4h.36Z"/><path class="cls-36" d="M152.05,32V35.2h-1V26.8h2.31a3,3,0,0,1,2.09.65,2.37,2.37,0,0,1,.74,1.85,2.55,2.55,0,0,1-.83,2,3.13,3.13,0,0,1-2.22.76Zm0-4.33v3.44h1a2.32,2.32,0,0,0,1.56-.46,1.65,1.65,0,0,0,.54-1.32c0-1.11-.66-1.66-2-1.66Z"/><path class="cls-36" d="M158.77,35.2h-1V26.8h1Z"/><path class="cls-36" d="M162,32V35.2h-1V26.8h2.31a3,3,0,0,1,2.09.65,2.37,2.37,0,0,1,.74,1.85,2.54,2.54,0,0,1-.82,2,3.14,3.14,0,0,1-2.23.76Zm0-4.33v3.44h1a2.28,2.28,0,0,0,1.55-.46,1.65,1.65,0,0,0,.54-1.32c0-1.11-.66-1.66-2-1.66Z"/><path class="cls-36" d="M155,48.35h-1.09L153,46h-3.56l-.84,2.35h-1.09l3.22-8.4h1Zm-2.3-3.24-1.32-3.58a4.87,4.87,0,0,1-.13-.56h0a3.36,3.36,0,0,1-.13.56l-1.31,3.58Z"/><path class="cls-36" d="M162.09,40.18l-4.93,7.28H162v.89h-6.28v-.27l4.88-7.24h-4.48V40h6Z"/><path class="cls-36" d="M166.87,42.15a1.71,1.71,0,0,0-.12-.67,1.37,1.37,0,0,0-.33-.48,1.26,1.26,0,0,0-.49-.28,1.74,1.74,0,0,0-.61-.1,2,2,0,0,0-.55.08,2.57,2.57,0,0,0-.52.21,3.84,3.84,0,0,0-.5.32,4.37,4.37,0,0,0-.44.42v-1a2.58,2.58,0,0,1,.91-.6,3.14,3.14,0,0,1,1.22-.21,2.91,2.91,0,0,1,.95.15,2.09,2.09,0,0,1,.76.43,2,2,0,0,1,.51.71,2.47,2.47,0,0,1,.19,1,3.16,3.16,0,0,1-.12.9,2.6,2.6,0,0,1-.34.76,3.73,3.73,0,0,1-.59.69,8.71,8.71,0,0,1-.82.67c-.4.28-.72.52-1,.72a4.3,4.3,0,0,0-.61.56,1.59,1.59,0,0,0-.31.52,1.57,1.57,0,0,0-.1.6h4.19v.86H163v-.42a3.35,3.35,0,0,1,.12-.94,2.38,2.38,0,0,1,.39-.78,4,4,0,0,1,.7-.74c.29-.25.65-.53,1.07-.83A6.87,6.87,0,0,0,166,44a3.23,3.23,0,0,0,.49-.6,1.93,1.93,0,0,0,.27-.61A2.69,2.69,0,0,0,166.87,42.15Z"/><path class="cls-36" d="M18.05,10.27H17l-.89-2.36H12.51l-.84,2.36H10.58L13.8,1.86h1ZM15.75,7,14.43,3.45a5.16,5.16,0,0,1-.13-.57h0a2.62,2.62,0,0,1-.14.57L12.84,7Z"/><path class="cls-36" d="M25.13,2.1,20.2,9.38H25v.89H18.73V10l4.88-7.23H19.13v-.9h6Z"/><path class="cls-36" d="M29.63,10.27h-1V3a2,2,0,0,1-.32.25,5.06,5.06,0,0,1-.48.29l-.56.26a3.56,3.56,0,0,1-.58.19V3a6.12,6.12,0,0,0,.67-.24c.24-.1.47-.21.7-.33a5.73,5.73,0,0,0,.64-.39,4.05,4.05,0,0,0,.53-.39h.37Z"/><path class="cls-36" d="M118.09,10.27H117l-.89-2.36h-3.56l-.84,2.36h-1.09l3.22-8.41h1ZM115.79,7l-1.32-3.58a5.16,5.16,0,0,1-.13-.57h0a3.51,3.51,0,0,1-.13.57L112.88,7Z"/><path class="cls-36" d="M125.17,2.1l-4.92,7.28h4.8v.89h-6.28V10l4.89-7.23h-4.49v-.9h6Z"/><path class="cls-36" d="M130,4.07a1.79,1.79,0,0,0-.12-.68,1.25,1.25,0,0,0-.33-.47,1.28,1.28,0,0,0-.49-.29,2,2,0,0,0-.61-.09,2,2,0,0,0-.55.07,3.38,3.38,0,0,0-.52.22,3,3,0,0,0-.5.32,4.2,4.2,0,0,0-.44.41v-1a2.88,2.88,0,0,1,.91-.6,3.14,3.14,0,0,1,1.22-.21,2.91,2.91,0,0,1,.95.15,2.25,2.25,0,0,1,.77.44,2,2,0,0,1,.5.71,2.27,2.27,0,0,1,.19,1,3.16,3.16,0,0,1-.12.9,2.73,2.73,0,0,1-.34.76,3.73,3.73,0,0,1-.59.69,8.7,8.7,0,0,1-.82.66c-.4.28-.72.52-1,.72a5,5,0,0,0-.61.56,1.7,1.7,0,0,0-.31.52,1.91,1.91,0,0,0-.09.61h4.18v.86h-5.19V9.85a3.43,3.43,0,0,1,.12-.95,2.59,2.59,0,0,1,.39-.78,4.73,4.73,0,0,1,.7-.74c.29-.24.65-.52,1.07-.83a8.24,8.24,0,0,0,.77-.62,3.23,3.23,0,0,0,.49-.6,1.93,1.93,0,0,0,.27-.61A2.69,2.69,0,0,0,130,4.07Z"/><path class="cls-36" d="M252.09,32V35.2h-1V26.8h2.31a3,3,0,0,1,2.09.65,2.37,2.37,0,0,1,.74,1.85,2.58,2.58,0,0,1-.82,2,3.14,3.14,0,0,1-2.23.76Zm0-4.33v3.44h1a2.3,2.3,0,0,0,1.55-.46,1.65,1.65,0,0,0,.54-1.32c0-1.11-.66-1.66-2-1.66Z"/><path class="cls-36" d="M258.82,35.2h-1V26.8h1Z"/><path class="cls-36" d="M262,32V35.2h-1V26.8h2.31a3,3,0,0,1,2.09.65,2.33,2.33,0,0,1,.74,1.85,2.54,2.54,0,0,1-.82,2,3.13,3.13,0,0,1-2.22.76Zm0-4.33v3.44h1a2.32,2.32,0,0,0,1.56-.46,1.67,1.67,0,0,0,.53-1.32c0-1.11-.65-1.66-2-1.66Z"/><path class="cls-36" d="M255.06,48.35H254L253.08,46h-3.57l-.84,2.35h-1.09L250.8,40h1Zm-2.31-3.24-1.32-3.58a3.61,3.61,0,0,1-.12-.56h0a3.36,3.36,0,0,1-.13.56l-1.31,3.58Z"/><path class="cls-36" d="M262.13,40.18l-4.92,7.28H262v.89h-6.27v-.27l4.88-7.24h-4.49V40h6Z"/><path class="cls-36" d="M268,46a2.51,2.51,0,0,1-.21,1,2.36,2.36,0,0,1-.61.79,3,3,0,0,1-.93.52,3.87,3.87,0,0,1-1.2.18,3.44,3.44,0,0,1-1.91-.46V47a3.07,3.07,0,0,0,1.94.67,2.86,2.86,0,0,0,.8-.11,2,2,0,0,0,.61-.33,1.39,1.39,0,0,0,.39-.51,1.6,1.6,0,0,0,.14-.67c0-1.1-.79-1.65-2.35-1.65h-.7V43.6h.67c1.38,0,2.07-.52,2.07-1.55s-.53-1.43-1.58-1.43a2.68,2.68,0,0,0-1.67.6v-.93a3.64,3.64,0,0,1,1.91-.48,3.11,3.11,0,0,1,1,.14,2.4,2.4,0,0,1,.74.41,1.87,1.87,0,0,1,.47.64,1.92,1.92,0,0,1,.17.81A2,2,0,0,1,266,43.94v0a2.56,2.56,0,0,1,.79.21A1.9,1.9,0,0,1,268,46Z"/><path class="cls-36" d="M83.19,90.37H82.1L81.21,88H77.64l-.83,2.36h-1.1L78.93,82h1Zm-2.31-3.24-1.31-3.58a2.71,2.71,0,0,1-.13-.57h0a2.7,2.7,0,0,1-.13.57L78,87.13Z"/><path class="cls-36" d="M90.26,82.2l-4.92,7.28h4.8v.89H83.87v-.28l4.88-7.23H84.26V82h6Z"/><path class="cls-36" d="M94.76,90.37h-1V83.11a2.14,2.14,0,0,1-.33.25,5.06,5.06,0,0,1-.48.29,5.85,5.85,0,0,1-.56.26,3.56,3.56,0,0,1-.58.19v-1a5.46,5.46,0,0,0,.67-.24c.24-.1.47-.21.7-.33a5.88,5.88,0,0,0,.65-.39,4.87,4.87,0,0,0,.53-.39h.36Z"/><path class="cls-36" d="M36.51,203.39H35.42L34.53,201H31l-.84,2.36H29l3.22-8.4h1Zm-2.3-3.24-1.32-3.58a5.45,5.45,0,0,1-.13-.56h0a3.62,3.62,0,0,1-.13.56l-1.31,3.58Z"/><path class="cls-36" d="M43.59,195.22l-4.93,7.28h4.81v.89H37.19v-.28l4.88-7.23H37.59V195h6Z"/><path class="cls-36" d="M48.09,203.39h-1v-7.26a2.79,2.79,0,0,1-.33.25,5.06,5.06,0,0,1-.48.29l-.56.26a3.56,3.56,0,0,1-.58.19v-1a6.12,6.12,0,0,0,.67-.24c.24-.1.47-.21.7-.33a7,7,0,0,0,.65-.39,4.69,4.69,0,0,0,.52-.39h.37Z"/><path class="cls-36" d="M183.1,90.37H182L181.12,88h-3.56l-.84,2.36h-1.09L178.85,82h1Zm-2.3-3.24-1.32-3.58a5.16,5.16,0,0,1-.13-.57h0a3.51,3.51,0,0,1-.13.57l-1.31,3.58Z"/><path class="cls-36" d="M190.18,82.2l-4.93,7.28h4.81v.89h-6.28v-.28l4.88-7.23h-4.48V82h6Z"/><path class="cls-36" d="M195,84.17a1.79,1.79,0,0,0-.12-.68,1.25,1.25,0,0,0-.33-.47,1.28,1.28,0,0,0-.49-.29,2,2,0,0,0-.61-.09,2,2,0,0,0-.55.07,3.49,3.49,0,0,0-.53.22,3.46,3.46,0,0,0-.93.73v-1a2.88,2.88,0,0,1,.91-.6,3.14,3.14,0,0,1,1.22-.21,2.91,2.91,0,0,1,.95.15,2.11,2.11,0,0,1,.76.44,1.93,1.93,0,0,1,.51.71,2.43,2.43,0,0,1,.19,1,3.16,3.16,0,0,1-.12.9,2.73,2.73,0,0,1-.34.76,3.73,3.73,0,0,1-.59.69,8.7,8.7,0,0,1-.82.66c-.4.28-.72.52-1,.72a4.34,4.34,0,0,0-.61.56,1.63,1.63,0,0,0-.31.53,1.57,1.57,0,0,0-.1.6h4.19v.86h-5.19V90a3.43,3.43,0,0,1,.12-1,2.59,2.59,0,0,1,.39-.78,4.73,4.73,0,0,1,.7-.74c.29-.24.65-.52,1.07-.83a8.24,8.24,0,0,0,.77-.62,3.23,3.23,0,0,0,.49-.6,1.93,1.93,0,0,0,.27-.61A2.69,2.69,0,0,0,195,84.17Z"/><path class="cls-36" d="M283.15,90.37h-1.09L281.17,88H277.6l-.84,2.36h-1.09L278.89,82h1Zm-2.31-3.24-1.32-3.58a3.81,3.81,0,0,1-.12-.57h0a3.51,3.51,0,0,1-.13.57l-1.31,3.58Z"/><path class="cls-36" d="M290.22,82.2l-4.92,7.28h4.8v.89h-6.27v-.28l4.88-7.23h-4.49V82h6Z"/><path class="cls-36" d="M296.06,88a2.46,2.46,0,0,1-.21,1,2.4,2.4,0,0,1-.61.8,2.79,2.79,0,0,1-.93.51,3.87,3.87,0,0,1-1.2.18,3.53,3.53,0,0,1-1.91-.45V89a3.06,3.06,0,0,0,1.94.66,2.54,2.54,0,0,0,.8-.11,1.64,1.64,0,0,0,.6-.32,1.42,1.42,0,0,0,.4-.51,1.6,1.6,0,0,0,.14-.67c0-1.1-.79-1.65-2.35-1.65H292v-.81h.67c1.38,0,2.07-.52,2.07-1.55s-.53-1.43-1.58-1.43a2.68,2.68,0,0,0-1.67.6V82.3a3.64,3.64,0,0,1,1.91-.48,2.83,2.83,0,0,1,.95.15,2.21,2.21,0,0,1,.74.41,1.93,1.93,0,0,1,.47.63,2,2,0,0,1,.16.82A2,2,0,0,1,294.08,86v0a2.87,2.87,0,0,1,.79.21,2.31,2.31,0,0,1,.63.42,2,2,0,0,1,.41.61A1.92,1.92,0,0,1,296.06,88Z"/><path class="cls-36" d="M218.14,10.27h-1.09l-.89-2.36h-3.57l-.83,2.36h-1.1l3.22-8.41h1ZM215.83,7l-1.31-3.58a2.71,2.71,0,0,1-.13-.57h0a3.51,3.51,0,0,1-.13.57L212.92,7Z"/><path class="cls-36" d="M225.21,2.1l-4.92,7.28h4.8v.89h-6.27V10l4.88-7.23h-4.49v-.9h6Z"/><path class="cls-36" d="M231.05,7.89a2.46,2.46,0,0,1-.21,1,2.4,2.4,0,0,1-.61.8,2.79,2.79,0,0,1-.93.51,3.78,3.78,0,0,1-1.2.18,3.53,3.53,0,0,1-1.91-.45v-1a3.06,3.06,0,0,0,1.94.66,2.5,2.5,0,0,0,.8-.11,1.78,1.78,0,0,0,.61-.32,1.39,1.39,0,0,0,.39-.51,1.6,1.6,0,0,0,.14-.67c0-1.1-.78-1.65-2.35-1.65H227V5.51h.66c1.38,0,2.07-.51,2.07-1.54s-.53-1.43-1.58-1.43a2.7,2.7,0,0,0-1.67.6V2.2a3.64,3.64,0,0,1,1.91-.48,2.93,2.93,0,0,1,1,.15,2.26,2.26,0,0,1,.73.41,1.93,1.93,0,0,1,.47.63,2,2,0,0,1,.17.82,2.06,2.06,0,0,1-1.68,2.13v0a2.78,2.78,0,0,1,.79.21,2.31,2.31,0,0,1,.63.42,2,2,0,0,1,.41.61A1.92,1.92,0,0,1,231.05,7.89Z"/><path class="cls-36" d="M128.45,134.85v-1.2a2.18,2.18,0,0,0,.49.32,4,4,0,0,0,.6.25,4.61,4.61,0,0,0,.64.16,4.13,4.13,0,0,0,.58.05,2.29,2.29,0,0,0,1.39-.35,1.17,1.17,0,0,0,.46-1,1.24,1.24,0,0,0-.15-.62A1.68,1.68,0,0,0,132,132a4.43,4.43,0,0,0-.64-.42l-.8-.41c-.3-.16-.58-.31-.84-.47a4.06,4.06,0,0,1-.68-.52,2.23,2.23,0,0,1-.45-.65,2.29,2.29,0,0,1,.09-1.88,2.27,2.27,0,0,1,.68-.73,3,3,0,0,1,1-.42,4,4,0,0,1,1.09-.14,4.13,4.13,0,0,1,1.86.31v1.14a3.38,3.38,0,0,0-2-.53,3,3,0,0,0-.66.07,1.91,1.91,0,0,0-.59.23,1.34,1.34,0,0,0-.42.4,1.18,1.18,0,0,0-.16.61,1.31,1.31,0,0,0,.12.58,1.52,1.52,0,0,0,.37.44,2.93,2.93,0,0,0,.58.39c.23.13.5.26.8.41s.6.32.87.49a4.26,4.26,0,0,1,.73.56,2.49,2.49,0,0,1,.49.69,1.84,1.84,0,0,1,.19.86,2.25,2.25,0,0,1-.25,1.09,2.13,2.13,0,0,1-.67.73,3.06,3.06,0,0,1-1,.4,5.42,5.42,0,0,1-1.16.13,3.44,3.44,0,0,1-.51,0l-.61-.09-.59-.16A1.72,1.72,0,0,1,128.45,134.85Z"/><path class="cls-36" d="M140.18,135.2h-1v-1h0a2,2,0,0,1-1.89,1.13c-1.47,0-2.2-.89-2.2-2.65V129h1v3.56c0,1.31.5,2,1.49,2a1.48,1.48,0,0,0,1.18-.54,2.08,2.08,0,0,0,.47-1.4V129h1Z"/><path class="cls-36" d="M143.14,134.3h0v.9h-1V126h1v4.09h0a2.31,2.31,0,0,1,2.12-1.24,2.24,2.24,0,0,1,1.85.83,3.46,3.46,0,0,1,.67,2.24,3.9,3.9,0,0,1-.75,2.5,2.5,2.5,0,0,1-2.05.94A2,2,0,0,1,143.14,134.3Zm0-2.51v.87a1.86,1.86,0,0,0,.5,1.31,1.63,1.63,0,0,0,1.25.54,1.66,1.66,0,0,0,1.41-.69,3.3,3.3,0,0,0,.5-1.93,2.59,2.59,0,0,0-.47-1.63,1.59,1.59,0,0,0-1.29-.59,1.75,1.75,0,0,0-1.38.61A2.27,2.27,0,0,0,143.11,131.79Z"/><path class="cls-36" d="M152.46,132.13h-3.28v-.79h3.28Z"/><path class="cls-36" d="M157.39,130a1.21,1.21,0,0,0-.74-.2,1.25,1.25,0,0,0-1.05.6,2.82,2.82,0,0,0-.43,1.64v3.17h-1V129h1v1.28h0a2.21,2.21,0,0,1,.64-1,1.49,1.49,0,0,1,1-.37,1.46,1.46,0,0,1,.58.09Z"/><path class="cls-36" d="M163.36,132.34H159a2.31,2.31,0,0,0,.55,1.6,1.87,1.87,0,0,0,1.45.57,3,3,0,0,0,1.91-.69v.93a3.54,3.54,0,0,1-2.15.6,2.6,2.6,0,0,1-2-.85,3.48,3.48,0,0,1-.74-2.38,3.44,3.44,0,0,1,.81-2.37,2.58,2.58,0,0,1,2-.91,2.28,2.28,0,0,1,1.86.79,3.29,3.29,0,0,1,.66,2.19Zm-1-.84a2,2,0,0,0-.41-1.35,1.38,1.38,0,0,0-1.12-.48,1.57,1.57,0,0,0-1.18.51,2.2,2.2,0,0,0-.6,1.32Z"/><path class="cls-36" d="M170.06,135.2h-1v-1.06h0a2.45,2.45,0,0,1-4,.37,3.41,3.41,0,0,1-.7-2.27,3.76,3.76,0,0,1,.77-2.47,2.53,2.53,0,0,1,2.05-.93,2,2,0,0,1,1.84,1h0V126h1Zm-1-2.81v-.92a1.77,1.77,0,0,0-.49-1.27,1.64,1.64,0,0,0-1.25-.53,1.69,1.69,0,0,0-1.41.67,2.93,2.93,0,0,0-.52,1.85,2.67,2.67,0,0,0,.5,1.7,1.61,1.61,0,0,0,1.32.62,1.68,1.68,0,0,0,1.34-.6A2.27,2.27,0,0,0,169.07,132.39Z"/><path class="cls-36" d="M177,132.34h-4.34a2.36,2.36,0,0,0,.55,1.6,1.88,1.88,0,0,0,1.45.57,3,3,0,0,0,1.91-.69v.93a3.5,3.5,0,0,1-2.14.6,2.61,2.61,0,0,1-2-.85,3.53,3.53,0,0,1-.74-2.38,3.44,3.44,0,0,1,.81-2.37,2.61,2.61,0,0,1,2-.91,2.29,2.29,0,0,1,1.87.79,3.29,3.29,0,0,1,.66,2.19Zm-1-.84a2,2,0,0,0-.41-1.35,1.4,1.4,0,0,0-1.13-.48,1.58,1.58,0,0,0-1.18.51,2.32,2.32,0,0,0-.6,1.32Z"/><path class="cls-36" d="M188.52,135.2H187.4l-.91-2.44h-3.65L182,135.2h-1.13l3.3-8.71h1.05Zm-2.36-3.36-1.35-3.71a3.47,3.47,0,0,1-.13-.58h0a3.29,3.29,0,0,1-.14.58l-1.34,3.71Z"/><path class="cls-36" d="M37.79,181.71l-3.12,8.54H33.58l-3.06-8.54h1.1L34,188.48a4.63,4.63,0,0,1,.17.75h0a3.58,3.58,0,0,1,.2-.76l2.38-6.76Z"/><path class="cls-36" d="M47.57,190.25h-1v-5.73c0-.45,0-1,.08-1.66h0a5.6,5.6,0,0,1-.26.83l-2.88,6.56H43l-2.88-6.52a4.83,4.83,0,0,1-.25-.87h0c0,.34,0,.9,0,1.67v5.72H39v-8.54h1.31l2.58,5.95a7.92,7.92,0,0,1,.39,1h0c.17-.47.3-.82.4-1.05l2.64-5.93h1.24Z"/><path class="cls-36" d="M73.18,203.39H72.09L71.2,201H67.63l-.83,2.36H65.7l3.22-8.4h1Zm-2.31-3.24-1.31-3.58a2.75,2.75,0,0,1-.13-.56h0a3.62,3.62,0,0,1-.13.56L68,200.15Z"/><path class="cls-36" d="M80.25,195.22l-4.92,7.28h4.8v.89H73.86v-.28l4.88-7.23H74.25V195h6Z"/><path class="cls-36" d="M84.75,203.39h-1v-7.26a2.14,2.14,0,0,1-.33.25,5.06,5.06,0,0,1-.48.29c-.18.09-.36.18-.56.26a3.56,3.56,0,0,1-.58.19v-1a5.46,5.46,0,0,0,.67-.24c.24-.1.47-.21.7-.33a5.88,5.88,0,0,0,.65-.39,4.87,4.87,0,0,0,.53-.39h.36Z"/><path class="cls-36" d="M74.46,181.71l-3.13,8.54H70.25l-3.06-8.54h1.1l2.33,6.77a3.77,3.77,0,0,1,.17.75h0a3.52,3.52,0,0,1,.19-.76l2.38-6.76Z"/><path class="cls-36" d="M84.23,190.25h-1v-5.73c0-.45,0-1,.08-1.66h0a7.61,7.61,0,0,1-.25.83l-2.89,6.56h-.48l-2.88-6.52a5.84,5.84,0,0,1-.25-.87h0c0,.34,0,.9,0,1.67v5.72h-1v-8.54h1.31l2.59,5.95a6.37,6.37,0,0,1,.38,1h0c.17-.47.3-.82.41-1.05L83,181.71h1.23Z"/><path class="cls-36" d="M136.46,203.39h-1.09l-.89-2.36h-3.56l-.84,2.36H129l3.23-8.4h1Zm-2.3-3.24-1.32-3.58a3.65,3.65,0,0,1-.13-.56h0a3.49,3.49,0,0,1-.14.56l-1.3,3.58Z"/><path class="cls-36" d="M143.53,195.22l-4.92,7.28h4.81v.89h-6.28v-.28l4.88-7.23h-4.49V195h6Z"/><path class="cls-36" d="M148.31,197.19a1.79,1.79,0,0,0-.12-.68,1.23,1.23,0,0,0-.32-.47,1.51,1.51,0,0,0-.49-.29,2,2,0,0,0-.61-.09,1.7,1.7,0,0,0-.55.08,2.66,2.66,0,0,0-.53.21,2.94,2.94,0,0,0-.49.32,3.39,3.39,0,0,0-.44.41v-1a3,3,0,0,1,.9-.6,3.2,3.2,0,0,1,1.23-.2,2.91,2.91,0,0,1,1,.14,2.2,2.2,0,0,1,.76.44,1.93,1.93,0,0,1,.51.71,2.43,2.43,0,0,1,.18,1,3.17,3.17,0,0,1-.11.9,2.75,2.75,0,0,1-.35.76,3.67,3.67,0,0,1-.58.69,6.69,6.69,0,0,1-.83.66c-.39.29-.72.53-1,.73a3.81,3.81,0,0,0-.61.55,1.67,1.67,0,0,0-.32.53,1.8,1.8,0,0,0-.09.6h4.19v.86h-5.19V203a3.43,3.43,0,0,1,.12-.95,2.56,2.56,0,0,1,.38-.78,4.38,4.38,0,0,1,.71-.73c.29-.25.65-.53,1.07-.84a6.7,6.7,0,0,0,.76-.62,3.31,3.31,0,0,0,.5-.6,2.53,2.53,0,0,0,.27-.61A2.7,2.7,0,0,0,148.31,197.19Z"/><path class="cls-36" d="M137.74,181.71l-3.12,8.54h-1.09l-3.06-8.54h1.1l2.34,6.77a4.63,4.63,0,0,1,.17.75h0a4.22,4.22,0,0,1,.19-.76l2.39-6.76Z"/><path class="cls-36" d="M147.52,190.25h-1v-5.73c0-.45,0-1,.09-1.66h0a5.86,5.86,0,0,1-.25.83l-2.88,6.56H143l-2.88-6.52a4.83,4.83,0,0,1-.25-.87h0c0,.34.05.9.05,1.67v5.72h-1v-8.54h1.3l2.59,5.95a7.92,7.92,0,0,1,.39,1h0c.17-.47.31-.82.41-1.05l2.64-5.93h1.24Z"/><path class="cls-36" d="M173.31,203.39h-1.09l-.89-2.36h-3.56l-.84,2.36h-1.09l3.22-8.4h1Zm-2.3-3.24-1.32-3.58a5.45,5.45,0,0,1-.13-.56h0a3.62,3.62,0,0,1-.13.56l-1.31,3.58Z"/><path class="cls-36" d="M180.39,195.22l-4.93,7.28h4.81v.89H174v-.28l4.88-7.23h-4.48V195h6Z"/><path class="cls-36" d="M185.17,197.19a1.79,1.79,0,0,0-.12-.68,1.25,1.25,0,0,0-.33-.47,1.42,1.42,0,0,0-.49-.29,2,2,0,0,0-.61-.09,1.7,1.7,0,0,0-.55.08,2.66,2.66,0,0,0-.53.21,3.46,3.46,0,0,0-.93.73v-1a2.88,2.88,0,0,1,.91-.6,3.15,3.15,0,0,1,1.22-.2,2.91,2.91,0,0,1,.95.14,2.11,2.11,0,0,1,.76.44,1.93,1.93,0,0,1,.51.71,2.43,2.43,0,0,1,.19,1,3.16,3.16,0,0,1-.12.9,2.73,2.73,0,0,1-.34.76,3.73,3.73,0,0,1-.59.69,7.36,7.36,0,0,1-.82.66l-1,.73a3.81,3.81,0,0,0-.61.55,1.63,1.63,0,0,0-.31.53,1.57,1.57,0,0,0-.1.6h4.19v.86h-5.19V203a3.43,3.43,0,0,1,.12-.95,2.59,2.59,0,0,1,.39-.78,4.3,4.3,0,0,1,.7-.73c.29-.25.65-.53,1.07-.84a6.89,6.89,0,0,0,.77-.62,3.23,3.23,0,0,0,.49-.6,1.93,1.93,0,0,0,.27-.61A2.69,2.69,0,0,0,185.17,197.19Z"/><path class="cls-36" d="M174.59,181.71l-3.12,8.54h-1.09l-3.06-8.54h1.1l2.34,6.77a4.63,4.63,0,0,1,.17.75h0a3.58,3.58,0,0,1,.2-.76l2.38-6.76Z"/><path class="cls-36" d="M184.37,190.25h-1v-5.73c0-.45,0-1,.08-1.66h0a5.6,5.6,0,0,1-.26.83l-2.88,6.56h-.48L177,183.73a5.84,5.84,0,0,1-.25-.87h0c0,.34,0,.9,0,1.67v5.72h-.95v-8.54h1.31l2.58,5.95a7.92,7.92,0,0,1,.39,1h0c.16-.47.3-.82.4-1.05l2.64-5.93h1.24Z"/><path class="cls-36" d="M236.6,203.39h-1.09l-.89-2.36h-3.57l-.83,2.36h-1.1l3.22-8.4h1Zm-2.31-3.24L233,196.57a2.75,2.75,0,0,1-.13-.56h0a2.74,2.74,0,0,1-.13.56l-1.31,3.58Z"/><path class="cls-36" d="M243.67,195.22l-4.92,7.28h4.8v.89h-6.27v-.28l4.88-7.23h-4.49V195h6Z"/><path class="cls-36" d="M249.51,201a2.46,2.46,0,0,1-.21,1,2.28,2.28,0,0,1-.61.8,2.79,2.79,0,0,1-.93.51,3.78,3.78,0,0,1-1.2.18,3.53,3.53,0,0,1-1.91-.45v-1a3.06,3.06,0,0,0,1.94.66,2.5,2.5,0,0,0,.8-.11,1.78,1.78,0,0,0,.61-.32,1.39,1.39,0,0,0,.39-.51,1.6,1.6,0,0,0,.14-.67c0-1.1-.78-1.65-2.35-1.65h-.69v-.81h.66c1.38,0,2.07-.52,2.07-1.55s-.52-1.43-1.58-1.43a2.7,2.7,0,0,0-1.67.6v-.93a3.66,3.66,0,0,1,1.91-.48,2.93,2.93,0,0,1,1,.14,2.35,2.35,0,0,1,.73.41,1.93,1.93,0,0,1,.47.63,2,2,0,0,1,.17.82,2,2,0,0,1-1.68,2.13v0a2.78,2.78,0,0,1,.79.2,2.31,2.31,0,0,1,.63.42,1.82,1.82,0,0,1,.41.61A1.92,1.92,0,0,1,249.51,201Z"/><path class="cls-36" d="M237.88,181.71l-3.13,8.54h-1.08l-3.06-8.54h1.1l2.33,6.77a3.77,3.77,0,0,1,.17.75h0a3.52,3.52,0,0,1,.19-.76l2.38-6.76Z"/><path class="cls-36" d="M247.65,190.25h-1v-5.73c0-.45,0-1,.08-1.66h0a7.61,7.61,0,0,1-.25.83l-2.89,6.56h-.48l-2.87-6.52a4.69,4.69,0,0,1-.26-.87h0c0,.34,0,.9,0,1.67v5.72h-1v-8.54h1.31l2.59,5.95a7.92,7.92,0,0,1,.39,1h0c.17-.47.3-.82.41-1.05l2.64-5.93h1.23Z"/><path class="cls-36" d="M273.36,203.39h-1.09l-.89-2.36h-3.57l-.84,2.36h-1.09l3.22-8.4h1Zm-2.31-3.24-1.32-3.58a3.91,3.91,0,0,1-.12-.56h0a3.62,3.62,0,0,1-.13.56l-1.31,3.58Z"/><path class="cls-36" d="M280.43,195.22l-4.92,7.28h4.8v.89H274v-.28l4.88-7.23h-4.49V195h6Z"/><path class="cls-36" d="M286.27,201a2.46,2.46,0,0,1-.21,1,2.4,2.4,0,0,1-.61.8,2.79,2.79,0,0,1-.93.51,3.87,3.87,0,0,1-1.2.18,3.53,3.53,0,0,1-1.91-.45v-1a3.06,3.06,0,0,0,1.94.66,2.54,2.54,0,0,0,.8-.11,1.73,1.73,0,0,0,.6-.32,1.42,1.42,0,0,0,.4-.51,1.6,1.6,0,0,0,.14-.67c0-1.1-.79-1.65-2.35-1.65h-.7v-.81h.67c1.38,0,2.07-.52,2.07-1.55s-.53-1.43-1.58-1.43a2.68,2.68,0,0,0-1.67.6v-.93a3.64,3.64,0,0,1,1.91-.48,2.83,2.83,0,0,1,.95.14,2.4,2.4,0,0,1,.74.41,1.93,1.93,0,0,1,.47.63,2,2,0,0,1,.16.82,2,2,0,0,1-1.67,2.13v0a2.86,2.86,0,0,1,.79.2,2.31,2.31,0,0,1,.63.42,2,2,0,0,1,.41.61A1.92,1.92,0,0,1,286.27,201Z"/><path class="cls-36" d="M274.64,181.71l-3.13,8.54h-1.09l-3.05-8.54h1.1l2.33,6.77a3.77,3.77,0,0,1,.17.75h0a3.52,3.52,0,0,1,.19-.76l2.38-6.76Z"/><path class="cls-36" d="M284.41,190.25h-1v-5.73c0-.45,0-1,.08-1.66h0a5.6,5.6,0,0,1-.26.83l-2.88,6.56h-.48L277,183.73a5.84,5.84,0,0,1-.25-.87h0c0,.34,0,.9,0,1.67v5.72h-.95v-8.54h1.31l2.59,5.95a7.52,7.52,0,0,1,.38,1h0c.17-.47.3-.82.4-1.05l2.64-5.93h1.24Z"/><path class="cls-36" d="M17,241.26l-3.13,8.54H12.76l-3-8.54h1.1L13.14,248a3.72,3.72,0,0,1,.17.76h0a4.18,4.18,0,0,1,.2-.77l2.38-6.76Z"/><path class="cls-36" d="M18.55,242.15a.6.6,0,0,1-.44-.18.65.65,0,0,1,0-.9.58.58,0,0,1,.44-.19A.64.64,0,0,1,19,242,.61.61,0,0,1,18.55,242.15ZM19,249.8h-1v-6.1h1Z"/><path class="cls-36" d="M24.12,244.69a1.2,1.2,0,0,0-.73-.2,1.24,1.24,0,0,0-1,.59,2.8,2.8,0,0,0-.41,1.61v3.11H21v-6.1h1V245h0a2.19,2.19,0,0,1,.63-1,1.43,1.43,0,0,1,.95-.36,1.5,1.5,0,0,1,.58.09Z"/><path class="cls-36" d="M28,249.74a1.82,1.82,0,0,1-.9.19c-1.06,0-1.59-.6-1.59-1.79v-3.61h-1v-.83h1v-1.49l1-.31v1.8H28v.83H26.44V248a1.52,1.52,0,0,0,.2.88.85.85,0,0,0,.69.26,1,1,0,0,0,.63-.21Z"/><path class="cls-36" d="M34.11,249.8h-1v-1h0a2,2,0,0,1-1.86,1.11c-1.44,0-2.15-.86-2.15-2.59V243.7h.95v3.49c0,1.29.49,1.93,1.46,1.93a1.47,1.47,0,0,0,1.16-.53,2,2,0,0,0,.46-1.38V243.7h1Z"/><path class="cls-36" d="M40.37,249.8h-1v-1h0a2,2,0,0,1-1.85,1.09,2,2,0,0,1-1.41-.48,1.68,1.68,0,0,1-.51-1.28c0-1.14.67-1.8,2-2l1.81-.26c0-1-.42-1.55-1.24-1.55a3,3,0,0,0-2,.75v-1a3.72,3.72,0,0,1,2-.57c1.41,0,2.12.76,2.12,2.27Zm-1-3.09-1.45.21a2.35,2.35,0,0,0-1,.33,1,1,0,0,0-.34.86,1,1,0,0,0,.32.73,1.25,1.25,0,0,0,.84.28,1.54,1.54,0,0,0,1.18-.51,1.84,1.84,0,0,0,.47-1.29Z"/><path class="cls-36" d="M42.68,242.15a.6.6,0,0,1-.44-.18.65.65,0,0,1,0-.9.58.58,0,0,1,.44-.19.64.64,0,0,1,.45,1.09A.61.61,0,0,1,42.68,242.15Zm.47,7.65h-1v-6.1h1Z"/><path class="cls-36" d="M44.74,249.58v-1.05a2.88,2.88,0,0,0,1.74.59c.84,0,1.27-.29,1.27-.86a.76.76,0,0,0-.11-.41,1,1,0,0,0-.3-.3,1.94,1.94,0,0,0-.43-.24l-.54-.21a6.67,6.67,0,0,1-.7-.33,2.23,2.23,0,0,1-.51-.37,1.45,1.45,0,0,1-.3-.47,1.62,1.62,0,0,1-.11-.61,1.46,1.46,0,0,1,.2-.76,1.7,1.7,0,0,1,.52-.55,2.45,2.45,0,0,1,.73-.34,3.56,3.56,0,0,1,.86-.11,3.46,3.46,0,0,1,1.4.27v1a2.72,2.72,0,0,0-1.53-.44,1.88,1.88,0,0,0-.49.06,1.06,1.06,0,0,0-.37.18.62.62,0,0,0-.24.27.68.68,0,0,0-.09.35.78.78,0,0,0,.34.68,1.68,1.68,0,0,0,.4.23l.53.22a6.17,6.17,0,0,1,.72.32,2.44,2.44,0,0,1,.54.37,1.48,1.48,0,0,1,.35.47,1.56,1.56,0,0,1,.12.64,1.51,1.51,0,0,1-.2.78,1.67,1.67,0,0,1-.53.56,2.49,2.49,0,0,1-.76.32,3.27,3.27,0,0,1-.9.11A3.41,3.41,0,0,1,44.74,249.58Z"/><path class="cls-36" d="M16.75,263H15.58l-1.42-2.4a5,5,0,0,0-.37-.56,2,2,0,0,0-.38-.39,1.25,1.25,0,0,0-.41-.22,1.83,1.83,0,0,0-.49-.06h-.82V263h-1v-8.54h2.51a3.64,3.64,0,0,1,1,.14,2.22,2.22,0,0,1,.82.43,2,2,0,0,1,.53.71,2.33,2.33,0,0,1,.2,1,2.66,2.66,0,0,1-.13.82,2.33,2.33,0,0,1-.38.67,2.17,2.17,0,0,1-.59.49,2.78,2.78,0,0,1-.77.32v0a1.55,1.55,0,0,1,.36.21,2.06,2.06,0,0,1,.3.29,2.88,2.88,0,0,1,.28.38l.31.49Zm-5.06-7.64v3.1H13a2.15,2.15,0,0,0,.68-.11,1.63,1.63,0,0,0,.54-.33,1.32,1.32,0,0,0,.36-.51,1.73,1.73,0,0,0,.13-.69,1.33,1.33,0,0,0-.44-1.07,1.83,1.83,0,0,0-1.26-.39Z"/><path class="cls-36" d="M22.27,260.19H18a2.27,2.27,0,0,0,.54,1.58,1.84,1.84,0,0,0,1.42.55,3,3,0,0,0,1.87-.68v.92a3.46,3.46,0,0,1-2.1.58,2.52,2.52,0,0,1-2-.83A3.4,3.4,0,0,1,17,260a3.37,3.37,0,0,1,.79-2.32,2.57,2.57,0,0,1,2-.89,2.26,2.26,0,0,1,1.83.77,3.27,3.27,0,0,1,.65,2.15Zm-1-.82a2,2,0,0,0-.4-1.32,1.38,1.38,0,0,0-1.1-.47,1.53,1.53,0,0,0-1.16.49,2.22,2.22,0,0,0-.59,1.3Z"/><path class="cls-36" d="M28.87,263h-1v-1h0a2.41,2.41,0,0,1-3.88.36,3.34,3.34,0,0,1-.68-2.23,3.69,3.69,0,0,1,.75-2.42,2.46,2.46,0,0,1,2-.91,1.93,1.93,0,0,1,1.81,1h0V254h1Zm-1-2.76v-.9a1.76,1.76,0,0,0-.48-1.25,1.61,1.61,0,0,0-1.22-.51,1.68,1.68,0,0,0-1.39.65,2.9,2.9,0,0,0-.51,1.82,2.62,2.62,0,0,0,.49,1.66,1.57,1.57,0,0,0,1.3.61,1.64,1.64,0,0,0,1.31-.59A2.19,2.19,0,0,0,27.9,260.24Z"/><path class="cls-36" d="M35.66,260.19H31.41a2.32,2.32,0,0,0,.54,1.58,1.85,1.85,0,0,0,1.42.55,2.93,2.93,0,0,0,1.87-.68v.92a3.46,3.46,0,0,1-2.1.58,2.54,2.54,0,0,1-2-.83,3.4,3.4,0,0,1-.73-2.34,3.32,3.32,0,0,1,.8-2.32,2.56,2.56,0,0,1,2-.89,2.26,2.26,0,0,1,1.82.77,3.21,3.21,0,0,1,.65,2.15Zm-1-.82a2,2,0,0,0-.4-1.32,1.36,1.36,0,0,0-1.1-.47,1.54,1.54,0,0,0-1.16.49,2.28,2.28,0,0,0-.59,1.3Z"/><path class="cls-36" d="M190.23,246a15.59,15.59,0,0,1,2.31-.17,4.81,4.81,0,0,1,3.41,1.05,3.88,3.88,0,0,1,1.19,3,4.5,4.5,0,0,1-1.21,3.28,5.24,5.24,0,0,1-3.73,1.21,18.14,18.14,0,0,1-2-.1Zm1.09,7.45a6.83,6.83,0,0,0,1.1.06,3.23,3.23,0,0,0,3.58-3.57c0-2-1.11-3.25-3.41-3.25a6.3,6.3,0,0,0-1.27.11Z"/><path class="cls-36" d="M199.83,246.55a.68.68,0,0,1-1.36,0,.66.66,0,0,1,.68-.69A.65.65,0,0,1,199.83,246.55Zm-1.23,7.74v-6h1.1v6Z"/><path class="cls-36" d="M201.62,250.13c0-.71,0-1.32-.05-1.88h1l0,1.18h.05a1.8,1.8,0,0,1,1.67-1.32,1,1,0,0,1,.31,0v1a2,2,0,0,0-.37,0,1.54,1.54,0,0,0-1.48,1.41,3.67,3.67,0,0,0-.05.51v3.22h-1.08Z"/><path class="cls-36" d="M206.28,251.47a1.93,1.93,0,0,0,2.07,2.1,4.07,4.07,0,0,0,1.68-.31l.18.78a4.7,4.7,0,0,1-2,.39,2.82,2.82,0,0,1-3-3.06c0-1.82,1.07-3.26,2.84-3.26a2.56,2.56,0,0,1,2.49,2.85c0,.22,0,.4,0,.51Zm3.22-.79A1.56,1.56,0,0,0,208,248.9a1.82,1.82,0,0,0-1.69,1.78Z"/><path class="cls-36" d="M216.34,254.07a3.69,3.69,0,0,1-1.59.35l-.31.5a1,1,0,0,1,.88.91c0,.75-.63,1-1.3,1a2,2,0,0,1-.88-.21l.19-.57a1.31,1.31,0,0,0,.69.17c.28,0,.53-.09.53-.39s-.38-.46-1-.53l.52-1a2.85,2.85,0,0,1-2.52-3,3.07,3.07,0,0,1,3.25-3.21,3.66,3.66,0,0,1,1.52.31l-.25.85a2.53,2.53,0,0,0-1.27-.28,2.28,2.28,0,0,0,0,4.54,3,3,0,0,0,1.35-.3Z"/><path class="cls-36" d="M221.94,252.85a7.94,7.94,0,0,0,.1,1.44h-1l-.09-.76h0a2.25,2.25,0,0,1-1.85.9,1.72,1.72,0,0,1-1.85-1.74c0-1.46,1.3-2.26,3.63-2.24v-.13a1.25,1.25,0,0,0-1.37-1.4,3.1,3.1,0,0,0-1.58.45l-.25-.72a3.73,3.73,0,0,1,2-.54c1.85,0,2.3,1.26,2.3,2.47Zm-3.72-5.64c0-.81.31-1.3.85-1.3a1.56,1.56,0,0,1,.77.27,1.15,1.15,0,0,0,.53.22c.19,0,.32-.12.34-.54h.59c0,.84-.27,1.26-.86,1.26a1.63,1.63,0,0,1-.76-.25,1.1,1.1,0,0,0-.54-.22c-.2,0-.3.21-.32.56Zm2.66,4c-1.2,0-2.56.18-2.56,1.36a1,1,0,0,0,1,1.05,1.5,1.5,0,0,0,1.46-1,1.15,1.15,0,0,0,.07-.35Z"/><path class="cls-36" d="M229.28,251.22a3,3,0,0,1-3,3.21,2.87,2.87,0,0,1-2.9-3.11,3,3,0,0,1,3-3.21A2.87,2.87,0,0,1,229.28,251.22Zm-4.8.06c0,1.33.76,2.33,1.84,2.33s1.83-1,1.83-2.35c0-1-.51-2.33-1.81-2.33S224.48,250.13,224.48,251.28Z"/><path class="cls-36" d="M238.71,245.42v7.31c0,.54,0,1.15,0,1.56h-1l-.05-1h0a2.23,2.23,0,0,1-2.06,1.19c-1.46,0-2.59-1.24-2.59-3.07,0-2,1.24-3.25,2.71-3.25a2,2,0,0,1,1.83.92h0v-3.61Zm-1.1,5.29a1.75,1.75,0,0,0-.05-.46A1.62,1.62,0,0,0,236,249c-1.14,0-1.81,1-1.81,2.34s.59,2.23,1.78,2.23a1.64,1.64,0,0,0,1.61-1.31,1.78,1.78,0,0,0,.05-.47Z"/><path class="cls-36" d="M246.1,251.22a3,3,0,0,1-3,3.21,2.87,2.87,0,0,1-2.9-3.11,3,3,0,0,1,3-3.21A2.86,2.86,0,0,1,246.1,251.22Zm-4.8.06c0,1.33.76,2.33,1.84,2.33s1.84-1,1.84-2.35c0-1-.52-2.33-1.82-2.33S241.3,250.13,241.3,251.28Z"/><path class="cls-36" d="M250.43,254.29v-5.21h-.85v-.83h.85V248a2.7,2.7,0,0,1,.85-2.08,2.86,2.86,0,0,1,1.93-.62,3.92,3.92,0,0,1,1.82.4v8.61h-1.09v-8a2,2,0,0,0-.9-.17c-1.15,0-1.53.84-1.53,1.82v.3h1.42v.83h-1.42v5.21Z"/><path class="cls-36" d="M262,252.64c0,.63,0,1.18.05,1.65h-1l-.07-1h0a2.3,2.3,0,0,1-2,1.12c-.95,0-2.09-.52-2.09-2.65v-3.53H258v3.35c0,1.14.35,1.92,1.35,1.92a1.58,1.58,0,0,0,1.45-1,1.64,1.64,0,0,0,.1-.56v-3.71H262Z"/><path class="cls-36" d="M264.43,248.25l.86,1.3c.22.33.41.65.61,1h0c.2-.36.4-.67.6-1l.85-1.28h1.19l-2.07,2.92,2.13,3.12h-1.25l-.89-1.36c-.24-.35-.44-.69-.65-1.05h0c-.2.38-.42.69-.64,1.05l-.88,1.36H263.1l2.15-3.08-2.05-3Z"/><path class="cls-36" d="M275.07,251.22a3,3,0,0,1-3,3.21,2.88,2.88,0,0,1-2.9-3.11,3,3,0,0,1,3-3.21A2.86,2.86,0,0,1,275.07,251.22Zm-4.79.06c0,1.33.76,2.33,1.83,2.33s1.84-1,1.84-2.35c0-1-.51-2.33-1.81-2.33S270.28,250.13,270.28,251.28Z"/><path class="cls-36" d="M284.51,245.42v7.31c0,.54,0,1.15.05,1.56h-1l-.06-1h0a2.24,2.24,0,0,1-2.06,1.19c-1.46,0-2.59-1.24-2.59-3.07,0-2,1.24-3.25,2.71-3.25a2,2,0,0,1,1.83.92h0v-3.61Zm-1.1,5.29a1.75,1.75,0,0,0-.05-.46,1.62,1.62,0,0,0-1.58-1.28c-1.14,0-1.82,1-1.82,2.34s.6,2.23,1.79,2.23a1.64,1.64,0,0,0,1.61-1.31,1.78,1.78,0,0,0,.05-.47Z"/><path class="cls-36" d="M287,251.47a1.93,1.93,0,0,0,2.07,2.1,4.11,4.11,0,0,0,1.68-.31l.18.78a4.74,4.74,0,0,1-2,.39,2.82,2.82,0,0,1-3-3.06c0-1.82,1.07-3.26,2.83-3.26a2.56,2.56,0,0,1,2.5,2.85c0,.22,0,.4,0,.51Zm3.22-.79a1.56,1.56,0,0,0-1.52-1.78,1.82,1.82,0,0,0-1.69,1.78Z"/><path class="cls-36" d="M195.67,264.42a3,3,0,0,1-3,3.21,2.88,2.88,0,0,1-2.9-3.11,3,3,0,0,1,3-3.21A2.87,2.87,0,0,1,195.67,264.42Zm-4.8.06c0,1.33.76,2.33,1.83,2.33s1.84-1,1.84-2.35c0-1-.51-2.33-1.81-2.33S190.87,263.33,190.87,264.48Z"/><path class="cls-36" d="M197.14,263.33c0-.71,0-1.32,0-1.88h1l0,1.18h0a1.82,1.82,0,0,1,1.68-1.32,1,1,0,0,1,.31,0v1a2.09,2.09,0,0,0-.38,0,1.54,1.54,0,0,0-1.47,1.41,2.59,2.59,0,0,0-.05.51v3.22h-1.09Z"/><path class="cls-36" d="M202.59,259.75a.68.68,0,0,1-1.36,0,.67.67,0,0,1,.69-.69A.65.65,0,0,1,202.59,259.75Zm-1.22,7.74v-6h1.1v6Z"/><path class="cls-36" d="M209.54,266.62a3.49,3.49,0,0,1-.86,2.76,3.22,3.22,0,0,1-2.2.73,3.91,3.91,0,0,1-2-.5l.27-.84a3.43,3.43,0,0,0,1.78.47c1.12,0,1.94-.58,1.94-2.11v-.67h0a2.17,2.17,0,0,1-1.92,1,2.71,2.71,0,0,1-2.58-3,2.9,2.9,0,0,1,2.73-3.21,2,2,0,0,1,1.88,1.05h0l0-.91h1c0,.43-.05.92-.05,1.66Zm-1.09-2.79a1.6,1.6,0,0,0-1.6-1.66c-1,0-1.8.89-1.8,2.29,0,1.18.6,2.17,1.79,2.17a1.62,1.62,0,0,0,1.53-1.12,2,2,0,0,0,.08-.59Z"/><path class="cls-36" d="M212.07,264.67a1.93,1.93,0,0,0,2.07,2.1,4,4,0,0,0,1.67-.31l.19.78a4.74,4.74,0,0,1-2,.39,2.82,2.82,0,0,1-3-3.06c0-1.82,1.07-3.26,2.83-3.26a2.56,2.56,0,0,1,2.5,2.85,3,3,0,0,1,0,.51Zm3.22-.79a1.56,1.56,0,0,0-1.52-1.78,1.82,1.82,0,0,0-1.69,1.78Z"/><path class="cls-36" d="M217.8,263.08c0-.62,0-1.13-.05-1.63h1l.06,1h0a2.1,2.1,0,0,1,1.9-1.11,1.78,1.78,0,0,1,1.71,1.21h0a2.52,2.52,0,0,1,.67-.79,2.12,2.12,0,0,1,1.34-.42c.8,0,2,.52,2,2.62v3.56h-1.08v-3.42c0-1.16-.42-1.86-1.31-1.86a1.43,1.43,0,0,0-1.3,1,1.81,1.81,0,0,0-.09.55v3.73h-1.07v-3.62c0-1-.42-1.66-1.26-1.66a1.52,1.52,0,0,0-1.37,1.1,1.57,1.57,0,0,0-.08.54v3.64H217.8Z"/><path class="cls-36" d="M233.44,258.82a8.27,8.27,0,0,0-1.58,5.11,8.41,8.41,0,0,0,1.58,5.08h-.86a8.08,8.08,0,0,1-1.64-5.08,8.22,8.22,0,0,1,1.64-5.11Z"/><path class="cls-36" d="M234.2,261.9a14.87,14.87,0,0,1,1.18-3l.7-.07a16.82,16.82,0,0,0-.74,2.92Zm1.86,0a14.91,14.91,0,0,1,1.17-3l.7-.07a16.82,16.82,0,0,0-.74,2.92Z"/><path class="cls-36" d="M238.64,266.37a2.89,2.89,0,0,0,1.45.44c.8,0,1.17-.4,1.17-.9s-.31-.81-1.12-1.11c-1.09-.39-1.6-1-1.6-1.72a1.87,1.87,0,0,1,2.09-1.77,3,3,0,0,1,1.48.37l-.27.8a2.38,2.38,0,0,0-1.24-.35c-.65,0-1,.38-1,.83s.36.72,1.15,1c1,.4,1.59.93,1.59,1.83,0,1.06-.83,1.82-2.27,1.82a3.47,3.47,0,0,1-1.7-.42Z"/><path class="cls-36" d="M249.3,264.42a3,3,0,0,1-3,3.21,2.87,2.87,0,0,1-2.9-3.11,3,3,0,0,1,3-3.21A2.86,2.86,0,0,1,249.3,264.42Zm-4.8.06c0,1.33.76,2.33,1.84,2.33s1.84-1,1.84-2.35c0-1-.52-2.33-1.82-2.33S244.5,263.33,244.5,264.48Z"/><path class="cls-36" d="M250.78,258.62h1.1v8.87h-1.1Z"/><path class="cls-36" d="M255,259.75a.68.68,0,0,1-1.36,0,.66.66,0,0,1,.68-.69A.65.65,0,0,1,255,259.75Zm-1.23,7.74v-6h1.1v6Z"/><path class="cls-36" d="M261.14,267.27a4.05,4.05,0,0,1-1.74.36,2.88,2.88,0,0,1-3-3.1,3.08,3.08,0,0,1,3.25-3.21,3.66,3.66,0,0,1,1.52.31l-.25.85a2.53,2.53,0,0,0-1.27-.28,2.28,2.28,0,0,0,0,4.54,3.06,3.06,0,0,0,1.35-.3Z"/><path class="cls-36" d="M263.74,259.75a.68.68,0,0,1-1.36,0,.66.66,0,0,1,.68-.69A.65.65,0,0,1,263.74,259.75Zm-1.23,7.74v-6h1.1v6Z"/><path class="cls-36" d="M266.85,260v1.45h1.58v.83h-1.58v3.27c0,.75.21,1.17.83,1.17a2,2,0,0,0,.63-.08l.05.83a2.59,2.59,0,0,1-1,.16,1.53,1.53,0,0,1-1.19-.47,2.26,2.26,0,0,1-.42-1.58v-3.3h-.94v-.83h.94v-1.12Z"/><path class="cls-36" d="M274,266.05a9,9,0,0,0,.1,1.44h-1l-.09-.76h0a2.25,2.25,0,0,1-1.85.9,1.72,1.72,0,0,1-1.85-1.74c0-1.46,1.3-2.26,3.63-2.24v-.13a1.24,1.24,0,0,0-1.37-1.4,3.1,3.1,0,0,0-1.58.45l-.25-.72a3.73,3.73,0,0,1,2-.54c1.85,0,2.3,1.26,2.3,2.47Zm-1.06-1.64c-1.2,0-2.56.19-2.56,1.36a1,1,0,0,0,1,1.05,1.43,1.43,0,0,0,1.53-1.36Z"/><path class="cls-36" d="M280.19,267.27a3.69,3.69,0,0,1-1.59.35l-.31.5a1,1,0,0,1,.87.91c0,.75-.62,1-1.3,1a2,2,0,0,1-.87-.21l.19-.57a1.25,1.25,0,0,0,.68.17c.29,0,.54-.09.54-.39s-.39-.46-1-.53l.52-1a2.84,2.84,0,0,1-2.52-3.05,3.07,3.07,0,0,1,3.25-3.21,3.66,3.66,0,0,1,1.52.31l-.25.85a2.53,2.53,0,0,0-1.27-.28,2.28,2.28,0,0,0,0,4.54,3.06,3.06,0,0,0,1.35-.3Z"/><path class="cls-36" d="M285.79,266.05a7.94,7.94,0,0,0,.1,1.44h-1l-.09-.76h0a2.22,2.22,0,0,1-1.85.9,1.73,1.73,0,0,1-1.85-1.74c0-1.46,1.3-2.26,3.64-2.24v-.13a1.25,1.25,0,0,0-1.37-1.4,3.07,3.07,0,0,0-1.58.45l-.25-.72a3.73,3.73,0,0,1,2-.54c1.85,0,2.3,1.26,2.3,2.47Zm-3.73-5.64c0-.81.32-1.3.85-1.3a1.56,1.56,0,0,1,.78.27,1.17,1.17,0,0,0,.52.22c.2,0,.33-.12.35-.54h.59c0,.84-.27,1.26-.86,1.26a1.63,1.63,0,0,1-.76-.25,1.1,1.1,0,0,0-.54-.22c-.2,0-.3.21-.33.56Zm2.67,4c-1.2,0-2.57.19-2.57,1.36a1,1,0,0,0,1,1.05,1.5,1.5,0,0,0,1.46-1,1.15,1.15,0,0,0,.07-.35Z"/><path class="cls-36" d="M293.13,264.42a3,3,0,0,1-3,3.21,2.88,2.88,0,0,1-2.9-3.11,3,3,0,0,1,3-3.21A2.87,2.87,0,0,1,293.13,264.42Zm-4.8.06c0,1.33.76,2.33,1.83,2.33s1.84-1,1.84-2.35c0-1-.51-2.33-1.81-2.33S288.33,263.33,288.33,264.48Z"/><path class="cls-36" d="M295.56,258.85a15.22,15.22,0,0,1-1.16,3l-.7.07a19,19,0,0,0,.74-2.91Zm1.85,0a15.22,15.22,0,0,1-1.16,3l-.7.07a16.94,16.94,0,0,0,.74-2.91Z"/><path class="cls-36" d="M298,269a8.47,8.47,0,0,0,1.57-5.12,8.29,8.29,0,0,0-1.57-5.07h.85a8,8,0,0,1,1.64,5.09,8.13,8.13,0,0,1-1.64,5.1Z"/><path class="cls-36" d="M190.32,286.72a15.74,15.74,0,0,1,2.32-.17,4.81,4.81,0,0,1,3.41,1.05,3.86,3.86,0,0,1,1.18,3,4.43,4.43,0,0,1-1.21,3.27,5.17,5.17,0,0,1-3.72,1.22,18.2,18.2,0,0,1-2-.1Zm1.09,7.45a7,7,0,0,0,1.1.06,3.24,3.24,0,0,0,3.59-3.57c0-2-1.11-3.25-3.41-3.25a6.42,6.42,0,0,0-1.28.11Z"/><path class="cls-36" d="M199.92,287.28a.65.65,0,0,1-.7.68.66.66,0,0,1-.66-.68.66.66,0,0,1,.69-.68A.64.64,0,0,1,199.92,287.28ZM198.7,295v-6h1.1v6Z"/><path class="cls-36" d="M201.71,290.87c0-.71,0-1.33-.05-1.89h1l0,1.19h.05a1.82,1.82,0,0,1,1.67-1.32,1.51,1.51,0,0,1,.32,0v1a1.48,1.48,0,0,0-.38,0,1.54,1.54,0,0,0-1.47,1.41,2.7,2.7,0,0,0,0,.52V295h-1.09Z"/><path class="cls-36" d="M206.37,292.21a2,2,0,0,0,2.08,2.1,3.88,3.88,0,0,0,1.67-.32l.19.79a4.77,4.77,0,0,1-2,.39,2.82,2.82,0,0,1-3-3.06c0-1.83,1.08-3.26,2.84-3.26a2.56,2.56,0,0,1,2.5,2.84,4.81,4.81,0,0,1,0,.52Zm3.23-.79a1.57,1.57,0,0,0-1.53-1.79,1.82,1.82,0,0,0-1.68,1.79Z"/><path class="cls-36" d="M216.43,294.81a4,4,0,0,1-1.58.35l-.31.5a1,1,0,0,1,.87.91c0,.75-.62,1-1.3,1a1.81,1.81,0,0,1-.87-.21l.18-.56a1.41,1.41,0,0,0,.69.16c.29,0,.54-.08.54-.39s-.39-.46-1-.52l.53-1a2.86,2.86,0,0,1-2.53-3.05,3.08,3.08,0,0,1,3.25-3.21,3.71,3.71,0,0,1,1.53.31l-.25.85a2.59,2.59,0,0,0-1.28-.29,2.1,2.1,0,0,0-2.13,2.29,2.07,2.07,0,0,0,2.09,2.26,3,3,0,0,0,1.35-.3Z"/><path class="cls-36" d="M222,293.58a9,9,0,0,0,.1,1.45h-1l-.08-.76h0a2.27,2.27,0,0,1-1.85.9,1.73,1.73,0,0,1-1.85-1.74c0-1.46,1.3-2.26,3.64-2.25v-.12a1.25,1.25,0,0,0-1.38-1.4,3,3,0,0,0-1.57.45l-.25-.73a3.78,3.78,0,0,1,2-.53c1.85,0,2.3,1.26,2.3,2.47Zm-3.72-5.64c0-.81.31-1.3.85-1.3a1.55,1.55,0,0,1,.77.28,1.29,1.29,0,0,0,.53.21c.2,0,.32-.11.35-.53h.59c0,.83-.28,1.26-.87,1.26a1.79,1.79,0,0,1-.76-.25,1.15,1.15,0,0,0-.53-.23c-.2,0-.31.22-.33.56Zm2.66,4c-1.2,0-2.56.19-2.56,1.37a1,1,0,0,0,1,1.05,1.51,1.51,0,0,0,1.46-1A1,1,0,0,0,221,293Z"/><path class="cls-36" d="M229.37,292a3,3,0,0,1-3,3.21,2.87,2.87,0,0,1-2.9-3.11,3,3,0,0,1,3-3.21A2.86,2.86,0,0,1,229.37,292Zm-4.8.06c0,1.32.77,2.32,1.84,2.32s1.84-1,1.84-2.35c0-1-.51-2.32-1.81-2.32S224.57,290.87,224.57,292Z"/><path class="cls-36" d="M238.81,286.16v7.31c0,.54,0,1.15.05,1.56h-1l-.05-1h0a2.24,2.24,0,0,1-2.07,1.19c-1.46,0-2.58-1.24-2.58-3.08,0-2,1.23-3.24,2.71-3.24a2,2,0,0,1,1.82.92h0v-3.61Zm-1.1,5.28a1.85,1.85,0,0,0-.05-.46,1.61,1.61,0,0,0-1.59-1.27c-1.14,0-1.81,1-1.81,2.33s.6,2.24,1.79,2.24a1.66,1.66,0,0,0,1.61-1.31,1.82,1.82,0,0,0,.05-.48Z"/><path class="cls-36" d="M246.2,292a3,3,0,0,1-3,3.21,2.88,2.88,0,0,1-2.9-3.11,3,3,0,0,1,3-3.21A2.87,2.87,0,0,1,246.2,292Zm-4.8.06c0,1.32.76,2.32,1.83,2.32s1.84-1,1.84-2.35c0-1-.51-2.32-1.81-2.32S241.4,290.87,241.4,292Z"/><path class="cls-36" d="M250.52,295v-5.21h-.85V289h.85v-.26a2.74,2.74,0,0,1,.85-2.09,2.89,2.89,0,0,1,1.94-.61,3.88,3.88,0,0,1,1.81.4V295H254v-8a1.92,1.92,0,0,0-.9-.16c-1.15,0-1.52.84-1.52,1.81v.3H253v.84h-1.41V295Z"/><path class="cls-36" d="M262.09,293.38c0,.63,0,1.18.05,1.65h-1l-.06-1h0a2.27,2.27,0,0,1-2,1.13c-.95,0-2.08-.53-2.08-2.65V289h1.1v3.35c0,1.15.35,1.93,1.35,1.93a1.58,1.58,0,0,0,1.44-1,1.52,1.52,0,0,0,.11-.57V289h1.09Z"/><path class="cls-36" d="M264.52,289l.86,1.3c.23.34.42.65.62,1h0c.2-.36.4-.68.6-1l.85-1.29h1.19l-2.06,2.93,2.12,3.12h-1.25l-.88-1.36c-.24-.35-.44-.69-.65-1.05h0c-.2.37-.41.69-.64,1.05l-.87,1.36H263.2l2.15-3.09-2.05-3Z"/><path class="cls-36" d="M275.17,292a3,3,0,0,1-3,3.21,2.87,2.87,0,0,1-2.9-3.11,3,3,0,0,1,3-3.21A2.87,2.87,0,0,1,275.17,292Zm-4.8.06c0,1.32.76,2.32,1.84,2.32s1.83-1,1.83-2.35c0-1-.51-2.32-1.81-2.32S270.37,290.87,270.37,292Z"/><path class="cls-36" d="M284.61,286.16v7.31c0,.54,0,1.15.05,1.56h-1l-.05-1h0a2.22,2.22,0,0,1-2.06,1.19c-1.46,0-2.58-1.24-2.58-3.08,0-2,1.23-3.24,2.71-3.24a2,2,0,0,1,1.82.92h0v-3.61Zm-1.1,5.28a2.49,2.49,0,0,0-.05-.46,1.63,1.63,0,0,0-1.59-1.27c-1.14,0-1.81,1-1.81,2.33s.6,2.24,1.78,2.24a1.66,1.66,0,0,0,1.62-1.31,2.36,2.36,0,0,0,.05-.48Z"/><path class="cls-36" d="M287.13,292.21a2,2,0,0,0,2.08,2.1,3.88,3.88,0,0,0,1.67-.32l.19.79a4.77,4.77,0,0,1-2,.39,2.82,2.82,0,0,1-3-3.06c0-1.83,1.08-3.26,2.84-3.26a2.56,2.56,0,0,1,2.5,2.84,4.81,4.81,0,0,1,0,.52Zm3.23-.79a1.57,1.57,0,0,0-1.53-1.79,1.83,1.83,0,0,0-1.69,1.79Z"/><path class="cls-36" d="M190.29,304.07c0-.71,0-1.33,0-1.89h1l0,1.19h0a1.8,1.8,0,0,1,1.67-1.32,1.48,1.48,0,0,1,.31,0v1a1.35,1.35,0,0,0-.37,0,1.55,1.55,0,0,0-1.48,1.41,3.83,3.83,0,0,0,0,.52v3.22h-1.08Z"/><path class="cls-36" d="M195,305.41a1.94,1.94,0,0,0,2.07,2.1,3.89,3.89,0,0,0,1.68-.32l.18.79a4.74,4.74,0,0,1-2,.39,2.82,2.82,0,0,1-3-3.06c0-1.83,1.07-3.26,2.84-3.26a2.55,2.55,0,0,1,2.49,2.84c0,.23,0,.4,0,.52Zm3.22-.79a1.57,1.57,0,0,0-1.52-1.79,1.83,1.83,0,0,0-1.69,1.79Z"/><path class="cls-36" d="M202,300.73v1.45h1.57V303H202v3.26c0,.75.21,1.18.82,1.18a2,2,0,0,0,.64-.08l.05.83a2.81,2.81,0,0,1-1,.16,1.54,1.54,0,0,1-1.19-.48,2.24,2.24,0,0,1-.42-1.57V303H200v-.84h.94v-1.11Z"/><path class="cls-36" d="M210.31,305.16a3,3,0,0,1-3,3.21,2.87,2.87,0,0,1-2.9-3.11,3,3,0,0,1,3-3.21A2.87,2.87,0,0,1,210.31,305.16Zm-4.8.06c0,1.32.76,2.32,1.84,2.32s1.83-1,1.83-2.35c0-1-.51-2.32-1.81-2.32S205.51,304.07,205.51,305.22Z"/><path class="cls-36" d="M211.79,304.07c0-.71,0-1.33,0-1.89h1l0,1.19h0a1.8,1.8,0,0,1,1.67-1.32,1.48,1.48,0,0,1,.31,0v1a1.35,1.35,0,0,0-.37,0,1.55,1.55,0,0,0-1.48,1.41,3.83,3.83,0,0,0,0,.52v3.22h-1.08Z"/><path class="cls-36" d="M216,303.82c0-.63,0-1.14,0-1.64h1l.07,1h0a2.23,2.23,0,0,1,2-1.13c.84,0,2.14.49,2.14,2.57v3.61h-1.1v-3.49c0-1-.36-1.78-1.4-1.78a1.57,1.57,0,0,0-1.48,1.12,1.61,1.61,0,0,0-.07.51v3.64H216Z"/><path class="cls-36" d="M228.51,305.16a3,3,0,0,1-3,3.21,2.87,2.87,0,0,1-2.9-3.11,3,3,0,0,1,3-3.21A2.87,2.87,0,0,1,228.51,305.16Zm-4.8.06c0,1.32.76,2.32,1.84,2.32s1.83-1,1.83-2.35c0-1-.51-2.32-1.81-2.32S223.71,304.07,223.71,305.22Z"/><path class="cls-36" d="M235.11,299.56a8.25,8.25,0,0,0-1.58,5.11,8.4,8.4,0,0,0,1.58,5.07h-.86a8,8,0,0,1-1.64-5.07,8.22,8.22,0,0,1,1.64-5.11Z"/><path class="cls-36" d="M235.87,302.63a14.51,14.51,0,0,1,1.18-3l.7-.08a17.18,17.18,0,0,0-.74,2.93Zm1.86,0a14.55,14.55,0,0,1,1.17-3l.7-.08a17.18,17.18,0,0,0-.74,2.93Z"/><path class="cls-36" d="M240.58,304.07c0-.71,0-1.33-.05-1.89h1l0,1.19h.05a1.82,1.82,0,0,1,1.68-1.32,1.48,1.48,0,0,1,.31,0v1a1.35,1.35,0,0,0-.37,0,1.55,1.55,0,0,0-1.48,1.41,3.83,3.83,0,0,0-.05.52v3.22h-1.09Z"/><path class="cls-36" d="M245.25,305.41a1.94,1.94,0,0,0,2.07,2.1,3.93,3.93,0,0,0,1.68-.32l.18.79a4.74,4.74,0,0,1-2,.39,2.82,2.82,0,0,1-3-3.06c0-1.83,1.07-3.26,2.83-3.26a2.55,2.55,0,0,1,2.5,2.84c0,.23,0,.4,0,.52Zm3.22-.79a1.57,1.57,0,0,0-1.52-1.79,1.83,1.83,0,0,0-1.69,1.79Z"/><path class="cls-36" d="M250.83,307.11a2.92,2.92,0,0,0,1.45.43c.8,0,1.18-.4,1.18-.9s-.31-.81-1.13-1.11c-1.08-.39-1.6-1-1.6-1.71a1.87,1.87,0,0,1,2.09-1.77,3,3,0,0,1,1.49.37l-.28.8a2.31,2.31,0,0,0-1.23-.35c-.65,0-1,.37-1,.82s.37.73,1.15,1c1,.4,1.59.92,1.59,1.82,0,1.07-.82,1.83-2.26,1.83a3.44,3.44,0,0,1-1.7-.43Z"/><path class="cls-36" d="M256,304.16c0-.78,0-1.4,0-2h1l.05,1h0a2.35,2.35,0,0,1,2.14-1.17c1.47,0,2.57,1.23,2.57,3.07,0,2.17-1.33,3.25-2.75,3.25a2.14,2.14,0,0,1-1.87-.95h0v3.29H256Zm1.09,1.61a2.14,2.14,0,0,0,.05.45,1.7,1.7,0,0,0,1.65,1.29c1.16,0,1.84-.95,1.84-2.34,0-1.21-.64-2.25-1.8-2.25a1.77,1.77,0,0,0-1.67,1.36,2.22,2.22,0,0,0-.07.45Z"/><path class="cls-36" d="M268.7,305.16a3,3,0,0,1-3,3.21,2.88,2.88,0,0,1-2.9-3.11,3,3,0,0,1,3-3.21A2.87,2.87,0,0,1,268.7,305.16Zm-4.8.06c0,1.32.76,2.32,1.83,2.32s1.84-1,1.84-2.35c0-1-.51-2.32-1.81-2.32S263.9,304.07,263.9,305.22Z"/><path class="cls-36" d="M270,307.11a2.92,2.92,0,0,0,1.45.43c.8,0,1.18-.4,1.18-.9s-.32-.81-1.13-1.11c-1.09-.39-1.6-1-1.6-1.71a1.87,1.87,0,0,1,2.09-1.77,3,3,0,0,1,1.49.37l-.28.8a2.35,2.35,0,0,0-1.24-.35c-.65,0-1,.37-1,.82s.36.73,1.15,1c1.05.4,1.59.92,1.59,1.82,0,1.07-.83,1.83-2.26,1.83a3.41,3.41,0,0,1-1.7-.43Z"/><path class="cls-36" d="M276.54,300.73v1.45h1.57V303h-1.57v3.26c0,.75.21,1.18.82,1.18a2.08,2.08,0,0,0,.64-.08l.05.83a2.87,2.87,0,0,1-1,.16,1.55,1.55,0,0,1-1.19-.48,2.24,2.24,0,0,1-.42-1.57V303h-.94v-.84h.94v-1.11Z"/><path class="cls-36" d="M283.68,306.78a9,9,0,0,0,.1,1.45h-1l-.08-.76h0a2.27,2.27,0,0,1-1.85.9,1.72,1.72,0,0,1-1.85-1.74c0-1.46,1.3-2.26,3.64-2.25v-.12a1.25,1.25,0,0,0-1.38-1.4,3,3,0,0,0-1.57.45l-.25-.73a3.78,3.78,0,0,1,2-.53c1.85,0,2.3,1.26,2.3,2.47Zm-1.06-1.64c-1.2,0-2.56.19-2.56,1.37a1,1,0,0,0,1,1.05,1.51,1.51,0,0,0,1.46-1,1,1,0,0,0,.06-.35Z"/><path class="cls-36" d="M286.51,299.58a15.34,15.34,0,0,1-1.16,3l-.7.08a19.31,19.31,0,0,0,.74-2.91Zm1.85,0a15.34,15.34,0,0,1-1.16,3l-.7.08a18.18,18.18,0,0,0,.74-2.91Z"/><path class="cls-36" d="M289,309.74a8.48,8.48,0,0,0,1.57-5.11,8.33,8.33,0,0,0-1.57-5.07h.84a7.93,7.93,0,0,1,1.64,5.08,8.11,8.11,0,0,1-1.64,5.1Z"/></g></svg>