<svg xmlns="http://www.w3.org/2000/svg" xmlns:xlink="http://www.w3.org/1999/xlink" viewBox="0 0 316 315.2"><defs><style>.cls-1,.cls-3{fill:#fff;}.cls-15,.cls-2,.cls-5{fill:#3c3c41;}.cls-2{opacity:0.05;}.cls-2,.cls-3,.cls-4,.cls-5{isolation:isolate;}.cls-3{opacity:0.6;}.cls-14,.cls-16,.cls-17,.cls-30,.cls-4{fill:none;}.cls-4{stroke:#75757a;stroke-width:0.5px;opacity:0.5;}.cls-14,.cls-16,.cls-17,.cls-4{stroke-miterlimit:10;}.cls-5{opacity:0.2;}.cls-6{fill:#ccc;fill-opacity:0.3;}.cls-7{fill:url(#Degradado_sin_nombre);}.cls-8{fill:#50e6ff;}.cls-9{fill:#c3f1ff;}.cls-10{fill:#9cebff;}.cls-11{fill:url(#Degradado_sin_nombre_2);}.cls-12{fill:url(#Degradado_sin_nombre_3);}.cls-13{fill:url(#Degradado_sin_nombre_4);}.cls-14,.cls-16,.cls-17{stroke:#3c3c41;}.cls-16{stroke-dasharray:1.46 2.43;}.cls-17{stroke-dasharray:1.31 2.19;}.cls-18{fill:url(#Degradado_sin_nombre_5);}.cls-19{fill:url(#Degradado_sin_nombre_6);}.cls-20{fill:url(#Degradado_sin_nombre_7);}.cls-21{fill:#1490df;}.cls-22{fill:url(#Degradado_sin_nombre_8);}.cls-23{fill:url(#Degradado_sin_nombre_9);}.cls-24{fill:url(#Degradado_sin_nombre_10);}.cls-25{fill:url(#Degradado_sin_nombre_11);}.cls-26{fill:url(#Degradado_sin_nombre_12);}.cls-27{fill:url(#Degradado_sin_nombre_13);}.cls-28{fill:url(#Degradado_sin_nombre_14);}.cls-29{fill:url(#Degradado_sin_nombre_15);}.cls-31{fill:#6ebcdb;}.cls-32{fill:#5db4d7;}.cls-33{fill:#e6e6e6;}.cls-34{fill:#86d633;}.cls-35{fill:#1e1e1e;}</style><linearGradient id="Degradado_sin_nombre" x1="39.57" y1="240.22" x2="39.57" y2="221.46" gradientTransform="translate(0 -74.26)" gradientUnits="userSpaceOnUse"><stop offset="0" stop-color="#0078d4"/><stop offset="0.82" stop-color="#5ea0ef"/></linearGradient><linearGradient id="Degradado_sin_nombre_2" x1="39.57" y1="247.46" x2="39.57" y2="240.22" gradientTransform="translate(0 -74.26)" gradientUnits="userSpaceOnUse"><stop offset="0.15" stop-color="#ccc"/><stop offset="1" stop-color="#707070"/></linearGradient><linearGradient id="Degradado_sin_nombre_3" x1="76.43" y1="240.22" x2="76.43" y2="221.46" xlink:href="#Degradado_sin_nombre"/><linearGradient id="Degradado_sin_nombre_4" x1="76.43" y1="247.46" x2="76.43" y2="240.22" xlink:href="#Degradado_sin_nombre_2"/><linearGradient id="Degradado_sin_nombre_5" x1="24.5" y1="301.79" x2="26.87" y2="304.15" gradientTransform="translate(3.03 -74.68)" gradientUnits="userSpaceOnUse"><stop offset="0" stop-color="#86d633"/><stop offset="0.24" stop-color="#83d232"/><stop offset="0.5" stop-color="#7cc52f"/><stop offset="0.76" stop-color="#6fb02a"/><stop offset="1" stop-color="#5e9624"/></linearGradient><linearGradient id="Degradado_sin_nombre_6" x1="19.15" y1="301.79" x2="21.51" y2="304.15" xlink:href="#Degradado_sin_nombre_5"/><linearGradient id="Degradado_sin_nombre_7" x1="13.81" y1="301.78" x2="16.17" y2="304.15" xlink:href="#Degradado_sin_nombre_5"/><linearGradient id="Degradado_sin_nombre_8" x1="139.57" y1="240.22" x2="139.57" y2="221.46" xlink:href="#Degradado_sin_nombre"/><linearGradient id="Degradado_sin_nombre_9" x1="139.57" y1="247.46" x2="139.57" y2="240.22" xlink:href="#Degradado_sin_nombre_2"/><linearGradient id="Degradado_sin_nombre_10" x1="176.43" y1="240.22" x2="176.43" y2="221.46" xlink:href="#Degradado_sin_nombre"/><linearGradient id="Degradado_sin_nombre_11" x1="176.43" y1="247.46" x2="176.43" y2="240.22" xlink:href="#Degradado_sin_nombre_2"/><linearGradient id="Degradado_sin_nombre_12" x1="239.57" y1="240.22" x2="239.57" y2="221.46" xlink:href="#Degradado_sin_nombre"/><linearGradient id="Degradado_sin_nombre_13" x1="239.57" y1="247.46" x2="239.57" y2="240.22" xlink:href="#Degradado_sin_nombre_2"/><linearGradient id="Degradado_sin_nombre_14" x1="276.43" y1="240.22" x2="276.43" y2="221.46" xlink:href="#Degradado_sin_nombre"/><linearGradient id="Degradado_sin_nombre_15" x1="276.43" y1="247.46" x2="276.43" y2="240.22" xlink:href="#Degradado_sin_nombre_2"/></defs><title>OJ104903206</title><g id="Target"><g id="Shapes"><rect class="cls-1" width="316" height="315.2"/><rect class="cls-1" x="0.5" y="75.2" width="315" height="151.85" rx="5"/><rect class="cls-2" x="0.5" y="75.2" width="315" height="151.85" rx="5"/><rect class="cls-3" x="10.5" y="15.2" width="95" height="200"/><rect class="cls-4" x="10.5" y="15.2" width="95" height="200"/><rect class="cls-1" x="15.99" y="120.2" width="84.51" height="90" rx="0.3"/><rect class="cls-5" x="15.99" y="120.2" width="84.51" height="90" rx="0.3"/><rect class="cls-6" x="160.5" y="240.2" width="155" height="35"/><rect class="cls-6" x="160.5" y="280.2" width="155" height="35"/><rect class="cls-7" x="25.5" y="147.2" width="28.14" height="18.76" rx="0.94"/><polygon class="cls-8" points="44.26 153.85 44.26 159.3 39.57 162.05 39.57 156.58 44.26 153.85"/><polygon class="cls-9" points="44.26 153.85 39.57 156.6 34.88 153.85 39.57 151.11 44.26 153.85"/><polygon class="cls-10" points="39.57 156.6 39.57 162.05 34.88 159.3 34.88 153.85 39.57 156.6"/><polygon class="cls-9" points="34.88 159.3 39.57 156.58 39.57 162.05 34.88 159.3"/><polygon class="cls-10" points="44.26 159.3 39.57 156.58 39.57 162.05 44.26 159.3"/><path class="cls-11" d="M45.21,171.64c-2.78-.44-2.89-2.44-2.89-5.68H36.8c0,3.24-.09,5.24-2.87,5.68a1.55,1.55,0,0,0-1.39,1.56H46.61A1.57,1.57,0,0,0,45.21,171.64Z"/><rect class="cls-12" x="62.36" y="147.2" width="28.14" height="18.76" rx="0.94"/><polygon class="cls-8" points="81.12 153.85 81.12 159.3 76.43 162.05 76.43 156.58 81.12 153.85"/><polygon class="cls-9" points="81.12 153.85 76.43 156.6 71.74 153.85 76.43 151.11 81.12 153.85"/><polygon class="cls-10" points="76.43 156.6 76.43 162.05 71.74 159.3 71.74 153.85 76.43 156.6"/><polygon class="cls-9" points="71.74 159.3 76.43 156.58 76.43 162.05 71.74 159.3"/><polygon class="cls-10" points="81.12 159.3 76.43 156.58 76.43 162.05 81.12 159.3"/><path class="cls-13" d="M82.07,171.64c-2.78-.44-2.89-2.44-2.89-5.68H73.66c0,3.24-.09,5.24-2.87,5.68a1.57,1.57,0,0,0-1.4,1.56H83.46A1.55,1.55,0,0,0,82.07,171.64Z"/><line class="cls-14" x1="58.25" y1="120.2" x2="58.25" y2="55.2"/><line class="cls-14" x1="50.72" y1="112.67" x2="50.72" y2="100.98"/><polygon class="cls-15" points="53.71 101.85 50.72 96.67 47.73 101.85 53.71 101.85"/><line class="cls-14" x1="65.77" y1="108.37" x2="65.77" y2="107.62"/><line class="cls-16" x1="65.77" y1="105.19" x2="65.77" y2="98.64"/><line class="cls-14" x1="65.77" y1="97.42" x2="65.77" y2="96.67"/><polygon class="cls-15" points="68.76 107.49 65.77 112.67 62.78 107.49 68.76 107.49"/><line class="cls-14" x1="169.81" y1="250.2" x2="180.93" y2="250.2"/><polygon class="cls-15" points="170.68 253.19 165.5 250.2 170.68 247.21 170.68 253.19"/><line class="cls-14" x1="176.19" y1="290.2" x2="175.44" y2="290.2"/><line class="cls-17" x1="173.25" y1="290.2" x2="167.34" y2="290.2"/><line class="cls-14" x1="166.25" y1="290.2" x2="165.5" y2="290.2"/><polygon class="cls-15" points="175.32 287.21 180.5 290.2 175.32 293.19 175.32 287.21"/><circle class="cls-18" cx="28.4" cy="227.97" r="1.67"/><circle class="cls-19" cx="23.06" cy="227.99" r="1.67"/><circle class="cls-20" cx="17.72" cy="227.99" r="1.67"/><path class="cls-8" d="M18.93,234.68l-1,1a.43.43,0,0,1-.61,0h0l-7.09-7.08a.88.88,0,0,1,0-1.22h0l1-1h0l7.71,7.69a.43.43,0,0,1,0,.61h0Z"/><path class="cls-21" d="M17.83,220.35l1,1a.43.43,0,0,1,0,.61h0l-7.57,7.6h0l-1-1a.89.89,0,0,1,0-1.23h0l7-7A.43.43,0,0,1,17.83,220.35Z"/><path class="cls-8" d="M34.78,226.37l1,1a.87.87,0,0,1,0,1.23h0l-7.1,7.07a.43.43,0,0,1-.61,0h0l-1-1a.43.43,0,0,1,0-.61h0Z"/><path class="cls-21" d="M35.74,228.55l-1,1h0L27.17,222a.43.43,0,0,1,0-.61h0l1-1a.43.43,0,0,1,.61,0h0l7,7a.89.89,0,0,1,0,1.23h0Z"/><rect class="cls-1" x="40.75" y="20.2" width="35" height="35"/><rect class="cls-5" x="40.75" y="20.2" width="35" height="35"/><rect class="cls-3" x="110.5" y="15.2" width="95" height="200"/><rect class="cls-4" x="110.5" y="15.2" width="95" height="200"/><rect class="cls-1" x="115.99" y="120.2" width="84.51" height="90" rx="0.3"/><rect class="cls-5" x="115.99" y="120.2" width="84.51" height="90" rx="0.3"/><rect class="cls-22" x="125.5" y="147.2" width="28.14" height="18.76" rx="0.94"/><polygon class="cls-8" points="144.26 153.85 144.26 159.3 139.57 162.05 139.57 156.58 144.26 153.85"/><polygon class="cls-9" points="144.26 153.85 139.57 156.6 134.88 153.85 139.57 151.11 144.26 153.85"/><polygon class="cls-10" points="139.57 156.6 139.57 162.05 134.88 159.3 134.88 153.85 139.57 156.6"/><polygon class="cls-9" points="134.88 159.3 139.57 156.58 139.57 162.05 134.88 159.3"/><polygon class="cls-10" points="144.26 159.3 139.57 156.58 139.57 162.05 144.26 159.3"/><path class="cls-23" d="M145.21,171.64c-2.78-.44-2.89-2.44-2.89-5.68H136.8c0,3.24-.09,5.24-2.87,5.68a1.55,1.55,0,0,0-1.39,1.56h14.07A1.57,1.57,0,0,0,145.21,171.64Z"/><rect class="cls-24" x="162.36" y="147.2" width="28.14" height="18.76" rx="0.94"/><polygon class="cls-8" points="181.12 153.85 181.12 159.3 176.43 162.05 176.43 156.58 181.12 153.85"/><polygon class="cls-9" points="181.12 153.85 176.43 156.6 171.74 153.85 176.43 151.11 181.12 153.85"/><polygon class="cls-10" points="176.43 156.6 176.43 162.05 171.74 159.3 171.74 153.85 176.43 156.6"/><polygon class="cls-9" points="171.74 159.3 176.43 156.58 176.43 162.05 171.74 159.3"/><polygon class="cls-10" points="181.12 159.3 176.43 156.58 176.43 162.05 181.12 159.3"/><path class="cls-25" d="M182.07,171.64c-2.78-.44-2.89-2.44-2.89-5.68h-5.52c0,3.24-.09,5.24-2.87,5.68a1.57,1.57,0,0,0-1.4,1.56h14.07A1.55,1.55,0,0,0,182.07,171.64Z"/><line class="cls-14" x1="158.25" y1="120.2" x2="158.25" y2="55.2"/><line class="cls-14" x1="150.72" y1="112.67" x2="150.72" y2="100.98"/><polygon class="cls-15" points="153.71 101.85 150.72 96.67 147.73 101.85 153.71 101.85"/><line class="cls-14" x1="165.77" y1="108.37" x2="165.77" y2="107.62"/><line class="cls-16" x1="165.77" y1="105.19" x2="165.77" y2="98.64"/><line class="cls-14" x1="165.77" y1="97.42" x2="165.77" y2="96.67"/><polygon class="cls-15" points="168.76 107.49 165.77 112.67 162.78 107.49 168.76 107.49"/><rect class="cls-1" x="140.75" y="20.2" width="35" height="35"/><rect class="cls-5" x="140.75" y="20.2" width="35" height="35"/><rect class="cls-3" x="210.5" y="15.2" width="95" height="200"/><rect class="cls-4" x="210.5" y="15.2" width="95" height="200"/><rect class="cls-1" x="215.99" y="120.2" width="84.51" height="90" rx="0.3"/><rect class="cls-5" x="215.99" y="120.2" width="84.51" height="90" rx="0.3"/><rect class="cls-26" x="225.5" y="147.2" width="28.14" height="18.76" rx="0.94"/><polygon class="cls-8" points="244.26 153.85 244.26 159.3 239.57 162.05 239.57 156.58 244.26 153.85"/><polygon class="cls-9" points="244.26 153.85 239.57 156.6 234.88 153.85 239.57 151.11 244.26 153.85"/><polygon class="cls-10" points="239.57 156.6 239.57 162.05 234.88 159.3 234.88 153.85 239.57 156.6"/><polygon class="cls-9" points="234.88 159.3 239.57 156.58 239.57 162.05 234.88 159.3"/><polygon class="cls-10" points="244.26 159.3 239.57 156.58 239.57 162.05 244.26 159.3"/><path class="cls-27" d="M245.21,171.64c-2.78-.44-2.89-2.44-2.89-5.68H236.8c0,3.24-.09,5.24-2.87,5.68a1.55,1.55,0,0,0-1.39,1.56h14.07A1.57,1.57,0,0,0,245.21,171.64Z"/><rect class="cls-28" x="262.36" y="147.2" width="28.14" height="18.76" rx="0.94"/><polygon class="cls-8" points="281.12 153.85 281.12 159.3 276.43 162.05 276.43 156.58 281.12 153.85"/><polygon class="cls-9" points="281.12 153.85 276.43 156.6 271.74 153.85 276.43 151.11 281.12 153.85"/><polygon class="cls-10" points="276.43 156.6 276.43 162.05 271.74 159.3 271.74 153.85 276.43 156.6"/><polygon class="cls-9" points="271.74 159.3 276.43 156.58 276.43 162.05 271.74 159.3"/><polygon class="cls-10" points="281.12 159.3 276.43 156.58 276.43 162.05 281.12 159.3"/><path class="cls-29" d="M282.07,171.64c-2.78-.44-2.89-2.44-2.89-5.68h-5.52c0,3.24-.09,5.24-2.87,5.68a1.57,1.57,0,0,0-1.4,1.56h14.07A1.55,1.55,0,0,0,282.07,171.64Z"/><line class="cls-14" x1="258.25" y1="120.2" x2="258.25" y2="55.2"/><line class="cls-14" x1="250.72" y1="112.67" x2="250.72" y2="100.98"/><polygon class="cls-15" points="253.71 101.85 250.72 96.67 247.73 101.85 253.71 101.85"/><line class="cls-14" x1="265.77" y1="108.37" x2="265.77" y2="107.62"/><line class="cls-16" x1="265.77" y1="105.19" x2="265.77" y2="98.64"/><line class="cls-14" x1="265.77" y1="97.42" x2="265.77" y2="96.67"/><polygon class="cls-15" points="268.76 107.49 265.77 112.67 262.78 107.49 268.76 107.49"/><rect class="cls-1" x="240.75" y="20.2" width="35" height="35"/><rect class="cls-5" x="240.75" y="20.2" width="35" height="35"/><rect class="cls-30" x="0.5" y="75.2" width="315" height="151.85" rx="5"/><path class="cls-15" d="M309.34,227.55h-1v-1h1Zm-3,0h-1v-1h1Zm-3,0h-1v-1h1Zm-3,0h-1v-1h1Zm-3,0h-1v-1h1Zm-3,0h-1v-1h1Zm-3,0h-1v-1h1Zm-3,0h-1v-1h1Zm-3,0h-1v-1h1Zm-3,0h-1v-1h1Zm-3,0h-1v-1h1Zm-3,0h-1v-1h1Zm-3,0h-1v-1h1Zm-3,0h-1v-1h1Zm-3,0h-1v-1h1Zm-3,0h-1v-1h1Zm-3,0h-1v-1h1Zm-3,0h-1v-1h1Zm-3,0h-1v-1h1Zm-3,0h-1v-1h1Zm-3,0h-1v-1h1Zm-3,0h-1v-1h1Zm-3,0h-1v-1h1Zm-3,0h-1v-1h1Zm-3,0h-1v-1h1Zm-3,0h-1v-1h1Zm-3,0h-1v-1h1Zm-3,0h-1v-1h1Zm-3,0h-1v-1h1Zm-3,0h-1v-1h1Zm-3,0h-1v-1h1Zm-3,0h-1v-1h1Zm-3,0h-1v-1h1Zm-3,0h-1v-1h1Zm-3,0h-1v-1h1Zm-3,0h-1v-1h1Zm-3,0h-1v-1h1Zm-3,0h-1v-1h1Zm-3,0h-1v-1h1Zm-3,0h-1v-1h1Zm-3,0h-1v-1h1Zm-3,0h-1v-1h1Zm-3,0h-1v-1h1Zm-3,0h-1v-1h1Zm-3,0h-1v-1h1Zm-3,0h-1v-1h1Zm-3,0h-1v-1h1Zm-3,0h-1v-1h1Zm-3,0h-1v-1h1Zm-3,0h-1v-1h1Zm-3,0h-1v-1h1Zm-3,0h-1v-1h1Zm-3,0h-1v-1h1Zm-3,0h-1v-1h1Zm-3,0h-1v-1h1Zm-3,0h-1v-1h1Zm-3,0h-1v-1h1Zm-3,0h-1v-1h1Zm-3,0h-1v-1h1Zm-3,0h-1v-1h1Zm-3,0h-1v-1h1Zm-3,0h-1v-1h1Zm-3,0h-1v-1h1Zm-3,0h-1v-1h1Zm-3,0h-1v-1h1Zm-3,0h-1v-1h1Zm-3,0h-1v-1h1Zm-3,0h-1v-1h1Zm-3,0h-1v-1h1Zm-3,0h-1v-1h1Zm-3,0h-1v-1h1Zm-3,0h-1v-1h1Zm-3,0h-1v-1h1Zm-3,0h-1v-1h1Zm-3,0h-1v-1h1Zm-3,0h-1v-1h1Zm-3,0h-1v-1h1Zm-3,0h-1v-1h1Zm-3,0h-1v-1h1Zm-3,0h-1v-1h1Zm-3,0h-1v-1h1Zm-3,0h-1v-1h1Zm-3,0h-1v-1h1Zm-3,0h-1v-1h1Zm-3,0h-1v-1h1Zm-3,0h-1v-1h1Zm-3,0h-1v-1h1Zm-3,0H47v-1h1Zm-3,0H44v-1h1Zm-3,0H41v-1h1Zm-3,0H38v-1h1Zm-33,0H5l.1-1H6Zm305.42-.08-.16-1a4.4,4.4,0,0,0,.86-.24l.37.93a5.64,5.64,0,0,1-1.41.31ZM3.2,226.87a6.34,6.34,0,0,1-.91-.62l.65-.77a4.7,4.7,0,0,0,.74.52ZM314.32,226l-.69-.72a4.82,4.82,0,0,0,.58-.69l.82.57A5.18,5.18,0,0,1,314.32,226ZM.6,224.54a5.09,5.09,0,0,1-.4-1l1-.27a4.31,4.31,0,0,0,.33.84Zm315.29-1.39-1-.2a4.58,4.58,0,0,0,.09-.9l1-.06v.06A5.06,5.06,0,0,1,315.89,223.15ZM1,221.39H0v-1H1ZM316,220h-1v-1h1ZM1,218.39H0v-1H1ZM316,217h-1v-1h1ZM1,215.38H0v-1H1ZM316,214h-1v-1h1ZM1,212.38H0v-1H1ZM316,211h-1v-1h1ZM1,209.38H0v-1H1ZM316,208h-1v-1h1ZM1,206.37H0v-1H1ZM316,205h-1v-1h1ZM1,203.37H0v-1H1ZM316,202h-1v-1h1ZM1,200.37H0v-1H1ZM316,199h-1v-1h1ZM1,197.36H0v-1H1ZM316,196h-1v-1h1ZM1,194.36H0v-1H1ZM316,193h-1v-1h1ZM1,191.36H0v-1H1ZM316,190h-1v-1h1ZM1,188.35H0v-1H1ZM316,187h-1v-1h1ZM1,185.35H0v-1H1ZM316,184h-1v-1h1ZM1,182.35H0v-1H1ZM316,181h-1v-1h1ZM1,179.34H0v-1H1Zm315-1.4h-1v-1h1ZM1,176.34H0v-1H1Zm315-1.4h-1v-1h1ZM1,173.34H0v-1H1Zm315-1.4h-1v-1h1ZM1,170.33H0v-1H1Zm315-1.4h-1v-1h1ZM1,167.33H0v-1H1Zm315-1.4h-1v-1h1ZM1,164.33H0v-1H1Zm315-1.4h-1v-1h1ZM1,161.32H0v-1H1Zm315-1.4h-1v-1h1ZM1,158.32H0v-1H1Zm315-1.4h-1v-1h1ZM1,155.32H0v-1H1Zm315-1.4h-1v-1h1ZM1,152.31H0v-1H1Zm315-1.4h-1v-1h1ZM1,149.31H0v-1H1Zm315-1.4h-1v-1h1ZM1,146.3H0v-1H1Zm315-1.39h-1v-1h1ZM1,143.3H0v-1H1Zm315-1.4h-1v-1h1ZM1,140.3H0v-1H1Zm315-1.4h-1v-1h1ZM1,137.29H0v-1H1Zm315-1.39h-1v-1h1ZM1,134.29H0v-1H1Zm315-1.4h-1v-1h1ZM1,131.29H0v-1H1Zm315-1.4h-1v-1h1ZM1,128.28H0v-1H1Zm315-1.39h-1v-1h1ZM1,125.28H0v-1H1Zm315-1.4h-1v-1h1ZM1,122.28H0v-1H1Zm315-1.4h-1v-1h1ZM1,119.27H0v-1H1Zm315-1.39h-1v-1h1ZM1,116.27H0v-1H1Zm315-1.4h-1v-1h1ZM1,113.27H0v-1H1Zm315-1.4h-1v-1h1ZM1,110.26H0v-1H1Zm315-1.39h-1v-1h1ZM1,107.26H0v-1H1Zm315-1.4h-1v-1h1ZM1,104.26H0v-1H1Zm315-1.4h-1v-1h1ZM1,101.25H0v-1H1Zm315-1.39h-1v-1h1ZM1,98.25H0v-1H1Zm315-1.4h-1v-1h1ZM1,95.25H0v-1H1Zm315-1.4h-1v-1h1ZM1,92.24H0v-1H1Zm315-1.4h-1v-1h1ZM1,89.24H0v-1H1Zm315-1.4h-1v-1h1ZM1,86.24H0v-1H1Zm315-1.4h-1v-1h1ZM1,83.23H0v-1H1Zm315-1.4h-1v-1h1ZM0,80.23H0a6.24,6.24,0,0,1,.1-1.06l1,.19a4.81,4.81,0,0,0-.1.84ZM314.83,79a4,4,0,0,0-.33-.83l.89-.46a5.09,5.09,0,0,1,.4,1Zm-313-1.3L1,77.12a6.24,6.24,0,0,1,.7-.84l.7.71a5.09,5.09,0,0,0-.62.69Zm311.6-.93a4.58,4.58,0,0,0-.74-.5l.48-.88a5.48,5.48,0,0,1,.9.61ZM3.85,76l-.36-.93a5,5,0,0,1,1-.29l.18,1A4.73,4.73,0,0,0,3.85,76Zm307.08-.29H310v-1h1.05Zm-3,0h-1v-1h1Zm-3,0h-1v-1h1Zm-3,0h-1v-1h1Zm-3,0h-1v-1h1Zm-3,0h-1v-1h1Zm-3,0h-1v-1h1Zm-3,0h-1v-1h1Zm-3,0h-1v-1h1Zm-3,0h-1v-1h1Zm-3,0h-1v-1h1Zm-3,0h-1v-1h1Zm-3,0h-1v-1h1Zm-3,0h-1v-1h1Zm-3,0h-1v-1h1Zm-3,0h-1v-1h1Zm-3,0h-1v-1h1Zm-3,0h-1v-1h1Zm-3,0h-1v-1h1Zm-3,0h-1v-1h1Zm-3,0h-1v-1h1Zm-3,0h-1v-1h1Zm-3,0h-1v-1h1Zm-3,0h-1v-1h1Zm-3,0h-1v-1h1Zm-3,0h-1v-1h1Zm-3,0h-1v-1h1Zm-3,0h-1v-1h1Zm-3,0h-1v-1h1Zm-3,0h-1v-1h1Zm-3,0h-1v-1h1Zm-3,0h-1v-1h1Zm-3,0h-1v-1h1Zm-3,0h-1v-1h1Zm-3,0h-1v-1h1Zm-3,0h-1v-1h1Zm-3,0h-1v-1h1Zm-3,0h-1v-1h1Zm-3,0h-1v-1h1Zm-3,0h-1v-1h1Zm-3,0h-1v-1h1Zm-3,0h-1v-1h1Zm-3,0h-1v-1h1Zm-3,0h-1v-1h1Zm-3,0h-1v-1h1Zm-3,0h-1v-1h1Zm-3,0h-1v-1h1Zm-3,0h-1v-1h1Zm-3,0h-1v-1h1Zm-3,0h-1v-1h1Zm-3,0h-1v-1h1Zm-3,0h-1v-1h1Zm-3,0h-1v-1h1Zm-3,0h-1v-1h1Zm-3,0h-1v-1h1Zm-3,0h-1v-1h1Zm-3,0h-1v-1h1Zm-3,0h-1v-1h1Zm-3,0h-1v-1h1Zm-3,0h-1v-1h1Zm-3,0h-1v-1h1Zm-3,0h-1v-1h1Zm-3,0h-1v-1h1Zm-3,0h-1v-1h1Zm-3,0h-1v-1h1Zm-3,0h-1v-1h1Zm-3,0h-1v-1h1Zm-3,0h-1v-1h1Zm-3,0h-1v-1h1Zm-3,0h-1v-1h1Zm-3,0h-1v-1h1Zm-3,0h-1v-1h1Zm-3,0h-1v-1h1Zm-3,0h-1v-1h1Zm-3,0h-1v-1h1Zm-3,0h-1v-1h1Zm-3,0h-1v-1h1Zm-3,0h-1v-1h1Zm-3,0h-1v-1h1Zm-3,0h-1v-1h1Zm-3,0h-1v-1h1Zm-3,0h-1v-1h1Zm-3,0h-1v-1h1Zm-3,0h-1v-1h1Zm-3,0h-1v-1h1Zm-3,0h-1v-1h1Zm-3,0h-1v-1h1Zm-3,0h-1v-1h1Zm-3,0h-1v-1h1Zm-3,0h-1v-1h1Zm-3,0h-1v-1h1Zm-3,0h-1v-1h1Zm-3,0h-1v-1h1Zm-3,0h-1v-1h1Zm-3,0h-1v-1h1Zm-3,0h-1v-1h1Zm-3,0h-1v-1h1Zm-3,0h-1v-1h1Zm-3,0h-1v-1h1Zm-3,0h-1v-1h1Zm-3,0h-1v-1h1Zm-3,0h-1v-1h1Z"/><g id="ad94e297-0e86-4eaf-aac0-d146ee9aea65"><path class="cls-31" d="M54.12,83.24,49.43,78.4a2.28,2.28,0,0,1-.77.14,2.43,2.43,0,1,1,2.24-3.33h4.61v1.62H51a3.64,3.64,0,0,1-.25.57L55,81.86l2.34-3.56V67.12H54.22l4-4,4,4H59v8.73l5.93-9-6-6a1,1,0,0,0-1.41-.05l-.05.05h0L43,75.28a1,1,0,0,0,0,1.41l0,0h0l14.48,14.5-5.17-5.17Z"/><path class="cls-32" d="M57.37,83.45V78.28L55,81.86l1.72,1.85A1.68,1.68,0,0,1,57.37,83.45Z"/><path class="cls-32" d="M73.4,75.28l-8.48-8.47-5.93,9v7.62a1.57,1.57,0,0,1,.54.29l6.22-6.29a2.53,2.53,0,0,1-.31-.64H60.77V75.21h4.74a2.41,2.41,0,1,1,2.24,3.33,3.1,3.1,0,0,1-.68-.1L60.46,85.1a2.59,2.59,0,0,1,.1.62,2.43,2.43,0,1,1-4.84.44,2.18,2.18,0,0,1,0-.25,2.24,2.24,0,0,1,.13-.89l-1.72-1.73-1.85,2.76,5.17,5.17a1,1,0,0,0,1.41,0l0,0L73.36,76.75a1,1,0,0,0,0-1.41s0,0,0,0Z"/><path class="cls-33" d="M65.51,75.21H60.77v1.62h4.67A2.21,2.21,0,0,1,65.51,75.21Z"/><path class="cls-33" d="M51,76.83h4.55V75.21H50.9a2.54,2.54,0,0,1,.19.9A2.19,2.19,0,0,1,51,76.83Z"/><path class="cls-33" d="M60.46,85.1l6.61-6.66a2.44,2.44,0,0,1-1.32-1l-6.22,6.29A2.33,2.33,0,0,1,60.46,85.1Z"/><path class="cls-33" d="M56.81,83.71l-1.73-1.85L50.71,77.4a2.45,2.45,0,0,1-1.28,1l4.69,4.84L55.84,85A2.32,2.32,0,0,1,56.81,83.71Z"/><path class="cls-1" d="M62.13,67.12l-3.93-4-4,4h3.15V83.45a1.68,1.68,0,0,0-.56.26,2.38,2.38,0,0,0-1,1.31,2.41,2.41,0,0,0,4.62,1.39,2.3,2.3,0,0,0,.1-.69,2.59,2.59,0,0,0-.1-.62,2.36,2.36,0,0,0-.93-1.34,1.57,1.57,0,0,0-.54-.29V67.12ZM58.2,87.07a1.35,1.35,0,1,1,1.34-1.36h0a1.34,1.34,0,0,1-1.33,1.35Z"/><path class="cls-1" d="M50.71,77.4a3.64,3.64,0,0,0,.25-.57,2.48,2.48,0,0,0,.13-.72,2.54,2.54,0,0,0-.19-.9,2.42,2.42,0,1,0-2.24,3.33,2.28,2.28,0,0,0,.77-.14A2.45,2.45,0,0,0,50.71,77.4Zm-2.05,0A1.35,1.35,0,1,1,50,76v0h0a1.34,1.34,0,0,1-1.29,1.39h-.05Z"/><path class="cls-1" d="M67.07,78.44a3.1,3.1,0,0,0,.68.1,2.43,2.43,0,1,0-2.24-3.33,2.21,2.21,0,0,0-.07,1.62,2.53,2.53,0,0,0,.31.64A2.39,2.39,0,0,0,67.07,78.44Zm.68-3.66a1.33,1.33,0,1,1-.31,0A1.61,1.61,0,0,1,67.75,74.78Z"/><path class="cls-34" d="M58.2,84.38a1.35,1.35,0,1,0,1.34,1.36v0h0A1.34,1.34,0,0,0,58.2,84.38Z"/><circle class="cls-34" cx="48.66" cy="76.11" r="1.34"/><path class="cls-34" d="M67.75,77.45a1.34,1.34,0,1,0-1.35-1.34h0a1.34,1.34,0,0,0,1.34,1.34Z"/></g><g id="ad94e297-0e86-4eaf-aac0-d146ee9aea65-2"><path class="cls-31" d="M154.18,83.24l-4.69-4.84a2.28,2.28,0,0,1-.77.14A2.43,2.43,0,1,1,151,75.21h4.61v1.62H151a3.64,3.64,0,0,1-.25.57l4.32,4.46,2.34-3.56V67.12h-3.15l4-4,4,4H159.1v8.73l5.93-9-6-6a1,1,0,0,0-1.41-.05l-.05.05h0L143.06,75.28a1,1,0,0,0-.05,1.41l.05,0h0l14.48,14.48-5.17-5.17Z"/><path class="cls-32" d="M157.43,83.45V78.28l-2.34,3.58,1.72,1.85A1.61,1.61,0,0,1,157.43,83.45Z"/><path class="cls-32" d="M173.46,75.28,165,66.81l-5.93,9v7.62a2.16,2.16,0,0,1,.54.29l6.22-6.29a2.53,2.53,0,0,1-.31-.64h-4.67V75.21h4.74a2.41,2.41,0,1,1,2.23,3.33,3,3,0,0,1-.67-.1l-6.61,6.66a2.59,2.59,0,0,1,.1.62,2.43,2.43,0,1,1-4.84.44,2.18,2.18,0,0,1,0-.25,2.24,2.24,0,0,1,.13-.89l-1.72-1.73-1.85,2.76,5.17,5.17a1,1,0,0,0,1.41,0l0,0,14.47-14.47a1,1,0,0,0,.05-1.41s0,0-.05,0Z"/><path class="cls-33" d="M165.57,75.21h-4.74v1.62h4.67A2.21,2.21,0,0,1,165.57,75.21Z"/><path class="cls-33" d="M151,76.83h4.55V75.21H151a2.33,2.33,0,0,1,.18.9A2.24,2.24,0,0,1,151,76.83Z"/><path class="cls-33" d="M160.52,85.1l6.61-6.66a2.41,2.41,0,0,1-1.32-1l-6.22,6.29A2.33,2.33,0,0,1,160.52,85.1Z"/><path class="cls-33" d="M156.86,83.71l-1.72-1.85-4.37-4.46a2.45,2.45,0,0,1-1.28,1l4.69,4.84L155.9,85A2.39,2.39,0,0,1,156.86,83.71Z"/><path class="cls-1" d="M162.19,67.12l-3.93-4-4,4h3.15V83.45a1.73,1.73,0,0,0-.57.26,2.41,2.41,0,1,0,2.71,4,2.35,2.35,0,0,0,.95-1.28,2.25,2.25,0,0,0,0-1.31,2.36,2.36,0,0,0-.93-1.34,2.16,2.16,0,0,0-.54-.29V67.12Zm-3.93,19.95a1.35,1.35,0,1,1,1.34-1.36h0a1.34,1.34,0,0,1-1.33,1.35Z"/><path class="cls-1" d="M150.77,77.4a3.64,3.64,0,0,0,.25-.57,2.18,2.18,0,0,0,.12-.72,2.33,2.33,0,0,0-.18-.9,2.42,2.42,0,1,0-2.24,3.33,2.28,2.28,0,0,0,.77-.14A2.45,2.45,0,0,0,150.77,77.4Zm-2.05,0A1.35,1.35,0,1,1,150.06,76v0h0a1.34,1.34,0,0,1-1.29,1.39h-.05Z"/><path class="cls-1" d="M167.13,78.44a3,3,0,0,0,.67.1,2.43,2.43,0,1,0-2.23-3.33,2.21,2.21,0,0,0-.07,1.62,2.53,2.53,0,0,0,.31.64A2.39,2.39,0,0,0,167.13,78.44Zm.67-3.66a1.35,1.35,0,0,1,1.2,1.48h0a1.34,1.34,0,1,1-1.49-1.49A1.41,1.41,0,0,1,167.8,74.78Z"/><path class="cls-34" d="M158.26,84.38a1.35,1.35,0,1,0,1.34,1.36v0h0A1.34,1.34,0,0,0,158.26,84.38Z"/><circle class="cls-34" cx="148.72" cy="76.11" r="1.34"/><path class="cls-34" d="M167.8,77.45a1.34,1.34,0,1,0-1.34-1.34h0A1.34,1.34,0,0,0,167.8,77.45Z"/></g><g id="ad94e297-0e86-4eaf-aac0-d146ee9aea65-3"><path class="cls-31" d="M254.21,83.24l-4.68-4.84a2.29,2.29,0,0,1-.78.14A2.43,2.43,0,1,1,251,75.21h4.62v1.62h-4.55a3.68,3.68,0,0,1-.26.57l4.33,4.46,2.34-3.56V67.12h-3.15l4-4,3.94,4h-3.15v8.73l5.93-9-6-6a1,1,0,0,0-1.41-.05l-.05.05h0L243.1,75.28a1,1,0,0,0,0,1.41l0,0h0l14.47,14.48-5.17-5.17Z"/><path class="cls-32" d="M257.47,83.45V78.28l-2.34,3.58,1.72,1.85A1.61,1.61,0,0,1,257.47,83.45Z"/><path class="cls-32" d="M273.49,75.28,265,66.81l-5.93,9v7.62a1.83,1.83,0,0,1,.53.29l6.22-6.29a2.91,2.91,0,0,1-.31-.64h-4.67V75.21h4.74a2.42,2.42,0,1,1,2.24,3.33,3,3,0,0,1-.67-.1l-6.62,6.66a2.18,2.18,0,0,1,.11.62,2.43,2.43,0,0,1-4.86.21,2.55,2.55,0,0,1,.14-.91l-1.73-1.73-1.84,2.76,5.17,5.17a1,1,0,0,0,1.41,0l0,0,14.47-14.47a1,1,0,0,0,.05-1.41l-.05,0Z"/><path class="cls-33" d="M265.6,75.21h-4.74v1.62h4.67a2.93,2.93,0,0,1-.12-.72A2.3,2.3,0,0,1,265.6,75.21Z"/><path class="cls-33" d="M251.06,76.83h4.55V75.21H251a2.21,2.21,0,0,1,.07,1.62Z"/><path class="cls-33" d="M260.55,85.1l6.62-6.66a2.43,2.43,0,0,1-1.33-1l-6.22,6.29A2.27,2.27,0,0,1,260.55,85.1Z"/><path class="cls-33" d="M256.9,83.71l-1.72-1.85L250.8,77.4a2.46,2.46,0,0,1-1.27,1l4.68,4.84L255.94,85A2.35,2.35,0,0,1,256.9,83.71Z"/><path class="cls-1" d="M262.23,67.12l-3.93-4-4,4h3.15V83.45a1.73,1.73,0,0,0-.57.26,2.34,2.34,0,0,0-1,1.31,2.41,2.41,0,0,0,4.55,1.6l.06-.21a2.31,2.31,0,0,0,.11-.69,2.18,2.18,0,0,0-.11-.62,2.24,2.24,0,0,0-.93-1.34,1.83,1.83,0,0,0-.53-.29V67.12ZM258.3,87.07a1.35,1.35,0,1,1,1.34-1.36h0a1.34,1.34,0,0,1-1.33,1.35Z"/><path class="cls-1" d="M250.8,77.4a3.68,3.68,0,0,0,.26-.57,2.21,2.21,0,0,0-.07-1.62,2.41,2.41,0,1,0-2.24,3.33,2.29,2.29,0,0,0,.78-.14A2.46,2.46,0,0,0,250.8,77.4Zm-2.05,0a1.35,1.35,0,0,1,0-2.69,1.37,1.37,0,0,1,1.35,1.35h0a1.36,1.36,0,0,1-1.3,1.39h-.05Z"/><path class="cls-1" d="M267.17,78.44a3,3,0,0,0,.67.1,2.43,2.43,0,1,0-2.24-3.33,2.3,2.3,0,0,0-.19.9,2.53,2.53,0,0,0,.43,1.36A2.45,2.45,0,0,0,267.17,78.44Zm.67-3.66a1.34,1.34,0,1,1-1.49,1.5h0a1.35,1.35,0,0,1,1.19-1.49,1.5,1.5,0,0,1,.3,0Z"/><path class="cls-34" d="M258.3,84.38a1.35,1.35,0,1,0,1.34,1.36v0h0A1.34,1.34,0,0,0,258.3,84.38Z"/><circle class="cls-34" cx="248.75" cy="76.11" r="1.34"/><path class="cls-34" d="M267.84,77.45a1.34,1.34,0,1,0-1.34-1.34h0A1.34,1.34,0,0,0,267.84,77.45Z"/></g></g></g><g id="Text"><path class="cls-35" d="M52.21,31.92v3.17h-1v-8.4h2.3a3,3,0,0,1,2.09.66,2.31,2.31,0,0,1,.74,1.85,2.54,2.54,0,0,1-.82,2,3.18,3.18,0,0,1-2.22.76Zm0-4.34V31h1a2.33,2.33,0,0,0,1.56-.47,1.67,1.67,0,0,0,.53-1.31c0-1.11-.65-1.67-2-1.67Z"/><path class="cls-35" d="M58.93,35.09H58v-8.4h1Z"/><path class="cls-35" d="M62.12,31.92v3.17h-1v-8.4h2.31a3,3,0,0,1,2.09.66,2.34,2.34,0,0,1,.74,1.85,2.58,2.58,0,0,1-.82,2,3.19,3.19,0,0,1-2.23.76Zm0-4.34V31h1a2.3,2.3,0,0,0,1.55-.47,1.64,1.64,0,0,0,.54-1.31c0-1.11-.66-1.67-2-1.67Z"/><path class="cls-35" d="M55.17,48.25H54.08l-.89-2.36H49.63l-.84,2.36H47.7l3.22-8.41h1ZM52.87,45l-1.32-3.58a3.55,3.55,0,0,1-.13-.57h0a3.38,3.38,0,0,1-.14.57L50,45Z"/><path class="cls-35" d="M62.24,40.08l-4.92,7.28h4.81v.89H55.85V48l4.88-7.24H56.24v-.89h6Z"/><path class="cls-35" d="M66.74,48.25h-1V41a2,2,0,0,1-.32.25,5.06,5.06,0,0,1-.48.29l-.56.26a3.56,3.56,0,0,1-.58.19V41a6.12,6.12,0,0,0,.67-.24c.24-.1.47-.21.7-.33a6.82,6.82,0,0,0,.64-.39,5.23,5.23,0,0,0,.53-.39h.36Z"/><path class="cls-35" d="M152.13,31.92v3.17h-1v-8.4h2.31a3,3,0,0,1,2.09.66,2.34,2.34,0,0,1,.74,1.85,2.54,2.54,0,0,1-.82,2,3.19,3.19,0,0,1-2.23.76Zm0-4.34V31h1a2.28,2.28,0,0,0,1.55-.47,1.64,1.64,0,0,0,.54-1.31c0-1.11-.66-1.67-2-1.67Z"/><path class="cls-35" d="M158.85,35.09h-1v-8.4h1Z"/><path class="cls-35" d="M162,31.92v3.17h-1v-8.4h2.3a3,3,0,0,1,2.09.66,2.31,2.31,0,0,1,.74,1.85,2.54,2.54,0,0,1-.82,2,3.18,3.18,0,0,1-2.22.76Zm0-4.34V31h1a2.33,2.33,0,0,0,1.56-.47,1.67,1.67,0,0,0,.53-1.31c0-1.11-.65-1.67-2-1.67Z"/><path class="cls-35" d="M155.09,48.25H154l-.89-2.36h-3.57l-.83,2.36h-1.1l3.22-8.41h1ZM152.78,45l-1.31-3.58a2.71,2.71,0,0,1-.13-.57h0a3.51,3.51,0,0,1-.13.57L149.87,45Z"/><path class="cls-35" d="M162.16,40.08l-4.92,7.28H162v.89h-6.27V48l4.88-7.24h-4.49v-.89h6Z"/><path class="cls-35" d="M166.94,42.05a1.76,1.76,0,0,0-.12-.68,1.25,1.25,0,0,0-.33-.47,1.28,1.28,0,0,0-.49-.29,2,2,0,0,0-.61-.09,2.08,2.08,0,0,0-.55.07,2.57,2.57,0,0,0-.52.21,3,3,0,0,0-.49.33,3.47,3.47,0,0,0-.45.41v-1a3,3,0,0,1,.91-.6,3.14,3.14,0,0,1,1.22-.21,3,3,0,0,1,1,.15,2.3,2.3,0,0,1,.76.44,2.19,2.19,0,0,1,.51.71,2.42,2.42,0,0,1,.18,1,3.6,3.6,0,0,1-.11.91,3.08,3.08,0,0,1-.35.76,3.33,3.33,0,0,1-.58.68,7.54,7.54,0,0,1-.83.67c-.39.28-.72.52-1,.72a4.34,4.34,0,0,0-.61.56,1.75,1.75,0,0,0-.32.52,1.89,1.89,0,0,0-.09.6h4.18v.87h-5.18v-.42a3.82,3.82,0,0,1,.11-.95,2.59,2.59,0,0,1,.39-.78,4.83,4.83,0,0,1,.71-.74c.29-.24.64-.52,1.07-.83a6.69,6.69,0,0,0,.76-.63,3.27,3.27,0,0,0,.5-.59,2.16,2.16,0,0,0,.26-.61A2.32,2.32,0,0,0,166.94,42.05Z"/><path class="cls-35" d="M18.13,10.16H17l-.89-2.35H12.58l-.83,2.35h-1.1l3.22-8.4h1ZM15.82,6.92,14.51,3.34a2.59,2.59,0,0,1-.13-.56h0a3.36,3.36,0,0,1-.13.56L12.91,6.92Z"/><path class="cls-35" d="M25.2,2,20.28,9.27h4.8v.89H18.81V9.89l4.88-7.24H19.2V1.76h6Z"/><path class="cls-35" d="M29.7,10.16h-1V2.9a2.11,2.11,0,0,1-.33.26,5.1,5.1,0,0,1-.48.28c-.18.09-.36.18-.56.26a3.63,3.63,0,0,1-.58.2v-1a5.46,5.46,0,0,0,.67-.24,6.44,6.44,0,0,0,.7-.34c.23-.12.44-.25.65-.38a6.62,6.62,0,0,0,.53-.4h.36Z"/><path class="cls-35" d="M118.17,10.16h-1.09l-.89-2.35h-3.56l-.84,2.35h-1.1l3.22-8.4h1Zm-2.3-3.24-1.32-3.58a2.59,2.59,0,0,1-.13-.56h0a3.23,3.23,0,0,1-.14.56L113,6.92Z"/><path class="cls-35" d="M125.24,2l-4.92,7.28h4.8v.89h-6.27V9.89l4.88-7.24h-4.49V1.76h6Z"/><path class="cls-35" d="M130,4a1.71,1.71,0,0,0-.12-.67,1.37,1.37,0,0,0-.33-.48,1.19,1.19,0,0,0-.49-.28,1.68,1.68,0,0,0-.6-.1,2.1,2.1,0,0,0-.56.08,2.57,2.57,0,0,0-.52.21,3.74,3.74,0,0,0-.49.32,3.51,3.51,0,0,0-.44.42v-1a2.84,2.84,0,0,1,.9-.6,3.14,3.14,0,0,1,1.22-.21,3,3,0,0,1,1,.15,2.27,2.27,0,0,1,.76.43,2.3,2.3,0,0,1,.51.71,2.47,2.47,0,0,1,.18,1,3.58,3.58,0,0,1-.11.9,2.92,2.92,0,0,1-.35.76,3.67,3.67,0,0,1-.58.69,8.92,8.92,0,0,1-.83.67c-.39.28-.72.52-1,.72a3.81,3.81,0,0,0-.61.56,1.63,1.63,0,0,0-.32.52,1.8,1.8,0,0,0-.09.6h4.18v.86h-5.18V9.75a3.82,3.82,0,0,1,.11-.95,2.38,2.38,0,0,1,.39-.78,4.07,4.07,0,0,1,.71-.74c.29-.25.64-.52,1.07-.83a6.69,6.69,0,0,0,.76-.63,3.31,3.31,0,0,0,.5-.6,2.23,2.23,0,0,0,.26-.6A2.39,2.39,0,0,0,130,4Z"/><path class="cls-35" d="M252.17,31.92v3.17h-1v-8.4h2.31a3,3,0,0,1,2.09.66,2.31,2.31,0,0,1,.74,1.85,2.54,2.54,0,0,1-.82,2,3.18,3.18,0,0,1-2.22.76Zm0-4.34V31h1a2.33,2.33,0,0,0,1.56-.47,1.67,1.67,0,0,0,.53-1.31c0-1.11-.65-1.67-2-1.67Z"/><path class="cls-35" d="M258.89,35.09h-1v-8.4h1Z"/><path class="cls-35" d="M262.08,31.92v3.17h-1v-8.4h2.31a3,3,0,0,1,2.09.66,2.34,2.34,0,0,1,.74,1.85,2.55,2.55,0,0,1-.83,2,3.16,3.16,0,0,1-2.22.76Zm0-4.34V31h1a2.33,2.33,0,0,0,1.56-.47,1.64,1.64,0,0,0,.54-1.31c0-1.11-.66-1.67-2-1.67Z"/><path class="cls-35" d="M255.13,48.25H254l-.89-2.36h-3.56l-.84,2.36h-1.1l3.23-8.41h1ZM252.83,45l-1.32-3.58a3.55,3.55,0,0,1-.13-.57h0a3.38,3.38,0,0,1-.14.57L249.92,45Z"/><path class="cls-35" d="M262.2,40.08l-4.92,7.28h4.8v.89h-6.27V48l4.88-7.24H256.2v-.89h6Z"/><path class="cls-35" d="M268,45.87a2.46,2.46,0,0,1-.21,1,2.25,2.25,0,0,1-.6.8,2.74,2.74,0,0,1-.94.51,3.78,3.78,0,0,1-1.2.18,3.53,3.53,0,0,1-1.91-.45v-1a3.06,3.06,0,0,0,1.95.67,2.79,2.79,0,0,0,.79-.11,1.69,1.69,0,0,0,.61-.32,1.39,1.39,0,0,0,.39-.51,1.65,1.65,0,0,0,.14-.68c0-1.09-.78-1.64-2.34-1.64H264v-.82h.66c1.38,0,2.07-.51,2.07-1.54s-.52-1.43-1.58-1.43a2.7,2.7,0,0,0-1.67.6v-.94a3.66,3.66,0,0,1,1.91-.48,2.93,2.93,0,0,1,1,.15,2.16,2.16,0,0,1,.73.41,1.93,1.93,0,0,1,.47.63,2,2,0,0,1,.17.82,2.06,2.06,0,0,1-1.68,2.13v0a2.49,2.49,0,0,1,.79.21,2,2,0,0,1,.63.42,1.73,1.73,0,0,1,.41.61A1.92,1.92,0,0,1,268,45.87Z"/><path class="cls-35" d="M83.26,90.26H82.17l-.89-2.35H77.72l-.84,2.35h-1.1L79,81.86h1ZM81,87l-1.32-3.58a3.38,3.38,0,0,1-.13-.56h0a3.23,3.23,0,0,1-.14.56L78.05,87Z"/><path class="cls-35" d="M90.33,82.09l-4.92,7.28h4.81v.89H83.94V90l4.88-7.24H84.33v-.89h6Z"/><path class="cls-35" d="M94.83,90.26h-1V83a2,2,0,0,1-.32.26l-.48.28c-.18.09-.37.18-.57.26a3.54,3.54,0,0,1-.57.2V83a6.12,6.12,0,0,0,.67-.24,7.48,7.48,0,0,0,.7-.34c.22-.12.44-.25.64-.38a5.2,5.2,0,0,0,.53-.4h.36Z"/><path class="cls-35" d="M36.59,203.28H35.5l-.89-2.35H31l-.83,2.35h-1.1l3.22-8.4h1ZM34.28,200,33,196.46a2.44,2.44,0,0,1-.13-.56h0a3.13,3.13,0,0,1-.13.56L31.37,200Z"/><path class="cls-35" d="M43.66,195.11l-4.92,7.28h4.8v.89H37.27V203l4.88-7.24H37.66v-.89h6Z"/><path class="cls-35" d="M48.16,203.28h-1V196a2.11,2.11,0,0,1-.33.26,5.1,5.1,0,0,1-.48.28,5.85,5.85,0,0,1-.56.27,4.89,4.89,0,0,1-.58.19v-1a5.46,5.46,0,0,0,.67-.24,6.44,6.44,0,0,0,.7-.34c.23-.12.45-.25.65-.38a6.62,6.62,0,0,0,.53-.4h.36Z"/><path class="cls-35" d="M183.18,90.26h-1.09l-.89-2.35h-3.57l-.83,2.35h-1.1l3.22-8.4h1ZM180.87,87l-1.31-3.58a2.59,2.59,0,0,1-.13-.56h0a3.36,3.36,0,0,1-.13.56L178,87Z"/><path class="cls-35" d="M190.25,82.09l-4.92,7.28h4.8v.89h-6.27V90l4.88-7.24h-4.49v-.89h6Z"/><path class="cls-35" d="M195,84.06a1.71,1.71,0,0,0-.12-.67,1.37,1.37,0,0,0-.33-.48,1.26,1.26,0,0,0-.49-.28,1.7,1.7,0,0,0-.61-.1,2.09,2.09,0,0,0-.55.08,2.57,2.57,0,0,0-.52.21,3.17,3.17,0,0,0-.49.32,4.47,4.47,0,0,0-.45.42v-1a2.88,2.88,0,0,1,.91-.6,3.14,3.14,0,0,1,1.22-.21,3,3,0,0,1,1,.15,2.27,2.27,0,0,1,.76.43,2.12,2.12,0,0,1,.5.71,2.3,2.3,0,0,1,.19,1,3.16,3.16,0,0,1-.12.9,2.6,2.6,0,0,1-.34.76,4.09,4.09,0,0,1-.58.69,8.92,8.92,0,0,1-.83.67l-1,.72a4.94,4.94,0,0,0-.61.56,1.59,1.59,0,0,0-.31.52,1.8,1.8,0,0,0-.09.6h4.18v.86h-5.18v-.41a3.4,3.4,0,0,1,.11-.95,2.38,2.38,0,0,1,.39-.78,3.75,3.75,0,0,1,.71-.74c.29-.25.64-.52,1.06-.83a6.87,6.87,0,0,0,.77-.63,3.23,3.23,0,0,0,.49-.6,2,2,0,0,0,.27-.6A2.84,2.84,0,0,0,195,84.06Z"/><path class="cls-35" d="M283.22,90.26h-1.09l-.89-2.35h-3.56l-.84,2.35h-1.1l3.22-8.4h1ZM280.92,87l-1.32-3.58a2.59,2.59,0,0,1-.13-.56h0a3.23,3.23,0,0,1-.14.56L278,87Z"/><path class="cls-35" d="M290.29,82.09l-4.92,7.28h4.8v.89H283.9V90l4.88-7.24h-4.49v-.89h6Z"/><path class="cls-35" d="M296.13,87.88a2.51,2.51,0,0,1-.21,1,2.22,2.22,0,0,1-.6.79,2.85,2.85,0,0,1-.94.52,3.78,3.78,0,0,1-1.2.18,3.44,3.44,0,0,1-1.91-.46v-1a3,3,0,0,0,1.94.67,2.81,2.81,0,0,0,.8-.11,1.88,1.88,0,0,0,.61-.33,1.39,1.39,0,0,0,.39-.51,1.57,1.57,0,0,0,.14-.67c0-1.1-.78-1.65-2.35-1.65h-.69v-.81h.66c1.38,0,2.07-.52,2.07-1.55s-.52-1.43-1.58-1.43a2.7,2.7,0,0,0-1.67.6V82.2a3.66,3.66,0,0,1,1.91-.48,2.93,2.93,0,0,1,1,.15,2,2,0,0,1,.73.41,1.74,1.74,0,0,1,.47.63,2,2,0,0,1,.17.81,2.06,2.06,0,0,1-1.68,2.14v0a2.49,2.49,0,0,1,.79.21,1.83,1.83,0,0,1,.63.42,1.78,1.78,0,0,1,.41.6A1.92,1.92,0,0,1,296.13,87.88Z"/><path class="cls-35" d="M218.21,10.16h-1.09l-.89-2.35h-3.56l-.84,2.35h-1.1L214,1.76h1Zm-2.3-3.24-1.32-3.58a3.38,3.38,0,0,1-.13-.56h0a3.23,3.23,0,0,1-.14.56L213,6.92Z"/><path class="cls-35" d="M225.28,2l-4.92,7.28h4.81v.89h-6.28V9.89l4.88-7.24h-4.49V1.76h6Z"/><path class="cls-35" d="M231.13,7.78a2.51,2.51,0,0,1-.22,1,2.22,2.22,0,0,1-.6.79,2.76,2.76,0,0,1-.94.52,3.78,3.78,0,0,1-1.2.18,3.44,3.44,0,0,1-1.91-.46v-1a3.12,3.12,0,0,0,2,.67,2.79,2.79,0,0,0,.79-.11,1.88,1.88,0,0,0,.61-.33,1.39,1.39,0,0,0,.39-.51,1.57,1.57,0,0,0,.14-.67q0-1.65-2.34-1.65h-.7V5.41h.66c1.38,0,2.08-.52,2.08-1.55s-.53-1.43-1.59-1.43a2.7,2.7,0,0,0-1.67.6V2.1a3.69,3.69,0,0,1,1.91-.48,3.18,3.18,0,0,1,1,.14,2.18,2.18,0,0,1,.73.42,1.74,1.74,0,0,1,.47.63,2,2,0,0,1,.17.81,2.06,2.06,0,0,1-1.68,2.14v0a2.62,2.62,0,0,1,.8.21,2,2,0,0,1,1,1A1.92,1.92,0,0,1,231.13,7.78Z"/><path class="cls-35" d="M129,134.74v-1.2a2.33,2.33,0,0,0,.49.33,3.13,3.13,0,0,0,.6.24,4.85,4.85,0,0,0,.63.16,3.13,3.13,0,0,0,.59,0,2.24,2.24,0,0,0,1.39-.35,1.19,1.19,0,0,0,.46-1,1.2,1.2,0,0,0-.16-.61,1.58,1.58,0,0,0-.42-.48,4.17,4.17,0,0,0-.64-.41l-.79-.42c-.3-.15-.58-.31-.84-.47a3.3,3.3,0,0,1-.68-.52,2.1,2.1,0,0,1-.45-.65,2,2,0,0,1-.17-.84,2,2,0,0,1,.26-1,2.23,2.23,0,0,1,.68-.72,3,3,0,0,1,1-.43,4.54,4.54,0,0,1,1.1-.14,4.08,4.08,0,0,1,1.85.31v1.15a3.3,3.3,0,0,0-1.95-.54,3.7,3.7,0,0,0-.66.07,2.07,2.07,0,0,0-.59.23,1.37,1.37,0,0,0-.42.41,1.07,1.07,0,0,0-.16.61,1.26,1.26,0,0,0,.12.57,1.49,1.49,0,0,0,.36.45,4.31,4.31,0,0,0,.59.39l.79.41c.31.15.6.31.88.48a3.77,3.77,0,0,1,.72.57,2.34,2.34,0,0,1,.5.68,2,2,0,0,1,.18.87,2.17,2.17,0,0,1-.25,1.09,2,2,0,0,1-.67.72,3,3,0,0,1-1,.41,5.52,5.52,0,0,1-1.17.12l-.5,0c-.2,0-.41-.06-.61-.1a3.39,3.39,0,0,1-.59-.16A1.58,1.58,0,0,1,129,134.74Z"/><path class="cls-35" d="M140.7,135.1h-1v-1h0a2,2,0,0,1-1.9,1.13c-1.46,0-2.19-.88-2.19-2.65v-3.71h1v3.56c0,1.31.5,2,1.49,2a1.53,1.53,0,0,0,1.19-.53,2.08,2.08,0,0,0,.46-1.41v-3.58h1Z"/><path class="cls-35" d="M143.65,134.2h0v.9h-1v-9.21h1V130h0a2.32,2.32,0,0,1,2.12-1.24,2.26,2.26,0,0,1,1.86.84,3.48,3.48,0,0,1,.66,2.23,3.88,3.88,0,0,1-.75,2.5,2.47,2.47,0,0,1-2,.94A2,2,0,0,1,143.65,134.2Zm0-2.51v.87a1.87,1.87,0,0,0,.49,1.31,1.66,1.66,0,0,0,1.26.53,1.64,1.64,0,0,0,1.4-.69,3.17,3.17,0,0,0,.51-1.92,2.49,2.49,0,0,0-.48-1.63,1.55,1.55,0,0,0-1.28-.59,1.75,1.75,0,0,0-1.38.6A2.24,2.24,0,0,0,143.63,131.69Z"/><path class="cls-35" d="M153,132H149.7v-.78H153Z"/><path class="cls-35" d="M157.91,129.89a1.14,1.14,0,0,0-.74-.21,1.27,1.27,0,0,0-1.06.61,2.8,2.8,0,0,0-.42,1.64v3.17h-1v-6.22h1v1.28h0a2.12,2.12,0,0,1,.65-1,1.41,1.41,0,0,1,1-.37,1.78,1.78,0,0,1,.59.08Z"/><path class="cls-35" d="M163.88,132.24h-4.34a2.37,2.37,0,0,0,.55,1.6,1.88,1.88,0,0,0,1.45.56,3,3,0,0,0,1.91-.69v.94a3.57,3.57,0,0,1-2.14.59,2.58,2.58,0,0,1-2.05-.85,3.51,3.51,0,0,1-.74-2.38,3.44,3.44,0,0,1,.81-2.37,2.64,2.64,0,0,1,2-.91,2.29,2.29,0,0,1,1.87.79,3.33,3.33,0,0,1,.66,2.19Zm-1-.85a2,2,0,0,0-.41-1.34,1.4,1.4,0,0,0-1.13-.48,1.61,1.61,0,0,0-1.18.5,2.38,2.38,0,0,0-.6,1.32Z"/><path class="cls-35" d="M170.57,135.1h-1V134h0a2.26,2.26,0,0,1-2.11,1.2,2.3,2.3,0,0,1-1.85-.83,3.49,3.49,0,0,1-.69-2.28,3.71,3.71,0,0,1,.77-2.47,2.51,2.51,0,0,1,2-.93,2,2,0,0,1,1.84,1h0v-3.85h1Zm-1-2.82v-.91a1.82,1.82,0,0,0-.49-1.28,1.65,1.65,0,0,0-1.25-.52,1.7,1.7,0,0,0-1.42.67,3,3,0,0,0-.51,1.84,2.65,2.65,0,0,0,.49,1.7,1.59,1.59,0,0,0,1.33.62,1.66,1.66,0,0,0,1.33-.6A2.21,2.21,0,0,0,169.59,132.28Z"/><path class="cls-35" d="M177.46,132.24h-4.33a2.32,2.32,0,0,0,.55,1.6,1.86,1.86,0,0,0,1.45.56,3,3,0,0,0,1.91-.69v.94a3.59,3.59,0,0,1-2.14.59,2.58,2.58,0,0,1-2.05-.85,4,4,0,0,1,.07-4.75,2.61,2.61,0,0,1,2-.91,2.28,2.28,0,0,1,1.86.79,3.33,3.33,0,0,1,.66,2.19Zm-1-.85a2.08,2.08,0,0,0-.42-1.34,1.38,1.38,0,0,0-1.12-.48,1.59,1.59,0,0,0-1.18.5,2.25,2.25,0,0,0-.6,1.32Z"/><path class="cls-35" d="M182.37,135.1v-8.71h2.45a2.62,2.62,0,0,1,1.77.55,1.79,1.79,0,0,1,.66,1.44,2.19,2.19,0,0,1-.4,1.29,2.16,2.16,0,0,1-1.09.77v0a2.2,2.2,0,0,1,1.39.66,2.06,2.06,0,0,1,.52,1.46,2.27,2.27,0,0,1-.79,1.81,2.94,2.94,0,0,1-2,.7Zm1-7.79v2.81h1a2,2,0,0,0,1.31-.4,1.43,1.43,0,0,0,.47-1.14c0-.85-.55-1.27-1.65-1.27Zm0,3.73v3.13h1.37a2.07,2.07,0,0,0,1.38-.42,1.49,1.49,0,0,0,.49-1.17c0-1-.7-1.54-2.08-1.54Z"/><path class="cls-35" d="M28.47,134.93v-1.2a2.62,2.62,0,0,0,.49.33,3.13,3.13,0,0,0,.6.24,4.85,4.85,0,0,0,.63.16,3.13,3.13,0,0,0,.59,0,2.24,2.24,0,0,0,1.39-.35,1.19,1.19,0,0,0,.46-1,1.09,1.09,0,0,0-.16-.61,1.58,1.58,0,0,0-.42-.48,4.17,4.17,0,0,0-.64-.41c-.24-.14-.51-.27-.79-.42s-.58-.31-.84-.47a3.3,3.3,0,0,1-.68-.52,2.23,2.23,0,0,1-.45-.65,2,2,0,0,1-.17-.84,2,2,0,0,1,.26-1,2.23,2.23,0,0,1,.68-.72,2.83,2.83,0,0,1,.95-.43,4.54,4.54,0,0,1,1.1-.14,4.05,4.05,0,0,1,1.85.31v1.15a3.3,3.3,0,0,0-1.95-.54,3.7,3.7,0,0,0-.66.07,2.07,2.07,0,0,0-.59.23,1.37,1.37,0,0,0-.42.41,1.07,1.07,0,0,0-.16.61,1.26,1.26,0,0,0,.12.57,1.49,1.49,0,0,0,.36.45,3.54,3.54,0,0,0,.59.38l.79.42c.31.15.6.31.88.48a3.48,3.48,0,0,1,.72.57,2.34,2.34,0,0,1,.5.68,2,2,0,0,1,.18.87,2.17,2.17,0,0,1-.25,1.09,2,2,0,0,1-.67.72,2.93,2.93,0,0,1-1,.41,5.52,5.52,0,0,1-1.17.12l-.5,0-.61-.1a4.59,4.59,0,0,1-.59-.16A1.58,1.58,0,0,1,28.47,134.93Z"/><path class="cls-35" d="M40.2,135.28h-1v-1h0a2,2,0,0,1-1.9,1.13c-1.46,0-2.19-.88-2.19-2.65v-3.71h1v3.55c0,1.32.49,2,1.48,2a1.5,1.5,0,0,0,1.19-.54,2,2,0,0,0,.46-1.4v-3.58h1Z"/><path class="cls-35" d="M43.15,134.39h0v.89h-1v-9.2h1v4.08h0a2.32,2.32,0,0,1,2.13-1.24,2.25,2.25,0,0,1,1.85.84A3.49,3.49,0,0,1,47.8,132a3.88,3.88,0,0,1-.75,2.5,2.49,2.49,0,0,1-2.06.94A2,2,0,0,1,43.15,134.39Zm0-2.51v.87a1.83,1.83,0,0,0,.49,1.3,1.75,1.75,0,0,0,2.66-.15,3.17,3.17,0,0,0,.51-1.92,2.49,2.49,0,0,0-.48-1.63,1.53,1.53,0,0,0-1.28-.59,1.75,1.75,0,0,0-1.38.6A2.24,2.24,0,0,0,43.13,131.88Z"/><path class="cls-35" d="M52.47,132.21H49.2v-.78h3.27Z"/><path class="cls-35" d="M57.41,130.07a1.21,1.21,0,0,0-.74-.2,1.26,1.26,0,0,0-1.06.61,2.8,2.8,0,0,0-.42,1.64v3.16h-1v-6.21h1v1.28h0a2.2,2.2,0,0,1,.65-1,1.47,1.47,0,0,1,1-.36,1.78,1.78,0,0,1,.59.08Z"/><path class="cls-35" d="M63.38,132.42H59a2.38,2.38,0,0,0,.55,1.61,1.93,1.93,0,0,0,1.45.56A3,3,0,0,0,63,133.9v.94a3.57,3.57,0,0,1-2.14.59,2.54,2.54,0,0,1-2-.85,4,4,0,0,1,.06-4.75,2.64,2.64,0,0,1,2-.91,2.29,2.29,0,0,1,1.87.79,3.33,3.33,0,0,1,.66,2.19Zm-1-.84a2,2,0,0,0-.41-1.34,1.4,1.4,0,0,0-1.13-.48,1.61,1.61,0,0,0-1.18.5,2.38,2.38,0,0,0-.6,1.32Z"/><path class="cls-35" d="M70.07,135.28h-1v-1.05h0a2.26,2.26,0,0,1-2.11,1.2,2.3,2.3,0,0,1-1.85-.83,3.49,3.49,0,0,1-.69-2.28,3.76,3.76,0,0,1,.77-2.47,2.51,2.51,0,0,1,2-.93,2,2,0,0,1,1.84,1h0v-3.85h1Zm-1-2.81v-.91a1.82,1.82,0,0,0-.49-1.28,1.65,1.65,0,0,0-1.25-.52,1.7,1.7,0,0,0-1.42.67,3,3,0,0,0-.51,1.84,2.67,2.67,0,0,0,.49,1.7,1.6,1.6,0,0,0,1.33.62,1.69,1.69,0,0,0,1.34-.6A2.27,2.27,0,0,0,69.09,132.47Z"/><path class="cls-35" d="M77,132.42H72.63a2.33,2.33,0,0,0,.55,1.61,1.9,1.9,0,0,0,1.45.56,3,3,0,0,0,1.91-.69v.94a3.59,3.59,0,0,1-2.14.59,2.58,2.58,0,0,1-2.05-.85,4,4,0,0,1,.07-4.75,2.61,2.61,0,0,1,2-.91,2.28,2.28,0,0,1,1.86.79A3.33,3.33,0,0,1,77,131.9Zm-1-.84a2.08,2.08,0,0,0-.41-1.34,1.4,1.4,0,0,0-1.13-.48,1.59,1.59,0,0,0-1.18.5,2.31,2.31,0,0,0-.6,1.32Z"/><path class="cls-35" d="M88.53,135.28H87.42l-.91-2.44H82.86L82,135.28H80.88l3.3-8.7h1Zm-2.35-3.35-1.35-3.71a3.69,3.69,0,0,1-.14-.59h0a3.69,3.69,0,0,1-.14.59l-1.34,3.71Z"/><path class="cls-35" d="M228.7,134.74v-1.2a2.33,2.33,0,0,0,.49.33,3.13,3.13,0,0,0,.6.24,4.85,4.85,0,0,0,.63.16,3.13,3.13,0,0,0,.59,0,2.24,2.24,0,0,0,1.39-.35,1.18,1.18,0,0,0,.45-1,1.2,1.2,0,0,0-.15-.61,1.58,1.58,0,0,0-.42-.48,4.17,4.17,0,0,0-.64-.41l-.8-.42c-.3-.15-.58-.31-.84-.47a3.52,3.52,0,0,1-.67-.52,2,2,0,0,1-.46-.65,2,2,0,0,1-.16-.84,1.94,1.94,0,0,1,.26-1,2.23,2.23,0,0,1,.68-.72,2.85,2.85,0,0,1,.95-.43,4.54,4.54,0,0,1,1.1-.14,4.11,4.11,0,0,1,1.85.31v1.15a3.31,3.31,0,0,0-2-.54,3.8,3.8,0,0,0-.66.07,2,2,0,0,0-.58.23,1.27,1.27,0,0,0-.42.41,1.07,1.07,0,0,0-.17.61,1.26,1.26,0,0,0,.13.57,1.49,1.49,0,0,0,.36.45,4.31,4.31,0,0,0,.59.39l.79.41c.31.15.6.31.88.48a4.11,4.11,0,0,1,.72.57,2.34,2.34,0,0,1,.5.68,2,2,0,0,1,.18.87,2.17,2.17,0,0,1-.25,1.09,2,2,0,0,1-.67.72,3,3,0,0,1-1,.41,5.36,5.36,0,0,1-1.16.12l-.5,0c-.2,0-.41-.06-.61-.1a3.77,3.77,0,0,1-.6-.16A1.64,1.64,0,0,1,228.7,134.74Z"/><path class="cls-35" d="M240.42,135.1h-1v-1h0a2,2,0,0,1-1.9,1.13c-1.46,0-2.19-.88-2.19-2.65v-3.71h1v3.56c0,1.31.5,2,1.49,2a1.53,1.53,0,0,0,1.19-.53,2.08,2.08,0,0,0,.46-1.41v-3.58h1Z"/><path class="cls-35" d="M243.38,134.2h0v.9h-1v-9.21h1V130h0a2.31,2.31,0,0,1,2.12-1.24,2.22,2.22,0,0,1,1.85.84,3.43,3.43,0,0,1,.67,2.23,3.88,3.88,0,0,1-.75,2.5,2.47,2.47,0,0,1-2.05.94A2,2,0,0,1,243.38,134.2Zm0-2.51v.87a1.87,1.87,0,0,0,.49,1.31,1.76,1.76,0,0,0,2.66-.16,3.17,3.17,0,0,0,.51-1.92,2.49,2.49,0,0,0-.48-1.63,1.55,1.55,0,0,0-1.28-.59,1.75,1.75,0,0,0-1.38.6A2.24,2.24,0,0,0,243.36,131.69Z"/><path class="cls-35" d="M252.7,132h-3.27v-.78h3.27Z"/><path class="cls-35" d="M257.64,129.89a1.16,1.16,0,0,0-.75-.21,1.26,1.26,0,0,0-1,.61,2.8,2.8,0,0,0-.42,1.64v3.17h-1v-6.22h1v1.28h0a2.18,2.18,0,0,1,.64-1,1.44,1.44,0,0,1,1-.37,1.78,1.78,0,0,1,.59.08Z"/><path class="cls-35" d="M263.61,132.24h-4.34a2.37,2.37,0,0,0,.55,1.6,1.88,1.88,0,0,0,1.45.56,3,3,0,0,0,1.91-.69v.94a3.57,3.57,0,0,1-2.14.59,2.58,2.58,0,0,1-2.05-.85,3.51,3.51,0,0,1-.74-2.38,3.44,3.44,0,0,1,.81-2.37,2.62,2.62,0,0,1,2-.91,2.3,2.3,0,0,1,1.87.79,3.33,3.33,0,0,1,.66,2.19Zm-1-.85a2.08,2.08,0,0,0-.41-1.34,1.4,1.4,0,0,0-1.13-.48,1.59,1.59,0,0,0-1.18.5,2.38,2.38,0,0,0-.6,1.32Z"/><path class="cls-35" d="M270.3,135.1h-1V134h0a2.26,2.26,0,0,1-2.11,1.2,2.3,2.3,0,0,1-1.85-.83,3.49,3.49,0,0,1-.69-2.28,3.76,3.76,0,0,1,.76-2.47,2.54,2.54,0,0,1,2.05-.93,2,2,0,0,1,1.84,1h0v-3.85h1Zm-1-2.82v-.91a1.79,1.79,0,0,0-.5-1.28,1.61,1.61,0,0,0-1.24-.52,1.68,1.68,0,0,0-1.42.67,3,3,0,0,0-.52,1.84,2.65,2.65,0,0,0,.5,1.7,1.59,1.59,0,0,0,1.33.62,1.66,1.66,0,0,0,1.33-.6A2.26,2.26,0,0,0,269.32,132.28Z"/><path class="cls-35" d="M277.19,132.24h-4.34a2.33,2.33,0,0,0,.56,1.6,1.86,1.86,0,0,0,1.45.56,3,3,0,0,0,1.91-.69v.94a3.6,3.6,0,0,1-2.15.59,2.56,2.56,0,0,1-2-.85,4,4,0,0,1,.07-4.75,2.61,2.61,0,0,1,2-.91,2.28,2.28,0,0,1,1.86.79,3.33,3.33,0,0,1,.66,2.19Zm-1-.85a2,2,0,0,0-.41-1.34,1.38,1.38,0,0,0-1.12-.48,1.58,1.58,0,0,0-1.18.5,2.25,2.25,0,0,0-.6,1.32Z"/><path class="cls-35" d="M288,134.73a5,5,0,0,1-2.38.51,3.81,3.81,0,0,1-2.94-1.2,4.44,4.44,0,0,1-1.1-3.13,4.65,4.65,0,0,1,1.24-3.38,4.19,4.19,0,0,1,3.15-1.29,5,5,0,0,1,2,.36v1.09a4.08,4.08,0,0,0-2-.53,3.1,3.1,0,0,0-2.4,1,3.76,3.76,0,0,0-.93,2.67,3.59,3.59,0,0,0,.87,2.54,2.89,2.89,0,0,0,2.25.94,4.19,4.19,0,0,0,2.25-.58Z"/><path class="cls-35" d="M37.87,181.6l-3.13,8.54H33.66L30.6,181.6h1.1L34,188.37a3.72,3.72,0,0,1,.17.76h0a3.59,3.59,0,0,1,.19-.77l2.38-6.76Z"/><path class="cls-35" d="M47.64,190.14h-1v-5.73c0-.45,0-1,.08-1.66h0a7,7,0,0,1-.25.83l-2.89,6.56H43.1l-2.87-6.51a4.6,4.6,0,0,1-.26-.88h0c0,.34,0,.9,0,1.68v5.71H39V181.6h1.31l2.59,6a7.91,7.91,0,0,1,.39,1h0c.17-.47.3-.82.41-1.05l2.64-5.93h1.23Z"/><path class="cls-35" d="M73.25,203.28H72.16l-.89-2.35H67.71l-.84,2.35h-1.1l3.23-8.4h1ZM71,200l-1.32-3.58a3.14,3.14,0,0,1-.13-.56h0a3,3,0,0,1-.14.56L68,200Z"/><path class="cls-35" d="M80.32,195.11l-4.92,7.28h4.81v.89H73.93V203l4.88-7.24H74.32v-.89h6Z"/><path class="cls-35" d="M84.82,203.28h-1V196a2,2,0,0,1-.32.26l-.48.28c-.18.1-.37.18-.57.27a4.76,4.76,0,0,1-.57.19v-1a6.12,6.12,0,0,0,.67-.24,6.3,6.3,0,0,0,.69-.34c.23-.12.45-.25.65-.38a5.2,5.2,0,0,0,.53-.4h.36Z"/><path class="cls-35" d="M74.53,181.6l-3.12,8.54H70.32l-3.06-8.54h1.1l2.34,6.77a4.53,4.53,0,0,1,.17.76h0a4.31,4.31,0,0,1,.19-.77l2.39-6.76Z"/><path class="cls-35" d="M84.31,190.14h-1v-5.73c0-.45,0-1,.09-1.66h0a5.46,5.46,0,0,1-.25.83l-2.88,6.56h-.49l-2.87-6.51a4.74,4.74,0,0,1-.25-.88h0c0,.34,0,.9,0,1.68v5.71h-1V181.6H77l2.59,6a7.91,7.91,0,0,1,.39,1h0c.17-.47.31-.82.41-1.05l2.64-5.93h1.24Z"/><path class="cls-35" d="M136.53,203.28h-1.09l-.89-2.35H131l-.84,2.35h-1.09l3.22-8.4h1Zm-2.3-3.24-1.32-3.58a4.39,4.39,0,0,1-.13-.56h0a3.13,3.13,0,0,1-.13.56L131.32,200Z"/><path class="cls-35" d="M143.61,195.11l-4.92,7.28h4.8v.89h-6.28V203l4.89-7.24h-4.49v-.89h6Z"/><path class="cls-35" d="M148.39,197.08a1.74,1.74,0,0,0-.12-.67,1.37,1.37,0,0,0-.33-.48,1.26,1.26,0,0,0-.49-.28,2,2,0,0,0-.61-.1,2,2,0,0,0-.55.08,2.57,2.57,0,0,0-.52.21,3.84,3.84,0,0,0-.5.32,5.77,5.77,0,0,0-.44.42v-1a2.88,2.88,0,0,1,.91-.6,3.14,3.14,0,0,1,1.22-.21,2.91,2.91,0,0,1,.95.15,2.1,2.1,0,0,1,.77.44,2,2,0,0,1,.5.7,2.33,2.33,0,0,1,.19,1,3.16,3.16,0,0,1-.12.9,2.78,2.78,0,0,1-.34.77,4,4,0,0,1-.59.68,8.71,8.71,0,0,1-.82.67c-.4.28-.72.52-1,.72a5,5,0,0,0-.61.56,1.59,1.59,0,0,0-.31.52,1.8,1.8,0,0,0-.09.6h4.18v.86H144.5v-.41a3.38,3.38,0,0,1,.12-1,2.38,2.38,0,0,1,.39-.78,4.33,4.33,0,0,1,.7-.74c.29-.25.65-.52,1.07-.83a6.87,6.87,0,0,0,.77-.63,3.23,3.23,0,0,0,.49-.6,2,2,0,0,0,.27-.6A2.84,2.84,0,0,0,148.39,197.08Z"/><path class="cls-35" d="M137.81,181.6l-3.12,8.54H133.6l-3-8.54h1.1l2.33,6.77a4.53,4.53,0,0,1,.17.76h0a4.39,4.39,0,0,1,.2-.77l2.38-6.76Z"/><path class="cls-35" d="M147.59,190.14h-1v-5.73c0-.45,0-1,.08-1.66h0a5.22,5.22,0,0,1-.26.83l-2.88,6.56h-.48l-2.88-6.51a5.68,5.68,0,0,1-.25-.88h0c0,.34,0,.9,0,1.68v5.71H139V181.6h1.31l2.58,6a7.91,7.91,0,0,1,.39,1h0c.17-.47.3-.82.4-1.05l2.64-5.93h1.24Z"/><path class="cls-35" d="M173.39,203.28H172.3l-.89-2.35h-3.57l-.83,2.35h-1.1l3.22-8.4h1ZM171.08,200l-1.31-3.58a2.44,2.44,0,0,1-.13-.56h0a2.45,2.45,0,0,1-.13.56L168.17,200Z"/><path class="cls-35" d="M180.46,195.11l-4.92,7.28h4.8v.89h-6.27V203l4.88-7.24h-4.49v-.89h6Z"/><path class="cls-35" d="M185.24,197.08a1.74,1.74,0,0,0-.12-.67,1.37,1.37,0,0,0-.33-.48,1.26,1.26,0,0,0-.49-.28,2,2,0,0,0-.61-.1,2.09,2.09,0,0,0-.55.08,2.57,2.57,0,0,0-.52.21,3.74,3.74,0,0,0-.49.32,4.47,4.47,0,0,0-.45.42v-1a3,3,0,0,1,.91-.6,3.14,3.14,0,0,1,1.22-.21,3,3,0,0,1,1,.15A2.11,2.11,0,0,1,186,196a2.5,2.5,0,0,1,.18,1,3.58,3.58,0,0,1-.11.9,3.15,3.15,0,0,1-.35.77,4,4,0,0,1-.58.68,8.92,8.92,0,0,1-.83.67c-.39.28-.72.52-1,.72a4.34,4.34,0,0,0-.61.56,1.63,1.63,0,0,0-.32.52,1.8,1.8,0,0,0-.09.6h4.18v.86h-5.18v-.41a3.82,3.82,0,0,1,.11-1,2.38,2.38,0,0,1,.39-.78,4.42,4.42,0,0,1,.71-.74c.29-.25.64-.52,1.07-.83a6.69,6.69,0,0,0,.76-.63,3.31,3.31,0,0,0,.5-.6,2.23,2.23,0,0,0,.26-.6A2.84,2.84,0,0,0,185.24,197.08Z"/><path class="cls-35" d="M174.67,181.6l-3.13,8.54h-1.08l-3.06-8.54h1.1l2.33,6.77a3.72,3.72,0,0,1,.17.76h0a3.59,3.59,0,0,1,.19-.77l2.38-6.76Z"/><path class="cls-35" d="M184.44,190.14h-1v-5.73c0-.45,0-1,.08-1.66h0a7,7,0,0,1-.25.83l-2.89,6.56h-.48L177,183.63a4.6,4.6,0,0,1-.26-.88h0c0,.34.05.9.05,1.68v5.71h-1V181.6h1.31l2.59,6a7.91,7.91,0,0,1,.39,1h0c.17-.47.3-.82.41-1.05l2.64-5.93h1.23Z"/><path class="cls-35" d="M236.67,203.28h-1.09l-.89-2.35h-3.56l-.84,2.35H229.2l3.22-8.4h1Zm-2.3-3.24-1.32-3.58a3.14,3.14,0,0,1-.13-.56h0a3,3,0,0,1-.14.56l-1.3,3.58Z"/><path class="cls-35" d="M243.74,195.11l-4.92,7.28h4.81v.89h-6.28V203l4.88-7.24h-4.49v-.89h6Z"/><path class="cls-35" d="M249.59,200.9a2.51,2.51,0,0,1-.22,1,2.22,2.22,0,0,1-.6.79,2.6,2.6,0,0,1-.94.52,3.78,3.78,0,0,1-1.2.18,3.46,3.46,0,0,1-1.91-.46v-1a3.06,3.06,0,0,0,1.95.67,2.74,2.74,0,0,0,.79-.11,1.86,1.86,0,0,0,.61-.32,1.58,1.58,0,0,0,.39-.51,1.51,1.51,0,0,0,.14-.68c0-1.1-.78-1.64-2.34-1.64h-.7v-.82h.66c1.39,0,2.08-.52,2.08-1.55s-.53-1.43-1.59-1.43a2.7,2.7,0,0,0-1.67.6v-.93a3.7,3.7,0,0,1,1.92-.48,2.83,2.83,0,0,1,.95.15,1.93,1.93,0,0,1,.73.41,1.63,1.63,0,0,1,.47.63,1.84,1.84,0,0,1,.17.81,2.06,2.06,0,0,1-1.67,2.14v0a2.64,2.64,0,0,1,.79.21,1.94,1.94,0,0,1,.62.42,1.81,1.81,0,0,1,.42.6A2,2,0,0,1,249.59,200.9Z"/><path class="cls-35" d="M238,181.6l-3.12,8.54h-1.09l-3.06-8.54h1.1l2.34,6.77a4.53,4.53,0,0,1,.17.76h0a4.31,4.31,0,0,1,.19-.77l2.39-6.76Z"/><path class="cls-35" d="M247.73,190.14h-1v-5.73c0-.45,0-1,.09-1.66h0a5.46,5.46,0,0,1-.25.83l-2.88,6.56h-.48l-2.88-6.51a4.74,4.74,0,0,1-.25-.88h0c0,.34.05.9.05,1.68v5.71h-1V181.6h1.3l2.59,6a7.91,7.91,0,0,1,.39,1h0c.17-.47.31-.82.41-1.05l2.64-5.93h1.24Z"/><path class="cls-35" d="M273.43,203.28h-1.09l-.89-2.35h-3.56l-.84,2.35H266l3.23-8.4h1Zm-2.3-3.24-1.32-3.58a3.14,3.14,0,0,1-.13-.56h0a3,3,0,0,1-.14.56L268.21,200Z"/><path class="cls-35" d="M280.5,195.11l-4.92,7.28h4.8v.89h-6.27V203l4.88-7.24H274.5v-.89h6Z"/><path class="cls-35" d="M286.34,200.9a2.51,2.51,0,0,1-.21,1,2.22,2.22,0,0,1-.6.79,2.6,2.6,0,0,1-.94.52,3.78,3.78,0,0,1-1.2.18,3.44,3.44,0,0,1-1.91-.46v-1a3.06,3.06,0,0,0,1.95.67,2.79,2.79,0,0,0,.79-.11,1.86,1.86,0,0,0,.61-.32,1.58,1.58,0,0,0,.39-.51,1.65,1.65,0,0,0,.14-.68c0-1.1-.78-1.64-2.34-1.64h-.7v-.82H283c1.38,0,2.07-.52,2.07-1.55s-.52-1.43-1.58-1.43a2.7,2.7,0,0,0-1.67.6v-.93a3.66,3.66,0,0,1,1.91-.48,2.93,2.93,0,0,1,1,.15,2,2,0,0,1,.73.41,1.74,1.74,0,0,1,.47.63,2,2,0,0,1,.17.81,2.06,2.06,0,0,1-1.68,2.14v0a2.49,2.49,0,0,1,.79.21,1.88,1.88,0,0,1,.63.42,1.78,1.78,0,0,1,.41.6A2,2,0,0,1,286.34,200.9Z"/><path class="cls-35" d="M274.71,181.6l-3.12,8.54H270.5l-3.06-8.54h1.1l2.34,6.77a4.53,4.53,0,0,1,.17.76h0a4.31,4.31,0,0,1,.19-.77l2.39-6.76Z"/><path class="cls-35" d="M284.48,190.14h-1v-5.73c0-.45,0-1,.08-1.66h0a5.46,5.46,0,0,1-.25.83l-2.88,6.56h-.49l-2.87-6.51a5.48,5.48,0,0,1-.26-.88h0c0,.34,0,.9,0,1.68v5.71h-.95V181.6h1.3l2.59,6a7.91,7.91,0,0,1,.39,1h0c.17-.47.31-.82.41-1.05l2.64-5.93h1.23Z"/><path class="cls-35" d="M17.05,241.16l-3.12,8.53H12.84l-3.06-8.53h1.1l2.33,6.77a3.59,3.59,0,0,1,.18.75h0a3.59,3.59,0,0,1,.19-.77L16,241.16Z"/><path class="cls-35" d="M18.63,242.05a.63.63,0,0,1-.45-.18.61.61,0,0,1-.18-.45.62.62,0,0,1,.18-.46.63.63,0,0,1,.45-.18.64.64,0,0,1,.45.18.62.62,0,0,1,.18.46.6.6,0,0,1-.18.44A.61.61,0,0,1,18.63,242.05Zm.47,7.64h-1V243.6h1Z"/><path class="cls-35" d="M24.19,244.59a1.11,1.11,0,0,0-.73-.2,1.23,1.23,0,0,0-1,.59,2.72,2.72,0,0,0-.42,1.61v3.1h-1V243.6h1v1.25h0a2,2,0,0,1,.63-1,1.4,1.4,0,0,1,.94-.36,1.71,1.71,0,0,1,.58.08Z"/><path class="cls-35" d="M28,249.63a1.82,1.82,0,0,1-.9.19c-1.05,0-1.58-.59-1.58-1.78v-3.61h-1v-.83h1v-1.49l1-.32v1.81H28v.83H26.51v3.44a1.41,1.41,0,0,0,.21.87.8.8,0,0,0,.68.26,1,1,0,0,0,.63-.2Z"/><path class="cls-35" d="M34.19,249.69h-1v-1h0a2,2,0,0,1-1.86,1.11c-1.43,0-2.15-.87-2.15-2.6V243.6h1v3.49c0,1.28.48,1.92,1.46,1.92a1.47,1.47,0,0,0,1.16-.52,2,2,0,0,0,.45-1.38V243.6h1Z"/><path class="cls-35" d="M40.45,249.69h-1v-.95h0a2,2,0,0,1-1.85,1.1,1.94,1.94,0,0,1-1.41-.49,1.66,1.66,0,0,1-.51-1.28c0-1.14.66-1.8,2-2l1.8-.26c0-1-.41-1.55-1.24-1.55a2.94,2.94,0,0,0-2,.75v-1a3.68,3.68,0,0,1,2-.57q2.13,0,2.13,2.28Zm-1-3.08-1.45.2a2.37,2.37,0,0,0-1,.34,1,1,0,0,0-.34.85.93.93,0,0,0,.31.73,1.2,1.2,0,0,0,.84.28,1.51,1.51,0,0,0,1.18-.5,1.8,1.8,0,0,0,.47-1.29Z"/><path class="cls-35" d="M42.76,242.05a.64.64,0,0,1,0-1.27.64.64,0,0,1,.45.18.62.62,0,0,1,.18.46.6.6,0,0,1-.18.44A.61.61,0,0,1,42.76,242.05Zm.47,7.64h-1V243.6h1Z"/><path class="cls-35" d="M44.82,249.47v-1a2.82,2.82,0,0,0,1.73.58c.85,0,1.27-.28,1.27-.85a.71.71,0,0,0-.11-.42,1.17,1.17,0,0,0-.29-.3,3,3,0,0,0-.44-.23l-.54-.22-.7-.32a2.24,2.24,0,0,1-.5-.37,1.42,1.42,0,0,1-.31-.47,1.66,1.66,0,0,1-.1-.61,1.45,1.45,0,0,1,.19-.76,1.74,1.74,0,0,1,.52-.56,2.17,2.17,0,0,1,.74-.33,3,3,0,0,1,.85-.12,3.46,3.46,0,0,1,1.4.28v1a2.64,2.64,0,0,0-1.53-.44,1.75,1.75,0,0,0-.48.06,1.33,1.33,0,0,0-.38.17,1,1,0,0,0-.24.27.72.72,0,0,0-.08.35.82.82,0,0,0,.08.4,1,1,0,0,0,.25.29,1.67,1.67,0,0,0,.4.22l.54.22c.26.11.5.21.71.32a2,2,0,0,1,.54.37,1.48,1.48,0,0,1,.35.48,1.51,1.51,0,0,1,.12.63,1.54,1.54,0,0,1-.2.79,1.61,1.61,0,0,1-.52.55,2.37,2.37,0,0,1-.76.33,3.82,3.82,0,0,1-.9.11A3.27,3.27,0,0,1,44.82,249.47Z"/><path class="cls-35" d="M16.83,262.89H15.65l-1.41-2.39a6.25,6.25,0,0,0-.38-.57,1.92,1.92,0,0,0-.37-.38,1.49,1.49,0,0,0-.41-.22,1.59,1.59,0,0,0-.5-.07h-.81v3.63h-1v-8.53H13.3a3.31,3.31,0,0,1,1,.14,2.23,2.23,0,0,1,.81.42,2,2,0,0,1,.54.71,2.69,2.69,0,0,1,.06,1.82,2,2,0,0,1-.38.66,2.21,2.21,0,0,1-.59.5,2.83,2.83,0,0,1-.77.32v0a2.58,2.58,0,0,1,.37.22,2.69,2.69,0,0,1,.3.29c.09.11.18.24.28.38s.19.3.3.49Zm-5.06-7.63v3.1h1.34a1.87,1.87,0,0,0,.68-.12,1.46,1.46,0,0,0,.91-.84,1.84,1.84,0,0,0,.13-.69,1.37,1.37,0,0,0-.44-1.07,1.91,1.91,0,0,0-1.27-.38Z"/><path class="cls-35" d="M22.34,260.09H18.09a2.34,2.34,0,0,0,.54,1.57,1.86,1.86,0,0,0,1.42.56,3,3,0,0,0,1.88-.68v.91a3.46,3.46,0,0,1-2.1.59,2.54,2.54,0,0,1-2-.83,3.44,3.44,0,0,1-.73-2.34,3.37,3.37,0,0,1,.8-2.32,2.53,2.53,0,0,1,2-.9,2.27,2.27,0,0,1,1.83.78,3.25,3.25,0,0,1,.64,2.15Zm-1-.83A1.94,1.94,0,0,0,21,258a1.33,1.33,0,0,0-1.1-.47,1.54,1.54,0,0,0-1.16.49,2.28,2.28,0,0,0-.59,1.29Z"/><path class="cls-35" d="M28.94,262.89H28v-1h0A2.22,2.22,0,0,1,25.88,263a2.25,2.25,0,0,1-1.81-.82,3.41,3.41,0,0,1-.68-2.23,3.71,3.71,0,0,1,.75-2.43,2.49,2.49,0,0,1,2-.91,1.91,1.91,0,0,1,1.8,1h0v-3.77h1Zm-1-2.75v-.9A1.76,1.76,0,0,0,27.5,258a1.63,1.63,0,0,0-1.23-.51,1.65,1.65,0,0,0-1.39.65,3,3,0,0,0-.5,1.81,2.6,2.6,0,0,0,.48,1.66,1.59,1.59,0,0,0,1.31.62,1.63,1.63,0,0,0,1.3-.59A2.21,2.21,0,0,0,28,260.14Z"/><path class="cls-35" d="M35.74,260.09H31.48a2.34,2.34,0,0,0,.54,1.57,1.87,1.87,0,0,0,1.43.56,3,3,0,0,0,1.87-.68v.91a3.46,3.46,0,0,1-2.1.59,2.56,2.56,0,0,1-2-.83,3.49,3.49,0,0,1-.73-2.34,3.37,3.37,0,0,1,.8-2.32,2.53,2.53,0,0,1,2-.9,2.24,2.24,0,0,1,1.83.78,3.25,3.25,0,0,1,.65,2.15Zm-1-.83a2,2,0,0,0-.41-1.31,1.33,1.33,0,0,0-1.1-.47,1.56,1.56,0,0,0-1.16.49,2.34,2.34,0,0,0-.59,1.29Z"/><path class="cls-35" d="M190.3,245.88a15.49,15.49,0,0,1,2.31-.18,4.87,4.87,0,0,1,3.42,1.05,3.9,3.9,0,0,1,1.18,3,4.43,4.43,0,0,1-1.21,3.27,5.18,5.18,0,0,1-3.72,1.21,16,16,0,0,1-2-.1Zm1.09,7.45a6.9,6.9,0,0,0,1.1.06,3.24,3.24,0,0,0,3.59-3.58c0-2-1.12-3.24-3.42-3.24a6.38,6.38,0,0,0-1.27.11Z"/><path class="cls-35" d="M199.9,246.44a.68.68,0,1,1-1.36,0,.67.67,0,0,1,.69-.69A.65.65,0,0,1,199.9,246.44Zm-1.22,7.75v-6.05h1.1v6.05Z"/><path class="cls-35" d="M201.69,250c0-.72,0-1.33-.05-1.89h1l0,1.19h.05a1.81,1.81,0,0,1,1.67-1.33,1,1,0,0,1,.32,0v1a1.48,1.48,0,0,0-.38,0,1.54,1.54,0,0,0-1.47,1.41,2.67,2.67,0,0,0-.05.51v3.23h-1.09Z"/><path class="cls-35" d="M206.35,251.36a1.94,1.94,0,0,0,2.08,2.1,3.9,3.9,0,0,0,1.67-.31l.19.79a4.94,4.94,0,0,1-2,.39,2.82,2.82,0,0,1-3-3.07c0-1.82,1.08-3.26,2.84-3.26a2.57,2.57,0,0,1,2.5,2.85,4.37,4.37,0,0,1,0,.51Zm3.23-.78a1.57,1.57,0,0,0-1.53-1.79,1.83,1.83,0,0,0-1.69,1.79Z"/><path class="cls-35" d="M216.41,254a3.63,3.63,0,0,1-1.58.35l-.32.5a1,1,0,0,1,.88.92c0,.75-.63,1-1.3,1a1.87,1.87,0,0,1-.88-.21l.19-.56a1.41,1.41,0,0,0,.69.16c.29,0,.54-.09.54-.39s-.39-.46-1-.52l.53-1a2.86,2.86,0,0,1-2.53-3.05A3.08,3.08,0,0,1,214.9,248a3.69,3.69,0,0,1,1.53.32l-.25.85a2.59,2.59,0,0,0-1.28-.29,2.28,2.28,0,0,0,0,4.55,3,3,0,0,0,1.35-.3Z"/><path class="cls-35" d="M222,252.74a9.09,9.09,0,0,0,.1,1.45h-1l-.08-.76h0a2.27,2.27,0,0,1-1.85.9,1.73,1.73,0,0,1-1.85-1.74c0-1.46,1.3-2.26,3.64-2.25v-.12a1.26,1.26,0,0,0-1.38-1.41,3,3,0,0,0-1.57.45l-.25-.72a3.78,3.78,0,0,1,2-.54c1.85,0,2.3,1.26,2.3,2.48Zm-3.72-5.64c0-.81.31-1.3.85-1.3a1.55,1.55,0,0,1,.77.28,1.29,1.29,0,0,0,.53.21c.2,0,.32-.11.35-.54h.59c0,.84-.28,1.27-.87,1.27a1.75,1.75,0,0,1-.76-.25,1.14,1.14,0,0,0-.54-.23c-.2,0-.3.21-.32.56Zm2.66,4c-1.2,0-2.56.19-2.56,1.36a1,1,0,0,0,1,1,1.52,1.52,0,0,0,1.46-1,1.07,1.07,0,0,0,.06-.35Z"/><path class="cls-35" d="M229.35,251.11a3,3,0,0,1-3,3.22,2.88,2.88,0,0,1-2.9-3.12,3,3,0,0,1,3-3.21A2.86,2.86,0,0,1,229.35,251.11Zm-4.8.07c0,1.32.76,2.32,1.84,2.32s1.84-1,1.84-2.35c0-1-.52-2.32-1.82-2.32S224.55,250,224.55,251.18Z"/><path class="cls-35" d="M238.79,245.32v7.31c0,.53,0,1.15.05,1.56h-1l0-1.05h0a2.26,2.26,0,0,1-2.07,1.19c-1.46,0-2.58-1.24-2.58-3.08,0-2,1.23-3.25,2.71-3.25a2,2,0,0,1,1.82.93h0v-3.61Zm-1.1,5.28a2.49,2.49,0,0,0-.05-.46,1.61,1.61,0,0,0-1.59-1.27c-1.14,0-1.81,1-1.81,2.33s.6,2.24,1.79,2.24a1.66,1.66,0,0,0,1.61-1.31,2.36,2.36,0,0,0,.05-.48Z"/><path class="cls-35" d="M246.17,251.11a3,3,0,0,1-3,3.22,2.88,2.88,0,0,1-2.9-3.12,3,3,0,0,1,3-3.21A2.86,2.86,0,0,1,246.17,251.11Zm-4.79.07c0,1.32.76,2.32,1.83,2.32s1.84-1,1.84-2.35c0-1-.51-2.32-1.81-2.32S241.38,250,241.38,251.18Z"/><path class="cls-35" d="M250.5,254.19V249h-.85v-.84h.85v-.26a2.74,2.74,0,0,1,.85-2.09,2.89,2.89,0,0,1,1.94-.61,3.88,3.88,0,0,1,1.81.4v8.61H254v-8a2,2,0,0,0-.9-.16c-1.15,0-1.52.84-1.52,1.81v.3H253V249h-1.41v5.21Z"/><path class="cls-35" d="M262.07,252.54c0,.62,0,1.17.05,1.65h-1l-.06-1h0a2.27,2.27,0,0,1-2,1.13c-.95,0-2.09-.53-2.09-2.65v-3.54h1.1v3.35c0,1.15.35,1.92,1.35,1.92a1.58,1.58,0,0,0,1.45-1,1.43,1.43,0,0,0,.1-.56v-3.71h1.1Z"/><path class="cls-35" d="M264.5,248.14l.86,1.3c.23.34.41.65.61,1h0c.2-.37.4-.68.6-1l.85-1.29h1.19l-2.06,2.92,2.12,3.13h-1.25l-.89-1.36c-.23-.35-.43-.69-.65-1.05h0c-.2.37-.41.68-.64,1.05l-.87,1.36h-1.22l2.15-3.09-2-3Z"/><path class="cls-35" d="M275.15,251.11a3,3,0,0,1-3,3.22,2.88,2.88,0,0,1-2.9-3.12,3,3,0,0,1,3-3.21A2.87,2.87,0,0,1,275.15,251.11Zm-4.8.07c0,1.32.76,2.32,1.84,2.32s1.83-1,1.83-2.35c0-1-.51-2.32-1.81-2.32S270.35,250,270.35,251.18Z"/><path class="cls-35" d="M284.58,245.32v7.31c0,.53,0,1.15.05,1.56h-1l0-1.05h0a2.23,2.23,0,0,1-2.06,1.19c-1.46,0-2.59-1.24-2.59-3.08,0-2,1.24-3.25,2.72-3.25a2,2,0,0,1,1.82.93h0v-3.61Zm-1.09,5.28a2.49,2.49,0,0,0-.05-.46,1.63,1.63,0,0,0-1.59-1.27c-1.14,0-1.81,1-1.81,2.33s.6,2.24,1.78,2.24a1.66,1.66,0,0,0,1.62-1.31,2.36,2.36,0,0,0,.05-.48Z"/><path class="cls-35" d="M287.11,251.36a1.94,1.94,0,0,0,2.08,2.1,3.9,3.9,0,0,0,1.67-.31l.19.79a4.94,4.94,0,0,1-2,.39,2.82,2.82,0,0,1-3-3.07c0-1.82,1.08-3.26,2.84-3.26a2.57,2.57,0,0,1,2.5,2.85,4.37,4.37,0,0,1,0,.51Zm3.22-.78a1.56,1.56,0,0,0-1.52-1.79,1.83,1.83,0,0,0-1.69,1.79Z"/><path class="cls-35" d="M195.74,264.31a3,3,0,0,1-3,3.22,2.88,2.88,0,0,1-2.9-3.12,3,3,0,0,1,3-3.21A2.87,2.87,0,0,1,195.74,264.31Zm-4.8.07c0,1.32.76,2.32,1.84,2.32s1.83-1,1.83-2.35c0-1-.51-2.32-1.81-2.32S190.94,263.23,190.94,264.38Z"/><path class="cls-35" d="M197.21,263.23c0-.72,0-1.33,0-1.89h1l0,1.19h.05a1.83,1.83,0,0,1,1.68-1.33,1.46,1.46,0,0,1,.31,0v1a1.35,1.35,0,0,0-.37,0,1.55,1.55,0,0,0-1.48,1.41,3.83,3.83,0,0,0,0,.51v3.23h-1.09Z"/><path class="cls-35" d="M202.66,259.64a.65.65,0,0,1-.7.68.66.66,0,0,1-.66-.68A.67.67,0,0,1,202,259,.65.65,0,0,1,202.66,259.64Zm-1.22,7.75v-6.05h1.1v6.05Z"/><path class="cls-35" d="M209.61,266.51a3.49,3.49,0,0,1-.86,2.77,3.21,3.21,0,0,1-2.2.72,3.87,3.87,0,0,1-2-.5l.27-.84a3.43,3.43,0,0,0,1.78.48c1.12,0,1.95-.59,1.95-2.11v-.68h0a2.14,2.14,0,0,1-1.92,1,2.71,2.71,0,0,1-2.58-2.95,2.91,2.91,0,0,1,2.73-3.21,2,2,0,0,1,1.89,1.05h0l0-.91h1c0,.44,0,.92,0,1.66Zm-1.08-2.78a1.55,1.55,0,0,0-.07-.5,1.57,1.57,0,0,0-1.53-1.16c-1.05,0-1.8.88-1.8,2.28,0,1.19.6,2.18,1.78,2.18a1.62,1.62,0,0,0,1.53-1.13,2,2,0,0,0,.09-.59Z"/><path class="cls-35" d="M212.14,264.56a1.93,1.93,0,0,0,2.07,2.1,3.91,3.91,0,0,0,1.68-.31l.19.79a5,5,0,0,1-2,.39,2.82,2.82,0,0,1-3-3.06c0-1.83,1.07-3.27,2.84-3.27a2.57,2.57,0,0,1,2.5,2.85,4.37,4.37,0,0,1,0,.51Zm3.22-.78a1.56,1.56,0,0,0-1.52-1.79,1.83,1.83,0,0,0-1.69,1.79Z"/><path class="cls-35" d="M217.88,263c0-.63,0-1.14,0-1.64h1l.05,1h0a2.08,2.08,0,0,1,1.9-1.11,1.79,1.79,0,0,1,1.71,1.22h0a2.55,2.55,0,0,1,.68-.79,2,2,0,0,1,1.33-.43c.8,0,2,.53,2,2.63v3.56h-1.07V264c0-1.17-.43-1.87-1.31-1.87a1.41,1.41,0,0,0-1.3,1,1.81,1.81,0,0,0-.09.55v3.74h-1.08v-3.63c0-1-.42-1.66-1.26-1.66a1.49,1.49,0,0,0-1.36,1.1,1.57,1.57,0,0,0-.09.54v3.65h-1.07Z"/><path class="cls-35" d="M233.51,258.72a8.25,8.25,0,0,0-1.57,5.11,8.47,8.47,0,0,0,1.57,5.07h-.86a8.07,8.07,0,0,1-1.64-5.07,8.28,8.28,0,0,1,1.64-5.11Z"/><path class="cls-35" d="M234.28,261.79a14,14,0,0,1,1.17-3l.7-.08a18.17,18.17,0,0,0-.74,2.93Zm1.86,0a14,14,0,0,1,1.16-3l.7-.08a17.18,17.18,0,0,0-.74,2.93Z"/><path class="cls-35" d="M238.71,266.26a2.83,2.83,0,0,0,1.45.44c.8,0,1.18-.4,1.18-.9s-.32-.81-1.13-1.11c-1.08-.39-1.6-1-1.6-1.71a1.87,1.87,0,0,1,2.09-1.78,3,3,0,0,1,1.49.38l-.28.8a2.35,2.35,0,0,0-1.24-.35c-.65,0-1,.37-1,.82s.36.73,1.15,1c1.05.4,1.59.92,1.59,1.82,0,1.06-.83,1.83-2.26,1.83a3.41,3.41,0,0,1-1.7-.43Z"/><path class="cls-35" d="M249.37,264.31a3,3,0,0,1-3,3.22,2.88,2.88,0,0,1-2.9-3.12,3,3,0,0,1,3-3.21A2.86,2.86,0,0,1,249.37,264.31Zm-4.79.07c0,1.32.76,2.32,1.83,2.32s1.84-1,1.84-2.35c0-1-.51-2.32-1.81-2.32S244.58,263.23,244.58,264.38Z"/><path class="cls-35" d="M250.85,258.52H252v8.87h-1.1Z"/><path class="cls-35" d="M255.11,259.64a.65.65,0,0,1-.7.68.66.66,0,0,1-.66-.68.67.67,0,0,1,.69-.69A.65.65,0,0,1,255.11,259.64Zm-1.22,7.75v-6.05H255v6.05Z"/><path class="cls-35" d="M261.21,267.16a4,4,0,0,1-1.74.37,2.88,2.88,0,0,1-3-3.1,3.07,3.07,0,0,1,3.25-3.21,3.71,3.71,0,0,1,1.53.31l-.25.85a2.59,2.59,0,0,0-1.28-.29,2.28,2.28,0,0,0,0,4.55,3.06,3.06,0,0,0,1.35-.3Z"/><path class="cls-35" d="M263.81,259.64a.68.68,0,1,1-1.36,0,.67.67,0,0,1,.69-.69A.65.65,0,0,1,263.81,259.64Zm-1.22,7.75v-6.05h1.1v6.05Z"/><path class="cls-35" d="M266.92,259.89v1.45h1.58v.84h-1.58v3.26c0,.75.22,1.17.83,1.17a2.13,2.13,0,0,0,.64-.07l.05.82a2.62,2.62,0,0,1-1,.17,1.55,1.55,0,0,1-1.19-.48,2.24,2.24,0,0,1-.42-1.57v-3.3h-.94v-.84h.94v-1.11Z"/><path class="cls-35" d="M274.07,265.94a9.09,9.09,0,0,0,.1,1.45h-1l-.08-.76h0a2.27,2.27,0,0,1-1.85.9,1.73,1.73,0,0,1-1.85-1.74c0-1.46,1.3-2.26,3.64-2.25v-.12a1.26,1.26,0,0,0-1.38-1.41,3,3,0,0,0-1.57.46l-.25-.73a3.78,3.78,0,0,1,2-.54c1.85,0,2.3,1.27,2.3,2.48ZM273,264.3c-1.2,0-2.56.19-2.56,1.36a1,1,0,0,0,1,1,1.52,1.52,0,0,0,1.46-1,1.07,1.07,0,0,0,.06-.35Z"/><path class="cls-35" d="M280.26,267.16a3.69,3.69,0,0,1-1.59.35l-.31.5a1,1,0,0,1,.88.92c0,.75-.63,1-1.3,1a1.87,1.87,0,0,1-.88-.21l.19-.56a1.41,1.41,0,0,0,.69.16c.28,0,.53-.09.53-.39s-.38-.46-1-.52l.52-1a2.85,2.85,0,0,1-2.52-3.05,3.07,3.07,0,0,1,3.25-3.21,3.66,3.66,0,0,1,1.52.31l-.25.85a2.52,2.52,0,0,0-1.27-.29,2.28,2.28,0,0,0,0,4.55,3,3,0,0,0,1.35-.3Z"/><path class="cls-35" d="M285.86,265.94a9.09,9.09,0,0,0,.1,1.45h-1l-.09-.76h0a2.27,2.27,0,0,1-1.85.9,1.73,1.73,0,0,1-1.85-1.74c0-1.46,1.3-2.26,3.63-2.25v-.12A1.25,1.25,0,0,0,283.4,262a3,3,0,0,0-1.57.46l-.25-.73a3.78,3.78,0,0,1,2-.54c1.85,0,2.3,1.27,2.3,2.48Zm-3.72-5.64c0-.81.31-1.3.85-1.3a1.58,1.58,0,0,1,.77.28,1.29,1.29,0,0,0,.53.21c.2,0,.32-.11.35-.54h.58c0,.84-.27,1.27-.86,1.27a1.75,1.75,0,0,1-.76-.25,1.14,1.14,0,0,0-.54-.23c-.2,0-.3.21-.32.56Zm2.66,4c-1.2,0-2.56.19-2.56,1.36a1,1,0,0,0,1,1,1.52,1.52,0,0,0,1.47-1,1.43,1.43,0,0,0,.06-.35Z"/><path class="cls-35" d="M293.2,264.31a3,3,0,0,1-3,3.22,2.88,2.88,0,0,1-2.9-3.12,3,3,0,0,1,3-3.21A2.87,2.87,0,0,1,293.2,264.31Zm-4.8.07c0,1.32.76,2.32,1.84,2.32s1.83-1,1.83-2.35c0-1-.51-2.32-1.81-2.32S288.4,263.23,288.4,264.38Z"/><path class="cls-35" d="M295.64,258.74a16,16,0,0,1-1.16,3l-.7.08a18.47,18.47,0,0,0,.73-2.91Zm1.85,0a16,16,0,0,1-1.16,3l-.7.08a18.47,18.47,0,0,0,.73-2.91Z"/><path class="cls-35" d="M298.11,268.9a8.44,8.44,0,0,0,1.58-5.11,8.25,8.25,0,0,0-1.58-5.07H299a7.93,7.93,0,0,1,1.64,5.08,8.11,8.11,0,0,1-1.64,5.1Z"/><path class="cls-35" d="M190.4,286.62a15.49,15.49,0,0,1,2.31-.18,4.81,4.81,0,0,1,3.41,1.05,3.88,3.88,0,0,1,1.19,3,4.5,4.5,0,0,1-1.21,3.28,5.19,5.19,0,0,1-3.73,1.21,18.14,18.14,0,0,1-2-.1Zm1.08,7.44a6.84,6.84,0,0,0,1.1.07,3.24,3.24,0,0,0,3.59-3.58c0-2-1.11-3.25-3.41-3.25a5.69,5.69,0,0,0-1.28.12Z"/><path class="cls-35" d="M200,287.18a.69.69,0,0,1-1.37,0,.67.67,0,0,1,.69-.69A.66.66,0,0,1,200,287.18Zm-1.23,7.75v-6.05h1.1v6.05Z"/><path class="cls-35" d="M201.78,290.76c0-.71,0-1.32-.05-1.88h1l0,1.18h.05a1.82,1.82,0,0,1,1.68-1.32,1,1,0,0,1,.31,0v1a2,2,0,0,0-.37,0,1.54,1.54,0,0,0-1.48,1.41,3.67,3.67,0,0,0,0,.51v3.23h-1.09Z"/><path class="cls-35" d="M206.45,292.1a1.93,1.93,0,0,0,2.07,2.1,4.11,4.11,0,0,0,1.68-.31l.18.79a4.93,4.93,0,0,1-2,.38,2.81,2.81,0,0,1-3-3.06c0-1.82,1.07-3.26,2.83-3.26a2.56,2.56,0,0,1,2.5,2.85c0,.22,0,.4,0,.51Zm3.22-.79a1.56,1.56,0,0,0-1.52-1.78,1.82,1.82,0,0,0-1.69,1.78Z"/><path class="cls-35" d="M216.51,294.7a3.69,3.69,0,0,1-1.59.35l-.31.5a1,1,0,0,1,.87.91c0,.75-.62,1-1.3,1a1.86,1.86,0,0,1-.87-.21l.19-.56a1.34,1.34,0,0,0,.68.16c.29,0,.54-.09.54-.39s-.39-.46-1-.52l.52-1a2.83,2.83,0,0,1-2.52-3.05,3.07,3.07,0,0,1,3.25-3.21,3.82,3.82,0,0,1,1.52.31l-.25.85a2.53,2.53,0,0,0-1.27-.28,2.28,2.28,0,0,0,0,4.55,3.21,3.21,0,0,0,1.35-.3Z"/><path class="cls-35" d="M222.11,293.48a8.12,8.12,0,0,0,.1,1.45h-1l-.09-.77h0a2.22,2.22,0,0,1-1.85.9,1.72,1.72,0,0,1-1.85-1.73c0-1.47,1.3-2.27,3.64-2.25V291a1.25,1.25,0,0,0-1.37-1.4,3.07,3.07,0,0,0-1.58.45l-.25-.72a3.73,3.73,0,0,1,2-.54c1.85,0,2.3,1.26,2.3,2.47Zm-3.73-5.64c0-.81.32-1.3.85-1.3a1.49,1.49,0,0,1,.78.28,1.26,1.26,0,0,0,.52.21c.2,0,.33-.11.35-.54h.59c0,.84-.27,1.26-.86,1.26a1.63,1.63,0,0,1-.76-.25,1.1,1.1,0,0,0-.54-.22c-.2,0-.3.21-.33.56Zm2.66,4c-1.19,0-2.56.19-2.56,1.36a1,1,0,0,0,1,1.05,1.5,1.5,0,0,0,1.46-1,1.07,1.07,0,0,0,.06-.35Z"/><path class="cls-35" d="M229.45,291.85a3,3,0,0,1-3,3.21,2.88,2.88,0,0,1-2.9-3.11,3,3,0,0,1,3-3.21A2.87,2.87,0,0,1,229.45,291.85Zm-4.8.06c0,1.33.76,2.33,1.83,2.33s1.84-1,1.84-2.35c0-1-.51-2.33-1.81-2.33S224.65,290.76,224.65,291.91Z"/><path class="cls-35" d="M238.88,286.05v7.31c0,.54,0,1.15.05,1.57h-1l-.05-1.05h0a2.25,2.25,0,0,1-2.06,1.18c-1.46,0-2.59-1.23-2.59-3.07,0-2,1.24-3.25,2.71-3.25a2,2,0,0,1,1.83.93h0v-3.62Zm-1.1,5.29a1.75,1.75,0,0,0-.05-.46,1.62,1.62,0,0,0-1.58-1.28c-1.14,0-1.82,1-1.82,2.34s.6,2.24,1.79,2.24a1.65,1.65,0,0,0,1.61-1.32,1.78,1.78,0,0,0,.05-.47Z"/><path class="cls-35" d="M246.27,291.85a3,3,0,0,1-3,3.21,2.87,2.87,0,0,1-2.9-3.11,3,3,0,0,1,3-3.21A2.87,2.87,0,0,1,246.27,291.85Zm-4.8.06c0,1.33.76,2.33,1.84,2.33s1.83-1,1.83-2.35c0-1-.51-2.33-1.81-2.33S241.47,290.76,241.47,291.91Z"/><path class="cls-35" d="M250.59,294.93v-5.21h-.84v-.84h.84v-.26a2.71,2.71,0,0,1,.86-2.09,2.84,2.84,0,0,1,1.93-.61,3.88,3.88,0,0,1,1.81.4v8.61h-1.08v-8a2,2,0,0,0-.9-.16c-1.15,0-1.53.83-1.53,1.81v.3h1.41v.84h-1.41v5.21Z"/><path class="cls-35" d="M262.17,293.28c0,.62,0,1.17.05,1.65h-1l-.06-1h0a2.28,2.28,0,0,1-2,1.12c-1,0-2.09-.52-2.09-2.65v-3.53h1.1v3.35c0,1.15.35,1.92,1.35,1.92a1.58,1.58,0,0,0,1.45-1,1.64,1.64,0,0,0,.1-.56v-3.71h1.1Z"/><path class="cls-35" d="M264.59,288.88l.87,1.3c.22.33.41.65.61,1h0c.2-.36.4-.67.6-1l.85-1.28h1.18l-2.06,2.92,2.13,3.13h-1.25l-.89-1.37c-.24-.35-.44-.68-.65-1.05h0c-.2.38-.41.69-.63,1.05l-.88,1.37h-1.21l2.15-3.09-2.05-3Z"/><path class="cls-35" d="M275.24,291.85a3,3,0,0,1-3,3.21,2.87,2.87,0,0,1-2.9-3.11,3,3,0,0,1,3-3.21A2.86,2.86,0,0,1,275.24,291.85Zm-4.8.06c0,1.33.77,2.33,1.84,2.33s1.84-1,1.84-2.35c0-1-.51-2.33-1.81-2.33S270.44,290.76,270.44,291.91Z"/><path class="cls-35" d="M284.68,286.05v7.31c0,.54,0,1.15.05,1.57h-1l-.05-1.05h0a2.25,2.25,0,0,1-2.06,1.18c-1.47,0-2.59-1.23-2.59-3.07,0-2,1.24-3.25,2.71-3.25a2,2,0,0,1,1.83.93h0v-3.62Zm-1.1,5.29a1.75,1.75,0,0,0-.05-.46,1.62,1.62,0,0,0-1.59-1.28c-1.13,0-1.81,1-1.81,2.34s.6,2.24,1.79,2.24a1.65,1.65,0,0,0,1.61-1.32,1.78,1.78,0,0,0,.05-.47Z"/><path class="cls-35" d="M287.21,292.1a1.93,1.93,0,0,0,2.07,2.1,4,4,0,0,0,1.67-.31l.19.79a5,5,0,0,1-2,.38,2.81,2.81,0,0,1-3-3.06c0-1.82,1.07-3.26,2.83-3.26a2.56,2.56,0,0,1,2.5,2.85,3,3,0,0,1,0,.51Zm3.22-.79a1.56,1.56,0,0,0-1.52-1.78,1.82,1.82,0,0,0-1.69,1.78Z"/><path class="cls-35" d="M190.36,304c0-.72,0-1.33-.05-1.89h1l0,1.18h.05a1.81,1.81,0,0,1,1.67-1.32,1,1,0,0,1,.32,0v1a2.17,2.17,0,0,0-.38,0,1.54,1.54,0,0,0-1.47,1.41,2.59,2.59,0,0,0-.05.51v3.23h-1.09Z"/><path class="cls-35" d="M195,305.3a1.94,1.94,0,0,0,2.08,2.1,4.06,4.06,0,0,0,1.67-.31l.19.79a5,5,0,0,1-2,.38,2.81,2.81,0,0,1-3-3.06c0-1.82,1.08-3.26,2.84-3.26a2.57,2.57,0,0,1,2.5,2.85,4.58,4.58,0,0,1,0,.51Zm3.23-.79a1.56,1.56,0,0,0-1.53-1.78,1.82,1.82,0,0,0-1.69,1.78Z"/><path class="cls-35" d="M202.08,300.63v1.45h1.58v.84h-1.58v3.26c0,.75.22,1.17.83,1.17a2.13,2.13,0,0,0,.64-.07l0,.82a2.65,2.65,0,0,1-1,.16,1.55,1.55,0,0,1-1.19-.47,2.26,2.26,0,0,1-.42-1.58v-3.29h-.94v-.84H201V301Z"/><path class="cls-35" d="M210.38,305.05a3,3,0,0,1-3,3.21,2.87,2.87,0,0,1-2.9-3.11,3,3,0,0,1,3-3.21A2.86,2.86,0,0,1,210.38,305.05Zm-4.8.06c0,1.33.77,2.33,1.84,2.33s1.84-1,1.84-2.35c0-1-.51-2.33-1.81-2.33S205.58,304,205.58,305.11Z"/><path class="cls-35" d="M211.86,304c0-.72,0-1.33-.05-1.89h1l0,1.18h.05a1.81,1.81,0,0,1,1.67-1.32,1,1,0,0,1,.32,0v1a2.17,2.17,0,0,0-.38,0,1.54,1.54,0,0,0-1.47,1.41,2.59,2.59,0,0,0-.05.51v3.23h-1.09Z"/><path class="cls-35" d="M216.08,303.72c0-.63,0-1.14-.05-1.64h1l.06,1h0a2.2,2.2,0,0,1,2-1.14c.84,0,2.14.5,2.14,2.57v3.62h-1.1v-3.49c0-1-.36-1.79-1.4-1.79a1.56,1.56,0,0,0-1.47,1.13,1.52,1.52,0,0,0-.08.51v3.64h-1.1Z"/><path class="cls-35" d="M228.58,305.05a3,3,0,0,1-3,3.21,2.87,2.87,0,0,1-2.9-3.11,3,3,0,0,1,3-3.21A2.86,2.86,0,0,1,228.58,305.05Zm-4.8.06c0,1.33.77,2.33,1.84,2.33s1.84-1,1.84-2.35c0-1-.51-2.33-1.81-2.33S223.78,304,223.78,305.11Z"/><path class="cls-35" d="M235.18,299.45a8.27,8.27,0,0,0-1.57,5.11,8.41,8.41,0,0,0,1.57,5.08h-.86a8.08,8.08,0,0,1-1.64-5.08,8.28,8.28,0,0,1,1.64-5.11Z"/><path class="cls-35" d="M236,302.53a14.33,14.33,0,0,1,1.17-3l.7-.07a16.82,16.82,0,0,0-.74,2.92Zm1.86,0a14.37,14.37,0,0,1,1.16-3l.7-.07a16.82,16.82,0,0,0-.74,2.92Z"/><path class="cls-35" d="M240.66,304c0-.72,0-1.33,0-1.89h1l0,1.18h0a1.8,1.8,0,0,1,1.67-1.32,1,1,0,0,1,.31,0v1a2,2,0,0,0-.37,0,1.54,1.54,0,0,0-1.48,1.41,3.77,3.77,0,0,0,0,.51v3.23h-1.09Z"/><path class="cls-35" d="M245.32,305.3a1.94,1.94,0,0,0,2.08,2.1,4.06,4.06,0,0,0,1.67-.31l.19.79a5,5,0,0,1-2,.38,2.81,2.81,0,0,1-3-3.06c0-1.82,1.08-3.26,2.84-3.26a2.57,2.57,0,0,1,2.5,2.85,4.58,4.58,0,0,1,0,.51Zm3.22-.79a1.55,1.55,0,0,0-1.52-1.78,1.82,1.82,0,0,0-1.69,1.78Z"/><path class="cls-35" d="M250.91,307a2.89,2.89,0,0,0,1.45.44c.8,0,1.17-.4,1.17-.9s-.31-.81-1.12-1.11c-1.09-.39-1.6-1-1.6-1.71a1.86,1.86,0,0,1,2.08-1.78,3.13,3.13,0,0,1,1.49.37l-.27.8a2.48,2.48,0,0,0-1.24-.35c-.65,0-1,.38-1,.83s.36.72,1.15,1c1.05.4,1.58.93,1.58,1.83,0,1.06-.82,1.82-2.26,1.82a3.47,3.47,0,0,1-1.7-.42Z"/><path class="cls-35" d="M256.1,304.05c0-.77,0-1.4-.05-2h1l.05,1h0a2.39,2.39,0,0,1,2.15-1.17c1.46,0,2.56,1.24,2.56,3.07,0,2.18-1.32,3.25-2.75,3.25a2.11,2.11,0,0,1-1.86-.95h0v3.29H256.1Zm1.08,1.61a2.81,2.81,0,0,0,.05.45,1.7,1.7,0,0,0,1.65,1.29c1.16,0,1.84-.95,1.84-2.34,0-1.21-.64-2.25-1.8-2.25a1.75,1.75,0,0,0-1.66,1.37,1.63,1.63,0,0,0-.08.45Z"/><path class="cls-35" d="M268.77,305.05a3,3,0,0,1-3,3.21,2.87,2.87,0,0,1-2.9-3.11,3,3,0,0,1,3-3.21A2.87,2.87,0,0,1,268.77,305.05Zm-4.8.06c0,1.33.76,2.33,1.84,2.33s1.83-1,1.83-2.35c0-1-.51-2.33-1.81-2.33S264,304,264,305.11Z"/><path class="cls-35" d="M270.1,307a2.89,2.89,0,0,0,1.44.44c.8,0,1.18-.4,1.18-.9s-.31-.81-1.13-1.11c-1.08-.39-1.59-1-1.59-1.71a1.86,1.86,0,0,1,2.08-1.78,3.16,3.16,0,0,1,1.49.37l-.28.8a2.4,2.4,0,0,0-1.23-.35c-.65,0-1,.38-1,.83s.37.72,1.15,1c1.05.4,1.59.93,1.59,1.83,0,1.06-.82,1.82-2.26,1.82a3.47,3.47,0,0,1-1.7-.42Z"/><path class="cls-35" d="M276.61,300.63v1.45h1.57v.84h-1.57v3.26c0,.75.21,1.17.82,1.17a2.09,2.09,0,0,0,.64-.07l.05.82a2.59,2.59,0,0,1-1,.16,1.52,1.52,0,0,1-1.19-.47,2.26,2.26,0,0,1-.43-1.58v-3.29h-.93v-.84h.93V301Z"/><path class="cls-35" d="M283.76,306.68a8.12,8.12,0,0,0,.1,1.45h-1l-.09-.77h0a2.23,2.23,0,0,1-1.85.9,1.72,1.72,0,0,1-1.85-1.73c0-1.47,1.3-2.27,3.64-2.25v-.13a1.25,1.25,0,0,0-1.38-1.4,3.06,3.06,0,0,0-1.57.45l-.25-.72a3.73,3.73,0,0,1,2-.54c1.85,0,2.3,1.26,2.3,2.47ZM282.69,305c-1.19,0-2.56.19-2.56,1.36a1,1,0,0,0,1,1.05,1.5,1.5,0,0,0,1.46-1,1.07,1.07,0,0,0,.06-.35Z"/><path class="cls-35" d="M286.58,299.48a14.72,14.72,0,0,1-1.16,3l-.7.07a19,19,0,0,0,.74-2.91Zm1.85,0a14.72,14.72,0,0,1-1.16,3l-.7.07a16.94,16.94,0,0,0,.74-2.91Z"/><path class="cls-35" d="M289.06,309.64a8.44,8.44,0,0,0,1.57-5.11,8.3,8.3,0,0,0-1.57-5.08h.85a8,8,0,0,1,1.64,5.09,8.11,8.11,0,0,1-1.64,5.1Z"/></g></svg>