<svg xmlns="http://www.w3.org/2000/svg" xmlns:xlink="http://www.w3.org/1999/xlink" viewBox="0 0 171.02 202.65"><defs><style>.cls-1{fill:#fff;}.cls-2,.cls-3,.cls-4{fill:#3c3c41;}.cls-2{opacity:0.05;}.cls-2,.cls-4{isolation:isolate;}.cls-4{opacity:0.2;}.cls-5{fill:url(#Degradado_sin_nombre);}.cls-6{fill:#767676;}.cls-7{fill:#f2f2f2;}.cls-8{fill:url(#Degradado_sin_nombre_2);}.cls-9{fill:url(#Degradado_sin_nombre_3);}.cls-10{fill:url(#Degradado_sin_nombre_4);}.cls-11{fill:none;stroke:#3c3c41;stroke-miterlimit:10;}.cls-12{fill:url(#Degradado_sin_nombre_5);}.cls-13{fill:url(#Degradado_sin_nombre_6);}.cls-14{fill:url(#Degradado_sin_nombre_7);}.cls-15{fill:#50e6ff;}.cls-16{fill:#1490df;}.cls-17{fill:#6ebcdb;}.cls-18{fill:#5db4d7;}.cls-19{fill:#e6e6e6;}.cls-20{fill:#86d633;}.cls-21{fill:#1e1e1e;}</style><linearGradient id="Degradado_sin_nombre" x1="83.55" y1="-2014.2" x2="83.55" y2="-2001.41" gradientTransform="matrix(1, 0, 0, -1, 0, -1978.98)" gradientUnits="userSpaceOnUse"><stop offset="0" stop-color="#32bedd"/><stop offset="0.18" stop-color="#32caea"/><stop offset="0.41" stop-color="#32d2f2"/><stop offset="0.78" stop-color="#32d4f5"/></linearGradient><linearGradient id="Degradado_sin_nombre_2" x1="92.01" y1="-2020.48" x2="92.01" y2="-2007.69" xlink:href="#Degradado_sin_nombre"/><linearGradient id="Degradado_sin_nombre_3" x1="100.46" y1="-2026.76" x2="100.46" y2="-2013.96" xlink:href="#Degradado_sin_nombre"/><linearGradient id="Degradado_sin_nombre_4" x1="22.57" y1="299.48" x2="22.57" y2="278.9" gradientTransform="translate(0 -252.68)" xlink:href="#Degradado_sin_nombre"/><linearGradient id="Degradado_sin_nombre_5" x1="38.26" y1="428.03" x2="40.63" y2="430.4" gradientTransform="translate(2.9 -253.22)" gradientUnits="userSpaceOnUse"><stop offset="0" stop-color="#86d633"/><stop offset="0.24" stop-color="#83d232"/><stop offset="0.5" stop-color="#7cc52f"/><stop offset="0.76" stop-color="#6fb02a"/><stop offset="1" stop-color="#5e9624"/></linearGradient><linearGradient id="Degradado_sin_nombre_6" x1="32.91" y1="428.03" x2="35.27" y2="430.4" xlink:href="#Degradado_sin_nombre_5"/><linearGradient id="Degradado_sin_nombre_7" x1="27.56" y1="428.03" x2="29.92" y2="430.4" xlink:href="#Degradado_sin_nombre_5"/></defs><title>OJ104903208</title><g id="Target"><g id="Shapes"><rect class="cls-1" width="170.48" height="202.65"/><rect class="cls-1" x="15.52" y="120.49" width="155" height="55" rx="5"/><rect class="cls-2" x="15.52" y="120.49" width="155" height="55" rx="5"/><path class="cls-3" d="M164.37,176h-1v-1h1Zm-3,0h-1v-1h1Zm-3,0h-1v-1h1Zm-3,0h-1v-1h1Zm-3,0h-1v-1h1Zm-3,0h-1v-1h1Zm-3,0h-1v-1h1Zm-3,0h-1v-1h1Zm-3,0h-1v-1h1Zm-3,0h-1v-1h1Zm-3,0h-1v-1h1Zm-3,0h-1v-1h1Zm-3,0h-1v-1h1Zm-3,0h-1v-1h1Zm-3,0h-1v-1h1Zm-3,0h-1v-1h1Zm-3,0h-1v-1h1Zm-3,0h-1v-1h1Zm-3,0h-1v-1h1Zm-3,0h-1v-1h1Zm-3,0h-1v-1h1Zm-3,0h-1v-1h1Zm-3,0h-1v-1h1Zm-3,0h-1v-1h1Zm-3,0h-1v-1h1Zm-3,0h-1v-1h1Zm-3,0h-1v-1h1Zm-3,0h-1v-1h1Zm-3,0h-1v-1h1Zm-3,0h-1v-1h1Zm-3,0h-1v-1h1Zm-3,0h-1v-1h1Zm-3,0h-1v-1h1Zm-3,0h-1v-1h1Zm-3,0h-1v-1h1Zm-3,0h-1v-1h1Zm-3,0h-1v-1h1Zm-3,0h-1v-1h1Zm-33,0a5.75,5.75,0,0,1-1.09-.17l.26-1a3.76,3.76,0,0,0,.88.14Zm146.23-.07-.17-1a5.11,5.11,0,0,0,.87-.25l.36.94a5.19,5.19,0,0,1-1.16.29ZM17.17,174.84a5.16,5.16,0,0,1-.8-.75l.76-.66a4.77,4.77,0,0,0,.65.62Zm152.18-.41-.7-.71a4.24,4.24,0,0,0,.58-.69l.83.57a5.65,5.65,0,0,1-.71.83ZM15.29,172.19a5.61,5.61,0,0,1-.23-1.08l1-.11a5.31,5.31,0,0,0,.19.88Zm155.62-.61-1-.2a4.41,4.41,0,0,0,.09-.89l1-.06v.06a5,5,0,0,1-.09,1.09ZM16,169.06H15v-1h1Zm155-.63h-1v-1h1ZM16,166.05H15v-1h1Zm155-.62h-1v-1h1ZM16,163.05H15v-1h1Zm155-.63h-1v-1h1ZM16,160.05H15v-1h1Zm155-.63h-1v-1h1ZM16,157.05H15v-1h1Zm155-.63h-1v-1h1ZM16,154H15v-1h1Zm155-.62h-1v-1h1ZM16,151H15v-1h1Zm155-.63h-1v-1h1ZM16,148H15v-1h1Zm155-.63h-1v-1h1ZM16,145H15v-1h1Zm155-.63h-1v-1h1ZM16,142H15v-1h1Zm155-.62h-1v-1h1ZM16,139H15v-1h1Zm155-.63h-1v-1h1ZM16,136H15v-1h1Zm155-.63h-1v-1h1ZM16,133H15v-1h1Zm155-.63h-1v-1h1ZM16,130H15v-1h1Zm155-.62h-1v-1h1ZM16,127H15v-1h1Zm155-.63h-1v-.9l1-.11Zm-154.8-2.2-1-.3a5.2,5.2,0,0,1,.43-1l.88.48a4.17,4.17,0,0,0-.29.84Zm153.41-.53a3.77,3.77,0,0,0-.45-.78l.82-.58a4.83,4.83,0,0,1,.54,1ZM17.71,122l-.62-.78a5.2,5.2,0,0,1,.92-.6l.46.89A4.69,4.69,0,0,0,17.71,122Zm150.16-.32a4.6,4.6,0,0,0-.8-.4l.34-.93a4.6,4.6,0,0,1,1,.48ZM20.19,121l-.08-1h1v1h-1Zm145.08,0h-1v-1h1Zm-3,0h-1v-1h1Zm-3,0h-1v-1h1Zm-3,0h-1v-1h1Zm-3,0h-1v-1h1Zm-3,0h-1v-1h1Zm-3,0h-1v-1h1Zm-3,0h-1v-1h1Zm-3,0h-1v-1h1Zm-3,0h-1v-1h1Zm-3,0h-1v-1h1Zm-3,0h-1v-1h1Zm-3,0h-1v-1h1Zm-3,0h-1v-1h1Zm-3,0h-1v-1h1Zm-3,0h-1v-1h1Zm-3,0h-1v-1h1Zm-3,0h-1v-1h1Zm-3,0h-1v-1h1Zm-3,0h-1v-1h1Zm-3,0h-1v-1h1Zm-3,0h-1v-1h1Zm-3,0h-1v-1h1Zm-3,0h-1v-1h1Zm-3,0h-1v-1h1Zm-3,0h-1v-1h1Zm-3,0h-1v-1h1Zm-3,0h-1v-1h1Zm-3,0h-1v-1h1Zm-3,0h-1v-1h1Zm-3,0h-1v-1h1Zm-3,0h-1v-1h1Zm-3,0h-1v-1h1Zm-3,0h-1v-1h1Zm-3,0h-1v-1h1Zm-3,0h-1v-1h1Zm-3,0h-1v-1h1Zm-3,0h-1v-1h1Zm-3,0h-1v-1h1Zm-3,0h-1v-1h1Zm-3,0h-1v-1h1Zm-3,0h-1v-1h1Zm-3,0h-1v-1h1Zm-3,0h-1v-1h1Zm-3,0h-1v-1h1Zm-3,0h-1v-1h1Zm-3,0h-1v-1h1Zm-3,0h-1v-1h1Z"/><rect class="cls-1" x="25.22" y="130.51" width="65.69" height="30" rx="0.3"/><rect class="cls-4" x="25.22" y="130.51" width="65.69" height="30" rx="0.3"/><rect class="cls-1" x="95.59" y="130.51" width="65.69" height="30" rx="0.3"/><rect class="cls-4" x="95.59" y="130.51" width="65.69" height="30" rx="0.3"/><path class="cls-5" d="M72.72,22.43H94.39V34.52a.73.73,0,0,1-.73.72H73.45a.73.73,0,0,1-.73-.72h0Z"/><path class="cls-6" d="M73.45,17.8H93.66a.73.73,0,0,1,.73.73h0v3.9H72.72v-3.9A.73.73,0,0,1,73.45,17.8Z"/><rect class="cls-7" x="75.64" y="19.19" width="15.84" height="1.86" rx="0.36"/><path class="cls-8" d="M81.17,28.69h21.68V40.77a.73.73,0,0,1-.73.73H81.89a.72.72,0,0,1-.72-.72h0Z"/><path class="cls-6" d="M81.89,24.08H102.1a.73.73,0,0,1,.73.73h0v3.88H81.19V24.81A.72.72,0,0,1,81.89,24.08Z"/><rect class="cls-7" x="84.08" y="25.47" width="15.84" height="1.86" rx="0.36"/><path class="cls-9" d="M89.63,35h21.66V47.07a.72.72,0,0,1-.71.73H90.36a.73.73,0,0,1-.73-.73h0Z"/><path class="cls-6" d="M90.36,30.36h20.21a.72.72,0,0,1,.72.72h0V35H89.63V31.1a.73.73,0,0,1,.72-.74Z"/><circle class="cls-7" cx="105.34" cy="40.6" r="1.76"/><circle class="cls-7" cx="100.54" cy="40.6" r="1.76"/><circle class="cls-7" cx="95.59" cy="40.6" r="1.76"/><rect class="cls-7" x="92.54" y="31.75" width="15.84" height="1.86" rx="0.36"/><path class="cls-10" d="M5.14,26.22H40V45.63a1.17,1.17,0,0,1-1.17,1.17H6.31a1.17,1.17,0,0,1-1.17-1.17Z"/><path class="cls-6" d="M6.31,18.8H38.79A1.17,1.17,0,0,1,40,19.93v6.32H5.14V20a1.17,1.17,0,0,1,1.14-1.2Z"/><circle class="cls-7" cx="30.38" cy="35.23" r="2.83"/><circle class="cls-7" cx="22.67" cy="35.23" r="2.83"/><circle class="cls-7" cx="14.73" cy="35.23" r="2.83"/><rect class="cls-7" x="9.83" y="21.01" width="25.46" height="2.99" rx="0.57"/><line class="cls-11" x1="58.09" y1="130.51" x2="58.09" y2="107.89"/><polygon class="cls-3" points="61.83 108.99 58.09 102.51 54.35 108.99 61.83 108.99"/><path class="cls-11" d="M45.59,75.61H24.33a5,5,0,0,1-5-5V55.29"/><polygon class="cls-3" points="23.07 56.39 19.33 49.91 15.59 56.39 23.07 56.39"/><path class="cls-11" d="M97.34,55.29V70.61a5,5,0,0,1-5,5H69"/><polygon class="cls-3" points="93.6 56.39 97.34 49.91 101.08 56.39 93.6 56.39"/><circle class="cls-12" cx="42.11" cy="175.76" r="1.67"/><circle class="cls-13" cx="36.77" cy="175.78" r="1.67"/><circle class="cls-14" cx="31.43" cy="175.78" r="1.67"/><path class="cls-15" d="M32.64,182.47l-.95,1a.44.44,0,0,1-.62,0h0L24,176.36a.87.87,0,0,1,0-1.23h0l.95-1h0l7.71,7.69a.43.43,0,0,1,0,.61h0Z"/><path class="cls-16" d="M31.54,168.14l1,1a.44.44,0,0,1,0,.62L25,177.35h0l-1-1a.89.89,0,0,1,0-1.23h0l7-7A.43.43,0,0,1,31.54,168.14Z"/><path class="cls-15" d="M48.49,174.16l1,1a.87.87,0,0,1,0,1.23h0l-7.1,7.07a.43.43,0,0,1-.61,0h0l-1-1a.43.43,0,0,1,0-.61h0Z"/><path class="cls-16" d="M49.45,176.34l-1,.95h0l-7.58-7.59a.44.44,0,0,1,0-.62h0l1-1a.43.43,0,0,1,.61,0h0l7,7a.87.87,0,0,1,0,1.23h0Z"/><g id="ad94e297-0e86-4eaf-aac0-d146ee9aea65"><path class="cls-17" d="M54,92.24,49.31,87.4a2.56,2.56,0,0,1-.78.14,2.43,2.43,0,1,1,2.24-3.33h4.62v1.62H50.84a2.94,2.94,0,0,1-.26.57l4.33,4.46,2.34-3.57V76.11H54.1l4-4,3.94,4H58.87v8.74l5.93-9-6-6a1,1,0,0,0-1.41,0s0,0,0,0h0L42.88,84.28a1,1,0,0,0-.05,1.41l.05,0h0l14.48,14.47L52.19,95Z"/><path class="cls-18" d="M57.25,92.45V87.28l-2.34,3.58,1.72,1.84A1.76,1.76,0,0,1,57.25,92.45Z"/><path class="cls-18" d="M73.28,84.28,64.8,75.8l-5.93,9v7.61a1.91,1.91,0,0,1,.54.3l6.22-6.29a2.53,2.53,0,0,1-.31-.64H60.65V84.21h4.73a2.42,2.42,0,1,1,2.24,3.33,3,3,0,0,1-.67-.11L60.34,94.1a2.59,2.59,0,0,1,.1.62,2.43,2.43,0,1,1-4.84.44,2.18,2.18,0,0,1,0-.25,2.29,2.29,0,0,1,.13-.9L54,92.29l-1.85,2.76,5.17,5.17a1,1,0,0,0,1.41,0l0,0L73.24,85.74a1,1,0,0,0,.05-1.41s0,0-.05,0Z"/><path class="cls-19" d="M65.38,84.21H60.65v1.62h4.67a2.22,2.22,0,0,1-.12-.72A2.3,2.3,0,0,1,65.38,84.21Z"/><path class="cls-19" d="M50.84,85.83h4.55V84.21H50.77a2.14,2.14,0,0,1,.19.9A2.22,2.22,0,0,1,50.84,85.83Z"/><path class="cls-19" d="M60.34,94.1,67,87.43a2.44,2.44,0,0,1-1.32-1l-6.22,6.29A2.31,2.31,0,0,1,60.34,94.1Z"/><path class="cls-19" d="M56.68,92.7,55,90.86,50.58,86.4a2.42,2.42,0,0,1-1.27,1L54,92.24,55.72,94A2.41,2.41,0,0,1,56.68,92.7Z"/><path class="cls-1" d="M62,76.11l-3.93-4-4,4h3.15V92.45a1.71,1.71,0,0,0-.57.25,2.41,2.41,0,1,0,3.62,2.71,2.68,2.68,0,0,0,.1-.69,2.59,2.59,0,0,0-.1-.62,2.32,2.32,0,0,0-.93-1.34,1.91,1.91,0,0,0-.54-.3V76.11Zm-3.93,20a1.34,1.34,0,1,1,1.34-1.34h0a1.33,1.33,0,0,1-1.33,1.29Z"/><path class="cls-1" d="M50.58,86.4a2.94,2.94,0,0,0,.26-.57,2.22,2.22,0,0,0,.12-.72,2.14,2.14,0,0,0-.19-.9,2.41,2.41,0,1,0-2.24,3.33,2.56,2.56,0,0,0,.78-.14A2.42,2.42,0,0,0,50.58,86.4Zm-2,0a1.35,1.35,0,1,1,1.35-1.35h0a1.34,1.34,0,0,1-1.28,1.4h-.07Z"/><path class="cls-1" d="M67,87.43a3,3,0,0,0,.67.11,2.43,2.43,0,1,0-2.24-3.33,2.3,2.3,0,0,0-.18.9,2.22,2.22,0,0,0,.12.72,2.53,2.53,0,0,0,.31.64A2.46,2.46,0,0,0,67,87.43Zm.67-3.65a1.33,1.33,0,1,1-.33,0h0a1,1,0,0,1,.25,0Z"/><path class="cls-20" d="M58.08,93.38a1.34,1.34,0,1,0,1.34,1.34h0A1.34,1.34,0,0,0,58.08,93.38Z"/><circle class="cls-20" cx="48.53" cy="85.11" r="1.34"/><path class="cls-20" d="M67.62,86.45a1.35,1.35,0,1,0-1.34-1.36v0h0A1.34,1.34,0,0,0,67.62,86.45Z"/></g></g></g><g id="Text"><path class="cls-21" d="M29,148.6v-1.21a2.62,2.62,0,0,0,.49.33,4,4,0,0,0,.6.25,4.8,4.8,0,0,0,.63.15,3.28,3.28,0,0,0,.59.06,2.31,2.31,0,0,0,1.39-.35,1.18,1.18,0,0,0,.46-1,1.2,1.2,0,0,0-.15-.61,2.12,2.12,0,0,0-.43-.48,4.58,4.58,0,0,0-.63-.41l-.8-.42c-.3-.15-.58-.31-.84-.46a3.72,3.72,0,0,1-.68-.53,2.18,2.18,0,0,1-.45-.64,2.21,2.21,0,0,1,.09-1.89,2.23,2.23,0,0,1,.68-.72,3.23,3.23,0,0,1,1-.43,4.4,4.4,0,0,1,1.09-.14,4.28,4.28,0,0,1,1.86.31v1.15a3.38,3.38,0,0,0-2-.53,3,3,0,0,0-.66.07,1.81,1.81,0,0,0-.59.22,1.49,1.49,0,0,0-.42.41,1.09,1.09,0,0,0-.16.61,1.34,1.34,0,0,0,.12.58,1.52,1.52,0,0,0,.37.44,4.16,4.16,0,0,0,.58.39l.8.41c.3.15.6.32.87.49a3.81,3.81,0,0,1,.73.56,2.49,2.49,0,0,1,.49.69,2,2,0,0,1,.19.86,2.28,2.28,0,0,1-.25,1.09,2.07,2.07,0,0,1-.68.73,2.92,2.92,0,0,1-1,.4,5.5,5.5,0,0,1-1.16.12l-.51,0A4.55,4.55,0,0,1,30,149a5.08,5.08,0,0,1-.59-.15A2.41,2.41,0,0,1,29,148.6Z"/><path class="cls-21" d="M40.68,149h-1v-1h0a2,2,0,0,1-1.89,1.13c-1.47,0-2.2-.88-2.2-2.64v-3.72h1v3.56c0,1.31.49,2,1.49,2a1.48,1.48,0,0,0,1.18-.54,2.09,2.09,0,0,0,.47-1.41v-3.58h1Z"/><path class="cls-21" d="M43.64,148.05h0v.9h-1v-9.21h1v4.08h0a2.33,2.33,0,0,1,2.12-1.24,2.24,2.24,0,0,1,1.85.84,3.46,3.46,0,0,1,.67,2.24,3.9,3.9,0,0,1-.75,2.5,2.5,2.5,0,0,1-2.05.93A2,2,0,0,1,43.64,148.05Zm0-2.51v.87a1.88,1.88,0,0,0,.5,1.31,1.73,1.73,0,0,0,2.65-.16,3.17,3.17,0,0,0,.51-1.92A2.57,2.57,0,0,0,46.8,144a1.59,1.59,0,0,0-1.29-.59,1.72,1.72,0,0,0-1.38.61A2.25,2.25,0,0,0,43.61,145.54Z"/><path class="cls-21" d="M53,145.88H49.68v-.79H53Z"/><path class="cls-21" d="M57.89,143.74a1.14,1.14,0,0,0-.74-.2,1.25,1.25,0,0,0-1,.6,2.75,2.75,0,0,0-.43,1.64V149h-1v-6.22h1V144h0a2.11,2.11,0,0,1,.64-1,1.44,1.44,0,0,1,1-.37,1.46,1.46,0,0,1,.58.09Z"/><path class="cls-21" d="M63.86,146.09H59.52a2.33,2.33,0,0,0,.56,1.6,1.87,1.87,0,0,0,1.45.57,3,3,0,0,0,1.91-.7v.94a3.53,3.53,0,0,1-2.15.59,2.58,2.58,0,0,1-2-.84,3.49,3.49,0,0,1-.75-2.39,3.39,3.39,0,0,1,.82-2.36,2.59,2.59,0,0,1,2-.92,2.31,2.31,0,0,1,1.86.79,3.34,3.34,0,0,1,.66,2.2Zm-1-.85a2,2,0,0,0-.41-1.34,1.38,1.38,0,0,0-1.12-.48,1.55,1.55,0,0,0-1.18.51,2.19,2.19,0,0,0-.6,1.31Z"/><path class="cls-21" d="M70.55,149h-1v-1.06h0a2.47,2.47,0,0,1-4,.37,3.49,3.49,0,0,1-.69-2.28,3.78,3.78,0,0,1,.77-2.47,2.51,2.51,0,0,1,2-.93,2,2,0,0,1,1.84,1h0v-3.85h1Zm-1-2.81v-.92a1.8,1.8,0,0,0-.49-1.28,1.68,1.68,0,0,0-1.25-.52,1.66,1.66,0,0,0-1.41.67,2.93,2.93,0,0,0-.52,1.85,2.64,2.64,0,0,0,.49,1.69,1.61,1.61,0,0,0,1.33.63,1.66,1.66,0,0,0,1.34-.61A2.24,2.24,0,0,0,69.57,146.14Z"/><path class="cls-21" d="M77.45,146.09H73.11a2.37,2.37,0,0,0,.55,1.6,1.88,1.88,0,0,0,1.45.57,3,3,0,0,0,1.91-.7v.94a3.5,3.5,0,0,1-2.14.59,2.6,2.6,0,0,1-2-.84,3.54,3.54,0,0,1-.74-2.39,3.43,3.43,0,0,1,.81-2.36,2.6,2.6,0,0,1,2-.92,2.33,2.33,0,0,1,1.87.79,3.34,3.34,0,0,1,.66,2.2Zm-1-.85A2.08,2.08,0,0,0,76,143.9a1.4,1.4,0,0,0-1.13-.48,1.57,1.57,0,0,0-1.18.51,2.32,2.32,0,0,0-.6,1.31Z"/><path class="cls-21" d="M85.57,149h-1v-7.53a2.67,2.67,0,0,1-.33.27,3.88,3.88,0,0,1-.5.29c-.18.1-.37.19-.57.28a5.14,5.14,0,0,1-.59.2v-1a6.43,6.43,0,0,0,.68-.25c.25-.1.48-.22.72-.34s.45-.26.66-.4a5.4,5.4,0,0,0,.54-.41h.37Z"/><path class="cls-21" d="M31.1,197.64H29.9l-1.44-2.44a5.32,5.32,0,0,0-.38-.58,2.36,2.36,0,0,0-.38-.39,1.21,1.21,0,0,0-.42-.22,1.61,1.61,0,0,0-.51-.07h-.83v3.7h-1v-8.71H27.5a3.39,3.39,0,0,1,1,.15,2.26,2.26,0,0,1,.83.43,2,2,0,0,1,.55.73,2.62,2.62,0,0,1,.06,1.85,2.16,2.16,0,0,1-.38.68,2.66,2.66,0,0,1-.6.5,3.13,3.13,0,0,1-.79.33v0a2.71,2.71,0,0,1,.38.22l.3.3a4.17,4.17,0,0,1,.28.38l.32.5Zm-5.16-7.78V193h1.37a2,2,0,0,0,.7-.11,1.68,1.68,0,0,0,.55-.33,1.45,1.45,0,0,0,.37-.53,1.75,1.75,0,0,0,.13-.7,1.39,1.39,0,0,0-.44-1.09,1.92,1.92,0,0,0-1.3-.39Z"/><path class="cls-21" d="M36.79,194.78H32.45a2.4,2.4,0,0,0,.55,1.61,1.94,1.94,0,0,0,1.46.56,3,3,0,0,0,1.9-.69v.93a3.5,3.5,0,0,1-2.14.6,2.54,2.54,0,0,1-2-.85,3.47,3.47,0,0,1-.75-2.38,3.4,3.4,0,0,1,.82-2.37,2.57,2.57,0,0,1,2-.91,2.29,2.29,0,0,1,1.87.79,3.31,3.31,0,0,1,.66,2.19Zm-1-.84a2,2,0,0,0-.41-1.34,1.38,1.38,0,0,0-1.12-.48,1.58,1.58,0,0,0-1.19.5,2.3,2.3,0,0,0-.59,1.32Z"/><path class="cls-21" d="M43.58,197.64h-1v-1h0a2.25,2.25,0,0,1-2.11,1.2,2.28,2.28,0,0,1-1.85-.84,3.44,3.44,0,0,1-.69-2.27,3.76,3.76,0,0,1,.77-2.47,2.51,2.51,0,0,1,2-.93,1.94,1.94,0,0,1,1.84,1h0v-3.85h1Zm-1-2.81v-.92a1.82,1.82,0,0,0-.49-1.27,1.65,1.65,0,0,0-1.25-.52,1.71,1.71,0,0,0-1.42.66,3,3,0,0,0-.51,1.85,2.67,2.67,0,0,0,.49,1.7,1.63,1.63,0,0,0,1.33.62,1.69,1.69,0,0,0,1.34-.6A2.27,2.27,0,0,0,42.6,194.83Z"/><path class="cls-21" d="M50.57,194.78H46.24a2.35,2.35,0,0,0,.55,1.61,1.9,1.9,0,0,0,1.45.56,3,3,0,0,0,1.91-.69v.93a3.54,3.54,0,0,1-2.15.6,2.57,2.57,0,0,1-2-.85,4,4,0,0,1,.07-4.75,2.58,2.58,0,0,1,2-.91,2.28,2.28,0,0,1,1.86.79,3.31,3.31,0,0,1,.66,2.19Zm-1-.84a2,2,0,0,0-.41-1.34,1.38,1.38,0,0,0-1.12-.48,1.54,1.54,0,0,0-1.18.5,2.25,2.25,0,0,0-.6,1.32Z"/><path class="cls-21" d="M62.07,188.93l-3.18,8.71H57.78l-3.12-8.71h1.12l2.38,6.91a3.8,3.8,0,0,1,.18.77h0a3.74,3.74,0,0,1,.2-.78l2.43-6.9Z"/><path class="cls-21" d="M63.74,189.85a.65.65,0,0,1-.45-.19.65.65,0,0,1,.45-1.11.6.6,0,0,1,.46.19.59.59,0,0,1,.19.46.62.62,0,0,1-.19.46A.64.64,0,0,1,63.74,189.85Zm.48,7.79h-1v-6.22h1Z"/><path class="cls-21" d="M69.48,192.43a1.21,1.21,0,0,0-.74-.2,1.27,1.27,0,0,0-1.06.6,2.82,2.82,0,0,0-.42,1.64v3.17h-1v-6.22h1v1.29h0a2.2,2.2,0,0,1,.65-1,1.46,1.46,0,0,1,1-.37,1.52,1.52,0,0,1,.59.09Z"/><path class="cls-21" d="M73.46,197.58a1.87,1.87,0,0,1-.92.2c-1.07,0-1.61-.61-1.61-1.83v-3.68H69.87v-.85h1.06v-1.51l1-.33v1.84h1.55v.85H71.91v3.51a1.45,1.45,0,0,0,.21.89.83.83,0,0,0,.7.27,1,1,0,0,0,.64-.21Z"/><path class="cls-21" d="M79.8,197.64h-1v-1h0a2,2,0,0,1-1.89,1.13c-1.47,0-2.2-.88-2.2-2.65v-3.72h1V195c0,1.31.5,2,1.49,2a1.48,1.48,0,0,0,1.18-.54,2.06,2.06,0,0,0,.47-1.4v-3.59h1Z"/><path class="cls-21" d="M86.25,197.64h-1v-1h0a2.23,2.23,0,0,1-3.33.63,1.72,1.72,0,0,1-.52-1.31c0-1.16.68-1.84,2-2l1.84-.26c0-1.06-.42-1.58-1.26-1.58a3,3,0,0,0-2,.76v-1a3.78,3.78,0,0,1,2.09-.58c1.44,0,2.17.77,2.17,2.32Zm-1-3.14-1.48.2a2.33,2.33,0,0,0-1,.35,1,1,0,0,0-.35.87,1,1,0,0,0,.32.74,1.24,1.24,0,0,0,.86.29,1.54,1.54,0,0,0,1.2-.52,1.84,1.84,0,0,0,.48-1.31Z"/><path class="cls-21" d="M89.14,197.64h-1v-9.2h1Z"/><path class="cls-21" d="M54,65.3H52.81L48.5,58.5a3,3,0,0,1-.27-.54h0a8.87,8.87,0,0,1,0,1.17V65.3h-1V56.76h1.28l4.19,6.7c.18.28.29.47.34.57h0A9.26,9.26,0,0,1,53,62.78v-6h1Z"/><path class="cls-21" d="M62.76,65.3H61.67l-.89-2.39H57.23L56.4,65.3H55.3l3.22-8.54h1ZM60.46,62l-1.31-3.64A2.71,2.71,0,0,1,59,57.8h0a3.38,3.38,0,0,1-.14.57L57.56,62Z"/><path class="cls-21" d="M68.15,57.67H65.73V65.3h-1V57.67H62.33v-.91h5.82Z"/><path class="cls-21" d="M2.92,10.23h-1V1.69h1Z"/><path class="cls-21" d="M5.81,7v3.23h-1V1.69H7.13a3,3,0,0,1,2.08.67A2.4,2.4,0,0,1,10,4.24a2.65,2.65,0,0,1-.82,2A3.14,3.14,0,0,1,6.91,7Zm0-4.41V6.1h1a2.23,2.23,0,0,0,1.55-.48,1.67,1.67,0,0,0,.54-1.33c0-1.13-.66-1.7-2-1.7Z"/><path class="cls-21" d="M15.06,9.35h0V13h-1V4.13h1V5.2h0A2.25,2.25,0,0,1,17.12,4a2.16,2.16,0,0,1,1.81.82A3.42,3.42,0,0,1,19.58,7a3.86,3.86,0,0,1-.73,2.45,2.44,2.44,0,0,1-2,.92A2,2,0,0,1,15.06,9.35Zm0-2.46v.85A1.83,1.83,0,0,0,15.51,9a1.61,1.61,0,0,0,1.23.53,1.59,1.59,0,0,0,1.36-.68A3.15,3.15,0,0,0,18.6,7a2.45,2.45,0,0,0-.47-1.59,1.49,1.49,0,0,0-1.25-.58,1.7,1.7,0,0,0-1.34.59A2.21,2.21,0,0,0,15,6.89Z"/><path class="cls-21" d="M25.65,10.23h-1v-1h0a2,2,0,0,1-1.84,1.11c-1.43,0-2.14-.86-2.14-2.6V4.13h.95V7.62c0,1.29.49,1.93,1.45,1.93A1.48,1.48,0,0,0,24.24,9a2,2,0,0,0,.45-1.38V4.13h1ZM24.75,1,23.22,3h-.75l1.31-2Z"/><path class="cls-21" d="M28.26,9.35h0v.88h-1v-9h1v4h0A2.25,2.25,0,0,1,30.33,4a2.15,2.15,0,0,1,1.8.82A3.36,3.36,0,0,1,32.78,7a3.8,3.8,0,0,1-.73,2.45,2.4,2.4,0,0,1-2,.92A2,2,0,0,1,28.26,9.35Zm0-2.46v.85A1.83,1.83,0,0,0,28.72,9a1.59,1.59,0,0,0,1.22.53,1.61,1.61,0,0,0,1.37-.68A3.15,3.15,0,0,0,31.8,7a2.45,2.45,0,0,0-.46-1.59,1.5,1.5,0,0,0-1.25-.58,1.69,1.69,0,0,0-1.34.59A2.21,2.21,0,0,0,28.24,6.89Z"/><path class="cls-21" d="M35,10.23H34v-9h1Z"/><path class="cls-21" d="M37.1,2.58a.58.58,0,0,1-.43-.18A.58.58,0,0,1,36.48,2a.58.58,0,0,1,.19-.45.56.56,0,0,1,.43-.19.58.58,0,0,1,.45.19.61.61,0,0,1,.18.45.63.63,0,0,1-.18.45A.61.61,0,0,1,37.1,2.58Zm.47,7.65h-1V4.13h1Z"/><path class="cls-21" d="M43.29,10a3.08,3.08,0,0,1-1.64.42,2.66,2.66,0,0,1-2.06-.85,3.08,3.08,0,0,1-.79-2.2,3.4,3.4,0,0,1,.85-2.42A2.92,2.92,0,0,1,41.91,4a3.06,3.06,0,0,1,1.39.3v1a2.38,2.38,0,0,0-1.42-.48,1.9,1.9,0,0,0-1.51.67,2.58,2.58,0,0,0-.59,1.76,2.44,2.44,0,0,0,.56,1.69,1.88,1.88,0,0,0,1.48.62A2.39,2.39,0,0,0,43.29,9Z"/><path class="cls-21" d="M46.94,10.37a2.74,2.74,0,0,1-2.12-.85A3.2,3.2,0,0,1,44,7.25a3.34,3.34,0,0,1,.82-2.4A3,3,0,0,1,47.08,4a2.66,2.66,0,0,1,2.09.84,3.36,3.36,0,0,1,.75,2.33,3.29,3.29,0,0,1-.81,2.33A2.79,2.79,0,0,1,46.94,10.37ZM47,4.81a1.79,1.79,0,0,0-1.46.64A2.65,2.65,0,0,0,45,7.21a2.51,2.51,0,0,0,.54,1.71A1.84,1.84,0,0,0,47,9.55a1.77,1.77,0,0,0,1.43-.61,2.72,2.72,0,0,0,.5-1.75,2.75,2.75,0,0,0-.5-1.76A1.75,1.75,0,0,0,47,4.81Z"/><path class="cls-21" d="M62.54,7v3.23h-1V1.69h2.3A3,3,0,0,1,66,2.36a2.4,2.4,0,0,1,.74,1.88,2.65,2.65,0,0,1-.82,2A3.14,3.14,0,0,1,63.65,7Zm0-4.41V6.1h1a2.23,2.23,0,0,0,1.55-.48,1.67,1.67,0,0,0,.54-1.33c0-1.13-.66-1.7-2-1.7Z"/><path class="cls-21" d="M71,5.12a1.18,1.18,0,0,0-.73-.2,1.21,1.21,0,0,0-1,.59,2.72,2.72,0,0,0-.42,1.61v3.11h-1V4.13h1V5.39h0a2.1,2.1,0,0,1,.62-1A1.42,1.42,0,0,1,70.38,4a1.5,1.5,0,0,1,.58.09Z"/><path class="cls-21" d="M76.5,7.42H72.28A2.27,2.27,0,0,0,72.82,9a1.82,1.82,0,0,0,1.41.56,3,3,0,0,0,1.86-.68v.92a3.43,3.43,0,0,1-2.09.58,2.52,2.52,0,0,1-2-.83,3.45,3.45,0,0,1-.72-2.34,3.37,3.37,0,0,1,.79-2.32A2.53,2.53,0,0,1,74,4a2.24,2.24,0,0,1,1.82.77,3.26,3.26,0,0,1,.64,2.15Zm-1-.82a2,2,0,0,0-.4-1.32A1.36,1.36,0,0,0,74,4.81a1.51,1.51,0,0,0-1.15.49,2.28,2.28,0,0,0-.59,1.3Z"/><path class="cls-21" d="M80.61,2.06A1.24,1.24,0,0,0,80,1.9c-.67,0-1,.43-1,1.29v.94h1.4V5H79v5.27H78V5H77V4.13h1v-1a2.07,2.07,0,0,1,.54-1.51,1.81,1.81,0,0,1,1.35-.56,1.86,1.86,0,0,1,.7.11Z"/><path class="cls-21" d="M81.59,2.58a.6.6,0,0,1-.44-.18A.61.61,0,0,1,81,2a.61.61,0,0,1,.18-.45.58.58,0,0,1,.44-.19.63.63,0,0,1,.63.64A.63.63,0,0,1,82,2.4.64.64,0,0,1,81.59,2.58Zm.47,7.65h-1V4.13h1Z"/><path class="cls-21" d="M88.07,4.13l-2,3.08,2,3H86.92l-1.18-2-.26-.46h0l-.28.46-1.2,2h-1.1l2-3L83,4.13h1.11l1.16,2.08.25.48h0L87,4.13Z"/><path class="cls-21" d="M91.39,10.37a2.74,2.74,0,0,1-2.12-.85,3.2,3.2,0,0,1-.79-2.27,3.34,3.34,0,0,1,.82-2.4A3,3,0,0,1,91.53,4a2.66,2.66,0,0,1,2.09.84,3.36,3.36,0,0,1,.75,2.33,3.29,3.29,0,0,1-.81,2.33A2.79,2.79,0,0,1,91.39,10.37Zm.07-5.56A1.79,1.79,0,0,0,90,5.45a2.65,2.65,0,0,0-.54,1.76A2.51,2.51,0,0,0,90,8.92a1.84,1.84,0,0,0,1.46.63,1.77,1.77,0,0,0,1.43-.61,2.72,2.72,0,0,0,.5-1.75,2.75,2.75,0,0,0-.5-1.76A1.75,1.75,0,0,0,91.46,4.81Z"/><path class="cls-21" d="M103.68,10.23h-1v-1h0a2.39,2.39,0,0,1-3.86.36,3.39,3.39,0,0,1-.67-2.23,3.69,3.69,0,0,1,.75-2.42,2.44,2.44,0,0,1,2-.91,1.9,1.9,0,0,1,1.79,1h0V1.2h1Zm-1-2.76v-.9a1.75,1.75,0,0,0-.47-1.25A1.61,1.61,0,0,0,101,4.81a1.67,1.67,0,0,0-1.38.65,3,3,0,0,0-.5,1.81,2.63,2.63,0,0,0,.48,1.67,1.55,1.55,0,0,0,1.3.61,1.65,1.65,0,0,0,1.3-.59A2.23,2.23,0,0,0,102.72,7.47Z"/><path class="cls-21" d="M110.13,7.42h-4.22A2.22,2.22,0,0,0,106.45,9a1.82,1.82,0,0,0,1.41.56,3,3,0,0,0,1.86-.68v.92a3.43,3.43,0,0,1-2.09.58,2.52,2.52,0,0,1-2-.83,3.45,3.45,0,0,1-.73-2.34,3.37,3.37,0,0,1,.8-2.32,2.52,2.52,0,0,1,2-.89,2.26,2.26,0,0,1,1.82.77,3.26,3.26,0,0,1,.64,2.15Zm-1-.82a2,2,0,0,0-.4-1.32,1.36,1.36,0,0,0-1.1-.47,1.54,1.54,0,0,0-1.15.49,2.27,2.27,0,0,0-.58,1.3Z"/><path class="cls-21" d="M115.37,10.23h-1V1.69h1Z"/><path class="cls-21" d="M118.25,7v3.23h-1V1.69h2.3a3,3,0,0,1,2.09.67,2.4,2.4,0,0,1,.74,1.88,2.62,2.62,0,0,1-.83,2,3.1,3.1,0,0,1-2.21.77Zm0-4.41V6.1h1a2.23,2.23,0,0,0,1.55-.48,1.67,1.67,0,0,0,.54-1.33c0-1.13-.66-1.7-2-1.7Z"/><path class="cls-21" d="M99.53,148.6v-1.21a2.62,2.62,0,0,0,.49.33,4,4,0,0,0,.6.25,4.8,4.8,0,0,0,.63.15,3.19,3.19,0,0,0,.59.06,2.31,2.31,0,0,0,1.39-.35,1.18,1.18,0,0,0,.46-1,1.2,1.2,0,0,0-.15-.61,2.12,2.12,0,0,0-.43-.48,4.17,4.17,0,0,0-.64-.41l-.79-.42c-.3-.15-.58-.31-.84-.46a3.72,3.72,0,0,1-.68-.53,2.18,2.18,0,0,1-.45-.64,2.21,2.21,0,0,1,.09-1.89,2.23,2.23,0,0,1,.68-.72,3.23,3.23,0,0,1,1-.43,4.4,4.4,0,0,1,1.09-.14,4.19,4.19,0,0,1,1.85.31v1.15a3.35,3.35,0,0,0-1.95-.53,3,3,0,0,0-.66.07,1.81,1.81,0,0,0-.59.22,1.49,1.49,0,0,0-.42.41,1.09,1.09,0,0,0-.16.61,1.22,1.22,0,0,0,.48,1,5,5,0,0,0,.59.39l.79.41c.31.15.6.32.88.49a3.81,3.81,0,0,1,.73.56,2.72,2.72,0,0,1,.49.69,2,2,0,0,1,.18.86,2.28,2.28,0,0,1-.24,1.09,2.07,2.07,0,0,1-.68.73,2.92,2.92,0,0,1-1,.4,5.52,5.52,0,0,1-1.17.12l-.5,0a4.55,4.55,0,0,1-.61-.1,4.61,4.61,0,0,1-.59-.15A2.41,2.41,0,0,1,99.53,148.6Z"/><path class="cls-21" d="M111.26,149h-1v-1h0a2,2,0,0,1-1.9,1.13q-2.19,0-2.19-2.64v-3.72h1v3.56c0,1.31.49,2,1.48,2a1.5,1.5,0,0,0,1.19-.54,2.08,2.08,0,0,0,.46-1.41v-3.58h1Z"/><path class="cls-21" d="M114.21,148.05h0v.9h-1v-9.21h1v4.08h0a2.35,2.35,0,0,1,2.13-1.24,2.24,2.24,0,0,1,1.85.84,3.52,3.52,0,0,1,.67,2.24,3.9,3.9,0,0,1-.75,2.5,2.5,2.5,0,0,1-2,.93A2,2,0,0,1,114.21,148.05Zm0-2.51v.87a1.88,1.88,0,0,0,.5,1.31,1.6,1.6,0,0,0,1.25.54,1.62,1.62,0,0,0,1.4-.7,3.17,3.17,0,0,0,.51-1.92,2.57,2.57,0,0,0-.47-1.63,1.59,1.59,0,0,0-1.29-.59,1.72,1.72,0,0,0-1.38.61A2.2,2.2,0,0,0,114.19,145.54Z"/><path class="cls-21" d="M123.54,145.88h-3.28v-.79h3.28Z"/><path class="cls-21" d="M128.47,143.74a1.14,1.14,0,0,0-.74-.2,1.27,1.27,0,0,0-1.06.6,2.82,2.82,0,0,0-.42,1.64V149h-1v-6.22h1V144h0a2.11,2.11,0,0,1,.64-1,1.43,1.43,0,0,1,1-.37,1.49,1.49,0,0,1,.59.09Z"/><path class="cls-21" d="M134.44,146.09H130.1a2.37,2.37,0,0,0,.55,1.6,1.91,1.91,0,0,0,1.46.57,2.94,2.94,0,0,0,1.9-.7v.94a3.5,3.5,0,0,1-2.14.59,2.57,2.57,0,0,1-2-.84,3.49,3.49,0,0,1-.75-2.39,3.39,3.39,0,0,1,.82-2.36,2.58,2.58,0,0,1,2-.92,2.32,2.32,0,0,1,1.87.79,3.34,3.34,0,0,1,.66,2.2Zm-1-.85a2,2,0,0,0-.41-1.34,1.38,1.38,0,0,0-1.12-.48,1.59,1.59,0,0,0-1.19.51,2.24,2.24,0,0,0-.59,1.31Z"/><path class="cls-21" d="M141.13,149h-1v-1.06h0a2.47,2.47,0,0,1-4,.37,3.49,3.49,0,0,1-.69-2.28,3.78,3.78,0,0,1,.77-2.47,2.51,2.51,0,0,1,2-.93,2,2,0,0,1,1.85,1h0v-3.85h1Zm-1-2.81v-.92a1.8,1.8,0,0,0-.49-1.28,1.8,1.8,0,0,0-2.67.15,3,3,0,0,0-.51,1.85,2.64,2.64,0,0,0,.49,1.69,1.61,1.61,0,0,0,1.33.63,1.67,1.67,0,0,0,1.34-.61A2.24,2.24,0,0,0,140.15,146.14Z"/><path class="cls-21" d="M148,146.09h-4.34a2.32,2.32,0,0,0,.55,1.6,1.88,1.88,0,0,0,1.45.57,3,3,0,0,0,1.91-.7v.94a3.5,3.5,0,0,1-2.14.59,2.6,2.6,0,0,1-2.05-.84,3.54,3.54,0,0,1-.74-2.39,3.43,3.43,0,0,1,.81-2.36,2.6,2.6,0,0,1,2-.92,2.33,2.33,0,0,1,1.87.79,3.34,3.34,0,0,1,.66,2.2Zm-1-.85a2.08,2.08,0,0,0-.41-1.34,1.4,1.4,0,0,0-1.13-.48,1.57,1.57,0,0,0-1.18.51,2.32,2.32,0,0,0-.6,1.31Z"/><path class="cls-21" d="M156.44,142.52a1.9,1.9,0,0,0-.12-.7,1.44,1.44,0,0,0-.34-.49,1.32,1.32,0,0,0-.5-.29,1.79,1.79,0,0,0-.62-.1,1.83,1.83,0,0,0-.57.08,2.2,2.2,0,0,0-.53.22,2.78,2.78,0,0,0-.51.33,3.64,3.64,0,0,0-.45.43v-1.07a2.76,2.76,0,0,1,.93-.62,3.25,3.25,0,0,1,1.25-.22,3,3,0,0,1,1,.16,2.16,2.16,0,0,1,.78.45,2,2,0,0,1,.52.74,2.41,2.41,0,0,1,.19,1,3.38,3.38,0,0,1-.12.93,2.55,2.55,0,0,1-.35.79,3.59,3.59,0,0,1-.6.71,9.14,9.14,0,0,1-.84.7c-.41.29-.74.54-1,.74a4.49,4.49,0,0,0-.62.58,1.57,1.57,0,0,0-.33.54,2,2,0,0,0-.09.63h4.28V149h-5.31v-.43a3.68,3.68,0,0,1,.12-1,2.41,2.41,0,0,1,.4-.8,4.23,4.23,0,0,1,.72-.77c.3-.25.66-.54,1.1-.86a8.35,8.35,0,0,0,.78-.65,3.48,3.48,0,0,0,.51-.62,2.85,2.85,0,0,0,.27-.63A3,3,0,0,0,156.44,142.52Z"/></g></svg>