<svg xmlns="http://www.w3.org/2000/svg" xmlns:xlink="http://www.w3.org/1999/xlink" viewBox="0 0 299.16 285.86"><defs><style>.cls-1{fill:#fff;}.cls-2{fill:#ccc;fill-opacity:0.3;}.cls-22,.cls-23,.cls-25,.cls-3,.cls-4,.cls-8{fill:none;stroke-miterlimit:10;}.cls-22,.cls-3,.cls-4{stroke:#3c3c41;}.cls-4{stroke-dasharray:1.31 2.19;}.cls-5,.cls-6,.cls-7{fill:#3c3c41;}.cls-6{opacity:0.2;}.cls-33,.cls-34,.cls-6,.cls-7,.cls-8{isolation:isolate;}.cls-7{opacity:0.02;}.cls-23,.cls-25,.cls-8{stroke:#365615;}.cls-8{stroke-width:0.5px;opacity:0.5;}.cls-9{fill:url(#Degradado_sin_nombre);}.cls-10{fill:#50e6ff;}.cls-11{fill:#c3f1ff;}.cls-12{fill:#9cebff;}.cls-13{fill:url(#Degradado_sin_nombre_2);}.cls-14{fill:url(#Degradado_sin_nombre_3);}.cls-15{fill:url(#Degradado_sin_nombre_4);}.cls-16{fill:#005ba1;}.cls-17{fill:#0078d4;}.cls-18{fill:url(#Degradado_sin_nombre_5);}.cls-19{fill:url(#Degradado_sin_nombre_6);}.cls-20{fill:url(#Degradado_sin_nombre_7);}.cls-21{fill:url(#Degradado_sin_nombre_8);}.cls-22,.cls-25{stroke-dasharray:1.46 2.43;}.cls-24{fill:#365615;}.cls-26{fill:url(#Degradado_sin_nombre_9);}.cls-27{fill:url(#Degradado_sin_nombre_10);}.cls-28{fill:url(#Degradado_sin_nombre_11);}.cls-29{fill:#1490df;}.cls-30{fill:url(#Degradado_sin_nombre_12);}.cls-31{fill:#b4ec36;}.cls-32{fill:#5ea0ef;}.cls-33{fill:#9bf00b;}.cls-33,.cls-34{opacity:0.4;}.cls-34,.cls-35{fill:#6ebcdb;}.cls-36{fill:#5db4d7;}.cls-37{fill:#e6e6e6;}.cls-38{fill:#86d633;}.cls-39{fill:#1e1e1e;}</style><linearGradient id="Degradado_sin_nombre" x1="99.67" y1="476.24" x2="99.67" y2="457.48" gradientTransform="translate(0 -322.62)" gradientUnits="userSpaceOnUse"><stop offset="0" stop-color="#0078d4"/><stop offset="0.82" stop-color="#5ea0ef"/></linearGradient><linearGradient id="Degradado_sin_nombre_2" x1="99.67" y1="483.48" x2="99.67" y2="476.24" gradientTransform="translate(0 -322.62)" gradientUnits="userSpaceOnUse"><stop offset="0.15" stop-color="#ccc"/><stop offset="1" stop-color="#707070"/></linearGradient><linearGradient id="Degradado_sin_nombre_3" x1="140.38" y1="476.24" x2="140.38" y2="457.48" xlink:href="#Degradado_sin_nombre"/><linearGradient id="Degradado_sin_nombre_4" x1="140.36" y1="483.48" x2="140.36" y2="476.24" xlink:href="#Degradado_sin_nombre_2"/><linearGradient id="Degradado_sin_nombre_5" x1="267.03" y1="464.26" x2="267.03" y2="453.92" xlink:href="#Degradado_sin_nombre"/><linearGradient id="Degradado_sin_nombre_6" x1="267.07" y1="468.25" x2="267.07" y2="464.26" xlink:href="#Degradado_sin_nombre_2"/><linearGradient id="Degradado_sin_nombre_7" x1="219.33" y1="464.24" x2="219.33" y2="445.48" xlink:href="#Degradado_sin_nombre"/><linearGradient id="Degradado_sin_nombre_8" x1="219.35" y1="471.48" x2="219.35" y2="464.24" xlink:href="#Degradado_sin_nombre_2"/><linearGradient id="Degradado_sin_nombre_9" x1="71.05" y1="523.53" x2="73.42" y2="525.9" gradientTransform="translate(2.85 -323.95)" gradientUnits="userSpaceOnUse"><stop offset="0" stop-color="#86d633"/><stop offset="0.24" stop-color="#83d232"/><stop offset="0.5" stop-color="#7cc52f"/><stop offset="0.76" stop-color="#6fb02a"/><stop offset="1" stop-color="#5e9624"/></linearGradient><linearGradient id="Degradado_sin_nombre_10" x1="65.71" y1="523.53" x2="68.06" y2="525.9" xlink:href="#Degradado_sin_nombre_9"/><linearGradient id="Degradado_sin_nombre_11" x1="60.36" y1="523.53" x2="62.72" y2="525.9" xlink:href="#Degradado_sin_nombre_9"/><linearGradient id="Degradado_sin_nombre_12" x1="86.49" y1="388.4" x2="86.49" y2="352.46" gradientTransform="translate(0 -322.62)" gradientUnits="userSpaceOnUse"><stop offset="0" stop-color="#5e9624"/><stop offset="0.02" stop-color="#5f9724"/><stop offset="1" stop-color="#76bc2d"/></linearGradient></defs><title>OJ104903209</title><g id="Target"><g id="Shapes"><rect class="cls-1" width="299.16" height="285.86"/><rect class="cls-2" x="143.16" y="210.86" width="155" height="35"/><rect class="cls-2" x="143.16" y="250.86" width="155" height="35"/><line class="cls-3" x1="158.86" y1="260.86" x2="158.11" y2="260.86"/><line class="cls-4" x1="155.92" y1="260.86" x2="150.01" y2="260.86"/><line class="cls-3" x1="148.91" y1="260.86" x2="148.16" y2="260.86"/><polygon class="cls-5" points="157.98 257.86 163.16 260.86 157.98 263.85 157.98 257.86"/><path class="cls-5" d="M292.5,200.86h-1v-1h1Zm-3,0h-1v-1h1Zm-3,0h-1v-1h1Zm-3,0h-1v-1h1Zm-3,0h-1v-1h1Zm-3,0h-1v-1h1Zm-3,0h-1v-1h1Zm-3,0h-1v-1h1Zm-3,0h-1v-1h1Zm-3,0h-1v-1h1Zm-3,0h-1v-1h1Zm-3,0h-1v-1h1Zm-3,0h-1v-1h1Zm-3,0h-1v-1h1Zm-3,0h-1v-1h1Zm-3,0h-1v-1h1Zm-3,0h-1v-1h1Zm-3,0h-1v-1h1Zm-3,0h-1v-1h1Zm-3,0h-1v-1h1Zm-3,0h-1v-1h1Zm-3,0h-1v-1h1Zm-3,0h-1v-1h1Zm-3,0h-1v-1h1Zm-3,0h-1v-1h1Zm-3,0h-1v-1h1Zm-3,0h-1v-1h1Zm-3,0h-1v-1h1Zm-3,0h-1v-1h1Zm-3,0h-1v-1h1Zm-3,0h-1v-1h1Zm-3,0h-1v-1h1Zm-3,0h-1v-1h1Zm-3,0h-1v-1h1Zm-3,0h-1v-1h1Zm-3,0h-1v-1h1Zm-3,0h-1v-1h1Zm-3,0h-1v-1h1Zm-3,0h-1v-1h1Zm-3,0h-1v-1h1Zm-3,0h-1v-1h1Zm-3,0h-1v-1h1Zm-3,0h-1v-1h1Zm-3,0h-1v-1h1Zm-3,0h-1v-1h1Zm-3,0h-1v-1h1Zm-3,0h-1v-1h1Zm-3,0h-1v-1h1Zm-3,0h-1v-1h1Zm-3,0h-1v-1h1Zm-3,0h-1v-1h1Zm-3,0h-1v-1h1Zm-3,0h-1v-1h1Zm-3,0h-1v-1h1Zm-3,0h-1v-1h1Zm-3,0h-1v-1h1Zm-3,0h-1v-1h1Zm-3,0h-1v-1h1Zm-3,0h-1v-1h1Zm-3,0h-1v-1h1Zm-3,0h-1v-1h1Zm-3,0h-1v-1h1Zm-3,0h-1v-1h1Zm-3,0h-1v-1h1Zm-3,0h-1v-1h1Zm-3,0h-1v-1h1Zm-3,0h-1v-1h1Zm-3,0h-1v-1h1Zm-3,0h-1v-1h1Zm-3,0h-1v-1h1Zm-30,0h-1v-1h1Zm239.48-.08-.16-1a4.4,4.4,0,0,0,.86-.24l.37.93a4.94,4.94,0,0,1-1.42.31ZM52,200.59a6,6,0,0,1-1-.45l.49-.87a4.09,4.09,0,0,0,.83.36Zm245.52-1.29-.7-.72a5.35,5.35,0,0,0,.58-.68l.83.56a6.54,6.54,0,0,1-.74.84Zm-248.18-.59a5.06,5.06,0,0,1-.58-.94l.89-.44a5.41,5.41,0,0,0,.48.76Zm249.74-2.26-1-.2a4.41,4.41,0,0,0,.09-.89l1-.06v.06a5,5,0,0,1-.12,1.09Zm-250.88-.8v-1h1v1Zm251-2.36h-1v-1h1Zm-250-.67h-1v-1h1Zm250-2.33h-1v-1h1Zm-250-.67h-1v-1h1Zm250-2.34h-1v-1h1Zm-250-.67h-1v-1h1Zm250-2.33h-1v-1h1Zm-250-.67h-1v-1h1Zm250-2.34h-1v-1h1Zm-250-.67h-1v-1h1Zm250-2.33h-1v-1h1Zm-250-.67h-1v-1h1Zm250-2.34h-1v-1h1Zm-250-.67h-1v-1h1Zm250-2.33h-1v-1h1Zm-250-.67h-1v-1h1Zm250-2.34h-1v-1h1Zm-250-.67h-1v-1h1Zm250-2.33h-1v-1h1Zm-250-.67h-1v-1h1Zm250-2.34h-1v-1h1Zm-250-.67h-1v-1h1Zm250-2.33h-1v-1h1Zm-250-.67h-1v-1h1Zm250-2.34h-1v-1h1Zm-250-.67h-1v-1h1Zm250-2.33h-1v-1h1Zm-250-.67h-1v-1h1Zm250-2.34h-1v-1h1Zm-250-.67h-1v-1h1Zm250-2.33h-1v-1h1Zm-250-.67h-1v-1h1Zm250-2.34h-1v-1h1Zm-250-.67h-1v-1h1Zm250-2.33h-1v-1h1Zm-250-.67h-1v-1h1Zm250-2.34h-1v-1h1Zm-250-.67h-1v-1h1Zm250-2.33h-1v-1h1Zm-250-.67h-1v-1h1Zm250-2.34h-1v-1h1Zm-250-.67h-1v-1h1Zm250-2.33h-1v-1h1Zm-250-.67h-1v-1h1Zm250-2.34h-1v-1h1Zm-250-.67h-1v-1h1Zm250-2.33h-1v-1h1Zm-250-.67h-1v-1h1Zm250-2.34h-1v-1h1Zm-250-.67h-1v-1h1Zm250-2.33h-1v-1h1Zm-250-.67h-1v-1h1Zm250-2.34h-1v-1h1Zm-250-.67h-1v-1h1Zm250-2.33h-1v-1h1Zm-250-.67h-1v-1h1Zm250-2.34h-1v-1h1Zm-250-.67h-1v-1h1Zm250-2.33h-1v-1h1Zm-250-.67h-1v-1h1Zm250-2.34h-1v-1h1Zm-250-.67h-1v-1h1Zm250-2.33h-1v-1h1Zm-250-.67h-1v-1h1Zm250-2.34h-1v-1h1Zm-250-.67h-1v-1h1Zm250-2.33h-1v-1h1Zm-250-.67h-1v-1h1Zm250-2.34h-1v-1h1Zm-250-.67h-1v-1h1Zm250-2.33h-1v-1h1Zm-250-.67h-1v-1h1Zm250-2.34h-1v-1h1Zm-250-.67h-1v-1h1Zm250-2.33h-1v-1h1Zm-250-.68h-1v-1h1Zm250-2.33h-1v-1h1Zm-250-.67h-1v-1h1Zm250-2.33h-1v-1h1Zm-250-.67h-1v-1h1Zm250-2.34h-1v-1h1Zm-250-.67h-1v-1h1Zm250-2.33h-1v-1h1Zm-250-.68h-1v-1h1Zm250-2.33h-1v-1h1Zm-250-.67h-1v-1h1Zm250-2.33h-1v-1h1Zm-250-.68h-1v-1h1Zm250-2.33h-1v-1h1Zm-250-.67h-1v-1h1Zm250-2.33h-1v-1h1Zm-250-.68h-1v-1h1Zm250-2.33h-1v-1h1Zm-250-.67h-1v-1h1Zm250-2.34h-1v-1l1-.06v1.06Zm-251-.67h0a5.47,5.47,0,0,1,.11-1.07l1,.2a4.28,4.28,0,0,0-.09.87Zm249.53-2a3.75,3.75,0,0,0-.48-.76L298,48a5.62,5.62,0,0,1,.59.93ZM49.94,48.84l-.83-.57a6.31,6.31,0,0,1,.71-.84l.7.72A4.24,4.24,0,0,0,49.94,48.84Zm245.91-1.41a4,4,0,0,0-.82-.36l.3-1a5.2,5.2,0,0,1,1,.43ZM52,47.17l-.37-.93a4.92,4.92,0,0,1,1.06-.3l.18,1A4.29,4.29,0,0,0,52,47.17Zm241.18-.31h-1v-1h1Zm-3,0h-1v-1h1Zm-3,0h-1v-1h1Zm-3,0h-1v-1h1Zm-3,0h-1v-1h1Zm-3,0h-1v-1h1Zm-3,0h-1v-1h1Zm-3,0h-1v-1h1Zm-3,0h-1v-1h1Zm-3,0h-1v-1h1Zm-3,0h-1v-1h1Zm-3,0h-1v-1h1Zm-3,0h-1v-1h1Zm-3,0h-1v-1h1Zm-3,0h-1v-1h1Zm-3,0h-1v-1h1Zm-3,0h-1v-1h1Zm-3,0h-1v-1h1Zm-3,0h-1v-1h1Zm-3,0h-1v-1h1Zm-27,0h-1v-1h1Zm-3,0h-1v-1h1Zm-3,0h-1v-1h1Zm-3,0h-1v-1h1Zm-3,0h-1v-1h1Zm-3,0h-1v-1h1Zm-3,0h-1v-1h1Zm-3,0h-1v-1h1Zm-3,0h-1v-1h1Zm-3,0h-1v-1h1Zm-3,0h-1v-1h1Zm-3,0h-1v-1h1Zm-3,0h-1v-1h1Zm-3,0h-1v-1h1Zm-3,0h-1v-1h1Zm-3,0h-1v-1h1Zm-3,0h-1v-1h1Zm-3,0h-1v-1h1Zm-3,0h-1v-1h1Zm-3,0h-1v-1h1Zm-3,0h-1v-1h1Zm-3,0h-1v-1h1Zm-3,0h-1v-1h1Zm-3,0h-1v-1h1Zm-3,0h-1v-1h1Zm-3,0h-1v-1h1Zm-3,0h-1v-1h1Zm-3,0h-1v-1h1Zm-3,0h-1v-1h1Zm-3,0h-1v-1h1Zm-3,0h-1v-1h1Zm-3,0h-1v-1h1Zm-3,0h-1v-1h1Zm-3,0h-1v-1h1Zm-3,0h-1v-1h1Zm-3,0h-1v-1h1Zm-3,0h-1v-1h1Zm-3,0h-1v-1h1Zm-3,0h-1v-1h1Zm-3,0h-1v-1h1Zm-3,0h-1v-1h1Zm-3,0h-1v-1h1Zm-3,0h-1v-1h1Zm-3,0h-1v-1h1Zm-3,0h-1v-1h1Zm-3,0h-1v-1h1Zm-3,0h-1v-1h1Zm-3,0h-1v-1h1Zm-3,0h-1v-1h1Zm-3,0h-1v-1h1Zm-3,0h-1v-1h1Zm-3,0h-1v-1h1Z"/><rect class="cls-1" x="58.16" y="90.86" width="125" height="95"/><rect class="cls-6" x="58.16" y="90.86" width="125" height="95"/><rect class="cls-1" x="63.16" y="110.86" width="115" height="70"/><rect class="cls-7" x="63.16" y="110.86" width="115" height="70"/><rect class="cls-8" x="63.16" y="110.86" width="115" height="70"/><rect class="cls-9" x="85.6" y="134.86" width="28.14" height="18.76" rx="0.94"/><polygon class="cls-10" points="104.36 141.5 104.36 146.96 99.67 149.71 99.67 144.24 104.36 141.5"/><polygon class="cls-11" points="104.36 141.5 99.67 144.25 94.98 141.5 99.67 138.76 104.36 141.5"/><polygon class="cls-12" points="99.67 144.25 99.67 149.71 94.98 146.96 94.98 141.5 99.67 144.25"/><polygon class="cls-11" points="94.98 146.96 99.67 144.24 99.67 149.71 94.98 146.96"/><polygon class="cls-12" points="104.36 146.96 99.67 144.24 99.67 149.71 104.36 146.96"/><path class="cls-13" d="M105.32,159.29c-2.79-.44-2.89-2.44-2.89-5.67H96.91c0,3.23-.1,5.23-2.88,5.67a1.56,1.56,0,0,0-1.39,1.57h14.07A1.56,1.56,0,0,0,105.32,159.29Z"/><rect class="cls-14" x="126.31" y="134.86" width="28.14" height="18.76" rx="0.94"/><polygon class="cls-10" points="145.07 141.5 145.07 146.96 140.38 149.71 140.38 144.24 145.07 141.5"/><polygon class="cls-11" points="145.07 141.5 140.38 144.25 135.69 141.5 140.38 138.76 145.07 141.5"/><polygon class="cls-12" points="140.38 144.25 140.38 149.71 135.69 146.96 135.69 141.5 140.38 144.25"/><polygon class="cls-11" points="135.69 146.96 140.38 144.24 140.38 149.71 135.69 146.96"/><polygon class="cls-12" points="145.07 146.96 140.38 144.24 140.38 149.71 145.07 146.96"/><path class="cls-15" d="M146,159.29c-2.78-.44-2.89-2.44-2.89-5.67h-5.52c0,3.23-.09,5.23-2.88,5.67a1.56,1.56,0,0,0-1.39,1.57h14.07A1.56,1.56,0,0,0,146,159.29Z"/><rect class="cls-1" x="193.16" y="90.86" width="95" height="95"/><rect class="cls-6" x="193.16" y="90.86" width="95" height="95"/><rect class="cls-16" x="248.76" y="119.63" width="15.46" height="10.32" rx="0.52"/><polygon class="cls-10" points="259.07 123.28 259.07 126.3 256.5 127.79 256.5 124.8 259.07 123.28"/><polygon class="cls-11" points="259.07 123.28 256.5 124.8 253.92 123.28 256.5 121.77 259.07 123.28"/><polygon class="cls-12" points="256.5 124.8 256.5 127.79 253.92 126.3 253.92 123.28 256.5 124.8"/><rect class="cls-17" x="254.83" y="125.55" width="15.46" height="10.32" rx="0.52"/><polygon class="cls-10" points="265.14 129.22 265.14 132.21 262.57 133.73 262.57 130.72 265.14 129.22"/><polygon class="cls-11" points="265.14 129.22 262.57 130.72 259.99 129.22 262.57 127.7 265.14 129.22"/><polygon class="cls-12" points="262.57 130.72 262.57 133.73 259.99 132.21 259.99 129.22 262.57 130.72"/><rect class="cls-18" x="259.3" y="131.3" width="15.46" height="10.32" rx="0.52"/><polygon class="cls-10" points="269.61 134.97 269.61 137.96 267.04 139.48 267.04 136.47 269.61 134.97"/><polygon class="cls-11" points="269.61 134.97 267.04 136.48 264.45 134.97 267.04 133.45 269.61 134.97"/><polygon class="cls-12" points="267.04 136.48 267.04 139.48 264.45 137.96 264.45 134.97 267.04 136.48"/><polygon class="cls-11" points="264.45 137.96 267.04 136.47 267.04 139.48 264.45 137.96"/><polygon class="cls-12" points="269.61 137.96 267.04 136.47 267.04 139.48 269.61 137.96"/><path class="cls-19" d="M270.13,144.75c-1.53-.24-1.53-1.34-1.53-3.05h-3.06c0,1.77,0,2.87-1.53,3.05a.91.91,0,0,0-.76.88h7.64A.91.91,0,0,0,270.13,144.75Z"/><rect class="cls-20" x="205.26" y="122.86" width="28.14" height="18.76" rx="0.94"/><polygon class="cls-10" points="224.02 129.5 224.02 134.96 219.33 137.71 219.33 132.24 224.02 129.5"/><polygon class="cls-11" points="224.02 129.5 219.33 132.25 214.64 129.5 219.33 126.76 224.02 129.5"/><polygon class="cls-12" points="219.33 132.25 219.33 137.71 214.64 134.96 214.64 129.5 219.33 132.25"/><polygon class="cls-11" points="214.64 134.96 219.33 132.24 219.33 137.71 214.64 134.96"/><polygon class="cls-12" points="224.02 134.96 219.33 132.24 219.33 137.71 224.02 134.96"/><path class="cls-21" d="M225,147.29c-2.78-.44-2.89-2.44-2.89-5.67h-5.52c0,3.23-.1,5.23-2.88,5.67a1.56,1.56,0,0,0-1.39,1.57h14.07A1.56,1.56,0,0,0,225,147.29Z"/><line class="cls-3" x1="170.03" y1="91.21" x2="170.03" y2="64.14"/><line class="cls-3" x1="162.5" y1="85.68" x2="162.5" y2="73.98"/><polygon class="cls-5" points="165.5 74.86 162.5 69.68 159.51 74.86 165.5 74.86"/><line class="cls-3" x1="177.55" y1="81.37" x2="177.55" y2="80.62"/><line class="cls-22" x1="177.55" y1="78.19" x2="177.55" y2="71.64"/><line class="cls-3" x1="177.55" y1="70.43" x2="177.55" y2="69.68"/><polygon class="cls-5" points="180.55 80.5 177.55 85.68 174.56 80.5 180.55 80.5"/><line class="cls-3" x1="210.69" y1="91.21" x2="210.69" y2="64.14"/><line class="cls-3" x1="203.16" y1="85.68" x2="203.16" y2="73.98"/><polygon class="cls-5" points="206.16 74.86 203.16 69.68 200.17 74.86 206.16 74.86"/><line class="cls-3" x1="218.21" y1="81.37" x2="218.21" y2="80.62"/><line class="cls-22" x1="218.21" y1="78.19" x2="218.21" y2="71.64"/><line class="cls-3" x1="218.21" y1="70.43" x2="218.21" y2="69.68"/><polygon class="cls-5" points="221.21 80.5 218.21 85.68 215.22 80.5 221.21 80.5"/><line class="cls-23" x1="86.41" y1="110.86" x2="86.41" y2="19.87"/><line class="cls-23" x1="80.04" y1="82.55" x2="80.04" y2="70.86"/><polygon class="cls-24" points="83.03 81.67 80.04 86.86 77.05 81.67 83.03 81.67"/><line class="cls-23" x1="93.15" y1="86.86" x2="93.15" y2="86.11"/><line class="cls-25" x1="93.15" y1="83.68" x2="93.15" y2="77.12"/><line class="cls-23" x1="93.15" y1="75.91" x2="93.15" y2="75.16"/><polygon class="cls-24" points="96.14 76.04 93.15 70.86 90.16 76.04 96.14 76.04"/><line class="cls-3" x1="191.87" y1="38.29" x2="191.87" y2="18.79"/><line class="cls-3" x1="154.17" y1="222.93" x2="165.3" y2="222.93"/><polygon class="cls-5" points="155.05 225.93 149.87 222.93 155.05 219.94 155.05 225.93"/><path class="cls-3" d="M188,41,150.24,29.65a4.28,4.28,0,0,1-2.87-3.86v-7"/><path class="cls-3" d="M196.18,41l43.29-11.43a4.12,4.12,0,0,0,2.9-3.76v-7"/><circle class="cls-26" cx="74.9" cy="200.57" r="1.67"/><circle class="cls-27" cx="69.56" cy="200.59" r="1.67"/><circle class="cls-28" cx="64.22" cy="200.59" r="1.67"/><path class="cls-10" d="M65.44,207.28l-1,1a.44.44,0,0,1-.62,0h0l-7.09-7.07a.87.87,0,0,1,0-1.23h0l1-1h0l7.7,7.69a.45.45,0,0,1,0,.61Z"/><path class="cls-29" d="M64.33,193l1,1a.44.44,0,0,1,0,.62l-7.57,7.59h0l-1-1a.86.86,0,0,1,0-1.22h0l7-7A.43.43,0,0,1,64.33,193Z"/><path class="cls-10" d="M81.28,199l1,1a.87.87,0,0,1,0,1.23h0l-7.1,7.07a.43.43,0,0,1-.61,0h0l-1-1a.43.43,0,0,1,0-.61h0Z"/><path class="cls-29" d="M82.24,201.15l-1,.95h0l-7.58-7.59a.44.44,0,0,1,0-.62h0l1-1a.44.44,0,0,1,.62,0h0l7,7a.87.87,0,0,1,0,1.23h0Z"/><path class="cls-30" d="M71.32,46.35,85.76,31.9a1,1,0,0,1,1.41,0l0,0h0l14.45,14.45a1,1,0,0,1,0,1.41l0,.05h0L87.23,62.3a1,1,0,0,1-1.41,0l0,0L71.32,47.83a1,1,0,0,1,0-1.41l0-.05Z"/><path class="cls-31" d="M90.29,38.48l-3.65-3.63a.2.2,0,0,0-.27,0l-3.66,3.63a.16.16,0,0,0,0,.24.16.16,0,0,0,.18.07H85a.21.21,0,0,1,.19.19v3.45a.2.2,0,0,0,.19.19h2.27a.21.21,0,0,0,.19-.19V39a.2.2,0,0,1,.19-.19h2.13a.15.15,0,0,0,.2-.1v0A.18.18,0,0,0,90.29,38.48Z"/><path class="cls-31" d="M77.89,43l-3.61,3.66a.19.19,0,0,0,0,.26l3.61,3.64a.19.19,0,0,0,.27,0h0a.2.2,0,0,0,.06-.14V48.28a.2.2,0,0,1,.19-.19h3.44a.18.18,0,0,0,.18-.17V45.63a.19.19,0,0,0-.06-.24H78.46a.18.18,0,0,1-.19-.15V43.11a.19.19,0,0,0-.11-.25h0a.19.19,0,0,0-.25.12Z"/><path class="cls-31" d="M95.25,50.54l3.67-3.65a.19.19,0,0,0,0-.26L95.25,43A.2.2,0,0,0,95,43a.21.21,0,0,0,0,.11v2.16a.18.18,0,0,1-.17.17H91.31a.18.18,0,0,0-.18.17V47.9a.17.17,0,0,0,.16.19h3.46a.2.2,0,0,1,.19.19h0v2.14a.2.2,0,0,0,.21.16Z"/><path class="cls-1" d="M91.31,47.09a4.81,4.81,0,1,0-6.1,4.6v1.64a3,3,0,1,0,4,1.33,3.05,3.05,0,0,0-1.33-1.33V51.6A4.78,4.78,0,0,0,91.31,47.09Z"/><circle id="e99c3387-15c3-4f28-bd4b-cb209b430e06" class="cls-32" cx="86.52" cy="47.08" r="2.79"/><rect class="cls-1" x="130.02" width="35" height="20.86"/><rect class="cls-6" x="130.02" width="35" height="20.86"/><rect class="cls-1" x="68.16" width="35" height="20.86"/><rect class="cls-33" x="68.16" width="35" height="20.86"/><rect class="cls-1" x="174.87" width="35" height="20.86"/><rect class="cls-6" x="174.87" width="35" height="20.86"/><rect class="cls-1" x="219.87" width="45" height="20.86"/><rect class="cls-6" x="219.87" width="45" height="20.86"/><rect class="cls-1" x="156.87" y="53.97" width="70" height="10"/><rect class="cls-34" x="156.87" y="53.97" width="70" height="10"/><g id="ad94e297-0e86-4eaf-aac0-d146ee9aea65"><path class="cls-35" d="M187.8,54.32l-4.69-4.84a2.28,2.28,0,0,1-.77.14,2.43,2.43,0,1,1,2.24-3.33h4.61v1.62h-4.54a3.68,3.68,0,0,1-.26.57l4.32,4.46,2.34-3.56V38.19H187.9l4-4,4,4h-3.16v8.74l5.93-9-6-6a1,1,0,0,0-1.41-.05s0,0,0,.05h0L176.69,46.36a1,1,0,0,0-.05,1.41l.05,0h0l14.47,14.47L186,57.15Z"/><path class="cls-36" d="M191.05,54.53V49.36l-2.34,3.58,1.72,1.85A1.61,1.61,0,0,1,191.05,54.53Z"/><path class="cls-36" d="M207.08,46.36l-8.48-8.48-5.93,9v7.61a1.78,1.78,0,0,1,.54.3l6.22-6.29a2.53,2.53,0,0,1-.31-.64h-4.67V46.29h4.74a2.41,2.41,0,1,1,2.24,3.33,2.61,2.61,0,0,1-.68-.11l-6.61,6.67a2.17,2.17,0,0,1,.1.62,2.43,2.43,0,1,1-4.84.44,2.18,2.18,0,0,1,0-.25,2.49,2.49,0,0,1,.13-.9l-1.72-1.72L186,57.13l5.17,5.17a1,1,0,0,0,1.41,0l0,0L207,47.82a1,1,0,0,0,.05-1.41s0,0-.05,0Z"/><path class="cls-37" d="M199.19,46.29h-4.74v1.62h4.67a2.22,2.22,0,0,1-.12-.72A2.14,2.14,0,0,1,199.19,46.29Z"/><path class="cls-37" d="M184.65,47.91h4.54V46.29h-4.61a2.54,2.54,0,0,1,.19.9A2.93,2.93,0,0,1,184.65,47.91Z"/><path class="cls-37" d="M194.14,56.18l6.61-6.67a2.44,2.44,0,0,1-1.32-1l-6.22,6.29A2.25,2.25,0,0,1,194.14,56.18Z"/><path class="cls-37" d="M190.49,54.79l-1.73-1.85-4.37-4.46a2.45,2.45,0,0,1-1.28,1l4.69,4.84L189.52,56A2.37,2.37,0,0,1,190.49,54.79Z"/><path class="cls-1" d="M195.81,38.19l-3.93-4-4,4H191V54.53a1.68,1.68,0,0,0-.56.26,2.36,2.36,0,0,0-1,1.3,2.41,2.41,0,1,0,4.62,1.4,2.3,2.3,0,0,0,.1-.69,2.17,2.17,0,0,0-.1-.62,2.21,2.21,0,0,0-.93-1.34,1.78,1.78,0,0,0-.54-.3V38.19Zm-3.93,20a1.34,1.34,0,1,1,1.35-1.34h0a1.35,1.35,0,0,1-1.35,1.29Z"/><path class="cls-1" d="M184.39,48.48a3.68,3.68,0,0,0,.26-.57,2.93,2.93,0,0,0,.12-.72,2.54,2.54,0,0,0-.19-.9,2.42,2.42,0,1,0-2.24,3.33,2.28,2.28,0,0,0,.77-.14A2.45,2.45,0,0,0,184.39,48.48Zm-2,0a1.35,1.35,0,1,1,1.34-1.36v0h0a1.34,1.34,0,0,1-1.29,1.39h0Z"/><path class="cls-1" d="M200.75,49.51a2.61,2.61,0,0,0,.68.11,2.43,2.43,0,1,0-2.24-3.33,2.14,2.14,0,0,0-.19.9,2.22,2.22,0,0,0,.12.72,2.53,2.53,0,0,0,.31.64A2.46,2.46,0,0,0,200.75,49.51Zm.68-3.65a1.34,1.34,0,1,1-.31,0Z"/><path class="cls-38" d="M191.88,55.46a1.34,1.34,0,1,0,1.35,1.34h0A1.36,1.36,0,0,0,191.88,55.46Z"/><circle class="cls-38" cx="182.34" cy="47.19" r="1.34"/><path class="cls-38" d="M201.43,48.53a1.35,1.35,0,1,0-1.35-1.35h0a1.34,1.34,0,0,0,1.34,1.34Z"/></g></g></g><g id="Text"><path class="cls-39" d="M96.82,164.8l-3.12,8.54H92.61l-3.06-8.54h1.1L93,171.57a4.53,4.53,0,0,1,.17.76h0a4.31,4.31,0,0,1,.19-.77l2.39-6.76Z"/><path class="cls-39" d="M106.59,173.34h-1v-5.73c0-.45,0-1,.08-1.66h0a5.46,5.46,0,0,1-.25.83l-2.88,6.56h-.49l-2.87-6.51a4.74,4.74,0,0,1-.25-.88h0c0,.34,0,.9,0,1.68v5.71H98V164.8h1.3l2.59,6a7.91,7.91,0,0,1,.39,1h0c.17-.47.31-.82.41-1.05l2.64-5.93h1.23Z"/><path class="cls-39" d="M138.66,164.8l-3.12,8.54h-1.09l-3.06-8.54h1.1l2.34,6.77a4.53,4.53,0,0,1,.17.76h0a3.66,3.66,0,0,1,.2-.77l2.38-6.76Z"/><path class="cls-39" d="M148.44,173.34h-1v-5.73c0-.45,0-1,.09-1.66h0a5.46,5.46,0,0,1-.25.83l-2.88,6.56h-.48L141,166.83a4.74,4.74,0,0,1-.25-.88h0c0,.34,0,.9,0,1.68v5.71h-.95V164.8h1.3l2.59,6a7.91,7.91,0,0,1,.39,1h0c.17-.47.31-.82.41-1.05l2.64-5.93h1.24Z"/><path class="cls-39" d="M217.67,157.22l-3.12,8.54h-1.09l-3.06-8.54h1.1l2.34,6.77a4.77,4.77,0,0,1,.17.76h0a3.66,3.66,0,0,1,.2-.77l2.38-6.76Z"/><path class="cls-39" d="M227.45,165.76h-1V160c0-.45,0-1,.09-1.66h0a5.46,5.46,0,0,1-.25.83l-2.88,6.56h-.48L220,159.25a4.74,4.74,0,0,1-.25-.88h0c0,.35.05.9.05,1.68v5.71h-1v-8.54h1.3l2.59,6a8.52,8.52,0,0,1,.39,1h0c.16-.47.3-.81.4-1l2.64-5.93h1.24Z"/><path class="cls-39" d="M253.69,157.41,250.57,166h-1.09l-3.06-8.54h1.1l2.33,6.77a3.16,3.16,0,0,1,.17.76h0a3.59,3.59,0,0,1,.19-.77l2.38-6.76Z"/><path class="cls-39" d="M263.46,166h-1v-5.73c0-.45,0-1,.08-1.66h0a5.46,5.46,0,0,1-.25.83L259.41,166h-.49l-2.87-6.51a4.6,4.6,0,0,1-.26-.88h0c0,.34,0,.9,0,1.68V166h-1v-8.54h1.31l2.59,6a7.91,7.91,0,0,1,.39,1h0c.17-.47.31-.82.41-1l2.64-5.93h1.23Z"/><path class="cls-39" d="M265.25,165.61v-1.18a2.23,2.23,0,0,0,.48.32,3,3,0,0,0,.59.24,3.3,3.3,0,0,0,.62.15,3.07,3.07,0,0,0,.57.06,2.25,2.25,0,0,0,1.37-.35,1.14,1.14,0,0,0,.45-1,1.16,1.16,0,0,0-.15-.6,1.68,1.68,0,0,0-.42-.47,4,4,0,0,0-.63-.41l-.77-.4c-.3-.15-.57-.31-.83-.46a4.42,4.42,0,0,1-.66-.51,2.18,2.18,0,0,1-.45-.64,2.08,2.08,0,0,1-.16-.83,2,2,0,0,1,.25-1,2.2,2.2,0,0,1,.67-.72,3.08,3.08,0,0,1,.94-.41,4.3,4.3,0,0,1,1.07-.14,4.13,4.13,0,0,1,1.82.3v1.13a3.27,3.27,0,0,0-1.92-.52,3.66,3.66,0,0,0-.65.06,1.8,1.8,0,0,0-.57.23,1.12,1.12,0,0,0-.41.4,1,1,0,0,0-.16.59,1.26,1.26,0,0,0,.12.57,1.41,1.41,0,0,0,.35.43,3.43,3.43,0,0,0,.58.38c.22.13.48.26.78.41s.58.31.85.47a4.59,4.59,0,0,1,.72.56,2.58,2.58,0,0,1,.48.67,1.93,1.93,0,0,1,.18.85,2,2,0,0,1-.9,1.78,2.94,2.94,0,0,1-1,.39,5.24,5.24,0,0,1-1.14.13c-.13,0-.3,0-.49,0l-.6-.09a4.43,4.43,0,0,1-.58-.16A2,2,0,0,1,265.25,165.61Z"/><path class="cls-39" d="M271.61,165.61v-1.18a2.86,2.86,0,0,0,.48.32,3,3,0,0,0,.59.24,3.5,3.5,0,0,0,.62.15,3.09,3.09,0,0,0,.58.06,2.21,2.21,0,0,0,1.36-.35,1.14,1.14,0,0,0,.45-1,1.16,1.16,0,0,0-.15-.6,1.8,1.8,0,0,0-.41-.47,4.58,4.58,0,0,0-.63-.41l-.78-.4c-.3-.15-.57-.31-.82-.46a4.06,4.06,0,0,1-.67-.51,2,2,0,0,1-.44-.64,2.19,2.19,0,0,1,.09-1.84,2.28,2.28,0,0,1,.66-.72,3.19,3.19,0,0,1,.94-.41,4.3,4.3,0,0,1,1.07-.14,4.1,4.1,0,0,1,1.82.3v1.13a3.27,3.27,0,0,0-1.92-.52,3.47,3.47,0,0,0-.64.06,1.76,1.76,0,0,0-.58.23,1.12,1.12,0,0,0-.41.4,1,1,0,0,0-.16.59,1.26,1.26,0,0,0,.12.57,1.31,1.31,0,0,0,.36.43,3,3,0,0,0,.57.38l.78.41c.3.15.59.31.86.47a4.08,4.08,0,0,1,.71.56,2.36,2.36,0,0,1,.48.67,1.93,1.93,0,0,1,.18.85,2.23,2.23,0,0,1-.24,1.07,2,2,0,0,1-.66.71,2.88,2.88,0,0,1-.95.39,5.33,5.33,0,0,1-1.15.13c-.13,0-.29,0-.49,0l-.6-.09a4.91,4.91,0,0,1-.58-.16A2,2,0,0,1,271.61,165.61Z"/><path class="cls-39" d="M226.41,10.91v3.17h-1V5.68h2.31a3,3,0,0,1,2.09.66,2.34,2.34,0,0,1,.74,1.85,2.54,2.54,0,0,1-.82,2,3.19,3.19,0,0,1-2.23.76Zm0-4.34V10h1A2.28,2.28,0,0,0,229,9.55a1.64,1.64,0,0,0,.54-1.31c0-1.11-.66-1.67-2-1.67Z"/><path class="cls-39" d="M235.14,9.06a1.16,1.16,0,0,0-.72-.2,1.24,1.24,0,0,0-1,.58A2.67,2.67,0,0,0,233,11v3.06h-1v-6h1V9.32h0a2,2,0,0,1,.63-1,1.61,1.61,0,0,1,1.51-.27Z"/><path class="cls-39" d="M241,11.32h-4.24a2.28,2.28,0,0,0,.54,1.55,1.87,1.87,0,0,0,1.42.54,3,3,0,0,0,1.86-.66v.9a3.5,3.5,0,0,1-2.09.57,2.56,2.56,0,0,1-2-.81,3.39,3.39,0,0,1-.72-2.3,3.29,3.29,0,0,1,.79-2.29,2.58,2.58,0,0,1,2-.88,2.27,2.27,0,0,1,1.82.76,3.2,3.2,0,0,1,.65,2.12Zm-1-.81a1.91,1.91,0,0,0-.4-1.3,1.39,1.39,0,0,0-1.1-.46,1.54,1.54,0,0,0-1.15.49,2.22,2.22,0,0,0-.59,1.27Z"/><path class="cls-39" d="M245.43,6a1.34,1.34,0,0,0-.64-.15c-.67,0-1,.42-1,1.27v.92h1.41V8.9h-1.41v5.18h-1V8.9h-1V8.08h1v-1a2,2,0,0,1,.55-1.49,1.82,1.82,0,0,1,1.36-.55,1.94,1.94,0,0,1,.7.11Z"/><path class="cls-39" d="M246.71,6.56a.6.6,0,0,1-.44-.18.57.57,0,0,1-.18-.44.61.61,0,0,1,.18-.45.6.6,0,0,1,.44-.18.64.64,0,0,1,.45.18.61.61,0,0,1,.18.45.6.6,0,0,1-.18.44A.64.64,0,0,1,246.71,6.56Zm.47,7.52h-1v-6h1Z"/><path class="cls-39" d="M253.51,8.08l-2,3,2,3h-1.12l-1.18-1.94-.26-.46h0l-.28.46-1.2,1.94H248.3l2-2.94-2-3.06h1.12l1.16,2.05.25.47h0l1.5-2.52Z"/><path class="cls-39" d="M257.14,14.22a2.79,2.79,0,0,1-2.13-.84,3.15,3.15,0,0,1-.79-2.23,3.26,3.26,0,0,1,.83-2.36,3,3,0,0,1,2.23-.85,2.69,2.69,0,0,1,2.09.83,3.23,3.23,0,0,1,.76,2.29,3.23,3.23,0,0,1-.81,2.3A2.85,2.85,0,0,1,257.14,14.22Zm.07-5.47a1.84,1.84,0,0,0-1.47.63,2.59,2.59,0,0,0-.53,1.74,2.46,2.46,0,0,0,.54,1.68,1.85,1.85,0,0,0,1.46.61,1.75,1.75,0,0,0,1.43-.6,2.58,2.58,0,0,0,.5-1.72,2.62,2.62,0,0,0-.5-1.73A1.73,1.73,0,0,0,257.21,8.75Z"/><path class="cls-39" d="M185.91,10.91v3.17h-1V5.68h2.31a3,3,0,0,1,2.09.66,2.34,2.34,0,0,1,.74,1.85,2.54,2.54,0,0,1-.82,2,3.19,3.19,0,0,1-2.23.76Zm0-4.34V10h1a2.3,2.3,0,0,0,1.55-.47A1.64,1.64,0,0,0,189,8.24c0-1.11-.66-1.67-2-1.67Z"/><path class="cls-39" d="M192.63,14.08h-1V5.68h1Z"/><path class="cls-39" d="M195.82,10.91v3.17h-1V5.68h2.31a3,3,0,0,1,2.09.66A2.31,2.31,0,0,1,200,8.19a2.54,2.54,0,0,1-.82,2,3.18,3.18,0,0,1-2.22.76Zm0-4.34V10h1a2.33,2.33,0,0,0,1.56-.47,1.67,1.67,0,0,0,.53-1.31c0-1.11-.65-1.67-2-1.67Z"/><path class="cls-39" d="M141.32,10.91v3.17h-1V5.68h2.31a3,3,0,0,1,2.09.66,2.34,2.34,0,0,1,.74,1.85,2.54,2.54,0,0,1-.82,2,3.19,3.19,0,0,1-2.23.76Zm0-4.34V10h1a2.28,2.28,0,0,0,1.55-.47,1.64,1.64,0,0,0,.54-1.31c0-1.11-.66-1.67-2-1.67Z"/><path class="cls-39" d="M148,14.08h-1V5.68h1Z"/><path class="cls-39" d="M151.23,10.91v3.17h-1V5.68h2.3a3,3,0,0,1,2.09.66,2.31,2.31,0,0,1,.74,1.85,2.54,2.54,0,0,1-.82,2,3.18,3.18,0,0,1-2.22.76Zm0-4.34V10h1a2.33,2.33,0,0,0,1.56-.47,1.67,1.67,0,0,0,.53-1.31c0-1.11-.65-1.67-2-1.67Z"/><path class="cls-39" d="M79.55,10.91v3.17h-1V5.68h2.31A3,3,0,0,1,83,6.34a2.34,2.34,0,0,1,.74,1.85,2.54,2.54,0,0,1-.82,2,3.19,3.19,0,0,1-2.23.76Zm0-4.34V10h1a2.28,2.28,0,0,0,1.55-.47,1.64,1.64,0,0,0,.54-1.31c0-1.11-.66-1.67-2-1.67Z"/><path class="cls-39" d="M86.27,14.08h-1V5.68h1Z"/><path class="cls-39" d="M89.46,10.91v3.17h-1V5.68h2.31a3,3,0,0,1,2.08.66,2.31,2.31,0,0,1,.75,1.85,2.55,2.55,0,0,1-.83,2,3.18,3.18,0,0,1-2.22.76Zm0-4.34V10h1a2.33,2.33,0,0,0,1.56-.47,1.63,1.63,0,0,0,.53-1.31c0-1.11-.65-1.67-2-1.67Z"/><path class="cls-39" d="M7.91,37.08H3.55v-8.4h1v7.51H7.91Z"/><path class="cls-39" d="M11.58,37.22a2.77,2.77,0,0,1-2.12-.84,3.11,3.11,0,0,1-.8-2.23,3.26,3.26,0,0,1,.83-2.36,3,3,0,0,1,2.23-.85,2.71,2.71,0,0,1,2.1.83,3.27,3.27,0,0,1,.75,2.29,3.23,3.23,0,0,1-.81,2.3A2.83,2.83,0,0,1,11.58,37.22Zm.07-5.47a1.81,1.81,0,0,0-1.46.63,2.59,2.59,0,0,0-.54,1.74,2.46,2.46,0,0,0,.54,1.68,1.86,1.86,0,0,0,1.46.61,1.75,1.75,0,0,0,1.43-.6,2.58,2.58,0,0,0,.51-1.72,2.63,2.63,0,0,0-.51-1.73A1.73,1.73,0,0,0,11.65,31.75Z"/><path class="cls-39" d="M20.4,37.08h-1v-.93h0a2,2,0,0,1-1.85,1.07,1.93,1.93,0,0,1-1.4-.47,1.65,1.65,0,0,1-.51-1.26c0-1.12.66-1.77,2-2l1.8-.25c0-1-.41-1.53-1.24-1.53a3,3,0,0,0-1.95.74v-1a3.75,3.75,0,0,1,2-.56c1.41,0,2.12.75,2.12,2.24Zm-1-3-1.45.2a2.35,2.35,0,0,0-1,.33,1,1,0,0,0-.34.84.93.93,0,0,0,.32.72,1.22,1.22,0,0,0,.83.27,1.51,1.51,0,0,0,1.18-.5,1.77,1.77,0,0,0,.47-1.26Z"/><path class="cls-39" d="M27.33,37.08h-1v-1h0a2.22,2.22,0,0,1-2.07,1.16,2.25,2.25,0,0,1-1.8-.8,3.33,3.33,0,0,1-.68-2.2,3.59,3.59,0,0,1,.75-2.38,2.48,2.48,0,0,1,2-.9,2,2,0,0,1,1.8,1h0V28.2h1Zm-1-2.71v-.88a1.74,1.74,0,0,0-.48-1.24,1.64,1.64,0,0,0-1.22-.5,1.66,1.66,0,0,0-1.38.65,2.77,2.77,0,0,0-.51,1.78,2.53,2.53,0,0,0,.49,1.63,1.57,1.57,0,0,0,1.3.6,1.63,1.63,0,0,0,1.3-.58A2.16,2.16,0,0,0,26.37,34.37Z"/><path class="cls-39" d="M32.69,37.08v-8.4h2.39a2.63,2.63,0,0,1,1.73.53,1.72,1.72,0,0,1,.64,1.39,2,2,0,0,1-.39,1.24,2,2,0,0,1-1.06.75v0a2.13,2.13,0,0,1,1.36.64,2,2,0,0,1,.51,1.41,2.17,2.17,0,0,1-.78,1.74,2.84,2.84,0,0,1-2,.67Zm1-7.51v2.71h1A1.93,1.93,0,0,0,36,31.89a1.34,1.34,0,0,0,.46-1.09c0-.82-.54-1.23-1.61-1.23Zm0,3.6v3H35a2,2,0,0,0,1.35-.41,1.4,1.4,0,0,0,.48-1.12c0-1-.68-1.49-2-1.49Z"/><path class="cls-39" d="M43.74,37.08h-1v-.93h0a2,2,0,0,1-1.84,1.07,2,2,0,0,1-1.41-.47,1.68,1.68,0,0,1-.5-1.26c0-1.12.66-1.77,2-2l1.8-.25c0-1-.42-1.53-1.24-1.53a3,3,0,0,0-2,.74v-1a3.76,3.76,0,0,1,2-.56c1.41,0,2.12.75,2.12,2.24Zm-1-3-1.45.2a2.3,2.3,0,0,0-1,.33,1,1,0,0,0-.34.84.93.93,0,0,0,.32.72,1.2,1.2,0,0,0,.83.27,1.51,1.51,0,0,0,1.18-.5,1.77,1.77,0,0,0,.47-1.26Z"/><path class="cls-39" d="M46.51,37.08h-1V28.2h1Z"/><path class="cls-39" d="M52.75,37.08h-1v-.93h0a2,2,0,0,1-1.85,1.07,1.93,1.93,0,0,1-1.4-.47A1.65,1.65,0,0,1,48,35.49c0-1.12.66-1.77,2-2l1.8-.25c0-1-.41-1.53-1.24-1.53a3,3,0,0,0-1.95.74v-1a3.73,3.73,0,0,1,2-.56c1.41,0,2.12.75,2.12,2.24Zm-1-3-1.45.2a2.35,2.35,0,0,0-1,.33,1,1,0,0,0-.34.84.93.93,0,0,0,.32.72,1.22,1.22,0,0,0,.83.27,1.51,1.51,0,0,0,1.18-.5,1.77,1.77,0,0,0,.47-1.26Z"/><path class="cls-39" d="M59.54,37.08h-1V33.66c0-1.27-.47-1.91-1.39-1.91a1.52,1.52,0,0,0-1.2.54,2,2,0,0,0-.47,1.37v3.42h-1v-6h1v1h0a2.17,2.17,0,0,1,2-1.14,1.83,1.83,0,0,1,1.51.64,2.79,2.79,0,0,1,.52,1.83Z"/><path class="cls-39" d="M65.44,36.81a3.19,3.19,0,0,1-1.64.41,2.68,2.68,0,0,1-2.07-.83,3,3,0,0,1-.79-2.17,3.32,3.32,0,0,1,.85-2.38,3,3,0,0,1,2.27-.9,3.06,3.06,0,0,1,1.39.3v1A2.45,2.45,0,0,0,64,31.75a2,2,0,0,0-1.51.66,2.51,2.51,0,0,0-.58,1.73,2.4,2.4,0,0,0,.55,1.67,1.91,1.91,0,0,0,1.48.6,2.39,2.39,0,0,0,1.48-.52Z"/><path class="cls-39" d="M71.72,34.32H67.48A2.28,2.28,0,0,0,68,35.87a1.87,1.87,0,0,0,1.42.54,3,3,0,0,0,1.86-.66v.9a3.5,3.5,0,0,1-2.09.57,2.54,2.54,0,0,1-2-.81,3.39,3.39,0,0,1-.73-2.3,3.29,3.29,0,0,1,.8-2.29,2.56,2.56,0,0,1,2-.88,2.28,2.28,0,0,1,1.82.76,3.2,3.2,0,0,1,.65,2.12Zm-1-.81a2,2,0,0,0-.4-1.3,1.39,1.39,0,0,0-1.1-.46,1.52,1.52,0,0,0-1.15.49,2.22,2.22,0,0,0-.59,1.27Z"/><path class="cls-39" d="M76.3,32.06a1.18,1.18,0,0,0-.73-.2,1.25,1.25,0,0,0-1,.58A2.74,2.74,0,0,0,74.13,34v3.06h-1v-6h1v1.24h0a2.17,2.17,0,0,1,.63-1,1.46,1.46,0,0,1,.94-.35,1.49,1.49,0,0,1,.58.08Z"/><path class="cls-39" d="M219.61,49.72h-1.2L214.08,43a2.94,2.94,0,0,1-.27-.53h0a8.6,8.6,0,0,1,.05,1.15v6.07h-1v-8.4h1.28l4.21,6.59.34.57h0a8.84,8.84,0,0,1-.06-1.24V41.32h1Z"/><path class="cls-39" d="M228.32,49.72h-1.09l-.89-2.35h-3.56l-.84,2.35h-1.1l3.23-8.4h1ZM226,46.48,224.7,42.9a3.14,3.14,0,0,1-.13-.56h0a3,3,0,0,1-.14.56l-1.3,3.58Z"/><path class="cls-39" d="M233.67,42.21h-2.43v7.51h-1V42.21h-2.42v-.89h5.84Z"/><path class="cls-39" d="M91.62,105.67v-1.2a2.62,2.62,0,0,0,.49.33,5.36,5.36,0,0,0,.6.24,4.85,4.85,0,0,0,.63.16,4.27,4.27,0,0,0,.59,0,2.31,2.31,0,0,0,1.39-.35,1.2,1.2,0,0,0,.46-1,1.15,1.15,0,0,0-.16-.62,1.68,1.68,0,0,0-.42-.47,3.55,3.55,0,0,0-.64-.42l-.79-.41c-.3-.16-.58-.31-.84-.47a3.69,3.69,0,0,1-.68-.52,2.23,2.23,0,0,1-.45-.65,2.19,2.19,0,0,1,.09-1.88,2.16,2.16,0,0,1,.68-.73,3,3,0,0,1,1-.42,4.1,4.1,0,0,1,1.1-.14,4.05,4.05,0,0,1,1.85.31v1.14a3.35,3.35,0,0,0-2-.53,3,3,0,0,0-.66.07,1.82,1.82,0,0,0-.59.23,1.34,1.34,0,0,0-.42.4,1.09,1.09,0,0,0-.16.61,1.31,1.31,0,0,0,.12.58,1.34,1.34,0,0,0,.36.44,3,3,0,0,0,.59.39c.23.13.49.26.79.41s.6.32.88.49a4.26,4.26,0,0,1,.73.56,2.72,2.72,0,0,1,.49.69,2,2,0,0,1,.18.86,2.14,2.14,0,0,1-.25,1.09,2,2,0,0,1-.67.73,2.72,2.72,0,0,1-1,.4,4.94,4.94,0,0,1-1.17.13,3.41,3.41,0,0,1-.5,0l-.61-.09c-.21-.05-.41-.1-.59-.16A1.58,1.58,0,0,1,91.62,105.67Z"/><path class="cls-39" d="M103.35,106h-1v-1h0a2,2,0,0,1-1.9,1.13c-1.46,0-2.19-.89-2.19-2.65V99.8h1v3.56c0,1.31.49,2,1.48,2a1.5,1.5,0,0,0,1.19-.54,2.06,2.06,0,0,0,.46-1.4V99.8h1Z"/><path class="cls-39" d="M106.3,105.12h0v.9h-1v-9.2h1v4.08h0a2.33,2.33,0,0,1,2.13-1.24,2.27,2.27,0,0,1,1.85.83,3.54,3.54,0,0,1,.67,2.24,3.9,3.9,0,0,1-.75,2.5,2.51,2.51,0,0,1-2,.94A2,2,0,0,1,106.3,105.12Zm0-2.5v.86a1.85,1.85,0,0,0,.49,1.31,1.75,1.75,0,0,0,2.66-.15,3.21,3.21,0,0,0,.51-1.93,2.53,2.53,0,0,0-.48-1.63,1.55,1.55,0,0,0-1.28-.58,1.75,1.75,0,0,0-1.38.6A2.23,2.23,0,0,0,106.28,102.62Z"/><path class="cls-39" d="M115.63,103h-3.28v-.78h3.28Z"/><path class="cls-39" d="M120.56,100.81a1.21,1.21,0,0,0-.74-.2,1.27,1.27,0,0,0-1.06.6,2.82,2.82,0,0,0-.42,1.64V106h-1V99.8h1v1.28h0a2.21,2.21,0,0,1,.64-1,1.48,1.48,0,0,1,1-.37,1.52,1.52,0,0,1,.59.09Z"/><path class="cls-39" d="M126.53,103.16h-4.34a2.36,2.36,0,0,0,.55,1.6,1.91,1.91,0,0,0,1.46.57,3,3,0,0,0,1.9-.69v.93a3.5,3.5,0,0,1-2.14.6,2.54,2.54,0,0,1-2-.85,4,4,0,0,1,.06-4.75,2.61,2.61,0,0,1,2-.91,2.29,2.29,0,0,1,1.87.79,3.29,3.29,0,0,1,.66,2.19Zm-1-.84a2.05,2.05,0,0,0-.41-1.35,1.41,1.41,0,0,0-1.12-.47,1.58,1.58,0,0,0-1.19.5,2.35,2.35,0,0,0-.6,1.32Z"/><path class="cls-39" d="M133.22,106h-1v-1h0a2.25,2.25,0,0,1-2.11,1.2,2.28,2.28,0,0,1-1.85-.84,3.44,3.44,0,0,1-.69-2.27,3.76,3.76,0,0,1,.77-2.47,2.51,2.51,0,0,1,2-.93,1.94,1.94,0,0,1,1.84,1h0V96.82h1Zm-1-2.81v-.92a1.82,1.82,0,0,0-.49-1.27,1.65,1.65,0,0,0-1.25-.52,1.71,1.71,0,0,0-1.42.66,3,3,0,0,0-.51,1.85,2.67,2.67,0,0,0,.49,1.7,1.63,1.63,0,0,0,1.33.62,1.69,1.69,0,0,0,1.34-.6A2.27,2.27,0,0,0,132.24,103.21Z"/><path class="cls-39" d="M140.11,103.16h-4.33a2.31,2.31,0,0,0,.55,1.6,1.88,1.88,0,0,0,1.45.57,3,3,0,0,0,1.91-.69v.93a3.52,3.52,0,0,1-2.14.6,2.58,2.58,0,0,1-2.05-.85,3.51,3.51,0,0,1-.74-2.38,3.44,3.44,0,0,1,.81-2.37,2.59,2.59,0,0,1,2-.91,2.28,2.28,0,0,1,1.86.79,3.29,3.29,0,0,1,.66,2.19Zm-1-.84a2.11,2.11,0,0,0-.41-1.35,1.43,1.43,0,0,0-1.13-.47,1.56,1.56,0,0,0-1.18.5,2.35,2.35,0,0,0-.6,1.32Z"/><path class="cls-39" d="M151.68,106h-1.11l-.91-2.44H146l-.86,2.44H144l3.3-8.71h1Zm-2.35-3.36L148,99a2.68,2.68,0,0,1-.13-.58h0a3.29,3.29,0,0,1-.14.58l-1.33,3.71Z"/><path class="cls-39" d="M213.1,105.47v-1.16a2.33,2.33,0,0,0,.48.31,3,3,0,0,0,.59.24,6.23,6.23,0,0,0,.62.15,3.88,3.88,0,0,0,.57,0,2.26,2.26,0,0,0,1.35-.33,1.15,1.15,0,0,0,.45-1,1.13,1.13,0,0,0-.15-.59,1.6,1.6,0,0,0-.41-.46,3.91,3.91,0,0,0-.62-.4l-.78-.4c-.29-.15-.57-.3-.82-.45a3.81,3.81,0,0,1-.66-.5,1.89,1.89,0,0,1-.6-1.44,1.87,1.87,0,0,1,.25-1,2.11,2.11,0,0,1,.66-.7,2.9,2.9,0,0,1,.93-.41,4.3,4.3,0,0,1,1.07-.14,4.08,4.08,0,0,1,1.81.3v1.11a3.22,3.22,0,0,0-1.91-.52,2.79,2.79,0,0,0-.64.07,1.75,1.75,0,0,0-.58.22,1.38,1.38,0,0,0-.41.39,1.06,1.06,0,0,0-.15.58,1.22,1.22,0,0,0,.12.56,1.28,1.28,0,0,0,.35.43,4.7,4.7,0,0,0,.57.37l.78.4c.3.15.58.3.85.47a3.59,3.59,0,0,1,.71.54,2.57,2.57,0,0,1,.49.66,2,2,0,0,1,.17.83,2.14,2.14,0,0,1-.24,1,2,2,0,0,1-.66.7,2.78,2.78,0,0,1-.95.38,5.15,5.15,0,0,1-1.13.12l-.5,0-.59-.09a4.45,4.45,0,0,1-.58-.15A2,2,0,0,1,213.1,105.47Z"/><path class="cls-39" d="M224.55,105.8h-1v-.94h0a2,2,0,0,1-1.85,1.08c-1.43,0-2.14-.84-2.14-2.54V99.82h.95v3.42c0,1.27.48,1.9,1.45,1.9a1.46,1.46,0,0,0,1.16-.52,2,2,0,0,0,.45-1.35V99.82h1Z"/><path class="cls-39" d="M227.44,104.94h0v.86h-1V96.94h1v3.93h0a2.27,2.27,0,0,1,2.07-1.19,2.23,2.23,0,0,1,1.81.8,3.37,3.37,0,0,1,.65,2.16,3.68,3.68,0,0,1-.73,2.4,2.45,2.45,0,0,1-2,.9A2,2,0,0,1,227.44,104.94Zm0-2.41v.83a1.77,1.77,0,0,0,.48,1.26,1.72,1.72,0,0,0,2.59-.15,3,3,0,0,0,.5-1.85,2.47,2.47,0,0,0-.46-1.57,1.56,1.56,0,0,0-1.26-.56,1.68,1.68,0,0,0-1.34.58A2.13,2.13,0,0,0,227.42,102.53Z"/><path class="cls-39" d="M236.54,102.85h-3.2v-.76h3.2Z"/><path class="cls-39" d="M241.36,100.79a1.18,1.18,0,0,0-.73-.19,1.2,1.2,0,0,0-1,.58,2.61,2.61,0,0,0-.42,1.57v3h-1v-6h1v1.23h0a2,2,0,0,1,.62-1,1.43,1.43,0,0,1,.95-.36,1.41,1.41,0,0,1,.57.09Z"/><path class="cls-39" d="M247.19,103.05H243a2.26,2.26,0,0,0,.54,1.54,1.84,1.84,0,0,0,1.42.55,2.93,2.93,0,0,0,1.86-.67v.9a3.5,3.5,0,0,1-2.09.57,2.56,2.56,0,0,1-2-.81,3.34,3.34,0,0,1-.72-2.29,3.26,3.26,0,0,1,.79-2.28,2.54,2.54,0,0,1,2-.88,2.25,2.25,0,0,1,1.82.76,3.17,3.17,0,0,1,.65,2.11Zm-1-.81a2,2,0,0,0-.4-1.29,1.36,1.36,0,0,0-1.1-.46,1.56,1.56,0,0,0-1.15.48,2.22,2.22,0,0,0-.59,1.27Z"/><path class="cls-39" d="M253.72,105.8h-1v-1h0a2.43,2.43,0,0,1-3.87.35,3.28,3.28,0,0,1-.68-2.19,3.59,3.59,0,0,1,.75-2.38,2.5,2.5,0,0,1,2-.89,1.93,1.93,0,0,1,1.8,1h0V96.94h1Zm-1-2.7v-.88a1.7,1.7,0,0,0-.48-1.23,1.6,1.6,0,0,0-1.22-.5,1.66,1.66,0,0,0-1.38.64,2.79,2.79,0,0,0-.5,1.78,2.53,2.53,0,0,0,.48,1.63,1.57,1.57,0,0,0,1.3.6,1.63,1.63,0,0,0,1.3-.58A2.17,2.17,0,0,0,252.76,103.1Z"/><path class="cls-39" d="M260.45,103.05h-4.24a2.26,2.26,0,0,0,.54,1.54,1.85,1.85,0,0,0,1.42.55,2.89,2.89,0,0,0,1.86-.67v.9a3.47,3.47,0,0,1-2.09.57,2.56,2.56,0,0,1-2-.81,3.34,3.34,0,0,1-.72-2.29,3.26,3.26,0,0,1,.79-2.28,2.54,2.54,0,0,1,2-.88,2.22,2.22,0,0,1,1.82.76,3.17,3.17,0,0,1,.65,2.11Zm-1-.81a1.9,1.9,0,0,0-.4-1.29,1.36,1.36,0,0,0-1.1-.46,1.56,1.56,0,0,0-1.15.48,2.21,2.21,0,0,0-.58,1.27Z"/><path class="cls-39" d="M265.24,105.8V97.42h2.39a2.58,2.58,0,0,1,1.73.54,1.69,1.69,0,0,1,.64,1.38,2,2,0,0,1-.39,1.24,2.11,2.11,0,0,1-1.06.75v0a2.18,2.18,0,0,1,1.36.64,2,2,0,0,1,.51,1.41,2.2,2.2,0,0,1-.78,1.74,2.88,2.88,0,0,1-1.95.66Zm1-7.49V101h1a1.94,1.94,0,0,0,1.28-.39,1.37,1.37,0,0,0,.46-1.1c0-.81-.54-1.22-1.61-1.22Zm0,3.59v3h1.33a2,2,0,0,0,1.35-.41,1.44,1.44,0,0,0,.47-1.13c0-1-.67-1.48-2-1.48Z"/><path class="cls-39" d="M63.11,215,60,223.52H58.9L55.84,215h1.1l2.34,6.77a4.4,4.4,0,0,1,.17.75h0a3.66,3.66,0,0,1,.2-.77L62.05,215Z"/><path class="cls-39" d="M64.69,215.88a.6.6,0,0,1-.44-.18.61.61,0,0,1-.18-.45.63.63,0,0,1,.18-.46.6.6,0,0,1,.44-.18.61.61,0,0,1,.45.18.63.63,0,0,1,.18.46.6.6,0,0,1-.18.44A.58.58,0,0,1,64.69,215.88Zm.47,7.64h-1v-6.09h1Z"/><path class="cls-39" d="M70.25,218.42a1.11,1.11,0,0,0-.73-.2,1.24,1.24,0,0,0-1,.59,2.72,2.72,0,0,0-.41,1.61v3.1h-1v-6.09h1v1.25h0a2.21,2.21,0,0,1,.63-1,1.43,1.43,0,0,1,1-.36,1.65,1.65,0,0,1,.57.08Z"/><path class="cls-39" d="M74.09,223.47a1.88,1.88,0,0,1-.9.19c-1,0-1.58-.6-1.58-1.79v-3.61h-1v-.83h1v-1.49l1-.32v1.81h1.51v.83H72.58v3.44a1.39,1.39,0,0,0,.2.87.81.81,0,0,0,.68.26,1,1,0,0,0,.63-.2Z"/><path class="cls-39" d="M80.25,223.52h-1v-1h0a2,2,0,0,1-1.86,1.11c-1.43,0-2.15-.87-2.15-2.6v-3.64h1v3.49c0,1.28.49,1.93,1.46,1.93a1.47,1.47,0,0,0,1.16-.53,2.05,2.05,0,0,0,.46-1.38v-3.51h1Z"/><path class="cls-39" d="M86.51,223.52h-1v-1h0a2,2,0,0,1-1.85,1.1,1.94,1.94,0,0,1-1.41-.49,1.66,1.66,0,0,1-.51-1.27c0-1.14.66-1.81,2-2l1.8-.26c0-1-.41-1.55-1.24-1.55a2.94,2.94,0,0,0-2,.75v-1a3.62,3.62,0,0,1,2-.58c1.41,0,2.12.76,2.12,2.28Zm-1-3.08-1.45.2a2.48,2.48,0,0,0-1,.34,1,1,0,0,0-.34.85.93.93,0,0,0,.31.73,1.21,1.21,0,0,0,.84.29,1.54,1.54,0,0,0,1.19-.51,1.84,1.84,0,0,0,.46-1.29Z"/><path class="cls-39" d="M88.82,215.88a.6.6,0,0,1-.44-.18.61.61,0,0,1-.18-.45.63.63,0,0,1,.18-.46.6.6,0,0,1,.44-.18.61.61,0,0,1,.45.18.64.64,0,0,1,.19.46.61.61,0,0,1-.19.44A.58.58,0,0,1,88.82,215.88Zm.47,7.64h-1v-6.09h1Z"/><path class="cls-39" d="M90.88,223.3v-1a2.83,2.83,0,0,0,1.73.59c.85,0,1.27-.29,1.27-.86a.82.82,0,0,0-.1-.42,1.42,1.42,0,0,0-.3-.3,2.86,2.86,0,0,0-.43-.23l-.54-.22a6.76,6.76,0,0,1-.7-.32,2.1,2.1,0,0,1-.51-.37,1.33,1.33,0,0,1-.31-.47,1.63,1.63,0,0,1-.1-.61,1.56,1.56,0,0,1,.19-.76,1.85,1.85,0,0,1,.52-.56,2.49,2.49,0,0,1,.74-.33,3.08,3.08,0,0,1,.86-.12,3.5,3.5,0,0,1,1.4.28v1a2.69,2.69,0,0,0-1.53-.44,1.83,1.83,0,0,0-.49.06,1.15,1.15,0,0,0-.37.17.83.83,0,0,0-.25.28.77.77,0,0,0-.08.34.92.92,0,0,0,.08.4,1,1,0,0,0,.25.29,1.89,1.89,0,0,0,.4.22l.54.23a7.07,7.07,0,0,1,.72.31,2.84,2.84,0,0,1,.54.37,1.45,1.45,0,0,1,.34.48,1.51,1.51,0,0,1,.12.63,1.54,1.54,0,0,1-.19.79,1.74,1.74,0,0,1-.53.55,2.28,2.28,0,0,1-.76.33,3.82,3.82,0,0,1-.9.11A3.27,3.27,0,0,1,90.88,223.3Z"/><path class="cls-39" d="M62.89,236.72H61.71l-1.41-2.39a4.69,4.69,0,0,0-.38-.57,2.23,2.23,0,0,0-.37-.38,1.36,1.36,0,0,0-.41-.22,1.89,1.89,0,0,0-.5-.07h-.81v3.63h-1v-8.53h2.52a3.31,3.31,0,0,1,1,.14,2.23,2.23,0,0,1,.81.42,2,2,0,0,1,.54.71,2.69,2.69,0,0,1,.06,1.82,2.13,2.13,0,0,1-.37.66,2.37,2.37,0,0,1-.59.5,3,3,0,0,1-.78.32v0a2.13,2.13,0,0,1,.37.22,2,2,0,0,1,.3.29,4.17,4.17,0,0,1,.28.38l.31.49Zm-5.06-7.63v3.1h1.34a1.92,1.92,0,0,0,.69-.12,1.46,1.46,0,0,0,.54-.32,1.51,1.51,0,0,0,.36-.52,1.67,1.67,0,0,0,.13-.69,1.34,1.34,0,0,0-.44-1.06,1.84,1.84,0,0,0-1.27-.39Z"/><path class="cls-39" d="M68.41,233.92H64.15a2.34,2.34,0,0,0,.54,1.57,1.87,1.87,0,0,0,1.43.56,3,3,0,0,0,1.87-.68v.91a3.46,3.46,0,0,1-2.1.59,2.56,2.56,0,0,1-2-.83,3.49,3.49,0,0,1-.73-2.34,3.37,3.37,0,0,1,.8-2.32,2.53,2.53,0,0,1,2-.9,2.24,2.24,0,0,1,1.83.78,3.25,3.25,0,0,1,.65,2.15Zm-1-.83a2,2,0,0,0-.41-1.31,1.33,1.33,0,0,0-1.1-.47,1.56,1.56,0,0,0-1.16.49,2.27,2.27,0,0,0-.58,1.29Z"/><path class="cls-39" d="M75,236.72H74v-1h0a2.42,2.42,0,0,1-3.89.36,3.41,3.41,0,0,1-.68-2.23,3.62,3.62,0,0,1,.76-2.42,2.46,2.46,0,0,1,2-.92,1.93,1.93,0,0,1,1.81,1h0V227.7h1ZM74,234v-.9a1.76,1.76,0,0,0-.48-1.25,1.61,1.61,0,0,0-1.23-.51A1.63,1.63,0,0,0,71,232a2.88,2.88,0,0,0-.51,1.81,2.59,2.59,0,0,0,.49,1.67,1.58,1.58,0,0,0,1.3.61,1.65,1.65,0,0,0,1.31-.59A2.25,2.25,0,0,0,74,234Z"/><path class="cls-39" d="M81.8,233.92H77.55a2.24,2.24,0,0,0,.54,1.57,1.84,1.84,0,0,0,1.42.56,3,3,0,0,0,1.87-.68v.91a3.46,3.46,0,0,1-2.1.59,2.52,2.52,0,0,1-2-.83,3.44,3.44,0,0,1-.73-2.34,3.37,3.37,0,0,1,.79-2.32,2.53,2.53,0,0,1,2-.9,2.24,2.24,0,0,1,1.83.78,3.25,3.25,0,0,1,.65,2.15Zm-1-.83a2,2,0,0,0-.4-1.31,1.37,1.37,0,0,0-1.11-.47,1.52,1.52,0,0,0-1.15.49,2.21,2.21,0,0,0-.59,1.29Z"/><path class="cls-39" d="M173.21,216.52a15.59,15.59,0,0,1,2.31-.17,4.81,4.81,0,0,1,3.41,1.05,3.86,3.86,0,0,1,1.19,3,4.47,4.47,0,0,1-1.21,3.27,5.19,5.19,0,0,1-3.73,1.22,18.14,18.14,0,0,1-2-.1Zm1.08,7.45a7,7,0,0,0,1.1.06,3.24,3.24,0,0,0,3.59-3.57c0-2-1.11-3.25-3.41-3.25a6.5,6.5,0,0,0-1.28.11Z"/><path class="cls-39" d="M182.81,217.08a.69.69,0,0,1-1.37,0,.67.67,0,0,1,.69-.68A.66.66,0,0,1,182.81,217.08Zm-1.23,7.75v-6.05h1.1v6.05Z"/><path class="cls-39" d="M184.59,220.67c0-.71,0-1.32-.05-1.89h1l0,1.19h.05a1.82,1.82,0,0,1,1.68-1.32,1.48,1.48,0,0,1,.31,0v1a1.35,1.35,0,0,0-.37,0,1.55,1.55,0,0,0-1.48,1.42,3.52,3.52,0,0,0,0,.51v3.22h-1.09Z"/><path class="cls-39" d="M189.26,222a1.94,1.94,0,0,0,2.07,2.1,3.93,3.93,0,0,0,1.68-.32l.18.79a4.74,4.74,0,0,1-2,.39,2.82,2.82,0,0,1-3-3.06c0-1.83,1.07-3.26,2.83-3.26a2.55,2.55,0,0,1,2.5,2.84c0,.23,0,.4,0,.52Zm3.22-.79a1.57,1.57,0,0,0-1.52-1.79,1.83,1.83,0,0,0-1.69,1.79Z"/><path class="cls-39" d="M199.32,224.61a4,4,0,0,1-1.59.35l-.31.5a1,1,0,0,1,.87.91c0,.75-.62,1-1.3,1a1.87,1.87,0,0,1-.87-.22l.19-.56a1.34,1.34,0,0,0,.68.16c.29,0,.54-.08.54-.38s-.39-.47-1-.53l.52-1a2.85,2.85,0,0,1-2.52-3,3.07,3.07,0,0,1,3.25-3.21,3.66,3.66,0,0,1,1.52.31l-.25.85a2.52,2.52,0,0,0-1.27-.29,2.1,2.1,0,0,0-2.14,2.29,2.07,2.07,0,0,0,2.1,2.26,3.06,3.06,0,0,0,1.35-.3Z"/><path class="cls-39" d="M204.92,223.38a8,8,0,0,0,.1,1.45h-1l-.09-.76h0a2.24,2.24,0,0,1-1.85.9,1.73,1.73,0,0,1-1.85-1.74c0-1.46,1.3-2.26,3.64-2.25v-.12a1.25,1.25,0,0,0-1.37-1.4,3,3,0,0,0-1.58.45l-.25-.73a3.82,3.82,0,0,1,2-.53c1.85,0,2.3,1.26,2.3,2.47Zm-3.73-5.63c0-.82.32-1.3.85-1.3a1.56,1.56,0,0,1,.78.27,1.26,1.26,0,0,0,.52.21c.2,0,.33-.11.35-.53h.59c0,.83-.27,1.26-.86,1.26a1.63,1.63,0,0,1-.76-.25,1.14,1.14,0,0,0-.54-.23c-.2,0-.3.22-.33.57Zm2.67,4c-1.2,0-2.57.19-2.57,1.37a1,1,0,0,0,1,1,1.49,1.49,0,0,0,1.46-1,1,1,0,0,0,.07-.35Z"/><path class="cls-39" d="M212.26,221.76a3,3,0,0,1-3,3.21,2.88,2.88,0,0,1-2.9-3.11,3,3,0,0,1,3-3.21A2.87,2.87,0,0,1,212.26,221.76Zm-4.8.06c0,1.32.76,2.32,1.83,2.32s1.84-1,1.84-2.35c0-1-.51-2.32-1.81-2.32S207.46,220.67,207.46,221.82Z"/><path class="cls-39" d="M221.69,216v7.31c0,.54,0,1.15.05,1.56h-1l0-1.05h0a2.23,2.23,0,0,1-2.06,1.19c-1.46,0-2.59-1.24-2.59-3.08,0-2,1.24-3.24,2.71-3.24a2,2,0,0,1,1.83.92h0V216Zm-1.1,5.28a1.85,1.85,0,0,0-.05-.46,1.61,1.61,0,0,0-1.58-1.27c-1.14,0-1.82,1-1.82,2.34s.6,2.23,1.79,2.23a1.65,1.65,0,0,0,1.61-1.31,1.82,1.82,0,0,0,.05-.48Z"/><path class="cls-39" d="M229.08,221.76a3,3,0,0,1-3,3.21,2.87,2.87,0,0,1-2.9-3.11,3,3,0,0,1,3-3.21A2.87,2.87,0,0,1,229.08,221.76Zm-4.8.06c0,1.32.76,2.32,1.84,2.32s1.83-1,1.83-2.35c0-1-.51-2.32-1.81-2.32S224.28,220.67,224.28,221.82Z"/><path class="cls-39" d="M233.41,224.83v-5.21h-.85v-.84h.85v-.26a2.71,2.71,0,0,1,.85-2.09,2.86,2.86,0,0,1,1.93-.61,3.88,3.88,0,0,1,1.81.4v8.61h-1.08v-8a2,2,0,0,0-.9-.16c-1.15,0-1.53.84-1.53,1.81v.3h1.42v.84h-1.42v5.21Z"/><path class="cls-39" d="M245,223.18c0,.63,0,1.18.05,1.65h-1l-.06-1h0a2.28,2.28,0,0,1-2,1.13c-.95,0-2.09-.53-2.09-2.65v-3.54H241v3.35c0,1.15.35,1.93,1.35,1.93a1.6,1.6,0,0,0,1.45-1,1.75,1.75,0,0,0,.1-.57v-3.71H245Z"/><path class="cls-39" d="M247.41,218.78l.86,1.3c.22.34.41.65.61,1h0c.2-.36.4-.68.6-1l.85-1.29h1.18l-2.06,2.93,2.13,3.12h-1.25l-.89-1.36c-.24-.35-.44-.69-.65-1.05h0c-.2.37-.41.69-.63,1.05l-.88,1.36h-1.21l2.15-3.09-2-3Z"/><path class="cls-39" d="M258.05,221.76a3,3,0,0,1-3,3.21,2.87,2.87,0,0,1-2.9-3.11,3,3,0,0,1,3-3.21A2.86,2.86,0,0,1,258.05,221.76Zm-4.8.06c0,1.32.77,2.32,1.84,2.32s1.84-1,1.84-2.35c0-1-.51-2.32-1.81-2.32S253.25,220.67,253.25,221.82Z"/><path class="cls-39" d="M267.49,216v7.31c0,.54,0,1.15.05,1.56h-1l-.05-1.05h0a2.24,2.24,0,0,1-2.06,1.19c-1.47,0-2.59-1.24-2.59-3.08,0-2,1.24-3.24,2.71-3.24a2,2,0,0,1,1.83.92h0V216Zm-1.1,5.28a1.85,1.85,0,0,0-.05-.46,1.61,1.61,0,0,0-1.59-1.27c-1.13,0-1.81,1-1.81,2.34s.6,2.23,1.79,2.23a1.65,1.65,0,0,0,1.61-1.31,1.82,1.82,0,0,0,.05-.48Z"/><path class="cls-39" d="M270,222a1.94,1.94,0,0,0,2.07,2.1,3.84,3.84,0,0,0,1.67-.32l.19.79a4.74,4.74,0,0,1-2,.39,2.82,2.82,0,0,1-3-3.06c0-1.83,1.07-3.26,2.83-3.26a2.55,2.55,0,0,1,2.5,2.84,3.12,3.12,0,0,1,0,.52Zm3.22-.79a1.57,1.57,0,0,0-1.52-1.79,1.83,1.83,0,0,0-1.69,1.79Z"/><path class="cls-39" d="M178.64,235a3,3,0,0,1-3,3.21,2.88,2.88,0,0,1-2.9-3.11,3,3,0,0,1,3-3.21A2.86,2.86,0,0,1,178.64,235Zm-4.8.06c0,1.32.77,2.32,1.84,2.32s1.84-1,1.84-2.35c0-1-.51-2.32-1.81-2.32S173.84,233.87,173.84,235Z"/><path class="cls-39" d="M180.12,233.87c0-.71,0-1.32-.05-1.89h1l0,1.19h.05a1.81,1.81,0,0,1,1.67-1.32,1.51,1.51,0,0,1,.32,0v1a1.48,1.48,0,0,0-.38,0,1.55,1.55,0,0,0-1.47,1.42,2.51,2.51,0,0,0,0,.51V238h-1.09Z"/><path class="cls-39" d="M185.57,230.28a.68.68,0,1,1-1.36,0,.66.66,0,0,1,.68-.68A.65.65,0,0,1,185.57,230.28ZM184.34,238V232h1.1V238Z"/><path class="cls-39" d="M192.52,237.16a3.52,3.52,0,0,1-.86,2.76,3.21,3.21,0,0,1-2.2.72,3.88,3.88,0,0,1-2-.5l.28-.83a3.39,3.39,0,0,0,1.77.47c1.13,0,1.95-.59,1.95-2.11V237h0a2.16,2.16,0,0,1-1.93,1,2.7,2.7,0,0,1-2.57-2.95c0-2.05,1.34-3.21,2.72-3.21a2,2,0,0,1,1.89,1h0l.05-.91h1c0,.44,0,.93,0,1.66Zm-1.09-2.79a1.56,1.56,0,0,0-.06-.5,1.58,1.58,0,0,0-1.54-1.16c-1.05,0-1.8.89-1.8,2.28,0,1.19.6,2.18,1.79,2.18a1.6,1.6,0,0,0,1.52-1.13,1.67,1.67,0,0,0,.09-.58Z"/><path class="cls-39" d="M195,235.21a2,2,0,0,0,2.08,2.1,3.84,3.84,0,0,0,1.67-.32l.19.79a4.77,4.77,0,0,1-2,.39,2.82,2.82,0,0,1-3-3.06c0-1.83,1.08-3.26,2.84-3.26a2.55,2.55,0,0,1,2.5,2.84,3,3,0,0,1,0,.52Zm3.23-.79a1.57,1.57,0,0,0-1.53-1.79,1.82,1.82,0,0,0-1.68,1.79Z"/><path class="cls-39" d="M200.78,233.62c0-.62,0-1.14-.05-1.64h1l.05,1h0a2.08,2.08,0,0,1,1.9-1.11,1.78,1.78,0,0,1,1.71,1.21h0a2.52,2.52,0,0,1,.67-.79,2.1,2.1,0,0,1,1.34-.42c.8,0,2,.52,2,2.62V238h-1.08v-3.42c0-1.16-.42-1.86-1.31-1.86a1.43,1.43,0,0,0-1.3,1,1.76,1.76,0,0,0-.09.55V238h-1.07v-3.62c0-1-.43-1.66-1.26-1.66a1.61,1.61,0,0,0-1.45,1.63V238h-1.08Z"/><path class="cls-39" d="M216.42,229.36a8.18,8.18,0,0,0-1.58,5.11,8.4,8.4,0,0,0,1.58,5.07h-.87a8.09,8.09,0,0,1-1.63-5.07,8.28,8.28,0,0,1,1.63-5.11Z"/><path class="cls-39" d="M217.18,232.43a14.51,14.51,0,0,1,1.18-3l.7-.08a17.18,17.18,0,0,0-.74,2.93Zm1.86,0a14.55,14.55,0,0,1,1.17-3l.7-.08a16.29,16.29,0,0,0-.74,2.93Z"/><path class="cls-39" d="M221.62,236.91a2.89,2.89,0,0,0,1.45.43c.8,0,1.17-.4,1.17-.9s-.31-.81-1.12-1.11c-1.09-.39-1.6-1-1.6-1.71a1.86,1.86,0,0,1,2.08-1.77,3,3,0,0,1,1.49.37l-.27.8a2.38,2.38,0,0,0-1.24-.35c-.65,0-1,.38-1,.83s.36.72,1.15,1c1.05.4,1.58.92,1.58,1.82,0,1.07-.82,1.83-2.26,1.83a3.47,3.47,0,0,1-1.7-.43Z"/><path class="cls-39" d="M232.28,235a3,3,0,0,1-3,3.21,2.87,2.87,0,0,1-2.9-3.11,3,3,0,0,1,3-3.21A2.87,2.87,0,0,1,232.28,235Zm-4.8.06c0,1.32.76,2.32,1.84,2.32s1.83-1,1.83-2.35c0-1-.51-2.32-1.81-2.32S227.48,233.87,227.48,235Z"/><path class="cls-39" d="M233.76,229.16h1.1V238h-1.1Z"/><path class="cls-39" d="M238,230.28a.68.68,0,1,1-1.36,0,.66.66,0,0,1,.68-.68A.65.65,0,0,1,238,230.28ZM236.79,238V232h1.1V238Z"/><path class="cls-39" d="M244.12,237.81a4.05,4.05,0,0,1-1.74.36,2.88,2.88,0,0,1-3-3.1,3.07,3.07,0,0,1,3.25-3.21,3.66,3.66,0,0,1,1.52.31l-.25.85a2.52,2.52,0,0,0-1.27-.29,2.1,2.1,0,0,0-2.14,2.29,2.07,2.07,0,0,0,2.1,2.26,3.06,3.06,0,0,0,1.35-.3Z"/><path class="cls-39" d="M246.72,230.28a.65.65,0,0,1-.7.68.66.66,0,0,1-.67-.68.67.67,0,0,1,.69-.68A.65.65,0,0,1,246.72,230.28ZM245.49,238V232h1.1V238Z"/><path class="cls-39" d="M249.83,230.53V232h1.57v.84h-1.57v3.26c0,.75.21,1.18.82,1.18a2,2,0,0,0,.64-.08l.05.83a2.81,2.81,0,0,1-1,.16,1.52,1.52,0,0,1-1.19-.48,2.23,2.23,0,0,1-.43-1.57v-3.3h-.93V232h.93v-1.11Z"/><path class="cls-39" d="M257,236.58a8,8,0,0,0,.1,1.45h-1l-.09-.76h0a2.27,2.27,0,0,1-1.85.9,1.72,1.72,0,0,1-1.85-1.74c0-1.46,1.3-2.26,3.63-2.25v-.12a1.25,1.25,0,0,0-1.37-1.4,3,3,0,0,0-1.58.45l-.25-.73a3.82,3.82,0,0,1,2-.53c1.85,0,2.3,1.26,2.3,2.47Zm-1.06-1.64c-1.2,0-2.56.19-2.56,1.37a1,1,0,0,0,1,1.05,1.49,1.49,0,0,0,1.46-1,1,1,0,0,0,.07-.35Z"/><path class="cls-39" d="M263.17,237.81a4.06,4.06,0,0,1-1.59.35l-.31.5a1,1,0,0,1,.87.91c0,.75-.62,1-1.3,1a1.84,1.84,0,0,1-.87-.22l.19-.56a1.34,1.34,0,0,0,.68.16c.29,0,.54-.08.54-.38s-.39-.47-1-.53l.52-1a2.85,2.85,0,0,1-2.52-3.05,3.07,3.07,0,0,1,3.24-3.21,3.71,3.71,0,0,1,1.53.31l-.25.85a2.56,2.56,0,0,0-1.28-.29,2.1,2.1,0,0,0-2.13,2.29,2.07,2.07,0,0,0,2.1,2.26A3.06,3.06,0,0,0,263,237Z"/><path class="cls-39" d="M268.77,236.58a8,8,0,0,0,.1,1.45h-1l-.09-.76h0a2.27,2.27,0,0,1-1.85.9,1.73,1.73,0,0,1-1.85-1.74c0-1.46,1.3-2.26,3.64-2.25v-.12a1.25,1.25,0,0,0-1.38-1.4,3,3,0,0,0-1.57.45l-.25-.73a3.82,3.82,0,0,1,2-.53c1.85,0,2.3,1.26,2.3,2.47ZM265,231c0-.82.32-1.3.85-1.3a1.56,1.56,0,0,1,.78.27,1.26,1.26,0,0,0,.52.21c.2,0,.33-.11.35-.53h.59c0,.83-.28,1.26-.86,1.26a1.66,1.66,0,0,1-.77-.25,1.11,1.11,0,0,0-.53-.23c-.2,0-.3.22-.33.57Zm2.66,4c-1.2,0-2.56.19-2.56,1.37a1,1,0,0,0,1,1.05,1.49,1.49,0,0,0,1.46-1,1,1,0,0,0,.06-.35Z"/><path class="cls-39" d="M276.1,235a3,3,0,0,1-3,3.21,2.88,2.88,0,0,1-2.9-3.11,3,3,0,0,1,3-3.21A2.86,2.86,0,0,1,276.1,235Zm-4.8.06c0,1.32.77,2.32,1.84,2.32s1.84-1,1.84-2.35c0-1-.51-2.32-1.81-2.32S271.3,233.87,271.3,235Z"/><path class="cls-39" d="M278.54,229.38a15.73,15.73,0,0,1-1.16,3l-.7.07a19,19,0,0,0,.74-2.91Zm1.85,0a15.73,15.73,0,0,1-1.16,3l-.7.07a16.94,16.94,0,0,0,.74-2.91Z"/><path class="cls-39" d="M281,239.54a8.42,8.42,0,0,0,1.57-5.11,8.29,8.29,0,0,0-1.57-5.07h.85a7.93,7.93,0,0,1,1.64,5.08,8.11,8.11,0,0,1-1.64,5.1Z"/><path class="cls-39" d="M173,257.38a15.59,15.59,0,0,1,2.31-.17,4.81,4.81,0,0,1,3.41,1.05,3.88,3.88,0,0,1,1.19,3,4.5,4.5,0,0,1-1.21,3.28,5.19,5.19,0,0,1-3.73,1.21,18.14,18.14,0,0,1-2-.1Zm1.08,7.45a7,7,0,0,0,1.1.06,3.23,3.23,0,0,0,3.59-3.57c0-2-1.11-3.25-3.41-3.25a6.5,6.5,0,0,0-1.28.11Z"/><path class="cls-39" d="M182.59,258a.69.69,0,0,1-1.37,0,.67.67,0,0,1,.69-.69A.66.66,0,0,1,182.59,258Zm-1.23,7.74v-6h1.1v6Z"/><path class="cls-39" d="M184.37,261.53c0-.71,0-1.32-.05-1.88h1l0,1.18h.05a1.82,1.82,0,0,1,1.68-1.32,1,1,0,0,1,.31,0v1a2,2,0,0,0-.37,0,1.54,1.54,0,0,0-1.48,1.41,3.67,3.67,0,0,0,0,.51v3.22h-1.09Z"/><path class="cls-39" d="M189,262.87a1.93,1.93,0,0,0,2.07,2.1,4.11,4.11,0,0,0,1.68-.31l.18.78a4.77,4.77,0,0,1-2,.39,2.81,2.81,0,0,1-3-3.06c0-1.82,1.07-3.26,2.83-3.26a2.56,2.56,0,0,1,2.5,2.85c0,.22,0,.4,0,.51Zm3.22-.79a1.56,1.56,0,0,0-1.52-1.78,1.82,1.82,0,0,0-1.69,1.78Z"/><path class="cls-39" d="M199.1,265.47a3.73,3.73,0,0,1-1.59.35l-.31.5a1,1,0,0,1,.87.91c0,.75-.62,1-1.3,1a2,2,0,0,1-.87-.21l.19-.57a1.25,1.25,0,0,0,.68.17c.29,0,.54-.09.54-.39s-.39-.46-1-.53l.52-1a2.83,2.83,0,0,1-2.52-3,3.07,3.07,0,0,1,3.24-3.21,3.67,3.67,0,0,1,1.53.31l-.25.85a2.55,2.55,0,0,0-1.28-.28,2.28,2.28,0,0,0,0,4.54,3.06,3.06,0,0,0,1.35-.3Z"/><path class="cls-39" d="M204.7,264.25a7.94,7.94,0,0,0,.1,1.44h-1l-.09-.76h0a2.23,2.23,0,0,1-1.85.9A1.72,1.72,0,0,1,200,264.1c0-1.47,1.3-2.27,3.64-2.25v-.13a1.25,1.25,0,0,0-1.37-1.4,3.07,3.07,0,0,0-1.58.45l-.25-.72a3.73,3.73,0,0,1,2-.54c1.85,0,2.3,1.26,2.3,2.47ZM201,258.61c0-.81.32-1.3.85-1.3a1.56,1.56,0,0,1,.78.27,1.17,1.17,0,0,0,.52.22c.2,0,.33-.12.35-.54h.59c0,.84-.27,1.26-.86,1.26a1.63,1.63,0,0,1-.76-.25,1.1,1.1,0,0,0-.54-.22c-.2,0-.3.21-.33.56Zm2.66,4c-1.19,0-2.56.19-2.56,1.36a1,1,0,0,0,1,1,1.5,1.5,0,0,0,1.46-1,1.12,1.12,0,0,0,.06-.35Z"/><path class="cls-39" d="M212,262.62a3,3,0,0,1-3,3.21,2.88,2.88,0,0,1-2.9-3.11,3,3,0,0,1,3-3.21A2.87,2.87,0,0,1,212,262.62Zm-4.8.06c0,1.33.76,2.33,1.83,2.33s1.84-1,1.84-2.35c0-1-.51-2.33-1.81-2.33S207.24,261.53,207.24,262.68Z"/><path class="cls-39" d="M221.47,256.82v7.31c0,.54,0,1.15.05,1.56h-1l-.05-1.05h0a2.24,2.24,0,0,1-2.06,1.19c-1.46,0-2.59-1.23-2.59-3.07,0-2,1.24-3.25,2.71-3.25a2,2,0,0,1,1.83.92h0v-3.61Zm-1.1,5.29a1.75,1.75,0,0,0-.05-.46,1.62,1.62,0,0,0-1.58-1.28c-1.14,0-1.82,1-1.82,2.34s.6,2.23,1.79,2.23a1.64,1.64,0,0,0,1.61-1.31,1.78,1.78,0,0,0,.05-.47Z"/><path class="cls-39" d="M228.86,262.62a3,3,0,0,1-3,3.21,2.87,2.87,0,0,1-2.9-3.11,3,3,0,0,1,3-3.21A2.87,2.87,0,0,1,228.86,262.62Zm-4.8.06c0,1.33.76,2.33,1.84,2.33s1.83-1,1.83-2.35c0-1-.51-2.33-1.81-2.33S224.06,261.53,224.06,262.68Z"/><path class="cls-39" d="M233.18,265.69v-5.21h-.85v-.83h.85v-.27a2.71,2.71,0,0,1,.86-2.08,2.85,2.85,0,0,1,1.93-.62,3.88,3.88,0,0,1,1.81.4v8.61H236.7v-8a2,2,0,0,0-.9-.17c-1.15,0-1.53.84-1.53,1.82v.3h1.41v.83h-1.41v5.21Z"/><path class="cls-39" d="M244.76,264.05c0,.62,0,1.17.05,1.64h-1l-.06-1h0a2.3,2.3,0,0,1-2,1.12c-.95,0-2.09-.52-2.09-2.65v-3.53h1.1V263c0,1.14.35,1.92,1.35,1.92a1.58,1.58,0,0,0,1.45-1,1.64,1.64,0,0,0,.1-.56v-3.71h1.1Z"/><path class="cls-39" d="M247.18,259.65l.87,1.3c.22.33.41.65.61,1h0c.2-.36.4-.67.6-1l.85-1.28h1.18l-2.06,2.92,2.13,3.12h-1.25l-.89-1.36c-.24-.35-.44-.69-.65-1.05h0c-.2.38-.41.69-.63,1.05l-.88,1.36h-1.21l2.15-3.08-2-3Z"/><path class="cls-39" d="M257.83,262.62a3,3,0,0,1-3,3.21,2.87,2.87,0,0,1-2.9-3.11,3,3,0,0,1,3-3.21A2.86,2.86,0,0,1,257.83,262.62Zm-4.8.06c0,1.33.77,2.33,1.84,2.33s1.84-1,1.84-2.35c0-1-.51-2.33-1.81-2.33S253,261.53,253,262.68Z"/><path class="cls-39" d="M267.27,256.82v7.31c0,.54,0,1.15.05,1.56h-1l-.05-1.05h0a2.24,2.24,0,0,1-2.06,1.19c-1.47,0-2.59-1.23-2.59-3.07,0-2,1.24-3.25,2.71-3.25a2,2,0,0,1,1.83.92h0v-3.61Zm-1.1,5.29a1.75,1.75,0,0,0-.05-.46,1.62,1.62,0,0,0-1.59-1.28c-1.13,0-1.81,1-1.81,2.34s.6,2.23,1.79,2.23a1.64,1.64,0,0,0,1.61-1.31,1.78,1.78,0,0,0,.05-.47Z"/><path class="cls-39" d="M269.79,262.87a1.94,1.94,0,0,0,2.08,2.1,4,4,0,0,0,1.67-.31l.19.78a4.77,4.77,0,0,1-2,.39,2.81,2.81,0,0,1-3-3.06c0-1.82,1.07-3.26,2.83-3.26a2.56,2.56,0,0,1,2.5,2.85,3,3,0,0,1,0,.51Zm3.23-.79a1.56,1.56,0,0,0-1.52-1.78,1.82,1.82,0,0,0-1.69,1.78Z"/><path class="cls-39" d="M173,274.73c0-.71,0-1.32,0-1.88h1l0,1.18h0a1.81,1.81,0,0,1,1.67-1.32,1,1,0,0,1,.32,0v1a2.17,2.17,0,0,0-.38,0,1.54,1.54,0,0,0-1.47,1.41,2.59,2.59,0,0,0-.05.51v3.22H173Z"/><path class="cls-39" d="M177.61,276.07a1.94,1.94,0,0,0,2.08,2.1,4.06,4.06,0,0,0,1.67-.31l.19.78a4.77,4.77,0,0,1-2,.39,2.81,2.81,0,0,1-3-3.06c0-1.82,1.08-3.26,2.84-3.26a2.57,2.57,0,0,1,2.5,2.85,4.58,4.58,0,0,1,0,.51Zm3.23-.79a1.56,1.56,0,0,0-1.53-1.78,1.82,1.82,0,0,0-1.69,1.78Z"/><path class="cls-39" d="M184.67,271.4v1.45h1.58v.83h-1.58V277c0,.75.22,1.17.83,1.17a2.13,2.13,0,0,0,.64-.07l.05.82a2.65,2.65,0,0,1-1,.16,1.55,1.55,0,0,1-1.19-.47,2.26,2.26,0,0,1-.42-1.58v-3.3h-.94v-.83h.94v-1.12Z"/><path class="cls-39" d="M193,275.82a3,3,0,0,1-3,3.21,2.87,2.87,0,0,1-2.9-3.11,3,3,0,0,1,3-3.21A2.86,2.86,0,0,1,193,275.82Zm-4.8.06c0,1.33.77,2.33,1.84,2.33s1.84-1,1.84-2.35c0-1-.51-2.33-1.81-2.33S188.17,274.73,188.17,275.88Z"/><path class="cls-39" d="M194.45,274.73c0-.71,0-1.32,0-1.88h1l0,1.18h0a1.81,1.81,0,0,1,1.67-1.32,1,1,0,0,1,.32,0v1a2.17,2.17,0,0,0-.38,0,1.54,1.54,0,0,0-1.47,1.41,2.59,2.59,0,0,0-.05.51v3.22h-1.09Z"/><path class="cls-39" d="M198.67,274.48c0-.62,0-1.13,0-1.63h1l.06,1h0a2.2,2.2,0,0,1,2-1.14c.84,0,2.14.5,2.14,2.57v3.61h-1.1v-3.48c0-1-.36-1.79-1.4-1.79a1.56,1.56,0,0,0-1.47,1.13,1.52,1.52,0,0,0-.08.51v3.63h-1.1Z"/><path class="cls-39" d="M211.17,275.82a3,3,0,0,1-3,3.21,2.87,2.87,0,0,1-2.9-3.11,3,3,0,0,1,3-3.21A2.86,2.86,0,0,1,211.17,275.82Zm-4.8.06c0,1.33.77,2.33,1.84,2.33s1.84-1,1.84-2.35c0-1-.51-2.33-1.81-2.33S206.37,274.73,206.37,275.88Z"/><path class="cls-39" d="M217.77,270.22a8.27,8.27,0,0,0-1.57,5.11,8.41,8.41,0,0,0,1.57,5.08h-.86a8.08,8.08,0,0,1-1.64-5.08,8.28,8.28,0,0,1,1.64-5.11Z"/><path class="cls-39" d="M218.54,273.3a14.33,14.33,0,0,1,1.17-3l.7-.07a16.82,16.82,0,0,0-.74,2.92Zm1.86,0a14.37,14.37,0,0,1,1.16-3l.7-.07a16.82,16.82,0,0,0-.74,2.92Z"/><path class="cls-39" d="M223.25,274.73c0-.71,0-1.32-.05-1.88h1l0,1.18h.05a1.8,1.8,0,0,1,1.67-1.32,1,1,0,0,1,.31,0v1a2,2,0,0,0-.37,0,1.54,1.54,0,0,0-1.48,1.41,3.67,3.67,0,0,0,0,.51v3.22h-1.08Z"/><path class="cls-39" d="M227.91,276.07a1.94,1.94,0,0,0,2.08,2.1,4.06,4.06,0,0,0,1.67-.31l.19.78a4.79,4.79,0,0,1-2,.39,2.81,2.81,0,0,1-3-3.06c0-1.82,1.08-3.26,2.84-3.26a2.57,2.57,0,0,1,2.5,2.85,4.58,4.58,0,0,1,0,.51Zm3.22-.79a1.55,1.55,0,0,0-1.52-1.78,1.82,1.82,0,0,0-1.69,1.78Z"/><path class="cls-39" d="M233.5,277.77a2.89,2.89,0,0,0,1.45.44c.8,0,1.17-.4,1.17-.9s-.31-.81-1.12-1.11c-1.09-.39-1.6-1-1.6-1.72a1.86,1.86,0,0,1,2.08-1.77,3,3,0,0,1,1.49.37l-.27.8a2.38,2.38,0,0,0-1.24-.35c-.65,0-1,.38-1,.83s.36.72,1.15,1c1.05.4,1.58.93,1.58,1.83,0,1.06-.82,1.82-2.26,1.82a3.47,3.47,0,0,1-1.7-.42Z"/><path class="cls-39" d="M238.69,274.82c0-.77,0-1.4-.05-2h1l0,1h0a2.39,2.39,0,0,1,2.15-1.17c1.46,0,2.56,1.24,2.56,3.07,0,2.18-1.33,3.25-2.75,3.25a2.11,2.11,0,0,1-1.86-.95h0v3.29h-1.08Zm1.08,1.61a2.81,2.81,0,0,0,0,.45,1.71,1.71,0,0,0,1.65,1.29c1.16,0,1.84-.95,1.84-2.34,0-1.21-.64-2.25-1.8-2.25a1.75,1.75,0,0,0-1.66,1.37,1.63,1.63,0,0,0-.08.45Z"/><path class="cls-39" d="M251.36,275.82a3,3,0,0,1-3,3.21,2.87,2.87,0,0,1-2.9-3.11,3,3,0,0,1,3-3.21A2.87,2.87,0,0,1,251.36,275.82Zm-4.8.06c0,1.33.76,2.33,1.84,2.33s1.83-1,1.83-2.35c0-1-.51-2.33-1.81-2.33S246.56,274.73,246.56,275.88Z"/><path class="cls-39" d="M252.69,277.77a2.85,2.85,0,0,0,1.44.44c.8,0,1.18-.4,1.18-.9s-.31-.81-1.13-1.11c-1.08-.39-1.6-1-1.6-1.72a1.87,1.87,0,0,1,2.09-1.77,3,3,0,0,1,1.49.37l-.28.8a2.31,2.31,0,0,0-1.23-.35c-.65,0-1,.38-1,.83s.37.72,1.15,1c1.05.4,1.59.93,1.59,1.83,0,1.06-.82,1.82-2.26,1.82a3.44,3.44,0,0,1-1.7-.42Z"/><path class="cls-39" d="M259.2,271.4v1.45h1.57v.83H259.2V277c0,.75.21,1.17.82,1.17a2.09,2.09,0,0,0,.64-.07l0,.82a2.59,2.59,0,0,1-1,.16,1.52,1.52,0,0,1-1.19-.47,2.26,2.26,0,0,1-.43-1.58v-3.3h-.93v-.83h.93v-1.12Z"/><path class="cls-39" d="M266.35,277.45a7.94,7.94,0,0,0,.1,1.44h-1l-.09-.76h0a2.25,2.25,0,0,1-1.85.9,1.72,1.72,0,0,1-1.85-1.73c0-1.47,1.3-2.27,3.64-2.25v-.13a1.25,1.25,0,0,0-1.38-1.4,3.06,3.06,0,0,0-1.57.45l-.25-.72a3.73,3.73,0,0,1,2-.54c1.85,0,2.3,1.26,2.3,2.47Zm-1.07-1.64c-1.2,0-2.56.19-2.56,1.36a1,1,0,0,0,1,1.05,1.5,1.5,0,0,0,1.46-1,1.07,1.07,0,0,0,.06-.35Z"/><path class="cls-39" d="M269.17,270.25a15.22,15.22,0,0,1-1.16,3l-.7.07a19,19,0,0,0,.74-2.91Zm1.85,0a15.22,15.22,0,0,1-1.16,3l-.7.07a16.94,16.94,0,0,0,.74-2.91Z"/><path class="cls-39" d="M271.65,280.41a8.44,8.44,0,0,0,1.57-5.11,8.3,8.3,0,0,0-1.57-5.08h.85a8,8,0,0,1,1.64,5.09,8.11,8.11,0,0,1-1.64,5.1Z"/><path class="cls-39" d="M103.23,122.54v3.29h-1v-8.71h2.36a3.12,3.12,0,0,1,2.14.68,2.46,2.46,0,0,1,.76,1.92,2.65,2.65,0,0,1-.85,2,3.21,3.21,0,0,1-2.27.79Zm0-4.5v3.57h1.06a2.34,2.34,0,0,0,1.59-.48,1.71,1.71,0,0,0,.55-1.36c0-1.15-.67-1.73-2-1.73Z"/><path class="cls-39" d="M111.05,126a2.85,2.85,0,0,1-2.18-.87,3.25,3.25,0,0,1-.81-2.31,3.38,3.38,0,0,1,.85-2.45,3,3,0,0,1,2.28-.88,2.76,2.76,0,0,1,2.15.86,3.43,3.43,0,0,1,.77,2.37,3.39,3.39,0,0,1-.83,2.39A2.93,2.93,0,0,1,111.05,126Zm.07-5.67a1.88,1.88,0,0,0-1.5.65,2.71,2.71,0,0,0-.55,1.8,2.54,2.54,0,0,0,.56,1.75,1.89,1.89,0,0,0,1.49.63,1.77,1.77,0,0,0,1.47-.62,2.75,2.75,0,0,0,.51-1.78,2.8,2.8,0,0,0-.51-1.8A1.78,1.78,0,0,0,111.12,120.3Z"/><path class="cls-39" d="M118.21,126a2.82,2.82,0,0,1-2.17-.87,3.22,3.22,0,0,1-.82-2.31,3.38,3.38,0,0,1,.85-2.45,3,3,0,0,1,2.28-.88,2.76,2.76,0,0,1,2.15.86,3.43,3.43,0,0,1,.77,2.37,3.39,3.39,0,0,1-.83,2.39A2.93,2.93,0,0,1,118.21,126Zm.07-5.67a1.88,1.88,0,0,0-1.5.65,2.71,2.71,0,0,0-.55,1.8,2.59,2.59,0,0,0,.56,1.75,1.89,1.89,0,0,0,1.49.63,1.77,1.77,0,0,0,1.47-.62,2.75,2.75,0,0,0,.51-1.78,2.8,2.8,0,0,0-.51-1.8A1.78,1.78,0,0,0,118.28,120.3Z"/><path class="cls-39" d="M123.79,125.83h-1v-9.21h1Z"/><path class="cls-39" d="M134.31,125.83h-1v-1.06h0a2.28,2.28,0,0,1-2.12,1.2,2.31,2.31,0,0,1-1.85-.83,3.49,3.49,0,0,1-.69-2.28,3.78,3.78,0,0,1,.77-2.47,2.51,2.51,0,0,1,2-.93,2,2,0,0,1,1.85,1h0v-3.85h1Zm-1-2.82v-.91a1.8,1.8,0,0,0-.49-1.28,1.65,1.65,0,0,0-1.25-.52,1.7,1.7,0,0,0-1.42.67,3,3,0,0,0-.51,1.84,2.65,2.65,0,0,0,.49,1.7,1.6,1.6,0,0,0,1.33.62,1.68,1.68,0,0,0,1.34-.6A2.25,2.25,0,0,0,133.33,123Z"/><path class="cls-39" d="M141.21,123h-4.34a2.32,2.32,0,0,0,.55,1.6,1.88,1.88,0,0,0,1.45.56,3,3,0,0,0,1.91-.69v.94a3.57,3.57,0,0,1-2.14.59,2.6,2.6,0,0,1-2-.84,3.54,3.54,0,0,1-.74-2.39,3.42,3.42,0,0,1,.81-2.36,2.6,2.6,0,0,1,2-.92,2.33,2.33,0,0,1,1.87.79,3.33,3.33,0,0,1,.66,2.19Zm-1-.85a2.08,2.08,0,0,0-.41-1.34,1.4,1.4,0,0,0-1.13-.48,1.59,1.59,0,0,0-1.18.5,2.38,2.38,0,0,0-.6,1.32Z"/><path class="cls-39" d="M150.58,125.83h-4.46v-8.71h1v7.78h3.45Z"/><path class="cls-39" d="M151.86,125.83v-8.71h2.45a2.66,2.66,0,0,1,1.77.55,1.78,1.78,0,0,1,.65,1.44,2.19,2.19,0,0,1-.39,1.29,2.24,2.24,0,0,1-1.09.78v0a2.2,2.2,0,0,1,1.39.66,2.07,2.07,0,0,1,.52,1.46,2.27,2.27,0,0,1-.79,1.81,2.91,2.91,0,0,1-2,.7Zm1-7.79v2.81h1a1.93,1.93,0,0,0,1.3-.4,1.41,1.41,0,0,0,.48-1.14c0-.85-.55-1.27-1.65-1.27Zm0,3.73v3.13h1.37a2.07,2.07,0,0,0,1.38-.42,1.47,1.47,0,0,0,.48-1.17c0-1-.69-1.54-2.07-1.54Z"/></g></svg>