<svg xmlns="http://www.w3.org/2000/svg" xmlns:xlink="http://www.w3.org/1999/xlink" viewBox="0 0 332.33 285.86"><defs><style>.cls-1{fill:#fff;}.cls-2{fill:#ccc;fill-opacity:0.3;}.cls-23,.cls-24,.cls-26,.cls-3,.cls-35,.cls-37,.cls-4,.cls-9{fill:none;stroke-miterlimit:10;}.cls-23,.cls-3,.cls-4{stroke:#3c3c41;}.cls-4{stroke-dasharray:1.31 2.19;}.cls-5,.cls-6,.cls-7,.cls-8{fill:#3c3c41;}.cls-6{opacity:0.05;}.cls-34,.cls-38,.cls-39,.cls-6,.cls-7,.cls-8,.cls-9{isolation:isolate;}.cls-7{opacity:0.2;}.cls-8{opacity:0.02;}.cls-24,.cls-26,.cls-9{stroke:#365615;}.cls-9{stroke-width:0.5px;opacity:0.5;}.cls-10{fill:url(#Degradado_sin_nombre);}.cls-11{fill:#50e6ff;}.cls-12{fill:#c3f1ff;}.cls-13{fill:#9cebff;}.cls-14{fill:url(#Degradado_sin_nombre_2);}.cls-15{fill:url(#Degradado_sin_nombre_3);}.cls-16{fill:url(#Degradado_sin_nombre_4);}.cls-17{fill:#005ba1;}.cls-18{fill:#0078d4;}.cls-19{fill:url(#Degradado_sin_nombre_5);}.cls-20{fill:url(#Degradado_sin_nombre_6);}.cls-21{fill:url(#Degradado_sin_nombre_7);}.cls-22{fill:url(#Degradado_sin_nombre_8);}.cls-23,.cls-26,.cls-37{stroke-dasharray:1.46 2.43;}.cls-25{fill:#365615;}.cls-27{fill:url(#Degradado_sin_nombre_9);}.cls-28{fill:url(#Degradado_sin_nombre_10);}.cls-29{fill:url(#Degradado_sin_nombre_11);}.cls-30{fill:#1490df;}.cls-31{fill:url(#Degradado_sin_nombre_12);}.cls-32{fill:#b4ec36;}.cls-33{fill:#5ea0ef;}.cls-34{fill:#9bf00b;}.cls-34,.cls-38,.cls-39{opacity:0.4;}.cls-35,.cls-37{stroke:#003067;}.cls-36{fill:#003067;}.cls-38{fill:#83b9f9;}.cls-39,.cls-40{fill:#6ebcdb;}.cls-41{fill:#5db4d7;}.cls-42{fill:#e6e6e6;}.cls-43{fill:#86d633;}.cls-44{fill:#1e1e1e;}.cls-45{fill:#767676;}</style><linearGradient id="Degradado_sin_nombre" x1="132.84" y1="445.76" x2="132.84" y2="427" gradientTransform="translate(0 -292.14)" gradientUnits="userSpaceOnUse"><stop offset="0" stop-color="#0078d4"/><stop offset="0.82" stop-color="#5ea0ef"/></linearGradient><linearGradient id="Degradado_sin_nombre_2" x1="132.84" y1="453" x2="132.84" y2="445.76" gradientTransform="translate(0 -292.14)" gradientUnits="userSpaceOnUse"><stop offset="0.15" stop-color="#ccc"/><stop offset="1" stop-color="#707070"/></linearGradient><linearGradient id="Degradado_sin_nombre_3" x1="173.92" y1="445.76" x2="173.92" y2="427" xlink:href="#Degradado_sin_nombre"/><linearGradient id="Degradado_sin_nombre_4" x1="173.94" y1="453" x2="173.94" y2="445.76" xlink:href="#Degradado_sin_nombre_2"/><linearGradient id="Degradado_sin_nombre_5" x1="300.19" y1="433.76" x2="300.19" y2="423.44" xlink:href="#Degradado_sin_nombre"/><linearGradient id="Degradado_sin_nombre_6" x1="300.24" y1="437.77" x2="300.24" y2="433.77" xlink:href="#Degradado_sin_nombre_2"/><linearGradient id="Degradado_sin_nombre_7" x1="252.5" y1="433.76" x2="252.5" y2="415" xlink:href="#Degradado_sin_nombre"/><linearGradient id="Degradado_sin_nombre_8" x1="252.5" y1="441" x2="252.5" y2="433.76" xlink:href="#Degradado_sin_nombre_2"/><linearGradient id="Degradado_sin_nombre_9" x1="75.68" y1="492.87" x2="78.04" y2="495.24" gradientTransform="translate(2.87 -293.36)" gradientUnits="userSpaceOnUse"><stop offset="0" stop-color="#86d633"/><stop offset="0.24" stop-color="#83d232"/><stop offset="0.5" stop-color="#7cc52f"/><stop offset="0.76" stop-color="#6fb02a"/><stop offset="1" stop-color="#5e9624"/></linearGradient><linearGradient id="Degradado_sin_nombre_10" x1="70.33" y1="492.87" x2="72.69" y2="495.24" xlink:href="#Degradado_sin_nombre_9"/><linearGradient id="Degradado_sin_nombre_11" x1="64.99" y1="492.87" x2="67.35" y2="495.24" xlink:href="#Degradado_sin_nombre_9"/><linearGradient id="Degradado_sin_nombre_12" x1="84.67" y1="357.92" x2="84.67" y2="321.98" gradientTransform="translate(0 -292.14)" gradientUnits="userSpaceOnUse"><stop offset="0" stop-color="#5e9624"/><stop offset="0.02" stop-color="#5f9724"/><stop offset="1" stop-color="#76bc2d"/></linearGradient></defs><title>OJ104903191</title><g id="Target"><g id="Shapes"><rect class="cls-1" width="332.33" height="285.86"/><rect class="cls-2" x="176.33" y="210.86" width="155" height="35"/><rect class="cls-2" x="176.33" y="250.86" width="155" height="35"/><line class="cls-3" x1="192.02" y1="260.86" x2="191.27" y2="260.86"/><line class="cls-4" x1="189.08" y1="260.86" x2="183.17" y2="260.86"/><line class="cls-3" x1="182.08" y1="260.86" x2="181.33" y2="260.86"/><polygon class="cls-5" points="191.15 257.86 196.33 260.86 191.15 263.85 191.15 257.86"/><path class="cls-1" d="M331.83,46.5v149a5,5,0,0,1-5,5h-270a5,5,0,0,1-5-5V46.5"/><path class="cls-6" d="M331.83,46.5v149a5,5,0,0,1-5,5h-270a5,5,0,0,1-5-5V46.5"/><path class="cls-5" d="M325.67,201h-1v-1h1Zm-3,0h-1v-1h1Zm-3,0h-1v-1h1Zm-3,0h-1v-1h1Zm-3,0h-1v-1h1Zm-3,0h-1v-1h1Zm-3,0h-1v-1h1Zm-3,0h-1v-1h1Zm-3,0h-1v-1h1Zm-3,0h-1v-1h1Zm-3,0h-1v-1h1Zm-3,0h-1v-1h1Zm-3,0h-1v-1h1Zm-3,0h-1v-1h1Zm-3,0h-1v-1h1Zm-3,0h-1v-1h1Zm-3,0h-1v-1h1Zm-3,0h-1v-1h1Zm-3,0h-1v-1h1Zm-3,0h-1v-1h1Zm-3,0h-1v-1h1Zm-3,0h-1v-1h1Zm-3,0h-1v-1h1Zm-3,0h-1v-1h1Zm-3,0h-1v-1h1Zm-3,0h-1v-1h1Zm-3,0h-1v-1h1Zm-3,0h-1v-1h1Zm-3,0h-1v-1h1Zm-3,0h-1v-1h1Zm-3,0h-1v-1h1Zm-3,0h-1v-1h1Zm-3,0h-1v-1h1Zm-3,0h-1v-1h1Zm-3,0h-1v-1h1Zm-3,0h-1v-1h1Zm-3,0h-1v-1h1Zm-3,0h-1v-1h1Zm-3,0h-1v-1h1Zm-3,0h-1v-1h1Zm-3,0h-1v-1h1Zm-3,0h-1v-1h1Zm-3,0h-1v-1h1Zm-3,0h-1v-1h1Zm-3,0h-1v-1h1Zm-3,0h-1v-1h1Zm-3,0h-1v-1h1Zm-3,0h-1v-1h1Zm-3,0h-1v-1h1Zm-3,0h-1v-1h1Zm-3,0h-1v-1h1Zm-3,0h-1v-1h1Zm-3,0h-1v-1h1Zm-3,0h-1v-1h1Zm-3,0h-1v-1h1Zm-3,0h-1v-1h1Zm-3,0h-1v-1h1Zm-3,0h-1v-1h1Zm-3,0h-1v-1h1Zm-3,0h-1v-1h1Zm-3,0h-1v-1h1Zm-3,0h-1v-1h1Zm-3,0h-1v-1h1Zm-3,0h-1v-1h1Zm-3,0h-1v-1h1Zm-3,0h-1v-1h1Zm-3,0h-1v-1h1Zm-3,0h-1v-1h1Zm-3,0h-1v-1h1Zm-3,0h-1v-1h1Zm-3,0h-1v-1h1Zm-3,0h-1v-1h1Zm-3,0h-1v-1h1Zm-3,0h-1v-1h1Zm-3,0h-1v-1h1Zm-3,0h-1v-1h1Zm-3,0h-1v-1h1Zm-3,0h-1v-1h1Zm-3,0h-1v-1h1Zm-33,0h-1v-1h1Zm269.5-.08-.17-1a4.31,4.31,0,0,0,.87-.24l.36.93a5.74,5.74,0,0,1-1.48.31Zm-272.64-.2a4.5,4.5,0,0,1-1-.45l.5-.86a4,4,0,0,0,.82.37Zm275.54-1.27-.69-.72A4.82,4.82,0,0,0,331,198l.82.57a6.26,6.26,0,0,1-1.13.84Zm-278.19-.61a6.1,6.1,0,0,1-.58-.94l.9-.44a4.66,4.66,0,0,0,.47.77Zm279.76-2.24-1-.21a4.41,4.41,0,0,0,.09-.89l1-.06v.06a5.77,5.77,0,0,1-.51,1.1Zm-280.88-.82v-1h1v1Zm281-2.34h-1v-1h1Zm-280-.69h-1v-1h1Zm280-2.32h-1v-1h1Zm-280-.68h-1v-1h1Zm280-2.32h-1v-1h1Zm-280-.69h-1v-1h1Zm280-2.32h-1v-1h1Zm-280-.68h-1v-1h1Zm280-2.32h-1v-1h1Zm-280-.69h-1v-1h1Zm280-2.31h-1v-1h1Zm-280-.69h-1v-1h1Zm280-2.32h-1v-1h1Zm-280-.69h-1v-1h1Zm280-2.31h-1v-1h1Zm-280-.69h-1v-1h1Zm280-2.32h-1v-1h1Zm-280-.69h-1v-1h1Zm280-2.31h-1v-1h1Zm-280-.69h-1v-1h1Zm280-2.32h-1v-1h1Zm-280-.69h-1v-1h1Zm280-2.31h-1v-1h1Zm-280-.69h-1v-1h1Zm280-2.32h-1v-1h1Zm-280-.69h-1v-1h1Zm280-2.31h-1v-1h1Zm-280-.69h-1v-1h1Zm280-2.32h-1v-1h1Zm-280-.69h-1v-1h1Zm280-2.31h-1v-1h1Zm-280-.69h-1v-1h1Zm280-2.32h-1v-1h1Zm-280-.68h-1v-1h1Zm280-2.32h-1v-1h1Zm-280-.69h-1v-1h1Zm280-2.32h-1v-1h1Zm-280-.68h-1v-1h1Zm280-2.32h-1v-1h1Zm-280-.69h-1v-1h1Zm280-2.32h-1v-1h1Zm-280-.68h-1v-1h1Zm280-2.32h-1v-1h1Zm-280-.69h-1v-1h1Zm280-2.32h-1v-1h1Zm-280-.68h-1v-1h1Zm280-2.32h-1v-1h1Zm-280-.69h-1v-1h1Zm280-2.31h-1v-1h1Zm-280-.69h-1v-1h1Zm280-2.32h-1v-1h1Zm-280-.69h-1v-1h1Zm280-2.31h-1v-1h1Zm-280-.69h-1v-1h1Zm280-2.32h-1v-1h1Zm-280-.69h-1v-1h1Zm280-2.31h-1v-1h1Zm-280-.69h-1v-1h1Zm280-2.32h-1v-1h1Zm-280-.69h-1v-1h1Zm280-2.31h-1v-1h1Zm-280-.69h-1v-1h1Zm280-2.32h-1v-1h1Zm-280-.69h-1v-1h1Zm280-2.31h-1v-1h1Zm-280-.69h-1v-1h1Zm280-2.32h-1v-1h1Zm-280-.69h-1v-1h1Zm280-2.31h-1v-1h1Zm-280-.69h-1v-1h1Zm280-2.32h-1v-1h1Zm-280-.68h-1v-1h1Zm280-2.32h-1v-1h1Zm-280-.69h-1v-1h1Zm280-2.32h-1v-1h1Zm-280-.68h-1v-1h1Zm280-2.32h-1v-1h1Zm-280-.69h-1v-1h1Zm280-2.32h-1v-1h1Zm-280-.68h-1v-1h1Zm280-2.32h-1v-1h1Zm-280-.69h-1v-1h1Zm280-2.31h-1v-1h1Zm-280-.69h-1v-1h1Zm280-2.32h-1v-1h1Zm-280-.69h-1v-1h1Zm280-2.31h-1v-1h1Zm-280-.69h-1v-1h1Zm280-2.32h-1v-1h1Zm-280-.69h-1v-1h1Zm280-2.31h-1v-1h1Zm-280-.69h-1v-1h1Zm280-2.32h-1v-1h1Zm-280-.69h-1v-1h1Zm280-2.31h-1v-1l1-.05v1Zm-281-.69h0a5.36,5.36,0,0,1,.1-1.06l1,.19a5.12,5.12,0,0,0-.08.87Zm279.53-2a4,4,0,0,0-.48-.76l.79-.61a5,5,0,0,1,.59.93ZM53.1,49l-.82-.56a6.24,6.24,0,0,1,.7-.84l.7.71A4.82,4.82,0,0,0,53.1,49ZM329,47.58a4,4,0,0,0-.82-.36l.3-.95a5.24,5.24,0,0,1,1,.44ZM55.18,47.31l-.36-.93a6.41,6.41,0,0,1,1.06-.3l.17,1A4.29,4.29,0,0,0,55.18,47.31ZM326.38,47h-1V46h1Zm-3,0h-1V46h1Zm-3,0h-1V46h1Zm-3,0h-1V46h1Zm-3,0h-1V46h1Zm-3,0h-1V46h1Zm-3,0h-1V46h1Zm-3,0h-1V46h1Zm-3,0h-1V46h1Zm-3,0h-1V46h1Zm-3,0h-1V46h1Zm-3,0h-1V46h1Zm-3,0h-1V46h1Zm-3,0h-1V46h1Zm-3,0h-1V46h1Zm-3,0h-1V46h1Zm-3,0h-1V46h1Zm-3,0h-1V46h1Zm-3,0h-1V46h1Zm-3,0h-1V46h1Zm-27,0h-1V46h1Zm-3,0h-1V46h1Zm-3,0h-1V46h1Zm-3,0h-1V46h1Zm-3,0h-1V46h1Zm-3,0h-1V46h1Zm-3,0h-1V46h1Zm-3,0h-1V46h1Zm-3,0h-1V46h1Zm-3,0h-1V46h1Zm-3,0h-1V46h1Zm-3,0h-1V46h1Zm-3,0h-1V46h1Zm-3,0h-1V46h1Zm-3,0h-1V46h1Zm-3,0h-1V46h1Zm-3,0h-1V46h1Zm-3,0h-1V46h1Zm-3,0h-1V46h1Zm-3,0h-1V46h1Zm-3,0h-1V46h1Zm-3,0h-1V46h1Zm-3,0h-1V46h1Zm-3,0h-1V46h1Zm-3,0h-1V46h1Zm-3,0h-1V46h1Zm-3,0h-1V46h1Zm-3,0h-1V46h1Zm-3,0h-1V46h1Zm-3,0h-1V46h1Zm-3,0h-1V46h1Zm-3,0h-1V46h1Zm-3,0h-1V46h1Zm-3,0h-1V46h1Zm-3,0h-1V46h1Zm-3,0h-1V46h1Zm-3,0h-1V46h1Zm-3,0h-1V46h1Zm-3,0h-1V46h1Zm-3,0h-1V46h1Zm-3,0h-1V46h1Zm-3,0h-1V46h1Zm-3,0h-1V46h1Zm-3,0h-1V46h1Zm-3,0h-1V46h1Zm-3,0h-1V46h1Zm-3,0h-1V46h1Zm-3,0h-1V46h1Zm-3,0H97V46h1Zm-3,0H94V46h1Zm-3,0H91V46h1Zm-3,0H88V46h1Zm-3,0H85V46h1Zm-3,0H82V46h1Zm-3,0H79V46h1Zm-3,0H76V46h1Zm-3,0H73V46h1Zm-3,0H70V46h1Zm-3,0H67V46h1Zm-3,0H64V46h1Zm-3,0H61V46h1Zm-3,0H58V46h1Z"/><rect class="cls-1" x="61.33" y="90.86" width="155" height="95"/><rect class="cls-7" x="61.33" y="90.86" width="155" height="95"/><rect class="cls-1" x="66.33" y="110.86" width="145" height="70"/><rect class="cls-8" x="66.33" y="110.86" width="145" height="70"/><rect class="cls-9" x="66.33" y="110.86" width="145" height="70"/><rect class="cls-10" x="118.77" y="134.86" width="28.14" height="18.76" rx="0.94"/><polygon class="cls-11" points="137.53 141.5 137.53 146.96 132.84 149.71 132.84 144.24 137.53 141.5"/><polygon class="cls-12" points="137.53 141.5 132.84 144.25 128.15 141.5 132.84 138.76 137.53 141.5"/><polygon class="cls-13" points="132.84 144.25 132.84 149.71 128.15 146.96 128.15 141.5 132.84 144.25"/><polygon class="cls-12" points="128.15 146.96 132.84 144.24 132.84 149.71 128.15 146.96"/><polygon class="cls-13" points="137.53 146.96 132.84 144.24 132.84 149.71 137.53 146.96"/><path class="cls-14" d="M138.48,159.29c-2.78-.44-2.89-2.44-2.89-5.67h-5.52c0,3.23-.09,5.23-2.88,5.67a1.56,1.56,0,0,0-1.39,1.57h14.07A1.56,1.56,0,0,0,138.48,159.29Z"/><rect class="cls-15" x="159.85" y="134.86" width="28.14" height="18.76" rx="0.94"/><polygon class="cls-11" points="178.61 141.5 178.61 146.96 173.92 149.71 173.92 144.24 178.61 141.5"/><polygon class="cls-12" points="178.61 141.5 173.92 144.25 169.23 141.5 173.92 138.76 178.61 141.5"/><polygon class="cls-13" points="173.92 144.25 173.92 149.71 169.23 146.96 169.23 141.5 173.92 144.25"/><polygon class="cls-12" points="169.23 146.96 173.92 144.24 173.92 149.71 169.23 146.96"/><polygon class="cls-13" points="178.61 146.96 173.92 144.24 173.92 149.71 178.61 146.96"/><path class="cls-16" d="M179.56,159.29c-2.78-.44-2.89-2.44-2.89-5.67h-5.52c0,3.23-.09,5.23-2.87,5.67a1.58,1.58,0,0,0-1.4,1.57H181A1.57,1.57,0,0,0,179.56,159.29Z"/><rect class="cls-1" x="226.33" y="90.86" width="95" height="95"/><rect class="cls-7" x="226.33" y="90.86" width="95" height="95"/><rect class="cls-17" x="281.93" y="119.63" width="15.46" height="10.32" rx="0.52"/><polygon class="cls-11" points="292.24 123.28 292.24 126.3 289.67 127.79 289.67 124.8 292.24 123.28"/><polygon class="cls-12" points="292.24 123.28 289.67 124.8 287.08 123.28 289.67 121.77 292.24 123.28"/><polygon class="cls-13" points="289.67 124.8 289.67 127.79 287.08 126.3 287.08 123.28 289.67 124.8"/><rect class="cls-18" x="288" y="125.55" width="15.46" height="10.32" rx="0.52"/><polygon class="cls-11" points="298.31 129.22 298.31 132.21 295.74 133.73 295.74 130.72 298.31 129.22"/><polygon class="cls-12" points="298.31 129.22 295.74 130.72 293.15 129.22 295.74 127.7 298.31 129.22"/><polygon class="cls-13" points="295.74 130.72 295.74 133.73 293.15 132.21 293.15 129.22 295.74 130.72"/><rect class="cls-19" x="292.46" y="131.3" width="15.46" height="10.32" rx="0.52"/><polygon class="cls-11" points="302.77 134.97 302.77 137.96 300.2 139.48 300.2 136.47 302.77 134.97"/><polygon class="cls-12" points="302.77 134.97 300.2 136.48 297.62 134.97 300.2 133.45 302.77 134.97"/><polygon class="cls-13" points="300.2 136.48 300.2 139.48 297.62 137.96 297.62 134.97 300.2 136.48"/><polygon class="cls-12" points="297.62 137.96 300.2 136.47 300.2 139.48 297.62 137.96"/><polygon class="cls-13" points="302.77 137.96 300.2 136.47 300.2 139.48 302.77 137.96"/><path class="cls-20" d="M303.29,144.75c-1.53-.24-1.53-1.34-1.53-3.05H298.7c0,1.77,0,2.87-1.52,3.05a.91.91,0,0,0-.77.88h7.65A.91.91,0,0,0,303.29,144.75Z"/><rect class="cls-21" x="238.43" y="122.86" width="28.14" height="18.76" rx="0.94"/><polygon class="cls-11" points="257.19 129.5 257.19 134.96 252.5 137.71 252.5 132.24 257.19 129.5"/><polygon class="cls-12" points="257.19 129.5 252.5 132.25 247.81 129.5 252.5 126.76 257.19 129.5"/><polygon class="cls-13" points="252.5 132.25 252.5 137.71 247.81 134.96 247.81 129.5 252.5 132.25"/><polygon class="cls-12" points="247.81 134.96 252.5 132.24 252.5 137.71 247.81 134.96"/><polygon class="cls-13" points="257.19 134.96 252.5 132.24 252.5 137.71 257.19 134.96"/><path class="cls-22" d="M258.14,147.29c-2.78-.44-2.89-2.44-2.89-5.67h-5.52c0,3.23-.09,5.23-2.88,5.67a1.56,1.56,0,0,0-1.39,1.57h14.07A1.56,1.56,0,0,0,258.14,147.29Z"/><line class="cls-3" x1="203.19" y1="91.21" x2="203.19" y2="64.14"/><line class="cls-3" x1="195.67" y1="85.68" x2="195.67" y2="73.98"/><polygon class="cls-5" points="198.66 74.86 195.67 69.68 192.68 74.86 198.66 74.86"/><line class="cls-3" x1="210.72" y1="81.37" x2="210.72" y2="80.62"/><line class="cls-23" x1="210.72" y1="78.19" x2="210.72" y2="71.64"/><line class="cls-3" x1="210.72" y1="70.43" x2="210.72" y2="69.68"/><polygon class="cls-5" points="213.71 80.5 210.72 85.68 207.73 80.5 213.71 80.5"/><line class="cls-3" x1="243.85" y1="91.21" x2="243.85" y2="64.14"/><line class="cls-3" x1="236.33" y1="85.68" x2="236.33" y2="73.98"/><polygon class="cls-5" points="239.32 74.86 236.33 69.68 233.34 74.86 239.32 74.86"/><line class="cls-3" x1="251.38" y1="81.37" x2="251.38" y2="80.62"/><line class="cls-23" x1="251.38" y1="78.19" x2="251.38" y2="71.64"/><line class="cls-3" x1="251.38" y1="70.43" x2="251.38" y2="69.68"/><polygon class="cls-5" points="254.37 80.5 251.38 85.68 248.39 80.5 254.37 80.5"/><line class="cls-24" x1="84.57" y1="110.86" x2="84.57" y2="19.87"/><line class="cls-24" x1="78.2" y1="79.27" x2="78.2" y2="67.58"/><polygon class="cls-25" points="81.2 78.4 78.2 83.58 75.21 78.4 81.2 78.4"/><line class="cls-24" x1="91.31" y1="83.58" x2="91.31" y2="82.83"/><line class="cls-26" x1="91.31" y1="80.4" x2="91.31" y2="73.85"/><line class="cls-24" x1="91.31" y1="72.63" x2="91.31" y2="71.88"/><polygon class="cls-25" points="94.3 72.76 91.31 67.58 88.32 72.76 94.3 72.76"/><line class="cls-3" x1="225.03" y1="38.29" x2="225.03" y2="18.79"/><line class="cls-3" x1="187.34" y1="222.93" x2="198.46" y2="222.93"/><polygon class="cls-5" points="188.21 225.93 183.03 222.93 188.21 219.94 188.21 225.93"/><path class="cls-3" d="M221.15,41,183.41,29.65a4.3,4.3,0,0,1-2.88-3.86v-7"/><path class="cls-3" d="M229.35,41l43.28-11.43a4.1,4.1,0,0,0,2.9-3.76v-7"/><circle class="cls-27" cx="79.53" cy="200.49" r="1.67"/><circle class="cls-28" cx="74.18" cy="200.5" r="1.67"/><circle class="cls-29" cx="68.84" cy="200.5" r="1.67"/><path class="cls-11" d="M70.06,207.2l-1,1a.43.43,0,0,1-.61,0h0l-7.1-7.08a.86.86,0,0,1,0-1.22h0l1-1h0l7.71,7.69a.43.43,0,0,1,0,.61Z"/><path class="cls-30" d="M69,192.86l1,1a.43.43,0,0,1,0,.61h0L62.34,202h0l-1-1a.87.87,0,0,1,0-1.23h0l7-7a.44.44,0,0,1,.61,0Z"/><path class="cls-11" d="M85.9,198.88l1,1a.86.86,0,0,1,0,1.22h0l-7.09,7.08a.44.44,0,0,1-.62,0h0l-1-1a.45.45,0,0,1,0-.61h0l7.7-7.69Z"/><path class="cls-30" d="M86.86,201.06l-1,1h0l-7.58-7.6a.43.43,0,0,1,0-.61h0l1-1a.43.43,0,0,1,.61,0h0l7,7a.87.87,0,0,1,0,1.23h0Z"/><path class="cls-31" d="M69.48,46.35,83.93,31.9a1,1,0,0,1,1.41,0l0,0h0L99.85,46.35a1,1,0,0,1,.05,1.41l-.05.05h0L85.39,62.3a1,1,0,0,1-1.41,0l0,0L69.48,47.83a1,1,0,0,1,0-1.41s0,0,0-.05Z"/><path class="cls-32" d="M88.46,38.48,84.8,34.85a.2.2,0,0,0-.27,0l-3.65,3.63a.17.17,0,0,0,.14.31h2.13a.2.2,0,0,1,.19.19h0v3.45a.21.21,0,0,0,.19.19H85.8a.2.2,0,0,0,.19-.19h0V39a.21.21,0,0,1,.19-.19h2.14a.17.17,0,0,0,.21-.12h0A.19.19,0,0,0,88.46,38.48Z"/><path class="cls-32" d="M76.06,43l-3.62,3.66a.19.19,0,0,0,0,.26l3.62,3.64a.19.19,0,0,0,.27,0h0a.17.17,0,0,0,0-.14V48.28a.2.2,0,0,1,.19-.19H80a.18.18,0,0,0,.17-.17V45.63a.18.18,0,0,0-.06-.24H76.63a.17.17,0,0,1-.19-.15h0V43.11a.21.21,0,0,0-.12-.25.19.19,0,0,0-.25.12Z"/><path class="cls-32" d="M93.41,50.54l3.67-3.65a.19.19,0,0,0,0-.26L93.41,43a.18.18,0,0,0-.25,0h0a.22.22,0,0,0-.05.11v2.16a.18.18,0,0,1-.17.17H89.47a.18.18,0,0,0-.17.17V47.9a.17.17,0,0,0,.15.19h3.47a.19.19,0,0,1,.18.19v2.14a.21.21,0,0,0,.22.16Z"/><path class="cls-1" d="M89.47,47.09a4.81,4.81,0,1,0-6.09,4.6v1.64a2.94,2.94,0,1,0,2.7,0V51.6A4.76,4.76,0,0,0,89.47,47.09Z"/><circle id="e99c3387-15c3-4f28-bd4b-cb209b430e06" class="cls-33" cx="84.68" cy="47.08" r="2.79"/><rect class="cls-1" x="163" width="35" height="20.86"/><rect class="cls-7" x="163" width="35" height="20.86"/><rect class="cls-1" x="66.33" width="35" height="20.86"/><rect class="cls-34" x="66.33" width="35" height="20.86"/><rect class="cls-1" x="208.03" width="35" height="20.86"/><rect class="cls-7" x="208.03" width="35" height="20.86"/><rect class="cls-1" x="253.03" width="45" height="20.86"/><rect class="cls-7" x="253.03" width="45" height="20.86"/><line class="cls-35" x1="127.18" y1="79.27" x2="127.18" y2="67.58"/><polygon class="cls-36" points="130.17 78.4 127.18 83.58 124.19 78.4 130.17 78.4"/><line class="cls-35" x1="140.93" y1="83.58" x2="140.93" y2="82.83"/><line class="cls-37" x1="140.93" y1="80.4" x2="140.93" y2="73.85"/><line class="cls-35" x1="140.93" y1="72.63" x2="140.93" y2="71.88"/><polygon class="cls-36" points="143.93 72.76 140.93 67.58 137.94 72.76 143.93 72.76"/><line class="cls-35" x1="134.06" y1="135" x2="134.06" y2="19.86"/><rect class="cls-1" x="122.83" width="23.5" height="20.86"/><rect class="cls-38" x="122.83" width="23.5" height="20.86"/><rect class="cls-1" x="190.03" y="53.97" width="70" height="10"/><rect class="cls-39" x="190.03" y="53.97" width="70" height="10"/><g id="ad94e297-0e86-4eaf-aac0-d146ee9aea65"><path class="cls-40" d="M221,54.32l-4.68-4.84a2.29,2.29,0,0,1-.78.14,2.43,2.43,0,1,1,2.24-3.33h4.62v1.62h-4.55a3.68,3.68,0,0,1-.26.57l4.33,4.46,2.34-3.56V38.19h-3.15l4-4,3.94,4H225.9v8.74l5.92-9-6-6a1,1,0,0,0-1.41-.06l-.06.06h0l-14.5,14.43a1,1,0,0,0,0,1.41l0,0h0l14.47,14.47-5.17-5.16Z"/><path class="cls-41" d="M224.22,54.53V49.36l-2.34,3.58,1.72,1.85A1.61,1.61,0,0,1,224.22,54.53Z"/><path class="cls-41" d="M240.24,46.36l-8.48-8.48-5.92,9v7.61a1.86,1.86,0,0,1,.53.3l6.22-6.29a2.91,2.91,0,0,1-.31-.64h-4.67V46.29h4.74a2.42,2.42,0,1,1,2.24,3.33,2.54,2.54,0,0,1-.67-.11l-6.62,6.67a2.6,2.6,0,0,1,.11.62,2.43,2.43,0,0,1-4.86.19h0a2.3,2.3,0,0,1,.14-.9L221,54.37l-1.84,2.76,5.17,5.17a1,1,0,0,0,1.41,0l0,0,14.48-14.48a1,1,0,0,0,.05-1.41s0,0-.05,0Z"/><path class="cls-42" d="M232.35,46.29h-4.74v1.62h4.67a2.53,2.53,0,0,1-.12-.72A2.3,2.3,0,0,1,232.35,46.29Z"/><path class="cls-42" d="M217.81,47.91h4.55V46.29h-4.62a2.3,2.3,0,0,1,.19.9A2.22,2.22,0,0,1,217.81,47.91Z"/><path class="cls-42" d="M227.3,56.18l6.62-6.67a2.43,2.43,0,0,1-1.33-1l-6.22,6.29A2.21,2.21,0,0,1,227.3,56.18Z"/><path class="cls-42" d="M223.65,54.79l-1.72-1.85-4.38-4.46a2.46,2.46,0,0,1-1.27,1L221,54.32,222.69,56A2.3,2.3,0,0,1,223.65,54.79Z"/><path class="cls-1" d="M229,38.19l-3.92-4-4,4h3.15V54.53a1.35,1.35,0,0,0-.57.26,2.28,2.28,0,0,0-1,1.3,2.41,2.41,0,0,0,4.57,1.54c0-.05,0-.09,0-.14a2.31,2.31,0,0,0,.11-.69,2.6,2.6,0,0,0-.11-.62,2.21,2.21,0,0,0-.93-1.34,1.86,1.86,0,0,0-.53-.3V38.19Zm-3.92,20a1.34,1.34,0,1,1,1.34-1.34h0a1.34,1.34,0,0,1-1.37,1.29Z"/><path class="cls-1" d="M217.55,48.48a3.68,3.68,0,0,0,.26-.57,2.22,2.22,0,0,0,.12-.72,2.3,2.3,0,0,0-.19-.9,2.41,2.41,0,1,0-2.24,3.33,2.29,2.29,0,0,0,.78-.14A2.46,2.46,0,0,0,217.55,48.48Zm-2.05,0a1.35,1.35,0,1,1,1.34-1.36v0h0a1.33,1.33,0,0,1-1.27,1.39h-.07Z"/><path class="cls-1" d="M233.92,49.51a2.54,2.54,0,0,0,.67.11,2.43,2.43,0,1,0-2.24-3.33,2.3,2.3,0,0,0-.19.9,2.53,2.53,0,0,0,.12.72,2.91,2.91,0,0,0,.31.64A2.48,2.48,0,0,0,233.92,49.51Zm.67-3.65a1.35,1.35,0,1,1-.3,0Z"/><path class="cls-43" d="M225.05,55.46a1.34,1.34,0,1,0,1.34,1.34h0A1.34,1.34,0,0,0,225.05,55.46Z"/><circle class="cls-43" cx="215.5" cy="47.19" r="1.34"/><path class="cls-43" d="M234.59,48.53a1.35,1.35,0,1,0-1.34-1.36v0h0A1.34,1.34,0,0,0,234.59,48.53Z"/></g></g></g><g id="Text"><path class="cls-44" d="M129.54,164.8l-3.13,8.54h-1.09l-3-8.54h1.1l2.33,6.77a3.72,3.72,0,0,1,.17.76h0a3.59,3.59,0,0,1,.19-.77l2.38-6.76Z"/><path class="cls-44" d="M139.31,173.34h-1v-5.73c0-.45,0-1,.08-1.66h0a5.22,5.22,0,0,1-.26.83l-2.88,6.56h-.48l-2.88-6.51a5.68,5.68,0,0,1-.25-.88h0c0,.34,0,.9,0,1.68v5.71h-.95V164.8H132l2.59,6a7.51,7.51,0,0,1,.38,1h0c.17-.47.3-.82.4-1.05l2.65-5.93h1.23Z"/><path class="cls-44" d="M174.54,164.8l-3.13,8.54h-1.09l-3-8.54h1.1l2.33,6.77a3.72,3.72,0,0,1,.17.76h0a3.59,3.59,0,0,1,.19-.77l2.38-6.76Z"/><path class="cls-44" d="M184.31,173.34h-1v-5.73c0-.45,0-1,.08-1.66h0a5.22,5.22,0,0,1-.26.83l-2.88,6.56h-.48l-2.88-6.51a5.68,5.68,0,0,1-.25-.88h0c0,.34,0,.9,0,1.68v5.71h-.95V164.8H177l2.59,6a9.21,9.21,0,0,1,.38,1h0c.17-.47.3-.82.4-1.05l2.65-5.93h1.23Z"/><path class="cls-44" d="M250.64,157.22l-3.12,8.54h-1.09l-3.06-8.54h1.1l2.34,6.77a4.77,4.77,0,0,1,.17.76h0a4.31,4.31,0,0,1,.19-.77l2.39-6.76Z"/><path class="cls-44" d="M260.42,165.76h-1V160c0-.45,0-1,.09-1.66h0a5.46,5.46,0,0,1-.25.83l-2.88,6.56h-.48L253,159.25a4.74,4.74,0,0,1-.25-.88h0c0,.35.05.9.05,1.68v5.71h-1v-8.54h1.3l2.59,6a8.52,8.52,0,0,1,.39,1h0c.17-.47.31-.81.41-1l2.64-5.93h1.24Z"/><path class="cls-44" d="M286.78,157.41,283.66,166h-1.09l-3.06-8.54h1.1l2.34,6.77a4.53,4.53,0,0,1,.17.76h0a3.66,3.66,0,0,1,.2-.77l2.38-6.76Z"/><path class="cls-44" d="M296.56,166h-1v-5.73c0-.45,0-1,.08-1.66h0a4.5,4.5,0,0,1-.25.83L292.5,166H292l-2.88-6.51a4.74,4.74,0,0,1-.25-.88h0c0,.34,0,.9,0,1.68V166h-1v-8.54h1.3l2.59,6a7.91,7.91,0,0,1,.39,1h0c.16-.47.3-.82.4-1l2.64-5.93h1.24Z"/><path class="cls-44" d="M298.34,165.61v-1.18a2.86,2.86,0,0,0,.48.32,3.32,3.32,0,0,0,.59.24,3.72,3.72,0,0,0,.62.15,3.09,3.09,0,0,0,.58.06,2.21,2.21,0,0,0,1.36-.35,1.14,1.14,0,0,0,.45-1,1.16,1.16,0,0,0-.15-.6,1.8,1.8,0,0,0-.41-.47,4.58,4.58,0,0,0-.63-.41l-.78-.4c-.29-.15-.57-.31-.82-.46A4.06,4.06,0,0,1,299,161a2.15,2.15,0,0,1-.44-.64,2.19,2.19,0,0,1,.09-1.84,2.28,2.28,0,0,1,.66-.72,3.19,3.19,0,0,1,.94-.41,4.32,4.32,0,0,1,1.08-.14,4.08,4.08,0,0,1,1.81.3v1.13a3.24,3.24,0,0,0-1.91-.52,3.49,3.49,0,0,0-.65.06,1.76,1.76,0,0,0-.58.23,1.21,1.21,0,0,0-.41.4,1,1,0,0,0-.16.59,1.26,1.26,0,0,0,.12.57,1.31,1.31,0,0,0,.36.43,3.32,3.32,0,0,0,.57.38l.78.41c.3.15.59.31.86.47a4.08,4.08,0,0,1,.71.56,2.4,2.4,0,0,1,.49.67,1.93,1.93,0,0,1,.18.85,2.23,2.23,0,0,1-.25,1.07,2,2,0,0,1-.66.71,2.8,2.8,0,0,1-.95.39,5.24,5.24,0,0,1-1.14.13c-.14,0-.3,0-.5,0l-.6-.09a4.91,4.91,0,0,1-.58-.16A2,2,0,0,1,298.34,165.61Z"/><path class="cls-44" d="M304.71,165.61v-1.18a2.23,2.23,0,0,0,.48.32,2.81,2.81,0,0,0,.59.24,3.3,3.3,0,0,0,.62.15,3,3,0,0,0,.57.06,2.21,2.21,0,0,0,1.36-.35,1.14,1.14,0,0,0,.45-1,1.16,1.16,0,0,0-.15-.6,1.63,1.63,0,0,0-.41-.47,4.58,4.58,0,0,0-.63-.41l-.78-.4c-.29-.15-.56-.31-.82-.46a4,4,0,0,1-.66-.51,2.18,2.18,0,0,1-.45-.64,2.19,2.19,0,0,1,.09-1.84,2.2,2.2,0,0,1,.67-.72,3,3,0,0,1,.94-.41,4.24,4.24,0,0,1,1.07-.14,4.13,4.13,0,0,1,1.82.3v1.13a3.27,3.27,0,0,0-1.92-.52,3.57,3.57,0,0,0-.65.06,1.71,1.71,0,0,0-.57.23,1.24,1.24,0,0,0-.42.4,1.1,1.1,0,0,0-.16.59,1.14,1.14,0,0,0,.13.57,1.28,1.28,0,0,0,.35.43,3.76,3.76,0,0,0,.57.38l.78.41c.31.15.59.31.86.47a4.08,4.08,0,0,1,.71.56,2.4,2.4,0,0,1,.49.67,1.93,1.93,0,0,1,.18.85,2,2,0,0,1-.9,1.78,2.94,2.94,0,0,1-1,.39,5.24,5.24,0,0,1-1.14.13c-.13,0-.3,0-.49,0l-.6-.09a4.43,4.43,0,0,1-.58-.16A1.83,1.83,0,0,1,304.71,165.61Z"/><path class="cls-44" d="M259.38,10.91v3.17h-1V5.68h2.31a3,3,0,0,1,2.09.66,2.34,2.34,0,0,1,.74,1.85,2.58,2.58,0,0,1-.82,2,3.19,3.19,0,0,1-2.23.76Zm0-4.34V10h1A2.3,2.3,0,0,0,262,9.55a1.64,1.64,0,0,0,.54-1.31c0-1.11-.66-1.67-2-1.67Z"/><path class="cls-44" d="M268.11,9.06a1.18,1.18,0,0,0-.73-.2,1.22,1.22,0,0,0-1,.58,2.67,2.67,0,0,0-.42,1.58v3.06h-1v-6h1V9.32h0a2.08,2.08,0,0,1,.62-1,1.49,1.49,0,0,1,1-.35,1.44,1.44,0,0,1,.57.08Z"/><path class="cls-44" d="M274,11.32h-4.24a2.28,2.28,0,0,0,.54,1.55,1.87,1.87,0,0,0,1.42.54,3,3,0,0,0,1.86-.66v.9a3.5,3.5,0,0,1-2.09.57,2.56,2.56,0,0,1-2-.81,3.39,3.39,0,0,1-.73-2.3,3.29,3.29,0,0,1,.8-2.29,2.56,2.56,0,0,1,2-.88,2.28,2.28,0,0,1,1.82.76,3.2,3.2,0,0,1,.65,2.12Zm-1-.81a2,2,0,0,0-.4-1.3,1.39,1.39,0,0,0-1.1-.46,1.52,1.52,0,0,0-1.15.49,2.22,2.22,0,0,0-.59,1.27Z"/><path class="cls-44" d="M278.39,6a1.3,1.3,0,0,0-.63-.15c-.68,0-1,.42-1,1.27v.92h1.4V8.9h-1.4v5.18h-1V8.9h-1V8.08h1v-1a2,2,0,0,1,.55-1.49,1.81,1.81,0,0,1,1.36-.55,1.84,1.84,0,0,1,.69.11Z"/><path class="cls-44" d="M279.68,6.56a.6.6,0,0,1-.44-.18.57.57,0,0,1-.18-.44.61.61,0,0,1,.18-.45.6.6,0,0,1,.44-.18.64.64,0,0,1,.45.18.61.61,0,0,1,.18.45.6.6,0,0,1-.18.44A.64.64,0,0,1,279.68,6.56Zm.47,7.52h-1v-6h1Z"/><path class="cls-44" d="M286.47,8.08l-2,3,2,3h-1.12l-1.18-1.94-.26-.46h0l-.28.46-1.2,1.94h-1.11l2.05-2.94-2-3.06h1.12l1.16,2.05.25.47h0l1.5-2.52Z"/><path class="cls-44" d="M290.11,14.22a2.79,2.79,0,0,1-2.13-.84,3.1,3.1,0,0,1-.79-2.23A3.22,3.22,0,0,1,288,8.79a3,3,0,0,1,2.23-.85,2.69,2.69,0,0,1,2.09.83,3.28,3.28,0,0,1,.76,2.29,3.19,3.19,0,0,1-.82,2.3A2.81,2.81,0,0,1,290.11,14.22Zm.07-5.47a1.84,1.84,0,0,0-1.47.63,2.59,2.59,0,0,0-.54,1.74,2.46,2.46,0,0,0,.55,1.68,1.85,1.85,0,0,0,1.46.61,1.75,1.75,0,0,0,1.43-.6,2.63,2.63,0,0,0,.5-1.72,2.68,2.68,0,0,0-.5-1.73A1.73,1.73,0,0,0,290.18,8.75Z"/><path class="cls-44" d="M219.32,10.91v3.17h-1V5.68h2.31a3,3,0,0,1,2.09.66,2.34,2.34,0,0,1,.74,1.85,2.54,2.54,0,0,1-.82,2,3.19,3.19,0,0,1-2.23.76Zm0-4.34V10h1a2.3,2.3,0,0,0,1.55-.47,1.64,1.64,0,0,0,.54-1.31c0-1.11-.66-1.67-2-1.67Z"/><path class="cls-44" d="M226,14.08h-1V5.68h1Z"/><path class="cls-44" d="M229.23,10.91v3.17h-1V5.68h2.3a3,3,0,0,1,2.09.66,2.31,2.31,0,0,1,.74,1.85,2.54,2.54,0,0,1-.82,2,3.18,3.18,0,0,1-2.22.76Zm0-4.34V10h1a2.33,2.33,0,0,0,1.56-.47,1.67,1.67,0,0,0,.53-1.31c0-1.11-.65-1.67-2-1.67Z"/><path class="cls-44" d="M174.35,10.91v3.17h-1V5.68h2.31a3,3,0,0,1,2.09.66,2.34,2.34,0,0,1,.74,1.85,2.54,2.54,0,0,1-.82,2,3.18,3.18,0,0,1-2.22.76Zm0-4.34V10h1a2.28,2.28,0,0,0,1.55-.47,1.64,1.64,0,0,0,.54-1.31c0-1.11-.66-1.67-2-1.67Z"/><path class="cls-44" d="M181.07,14.08h-1V5.68h1Z"/><path class="cls-44" d="M184.26,10.91v3.17h-1V5.68h2.31a3,3,0,0,1,2.08.66,2.31,2.31,0,0,1,.75,1.85,2.55,2.55,0,0,1-.83,2,3.18,3.18,0,0,1-2.22.76Zm0-4.34V10h1a2.33,2.33,0,0,0,1.56-.47,1.63,1.63,0,0,0,.53-1.31c0-1.11-.65-1.67-2-1.67Z"/><path class="cls-44" d="M128.81,10.91v3.17h-1V5.68h2.3a3,3,0,0,1,2.09.66A2.31,2.31,0,0,1,133,8.19a2.54,2.54,0,0,1-.82,2,3.18,3.18,0,0,1-2.22.76Zm0-4.34V10h1a2.33,2.33,0,0,0,1.56-.47,1.67,1.67,0,0,0,.53-1.31c0-1.11-.65-1.67-2-1.67Z"/><path class="cls-44" d="M135.53,14.08h-1V5.68h1Z"/><path class="cls-44" d="M138.72,10.91v3.17h-1V5.68h2.31a3,3,0,0,1,2.09.66,2.34,2.34,0,0,1,.74,1.85,2.58,2.58,0,0,1-.82,2,3.19,3.19,0,0,1-2.23.76Zm0-4.34V10h1a2.3,2.3,0,0,0,1.55-.47,1.64,1.64,0,0,0,.54-1.31c0-1.11-.66-1.67-2-1.67Z"/><path class="cls-45" d="M114.26,14.08h-1V5.68h1Z"/><path class="cls-45" d="M120.83,14.08h-4.36V5.68h1v7.51h3.37Z"/><path class="cls-44" d="M77.65,10.91v3.17h-1V5.68H79a3,3,0,0,1,2.09.66,2.34,2.34,0,0,1,.74,1.85,2.55,2.55,0,0,1-.83,2,3.16,3.16,0,0,1-2.22.76Zm0-4.34V10h1a2.33,2.33,0,0,0,1.56-.47,1.64,1.64,0,0,0,.54-1.31c0-1.11-.66-1.67-2-1.67Z"/><path class="cls-44" d="M84.37,14.08h-1V5.68h1Z"/><path class="cls-44" d="M87.57,10.91v3.17h-1V5.68h2.31A3,3,0,0,1,91,6.34a2.34,2.34,0,0,1,.74,1.85,2.54,2.54,0,0,1-.82,2,3.19,3.19,0,0,1-2.23.76Zm0-4.34V10h1a2.28,2.28,0,0,0,1.55-.47,1.64,1.64,0,0,0,.54-1.31c0-1.11-.66-1.67-2-1.67Z"/><path class="cls-44" d="M7.69,35.88H3.33v-8.4h1V35H7.69Z"/><path class="cls-44" d="M11.36,36a2.77,2.77,0,0,1-2.12-.84A3.11,3.11,0,0,1,8.44,33a3.26,3.26,0,0,1,.83-2.36,3,3,0,0,1,2.23-.85,2.71,2.71,0,0,1,2.1.83,3.27,3.27,0,0,1,.75,2.29,3.23,3.23,0,0,1-.81,2.3A2.83,2.83,0,0,1,11.36,36Zm.07-5.47a1.81,1.81,0,0,0-1.46.63,2.59,2.59,0,0,0-.54,1.74A2.46,2.46,0,0,0,10,34.6a1.85,1.85,0,0,0,1.46.61,1.75,1.75,0,0,0,1.43-.6,2.58,2.58,0,0,0,.5-1.72,2.62,2.62,0,0,0-.5-1.73A1.73,1.73,0,0,0,11.43,30.55Z"/><path class="cls-44" d="M20.18,35.88h-1V35h0A2,2,0,0,1,17.35,36a1.93,1.93,0,0,1-1.4-.47,1.65,1.65,0,0,1-.51-1.26c0-1.12.66-1.77,2-2l1.8-.25c0-1-.41-1.53-1.24-1.53a3,3,0,0,0-2,.74v-1a3.76,3.76,0,0,1,2-.56c1.41,0,2.12.75,2.12,2.24Zm-1-3-1.45.2a2.35,2.35,0,0,0-1,.33,1,1,0,0,0-.34.84.93.93,0,0,0,.32.72,1.22,1.22,0,0,0,.83.27,1.51,1.51,0,0,0,1.18-.5,1.77,1.77,0,0,0,.47-1.26Z"/><path class="cls-44" d="M27.11,35.88h-1v-1h0A2.22,2.22,0,0,1,24.06,36a2.25,2.25,0,0,1-1.8-.8,3.27,3.27,0,0,1-.68-2.2,3.59,3.59,0,0,1,.75-2.38,2.48,2.48,0,0,1,2-.9,2,2,0,0,1,1.8,1h0V27h1Zm-1-2.71v-.89a1.73,1.73,0,0,0-.48-1.23,1.77,1.77,0,0,0-2.6.15A2.77,2.77,0,0,0,22.56,33a2.48,2.48,0,0,0,.49,1.63,1.57,1.57,0,0,0,1.29.6,1.65,1.65,0,0,0,1.31-.58A2.16,2.16,0,0,0,26.15,33.17Z"/><path class="cls-44" d="M32.47,35.88v-8.4h2.39a2.63,2.63,0,0,1,1.73.53,1.72,1.72,0,0,1,.64,1.39,2,2,0,0,1-1.45,2v0a2.13,2.13,0,0,1,1.36.64,2,2,0,0,1,.51,1.41,2.17,2.17,0,0,1-.78,1.74,2.84,2.84,0,0,1-1.95.67Zm1-7.51v2.71h1a1.94,1.94,0,0,0,1.28-.39,1.37,1.37,0,0,0,.46-1.09c0-.82-.54-1.23-1.61-1.23Zm0,3.6v3h1.33a2,2,0,0,0,1.35-.41,1.39,1.39,0,0,0,.47-1.12c0-1-.67-1.49-2-1.49Z"/><path class="cls-44" d="M43.52,35.88h-1V35h0A2,2,0,0,1,40.69,36a2,2,0,0,1-1.41-.47,1.68,1.68,0,0,1-.5-1.26c0-1.12.66-1.77,2-2l1.8-.25c0-1-.42-1.53-1.24-1.53a3,3,0,0,0-2,.74v-1a3.76,3.76,0,0,1,2-.56c1.41,0,2.12.75,2.12,2.24Zm-1-3-1.45.2a2.3,2.3,0,0,0-1,.33,1,1,0,0,0-.34.84,1,1,0,0,0,.31.72,1.25,1.25,0,0,0,.84.27,1.51,1.51,0,0,0,1.18-.5,1.77,1.77,0,0,0,.47-1.26Z"/><path class="cls-44" d="M46.29,35.88h-1V27h1Z"/><path class="cls-44" d="M52.53,35.88h-1V35h0A2,2,0,0,1,49.7,36a2,2,0,0,1-1.41-.47,1.68,1.68,0,0,1-.5-1.26c0-1.12.66-1.77,2-2l1.8-.25c0-1-.41-1.53-1.24-1.53a3,3,0,0,0-2,.74v-1a3.76,3.76,0,0,1,2-.56c1.41,0,2.12.75,2.12,2.24Zm-1-3-1.45.2a2.3,2.3,0,0,0-1,.33,1,1,0,0,0-.34.84.93.93,0,0,0,.32.72,1.2,1.2,0,0,0,.83.27,1.51,1.51,0,0,0,1.18-.5,1.77,1.77,0,0,0,.47-1.26Z"/><path class="cls-44" d="M59.32,35.88h-1V32.46c0-1.27-.47-1.91-1.4-1.91a1.52,1.52,0,0,0-1.19.54,2,2,0,0,0-.47,1.37v3.42h-1v-6h1v1h0a2.17,2.17,0,0,1,2-1.14,1.83,1.83,0,0,1,1.51.64,2.79,2.79,0,0,1,.52,1.83Z"/><path class="cls-44" d="M65.22,35.61a3.19,3.19,0,0,1-1.64.41,2.72,2.72,0,0,1-2.07-.83A3,3,0,0,1,60.72,33a3.3,3.3,0,0,1,.85-2.38,3,3,0,0,1,2.27-.9,3.23,3.23,0,0,1,1.39.29v1a2.45,2.45,0,0,0-1.43-.47,2,2,0,0,0-1.51.66,2.52,2.52,0,0,0-.59,1.73,2.41,2.41,0,0,0,.56,1.67,1.91,1.91,0,0,0,1.48.6,2.39,2.39,0,0,0,1.48-.52Z"/><path class="cls-44" d="M71.5,33.12H67.26a2.19,2.19,0,0,0,.54,1.55,1.85,1.85,0,0,0,1.42.54,3,3,0,0,0,1.86-.66v.9A3.52,3.52,0,0,1,69,36a2.54,2.54,0,0,1-2-.81,3.34,3.34,0,0,1-.73-2.3,3.29,3.29,0,0,1,.8-2.29,2.56,2.56,0,0,1,2-.88,2.28,2.28,0,0,1,1.82.76,3.2,3.2,0,0,1,.65,2.12Zm-1-.81a2,2,0,0,0-.4-1.3,1.36,1.36,0,0,0-1.1-.46,1.52,1.52,0,0,0-1.15.49,2.13,2.13,0,0,0-.59,1.27Z"/><path class="cls-44" d="M76.08,30.86a1.18,1.18,0,0,0-.73-.2,1.25,1.25,0,0,0-1,.58,2.74,2.74,0,0,0-.41,1.58v3.06H73v-6h1v1.24h0a2.17,2.17,0,0,1,.63-1,1.46,1.46,0,0,1,.94-.35,1.52,1.52,0,0,1,.58.08Z"/><path class="cls-44" d="M252.77,49.72h-1.2L247.24,43a2.94,2.94,0,0,1-.27-.53h0a9.28,9.28,0,0,1,0,1.15v6.07h-1v-8.4h1.28l4.2,6.59c.18.28.29.47.34.57h0a8.84,8.84,0,0,1-.06-1.24V41.32h1Z"/><path class="cls-44" d="M261.48,49.72h-1.09l-.89-2.35h-3.56l-.84,2.35H254l3.23-8.4h1Zm-2.3-3.24-1.32-3.58a3.14,3.14,0,0,1-.13-.56h0a3,3,0,0,1-.14.56l-1.31,3.58Z"/><path class="cls-44" d="M266.82,42.21H264.4v7.51h-1V42.21H261v-.89h5.83Z"/><path class="cls-44" d="M143.35,105.67v-1.2a2.62,2.62,0,0,0,.49.33,5.36,5.36,0,0,0,.6.24,4.85,4.85,0,0,0,.63.16,4.27,4.27,0,0,0,.59,0,2.31,2.31,0,0,0,1.39-.35,1.2,1.2,0,0,0,.46-1,1.15,1.15,0,0,0-.16-.62,1.68,1.68,0,0,0-.42-.47,3.55,3.55,0,0,0-.64-.42l-.79-.41c-.3-.16-.58-.31-.84-.47A3.69,3.69,0,0,1,144,101a2.23,2.23,0,0,1-.45-.65,2.19,2.19,0,0,1,.09-1.88,2.16,2.16,0,0,1,.68-.73,3,3,0,0,1,.95-.42,5.12,5.12,0,0,1,2.95.17v1.14a3.37,3.37,0,0,0-1.95-.53,3,3,0,0,0-.66.07,1.82,1.82,0,0,0-.59.23,1.34,1.34,0,0,0-.42.4,1.09,1.09,0,0,0-.16.61,1.31,1.31,0,0,0,.12.58,1.34,1.34,0,0,0,.36.44,3,3,0,0,0,.59.39c.23.13.49.26.79.41s.6.32.88.49a4.17,4.17,0,0,1,.72.56,2.53,2.53,0,0,1,.5.69,2,2,0,0,1,.18.86,2.14,2.14,0,0,1-.25,1.09,2,2,0,0,1-.67.73,2.8,2.8,0,0,1-1,.4,4.94,4.94,0,0,1-1.17.13,3.41,3.41,0,0,1-.5,0l-.61-.09c-.21-.05-.41-.1-.59-.16A1.58,1.58,0,0,1,143.35,105.67Z"/><path class="cls-44" d="M155.08,106h-1v-1h0a2,2,0,0,1-1.9,1.13c-1.46,0-2.19-.89-2.19-2.65V99.8h1v3.56c0,1.31.49,2,1.48,2a1.5,1.5,0,0,0,1.19-.54,2.06,2.06,0,0,0,.46-1.4V99.8h1Z"/><path class="cls-44" d="M158,105.12h0v.9h-1v-9.2h1v4.08h0a2.32,2.32,0,0,1,2.13-1.24,2.27,2.27,0,0,1,1.85.83,3.54,3.54,0,0,1,.67,2.24,3.9,3.9,0,0,1-.75,2.5,2.51,2.51,0,0,1-2.06.94A2,2,0,0,1,158,105.12Zm0-2.5v.86a1.85,1.85,0,0,0,.49,1.31,1.75,1.75,0,0,0,2.66-.15,3.21,3.21,0,0,0,.51-1.93,2.53,2.53,0,0,0-.48-1.63,1.55,1.55,0,0,0-1.28-.58,1.75,1.75,0,0,0-1.38.6A2.23,2.23,0,0,0,158,102.62Z"/><path class="cls-44" d="M167.35,103h-3.27v-.78h3.27Z"/><path class="cls-44" d="M172.29,100.81a1.21,1.21,0,0,0-.74-.2,1.27,1.27,0,0,0-1.06.6,2.82,2.82,0,0,0-.42,1.64V106h-1V99.8h1v1.28h0a2.22,2.22,0,0,1,.65-1,1.46,1.46,0,0,1,1-.37,1.52,1.52,0,0,1,.59.09Z"/><path class="cls-44" d="M178.26,103.16h-4.34a2.36,2.36,0,0,0,.55,1.6,1.88,1.88,0,0,0,1.45.57,3,3,0,0,0,1.91-.69v.93a3.5,3.5,0,0,1-2.14.6,2.58,2.58,0,0,1-2.05-.85,3.51,3.51,0,0,1-.74-2.38,3.44,3.44,0,0,1,.81-2.37,2.61,2.61,0,0,1,2-.91,2.29,2.29,0,0,1,1.87.79,3.29,3.29,0,0,1,.66,2.19Zm-1-.84a2.05,2.05,0,0,0-.41-1.35,1.43,1.43,0,0,0-1.13-.47,1.57,1.57,0,0,0-1.18.5,2.35,2.35,0,0,0-.6,1.32Z"/><path class="cls-44" d="M185,106h-1v-1h0a2.46,2.46,0,0,1-4,.36,3.44,3.44,0,0,1-.69-2.27,3.71,3.71,0,0,1,.77-2.47,2.51,2.51,0,0,1,2-.93,1.94,1.94,0,0,1,1.84,1h0V96.82h1Zm-1-2.81v-.92a1.82,1.82,0,0,0-.49-1.27,1.65,1.65,0,0,0-1.25-.52,1.71,1.71,0,0,0-1.42.66,3,3,0,0,0-.51,1.85,2.67,2.67,0,0,0,.49,1.7,1.62,1.62,0,0,0,1.33.62,1.69,1.69,0,0,0,1.34-.6A2.27,2.27,0,0,0,184,103.21Z"/><path class="cls-44" d="M191.84,103.16h-4.33a2.31,2.31,0,0,0,.55,1.6,1.87,1.87,0,0,0,1.45.57,3,3,0,0,0,1.91-.69v.93a3.52,3.52,0,0,1-2.14.6,2.58,2.58,0,0,1-2.05-.85,4,4,0,0,1,.07-4.75,2.58,2.58,0,0,1,2-.91,2.28,2.28,0,0,1,1.86.79,3.29,3.29,0,0,1,.66,2.19Zm-1-.84a2.05,2.05,0,0,0-.41-1.35,1.41,1.41,0,0,0-1.12-.47,1.56,1.56,0,0,0-1.18.5,2.22,2.22,0,0,0-.6,1.32Z"/><path class="cls-44" d="M203.41,106H202.3l-.91-2.44h-3.65l-.86,2.44h-1.12l3.3-8.71h1Zm-2.35-3.36L199.71,99a3.27,3.27,0,0,1-.14-.58h0a3.29,3.29,0,0,1-.14.58l-1.34,3.71Z"/><path class="cls-44" d="M245.23,105.47v-1.16a1.89,1.89,0,0,0,.48.31,3,3,0,0,0,.58.24c.21.06.41.11.62.15a4.13,4.13,0,0,0,.57,0,2.29,2.29,0,0,0,1.36-.33,1.15,1.15,0,0,0,.45-1,1.13,1.13,0,0,0-.15-.59,1.64,1.64,0,0,0-.42-.46,3.91,3.91,0,0,0-.62-.4l-.78-.4-.82-.45a3.81,3.81,0,0,1-.66-.5,2.06,2.06,0,0,1-.44-.62,1.91,1.91,0,0,1-.16-.82,1.87,1.87,0,0,1,.25-1,2.11,2.11,0,0,1,.66-.7,3,3,0,0,1,.94-.41,4.24,4.24,0,0,1,1.07-.14,4,4,0,0,1,1.8.3v1.11a3.21,3.21,0,0,0-1.9-.52,2.88,2.88,0,0,0-.65.07,1.78,1.78,0,0,0-.57.22,1.18,1.18,0,0,0-.41.39,1,1,0,0,0-.16.58,1.22,1.22,0,0,0,.12.56,1.41,1.41,0,0,0,.35.43,4.18,4.18,0,0,0,.58.37l.77.4c.3.15.59.3.86.47a3.51,3.51,0,0,1,.7.54,2.36,2.36,0,0,1,.49.66,1.84,1.84,0,0,1,.18.83,2,2,0,0,1-.25,1,2.07,2.07,0,0,1-.65.7,2.87,2.87,0,0,1-.95.38,5.24,5.24,0,0,1-1.14.12l-.49,0q-.3,0-.6-.09a5.47,5.47,0,0,1-.58-.15A1.93,1.93,0,0,1,245.23,105.47Z"/><path class="cls-44" d="M256.68,105.8h-1v-.94h0a2,2,0,0,1-1.85,1.08c-1.43,0-2.14-.84-2.14-2.54V99.82h1v3.42c0,1.27.49,1.9,1.45,1.9a1.46,1.46,0,0,0,1.16-.52,2,2,0,0,0,.46-1.35V99.82h1Z"/><path class="cls-44" d="M259.56,104.94h0v.86h-1V96.94h1v3.93h0a2.3,2.3,0,0,1,2.08-1.19,2.19,2.19,0,0,1,1.8.8,3.32,3.32,0,0,1,.66,2.16,3.68,3.68,0,0,1-.74,2.4,2.42,2.42,0,0,1-2,.9A2,2,0,0,1,259.56,104.94Zm0-2.41v.83a1.77,1.77,0,0,0,.48,1.26,1.59,1.59,0,0,0,1.23.52,1.6,1.6,0,0,0,1.37-.67,3,3,0,0,0,.49-1.85,2.41,2.41,0,0,0-.46-1.57,1.56,1.56,0,0,0-1.25-.56,1.7,1.7,0,0,0-1.35.58A2.13,2.13,0,0,0,259.54,102.53Z"/><path class="cls-44" d="M268.66,102.85h-3.19v-.76h3.19Z"/><path class="cls-44" d="M273.48,100.79a1.16,1.16,0,0,0-.72-.19,1.21,1.21,0,0,0-1,.58,2.61,2.61,0,0,0-.41,1.57v3h-1v-6h1v1.23h0a2,2,0,0,1,.63-1,1.54,1.54,0,0,1,1.51-.27Z"/><path class="cls-44" d="M279.31,103.05h-4.24a2.26,2.26,0,0,0,.54,1.54,1.85,1.85,0,0,0,1.42.55,2.89,2.89,0,0,0,1.86-.67v.9a3.47,3.47,0,0,1-2.09.57,2.57,2.57,0,0,1-2-.81,3.34,3.34,0,0,1-.72-2.29,3.26,3.26,0,0,1,.79-2.28,2.54,2.54,0,0,1,2-.88,2.22,2.22,0,0,1,1.82.76,3.17,3.17,0,0,1,.65,2.11Zm-1-.81a2,2,0,0,0-.41-1.29,1.35,1.35,0,0,0-1.09-.46,1.57,1.57,0,0,0-1.16.48,2.21,2.21,0,0,0-.58,1.27Z"/><path class="cls-44" d="M285.84,105.8h-1v-1h0a2.43,2.43,0,0,1-3.87.35,3.28,3.28,0,0,1-.67-2.19,3.64,3.64,0,0,1,.74-2.38,2.5,2.5,0,0,1,2-.89,1.91,1.91,0,0,1,1.8,1h0V96.94h1Zm-1-2.7v-.88a1.7,1.7,0,0,0-.48-1.23,1.58,1.58,0,0,0-1.22-.5,1.66,1.66,0,0,0-1.38.64,2.85,2.85,0,0,0-.5,1.78,2.53,2.53,0,0,0,.48,1.63,1.59,1.59,0,0,0,1.3.6,1.63,1.63,0,0,0,1.3-.58A2.12,2.12,0,0,0,284.88,103.1Z"/><path class="cls-44" d="M292.57,103.05h-4.23a2.16,2.16,0,0,0,.54,1.54,1.82,1.82,0,0,0,1.41.55,2.94,2.94,0,0,0,1.87-.67v.9a3.53,3.53,0,0,1-2.1.57,2.53,2.53,0,0,1-2-.81,3.82,3.82,0,0,1,.06-4.57,2.55,2.55,0,0,1,2-.88,2.25,2.25,0,0,1,1.82.76,3.17,3.17,0,0,1,.64,2.11Zm-1-.81a2,2,0,0,0-.4-1.29,1.37,1.37,0,0,0-1.1-.46,1.59,1.59,0,0,0-1.16.48,2.21,2.21,0,0,0-.58,1.27Z"/><path class="cls-44" d="M297.37,105.8V97.42h2.39a2.57,2.57,0,0,1,1.72.54,1.69,1.69,0,0,1,.64,1.38,2.07,2.07,0,0,1-.38,1.24,2.14,2.14,0,0,1-1.07.75v0A2.15,2.15,0,0,1,302,102a2,2,0,0,1,.51,1.41,2.2,2.2,0,0,1-.78,1.74,2.88,2.88,0,0,1-1.95.66Zm1-7.49V101h1a1.91,1.91,0,0,0,1.27-.39,1.34,1.34,0,0,0,.46-1.1c0-.81-.54-1.22-1.61-1.22Zm0,3.59v3h1.34a2,2,0,0,0,1.34-.41,1.42,1.42,0,0,0,.48-1.13c0-1-.68-1.48-2-1.48Z"/><path class="cls-44" d="M68.29,214l-3.12,8.53H64.08L61,214h1.1l2.34,6.77a4.4,4.4,0,0,1,.17.75h0a4.31,4.31,0,0,1,.19-.77L67.23,214Z"/><path class="cls-44" d="M69.87,214.87a.6.6,0,0,1-.44-.18.62.62,0,0,1-.19-.45.63.63,0,0,1,.19-.46.6.6,0,0,1,.44-.18.64.64,0,0,1,.45.18.62.62,0,0,1,.18.46.6.6,0,0,1-.18.44A.61.61,0,0,1,69.87,214.87Zm.47,7.64h-1v-6.09h1Z"/><path class="cls-44" d="M75.43,217.41a1.11,1.11,0,0,0-.73-.2,1.24,1.24,0,0,0-1,.59,2.72,2.72,0,0,0-.41,1.61v3.1h-1v-6.09h1v1.25h0a2.15,2.15,0,0,1,.63-1,1.42,1.42,0,0,1,.94-.36,1.67,1.67,0,0,1,.58.08Z"/><path class="cls-44" d="M79.27,222.45a1.82,1.82,0,0,1-.9.19c-1.05,0-1.58-.59-1.58-1.78v-3.61h-1v-.83h1v-1.49l1-.32v1.81h1.52v.83H77.75v3.44a1.39,1.39,0,0,0,.21.87.81.81,0,0,0,.68.26,1,1,0,0,0,.63-.2Z"/><path class="cls-44" d="M85.43,222.51h-1v-1h0a2,2,0,0,1-1.86,1.11c-1.43,0-2.15-.87-2.15-2.6v-3.64h1v3.49c0,1.28.49,1.93,1.46,1.93a1.47,1.47,0,0,0,1.16-.53,2.05,2.05,0,0,0,.46-1.38v-3.51h1Z"/><path class="cls-44" d="M91.69,222.51h-1v-.95h0a2,2,0,0,1-1.85,1.1,1.94,1.94,0,0,1-1.41-.49,1.66,1.66,0,0,1-.51-1.28c0-1.13.66-1.8,2-2l1.8-.26c0-1-.41-1.55-1.24-1.55a2.94,2.94,0,0,0-2,.75v-1a3.61,3.61,0,0,1,2-.58q2.13,0,2.13,2.28Zm-1-3.08-1.45.2a2.43,2.43,0,0,0-1,.34,1,1,0,0,0-.34.85.93.93,0,0,0,.31.73,1.21,1.21,0,0,0,.84.29,1.56,1.56,0,0,0,1.19-.51,1.84,1.84,0,0,0,.46-1.29Z"/><path class="cls-44" d="M94,214.87a.6.6,0,0,1-.44-.18.61.61,0,0,1-.18-.45.62.62,0,0,1,.18-.46.6.6,0,0,1,.44-.18.61.61,0,0,1,.45.18.62.62,0,0,1,.18.46.6.6,0,0,1-.18.44A.58.58,0,0,1,94,214.87Zm.47,7.64h-1v-6.09h1Z"/><path class="cls-44" d="M96.06,222.29v-1a2.83,2.83,0,0,0,1.73.59c.85,0,1.27-.29,1.27-.86a.71.71,0,0,0-.11-.42,1.17,1.17,0,0,0-.29-.3,2.86,2.86,0,0,0-.43-.23l-.54-.22c-.27-.11-.5-.21-.71-.32a2.24,2.24,0,0,1-.5-.37,1.42,1.42,0,0,1-.31-.47,1.66,1.66,0,0,1-.1-.61,1.45,1.45,0,0,1,.19-.76,1.85,1.85,0,0,1,.52-.56,2.26,2.26,0,0,1,.74-.33,3.08,3.08,0,0,1,.86-.12,3.41,3.41,0,0,1,1.39.28v1a2.63,2.63,0,0,0-1.52-.44,1.83,1.83,0,0,0-.49.06,1.33,1.33,0,0,0-.38.17,1,1,0,0,0-.24.27.85.85,0,0,0-.08.35,1,1,0,0,0,.08.4,1,1,0,0,0,.25.29,1.89,1.89,0,0,0,.4.22c.16.07.34.15.54.22s.5.21.72.32a2.84,2.84,0,0,1,.54.37,1.45,1.45,0,0,1,.34.48,1.51,1.51,0,0,1,.12.63,1.45,1.45,0,0,1-.2.79,1.61,1.61,0,0,1-.52.55,2.28,2.28,0,0,1-.76.33,3.82,3.82,0,0,1-.9.11A3.27,3.27,0,0,1,96.06,222.29Z"/><path class="cls-44" d="M68.07,235.71H66.89l-1.41-2.39a4.69,4.69,0,0,0-.38-.57,2.23,2.23,0,0,0-.37-.38,1.36,1.36,0,0,0-.41-.22,1.55,1.55,0,0,0-.5-.07H63v3.63H62v-8.53h2.52a3.31,3.31,0,0,1,1,.14,2.23,2.23,0,0,1,.81.42,2,2,0,0,1,.54.71,2.69,2.69,0,0,1,.06,1.82,2,2,0,0,1-.38.66,2.16,2.16,0,0,1-.58.5,3,3,0,0,1-.78.32v0a2.13,2.13,0,0,1,.37.22,2.69,2.69,0,0,1,.3.29c.09.11.18.24.28.38l.31.49ZM63,228.08v3.1h1.34a1.92,1.92,0,0,0,.69-.12,1.46,1.46,0,0,0,.54-.32,1.51,1.51,0,0,0,.36-.52,1.84,1.84,0,0,0,.13-.69,1.34,1.34,0,0,0-.44-1.06,1.84,1.84,0,0,0-1.27-.39Z"/><path class="cls-44" d="M73.58,232.91H69.33a2.34,2.34,0,0,0,.54,1.57,1.87,1.87,0,0,0,1.43.56,3,3,0,0,0,1.87-.68v.91a3.46,3.46,0,0,1-2.1.59,2.56,2.56,0,0,1-2-.83,3.49,3.49,0,0,1-.73-2.34,3.37,3.37,0,0,1,.8-2.32,2.53,2.53,0,0,1,2-.9,2.24,2.24,0,0,1,1.83.78,3.25,3.25,0,0,1,.64,2.15Zm-1-.83a2,2,0,0,0-.41-1.31,1.33,1.33,0,0,0-1.1-.47,1.56,1.56,0,0,0-1.16.49,2.28,2.28,0,0,0-.59,1.29Z"/><path class="cls-44" d="M80.18,235.71h-1v-1h0a2.42,2.42,0,0,1-3.89.36,3.41,3.41,0,0,1-.68-2.23,3.67,3.67,0,0,1,.75-2.42,2.5,2.5,0,0,1,2-.92,1.93,1.93,0,0,1,1.81,1h0v-3.77h1Zm-1-2.75v-.9a1.76,1.76,0,0,0-.48-1.25,1.61,1.61,0,0,0-1.23-.51,1.63,1.63,0,0,0-1.38.65,2.88,2.88,0,0,0-.51,1.81,2.59,2.59,0,0,0,.49,1.67,1.58,1.58,0,0,0,1.3.61,1.65,1.65,0,0,0,1.31-.59A2.25,2.25,0,0,0,79.22,233Z"/><path class="cls-44" d="M87,232.91H82.73a2.24,2.24,0,0,0,.54,1.57,1.84,1.84,0,0,0,1.42.56,3,3,0,0,0,1.87-.68v.91a3.46,3.46,0,0,1-2.1.59,2.56,2.56,0,0,1-2-.83,3.48,3.48,0,0,1-.72-2.34,3.37,3.37,0,0,1,.79-2.32,2.53,2.53,0,0,1,2-.9,2.24,2.24,0,0,1,1.83.78A3.25,3.25,0,0,1,87,232.4Zm-1-.83a2,2,0,0,0-.4-1.31,1.37,1.37,0,0,0-1.11-.47,1.52,1.52,0,0,0-1.15.49,2.21,2.21,0,0,0-.59,1.29Z"/><path class="cls-44" d="M206.3,216.52a15.59,15.59,0,0,1,2.31-.17A4.83,4.83,0,0,1,212,217.4a3.86,3.86,0,0,1,1.18,3,4.43,4.43,0,0,1-1.21,3.27,5.18,5.18,0,0,1-3.72,1.22,18.2,18.2,0,0,1-2-.1Zm1.09,7.45a6.83,6.83,0,0,0,1.1.06,3.24,3.24,0,0,0,3.59-3.57c0-2-1.12-3.25-3.42-3.25a6.38,6.38,0,0,0-1.27.11Z"/><path class="cls-44" d="M215.81,217.08a.65.65,0,0,1-.7.68.66.66,0,0,1-.66-.68.67.67,0,0,1,.69-.68A.65.65,0,0,1,215.81,217.08Zm-1.22,7.75v-6.05h1.1v6.05Z"/><path class="cls-44" d="M217.51,220.67c0-.71,0-1.32,0-1.89h1l0,1.19h0a1.82,1.82,0,0,1,1.68-1.32,1.48,1.48,0,0,1,.31,0v1a1.35,1.35,0,0,0-.37,0,1.55,1.55,0,0,0-1.48,1.42,3.52,3.52,0,0,0-.05.51v3.22h-1.09Z"/><path class="cls-44" d="M222.09,222a1.94,1.94,0,0,0,2.07,2.1,3.89,3.89,0,0,0,1.68-.32l.19.79a4.79,4.79,0,0,1-2,.39,2.82,2.82,0,0,1-3-3.06c0-1.83,1.07-3.26,2.84-3.26a2.56,2.56,0,0,1,2.5,2.84,4.81,4.81,0,0,1,0,.52Zm3.22-.79a1.56,1.56,0,0,0-1.52-1.79,1.83,1.83,0,0,0-1.69,1.79Z"/><path class="cls-44" d="M232.06,224.61a4,4,0,0,1-1.58.35l-.32.5a1,1,0,0,1,.88.91c0,.75-.63,1-1.3,1a1.88,1.88,0,0,1-.88-.22l.19-.56a1.41,1.41,0,0,0,.69.16c.29,0,.54-.08.54-.38s-.39-.47-1-.53l.53-1a2.86,2.86,0,0,1-2.53-3,3.08,3.08,0,0,1,3.25-3.21,3.71,3.71,0,0,1,1.53.31l-.25.85a2.59,2.59,0,0,0-1.28-.29,2.1,2.1,0,0,0-2.14,2.29,2.07,2.07,0,0,0,2.1,2.26,3,3,0,0,0,1.35-.3Z"/><path class="cls-44" d="M237.58,223.38a9.08,9.08,0,0,0,.09,1.45h-1l-.09-.76h0a2.27,2.27,0,0,1-1.85.9,1.73,1.73,0,0,1-1.85-1.74c0-1.46,1.3-2.26,3.64-2.25v-.12a1.25,1.25,0,0,0-1.38-1.4,3,3,0,0,0-1.57.45l-.25-.73a3.79,3.79,0,0,1,2-.53c1.85,0,2.3,1.26,2.3,2.47Zm-3.73-5.63c0-.82.31-1.3.85-1.3a1.56,1.56,0,0,1,.78.27,1.26,1.26,0,0,0,.52.21c.2,0,.33-.11.35-.53h.59c0,.83-.28,1.26-.86,1.26a1.66,1.66,0,0,1-.77-.25,1.11,1.11,0,0,0-.53-.23c-.2,0-.3.22-.33.57Zm2.66,4c-1.2,0-2.56.19-2.56,1.37a1,1,0,0,0,1,1,1.49,1.49,0,0,0,1.46-1,1,1,0,0,0,.06-.35Z"/><path class="cls-44" d="M244.83,221.76a3,3,0,0,1-3,3.21,2.88,2.88,0,0,1-2.9-3.11,3,3,0,0,1,3-3.21A2.87,2.87,0,0,1,244.83,221.76Zm-4.8.06c0,1.32.76,2.32,1.83,2.32s1.84-1,1.84-2.35c0-1-.51-2.32-1.81-2.32S240,220.67,240,221.82Z"/><path class="cls-44" d="M254.09,216v7.31c0,.54,0,1.15,0,1.56h-1l-.05-1.05h0A2.24,2.24,0,0,1,251,225c-1.46,0-2.58-1.24-2.58-3.08,0-2,1.23-3.24,2.71-3.24a2,2,0,0,1,1.82.92h0V216Zm-1.1,5.28a2.49,2.49,0,0,0-.05-.46,1.62,1.62,0,0,0-1.59-1.27c-1.14,0-1.81,1-1.81,2.34s.6,2.23,1.79,2.23a1.66,1.66,0,0,0,1.61-1.31,2.36,2.36,0,0,0,.05-.48Z"/><path class="cls-44" d="M261.39,221.76a3,3,0,0,1-3,3.21,2.87,2.87,0,0,1-2.9-3.11,3,3,0,0,1,3-3.21A2.87,2.87,0,0,1,261.39,221.76Zm-4.8.06c0,1.32.76,2.32,1.83,2.32s1.84-1,1.84-2.35c0-1-.51-2.32-1.81-2.32S256.59,220.67,256.59,221.82Z"/><path class="cls-44" d="M265.54,224.83v-5.21h-.85v-.84h.85v-.26a2.74,2.74,0,0,1,.85-2.09,2.86,2.86,0,0,1,1.93-.61,3.92,3.92,0,0,1,1.82.4v8.61h-1.09v-8a2,2,0,0,0-.9-.16c-1.15,0-1.52.84-1.52,1.81v.3H268v.84h-1.41v5.21Z"/><path class="cls-44" d="M277,223.18c0,.63,0,1.18.05,1.65h-1l-.06-1h0a2.27,2.27,0,0,1-2,1.13c-.95,0-2.09-.53-2.09-2.65v-3.54H273v3.35c0,1.15.35,1.93,1.35,1.93a1.6,1.6,0,0,0,1.45-1,1.52,1.52,0,0,0,.1-.57v-3.71H277Z"/><path class="cls-44" d="M279.36,218.78l.86,1.3c.23.34.42.65.62,1h0c.2-.36.4-.68.6-1l.85-1.29h1.19l-2.06,2.93,2.12,3.12h-1.25l-.88-1.36c-.24-.35-.44-.69-.65-1.05h0c-.2.37-.41.69-.64,1.05l-.87,1.36H278l2.15-3.09-2.05-3Z"/><path class="cls-44" d="M289.92,221.76a3,3,0,0,1-3,3.21,2.87,2.87,0,0,1-2.9-3.11,3,3,0,0,1,3-3.21A2.86,2.86,0,0,1,289.92,221.76Zm-4.8.06c0,1.32.77,2.32,1.84,2.32s1.84-1,1.84-2.35c0-1-.51-2.32-1.81-2.32S285.12,220.67,285.12,221.82Z"/><path class="cls-44" d="M299.18,216v7.31c0,.54,0,1.15.05,1.56h-1l-.05-1.05h0a2.23,2.23,0,0,1-2.06,1.19c-1.46,0-2.59-1.24-2.59-3.08,0-2,1.24-3.24,2.72-3.24a2,2,0,0,1,1.82.92h0V216Zm-1.1,5.28a2.45,2.45,0,0,0,0-.46,1.63,1.63,0,0,0-1.59-1.27c-1.14,0-1.81,1-1.81,2.34s.6,2.23,1.78,2.23a1.67,1.67,0,0,0,1.62-1.31,2.39,2.39,0,0,0,0-.48Z"/><path class="cls-44" d="M301.62,222a2,2,0,0,0,2.08,2.1,3.84,3.84,0,0,0,1.67-.32l.19.79a4.77,4.77,0,0,1-2,.39,2.82,2.82,0,0,1-3-3.06c0-1.83,1.08-3.26,2.84-3.26a2.56,2.56,0,0,1,2.5,2.84,4.81,4.81,0,0,1,0,.52Zm3.23-.79a1.57,1.57,0,0,0-1.53-1.79,1.82,1.82,0,0,0-1.68,1.79Z"/><path class="cls-44" d="M211.74,235a3,3,0,0,1-3,3.21,2.87,2.87,0,0,1-2.9-3.11,3,3,0,0,1,3-3.21A2.87,2.87,0,0,1,211.74,235Zm-4.8.06c0,1.32.76,2.32,1.84,2.32s1.83-1,1.83-2.35c0-1-.51-2.32-1.81-2.32S206.94,233.87,206.94,235Z"/><path class="cls-44" d="M213.13,233.87c0-.71,0-1.32,0-1.89h1l0,1.19h0a1.8,1.8,0,0,1,1.67-1.32,1.42,1.42,0,0,1,.31,0v1a1.35,1.35,0,0,0-.37,0,1.55,1.55,0,0,0-1.48,1.42,3.52,3.52,0,0,0,0,.51V238h-1.08Z"/><path class="cls-44" d="M218.49,230.28a.68.68,0,1,1-1.36,0,.66.66,0,0,1,.68-.68A.65.65,0,0,1,218.49,230.28ZM217.26,238V232h1.1V238Z"/><path class="cls-44" d="M225.35,237.16a3.48,3.48,0,0,1-.86,2.76,3.21,3.21,0,0,1-2.2.72,3.82,3.82,0,0,1-2-.5l.27-.83a3.43,3.43,0,0,0,1.78.47c1.12,0,1.95-.59,1.95-2.11V237h0a2.15,2.15,0,0,1-1.92,1,2.71,2.71,0,0,1-2.58-2.95,2.9,2.9,0,0,1,2.73-3.21,2,2,0,0,1,1.88,1h0l.05-.91h1c0,.44-.05.93-.05,1.66Zm-1.09-2.79a1.56,1.56,0,0,0-.06-.5,1.58,1.58,0,0,0-1.54-1.16c-1,0-1.8.89-1.8,2.28,0,1.19.6,2.18,1.79,2.18a1.62,1.62,0,0,0,1.53-1.13,1.93,1.93,0,0,0,.08-.58Z"/><path class="cls-44" d="M227.79,235.21a1.94,1.94,0,0,0,2.07,2.1,3.89,3.89,0,0,0,1.68-.32l.19.79a4.79,4.79,0,0,1-2,.39,2.82,2.82,0,0,1-3-3.06c0-1.83,1.07-3.26,2.84-3.26a2.56,2.56,0,0,1,2.5,2.84,4.59,4.59,0,0,1,0,.52Zm3.22-.79a1.56,1.56,0,0,0-1.52-1.79,1.83,1.83,0,0,0-1.69,1.79Z"/><path class="cls-44" d="M233.44,233.62c0-.62,0-1.14-.05-1.64h1l.05,1h0a2.08,2.08,0,0,1,1.9-1.11,1.79,1.79,0,0,1,1.71,1.21h0a2.4,2.4,0,0,1,.67-.79,2.08,2.08,0,0,1,1.34-.42c.8,0,2,.52,2,2.62V238H241v-3.42c0-1.16-.43-1.86-1.31-1.86a1.42,1.42,0,0,0-1.3,1,1.76,1.76,0,0,0-.09.55V238h-1.07v-3.62c0-1-.43-1.66-1.27-1.66a1.65,1.65,0,0,0-1.45,1.63V238h-1.07Z"/><path class="cls-44" d="M248.9,229.36a8.25,8.25,0,0,0-1.57,5.11,8.4,8.4,0,0,0,1.57,5.07H248a8,8,0,0,1-1.64-5.07,8.22,8.22,0,0,1,1.64-5.11Z"/><path class="cls-44" d="M249.58,232.43a14,14,0,0,1,1.17-3l.7-.08a17.18,17.18,0,0,0-.74,2.93Zm1.86,0a14,14,0,0,1,1.16-3l.7-.08a17.18,17.18,0,0,0-.74,2.93Z"/><path class="cls-44" d="M253.93,236.91a2.89,2.89,0,0,0,1.45.43c.79,0,1.17-.4,1.17-.9s-.31-.81-1.13-1.11c-1.08-.39-1.59-1-1.59-1.71a1.86,1.86,0,0,1,2.08-1.77,3,3,0,0,1,1.49.37l-.27.8a2.38,2.38,0,0,0-1.24-.35c-.65,0-1,.38-1,.83s.36.72,1.14,1c1.05.4,1.59.92,1.59,1.82,0,1.07-.82,1.83-2.26,1.83a3.47,3.47,0,0,1-1.7-.43Z"/><path class="cls-44" d="M264.5,235a3,3,0,0,1-3,3.21,2.87,2.87,0,0,1-2.9-3.11,3,3,0,0,1,3-3.21A2.87,2.87,0,0,1,264.5,235Zm-4.8.06c0,1.32.76,2.32,1.84,2.32s1.83-1,1.83-2.35c0-1-.51-2.32-1.81-2.32S259.7,233.87,259.7,235Z"/><path class="cls-44" d="M265.89,229.16H267V238h-1.1Z"/><path class="cls-44" d="M270.06,230.28a.65.65,0,0,1-.7.68.66.66,0,0,1-.66-.68.67.67,0,0,1,.69-.68A.65.65,0,0,1,270.06,230.28ZM268.84,238V232h1.1V238Z"/><path class="cls-44" d="M276.07,237.81a4,4,0,0,1-1.73.36,2.88,2.88,0,0,1-3-3.1,3.07,3.07,0,0,1,3.24-3.21,3.71,3.71,0,0,1,1.53.31l-.25.85a2.56,2.56,0,0,0-1.28-.29,2.1,2.1,0,0,0-2.13,2.29,2.07,2.07,0,0,0,2.1,2.26,3.14,3.14,0,0,0,1.35-.3Z"/><path class="cls-44" d="M278.59,230.28a.65.65,0,0,1-.7.68.66.66,0,0,1-.67-.68.67.67,0,0,1,.69-.68A.65.65,0,0,1,278.59,230.28ZM277.36,238V232h1.1V238Z"/><path class="cls-44" d="M281.61,230.53V232h1.58v.84h-1.58v3.26c0,.75.21,1.18.83,1.18a2,2,0,0,0,.63-.08l.05.83a2.81,2.81,0,0,1-1,.16,1.54,1.54,0,0,1-1.19-.48,2.24,2.24,0,0,1-.42-1.57v-3.3h-.94V232h.94v-1.11Z"/><path class="cls-44" d="M288.67,236.58a9,9,0,0,0,.1,1.45h-1l-.08-.76h0a2.27,2.27,0,0,1-1.85.9,1.73,1.73,0,0,1-1.85-1.74c0-1.46,1.3-2.26,3.64-2.25v-.12a1.25,1.25,0,0,0-1.38-1.4,3,3,0,0,0-1.57.45l-.25-.73a3.78,3.78,0,0,1,2-.53c1.85,0,2.3,1.26,2.3,2.47Zm-1.06-1.64c-1.2,0-2.56.19-2.56,1.37a1,1,0,0,0,1,1.05,1.51,1.51,0,0,0,1.46-1,1,1,0,0,0,.06-.35Z"/><path class="cls-44" d="M294.77,237.81a4,4,0,0,1-1.58.35l-.31.5a1,1,0,0,1,.87.91c0,.75-.62,1-1.3,1a1.81,1.81,0,0,1-.87-.22l.18-.56a1.41,1.41,0,0,0,.69.16c.29,0,.54-.08.54-.38s-.39-.47-1-.53l.53-1a2.86,2.86,0,0,1-2.53-3.05,3.08,3.08,0,0,1,3.25-3.21,3.71,3.71,0,0,1,1.53.31l-.25.85a2.59,2.59,0,0,0-1.28-.29,2.1,2.1,0,0,0-2.13,2.29,2.07,2.07,0,0,0,2.09,2.26,3,3,0,0,0,1.35-.3Z"/><path class="cls-44" d="M300.29,236.58a8,8,0,0,0,.1,1.45h-1l-.09-.76h0a2.27,2.27,0,0,1-1.85.9,1.73,1.73,0,0,1-1.85-1.74c0-1.46,1.3-2.26,3.64-2.25v-.12a1.25,1.25,0,0,0-1.38-1.4,3,3,0,0,0-1.57.45l-.25-.73a3.79,3.79,0,0,1,2-.53c1.85,0,2.3,1.26,2.3,2.47ZM296.56,231c0-.82.32-1.3.85-1.3a1.56,1.56,0,0,1,.78.27,1.26,1.26,0,0,0,.52.21c.2,0,.33-.11.35-.53h.59c0,.83-.28,1.26-.86,1.26a1.66,1.66,0,0,1-.77-.25,1.11,1.11,0,0,0-.53-.23c-.2,0-.3.22-.33.57Zm2.66,4c-1.2,0-2.56.19-2.56,1.37a1,1,0,0,0,1,1.05,1.49,1.49,0,0,0,1.46-1,1,1,0,0,0,.06-.35Z"/><path class="cls-44" d="M307.54,235a3,3,0,0,1-3,3.21,2.87,2.87,0,0,1-2.89-3.11,3,3,0,0,1,3-3.21A2.87,2.87,0,0,1,307.54,235Zm-4.8.06c0,1.32.76,2.32,1.83,2.32s1.84-1,1.84-2.35c0-1-.51-2.32-1.81-2.32S302.74,233.87,302.74,235Z"/><path class="cls-44" d="M309.89,229.38a16.44,16.44,0,0,1-1.16,3l-.7.07a17.93,17.93,0,0,0,.73-2.91Zm1.85,0a16.44,16.44,0,0,1-1.16,3l-.7.07a17.93,17.93,0,0,0,.73-2.91Z"/><path class="cls-44" d="M312.28,239.54a8.48,8.48,0,0,0,1.57-5.11,8.36,8.36,0,0,0-1.57-5.07h.85a8,8,0,0,1,1.63,5.08,8.17,8.17,0,0,1-1.63,5.1Z"/><path class="cls-44" d="M206.21,257.38a15.59,15.59,0,0,1,2.31-.17,4.81,4.81,0,0,1,3.41,1.05,3.88,3.88,0,0,1,1.19,3,4.5,4.5,0,0,1-1.21,3.28,5.19,5.19,0,0,1-3.73,1.21,18.14,18.14,0,0,1-2-.1Zm1.08,7.45a7,7,0,0,0,1.1.06,3.23,3.23,0,0,0,3.59-3.57c0-2-1.11-3.25-3.41-3.25a6.5,6.5,0,0,0-1.28.11Z"/><path class="cls-44" d="M215.81,258a.69.69,0,0,1-1.37,0,.67.67,0,0,1,.69-.69A.66.66,0,0,1,215.81,258Zm-1.23,7.74v-6h1.1v6Z"/><path class="cls-44" d="M217.59,261.53c0-.71,0-1.32-.05-1.88h1l0,1.18h.05a1.82,1.82,0,0,1,1.68-1.32,1,1,0,0,1,.31,0v1a2,2,0,0,0-.37,0,1.54,1.54,0,0,0-1.48,1.41,3.67,3.67,0,0,0,0,.51v3.22h-1.09Z"/><path class="cls-44" d="M222.26,262.87a1.93,1.93,0,0,0,2.07,2.1,4.11,4.11,0,0,0,1.68-.31l.18.78a4.74,4.74,0,0,1-2,.39,2.81,2.81,0,0,1-3-3.06c0-1.82,1.07-3.26,2.83-3.26a2.56,2.56,0,0,1,2.5,2.85c0,.22,0,.4,0,.51Zm3.22-.79A1.56,1.56,0,0,0,224,260.3a1.82,1.82,0,0,0-1.69,1.78Z"/><path class="cls-44" d="M232.32,265.47a3.69,3.69,0,0,1-1.59.35l-.31.5a1,1,0,0,1,.87.91c0,.75-.62,1-1.3,1a2,2,0,0,1-.87-.21l.19-.57a1.25,1.25,0,0,0,.68.17c.29,0,.54-.09.54-.39s-.39-.46-1-.53l.52-1a2.83,2.83,0,0,1-2.52-3,3.07,3.07,0,0,1,3.25-3.21,3.66,3.66,0,0,1,1.52.31l-.25.85a2.53,2.53,0,0,0-1.27-.28,2.28,2.28,0,0,0,0,4.54,3.06,3.06,0,0,0,1.35-.3Z"/><path class="cls-44" d="M237.92,264.25a7.94,7.94,0,0,0,.1,1.44h-1l-.09-.76h0a2.22,2.22,0,0,1-1.85.9,1.72,1.72,0,0,1-1.85-1.73c0-1.47,1.3-2.27,3.64-2.25v-.13a1.25,1.25,0,0,0-1.37-1.4,3.07,3.07,0,0,0-1.58.45l-.25-.72a3.73,3.73,0,0,1,2-.54c1.85,0,2.3,1.26,2.3,2.47Zm-3.73-5.64c0-.81.32-1.3.85-1.3a1.56,1.56,0,0,1,.78.27,1.17,1.17,0,0,0,.52.22c.2,0,.33-.12.35-.54h.59c0,.84-.27,1.26-.86,1.26a1.63,1.63,0,0,1-.76-.25,1.1,1.1,0,0,0-.54-.22c-.2,0-.3.21-.33.56Zm2.67,4c-1.2,0-2.57.19-2.57,1.36a1,1,0,0,0,1,1,1.5,1.5,0,0,0,1.46-1,1.15,1.15,0,0,0,.07-.35Z"/><path class="cls-44" d="M245.26,262.62a3,3,0,0,1-3,3.21,2.88,2.88,0,0,1-2.9-3.11,3,3,0,0,1,3-3.21A2.87,2.87,0,0,1,245.26,262.62Zm-4.8.06c0,1.33.76,2.33,1.83,2.33s1.84-1,1.84-2.35c0-1-.51-2.33-1.81-2.33S240.46,261.53,240.46,262.68Z"/><path class="cls-44" d="M254.69,256.82v7.31c0,.54,0,1.15.05,1.56h-1l0-1.05h0a2.23,2.23,0,0,1-2.06,1.19c-1.46,0-2.59-1.23-2.59-3.07,0-2,1.24-3.25,2.71-3.25a2,2,0,0,1,1.83.92h0v-3.61Zm-1.1,5.29a1.75,1.75,0,0,0-.05-.46,1.62,1.62,0,0,0-1.58-1.28c-1.14,0-1.82,1-1.82,2.34s.6,2.23,1.79,2.23a1.64,1.64,0,0,0,1.61-1.31,1.78,1.78,0,0,0,.05-.47Z"/><path class="cls-44" d="M262.08,262.62a3,3,0,0,1-3,3.21,2.87,2.87,0,0,1-2.9-3.11,3,3,0,0,1,3-3.21A2.87,2.87,0,0,1,262.08,262.62Zm-4.8.06c0,1.33.76,2.33,1.84,2.33s1.83-1,1.83-2.35c0-1-.51-2.33-1.81-2.33S257.28,261.53,257.28,262.68Z"/><path class="cls-44" d="M266.41,265.69v-5.21h-.85v-.83h.85v-.27a2.7,2.7,0,0,1,.85-2.08,2.86,2.86,0,0,1,1.93-.62,3.88,3.88,0,0,1,1.81.4v8.61h-1.08v-8a2,2,0,0,0-.9-.17c-1.15,0-1.53.84-1.53,1.82v.3h1.42v.83h-1.42v5.21Z"/><path class="cls-44" d="M278,264.05c0,.62,0,1.17,0,1.64h-1l-.06-1h0a2.3,2.3,0,0,1-2,1.12c-1,0-2.09-.52-2.09-2.65v-3.53H274V263c0,1.14.35,1.92,1.35,1.92a1.58,1.58,0,0,0,1.45-1,1.64,1.64,0,0,0,.1-.56v-3.71H278Z"/><path class="cls-44" d="M280.41,259.65l.86,1.3c.22.33.41.65.61,1h0c.2-.36.4-.67.6-1l.85-1.28h1.18l-2.06,2.92,2.13,3.12h-1.25l-.89-1.36c-.24-.35-.44-.69-.65-1.05h0c-.2.38-.41.69-.63,1.05l-.88,1.36h-1.21l2.15-3.08-2.05-3Z"/><path class="cls-44" d="M291.05,262.62a3,3,0,0,1-3,3.21,2.87,2.87,0,0,1-2.9-3.11,3,3,0,0,1,3-3.21A2.86,2.86,0,0,1,291.05,262.62Zm-4.8.06c0,1.33.77,2.33,1.84,2.33s1.84-1,1.84-2.35c0-1-.51-2.33-1.81-2.33S286.25,261.53,286.25,262.68Z"/><path class="cls-44" d="M300.49,256.82v7.31c0,.54,0,1.15.05,1.56h-1l-.05-1.05h0a2.24,2.24,0,0,1-2.06,1.19c-1.47,0-2.59-1.23-2.59-3.07,0-2,1.24-3.25,2.71-3.25a2,2,0,0,1,1.83.92h0v-3.61Zm-1.1,5.29a1.75,1.75,0,0,0-.05-.46,1.62,1.62,0,0,0-1.59-1.28c-1.13,0-1.81,1-1.81,2.34s.6,2.23,1.79,2.23a1.64,1.64,0,0,0,1.61-1.31,1.78,1.78,0,0,0,.05-.47Z"/><path class="cls-44" d="M303,262.87a1.93,1.93,0,0,0,2.07,2.1,4,4,0,0,0,1.67-.31l.19.78a4.74,4.74,0,0,1-2,.39,2.81,2.81,0,0,1-3-3.06c0-1.82,1.07-3.26,2.83-3.26a2.56,2.56,0,0,1,2.5,2.85,3,3,0,0,1,0,.51Zm3.22-.79a1.56,1.56,0,0,0-1.52-1.78,1.82,1.82,0,0,0-1.69,1.78Z"/><path class="cls-44" d="M206.17,274.73c0-.71,0-1.32,0-1.88h1l0,1.18h0a1.81,1.81,0,0,1,1.67-1.32,1,1,0,0,1,.32,0v1a2.17,2.17,0,0,0-.38,0,1.54,1.54,0,0,0-1.47,1.41,2.59,2.59,0,0,0-.05.51v3.22h-1.09Z"/><path class="cls-44" d="M210.83,276.07a1.94,1.94,0,0,0,2.08,2.1,4.06,4.06,0,0,0,1.67-.31l.19.78a4.77,4.77,0,0,1-2,.39,2.81,2.81,0,0,1-3-3.06c0-1.82,1.08-3.26,2.84-3.26a2.57,2.57,0,0,1,2.5,2.85,4.58,4.58,0,0,1,0,.51Zm3.23-.79a1.56,1.56,0,0,0-1.53-1.78,1.82,1.82,0,0,0-1.69,1.78Z"/><path class="cls-44" d="M217.89,271.4v1.45h1.58v.83h-1.58V277c0,.75.22,1.17.83,1.17a2.13,2.13,0,0,0,.64-.07l0,.82a2.65,2.65,0,0,1-1,.16,1.55,1.55,0,0,1-1.19-.47,2.26,2.26,0,0,1-.42-1.58v-3.3h-.94v-.83h.94v-1.12Z"/><path class="cls-44" d="M226.19,275.82a3,3,0,0,1-3,3.21,2.87,2.87,0,0,1-2.9-3.11,3,3,0,0,1,3-3.21A2.86,2.86,0,0,1,226.19,275.82Zm-4.8.06c0,1.33.77,2.33,1.84,2.33s1.84-1,1.84-2.35c0-1-.51-2.33-1.81-2.33S221.39,274.73,221.39,275.88Z"/><path class="cls-44" d="M227.67,274.73c0-.71,0-1.32,0-1.88h1l0,1.18h0a1.81,1.81,0,0,1,1.67-1.32,1,1,0,0,1,.32,0v1a2.17,2.17,0,0,0-.38,0,1.54,1.54,0,0,0-1.47,1.41,2.59,2.59,0,0,0-.05.51v3.22h-1.09Z"/><path class="cls-44" d="M231.89,274.48c0-.62,0-1.13,0-1.63h1l.06,1h0a2.22,2.22,0,0,1,2-1.14c.83,0,2.13.5,2.13,2.57v3.61h-1.1v-3.48c0-1-.36-1.79-1.4-1.79a1.56,1.56,0,0,0-1.47,1.13,1.52,1.52,0,0,0-.08.51v3.63h-1.1Z"/><path class="cls-44" d="M244.39,275.82a3,3,0,0,1-3,3.21,2.87,2.87,0,0,1-2.9-3.11,3,3,0,0,1,3-3.21A2.86,2.86,0,0,1,244.39,275.82Zm-4.8.06c0,1.33.77,2.33,1.84,2.33s1.84-1,1.84-2.35c0-1-.51-2.33-1.81-2.33S239.59,274.73,239.59,275.88Z"/><path class="cls-44" d="M251,270.22a8.27,8.27,0,0,0-1.57,5.11,8.48,8.48,0,0,0,1.57,5.08h-.86a8.08,8.08,0,0,1-1.64-5.08,8.28,8.28,0,0,1,1.64-5.11Z"/><path class="cls-44" d="M251.76,273.3a14.33,14.33,0,0,1,1.17-3l.7-.07a17.78,17.78,0,0,0-.74,2.92Zm1.86,0a14.37,14.37,0,0,1,1.16-3l.7-.07a17.78,17.78,0,0,0-.74,2.92Z"/><path class="cls-44" d="M256.47,274.73c0-.71,0-1.32-.05-1.88h1l0,1.18h.05a1.81,1.81,0,0,1,1.67-1.32,1.08,1.08,0,0,1,.32,0v1a2.17,2.17,0,0,0-.38,0,1.52,1.52,0,0,0-1.47,1.41,2.59,2.59,0,0,0-.05.51v3.22h-1.09Z"/><path class="cls-44" d="M261.13,276.07a1.94,1.94,0,0,0,2.08,2.1,4.06,4.06,0,0,0,1.67-.31l.19.78a4.77,4.77,0,0,1-2,.39,2.81,2.81,0,0,1-3-3.06c0-1.82,1.08-3.26,2.84-3.26a2.57,2.57,0,0,1,2.5,2.85,4.58,4.58,0,0,1,0,.51Zm3.23-.79a1.56,1.56,0,0,0-1.53-1.78,1.82,1.82,0,0,0-1.69,1.78Z"/><path class="cls-44" d="M266.72,277.77a2.89,2.89,0,0,0,1.45.44c.8,0,1.17-.4,1.17-.9s-.31-.81-1.12-1.11c-1.09-.39-1.6-1-1.6-1.72a1.87,1.87,0,0,1,2.09-1.77,3,3,0,0,1,1.48.37l-.27.8a2.38,2.38,0,0,0-1.24-.35c-.65,0-1,.38-1,.83s.36.72,1.15,1c1.05.4,1.59.93,1.59,1.83,0,1.06-.83,1.82-2.27,1.82a3.47,3.47,0,0,1-1.7-.42Z"/><path class="cls-44" d="M271.91,274.82c0-.77,0-1.4-.05-2h1l.05,1h0a2.39,2.39,0,0,1,2.15-1.17c1.46,0,2.56,1.24,2.56,3.07,0,2.18-1.32,3.25-2.75,3.25a2.11,2.11,0,0,1-1.86-.95h0v3.29h-1.08Zm1.08,1.61a2.81,2.81,0,0,0,.05.45,1.71,1.71,0,0,0,1.65,1.29c1.17,0,1.84-.95,1.84-2.34,0-1.21-.64-2.25-1.8-2.25a1.75,1.75,0,0,0-1.66,1.37,1.63,1.63,0,0,0-.08.45Z"/><path class="cls-44" d="M284.58,275.82a3,3,0,0,1-3,3.21,2.87,2.87,0,0,1-2.9-3.11,3,3,0,0,1,3-3.21A2.87,2.87,0,0,1,284.58,275.82Zm-4.8.06c0,1.33.76,2.33,1.84,2.33s1.83-1,1.83-2.35c0-1-.51-2.33-1.81-2.33S279.78,274.73,279.78,275.88Z"/><path class="cls-44" d="M285.91,277.77a2.89,2.89,0,0,0,1.45.44c.8,0,1.17-.4,1.17-.9s-.31-.81-1.12-1.11c-1.09-.39-1.6-1-1.6-1.72a1.86,1.86,0,0,1,2.08-1.77,3,3,0,0,1,1.49.37l-.27.8a2.38,2.38,0,0,0-1.24-.35c-.65,0-1,.38-1,.83s.36.72,1.14,1c1.05.4,1.59.93,1.59,1.83,0,1.06-.82,1.82-2.26,1.82a3.47,3.47,0,0,1-1.7-.42Z"/><path class="cls-44" d="M292.42,271.4v1.45H294v.83h-1.57V277c0,.75.21,1.17.82,1.17a2.09,2.09,0,0,0,.64-.07l.05.82a2.59,2.59,0,0,1-1,.16,1.52,1.52,0,0,1-1.19-.47,2.26,2.26,0,0,1-.43-1.58v-3.3h-.93v-.83h.93v-1.12Z"/><path class="cls-44" d="M299.57,277.45a7.94,7.94,0,0,0,.1,1.44h-1l-.09-.76h0a2.22,2.22,0,0,1-1.85.9,1.72,1.72,0,0,1-1.85-1.73c0-1.47,1.3-2.27,3.64-2.25v-.13a1.25,1.25,0,0,0-1.37-1.4,3.07,3.07,0,0,0-1.58.45l-.25-.72a3.73,3.73,0,0,1,2-.54c1.85,0,2.3,1.26,2.3,2.47Zm-1.07-1.64c-1.19,0-2.56.19-2.56,1.36a1,1,0,0,0,1,1.05,1.5,1.5,0,0,0,1.46-1,1.07,1.07,0,0,0,.06-.35Z"/><path class="cls-44" d="M302.39,270.25a15.22,15.22,0,0,1-1.16,3l-.7.07a19,19,0,0,0,.74-2.91Zm1.85,0a15.22,15.22,0,0,1-1.16,3l-.7.07a16.94,16.94,0,0,0,.74-2.91Z"/><path class="cls-44" d="M304.87,280.41a8.44,8.44,0,0,0,1.57-5.11,8.3,8.3,0,0,0-1.57-5.08h.85a8,8,0,0,1,1.64,5.09,8.11,8.11,0,0,1-1.64,5.1Z"/><path class="cls-44" d="M73.17,122.54v3.29h-1v-8.71h2.37a3.08,3.08,0,0,1,2.13.68,2.42,2.42,0,0,1,.76,1.92,2.68,2.68,0,0,1-.84,2,3.22,3.22,0,0,1-2.28.79Zm0-4.5v3.57h1.06a2.36,2.36,0,0,0,1.59-.48,1.74,1.74,0,0,0,.55-1.36c0-1.15-.67-1.73-2-1.73Z"/><path class="cls-44" d="M81,126a2.84,2.84,0,0,1-2.18-.87,3.25,3.25,0,0,1-.81-2.31,3.42,3.42,0,0,1,.84-2.45,3.07,3.07,0,0,1,2.29-.88,2.74,2.74,0,0,1,2.14.86,3.38,3.38,0,0,1,.77,2.37,3.35,3.35,0,0,1-.83,2.39A2.89,2.89,0,0,1,81,126Zm.07-5.67a1.88,1.88,0,0,0-1.5.65,2.71,2.71,0,0,0-.55,1.8,2.59,2.59,0,0,0,.55,1.75,1.91,1.91,0,0,0,1.5.63,1.77,1.77,0,0,0,1.46-.62,2.7,2.7,0,0,0,.52-1.78,2.74,2.74,0,0,0-.52-1.8A1.77,1.77,0,0,0,81.06,120.3Z"/><path class="cls-44" d="M88.15,126A2.84,2.84,0,0,1,86,125.1a3.25,3.25,0,0,1-.81-2.31,3.38,3.38,0,0,1,.85-2.45,3,3,0,0,1,2.28-.88,2.76,2.76,0,0,1,2.15.86,3.43,3.43,0,0,1,.77,2.37,3.39,3.39,0,0,1-.83,2.39A2.93,2.93,0,0,1,88.15,126Zm.07-5.67a1.88,1.88,0,0,0-1.5.65,2.71,2.71,0,0,0-.55,1.8,2.54,2.54,0,0,0,.56,1.75,1.88,1.88,0,0,0,1.49.63,1.8,1.8,0,0,0,1.47-.62,2.75,2.75,0,0,0,.51-1.78,2.8,2.8,0,0,0-.51-1.8A1.81,1.81,0,0,0,88.22,120.3Z"/><path class="cls-44" d="M93.72,125.83h-1v-9.21h1Z"/><path class="cls-44" d="M104.25,125.83h-1v-1.06h0a2.26,2.26,0,0,1-2.11,1.2,2.3,2.3,0,0,1-1.85-.83,3.49,3.49,0,0,1-.69-2.28,3.73,3.73,0,0,1,.77-2.47,2.51,2.51,0,0,1,2-.93,2,2,0,0,1,1.84,1h0v-3.85h1Zm-1-2.82v-.91a1.84,1.84,0,0,0-.49-1.28,1.65,1.65,0,0,0-1.25-.52,1.7,1.7,0,0,0-1.42.67,3,3,0,0,0-.51,1.84,2.65,2.65,0,0,0,.49,1.7,1.59,1.59,0,0,0,1.33.62,1.66,1.66,0,0,0,1.33-.6A2.21,2.21,0,0,0,103.27,123Z"/><path class="cls-44" d="M111.14,123h-4.33a2.32,2.32,0,0,0,.55,1.6,1.86,1.86,0,0,0,1.45.56,3,3,0,0,0,1.91-.69v.94a3.59,3.59,0,0,1-2.14.59,2.6,2.6,0,0,1-2-.84,3.49,3.49,0,0,1-.74-2.39,3.42,3.42,0,0,1,.81-2.36,2.59,2.59,0,0,1,2-.92,2.31,2.31,0,0,1,1.86.79,3.33,3.33,0,0,1,.66,2.19Zm-1-.85a2,2,0,0,0-.41-1.34,1.38,1.38,0,0,0-1.12-.48,1.59,1.59,0,0,0-1.18.5,2.25,2.25,0,0,0-.6,1.32Z"/><path class="cls-44" d="M120.52,125.83h-4.47v-8.71h1v7.78h3.46Z"/><path class="cls-44" d="M121.8,125.83v-8.71h2.45a2.66,2.66,0,0,1,1.77.55,1.81,1.81,0,0,1,.65,1.44,2.13,2.13,0,0,1-.4,1.29,2.15,2.15,0,0,1-1.09.78v0a2.18,2.18,0,0,1,1.39.66,2.08,2.08,0,0,1,.53,1.46,2.28,2.28,0,0,1-.8,1.81,2.86,2.86,0,0,1-2,.7Zm1-7.79v2.81h1a1.93,1.93,0,0,0,1.3-.4,1.4,1.4,0,0,0,.47-1.14c0-.85-.55-1.27-1.64-1.27Zm0,3.73v3.13h1.37a2,2,0,0,0,1.37-.42,1.45,1.45,0,0,0,.49-1.17c0-1-.69-1.54-2.07-1.54Z"/></g></svg>