<svg xmlns="http://www.w3.org/2000/svg" xmlns:xlink="http://www.w3.org/1999/xlink" viewBox="0 0 221 285.86"><defs><style>.cls-1{fill:#fff;}.cls-2,.cls-3,.cls-4{fill:#3c3c41;}.cls-2{opacity:0.05;}.cls-2,.cls-26,.cls-4{isolation:isolate;}.cls-4{opacity:0.2;}.cls-5{fill:#ccc;fill-opacity:0.3;}.cls-6{fill:url(#Degradado_sin_nombre);}.cls-7{fill:#50e6ff;}.cls-8{fill:#c3f1ff;}.cls-9{fill:#9cebff;}.cls-10{fill:url(#Degradado_sin_nombre_2);}.cls-11{fill:url(#Degradado_sin_nombre_3);}.cls-12{fill:url(#Degradado_sin_nombre_4);}.cls-13{fill:#005ba1;}.cls-14{fill:#0078d4;}.cls-15{fill:url(#Degradado_sin_nombre_5);}.cls-16{fill:url(#Degradado_sin_nombre_6);}.cls-17{fill:url(#Degradado_sin_nombre_7);}.cls-18{fill:url(#Degradado_sin_nombre_8);}.cls-19,.cls-20,.cls-21{fill:none;stroke:#3c3c41;stroke-miterlimit:10;}.cls-20{stroke-dasharray:1.46 2.43;}.cls-21{stroke-dasharray:1.31 2.19;}.cls-22{fill:url(#Degradado_sin_nombre_9);}.cls-23{fill:url(#Degradado_sin_nombre_10);}.cls-24{fill:url(#Degradado_sin_nombre_11);}.cls-25{fill:#1490df;}.cls-26,.cls-27{fill:#6ebcdb;}.cls-26{opacity:0.4;}.cls-28{fill:#5db4d7;}.cls-29{fill:#e6e6e6;}.cls-30{fill:#86d633;}.cls-31{fill:#1e1e1e;}</style><linearGradient id="Degradado_sin_nombre" x1="37.07" y1="254.57" x2="37.07" y2="235.81" gradientTransform="translate(0 -112.95)" gradientUnits="userSpaceOnUse"><stop offset="0" stop-color="#0078d4"/><stop offset="0.82" stop-color="#5ea0ef"/></linearGradient><linearGradient id="Degradado_sin_nombre_2" x1="37.05" y1="261.8" x2="37.05" y2="254.57" gradientTransform="translate(0 -112.95)" gradientUnits="userSpaceOnUse"><stop offset="0.15" stop-color="#ccc"/><stop offset="1" stop-color="#707070"/></linearGradient><linearGradient id="Degradado_sin_nombre_3" x1="77.43" y1="254.57" x2="77.43" y2="235.81" xlink:href="#Degradado_sin_nombre"/><linearGradient id="Degradado_sin_nombre_4" x1="77.43" y1="261.8" x2="77.43" y2="254.57" xlink:href="#Degradado_sin_nombre_2"/><linearGradient id="Degradado_sin_nombre_5" x1="188.87" y1="257.81" x2="188.87" y2="247.47" xlink:href="#Degradado_sin_nombre"/><linearGradient id="Degradado_sin_nombre_6" x1="188.94" y1="261.8" x2="188.94" y2="257.81" xlink:href="#Degradado_sin_nombre_2"/><linearGradient id="Degradado_sin_nombre_7" x1="141.17" y1="254.57" x2="141.17" y2="235.81" xlink:href="#Degradado_sin_nombre"/><linearGradient id="Degradado_sin_nombre_8" x1="141.17" y1="261.8" x2="141.17" y2="254.57" xlink:href="#Degradado_sin_nombre_2"/><linearGradient id="Degradado_sin_nombre_9" x1="23.52" y1="313.02" x2="25.89" y2="315.39" gradientTransform="translate(3 -113.27)" gradientUnits="userSpaceOnUse"><stop offset="0" stop-color="#86d633"/><stop offset="0.24" stop-color="#83d232"/><stop offset="0.5" stop-color="#7cc52f"/><stop offset="0.76" stop-color="#6fb02a"/><stop offset="1" stop-color="#5e9624"/></linearGradient><linearGradient id="Degradado_sin_nombre_10" x1="18.17" y1="313.02" x2="20.53" y2="315.38" xlink:href="#Degradado_sin_nombre_9"/><linearGradient id="Degradado_sin_nombre_11" x1="12.83" y1="313.02" x2="15.18" y2="315.39" xlink:href="#Degradado_sin_nombre_9"/></defs><title>OJ104903287</title><g id="Target"><rect class="cls-1" x="0.54" width="220.46" height="285.86"/><rect class="cls-1" x="0.5" y="46.36" width="220" height="154" rx="5"/><rect class="cls-2" x="0.5" y="46.36" width="220" height="154" rx="5"/><path class="cls-3" d="M214.34,200.86h-1v-1h1Zm-3,0h-1v-1h1Zm-3,0h-1v-1h1Zm-3,0h-1v-1h1Zm-3,0h-1v-1h1Zm-3,0h-1v-1h1Zm-3,0h-1v-1h1Zm-3,0h-1v-1h1Zm-3,0h-1v-1h1Zm-3,0h-1v-1h1Zm-3,0h-1v-1h1Zm-3,0h-1v-1h1Zm-3,0h-1v-1h1Zm-3,0h-1v-1h1Zm-3,0h-1v-1h1Zm-3,0h-1v-1h1Zm-3,0h-1v-1h1Zm-3,0h-1v-1h1Zm-3,0h-1v-1h1Zm-3,0h-1v-1h1Zm-3,0h-1v-1h1Zm-3,0h-1v-1h1Zm-3,0h-1v-1h1Zm-3,0h-1v-1h1Zm-3,0h-1v-1h1Zm-3,0h-1v-1h1Zm-3,0h-1v-1h1Zm-3,0h-1v-1h1Zm-3,0h-1v-1h1Zm-3,0h-1v-1h1Zm-3,0h-1v-1h1Zm-3,0h-1v-1h1Zm-3,0h-1v-1h1Zm-3,0h-1v-1h1Zm-3,0h-1v-1h1Zm-3,0h-1v-1h1Zm-3,0h-1v-1h1Zm-3,0h-1v-1h1Zm-3,0h-1v-1h1Zm-3,0h-1v-1h1Zm-3,0h-1v-1h1Zm-3,0h-1v-1h1Zm-3,0h-1v-1h1Zm-3,0h-1v-1h1Zm-3,0h-1v-1h1Zm-3,0h-1v-1h1Zm-3,0h-1v-1h1Zm-3,0h-1v-1h1Zm-3,0h-1v-1h1Zm-3,0h-1v-1h1Zm-3,0h-1v-1h1Zm-3,0h-1v-1h1Zm-3,0h-1v-1h1Zm-3,0H54v-1h1Zm-3,0H51v-1h1Zm-3,0H48v-1h1Zm-3,0H45v-1h1Zm-3,0H42v-1h1Zm-3,0H39v-1h1Zm-3,0H36v-1h1Zm-30,0H6v-1H7Zm209.46-.08-.17-1a4.31,4.31,0,0,0,.87-.24l.36.94a5.86,5.86,0,0,1-1.44.3ZM4.2,200.59a5.24,5.24,0,0,1-1-.44l.49-.87a4,4,0,0,0,.82.36Zm215.5-1.29-.69-.72a5.35,5.35,0,0,0,.58-.68l.82.56a5,5,0,0,1-1.09.84ZM1.16,198.72a5.62,5.62,0,0,1-.59-.93l.9-.44a3.75,3.75,0,0,0,.48.76Zm219.73-2.27-1-.2a4.41,4.41,0,0,0,.09-.89l1-.06v.06A6.59,6.59,0,0,1,220.89,196.45ZM0,195.68v-1H1v1Zm221-2.39h-1v-1h1ZM1,192.64H0v-1H1Zm220-2.35h-1v-1h1ZM1,189.64H0v-1H1Zm220-2.36h-1v-1h1ZM1,186.63H0v-1H1Zm220-2.35h-1v-1h1ZM1,183.63H0v-1H1Zm220-2.36h-1v-1h1ZM1,180.62H0v-1H1Zm220-2.35h-1v-1h1ZM1,177.62H0v-1H1Zm220-2.36h-1v-1h1ZM1,174.61H0v-1H1Zm220-2.36h-1v-1h1ZM1,171.6H0v-1H1Zm220-2.35h-1v-1h1ZM1,168.6H0v-1H1Zm220-2.36h-1v-1h1ZM1,165.59H0v-1H1Zm220-2.35h-1v-1h1ZM1,162.59H0v-1H1Zm220-2.36h-1v-1h1ZM1,159.58H0v-1H1Zm220-2.35h-1v-1h1ZM1,156.58H0v-1H1Zm220-2.36h-1v-1h1ZM1,153.57H0v-1H1Zm220-2.35h-1v-1h1ZM1,150.57H0v-1H1Zm220-2.36h-1v-1h1ZM1,147.56H0v-1H1Zm220-2.35h-1v-1h1ZM1,144.55H0v-1H1Zm220-2.35h-1v-1h1ZM1,141.55H0v-1H1Zm220-2.36h-1v-1h1ZM1,138.54H0v-1H1Zm220-2.35h-1v-1h1ZM1,135.54H0v-1H1Zm220-2.36h-1v-1h1ZM1,132.53H0v-1H1Zm220-2.35h-1v-1h1ZM1,129.53H0v-1H1Zm220-2.36h-1v-1h1ZM1,126.52H0v-1H1Zm220-2.35h-1v-1h1ZM1,123.52H0v-1H1Zm220-2.36h-1v-1h1ZM1,120.51H0v-1H1Zm220-2.35h-1v-1h1ZM1,117.51H0v-1H1Zm220-2.36h-1v-1h1ZM1,114.5H0v-1H1Zm220-2.35h-1v-1h1ZM1,111.49H0v-1H1Zm220-2.35h-1v-1h1ZM1,108.49H0v-1H1Zm220-2.36h-1v-1h1ZM1,105.48H0v-1H1Zm220-2.35h-1v-1h1ZM1,102.48H0v-1H1Zm220-2.36h-1v-1h1ZM1,99.47H0v-1H1Zm220-2.35h-1v-1h1ZM1,96.47H0v-1H1Zm220-2.36h-1v-1h1ZM1,93.46H0v-1H1Zm220-2.35h-1v-1h1ZM1,90.46H0v-1H1ZM221,88.1h-1v-1h1ZM1,87.45H0v-1H1ZM221,85.1h-1v-1h1ZM1,84.44H0v-1H1Zm220-2.35h-1v-1h1ZM1,81.44H0v-1H1Zm220-2.36h-1v-1h1ZM1,78.43H0v-1H1Zm220-2.35h-1v-1h1ZM1,75.43H0v-1H1Zm220-2.36h-1v-1h1ZM1,72.42H0v-1H1Zm220-2.35h-1v-1h1ZM1,69.42H0v-1H1Zm220-2.36h-1v-1h1ZM1,66.41H0v-1H1Zm220-2.35h-1v-1h1ZM1,63.41H0v-1H1Zm220-2.36h-1v-1h1ZM1,60.4H0v-1H1Zm220-2.35h-1V57h1ZM1,57.4H0v-1H1ZM221,55h-1V54h1ZM1,54.39H0v-1H1ZM221,52h-1v-.68a1.41,1.41,0,0,0,0-.29l1-.07v1ZM0,51.38H0a6.36,6.36,0,0,1,.1-1.07l1,.2a5.12,5.12,0,0,0-.08.87Zm219.52-2a4.63,4.63,0,0,0-.48-.76l.78-.62a5,5,0,0,1,.59.93ZM1.78,48.84,1,48.27a6.31,6.31,0,0,1,.71-.84l.7.72A4.57,4.57,0,0,0,1.78,48.84Zm215.89-1.42a4.09,4.09,0,0,0-.83-.36l.31-1a6.28,6.28,0,0,1,1,.43ZM3.86,47.17l-.37-.93a4.92,4.92,0,0,1,1.06-.3l.17,1A4.37,4.37,0,0,0,3.86,47.17ZM215,46.86h-1v-1h1Zm-3,0h-1v-1h1Zm-3,0h-1v-1h1Zm-3,0h-1v-1h1Zm-3,0h-1v-1h1Zm-3,0h-1v-1h1Zm-3,0h-1v-1h1Zm-3,0h-1v-1h1Zm-3,0h-1v-1h1Zm-3,0h-1v-1h1Zm-3,0h-1v-1h1Zm-3,0h-1v-1h1Zm-3,0h-1v-1h1Zm-3,0h-1v-1h1Zm-3,0h-1v-1h1Zm-3,0h-1v-1h1Zm-3,0h-1v-1h1Zm-3,0h-1v-1h1Zm-3,0h-1v-1h1Zm-3,0h-1v-1h1Zm-3,0h-1v-1h1Zm-27,0h-1v-1h1Zm-3,0h-1v-1h1Zm-3,0h-1v-1h1Zm-3,0h-1v-1h1Zm-3,0h-1v-1h1Zm-3,0h-1v-1h1Zm-3,0h-1v-1h1Zm-3,0h-1v-1h1Zm-3,0h-1v-1h1Zm-3,0h-1v-1h1Zm-3,0H97v-1h1Zm-3,0H94v-1h1Zm-3,0H91v-1h1Zm-3,0H88v-1h1Zm-3,0H85v-1h1Zm-3,0H82v-1h1Zm-3,0H79v-1h1Zm-3,0H76v-1h1Zm-3,0H73v-1h1Zm-3,0H70v-1h1Zm-3,0H67v-1h1Zm-3,0H64v-1h1Zm-3,0H61v-1h1Zm-3,0H58v-1h1Zm-3,0H55v-1h1Zm-3,0H52v-1h1Zm-3,0H49v-1h1Zm-3,0H46v-1h1Zm-3,0H43v-1h1Zm-3,0H40v-1h1Zm-3,0H37v-1h1Zm-3,0H34v-1h1Zm-3,0H31v-1h1Zm-3,0H28v-1h1Zm-3,0H25v-1h1Zm-3,0H22v-1h1Zm-3,0H19v-1h1Zm-3,0H16v-1h1Zm-3,0H13v-1h1Zm-3,0H10v-1h1Zm-3,0H7v-1H8Z"/><rect class="cls-1" x="10" y="90.86" width="95" height="95" rx="0.3"/><rect class="cls-4" x="10" y="90.86" width="95" height="95" rx="0.3"/><rect class="cls-5" x="65" y="210.86" width="155" height="35"/><rect class="cls-5" x="65" y="250.86" width="155" height="35"/><rect class="cls-6" x="23" y="122.86" width="28.14" height="18.76" rx="0.94"/><polygon class="cls-7" points="41.76 129.5 41.76 134.96 37.07 137.71 37.07 132.24 41.76 129.5"/><polygon class="cls-8" points="41.76 129.5 37.07 132.25 32.38 129.5 37.07 126.76 41.76 129.5"/><polygon class="cls-9" points="37.07 132.25 37.07 137.71 32.38 134.96 32.38 129.5 37.07 132.25"/><polygon class="cls-8" points="32.38 134.96 37.07 132.24 37.07 137.71 32.38 134.96"/><polygon class="cls-9" points="41.76 134.96 37.07 132.24 37.07 137.71 41.76 134.96"/><path class="cls-10" d="M42.71,147.29c-2.78-.44-2.89-2.44-2.89-5.67H34.3c0,3.23-.09,5.23-2.87,5.67A1.56,1.56,0,0,0,30,148.86H44.11A1.58,1.58,0,0,0,42.71,147.29Z"/><rect class="cls-11" x="63.36" y="122.86" width="28.14" height="18.76" rx="0.94"/><polygon class="cls-7" points="82.12 129.5 82.12 134.96 77.43 137.71 77.43 132.24 82.12 129.5"/><polygon class="cls-8" points="82.12 129.5 77.43 132.25 72.74 129.5 77.43 126.76 82.12 129.5"/><polygon class="cls-9" points="77.43 132.25 77.43 137.71 72.74 134.96 72.74 129.5 77.43 132.25"/><polygon class="cls-8" points="72.74 134.96 77.43 132.24 77.43 137.71 72.74 134.96"/><polygon class="cls-9" points="82.12 134.96 77.43 132.24 77.43 137.71 82.12 134.96"/><path class="cls-12" d="M83.07,147.29c-2.78-.44-2.89-2.44-2.89-5.67H74.66c0,3.23-.09,5.23-2.88,5.67a1.56,1.56,0,0,0-1.39,1.57H84.46A1.56,1.56,0,0,0,83.07,147.29Z"/><rect class="cls-1" x="115" y="90.86" width="95" height="95"/><rect class="cls-4" x="115" y="90.86" width="95" height="95"/><rect class="cls-13" x="170.6" y="122.86" width="15.46" height="10.32" rx="0.52"/><polygon class="cls-7" points="180.91 126.51 180.91 129.52 178.34 131.02 178.34 128.03 180.91 126.51"/><polygon class="cls-8" points="180.91 126.51 178.34 128.03 175.75 126.51 178.34 125 180.91 126.51"/><polygon class="cls-9" points="178.34 128.03 178.34 131.02 175.75 129.52 175.75 126.51 178.34 128.03"/><rect class="cls-14" x="176.67" y="128.77" width="15.46" height="10.32" rx="0.52"/><polygon class="cls-7" points="186.98 132.44 186.98 135.44 184.41 136.96 184.41 133.94 186.98 132.44"/><polygon class="cls-8" points="186.98 132.44 184.41 133.94 181.82 132.44 184.41 130.93 186.98 132.44"/><polygon class="cls-9" points="184.41 133.94 184.41 136.96 181.82 135.44 181.82 132.44 184.41 133.94"/><rect class="cls-15" x="181.14" y="134.52" width="15.46" height="10.32" rx="0.52"/><polygon class="cls-7" points="191.44 138.19 191.44 141.19 188.88 142.71 188.88 139.69 191.44 138.19"/><polygon class="cls-8" points="191.44 138.19 188.88 139.71 186.29 138.19 188.88 136.68 191.44 138.19"/><polygon class="cls-9" points="188.88 139.71 188.88 142.71 186.29 141.19 186.29 138.19 188.88 139.71"/><polygon class="cls-8" points="186.29 141.19 188.88 139.69 188.88 142.71 186.29 141.19"/><polygon class="cls-9" points="191.44 141.19 188.88 139.69 188.88 142.71 191.44 141.19"/><path class="cls-16" d="M192,148c-1.52-.24-1.52-1.34-1.52-3.06h-3.06c0,1.78,0,2.88-1.53,3.06a.91.91,0,0,0-.77.88h7.65A.91.91,0,0,0,192,148Z"/><rect class="cls-17" x="127.1" y="122.86" width="28.14" height="18.76" rx="0.94"/><polygon class="cls-7" points="145.86 129.5 145.86 134.96 141.17 137.71 141.17 132.24 145.86 129.5"/><polygon class="cls-8" points="145.86 129.5 141.17 132.25 136.48 129.5 141.17 126.76 145.86 129.5"/><polygon class="cls-9" points="141.17 132.25 141.17 137.71 136.48 134.96 136.48 129.5 141.17 132.25"/><polygon class="cls-8" points="136.48 134.96 141.17 132.24 141.17 137.71 136.48 134.96"/><polygon class="cls-9" points="145.86 134.96 141.17 132.24 141.17 137.71 145.86 134.96"/><path class="cls-18" d="M146.81,147.29c-2.78-.44-2.89-2.44-2.89-5.67H138.4c0,3.23-.09,5.23-2.87,5.67a1.58,1.58,0,0,0-1.4,1.57h14.08A1.58,1.58,0,0,0,146.81,147.29Z"/><line class="cls-19" x1="90.37" y1="90.71" x2="90.37" y2="63.64"/><line class="cls-19" x1="82.84" y1="85.18" x2="82.84" y2="73.48"/><polygon class="cls-3" points="85.83 74.36 82.84 69.18 79.85 74.36 85.83 74.36"/><line class="cls-19" x1="97.89" y1="80.87" x2="97.89" y2="80.12"/><line class="cls-20" x1="97.89" y1="77.69" x2="97.89" y2="71.14"/><line class="cls-19" x1="97.89" y1="69.93" x2="97.89" y2="69.18"/><polygon class="cls-3" points="100.88 80 97.89 85.18 94.9 80 100.88 80"/><line class="cls-19" x1="129.52" y1="90.71" x2="129.52" y2="63.64"/><line class="cls-19" x1="122" y1="85.18" x2="122" y2="73.48"/><polygon class="cls-3" points="124.99 74.36 122 69.18 119.01 74.36 124.99 74.36"/><line class="cls-19" x1="137.05" y1="80.87" x2="137.05" y2="80.12"/><line class="cls-20" x1="137.05" y1="77.69" x2="137.05" y2="71.14"/><line class="cls-19" x1="137.05" y1="69.93" x2="137.05" y2="69.18"/><polygon class="cls-3" points="140.04 80 137.05 85.18 134.06 80 140.04 80"/><line class="cls-19" x1="109.7" y1="38.29" x2="109.7" y2="18.79"/><line class="cls-19" x1="74.31" y1="220.86" x2="85.43" y2="220.86"/><polygon class="cls-3" points="75.18 223.85 70 220.85 75.18 217.86 75.18 223.85"/><line class="cls-19" x1="80.69" y1="260.86" x2="79.94" y2="260.86"/><line class="cls-21" x1="77.75" y1="260.86" x2="71.84" y2="260.86"/><line class="cls-19" x1="70.75" y1="260.86" x2="70" y2="260.86"/><polygon class="cls-3" points="79.82 257.86 85 260.86 79.82 263.85 79.82 257.86"/><path class="cls-19" d="M105.83,41,68.08,29.65a4.3,4.3,0,0,1-2.88-3.86v-7"/><path class="cls-19" d="M114,41l43.3-11.45a4.1,4.1,0,0,0,2.9-3.76v-7"/><circle class="cls-22" cx="27.4" cy="200.63" r="1.67"/><circle class="cls-23" cx="22.06" cy="200.64" r="1.67"/><circle class="cls-24" cx="16.72" cy="200.64" r="1.67"/><path class="cls-7" d="M17.93,207.34l-1,1a.43.43,0,0,1-.61,0h0l-7.09-7.08a.88.88,0,0,1,0-1.22h0l1-1h0l7.71,7.69a.43.43,0,0,1,0,.61h0Z"/><path class="cls-25" d="M16.83,193l1,1a.43.43,0,0,1,0,.61h0l-7.57,7.6h0l-1-1a.88.88,0,0,1,0-1.22h0l7-7A.43.43,0,0,1,16.83,193Z"/><path class="cls-7" d="M33.78,199l1,1a.86.86,0,0,1,0,1.22h0l-7.1,7.08a.43.43,0,0,1-.61,0h0l-1-1a.44.44,0,0,1,0-.62h0Z"/><path class="cls-25" d="M34.74,201.2l-1,1h0l-7.57-7.6a.43.43,0,0,1,0-.61h0l1-1a.43.43,0,0,1,.61,0h0l7,7a.88.88,0,0,1,0,1.22h0Z"/><rect class="cls-1" x="47.35" width="35" height="20.86"/><rect class="cls-4" x="47.35" width="35" height="20.86"/><rect class="cls-1" x="92.7" width="35" height="20.86"/><rect class="cls-4" x="92.7" width="35" height="20.86"/><rect class="cls-1" x="137.7" width="45" height="20.86"/><rect class="cls-4" x="137.7" width="45" height="20.86"/><rect class="cls-1" x="74.7" y="53.5" width="70" height="10"/><rect class="cls-26" x="74.7" y="53.5" width="70" height="10"/><g id="ad94e297-0e86-4eaf-aac0-d146ee9aea65"><path class="cls-27" d="M105.63,53.85,101,49a2.28,2.28,0,0,1-.78.13,2.43,2.43,0,1,1,2.24-3.32H107v1.62h-4.55a3.68,3.68,0,0,1-.26.57l4.33,4.46,2.34-3.57V37.72h-3.15l4-4,3.94,4H110.5v8.74l5.93-9.05-6-6a1,1,0,0,0-1.41-.05l0,.05h0L94.52,45.89a1,1,0,0,0,0,1.41l0,.05h0L109,61.84l-5.16-5.17Z"/><path class="cls-28" d="M108.89,54.05V48.89l-2.34,3.58,1.72,1.84A2,2,0,0,1,108.89,54.05Z"/><path class="cls-28" d="M124.91,45.89l-8.47-8.48-5.93,9.05v7.61a2.1,2.1,0,0,1,.53.29l6.22-6.28a3.15,3.15,0,0,1-.31-.64h-4.67V45.82H117a2.42,2.42,0,1,1,2.24,3.32,2.53,2.53,0,0,1-.67-.1L112,55.71a2.18,2.18,0,0,1,.11.62,2.43,2.43,0,0,1-4.86.19h0a2.5,2.5,0,0,1,.14-.9l-1.73-1.72-1.84,2.76L109,61.82a1,1,0,0,0,1.41,0l0,0,14.47-14.47a1,1,0,0,0,0-1.41l0,0Z"/><path class="cls-29" d="M117,45.82h-4.74v1.62H117a2.93,2.93,0,0,1-.12-.72A2.28,2.28,0,0,1,117,45.82Z"/><path class="cls-29" d="M102.48,47.44H107V45.82h-4.62a2.14,2.14,0,0,1,.19.9A2.19,2.19,0,0,1,102.48,47.44Z"/><path class="cls-29" d="M112,55.71,118.59,49a2.43,2.43,0,0,1-1.33-1L111,54.36A2.28,2.28,0,0,1,112,55.71Z"/><path class="cls-29" d="M108.32,54.31l-1.72-1.84L102.22,48A2.49,2.49,0,0,1,101,49l4.68,4.84,1.73,1.72A2.48,2.48,0,0,1,108.32,54.31Z"/><path class="cls-1" d="M113.65,37.72l-3.93-4-4,4h3.15V54.05a2.09,2.09,0,0,0-.57.26,2.41,2.41,0,1,0,2.81,3.92A2.45,2.45,0,0,0,112,57a2.31,2.31,0,0,0,.11-.69,2.18,2.18,0,0,0-.11-.62,2.26,2.26,0,0,0-.93-1.35,2.1,2.1,0,0,0-.53-.29V37.72Zm-3.93,20a1.35,1.35,0,1,1,1.34-1.36v0h0a1.34,1.34,0,0,1-1.34,1.29Z"/><path class="cls-1" d="M102.22,48a3.68,3.68,0,0,0,.26-.57,2.22,2.22,0,0,0,.12-.72,2.14,2.14,0,0,0-.19-.9,2.41,2.41,0,1,0-2.24,3.32A2.36,2.36,0,0,0,101,49,2.49,2.49,0,0,0,102.22,48Zm-2,0a1.35,1.35,0,1,1,1.35-1.35h0a1.35,1.35,0,0,1-1.29,1.4h-.06Z"/><path class="cls-1" d="M118.59,49a2.53,2.53,0,0,0,.67.1A2.43,2.43,0,1,0,117,45.82a2.3,2.3,0,0,0-.19.9,2.93,2.93,0,0,0,.12.72,3.15,3.15,0,0,0,.31.64A2.5,2.5,0,0,0,118.59,49Zm.67-3.65a1.56,1.56,0,1,1-.28,0h0Z"/><path class="cls-30" d="M109.72,55a1.35,1.35,0,0,0-1.46,1.23,1.34,1.34,0,0,0,1.23,1.46.89.89,0,0,0,.23,0,1.34,1.34,0,0,0,1.34-1.34h0A1.36,1.36,0,0,0,109.72,55Z"/><circle class="cls-30" cx="100.17" cy="46.72" r="1.34"/><path class="cls-30" d="M119.26,48.06a1.35,1.35,0,1,0-1.34-1.36v0h0A1.34,1.34,0,0,0,119.26,48.06Z"/></g></g><g id="Text"><path class="cls-31" d="M144.28,10.94v3.17h-1V5.71h2.3a3,3,0,0,1,2.09.66,2.32,2.32,0,0,1,.74,1.85,2.54,2.54,0,0,1-.82,2,3.18,3.18,0,0,1-2.22.76Zm0-4.34v3.45h1a2.33,2.33,0,0,0,1.56-.47,1.67,1.67,0,0,0,.53-1.31c0-1.11-.65-1.67-2-1.67Z"/><path class="cls-31" d="M153,9.09a1.18,1.18,0,0,0-.73-.2,1.25,1.25,0,0,0-1,.58,2.75,2.75,0,0,0-.41,1.59v3h-1v-6h1V9.35h0a2.17,2.17,0,0,1,.63-1,1.44,1.44,0,0,1,.94-.35,1.75,1.75,0,0,1,.58.08Z"/><path class="cls-31" d="M158.88,11.35h-4.23a2.23,2.23,0,0,0,.53,1.55,1.89,1.89,0,0,0,1.42.55,3,3,0,0,0,1.87-.67v.9a3.53,3.53,0,0,1-2.1.57,2.53,2.53,0,0,1-2-.81,3.33,3.33,0,0,1-.73-2.3,3.25,3.25,0,0,1,.79-2.28,2.56,2.56,0,0,1,2-.89,2.26,2.26,0,0,1,1.82.77,3.15,3.15,0,0,1,.64,2.11Zm-1-.81a2,2,0,0,0-.4-1.3,1.4,1.4,0,0,0-1.1-.46,1.54,1.54,0,0,0-1.16.49,2.21,2.21,0,0,0-.58,1.27Z"/><path class="cls-31" d="M163.3,6.07a1.34,1.34,0,0,0-.64-.15c-.67,0-1,.42-1,1.27v.92h1.41v.82h-1.41v5.18h-1V8.93h-1V8.11h1v-1a2,2,0,0,1,.54-1.49,1.84,1.84,0,0,1,1.36-.55,1.86,1.86,0,0,1,.7.11Z"/><path class="cls-31" d="M164.58,6.59a.6.6,0,0,1-.44-.18A.57.57,0,0,1,164,6a.61.61,0,0,1,.18-.45.6.6,0,0,1,.44-.18.61.61,0,0,1,.45.18.62.62,0,0,1,0,.89A.61.61,0,0,1,164.58,6.59Zm.47,7.52h-1v-6h1Z"/><path class="cls-31" d="M171.38,8.11l-2,3,2,3h-1.11l-1.18-1.94c-.08-.12-.16-.27-.27-.46h0l-.27.46-1.21,1.94h-1.1l2-2.94-2-3.06h1.12l1.16,2.05.26.47h0l1.5-2.52Z"/><path class="cls-31" d="M175,14.25a2.79,2.79,0,0,1-2.12-.84,3.11,3.11,0,0,1-.8-2.23,3.26,3.26,0,0,1,.83-2.36A3,3,0,0,1,175.15,8a2.7,2.7,0,0,1,2.1.83,3.27,3.27,0,0,1,.75,2.29,3.23,3.23,0,0,1-.81,2.3A2.83,2.83,0,0,1,175,14.25Zm.07-5.47a1.83,1.83,0,0,0-1.46.63,2.59,2.59,0,0,0-.54,1.74,2.46,2.46,0,0,0,.54,1.68,1.87,1.87,0,0,0,1.46.62,1.79,1.79,0,0,0,1.44-.61,2.62,2.62,0,0,0,.5-1.71,2.71,2.71,0,0,0-.5-1.74A1.79,1.79,0,0,0,175.08,8.78Z"/><path class="cls-31" d="M103.94,10.94v3.17h-1V5.71h2.31a3,3,0,0,1,2.09.66,2.35,2.35,0,0,1,.74,1.85,2.54,2.54,0,0,1-.82,2,3.19,3.19,0,0,1-2.23.76Zm0-4.34v3.45h1a2.28,2.28,0,0,0,1.55-.47,1.64,1.64,0,0,0,.54-1.31c0-1.11-.66-1.67-2-1.67Z"/><path class="cls-31" d="M110.66,14.11h-1V5.71h1Z"/><path class="cls-31" d="M113.85,10.94v3.17h-1V5.71h2.3a3,3,0,0,1,2.09.66A2.32,2.32,0,0,1,118,8.22a2.54,2.54,0,0,1-.82,2,3.18,3.18,0,0,1-2.22.76Zm0-4.34v3.45h1a2.33,2.33,0,0,0,1.56-.47A1.67,1.67,0,0,0,117,8.27c0-1.11-.65-1.67-2-1.67Z"/><path class="cls-31" d="M138.93,49.86h-1.21l-4.32-6.7a2.57,2.57,0,0,1-.27-.52h0a7.12,7.12,0,0,1,0,1.15v6.07h-1v-8.4h1.27l4.21,6.59a5.88,5.88,0,0,1,.34.56h0a9,9,0,0,1-.05-1.23V41.46h1Z"/><path class="cls-31" d="M147.64,49.86h-1.09l-.89-2.35h-3.57l-.83,2.35h-1.1l3.22-8.4h1Zm-2.31-3.24L144,43a2.59,2.59,0,0,1-.13-.56h0a3.36,3.36,0,0,1-.13.56l-1.31,3.58Z"/><path class="cls-31" d="M153,42.35h-2.43v7.51h-1V42.35h-2.42v-.89H153Z"/><path class="cls-31" d="M58.65,10.94v3.17h-1V5.71H60a3,3,0,0,1,2.09.66,2.35,2.35,0,0,1,.74,1.85,2.55,2.55,0,0,1-.83,2,3.16,3.16,0,0,1-2.22.76Zm0-4.34v3.45h1a2.33,2.33,0,0,0,1.56-.47,1.64,1.64,0,0,0,.54-1.31c0-1.11-.66-1.67-2-1.67Z"/><path class="cls-31" d="M65.37,14.11h-1V5.71h1Z"/><path class="cls-31" d="M68.57,10.94v3.17h-1V5.71h2.31A3,3,0,0,1,72,6.37a2.35,2.35,0,0,1,.74,1.85,2.54,2.54,0,0,1-.82,2,3.19,3.19,0,0,1-2.23.76Zm0-4.34v3.45h1a2.28,2.28,0,0,0,1.55-.47,1.64,1.64,0,0,0,.54-1.31c0-1.11-.66-1.67-2-1.67Z"/><path class="cls-31" d="M27.61,105.66v-1.2a2,2,0,0,0,.49.32,4,4,0,0,0,.6.25,4.85,4.85,0,0,0,.63.16,4.27,4.27,0,0,0,.59,0,2.31,2.31,0,0,0,1.39-.35,1.19,1.19,0,0,0,.45-1,1.24,1.24,0,0,0-.15-.62,1.68,1.68,0,0,0-.42-.47,3.55,3.55,0,0,0-.64-.42l-.8-.41c-.3-.16-.58-.31-.83-.47a3.38,3.38,0,0,1-.68-.52,2.08,2.08,0,0,1-.46-.65,2.24,2.24,0,0,1,.1-1.88,2.07,2.07,0,0,1,.68-.73,2.83,2.83,0,0,1,1-.42,4,4,0,0,1,1.1-.14,4.11,4.11,0,0,1,1.85.31v1.14a3.38,3.38,0,0,0-2-.53,3,3,0,0,0-.66.07,1.76,1.76,0,0,0-.58.23,1.16,1.16,0,0,0-.42.4,1.09,1.09,0,0,0-.17.61,1.31,1.31,0,0,0,.13.58,1.34,1.34,0,0,0,.36.44,3,3,0,0,0,.59.39c.23.13.49.26.79.41s.6.32.88.49a4.59,4.59,0,0,1,.72.56,2.53,2.53,0,0,1,.5.69,2,2,0,0,1,.18.86,2.14,2.14,0,0,1-.25,1.09,2,2,0,0,1-.67.73,2.77,2.77,0,0,1-1,.4,4.79,4.79,0,0,1-1.16.13,3.31,3.31,0,0,1-.5,0c-.2,0-.41-.05-.61-.09l-.6-.16A1.64,1.64,0,0,1,27.61,105.66Z"/><path class="cls-31" d="M39.33,106h-1v-1h0a2,2,0,0,1-1.9,1.13c-1.46,0-2.2-.89-2.2-2.65V99.79h1v3.56c0,1.31.5,2,1.49,2a1.5,1.5,0,0,0,1.19-.54,2.12,2.12,0,0,0,.46-1.4V99.79h1Z"/><path class="cls-31" d="M42.29,105.11h0v.9h-1V96.8h1v4.09h0a2.31,2.31,0,0,1,2.12-1.24,2.24,2.24,0,0,1,1.85.83,3.46,3.46,0,0,1,.67,2.24,3.9,3.9,0,0,1-.75,2.5,2.5,2.5,0,0,1-2,.94A2,2,0,0,1,42.29,105.11Zm0-2.51v.87a1.85,1.85,0,0,0,.49,1.31,1.75,1.75,0,0,0,2.66-.15,3.21,3.21,0,0,0,.51-1.93,2.53,2.53,0,0,0-.48-1.63,1.55,1.55,0,0,0-1.28-.58,1.75,1.75,0,0,0-1.38.6A2.22,2.22,0,0,0,42.27,102.6Z"/><path class="cls-31" d="M51.61,102.94H48.34v-.78h3.27Z"/><path class="cls-31" d="M56.55,100.8a1.22,1.22,0,0,0-.75-.2,1.25,1.25,0,0,0-1,.6,2.82,2.82,0,0,0-.42,1.64V106h-1V99.79h1v1.28h0a2.29,2.29,0,0,1,.64-1,1.49,1.49,0,0,1,1-.37,1.52,1.52,0,0,1,.59.09Z"/><path class="cls-31" d="M62.52,103.15H58.18a2.31,2.31,0,0,0,.55,1.6,1.88,1.88,0,0,0,1.45.57,3,3,0,0,0,1.91-.69v.93a3.5,3.5,0,0,1-2.14.6,2.61,2.61,0,0,1-2.05-.85,3.51,3.51,0,0,1-.74-2.38,3.44,3.44,0,0,1,.81-2.37,2.59,2.59,0,0,1,2-.91,2.3,2.3,0,0,1,1.87.79,3.29,3.29,0,0,1,.66,2.19Zm-1-.84A2.09,2.09,0,0,0,61.1,101a1.43,1.43,0,0,0-1.13-.47,1.56,1.56,0,0,0-1.18.5,2.35,2.35,0,0,0-.6,1.32Z"/><path class="cls-31" d="M69.21,106h-1V105h0a2.25,2.25,0,0,1-2.11,1.21,2.28,2.28,0,0,1-1.85-.84,3.44,3.44,0,0,1-.69-2.27,3.76,3.76,0,0,1,.76-2.47,2.54,2.54,0,0,1,2-.93,2,2,0,0,1,1.84,1h0V96.8h1Zm-1-2.81v-.92a1.78,1.78,0,0,0-.5-1.27,1.61,1.61,0,0,0-1.24-.52,1.7,1.7,0,0,0-1.42.66,3,3,0,0,0-.52,1.85,2.67,2.67,0,0,0,.5,1.7,1.62,1.62,0,0,0,1.33.62,1.66,1.66,0,0,0,1.33-.6A2.28,2.28,0,0,0,68.23,103.2Z"/><path class="cls-31" d="M76.1,103.15H71.76a2.31,2.31,0,0,0,.56,1.6,1.87,1.87,0,0,0,1.45.57,3,3,0,0,0,1.91-.69v.93a3.54,3.54,0,0,1-2.15.6,2.59,2.59,0,0,1-2-.85,4,4,0,0,1,.07-4.75,2.58,2.58,0,0,1,2-.91,2.28,2.28,0,0,1,1.86.79,3.29,3.29,0,0,1,.66,2.19Zm-1-.84a2,2,0,0,0-.41-1.35,1.41,1.41,0,0,0-1.12-.47,1.54,1.54,0,0,0-1.18.5,2.22,2.22,0,0,0-.6,1.32Z"/><path class="cls-31" d="M87.67,106H86.56l-.92-2.44H82L81.14,106H80l3.3-8.71h1Zm-2.36-3.36L84,98.94a4.93,4.93,0,0,1-.13-.58h0a3.29,3.29,0,0,1-.14.58l-1.34,3.71Z"/><path class="cls-31" d="M133.16,105.45V104.3a2.21,2.21,0,0,0,.48.31,3.72,3.72,0,0,0,.58.24c.21.06.41.11.62.15a4.13,4.13,0,0,0,.58,0,2.28,2.28,0,0,0,1.35-.33,1.15,1.15,0,0,0,.45-1,1.1,1.1,0,0,0-.15-.59,1.76,1.76,0,0,0-.41-.46,4.57,4.57,0,0,0-.63-.4l-.77-.4c-.3-.15-.57-.3-.82-.45a3.54,3.54,0,0,1-.67-.5,2.26,2.26,0,0,1-.44-.62,2.1,2.1,0,0,1-.16-.82,2,2,0,0,1,.25-1,2.18,2.18,0,0,1,.66-.69,3,3,0,0,1,.94-.41,4.3,4.3,0,0,1,1.07-.14,4.08,4.08,0,0,1,1.81.3v1.11a3.24,3.24,0,0,0-1.91-.52,2.88,2.88,0,0,0-.65.07,1.78,1.78,0,0,0-.57.22,1.27,1.27,0,0,0-.41.39,1,1,0,0,0-.16.58,1.22,1.22,0,0,0,.12.56,1.42,1.42,0,0,0,.36.43,3.52,3.52,0,0,0,.57.37l.77.4a8.69,8.69,0,0,1,.86.46,4,4,0,0,1,.71.55,2.53,2.53,0,0,1,.48.66,1.84,1.84,0,0,1,.18.83,2.14,2.14,0,0,1-.24,1,2.1,2.1,0,0,1-.66.7,3,3,0,0,1-.95.38,5.24,5.24,0,0,1-1.14.12l-.49,0-.6-.09a4.74,4.74,0,0,1-.57-.15A1.64,1.64,0,0,1,133.16,105.45Z"/><path class="cls-31" d="M144.61,105.79h-1v-.94h0a2,2,0,0,1-1.86,1.08c-1.43,0-2.14-.85-2.14-2.54V99.81h1v3.42c0,1.27.49,1.9,1.46,1.9a1.47,1.47,0,0,0,1.15-.52,2,2,0,0,0,.46-1.35V99.81h1Z"/><path class="cls-31" d="M147.5,104.93h0v.86h-1V96.93h1v3.93h0a2.27,2.27,0,0,1,2.07-1.19,2.23,2.23,0,0,1,1.81.8,3.37,3.37,0,0,1,.65,2.16,3.73,3.73,0,0,1-.73,2.4,2.46,2.46,0,0,1-2,.9A2,2,0,0,1,147.5,104.93Zm0-2.42v.84a1.75,1.75,0,0,0,.49,1.26,1.71,1.71,0,0,0,2.59-.15,3,3,0,0,0,.49-1.85,2.41,2.41,0,0,0-.46-1.57,1.51,1.51,0,0,0-1.25-.56,1.7,1.7,0,0,0-1.35.58A2.1,2.1,0,0,0,147.47,102.51Z"/><path class="cls-31" d="M156.6,102.84h-3.2v-.76h3.2Z"/><path class="cls-31" d="M161.42,100.78a1.2,1.2,0,0,0-.73-.19,1.24,1.24,0,0,0-1,.57,2.74,2.74,0,0,0-.41,1.58v3.05h-1v-6h1V101h0a2.09,2.09,0,0,1,.63-1,1.4,1.4,0,0,1,.94-.36,1.5,1.5,0,0,1,.58.09Z"/><path class="cls-31" d="M167.24,103H163a2.16,2.16,0,0,0,.54,1.54,1.82,1.82,0,0,0,1.41.55,2.94,2.94,0,0,0,1.87-.67v.9a3.53,3.53,0,0,1-2.1.57,2.53,2.53,0,0,1-2-.81,3.33,3.33,0,0,1-.73-2.3,3.28,3.28,0,0,1,.79-2.27,2.55,2.55,0,0,1,2-.88,2.25,2.25,0,0,1,1.82.76,3.15,3.15,0,0,1,.64,2.11Zm-1-.81a2,2,0,0,0-.4-1.29,1.37,1.37,0,0,0-1.1-.46,1.59,1.59,0,0,0-1.16.48,2.21,2.21,0,0,0-.58,1.27Z"/><path class="cls-31" d="M173.78,105.79h-1v-1h0a2.21,2.21,0,0,1-2.06,1.15,2.25,2.25,0,0,1-1.81-.8,3.31,3.31,0,0,1-.67-2.19,3.59,3.59,0,0,1,.75-2.38,2.48,2.48,0,0,1,2-.89,1.91,1.91,0,0,1,1.8,1h0V96.93h1Zm-1-2.7v-.88a1.7,1.7,0,0,0-.48-1.23,1.6,1.6,0,0,0-1.22-.5,1.64,1.64,0,0,0-1.38.64,2.78,2.78,0,0,0-.51,1.77,2.56,2.56,0,0,0,.48,1.64,1.6,1.6,0,0,0,1.3.6,1.68,1.68,0,0,0,1.31-.58A2.17,2.17,0,0,0,172.82,103.09Z"/><path class="cls-31" d="M180.5,103h-4.23a2.21,2.21,0,0,0,.54,1.54,1.84,1.84,0,0,0,1.42.55,2.93,2.93,0,0,0,1.86-.67v.9a3.52,3.52,0,0,1-2.09.57,2.54,2.54,0,0,1-2-.81,3.37,3.37,0,0,1-.73-2.3,3.24,3.24,0,0,1,.8-2.27,2.53,2.53,0,0,1,2-.88,2.25,2.25,0,0,1,1.82.76,3.15,3.15,0,0,1,.64,2.11Zm-1-.81a1.93,1.93,0,0,0-.4-1.29,1.36,1.36,0,0,0-1.1-.46,1.55,1.55,0,0,0-1.15.48,2.22,2.22,0,0,0-.59,1.27Z"/><path class="cls-31" d="M185.3,105.79V97.41h2.39a2.6,2.6,0,0,1,1.73.54,1.71,1.71,0,0,1,.63,1.38,2,2,0,0,1-.38,1.24,2.09,2.09,0,0,1-1.07.75v0A2.15,2.15,0,0,1,190,102a2,2,0,0,1,.51,1.41,2.22,2.22,0,0,1-.77,1.74,2.91,2.91,0,0,1-1.95.66Zm1-7.49V101h1a1.91,1.91,0,0,0,1.27-.39,1.36,1.36,0,0,0,.46-1.1c0-.81-.53-1.22-1.61-1.22Zm0,3.59v3h1.34a2,2,0,0,0,1.34-.41,1.42,1.42,0,0,0,.48-1.13c0-1-.68-1.48-2-1.48Z"/><path class="cls-31" d="M34,157.38l-3.12,8.54H29.83l-3.06-8.54h1.1l2.34,6.77a4.53,4.53,0,0,1,.17.76h0a4.11,4.11,0,0,1,.19-.77L33,157.38Z"/><path class="cls-31" d="M43.82,165.92h-1v-5.73c0-.45,0-1,.09-1.66h0a5.46,5.46,0,0,1-.25.83l-2.88,6.56h-.49l-2.87-6.51a4.74,4.74,0,0,1-.25-.88h0c0,.34.05.9.05,1.68v5.71h-1v-8.54h1.3l2.59,6a7.91,7.91,0,0,1,.39,1h0c.17-.47.31-.82.41-1.05l2.64-5.93h1.24Z"/><path class="cls-31" d="M75.79,157.38l-3.12,8.54H71.58l-3.06-8.54h1.1L72,164.15a3.72,3.72,0,0,1,.17.76h0a3.45,3.45,0,0,1,.19-.77l2.38-6.76Z"/><path class="cls-31" d="M85.56,165.92h-1v-5.73c0-.45,0-1,.08-1.66h0a5.46,5.46,0,0,1-.25.83l-2.89,6.56H81l-2.87-6.51a4.6,4.6,0,0,1-.26-.88h0c0,.34,0,.9,0,1.68v5.71H77v-8.54h1.31l2.59,6a7.91,7.91,0,0,1,.39,1h0c.17-.47.3-.82.41-1.05l2.64-5.93h1.23Z"/><path class="cls-31" d="M139.37,157.38l-3.12,8.54h-1.09l-3.06-8.54h1.1l2.34,6.77a4.53,4.53,0,0,1,.17.76h0a3.51,3.51,0,0,1,.2-.77l2.38-6.76Z"/><path class="cls-31" d="M149.15,165.92h-1v-5.73c0-.45,0-1,.08-1.66h0a5.46,5.46,0,0,1-.25.83l-2.88,6.56h-.48l-2.88-6.51a4.74,4.74,0,0,1-.25-.88h0c0,.34.05.9.05,1.68v5.71h-.95v-8.54h1.3l2.59,6a7.91,7.91,0,0,1,.39,1h0c.16-.47.3-.82.4-1.05l2.64-5.93h1.24Z"/><path class="cls-31" d="M175.5,157.38l-3.12,8.54h-1.09l-3.06-8.54h1.1l2.33,6.77a3.16,3.16,0,0,1,.17.76h0a4.11,4.11,0,0,1,.19-.77l2.38-6.76Z"/><path class="cls-31" d="M185.27,165.92h-1v-5.73c0-.45,0-1,.08-1.66h0a5.46,5.46,0,0,1-.25.83l-2.88,6.56h-.49l-2.87-6.51a4.6,4.6,0,0,1-.26-.88h0c0,.34,0,.9,0,1.68v5.71h-1v-8.54H178l2.59,6a7.91,7.91,0,0,1,.39,1h0c.17-.47.31-.82.41-1.05l2.64-5.93h1.23Z"/><path class="cls-31" d="M187.06,165.58V164.4a2.23,2.23,0,0,0,.48.32,5.19,5.19,0,0,0,.59.24,4.31,4.31,0,0,0,.62.15,3.09,3.09,0,0,0,.58.06,2.23,2.23,0,0,0,1.36-.35,1.29,1.29,0,0,0,.3-1.58,1.55,1.55,0,0,0-.42-.47,3.92,3.92,0,0,0-.62-.41l-.78-.4-.83-.46a3.89,3.89,0,0,1-.66-.52,2,2,0,0,1-.45-.63,2.12,2.12,0,0,1-.16-.83,1.92,1.92,0,0,1,.26-1,2.07,2.07,0,0,1,.66-.72,3.08,3.08,0,0,1,.94-.41,4.3,4.3,0,0,1,1.07-.14,4.13,4.13,0,0,1,1.82.3v1.13a3.27,3.27,0,0,0-1.92-.53,3.69,3.69,0,0,0-.65.07,1.8,1.8,0,0,0-.57.23,1.12,1.12,0,0,0-.41.4,1,1,0,0,0-.16.59,1.26,1.26,0,0,0,.12.57,1.41,1.41,0,0,0,.35.43,3.43,3.43,0,0,0,.58.38c.22.13.48.26.78.41s.58.31.85.47a4.17,4.17,0,0,1,.72.56,2.42,2.42,0,0,1,.48.67,1.93,1.93,0,0,1,.18.85,2,2,0,0,1-.9,1.78,2.94,2.94,0,0,1-1,.39,5.24,5.24,0,0,1-1.14.12l-.49,0-.6-.09c-.21-.05-.4-.1-.58-.16A2,2,0,0,1,187.06,165.58Z"/><path class="cls-31" d="M193.42,165.58V164.4a2.86,2.86,0,0,0,.48.32,6.07,6.07,0,0,0,.59.24,4.66,4.66,0,0,0,.62.15,3.09,3.09,0,0,0,.58.06,2.21,2.21,0,0,0,1.36-.35,1.29,1.29,0,0,0,.3-1.58,1.65,1.65,0,0,0-.41-.47,4.58,4.58,0,0,0-.63-.41l-.78-.4-.82-.46A3.61,3.61,0,0,1,194,161a2,2,0,0,1-.44-.63,2,2,0,0,1-.16-.83,1.92,1.92,0,0,1,.25-1,2.28,2.28,0,0,1,.66-.72,3.19,3.19,0,0,1,.94-.41,4.3,4.3,0,0,1,1.07-.14,4.1,4.1,0,0,1,1.82.3v1.13a3.27,3.27,0,0,0-1.92-.53,3.48,3.48,0,0,0-.64.07,1.76,1.76,0,0,0-.58.23,1.21,1.21,0,0,0-.41.4,1,1,0,0,0-.16.59,1.26,1.26,0,0,0,.12.57,1.31,1.31,0,0,0,.36.43,3,3,0,0,0,.57.38l.78.41c.3.15.59.31.86.47a4.08,4.08,0,0,1,.71.56,2.46,2.46,0,0,1,.49.67,2.08,2.08,0,0,1,.18.85,2.16,2.16,0,0,1-.25,1.06,2,2,0,0,1-.66.72,2.8,2.8,0,0,1-.95.39,5.24,5.24,0,0,1-1.14.12l-.5,0-.6-.09c-.2-.05-.4-.1-.58-.16A2,2,0,0,1,193.42,165.58Z"/><path class="cls-31" d="M16.33,214.35l-3.12,8.53H12.12l-3.06-8.53h1.1l2.34,6.76a4.77,4.77,0,0,1,.17.76h0a3.66,3.66,0,0,1,.2-.77l2.38-6.75Z"/><path class="cls-31" d="M17.91,215.24a.6.6,0,0,1-.44-.18.61.61,0,0,1-.18-.45.62.62,0,0,1,.18-.46.6.6,0,0,1,.44-.18.61.61,0,0,1,.45.18.62.62,0,0,1,.18.46.6.6,0,0,1-.18.44A.58.58,0,0,1,17.91,215.24Zm.47,7.64h-1v-6.09h1Z"/><path class="cls-31" d="M23.47,217.77a1.18,1.18,0,0,0-.73-.19,1.22,1.22,0,0,0-1,.59,2.79,2.79,0,0,0-.41,1.6v3.11h-1v-6.09h1V218h0a2.15,2.15,0,0,1,.63-1,1.43,1.43,0,0,1,.95-.36,1.65,1.65,0,0,1,.57.08Z"/><path class="cls-31" d="M27.31,222.82a1.77,1.77,0,0,1-.9.19c-1.05,0-1.58-.59-1.58-1.78v-3.61h-1v-.83h1V215.3l1-.32v1.81h1.51v.83H25.8v3.43a1.5,1.5,0,0,0,.2.88.84.84,0,0,0,.68.26,1,1,0,0,0,.63-.2Z"/><path class="cls-31" d="M33.47,222.88h-1v-1h0A2,2,0,0,1,30.63,223c-1.44,0-2.16-.87-2.16-2.6v-3.64h1v3.48c0,1.29.49,1.93,1.46,1.93a1.46,1.46,0,0,0,1.16-.52,2,2,0,0,0,.46-1.38v-3.51h1Z"/><path class="cls-31" d="M39.73,222.88h-1v-.95h0a2,2,0,0,1-1.85,1.1,1.94,1.94,0,0,1-1.41-.49,1.66,1.66,0,0,1-.51-1.28c0-1.14.66-1.8,2-2l1.81-.25c0-1-.42-1.55-1.25-1.55a2.94,2.94,0,0,0-2,.75v-1a3.69,3.69,0,0,1,2-.57c1.41,0,2.12.76,2.12,2.28Zm-1-3.08-1.46.2a2.34,2.34,0,0,0-1,.34,1,1,0,0,0-.34.85.93.93,0,0,0,.31.73,1.2,1.2,0,0,0,.84.28,1.57,1.57,0,0,0,1.19-.5,1.84,1.84,0,0,0,.47-1.29Z"/><path class="cls-31" d="M42,215.24a.6.6,0,0,1-.44-.18.61.61,0,0,1-.18-.45.62.62,0,0,1,.18-.46A.6.6,0,0,1,42,214a.61.61,0,0,1,.45.18.59.59,0,0,1,.19.46.58.58,0,0,1-.19.44A.58.58,0,0,1,42,215.24Zm.47,7.64h-1v-6.09h1Z"/><path class="cls-31" d="M44.1,222.66v-1a2.79,2.79,0,0,0,1.73.59c.85,0,1.28-.28,1.28-.85a.79.79,0,0,0-.11-.42,1.22,1.22,0,0,0-.3-.3,2.86,2.86,0,0,0-.43-.23l-.54-.22c-.27-.11-.5-.22-.7-.32a2.31,2.31,0,0,1-.51-.37,1.6,1.6,0,0,1-.31-.47,1.9,1.9,0,0,1-.1-.61,1.46,1.46,0,0,1,.2-.76,1.82,1.82,0,0,1,.51-.56,2.36,2.36,0,0,1,.74-.33,3.08,3.08,0,0,1,.86-.12,3.3,3.3,0,0,1,1.4.28v1a2.69,2.69,0,0,0-1.53-.44,1.83,1.83,0,0,0-.49.06,1.15,1.15,0,0,0-.37.17.76.76,0,0,0-.24.27.7.7,0,0,0-.09.35.82.82,0,0,0,.09.4.84.84,0,0,0,.25.29,1.59,1.59,0,0,0,.39.22l.54.22c.27.11.51.21.72.32a2.44,2.44,0,0,1,.54.37,1.52,1.52,0,0,1,.34.47,1.59,1.59,0,0,1,.12.64,1.54,1.54,0,0,1-.19.79,1.74,1.74,0,0,1-.53.55,2.28,2.28,0,0,1-.76.33,3.7,3.7,0,0,1-.9.11A3.39,3.39,0,0,1,44.1,222.66Z"/><path class="cls-31" d="M16.11,236.08H14.93l-1.41-2.39a6.32,6.32,0,0,0-.37-.57,2.27,2.27,0,0,0-.38-.38,1.36,1.36,0,0,0-.41-.22,1.55,1.55,0,0,0-.5-.07h-.81v3.63h-1v-8.53h2.52a3.65,3.65,0,0,1,1,.13,2.42,2.42,0,0,1,.81.43,2,2,0,0,1,.54.71,2.54,2.54,0,0,1,.06,1.82,2.13,2.13,0,0,1-.37.66,2.37,2.37,0,0,1-.59.5,3,3,0,0,1-.78.32v0a1.81,1.81,0,0,1,.37.22,1.64,1.64,0,0,1,.3.29,4.17,4.17,0,0,1,.28.38l.31.49Zm-5.06-7.63v3.1h1.34a1.92,1.92,0,0,0,.69-.12,1.46,1.46,0,0,0,.54-.32,1.51,1.51,0,0,0,.36-.52,1.67,1.67,0,0,0,.13-.69,1.37,1.37,0,0,0-.44-1.07,1.89,1.89,0,0,0-1.27-.38Z"/><path class="cls-31" d="M21.63,233.28H17.37a2.29,2.29,0,0,0,.55,1.57,1.84,1.84,0,0,0,1.42.55,2.94,2.94,0,0,0,1.87-.67v.91a3.46,3.46,0,0,1-2.1.59,2.56,2.56,0,0,1-2-.83,3.49,3.49,0,0,1-.73-2.34,3.37,3.37,0,0,1,.8-2.32,2.53,2.53,0,0,1,2-.9,2.24,2.24,0,0,1,1.83.78,3.25,3.25,0,0,1,.65,2.15Zm-1-.83a2,2,0,0,0-.4-1.31,1.37,1.37,0,0,0-1.11-.47,1.56,1.56,0,0,0-1.16.49,2.27,2.27,0,0,0-.58,1.29Z"/><path class="cls-31" d="M28.23,236.08h-1v-1h0a2.24,2.24,0,0,1-2.07,1.18,2.27,2.27,0,0,1-1.82-.82,3.41,3.41,0,0,1-.68-2.23,3.66,3.66,0,0,1,.76-2.43,2.48,2.48,0,0,1,2-.91,1.93,1.93,0,0,1,1.81,1h0v-3.77h1Zm-1-2.75v-.9a1.74,1.74,0,0,0-.48-1.25,1.61,1.61,0,0,0-1.22-.51,1.64,1.64,0,0,0-1.39.65,2.88,2.88,0,0,0-.51,1.81,2.55,2.55,0,0,0,.49,1.66,1.57,1.57,0,0,0,1.3.61,1.62,1.62,0,0,0,1.31-.59A2.21,2.21,0,0,0,27.26,233.33Z"/><path class="cls-31" d="M35,233.28H30.77a2.24,2.24,0,0,0,.54,1.57,1.84,1.84,0,0,0,1.42.55,2.94,2.94,0,0,0,1.87-.67v.91a3.46,3.46,0,0,1-2.1.59,2.52,2.52,0,0,1-2-.83,3.44,3.44,0,0,1-.73-2.34,3.37,3.37,0,0,1,.79-2.32,2.56,2.56,0,0,1,2-.9,2.24,2.24,0,0,1,1.83.78,3.25,3.25,0,0,1,.65,2.15Zm-1-.83a2,2,0,0,0-.4-1.31,1.35,1.35,0,0,0-1.1-.47,1.53,1.53,0,0,0-1.16.49,2.21,2.21,0,0,0-.59,1.29Z"/><path class="cls-31" d="M94.75,216.42a15.63,15.63,0,0,1,2.32-.18,4.81,4.81,0,0,1,3.41,1,3.88,3.88,0,0,1,1.19,3,4.46,4.46,0,0,1-1.22,3.28,5.15,5.15,0,0,1-3.72,1.21,18.2,18.2,0,0,1-2-.1Zm1.09,7.44a6.84,6.84,0,0,0,1.1.07,3.24,3.24,0,0,0,3.59-3.58c0-2-1.11-3.25-3.41-3.25a5.62,5.62,0,0,0-1.28.12Z"/><path class="cls-31" d="M104.35,217a.64.64,0,0,1-.7.67A.66.66,0,0,1,103,217a.67.67,0,0,1,.69-.69A.65.65,0,0,1,104.35,217Zm-1.22,7.75v-6h1.1v6Z"/><path class="cls-31" d="M106.14,220.56c0-.71,0-1.32,0-1.88h1l0,1.18h0a1.82,1.82,0,0,1,1.68-1.32,1,1,0,0,1,.31,0v1a2.09,2.09,0,0,0-.38,0,1.54,1.54,0,0,0-1.47,1.41,2.59,2.59,0,0,0,0,.51v3.23h-1.09Z"/><path class="cls-31" d="M110.8,221.9a1.94,1.94,0,0,0,2.08,2.1,4,4,0,0,0,1.67-.31l.19.79a5,5,0,0,1-2,.38,2.82,2.82,0,0,1-3-3.06c0-1.82,1.08-3.26,2.84-3.26a2.56,2.56,0,0,1,2.5,2.85,3,3,0,0,1,0,.51Zm3.23-.79a1.56,1.56,0,0,0-1.53-1.78,1.81,1.81,0,0,0-1.68,1.78Z"/><path class="cls-31" d="M120.87,224.5a3.73,3.73,0,0,1-1.59.35l-.31.5a1,1,0,0,1,.87.91c0,.75-.62,1-1.3,1a1.93,1.93,0,0,1-.87-.21l.18-.56a1.41,1.41,0,0,0,.69.16c.29,0,.54-.09.54-.39s-.39-.46-1-.52l.53-1a2.84,2.84,0,0,1-2.53-3.05,3.08,3.08,0,0,1,3.25-3.21,3.88,3.88,0,0,1,1.53.31l-.25.85a2.58,2.58,0,0,0-1.28-.28,2.28,2.28,0,0,0,0,4.55,3.21,3.21,0,0,0,1.35-.3Z"/><path class="cls-31" d="M126.46,223.28a9.17,9.17,0,0,0,.1,1.45h-1l-.09-.77h0a2.25,2.25,0,0,1-1.85.9,1.72,1.72,0,0,1-1.85-1.73c0-1.47,1.3-2.27,3.64-2.25v-.13a1.25,1.25,0,0,0-1.38-1.4,3,3,0,0,0-1.57.45l-.25-.72a3.7,3.7,0,0,1,2-.54c1.84,0,2.29,1.26,2.29,2.47Zm-3.72-5.64c0-.81.31-1.3.85-1.3a1.49,1.49,0,0,1,.78.28,1.26,1.26,0,0,0,.52.21c.2,0,.32-.11.35-.54h.59q0,1.26-.87,1.26a1.66,1.66,0,0,1-.76-.25,1.07,1.07,0,0,0-.53-.22c-.2,0-.3.21-.33.56Zm2.66,4c-1.2,0-2.56.19-2.56,1.36a1,1,0,0,0,1,1.05,1.5,1.5,0,0,0,1.46-1,1.07,1.07,0,0,0,.06-.35Z"/><path class="cls-31" d="M133.8,221.65a3,3,0,0,1-3,3.21,2.87,2.87,0,0,1-2.9-3.11,3,3,0,0,1,3-3.21A2.86,2.86,0,0,1,133.8,221.65Zm-4.8.06c0,1.33.77,2.33,1.84,2.33s1.84-1,1.84-2.35c0-1-.51-2.33-1.81-2.33S129,220.56,129,221.71Z"/><path class="cls-31" d="M143.24,215.85v7.31c0,.54,0,1.15,0,1.57h-1l-.05-1h0a2.25,2.25,0,0,1-2.06,1.18c-1.47,0-2.59-1.23-2.59-3.07,0-2,1.24-3.25,2.71-3.25a2,2,0,0,1,1.83.93h0v-3.62Zm-1.1,5.29a1.75,1.75,0,0,0,0-.46,1.62,1.62,0,0,0-1.59-1.28c-1.13,0-1.81,1-1.81,2.34s.6,2.24,1.79,2.24a1.66,1.66,0,0,0,1.61-1.32,1.78,1.78,0,0,0,0-.47Z"/><path class="cls-31" d="M150.63,221.65a3,3,0,0,1-3,3.21,2.88,2.88,0,0,1-2.9-3.11,3,3,0,0,1,3-3.21A2.87,2.87,0,0,1,150.63,221.65Zm-4.8.06c0,1.33.76,2.33,1.83,2.33s1.84-1,1.84-2.35c0-1-.51-2.33-1.81-2.33S145.83,220.56,145.83,221.71Z"/><path class="cls-31" d="M155,224.73v-5.22h-.85v-.83H155v-.26a2.74,2.74,0,0,1,.85-2.09,2.89,2.89,0,0,1,1.94-.61,3.88,3.88,0,0,1,1.81.4v8.61h-1.09v-8a1.92,1.92,0,0,0-.9-.16c-1.14,0-1.52.83-1.52,1.81v.3h1.41v.83H156v5.22Z"/><path class="cls-31" d="M166.53,223.08c0,.62,0,1.17.05,1.65h-1l-.06-1h0a2.25,2.25,0,0,1-2,1.12c-.95,0-2.08-.52-2.08-2.65v-3.53h1.1V222c0,1.15.35,1.92,1.35,1.92a1.59,1.59,0,0,0,1.45-1,1.64,1.64,0,0,0,.1-.56v-3.71h1.1Z"/><path class="cls-31" d="M169,218.68l.86,1.3c.23.33.42.65.62,1h0c.2-.36.4-.67.6-1l.85-1.28h1.19L171,221.6l2.12,3.13h-1.25l-.88-1.37c-.24-.35-.44-.68-.65-1.05h0c-.2.38-.41.69-.64,1.05l-.87,1.37h-1.21l2.15-3.09-2.05-3Z"/><path class="cls-31" d="M179.6,221.65a3,3,0,0,1-3,3.21,2.87,2.87,0,0,1-2.9-3.11,3,3,0,0,1,3-3.21A2.87,2.87,0,0,1,179.6,221.65Zm-4.8.06c0,1.33.76,2.33,1.84,2.33s1.83-1,1.83-2.35c0-1-.51-2.33-1.81-2.33S174.8,220.56,174.8,221.71Z"/><path class="cls-31" d="M189,215.85v7.31c0,.54,0,1.15.05,1.57h-1l0-1h0a2.25,2.25,0,0,1-2.07,1.18c-1.46,0-2.58-1.23-2.58-3.07,0-2,1.23-3.25,2.71-3.25a2,2,0,0,1,1.82.93h0v-3.62Zm-1.1,5.29a2.31,2.31,0,0,0-.05-.46,1.62,1.62,0,0,0-1.59-1.28c-1.14,0-1.81,1-1.81,2.34s.6,2.24,1.79,2.24a1.66,1.66,0,0,0,1.61-1.32,2.34,2.34,0,0,0,.05-.47Z"/><path class="cls-31" d="M191.56,221.9a1.94,1.94,0,0,0,2.08,2.1,4.06,4.06,0,0,0,1.67-.31l.19.79a5,5,0,0,1-2,.38,2.82,2.82,0,0,1-3-3.06c0-1.82,1.08-3.26,2.84-3.26a2.57,2.57,0,0,1,2.5,2.85,4.58,4.58,0,0,1,0,.51Zm3.23-.79a1.56,1.56,0,0,0-1.53-1.78,1.81,1.81,0,0,0-1.68,1.78Z"/><path class="cls-31" d="M100.19,234.85a3,3,0,0,1-3,3.21,2.87,2.87,0,0,1-2.9-3.11,3,3,0,0,1,3-3.21A2.86,2.86,0,0,1,100.19,234.85Zm-4.8.06c0,1.33.76,2.33,1.84,2.33s1.84-1,1.84-2.35c0-1-.52-2.33-1.82-2.33S95.39,233.76,95.39,234.91Z"/><path class="cls-31" d="M101.67,233.76c0-.71,0-1.32,0-1.88h1l0,1.18h0a1.8,1.8,0,0,1,1.67-1.32,1,1,0,0,1,.31,0v1a2,2,0,0,0-.37,0,1.54,1.54,0,0,0-1.48,1.41,3.67,3.67,0,0,0,0,.51v3.23h-1.08Z"/><path class="cls-31" d="M107.12,230.18a.69.69,0,0,1-1.37,0,.67.67,0,0,1,.69-.69A.66.66,0,0,1,107.12,230.18Zm-1.23,7.75v-6.05H107v6.05Z"/><path class="cls-31" d="M114.07,237.05a3.45,3.45,0,0,1-.87,2.76,3.19,3.19,0,0,1-2.2.73,4,4,0,0,1-2-.5l.28-.84a3.39,3.39,0,0,0,1.77.48c1.13,0,1.95-.59,1.95-2.12v-.67h0a2.17,2.17,0,0,1-1.93,1,2.7,2.7,0,0,1-2.57-3c0-2,1.33-3.21,2.72-3.21a2,2,0,0,1,1.89,1h0l.05-.91h1c0,.43-.05.92-.05,1.66ZM113,234.26a1.6,1.6,0,0,0-1.6-1.66c-1,0-1.8.89-1.8,2.29,0,1.19.6,2.17,1.79,2.17a1.6,1.6,0,0,0,1.52-1.12,2,2,0,0,0,.09-.59Z"/><path class="cls-31" d="M116.59,235.1a1.94,1.94,0,0,0,2.08,2.1,4.06,4.06,0,0,0,1.67-.31l.19.79a5,5,0,0,1-2,.38,2.81,2.81,0,0,1-3-3.06c0-1.82,1.08-3.26,2.84-3.26a2.57,2.57,0,0,1,2.5,2.85,4.58,4.58,0,0,1,0,.51Zm3.23-.79a1.56,1.56,0,0,0-1.53-1.78,1.82,1.82,0,0,0-1.69,1.78Z"/><path class="cls-31" d="M122.33,233.51c0-.62,0-1.13,0-1.63h1l.05,1h0a2.1,2.1,0,0,1,1.9-1.11,1.79,1.79,0,0,1,1.71,1.21h0a2.39,2.39,0,0,1,.68-.78,2,2,0,0,1,1.34-.43c.8,0,2,.52,2,2.62v3.57h-1.07V234.5c0-1.16-.43-1.86-1.31-1.86a1.41,1.41,0,0,0-1.3,1,1.81,1.81,0,0,0-.09.55v3.74h-1.07V234.3c0-1-.43-1.66-1.27-1.66a1.51,1.51,0,0,0-1.36,1.1,1.57,1.57,0,0,0-.09.54v3.65h-1.07Z"/><path class="cls-31" d="M138,229.25a8.27,8.27,0,0,0-1.57,5.11,8.48,8.48,0,0,0,1.57,5.08h-.86a8.08,8.08,0,0,1-1.64-5.08,8.28,8.28,0,0,1,1.64-5.11Z"/><path class="cls-31" d="M138.73,232.33a14.33,14.33,0,0,1,1.17-3l.7-.07a16.84,16.84,0,0,0-.73,2.92Zm1.86,0a14.37,14.37,0,0,1,1.16-3l.7-.07a17.78,17.78,0,0,0-.74,2.92Z"/><path class="cls-31" d="M143.17,236.8a2.85,2.85,0,0,0,1.44.44c.8,0,1.18-.4,1.18-.9s-.31-.81-1.13-1.11c-1.08-.39-1.6-1-1.6-1.72a1.87,1.87,0,0,1,2.09-1.77,3.16,3.16,0,0,1,1.49.37l-.28.8a2.31,2.31,0,0,0-1.23-.35c-.65,0-1,.38-1,.83s.37.72,1.15,1c1.05.4,1.59.93,1.59,1.83,0,1.06-.82,1.82-2.26,1.82a3.44,3.44,0,0,1-1.7-.42Z"/><path class="cls-31" d="M153.83,234.85a3,3,0,0,1-3,3.21,2.87,2.87,0,0,1-2.89-3.11,3,3,0,0,1,3-3.21A2.87,2.87,0,0,1,153.83,234.85Zm-4.8.06c0,1.33.76,2.33,1.83,2.33s1.84-1,1.84-2.35c0-1-.51-2.33-1.81-2.33S149,233.76,149,234.91Z"/><path class="cls-31" d="M155.3,229.05h1.1v8.88h-1.1Z"/><path class="cls-31" d="M159.56,230.18a.64.64,0,0,1-.69.67.66.66,0,0,1-.67-.67.67.67,0,0,1,.69-.69A.65.65,0,0,1,159.56,230.18Zm-1.22,7.75v-6.05h1.1v6.05Z"/><path class="cls-31" d="M165.66,237.7a4,4,0,0,1-1.73.36,2.88,2.88,0,0,1-3-3.1,3.07,3.07,0,0,1,3.24-3.21,3.88,3.88,0,0,1,1.53.31l-.25.85a2.58,2.58,0,0,0-1.28-.28,2.28,2.28,0,0,0,0,4.55,3.29,3.29,0,0,0,1.35-.3Z"/><path class="cls-31" d="M168.26,230.18a.64.64,0,0,1-.7.67.66.66,0,0,1-.66-.67.67.67,0,0,1,.69-.69A.65.65,0,0,1,168.26,230.18ZM167,237.93v-6.05h1.1v6.05Z"/><path class="cls-31" d="M171.38,230.43v1.45H173v.84h-1.57V236c0,.75.21,1.17.82,1.17a2.09,2.09,0,0,0,.64-.07l0,.82a2.61,2.61,0,0,1-1,.16,1.51,1.51,0,0,1-1.18-.47,2.21,2.21,0,0,1-.43-1.58v-3.29h-.94v-.84h.94v-1.12Z"/><path class="cls-31" d="M178.53,236.48a8.12,8.12,0,0,0,.1,1.45h-1l-.09-.77h0a2.25,2.25,0,0,1-1.85.9,1.72,1.72,0,0,1-1.85-1.73c0-1.47,1.3-2.27,3.64-2.25V234a1.25,1.25,0,0,0-1.38-1.4,3.06,3.06,0,0,0-1.57.45l-.25-.72a3.7,3.7,0,0,1,2-.54c1.85,0,2.3,1.26,2.3,2.47Zm-1.07-1.64c-1.2,0-2.56.19-2.56,1.36a1,1,0,0,0,1,1.05,1.5,1.5,0,0,0,1.46-1,1.07,1.07,0,0,0,.06-.35Z"/><path class="cls-31" d="M184.71,237.7a3.63,3.63,0,0,1-1.58.35l-.32.5a1,1,0,0,1,.88.91c0,.75-.63,1-1.3,1a1.87,1.87,0,0,1-.88-.21l.19-.56a1.41,1.41,0,0,0,.69.16c.29,0,.54-.09.54-.39s-.39-.46-1-.52l.53-1a2.84,2.84,0,0,1-2.53-3,3.08,3.08,0,0,1,3.25-3.21,3.88,3.88,0,0,1,1.53.31l-.25.85a2.61,2.61,0,0,0-1.28-.28,2.28,2.28,0,0,0,0,4.55,3.17,3.17,0,0,0,1.35-.3Z"/><path class="cls-31" d="M190.31,236.48a9.17,9.17,0,0,0,.1,1.45h-1l-.08-.77h0a2.25,2.25,0,0,1-1.85.9,1.72,1.72,0,0,1-1.85-1.73c0-1.47,1.3-2.27,3.64-2.25V234a1.25,1.25,0,0,0-1.38-1.4,3,3,0,0,0-1.57.45l-.25-.72a3.69,3.69,0,0,1,2-.54c1.85,0,2.3,1.26,2.3,2.47Zm-3.72-5.64c0-.81.31-1.3.85-1.3a1.46,1.46,0,0,1,.77.28,1.29,1.29,0,0,0,.53.21c.2,0,.32-.11.35-.54h.59q0,1.26-.87,1.26a1.63,1.63,0,0,1-.76-.25,1.1,1.1,0,0,0-.54-.22c-.2,0-.3.21-.32.56Zm2.66,4c-1.2,0-2.56.19-2.56,1.36a1,1,0,0,0,1,1.05,1.52,1.52,0,0,0,1.46-1,1.07,1.07,0,0,0,.06-.35Z"/><path class="cls-31" d="M197.65,234.85a3,3,0,0,1-3,3.21,2.87,2.87,0,0,1-2.9-3.11,3,3,0,0,1,3-3.21A2.86,2.86,0,0,1,197.65,234.85Zm-4.8.06c0,1.33.76,2.33,1.84,2.33s1.84-1,1.84-2.35c0-1-.52-2.33-1.82-2.33S192.85,233.76,192.85,234.91Z"/><path class="cls-31" d="M200.09,229.28a16,16,0,0,1-1.16,3l-.7.07a17.93,17.93,0,0,0,.73-2.91Zm1.85,0a16,16,0,0,1-1.16,3l-.7.07a17,17,0,0,0,.73-2.91Z"/><path class="cls-31" d="M202.57,239.44a8.51,8.51,0,0,0,1.57-5.11,8.37,8.37,0,0,0-1.57-5.08h.85a8,8,0,0,1,1.63,5.09,8.17,8.17,0,0,1-1.63,5.1Z"/><path class="cls-31" d="M94.75,257.09a15.63,15.63,0,0,1,2.32-.18,4.86,4.86,0,0,1,3.41,1,3.9,3.9,0,0,1,1.19,3,4.44,4.44,0,0,1-1.22,3.27,5.15,5.15,0,0,1-3.72,1.21,16,16,0,0,1-2-.1Zm1.09,7.45a7,7,0,0,0,1.1.06,3.24,3.24,0,0,0,3.59-3.57c0-2-1.11-3.25-3.41-3.25a6.42,6.42,0,0,0-1.28.11Z"/><path class="cls-31" d="M104.35,257.65a.65.65,0,0,1-.7.68.66.66,0,0,1-.66-.68.67.67,0,0,1,.69-.69A.65.65,0,0,1,104.35,257.65Zm-1.22,7.75v-6h1.1v6Z"/><path class="cls-31" d="M106.14,261.24c0-.71,0-1.33,0-1.89h1l0,1.19h0a1.83,1.83,0,0,1,1.68-1.33,1.46,1.46,0,0,1,.31,0v1a1.43,1.43,0,0,0-.38,0,1.54,1.54,0,0,0-1.47,1.41,2.7,2.7,0,0,0,0,.52v3.22h-1.09Z"/><path class="cls-31" d="M110.8,262.58a2,2,0,0,0,2.08,2.1,3.84,3.84,0,0,0,1.67-.32l.19.79a4.94,4.94,0,0,1-2,.39,2.82,2.82,0,0,1-3-3.06c0-1.83,1.08-3.27,2.84-3.27a2.56,2.56,0,0,1,2.5,2.85,3.12,3.12,0,0,1,0,.52Zm3.23-.79A1.57,1.57,0,0,0,112.5,260a1.82,1.82,0,0,0-1.68,1.79Z"/><path class="cls-31" d="M120.87,265.18a3.92,3.92,0,0,1-1.59.34l-.31.5a1,1,0,0,1,.87.92c0,.75-.62,1-1.3,1a1.81,1.81,0,0,1-.87-.21l.18-.56a1.41,1.41,0,0,0,.69.16c.29,0,.54-.09.54-.39s-.39-.46-1-.52l.53-1a2.86,2.86,0,0,1-2.53-3.05,3.08,3.08,0,0,1,3.25-3.21,3.71,3.71,0,0,1,1.53.31l-.25.85a2.56,2.56,0,0,0-1.28-.29,2.1,2.1,0,0,0-2.13,2.29,2.07,2.07,0,0,0,2.1,2.26,3.06,3.06,0,0,0,1.35-.3Z"/><path class="cls-31" d="M126.46,264a9.09,9.09,0,0,0,.1,1.45h-1l-.09-.76h0a2.27,2.27,0,0,1-1.85.9,1.73,1.73,0,0,1-1.85-1.74c0-1.46,1.3-2.26,3.64-2.25v-.12A1.25,1.25,0,0,0,124,260a3,3,0,0,0-1.57.45l-.25-.73a3.79,3.79,0,0,1,2-.54c1.84,0,2.29,1.27,2.29,2.48Zm-3.72-5.64c0-.81.31-1.3.85-1.3a1.58,1.58,0,0,1,.78.28,1.26,1.26,0,0,0,.52.21c.2,0,.32-.11.35-.54h.59c0,.84-.28,1.27-.87,1.27a1.79,1.79,0,0,1-.76-.25,1.11,1.11,0,0,0-.53-.23c-.2,0-.3.21-.33.56Zm2.66,4c-1.2,0-2.56.19-2.56,1.37a1,1,0,0,0,1,1,1.5,1.5,0,0,0,1.46-1,1.07,1.07,0,0,0,.06-.35Z"/><path class="cls-31" d="M133.8,262.33a3,3,0,0,1-3,3.21,2.87,2.87,0,0,1-2.9-3.11,3,3,0,0,1,3-3.22A2.87,2.87,0,0,1,133.8,262.33Zm-4.8.06c0,1.32.77,2.32,1.84,2.32s1.84-1,1.84-2.35c0-1-.51-2.32-1.81-2.32S129,261.24,129,262.39Z"/><path class="cls-31" d="M143.24,256.53v7.31c0,.54,0,1.15,0,1.56h-1l-.05-1h0a2.26,2.26,0,0,1-2.06,1.19c-1.47,0-2.59-1.24-2.59-3.08,0-2,1.24-3.25,2.71-3.25a2,2,0,0,1,1.83.93h0v-3.61Zm-1.1,5.28a1.85,1.85,0,0,0,0-.46,1.61,1.61,0,0,0-1.59-1.27c-1.13,0-1.81,1-1.81,2.33s.6,2.24,1.79,2.24a1.66,1.66,0,0,0,1.61-1.31,1.82,1.82,0,0,0,0-.48Z"/><path class="cls-31" d="M150.63,262.33a3,3,0,0,1-3,3.21,2.88,2.88,0,0,1-2.9-3.11,3,3,0,0,1,3-3.22A2.88,2.88,0,0,1,150.63,262.33Zm-4.8.06c0,1.32.76,2.32,1.83,2.32s1.84-1,1.84-2.35c0-1-.51-2.32-1.81-2.32S145.83,261.24,145.83,262.39Z"/><path class="cls-31" d="M155,265.4v-5.21h-.85v-.84H155v-.26a2.74,2.74,0,0,1,.85-2.09,2.89,2.89,0,0,1,1.94-.61,3.88,3.88,0,0,1,1.81.4v8.61h-1.09v-8a1.92,1.92,0,0,0-.9-.16c-1.14,0-1.52.84-1.52,1.81v.3h1.41v.84H156v5.21Z"/><path class="cls-31" d="M166.53,263.75c0,.63,0,1.18.05,1.65h-1l-.06-1h0a2.26,2.26,0,0,1-2,1.13c-.95,0-2.08-.53-2.08-2.65v-3.54h1.1v3.35c0,1.15.35,1.93,1.35,1.93a1.61,1.61,0,0,0,1.45-1,1.75,1.75,0,0,0,.1-.57v-3.71h1.1Z"/><path class="cls-31" d="M169,259.35l.86,1.3c.23.34.42.65.62,1h0c.2-.36.4-.68.6-1l.85-1.29h1.19L171,262.28l2.12,3.12h-1.25L171,264c-.24-.35-.44-.69-.65-1.05h0c-.2.37-.41.69-.64,1.05l-.87,1.36h-1.21l2.15-3.09-2.05-3Z"/><path class="cls-31" d="M179.6,262.33a3,3,0,0,1-3,3.21,2.87,2.87,0,0,1-2.9-3.11,3,3,0,0,1,3-3.22A2.87,2.87,0,0,1,179.6,262.33Zm-4.8.06c0,1.32.76,2.32,1.84,2.32s1.83-1,1.83-2.35c0-1-.51-2.32-1.81-2.32S174.8,261.24,174.8,262.39Z"/><path class="cls-31" d="M189,256.53v7.31c0,.54,0,1.15.05,1.56h-1l0-1h0a2.26,2.26,0,0,1-2.07,1.19c-1.46,0-2.58-1.24-2.58-3.08,0-2,1.23-3.25,2.71-3.25a2,2,0,0,1,1.82.93h0v-3.61Zm-1.1,5.28a2.49,2.49,0,0,0-.05-.46,1.61,1.61,0,0,0-1.59-1.27c-1.14,0-1.81,1-1.81,2.33s.6,2.24,1.79,2.24a1.66,1.66,0,0,0,1.61-1.31,2.36,2.36,0,0,0,.05-.48Z"/><path class="cls-31" d="M191.56,262.58a2,2,0,0,0,2.08,2.1,3.88,3.88,0,0,0,1.67-.32l.19.79a4.94,4.94,0,0,1-2,.39,2.82,2.82,0,0,1-3-3.06c0-1.83,1.08-3.27,2.84-3.27a2.57,2.57,0,0,1,2.5,2.85,4.81,4.81,0,0,1,0,.52Zm3.23-.79a1.57,1.57,0,0,0-1.53-1.79,1.82,1.82,0,0,0-1.68,1.79Z"/><path class="cls-31" d="M94.72,274.44c0-.71,0-1.33,0-1.89h1l0,1.19h0a1.81,1.81,0,0,1,1.67-1.33,1.37,1.37,0,0,1,.31,0v1a1.35,1.35,0,0,0-.37,0,1.55,1.55,0,0,0-1.48,1.41,3.83,3.83,0,0,0,0,.52v3.22H94.72Z"/><path class="cls-31" d="M99.38,275.78a1.94,1.94,0,0,0,2.07,2.1,3.89,3.89,0,0,0,1.68-.32l.19.79a5,5,0,0,1-2,.39,2.82,2.82,0,0,1-3-3.06c0-1.83,1.07-3.27,2.84-3.27a2.57,2.57,0,0,1,2.5,2.85,4.81,4.81,0,0,1,0,.52Zm3.22-.79a1.56,1.56,0,0,0-1.52-1.79A1.83,1.83,0,0,0,99.39,275Z"/><path class="cls-31" d="M106.44,271.1v1.45H108v.84h-1.58v3.26c0,.75.21,1.18.83,1.18a2,2,0,0,0,.63-.08l0,.82a2.56,2.56,0,0,1-1,.17,1.54,1.54,0,0,1-1.19-.48,2.24,2.24,0,0,1-.42-1.57v-3.3h-.94v-.84h.94v-1.11Z"/><path class="cls-31" d="M114.74,275.53a3,3,0,0,1-3,3.21,2.87,2.87,0,0,1-2.9-3.11,3,3,0,0,1,3-3.22A2.87,2.87,0,0,1,114.74,275.53Zm-4.8.06c0,1.32.76,2.32,1.84,2.32s1.84-1,1.84-2.35c0-1-.52-2.32-1.82-2.32S109.94,274.44,109.94,275.59Z"/><path class="cls-31" d="M116.22,274.44c0-.71,0-1.33,0-1.89h1l0,1.19h0a1.81,1.81,0,0,1,1.67-1.33,1.37,1.37,0,0,1,.31,0v1a1.35,1.35,0,0,0-.37,0,1.55,1.55,0,0,0-1.48,1.41,3.83,3.83,0,0,0,0,.52v3.22h-1.08Z"/><path class="cls-31" d="M120.44,274.19c0-.63,0-1.14,0-1.64h1l.06,1h0a2.24,2.24,0,0,1,2-1.14c.84,0,2.14.5,2.14,2.58v3.61h-1.1v-3.49c0-1-.36-1.78-1.4-1.78a1.55,1.55,0,0,0-1.47,1.12,1.6,1.6,0,0,0-.08.51v3.64h-1.1Z"/><path class="cls-31" d="M132.94,275.53a3,3,0,0,1-3,3.21,2.87,2.87,0,0,1-2.9-3.11,3,3,0,0,1,3-3.22A2.87,2.87,0,0,1,132.94,275.53Zm-4.8.06c0,1.32.76,2.32,1.84,2.32s1.83-1,1.83-2.35c0-1-.51-2.32-1.81-2.32S128.14,274.44,128.14,275.59Z"/><path class="cls-31" d="M139.54,269.93A8.25,8.25,0,0,0,138,275a8.4,8.4,0,0,0,1.58,5.07h-.86A8.07,8.07,0,0,1,137,275a8.22,8.22,0,0,1,1.64-5.11Z"/><path class="cls-31" d="M140.3,273a14.51,14.51,0,0,1,1.18-3l.7-.08a17.18,17.18,0,0,0-.74,2.93Zm1.87,0a14,14,0,0,1,1.16-3l.7-.08a17.18,17.18,0,0,0-.74,2.93Z"/><path class="cls-31" d="M145,274.44c0-.71,0-1.33,0-1.89h1l0,1.19h0a1.83,1.83,0,0,1,1.68-1.33,1.46,1.46,0,0,1,.31,0v1a1.35,1.35,0,0,0-.37,0,1.55,1.55,0,0,0-1.48,1.41,3.83,3.83,0,0,0-.05.52v3.22H145Z"/><path class="cls-31" d="M149.68,275.78a1.94,1.94,0,0,0,2.07,2.1,3.93,3.93,0,0,0,1.68-.32l.18.79a4.9,4.9,0,0,1-2,.39,2.82,2.82,0,0,1-3-3.06c0-1.83,1.07-3.27,2.83-3.27a2.56,2.56,0,0,1,2.5,2.85c0,.23,0,.4,0,.52Zm3.22-.79a1.56,1.56,0,0,0-1.52-1.79,1.83,1.83,0,0,0-1.69,1.79Z"/><path class="cls-31" d="M155.27,277.47a2.79,2.79,0,0,0,1.44.44c.8,0,1.18-.4,1.18-.9s-.31-.81-1.13-1.11c-1.08-.39-1.59-1-1.59-1.71a1.86,1.86,0,0,1,2.08-1.78,3,3,0,0,1,1.49.38l-.28.8a2.31,2.31,0,0,0-1.23-.35c-.65,0-1,.37-1,.82s.37.73,1.15,1c1,.4,1.59.92,1.59,1.82,0,1.06-.82,1.83-2.26,1.83a3.47,3.47,0,0,1-1.7-.43Z"/><path class="cls-31" d="M160.45,274.53c0-.78,0-1.4,0-2h1l.05,1h0a2.37,2.37,0,0,1,2.15-1.18c1.46,0,2.56,1.24,2.56,3.08,0,2.17-1.33,3.25-2.75,3.25a2.11,2.11,0,0,1-1.86-.95h0v3.28h-1.09Zm1.09,1.61a3.1,3.1,0,0,0,.05.45,1.7,1.7,0,0,0,1.65,1.29c1.16,0,1.84-.95,1.84-2.34,0-1.21-.64-2.25-1.8-2.25a1.75,1.75,0,0,0-1.66,1.36,1.7,1.7,0,0,0-.08.45Z"/><path class="cls-31" d="M173.13,275.53a3,3,0,0,1-3,3.21,2.88,2.88,0,0,1-2.9-3.11,3,3,0,0,1,3-3.22A2.88,2.88,0,0,1,173.13,275.53Zm-4.8.06c0,1.32.76,2.32,1.83,2.32s1.84-1,1.84-2.35c0-1-.51-2.32-1.81-2.32S168.33,274.44,168.33,275.59Z"/><path class="cls-31" d="M174.45,277.47a2.83,2.83,0,0,0,1.45.44c.8,0,1.18-.4,1.18-.9s-.32-.81-1.13-1.11c-1.08-.39-1.6-1-1.6-1.71a1.87,1.87,0,0,1,2.09-1.78,3,3,0,0,1,1.49.38l-.28.8a2.34,2.34,0,0,0-1.23-.35c-.66,0-1,.37-1,.82s.36.73,1.15,1c1,.4,1.59.92,1.59,1.82,0,1.06-.83,1.83-2.26,1.83a3.41,3.41,0,0,1-1.7-.43Z"/><path class="cls-31" d="M181,271.1v1.45h1.57v.84H181v3.26c0,.75.21,1.18.82,1.18a2,2,0,0,0,.64-.08l0,.82a2.58,2.58,0,0,1-1,.17,1.52,1.52,0,0,1-1.18-.48,2.19,2.19,0,0,1-.43-1.57v-3.3H179v-.84h.94v-1.11Z"/><path class="cls-31" d="M188.11,277.15a9,9,0,0,0,.1,1.45h-1l-.08-.76h0a2.27,2.27,0,0,1-1.85.9,1.73,1.73,0,0,1-1.85-1.74c0-1.46,1.3-2.26,3.64-2.25v-.12a1.25,1.25,0,0,0-1.38-1.4,3,3,0,0,0-1.57.45l-.25-.73a3.78,3.78,0,0,1,2-.54c1.85,0,2.3,1.27,2.3,2.48Zm-1.06-1.64c-1.2,0-2.56.19-2.56,1.37a1,1,0,0,0,1,1.05,1.51,1.51,0,0,0,1.46-1,1,1,0,0,0,.06-.35Z"/><path class="cls-31" d="M190.94,270a15.34,15.34,0,0,1-1.16,3l-.7.08a19.62,19.62,0,0,0,.74-2.91Zm1.85,0a15.34,15.34,0,0,1-1.16,3l-.7.08a18.46,18.46,0,0,0,.74-2.91Z"/><path class="cls-31" d="M193.42,280.11A8.48,8.48,0,0,0,195,275a8.25,8.25,0,0,0-1.57-5.07h.85A7.93,7.93,0,0,1,195.9,275a8.11,8.11,0,0,1-1.63,5.1Z"/></g></svg>