<svg xmlns="http://www.w3.org/2000/svg" xmlns:xlink="http://www.w3.org/1999/xlink" viewBox="0 0 578 216.17"><defs><style>.cls-1,.cls-2{fill:#fff;}.cls-18,.cls-2{stroke:#e6e6e6;stroke-width:0.75px;}.cls-3{fill:#3c3c41;opacity:0.08;}.cls-29,.cls-3,.cls-30,.cls-31,.cls-35,.cls-36,.cls-37,.cls-38,.cls-46,.cls-47,.cls-54,.cls-55,.cls-56{isolation:isolate;}.cls-4{fill:url(#Degradado_sin_nombre);}.cls-5{fill:#b4ec36;}.cls-6{fill:#5ea0ef;}.cls-7{fill:url(#Degradado_sin_nombre_2);}.cls-8{fill:#50e6ff;}.cls-9{fill:#c3f1ff;}.cls-10{fill:#9cebff;}.cls-11{fill:url(#Degradado_sin_nombre_3);}.cls-12{fill:url(#Degradado_sin_nombre_4);}.cls-13{fill:url(#Degradado_sin_nombre_5);}.cls-14{fill:url(#Degradado_sin_nombre_6);}.cls-15{fill:url(#Degradado_sin_nombre_7);}.cls-16{fill:url(#Degradado_sin_nombre_8);}.cls-17{fill:url(#Degradado_sin_nombre_9);}.cls-18{fill:none;}.cls-19{fill:url(#Degradado_sin_nombre_10);}.cls-20{fill:url(#Degradado_sin_nombre_11);}.cls-21{fill:url(#Degradado_sin_nombre_12);}.cls-22{fill:url(#Degradado_sin_nombre_13);}.cls-23{fill:url(#Degradado_sin_nombre_14);}.cls-24{fill:url(#Degradado_sin_nombre_15);}.cls-25{fill:url(#Degradado_sin_nombre_16);}.cls-26{fill:url(#Degradado_sin_nombre_17);}.cls-27{fill:url(#Degradado_sin_nombre_18);}.cls-28{fill:url(#Degradado_sin_nombre_19);}.cls-29,.cls-30,.cls-31,.cls-35,.cls-36,.cls-37,.cls-38,.cls-46,.cls-47,.cls-54,.cls-55,.cls-56{opacity:0.5;}.cls-29{fill:url(#Degradado_sin_nombre_20);}.cls-30{fill:url(#Degradado_sin_nombre_21);}.cls-31{fill:url(#Degradado_sin_nombre_22);}.cls-32{fill:url(#Degradado_sin_nombre_23);}.cls-33{fill:url(#Degradado_sin_nombre_24);}.cls-34{fill:url(#Degradado_sin_nombre_25);}.cls-35{fill:url(#Degradado_sin_nombre_26);}.cls-36{fill:url(#Degradado_sin_nombre_27);}.cls-37{fill:url(#Degradado_sin_nombre_28);}.cls-38{fill:url(#Degradado_sin_nombre_29);}.cls-39{fill:url(#Degradado_sin_nombre_30);}.cls-40{fill:url(#Degradado_sin_nombre_31);}.cls-41{fill:url(#Degradado_sin_nombre_32);}.cls-42{fill:url(#Degradado_sin_nombre_33);}.cls-43{fill:url(#Degradado_sin_nombre_34);}.cls-44{fill:url(#Degradado_sin_nombre_35);}.cls-45{fill:url(#Degradado_sin_nombre_36);}.cls-46{fill:url(#Degradado_sin_nombre_37);}.cls-47{fill:url(#Degradado_sin_nombre_38);}.cls-48{fill:url(#Degradado_sin_nombre_39);}.cls-49{fill:url(#Degradado_sin_nombre_40);}.cls-50{fill:url(#Degradado_sin_nombre_41);}.cls-51{fill:url(#Degradado_sin_nombre_42);}.cls-52{fill:url(#Degradado_sin_nombre_43);}.cls-53{fill:url(#Degradado_sin_nombre_44);}.cls-54{fill:url(#Degradado_sin_nombre_45);}.cls-55{fill:url(#Degradado_sin_nombre_46);}.cls-56{fill:url(#Degradado_sin_nombre_47);}.cls-57{fill:#e62323;}.cls-58{fill:#e6e6e6;}.cls-59{fill:#107c10;}.cls-60{fill:#faa21d;}.cls-61{fill:url(#Degradado_sin_nombre_48);}.cls-62{fill:url(#Degradado_sin_nombre_49);}.cls-63{fill:url(#Degradado_sin_nombre_50);}.cls-64{fill:url(#Degradado_sin_nombre_51);}.cls-65{fill:url(#Degradado_sin_nombre_52);}.cls-66{fill:url(#Degradado_sin_nombre_53);}.cls-67{fill:url(#Degradado_sin_nombre_54);}.cls-68{fill:url(#Degradado_sin_nombre_55);}.cls-69{fill:url(#Degradado_sin_nombre_56);}.cls-70{fill:url(#Degradado_sin_nombre_57);}.cls-71{fill:url(#Degradado_sin_nombre_58);}.cls-72{fill:url(#Degradado_sin_nombre_59);}.cls-73{fill:url(#Degradado_sin_nombre_60);}.cls-74{fill:url(#Degradado_sin_nombre_61);}.cls-75{fill:url(#Degradado_sin_nombre_62);}.cls-76{fill:url(#Degradado_sin_nombre_63);}.cls-77{fill:url(#Degradado_sin_nombre_64);}.cls-78{fill:url(#Degradado_sin_nombre_65);}.cls-79{fill:url(#Degradado_sin_nombre_66);}.cls-80{fill:url(#Degradado_sin_nombre_67);}.cls-81{fill:url(#Degradado_sin_nombre_68);}.cls-82{fill:url(#Degradado_sin_nombre_69);}.cls-83{fill:url(#Degradado_sin_nombre_70);}.cls-84{fill:url(#Degradado_sin_nombre_71);}.cls-85{fill:url(#Degradado_sin_nombre_72);}.cls-86{fill:url(#Degradado_sin_nombre_73);}.cls-87{fill:url(#Degradado_sin_nombre_74);}.cls-88{fill:url(#Degradado_sin_nombre_75);}.cls-89{fill:url(#Degradado_sin_nombre_76);}.cls-90{fill:url(#Degradado_sin_nombre_77);}.cls-91{fill:url(#Degradado_sin_nombre_78);}.cls-92{fill:url(#Degradado_sin_nombre_79);}.cls-93{fill:url(#Degradado_sin_nombre_80);}.cls-94{fill:#6ebcdb;}.cls-95{fill:#5db4d7;}.cls-96{fill:#86d633;}.cls-97{fill:#1e1e1e;}.cls-98{fill:#3b3b3b;}</style><linearGradient id="Degradado_sin_nombre" x1="36.12" y1="210.23" x2="36.12" y2="170.82" gradientTransform="translate(0 -162.33)" gradientUnits="userSpaceOnUse"><stop offset="0" stop-color="#5e9624"/><stop offset="0.02" stop-color="#5f9724"/><stop offset="1" stop-color="#76bc2d"/></linearGradient><linearGradient id="Degradado_sin_nombre_2" x1="85.83" y1="324.45" x2="85.83" y2="312.9" gradientTransform="translate(0 -162.33)" gradientUnits="userSpaceOnUse"><stop offset="0" stop-color="#0078d4"/><stop offset="0.82" stop-color="#5ea0ef"/></linearGradient><linearGradient id="Degradado_sin_nombre_3" x1="85.83" y1="328.9" x2="85.83" y2="324.44" gradientTransform="translate(0 -162.33)" gradientUnits="userSpaceOnUse"><stop offset="0.15" stop-color="#ccc"/><stop offset="1" stop-color="#707070"/></linearGradient><linearGradient id="Degradado_sin_nombre_4" x1="142.21" y1="324.45" x2="142.21" y2="312.9" xlink:href="#Degradado_sin_nombre_2"/><linearGradient id="Degradado_sin_nombre_5" x1="142.21" y1="328.9" x2="142.21" y2="324.44" xlink:href="#Degradado_sin_nombre_3"/><linearGradient id="Degradado_sin_nombre_6" x1="197.38" y1="324.45" x2="197.38" y2="312.9" xlink:href="#Degradado_sin_nombre_2"/><linearGradient id="Degradado_sin_nombre_7" x1="197.38" y1="328.9" x2="197.38" y2="324.44" xlink:href="#Degradado_sin_nombre_3"/><linearGradient id="Degradado_sin_nombre_8" x1="252.4" y1="324.45" x2="252.4" y2="312.9" xlink:href="#Degradado_sin_nombre_2"/><linearGradient id="Degradado_sin_nombre_9" x1="252.4" y1="328.9" x2="252.4" y2="324.44" xlink:href="#Degradado_sin_nombre_3"/><linearGradient id="Degradado_sin_nombre_10" x1="81.17" y1="120.49" x2="81.17" y2="130.49" gradientTransform="matrix(1, 0, 0, -1, 0, 216.66)" gradientUnits="userSpaceOnUse"><stop offset="0" stop-color="#0078d4"/><stop offset="0.16" stop-color="#1380da"/><stop offset="0.53" stop-color="#3c91e5"/><stop offset="0.82" stop-color="#559cec"/><stop offset="1" stop-color="#5ea0ef"/></linearGradient><linearGradient id="Degradado_sin_nombre_11" x1="96.17" y1="120.49" x2="96.17" y2="130.49" xlink:href="#Degradado_sin_nombre_10"/><linearGradient id="Degradado_sin_nombre_12" x1="111.17" y1="120.49" x2="111.17" y2="130.49" xlink:href="#Degradado_sin_nombre_10"/><linearGradient id="Degradado_sin_nombre_13" x1="81.17" y1="105.49" x2="81.17" y2="115.49" xlink:href="#Degradado_sin_nombre_10"/><linearGradient id="Degradado_sin_nombre_14" x1="17.66" y1="7.99" x2="17.66" y2="17.99" xlink:href="#Degradado_sin_nombre_10"/><linearGradient id="Degradado_sin_nombre_15" x1="96.17" y1="105.49" x2="96.17" y2="115.49" xlink:href="#Degradado_sin_nombre_10"/><linearGradient id="Degradado_sin_nombre_16" x1="111.17" y1="105.49" x2="111.17" y2="115.49" xlink:href="#Degradado_sin_nombre_10"/><linearGradient id="Degradado_sin_nombre_17" x1="81.17" y1="135.49" x2="81.17" y2="145.49" xlink:href="#Degradado_sin_nombre_10"/><linearGradient id="Degradado_sin_nombre_18" x1="96.17" y1="135.49" x2="96.17" y2="145.49" xlink:href="#Degradado_sin_nombre_10"/><linearGradient id="Degradado_sin_nombre_19" x1="111.17" y1="135.49" x2="111.17" y2="145.49" xlink:href="#Degradado_sin_nombre_10"/><linearGradient id="Degradado_sin_nombre_20" x1="136.17" y1="120.49" x2="136.17" y2="130.49" xlink:href="#Degradado_sin_nombre_10"/><linearGradient id="Degradado_sin_nombre_21" x1="151.17" y1="120.49" x2="151.17" y2="130.49" xlink:href="#Degradado_sin_nombre_10"/><linearGradient id="Degradado_sin_nombre_22" x1="166.17" y1="120.49" x2="166.17" y2="130.49" xlink:href="#Degradado_sin_nombre_10"/><linearGradient id="Degradado_sin_nombre_23" x1="136.17" y1="105.49" x2="136.17" y2="115.49" xlink:href="#Degradado_sin_nombre_10"/><linearGradient id="Degradado_sin_nombre_24" x1="151.17" y1="105.49" x2="151.17" y2="115.49" xlink:href="#Degradado_sin_nombre_10"/><linearGradient id="Degradado_sin_nombre_25" x1="166.17" y1="105.49" x2="166.17" y2="115.49" xlink:href="#Degradado_sin_nombre_10"/><linearGradient id="Degradado_sin_nombre_26" x1="136.17" y1="135.49" x2="136.17" y2="145.49" xlink:href="#Degradado_sin_nombre_10"/><linearGradient id="Degradado_sin_nombre_27" x1="17.66" y1="22.99" x2="17.66" y2="32.99" xlink:href="#Degradado_sin_nombre_10"/><linearGradient id="Degradado_sin_nombre_28" x1="151.17" y1="135.49" x2="151.17" y2="145.49" xlink:href="#Degradado_sin_nombre_10"/><linearGradient id="Degradado_sin_nombre_29" x1="166.17" y1="135.49" x2="166.17" y2="145.49" xlink:href="#Degradado_sin_nombre_10"/><linearGradient id="Degradado_sin_nombre_30" x1="191.17" y1="120.49" x2="191.17" y2="130.49" xlink:href="#Degradado_sin_nombre_10"/><linearGradient id="Degradado_sin_nombre_31" x1="206.17" y1="120.49" x2="206.17" y2="130.49" xlink:href="#Degradado_sin_nombre_10"/><linearGradient id="Degradado_sin_nombre_32" x1="221.17" y1="120.49" x2="221.17" y2="130.49" xlink:href="#Degradado_sin_nombre_10"/><linearGradient id="Degradado_sin_nombre_33" x1="191.17" y1="105.49" x2="191.17" y2="115.49" xlink:href="#Degradado_sin_nombre_10"/><linearGradient id="Degradado_sin_nombre_34" x1="206.17" y1="105.49" x2="206.17" y2="115.49" xlink:href="#Degradado_sin_nombre_10"/><linearGradient id="Degradado_sin_nombre_35" x1="221.17" y1="105.49" x2="221.17" y2="115.49" xlink:href="#Degradado_sin_nombre_10"/><linearGradient id="Degradado_sin_nombre_36" x1="191.17" y1="135.49" x2="191.17" y2="145.49" xlink:href="#Degradado_sin_nombre_10"/><linearGradient id="Degradado_sin_nombre_37" x1="206.17" y1="135.49" x2="206.17" y2="145.49" xlink:href="#Degradado_sin_nombre_10"/><linearGradient id="Degradado_sin_nombre_38" x1="221.17" y1="135.49" x2="221.17" y2="145.49" xlink:href="#Degradado_sin_nombre_10"/><linearGradient id="Degradado_sin_nombre_39" x1="246.17" y1="120.49" x2="246.17" y2="130.49" xlink:href="#Degradado_sin_nombre_10"/><linearGradient id="Degradado_sin_nombre_40" x1="261.17" y1="120.49" x2="261.17" y2="130.49" xlink:href="#Degradado_sin_nombre_10"/><linearGradient id="Degradado_sin_nombre_41" x1="276.17" y1="120.49" x2="276.17" y2="130.49" xlink:href="#Degradado_sin_nombre_10"/><linearGradient id="Degradado_sin_nombre_42" x1="246.17" y1="105.49" x2="246.17" y2="115.49" xlink:href="#Degradado_sin_nombre_10"/><linearGradient id="Degradado_sin_nombre_43" x1="261.17" y1="105.49" x2="261.17" y2="115.49" xlink:href="#Degradado_sin_nombre_10"/><linearGradient id="Degradado_sin_nombre_44" x1="276.17" y1="105.49" x2="276.17" y2="115.49" xlink:href="#Degradado_sin_nombre_10"/><linearGradient id="Degradado_sin_nombre_45" x1="246.17" y1="135.49" x2="246.17" y2="145.49" xlink:href="#Degradado_sin_nombre_10"/><linearGradient id="Degradado_sin_nombre_46" x1="261.17" y1="135.49" x2="261.17" y2="145.49" xlink:href="#Degradado_sin_nombre_10"/><linearGradient id="Degradado_sin_nombre_47" x1="276.17" y1="135.49" x2="276.17" y2="145.49" xlink:href="#Degradado_sin_nombre_10"/><linearGradient id="Degradado_sin_nombre_48" x1="308.33" y1="324.45" x2="308.33" y2="312.9" xlink:href="#Degradado_sin_nombre_2"/><linearGradient id="Degradado_sin_nombre_49" x1="308.33" y1="328.9" x2="308.33" y2="324.44" xlink:href="#Degradado_sin_nombre_3"/><linearGradient id="Degradado_sin_nombre_50" x1="364.71" y1="324.45" x2="364.71" y2="312.9" xlink:href="#Degradado_sin_nombre_2"/><linearGradient id="Degradado_sin_nombre_51" x1="364.69" y1="328.9" x2="364.69" y2="324.44" xlink:href="#Degradado_sin_nombre_3"/><linearGradient id="Degradado_sin_nombre_52" x1="419.88" y1="324.45" x2="419.88" y2="312.9" xlink:href="#Degradado_sin_nombre_2"/><linearGradient id="Degradado_sin_nombre_53" x1="419.88" y1="328.9" x2="419.88" y2="324.44" xlink:href="#Degradado_sin_nombre_3"/><linearGradient id="Degradado_sin_nombre_54" x1="474.9" y1="324.45" x2="474.9" y2="312.9" xlink:href="#Degradado_sin_nombre_2"/><linearGradient id="Degradado_sin_nombre_55" x1="474.9" y1="328.9" x2="474.9" y2="324.44" xlink:href="#Degradado_sin_nombre_3"/><linearGradient id="Degradado_sin_nombre_56" x1="303.67" y1="120.49" x2="303.67" y2="130.49" xlink:href="#Degradado_sin_nombre_10"/><linearGradient id="Degradado_sin_nombre_57" x1="318.67" y1="120.49" x2="318.67" y2="130.49" xlink:href="#Degradado_sin_nombre_10"/><linearGradient id="Degradado_sin_nombre_58" x1="333.67" y1="120.49" x2="333.67" y2="130.49" xlink:href="#Degradado_sin_nombre_10"/><linearGradient id="Degradado_sin_nombre_59" x1="303.67" y1="105.49" x2="303.67" y2="115.49" xlink:href="#Degradado_sin_nombre_10"/><linearGradient id="Degradado_sin_nombre_60" x1="318.67" y1="105.49" x2="318.67" y2="115.49" xlink:href="#Degradado_sin_nombre_10"/><linearGradient id="Degradado_sin_nombre_61" x1="333.67" y1="105.49" x2="333.67" y2="115.49" xlink:href="#Degradado_sin_nombre_10"/><linearGradient id="Degradado_sin_nombre_62" x1="303.67" y1="135.49" x2="303.67" y2="145.49" xlink:href="#Degradado_sin_nombre_10"/><linearGradient id="Degradado_sin_nombre_63" x1="318.67" y1="135.49" x2="318.67" y2="145.49" xlink:href="#Degradado_sin_nombre_10"/><linearGradient id="Degradado_sin_nombre_64" x1="333.67" y1="135.49" x2="333.67" y2="145.49" xlink:href="#Degradado_sin_nombre_10"/><linearGradient id="Degradado_sin_nombre_65" x1="358.67" y1="105.49" x2="358.67" y2="115.49" xlink:href="#Degradado_sin_nombre_10"/><linearGradient id="Degradado_sin_nombre_66" x1="373.67" y1="105.49" x2="373.67" y2="115.49" xlink:href="#Degradado_sin_nombre_10"/><linearGradient id="Degradado_sin_nombre_67" x1="388.67" y1="105.49" x2="388.67" y2="115.49" xlink:href="#Degradado_sin_nombre_10"/><linearGradient id="Degradado_sin_nombre_68" x1="413.67" y1="120.49" x2="413.67" y2="130.49" xlink:href="#Degradado_sin_nombre_10"/><linearGradient id="Degradado_sin_nombre_69" x1="428.67" y1="120.49" x2="428.67" y2="130.49" xlink:href="#Degradado_sin_nombre_10"/><linearGradient id="Degradado_sin_nombre_70" x1="443.67" y1="120.49" x2="443.67" y2="130.49" xlink:href="#Degradado_sin_nombre_10"/><linearGradient id="Degradado_sin_nombre_71" x1="413.67" y1="105.49" x2="413.67" y2="115.49" xlink:href="#Degradado_sin_nombre_10"/><linearGradient id="Degradado_sin_nombre_72" x1="428.67" y1="105.49" x2="428.67" y2="115.49" xlink:href="#Degradado_sin_nombre_10"/><linearGradient id="Degradado_sin_nombre_73" x1="443.67" y1="105.49" x2="443.67" y2="115.49" xlink:href="#Degradado_sin_nombre_10"/><linearGradient id="Degradado_sin_nombre_74" x1="413.67" y1="135.49" x2="413.67" y2="145.49" xlink:href="#Degradado_sin_nombre_10"/><linearGradient id="Degradado_sin_nombre_75" x1="468.67" y1="120.49" x2="468.67" y2="130.49" xlink:href="#Degradado_sin_nombre_10"/><linearGradient id="Degradado_sin_nombre_76" x1="483.67" y1="120.49" x2="483.67" y2="130.49" xlink:href="#Degradado_sin_nombre_10"/><linearGradient id="Degradado_sin_nombre_77" x1="498.67" y1="120.49" x2="498.67" y2="130.49" xlink:href="#Degradado_sin_nombre_10"/><linearGradient id="Degradado_sin_nombre_78" x1="468.67" y1="105.49" x2="468.67" y2="115.49" xlink:href="#Degradado_sin_nombre_10"/><linearGradient id="Degradado_sin_nombre_79" x1="483.67" y1="105.49" x2="483.67" y2="115.49" xlink:href="#Degradado_sin_nombre_10"/><linearGradient id="Degradado_sin_nombre_80" x1="498.67" y1="105.49" x2="498.67" y2="115.49" xlink:href="#Degradado_sin_nombre_10"/></defs><title>OJ104903204</title><g id="Target"><rect class="cls-1" width="578" height="216.17"/><rect class="cls-2" x="291.17" y="1.17" width="285.67" height="175"/><rect class="cls-2" x="1.17" y="1.17" width="285" height="175"/><rect class="cls-1" x="291.83" y="1.17" width="285" height="55"/><rect class="cls-3" x="291.83" y="1.17" width="285" height="55"/><rect class="cls-1" x="1.17" y="1.17" width="285" height="55"/><rect class="cls-3" x="1.17" y="1.17" width="285" height="55"/><path class="cls-4" d="M19.47,26.6,35.31,10.76a1.15,1.15,0,0,1,1.61,0h0L52.78,26.6a1.15,1.15,0,0,1,0,1.61h0L36.92,44.09a1.14,1.14,0,0,1-1.59,0L19.47,28.23a1.13,1.13,0,0,1,0-1.6h0Z"/><path class="cls-5" d="M40.28,18l-4-4A.24.24,0,0,0,36,14l-4,4a.19.19,0,0,0,0,.27.18.18,0,0,0,.19.07h2.34a.21.21,0,0,1,.21.21V22.3a.21.21,0,0,0,.21.21H37.4a.21.21,0,0,0,.21-.21V18.52a.21.21,0,0,1,.21-.21h2.34a.19.19,0,0,0,.23-.13A.19.19,0,0,0,40.28,18Z"/><path class="cls-5" d="M26.68,22.9l-4,4a.19.19,0,0,0,0,.27h0l4,4a.22.22,0,0,0,.3,0h0A.22.22,0,0,0,27,31V28.72a.23.23,0,0,1,.21-.21H31a.2.2,0,0,0,.19-.19h0V25.81a.2.2,0,0,0-.07-.26H27.31a.19.19,0,0,1-.21-.17h0V23.05a.22.22,0,0,0-.13-.28A.23.23,0,0,0,26.68,22.9Z"/><path class="cls-5" d="M45.72,31.19l4-4a.19.19,0,0,0,0-.27h0l-4-4a.22.22,0,0,0-.3,0,.28.28,0,0,0,0,.12v2.36a.18.18,0,0,1-.17.19H41.4a.2.2,0,0,0-.19.19v2.5a.19.19,0,0,0,.17.21h3.79a.21.21,0,0,1,.21.21v2.34a.2.2,0,0,0,.22.18h0A.16.16,0,0,0,45.72,31.19Z"/><path class="cls-1" d="M41.4,27.42a5.27,5.27,0,1,0-6.69,5v1.79a3.23,3.23,0,1,0,4.35,1.39h0a3.33,3.33,0,0,0-1.39-1.39V32.36A5.24,5.24,0,0,0,41.4,27.42Z"/><circle id="e99c3387-15c3-4f28-bd4b-cb209b430e06" class="cls-6" cx="36.14" cy="27.4" r="3.06"/><rect class="cls-7" x="77.17" y="150.57" width="17.32" height="11.55" rx="0.58"/><polygon class="cls-8" points="88.71 154.66 88.71 158.02 85.83 159.71 85.83 156.34 88.71 154.66"/><polygon class="cls-9" points="88.71 154.66 85.83 156.35 82.94 154.66 85.83 152.98 88.71 154.66"/><polygon class="cls-10" points="85.83 156.35 85.83 159.71 82.94 158.02 82.94 154.66 85.83 156.35"/><polygon class="cls-9" points="82.94 158.02 85.83 156.34 85.83 159.71 82.94 158.02"/><polygon class="cls-10" points="88.71 158.02 85.83 156.34 85.83 159.71 88.71 158.02"/><path class="cls-11" d="M89.3,165.61c-1.71-.27-1.78-1.5-1.78-3.49h-3.4c0,2-.05,3.22-1.77,3.49a1,1,0,0,0-.85,1h8.66A1,1,0,0,0,89.3,165.61Z"/><rect class="cls-12" x="133.55" y="150.57" width="17.32" height="11.55" rx="0.58"/><polygon class="cls-8" points="145.09 154.66 145.09 158.02 142.21 159.71 142.21 156.34 145.09 154.66"/><polygon class="cls-9" points="145.09 154.66 142.21 156.35 139.32 154.66 142.21 152.98 145.09 154.66"/><polygon class="cls-10" points="142.21 156.35 142.21 159.71 139.32 158.02 139.32 154.66 142.21 156.35"/><polygon class="cls-9" points="139.32 158.02 142.21 156.34 142.21 159.71 139.32 158.02"/><polygon class="cls-10" points="145.09 158.02 142.21 156.34 142.21 159.71 145.09 158.02"/><path class="cls-13" d="M145.68,165.61c-1.71-.27-1.78-1.5-1.78-3.49h-3.39c0,2-.06,3.22-1.77,3.49a1,1,0,0,0-.86,1h8.66A1,1,0,0,0,145.68,165.61Z"/><rect class="cls-14" x="188.72" y="150.57" width="17.32" height="11.55" rx="0.58"/><polygon class="cls-8" points="200.26 154.66 200.26 158.02 197.38 159.71 197.38 156.34 200.26 154.66"/><polygon class="cls-9" points="200.26 154.66 197.38 156.35 194.49 154.66 197.38 152.98 200.26 154.66"/><polygon class="cls-10" points="197.38 156.35 197.38 159.71 194.49 158.02 194.49 154.66 197.38 156.35"/><polygon class="cls-9" points="194.49 158.02 197.38 156.34 197.38 159.71 194.49 158.02"/><polygon class="cls-10" points="200.26 158.02 197.38 156.34 197.38 159.71 200.26 158.02"/><path class="cls-15" d="M200.85,165.61c-1.71-.27-1.78-1.5-1.78-3.49h-3.4c0,2-.06,3.22-1.77,3.49a1,1,0,0,0-.85,1h8.65A1,1,0,0,0,200.85,165.61Z"/><rect class="cls-16" x="243.74" y="150.57" width="17.32" height="11.55" rx="0.58"/><polygon class="cls-8" points="255.28 154.66 255.28 158.02 252.4 159.71 252.4 156.34 255.28 154.66"/><polygon class="cls-9" points="255.28 154.66 252.4 156.35 249.51 154.66 252.4 152.98 255.28 154.66"/><polygon class="cls-10" points="252.4 156.35 252.4 159.71 249.51 158.02 249.51 154.66 252.4 156.35"/><polygon class="cls-9" points="249.51 158.02 252.4 156.34 252.4 159.71 249.51 158.02"/><polygon class="cls-10" points="255.28 158.02 252.4 156.34 252.4 159.71 255.28 158.02"/><path class="cls-17" d="M255.87,165.61c-1.71-.27-1.78-1.5-1.78-3.49h-3.4c0,2-.05,3.22-1.77,3.49a1,1,0,0,0-.85,1h8.66A1,1,0,0,0,255.87,165.61Z"/><line class="cls-18" x1="1.17" y1="121.17" x2="286.17" y2="121.17"/><circle class="cls-19" cx="81.17" cy="91.17" r="5"/><circle class="cls-20" cx="96.17" cy="91.17" r="5"/><circle class="cls-21" cx="111.17" cy="91.17" r="5"/><circle class="cls-22" cx="81.17" cy="106.17" r="5"/><circle class="cls-23" cx="17.66" cy="203.67" r="5"/><circle class="cls-24" cx="96.17" cy="106.17" r="5"/><circle class="cls-25" cx="111.17" cy="106.17" r="5"/><circle class="cls-26" cx="81.17" cy="76.17" r="5"/><circle class="cls-27" cx="96.17" cy="76.17" r="5"/><circle class="cls-28" cx="111.17" cy="76.17" r="5"/><circle class="cls-29" cx="136.17" cy="91.17" r="5"/><circle class="cls-30" cx="151.17" cy="91.17" r="5"/><circle class="cls-31" cx="166.17" cy="91.17" r="5"/><circle class="cls-32" cx="136.17" cy="106.17" r="5"/><circle class="cls-33" cx="151.17" cy="106.17" r="5"/><circle class="cls-34" cx="166.17" cy="106.17" r="5"/><circle class="cls-35" cx="136.17" cy="76.17" r="5"/><circle class="cls-36" cx="17.66" cy="188.67" r="5"/><circle class="cls-37" cx="151.17" cy="76.17" r="5"/><circle class="cls-38" cx="166.17" cy="76.17" r="5"/><circle class="cls-39" cx="191.17" cy="91.17" r="5"/><circle class="cls-40" cx="206.17" cy="91.17" r="5"/><circle class="cls-41" cx="221.17" cy="91.17" r="5"/><circle class="cls-42" cx="191.17" cy="106.17" r="5"/><circle class="cls-43" cx="206.17" cy="106.17" r="5"/><circle class="cls-44" cx="221.17" cy="106.17" r="5"/><circle class="cls-45" cx="191.17" cy="76.17" r="5"/><circle class="cls-46" cx="206.17" cy="76.17" r="5"/><circle class="cls-47" cx="221.17" cy="76.17" r="5"/><circle class="cls-48" cx="246.17" cy="91.17" r="5"/><circle class="cls-49" cx="261.17" cy="91.17" r="5"/><circle class="cls-50" cx="276.17" cy="91.17" r="5"/><circle class="cls-51" cx="246.17" cy="106.17" r="5"/><circle class="cls-52" cx="261.17" cy="106.17" r="5"/><circle class="cls-53" cx="276.17" cy="106.17" r="5"/><circle class="cls-54" cx="246.17" cy="76.17" r="5"/><circle class="cls-55" cx="261.17" cy="76.17" r="5"/><circle class="cls-56" cx="276.17" cy="76.17" r="5"/><rect class="cls-57" x="76.53" y="131.17" width="40" height="10"/><rect class="cls-58" x="131.72" y="131.17" width="40" height="10"/><rect class="cls-59" x="131.72" y="131.17" width="10" height="10"/><rect class="cls-58" x="186.72" y="131.17" width="40" height="10"/><rect class="cls-60" x="186.72" y="131.17" width="25" height="10"/><rect class="cls-58" x="241.72" y="131.17" width="40" height="10"/><rect class="cls-59" x="241.72" y="131.17" width="25" height="10"/><line class="cls-18" x1="71.17" y1="56.17" x2="71.17" y2="176.17"/><line class="cls-18" x1="125.04" y1="56.17" x2="125.04" y2="176.17"/><line class="cls-18" x1="178.92" y1="56.17" x2="178.92" y2="176.17"/><line class="cls-18" x1="232.79" y1="56.17" x2="232.79" y2="176.17"/><rect class="cls-61" x="299.67" y="150.57" width="17.32" height="11.55" rx="0.58"/><polygon class="cls-8" points="311.21 154.66 311.21 158.02 308.33 159.71 308.33 156.34 311.21 154.66"/><polygon class="cls-9" points="311.21 154.66 308.33 156.35 305.44 154.66 308.33 152.98 311.21 154.66"/><polygon class="cls-10" points="308.33 156.35 308.33 159.71 305.44 158.02 305.44 154.66 308.33 156.35"/><polygon class="cls-9" points="305.44 158.02 308.33 156.34 308.33 159.71 305.44 158.02"/><polygon class="cls-10" points="311.21 158.02 308.33 156.34 308.33 159.71 311.21 158.02"/><path class="cls-62" d="M311.8,165.61c-1.71-.27-1.78-1.5-1.78-3.49h-3.4c0,2-.05,3.22-1.77,3.49a1,1,0,0,0-.85,1h8.66A1,1,0,0,0,311.8,165.61Z"/><rect class="cls-63" x="356.05" y="150.57" width="17.32" height="11.55" rx="0.58"/><polygon class="cls-8" points="367.6 154.66 367.6 158.02 364.71 159.71 364.71 156.34 367.6 154.66"/><polygon class="cls-9" points="367.6 154.66 364.71 156.35 361.82 154.66 364.71 152.98 367.6 154.66"/><polygon class="cls-10" points="364.71 156.35 364.71 159.71 361.82 158.02 361.82 154.66 364.71 156.35"/><polygon class="cls-9" points="361.82 158.02 364.71 156.34 364.71 159.71 361.82 158.02"/><polygon class="cls-10" points="367.6 158.02 364.71 156.34 364.71 159.71 367.6 158.02"/><path class="cls-64" d="M368.18,165.61c-1.71-.27-1.78-1.5-1.78-3.49H363c0,2-.06,3.22-1.77,3.49a1,1,0,0,0-.86,1H369A1,1,0,0,0,368.18,165.61Z"/><rect class="cls-65" x="411.22" y="150.57" width="17.32" height="11.55" rx="0.58"/><polygon class="cls-8" points="422.76 154.66 422.76 158.02 419.88 159.71 419.88 156.34 422.76 154.66"/><polygon class="cls-9" points="422.76 154.66 419.88 156.35 416.99 154.66 419.88 152.98 422.76 154.66"/><polygon class="cls-10" points="419.88 156.35 419.88 159.71 416.99 158.02 416.99 154.66 419.88 156.35"/><polygon class="cls-9" points="416.99 158.02 419.88 156.34 419.88 159.71 416.99 158.02"/><polygon class="cls-10" points="422.76 158.02 419.88 156.34 419.88 159.71 422.76 158.02"/><path class="cls-66" d="M423.35,165.61c-1.71-.27-1.78-1.5-1.78-3.49h-3.4c0,2-.06,3.22-1.77,3.49a1,1,0,0,0-.85,1h8.65A1,1,0,0,0,423.35,165.61Z"/><rect class="cls-67" x="466.24" y="150.57" width="17.32" height="11.55" rx="0.58"/><polygon class="cls-8" points="477.78 154.66 477.78 158.02 474.9 159.71 474.9 156.34 477.78 154.66"/><polygon class="cls-9" points="477.78 154.66 474.9 156.35 472.01 154.66 474.9 152.98 477.78 154.66"/><polygon class="cls-10" points="474.9 156.35 474.9 159.71 472.01 158.02 472.01 154.66 474.9 156.35"/><polygon class="cls-9" points="472.01 158.02 474.9 156.34 474.9 159.71 472.01 158.02"/><polygon class="cls-10" points="477.78 158.02 474.9 156.34 474.9 159.71 477.78 158.02"/><path class="cls-68" d="M478.37,165.61c-1.71-.27-1.78-1.5-1.78-3.49h-3.4c0,2-.05,3.22-1.77,3.49a1,1,0,0,0-.85,1h8.66A1,1,0,0,0,478.37,165.61Z"/><line class="cls-18" x1="291.17" y1="121.17" x2="576.83" y2="121.17"/><circle class="cls-69" cx="303.67" cy="91.17" r="5"/><circle class="cls-70" cx="318.67" cy="91.17" r="5"/><circle class="cls-71" cx="333.67" cy="91.17" r="5"/><circle class="cls-72" cx="303.67" cy="106.17" r="5"/><circle class="cls-73" cx="318.67" cy="106.17" r="5"/><circle class="cls-74" cx="333.67" cy="106.17" r="5"/><circle class="cls-75" cx="303.67" cy="76.17" r="5"/><circle class="cls-76" cx="318.67" cy="76.17" r="5"/><circle class="cls-77" cx="333.67" cy="76.17" r="5"/><circle class="cls-78" cx="358.67" cy="106.17" r="5"/><circle class="cls-79" cx="373.67" cy="106.17" r="5"/><circle class="cls-80" cx="388.67" cy="106.17" r="5"/><circle class="cls-81" cx="413.67" cy="91.17" r="5"/><circle class="cls-82" cx="428.67" cy="91.17" r="5"/><circle class="cls-83" cx="443.67" cy="91.17" r="5"/><circle class="cls-84" cx="413.67" cy="106.17" r="5"/><circle class="cls-85" cx="428.67" cy="106.17" r="5"/><circle class="cls-86" cx="443.67" cy="106.17" r="5"/><circle class="cls-87" cx="413.67" cy="76.17" r="5"/><circle class="cls-88" cx="468.67" cy="91.17" r="5"/><circle class="cls-89" cx="483.67" cy="91.17" r="5"/><circle class="cls-90" cx="498.67" cy="91.17" r="5"/><circle class="cls-91" cx="468.67" cy="106.17" r="5"/><circle class="cls-92" cx="483.67" cy="106.17" r="5"/><circle class="cls-93" cx="498.67" cy="106.17" r="5"/><rect class="cls-59" x="299.03" y="131.17" width="40" height="10"/><rect class="cls-58" x="354.22" y="131.17" width="40" height="10"/><rect class="cls-59" x="354.22" y="131.17" width="10" height="10"/><rect class="cls-58" x="409.22" y="131.17" width="40" height="10"/><rect class="cls-59" x="409.22" y="131.17" width="25" height="10"/><rect class="cls-58" x="464.22" y="131.17" width="40" height="10"/><rect class="cls-59" x="464.22" y="131.17" width="25" height="10"/><line class="cls-18" x1="347.54" y1="56.17" x2="347.54" y2="176.17"/><line class="cls-18" x1="401.42" y1="56.17" x2="401.42" y2="176.17"/><line class="cls-18" x1="455.29" y1="56.17" x2="455.29" y2="176.17"/><line class="cls-18" x1="511.83" y1="56.17" x2="511.83" y2="176.17"/><g id="ad94e297-0e86-4eaf-aac0-d146ee9aea65"><path class="cls-94" d="M313.87,35.34,308.73,30a2.45,2.45,0,0,1-.85.15,2.66,2.66,0,1,1,2.45-3.64h5.07v1.77h-5a4.51,4.51,0,0,1-.29.63l4.75,4.89,2.57-3.91V17.66H314l4.36-4.42,4.33,4.42h-3.46v9.58l6.5-9.92-6.55-6.56a1.15,1.15,0,0,0-1.61,0h0L301.68,26.61a1.15,1.15,0,0,0,0,1.61h0l15.87,15.87-5.67-5.67Z"/><path class="cls-95" d="M317.44,35.57V29.9l-2.57,3.93,1.89,2A1.88,1.88,0,0,1,317.44,35.57Z"/><path class="cls-95" d="M335,26.61l-9.3-9.29-6.5,9.92v8.35a2.25,2.25,0,0,1,.59.32l6.82-6.9a3,3,0,0,1-.34-.7h-5.12V26.54h5.2a2.64,2.64,0,1,1,2.45,3.64,2.58,2.58,0,0,1-.73-.11l-7.26,7.31a2.25,2.25,0,0,1,.11.68,2.66,2.66,0,0,1-5.32.21h0a2.44,2.44,0,0,1,.15-1l-1.89-1.89-2,3,5.67,5.67a1.14,1.14,0,0,0,1.59,0L335,28.22a1.13,1.13,0,0,0,0-1.6h0Z"/><path class="cls-58" d="M326.36,26.54h-5.2v1.77h5.12a2.67,2.67,0,0,1-.13-.79A2.37,2.37,0,0,1,326.36,26.54Z"/><path class="cls-58" d="M310.41,28.31h5V26.54h-5.07a2.46,2.46,0,0,1,.21,1A2.9,2.9,0,0,1,310.41,28.31Z"/><path class="cls-58" d="M320.82,37.38l7.26-7.31A2.62,2.62,0,0,1,326.62,29l-6.82,6.9A2.54,2.54,0,0,1,320.82,37.38Z"/><path class="cls-58" d="M316.81,35.85l-1.89-2L310.12,29a2.67,2.67,0,0,1-1.39,1l5.14,5.31,1.89,1.89A2.65,2.65,0,0,1,316.81,35.85Z"/><path class="cls-1" d="M322.65,17.66l-4.31-4.42L314,17.66h3.46V35.57a2.09,2.09,0,0,0-.63.28,2.59,2.59,0,0,0-1.05,1.44,2.64,2.64,0,0,0,5.06,1.53h0a2.79,2.79,0,0,0,.11-.76,2.25,2.25,0,0,0-.11-.68,2.49,2.49,0,0,0-1-1.47,2.25,2.25,0,0,0-.59-.32V17.66Zm-4.31,21.88a1.48,1.48,0,1,1,1.48-1.48h0a1.48,1.48,0,0,1-1.48,1.48Z"/><path class="cls-1" d="M310.12,28.94a4.51,4.51,0,0,0,.29-.63,2.67,2.67,0,0,0,.13-.79,2.46,2.46,0,0,0-.21-1,2.65,2.65,0,1,0-2.45,3.64,2.45,2.45,0,0,0,.85-.15A2.69,2.69,0,0,0,310.12,28.94Zm-2.24,0a1.48,1.48,0,1,1,1.47-1.49h0A1.47,1.47,0,0,1,308,29h-.07Z"/><path class="cls-1" d="M328.08,30.07a2.58,2.58,0,0,0,.73.11,2.66,2.66,0,1,0-2.45-3.64,2.46,2.46,0,0,0-.21,1,2.67,2.67,0,0,0,.13.79,3,3,0,0,0,.34.7A2.65,2.65,0,0,0,328.08,30.07Zm.73-4a1.47,1.47,0,1,1-.33,0A.92.92,0,0,1,328.81,26.07Z"/><path class="cls-96" d="M318.34,36.59a1.48,1.48,0,1,0,1.48,1.48h0a1.47,1.47,0,0,0-1.47-1.47Z"/><circle class="cls-96" cx="307.88" cy="27.52" r="1.47"/><path class="cls-96" d="M328.81,29a1.47,1.47,0,1,0-1.47-1.47h0A1.47,1.47,0,0,0,328.81,29Z"/></g></g><g id="Text"><path class="cls-97" d="M70.31,18.36h-5V10h1.9v6.87h3.11Z"/><path class="cls-97" d="M74.13,18.5a3.23,3.23,0,0,1-2.36-.84,3.05,3.05,0,0,1-.86-2.28,3.07,3.07,0,0,1,.89-2.33,3.37,3.37,0,0,1,2.41-.84,3.16,3.16,0,0,1,2.34.84,3,3,0,0,1,.85,2.22,3.2,3.2,0,0,1-.87,2.37A3.31,3.31,0,0,1,74.13,18.5Zm0-4.87a1.26,1.26,0,0,0-1,.45,2,2,0,0,0-.36,1.28c0,1.15.47,1.72,1.4,1.72s1.33-.59,1.33-1.77S75.07,13.63,74.17,13.63Z"/><path class="cls-97" d="M83.49,18.36H81.74v-.87h0a2,2,0,0,1-1.79,1A1.89,1.89,0,0,1,78.55,18a1.79,1.79,0,0,1-.5-1.32c0-1.17.69-1.84,2.07-2l1.63-.22c0-.65-.35-1-1.07-1a3.58,3.58,0,0,0-2,.64v-1.4a4.57,4.57,0,0,1,1-.35,5.7,5.7,0,0,1,1.22-.15,2.26,2.26,0,0,1,2.57,2.56Zm-1.74-2.44v-.41l-1.09.15q-.9.11-.9.81A.67.67,0,0,0,80,17a.86.86,0,0,0,.59.2,1.1,1.1,0,0,0,.85-.36A1.29,1.29,0,0,0,81.75,15.92Z"/><path class="cls-97" d="M90.84,18.36H89v-.83h0a2.06,2.06,0,0,1-1.85,1,2.26,2.26,0,0,1-1.81-.79,3.28,3.28,0,0,1-.69-2.22,3.52,3.52,0,0,1,.76-2.38,2.45,2.45,0,0,1,2-.9A1.68,1.68,0,0,1,89,13h0V9.47h1.85ZM89,15.44V15a1.43,1.43,0,0,0-.34-1,1.13,1.13,0,0,0-.88-.38,1.12,1.12,0,0,0-1,.48,2.26,2.26,0,0,0-.35,1.33,1.91,1.91,0,0,0,.34,1.22,1.19,1.19,0,0,0,1.84,0A1.91,1.91,0,0,0,89,15.44Z"/><path class="cls-97" d="M95.91,18.36V10H99a3.83,3.83,0,0,1,2.16.52,1.64,1.64,0,0,1,.76,1.45,1.69,1.69,0,0,1-.46,1.19,2.41,2.41,0,0,1-1.18.71v0a2.37,2.37,0,0,1,1.44.67,1.86,1.86,0,0,1,.53,1.34,2.24,2.24,0,0,1-.82,1.83,3.48,3.48,0,0,1-2.26.68Zm1.9-7v2h.83a1.37,1.37,0,0,0,.92-.28,1,1,0,0,0,.34-.79c0-.61-.46-.92-1.39-.92Zm0,3.4V17h1a1.6,1.6,0,0,0,1-.3,1,1,0,0,0,.37-.84,1,1,0,0,0-.36-.79,1.66,1.66,0,0,0-1-.28Z"/><path class="cls-97" d="M108.43,18.36h-1.75v-.87h0a1.93,1.93,0,0,1-1.78,1,1.89,1.89,0,0,1-1.38-.49,1.79,1.79,0,0,1-.5-1.32c0-1.17.69-1.84,2.07-2l1.63-.22c0-.65-.36-1-1.07-1a3.64,3.64,0,0,0-2,.64v-1.4a4.67,4.67,0,0,1,1.06-.35,5.7,5.7,0,0,1,1.22-.15,2.27,2.27,0,0,1,2.57,2.56Zm-1.74-2.44v-.41l-1.09.15q-.9.11-.9.81a.67.67,0,0,0,.22.52.84.84,0,0,0,.59.2,1.1,1.1,0,0,0,.85-.36A1.29,1.29,0,0,0,106.69,15.92Z"/><path class="cls-97" d="M111.76,18.36h-1.85V9.47h1.85Z"/><path class="cls-97" d="M118.32,18.36h-1.75v-.87h0a1.93,1.93,0,0,1-1.78,1,1.89,1.89,0,0,1-1.38-.49,1.79,1.79,0,0,1-.5-1.32c0-1.17.69-1.84,2.07-2l1.63-.22c0-.65-.36-1-1.07-1a3.64,3.64,0,0,0-2,.64v-1.4a4.67,4.67,0,0,1,1.06-.35,5.7,5.7,0,0,1,1.22-.15,2.27,2.27,0,0,1,2.57,2.56Zm-1.74-2.44v-.41l-1.09.15q-.9.11-.9.81a.67.67,0,0,0,.22.52.84.84,0,0,0,.59.2,1.1,1.1,0,0,0,.85-.36A1.29,1.29,0,0,0,116.58,15.92Z"/><path class="cls-97" d="M125.59,18.36h-1.84V15c0-.93-.33-1.39-1-1.39A1,1,0,0,0,122,14a1.38,1.38,0,0,0-.31.93v3.43H119.8v-6h1.85v1h0a2.11,2.11,0,0,1,1.93-1.1c1.33,0,2,.82,2,2.47Z"/><path class="cls-97" d="M131.62,18.14a3.72,3.72,0,0,1-1.81.36,3,3,0,0,1-2.24-.84,2.87,2.87,0,0,1-.86-2.16,3.19,3.19,0,0,1,.92-2.41,3.38,3.38,0,0,1,2.45-.88,3.14,3.14,0,0,1,1.54.28v1.57a2.12,2.12,0,0,0-1.3-.43,1.7,1.7,0,0,0-1.26.46,1.75,1.75,0,0,0-.47,1.29,1.69,1.69,0,0,0,.45,1.25,1.62,1.62,0,0,0,1.22.45,2.47,2.47,0,0,0,1.36-.43Z"/><path class="cls-97" d="M138.23,15.88h-3.91c.06.87.61,1.31,1.64,1.31a3.24,3.24,0,0,0,1.74-.47v1.34a4.63,4.63,0,0,1-2.16.44,3,3,0,0,1-2.25-.8,3,3,0,0,1-.81-2.25,3.2,3.2,0,0,1,.87-2.37,2.9,2.9,0,0,1,2.13-.87,2.6,2.6,0,0,1,2,.78,3,3,0,0,1,.72,2.11Zm-1.72-1.13c0-.86-.34-1.29-1-1.29a1,1,0,0,0-.77.37,1.58,1.58,0,0,0-.39.92Z"/><path class="cls-97" d="M143.26,14a1.61,1.61,0,0,0-.78-.19,1.1,1.1,0,0,0-.94.45,1.88,1.88,0,0,0-.34,1.2v2.87h-1.86v-6h1.86v1.11h0a1.6,1.6,0,0,1,1.58-1.22,1.14,1.14,0,0,1,.46.07Z"/><path class="cls-97" d="M351.63,24.38h-1.92l-3.46-5.28q-.3-.47-.42-.69h0c0,.29,0,.75,0,1.36v4.61h-1.78V16h2l3.33,5.12c.15.23.29.45.42.68h0a9.61,9.61,0,0,1,0-1.15V16h1.79Z"/><path class="cls-97" d="M361,24.38h-2.07l-.59-1.87h-3l-.59,1.87h-2l3-8.4H358Zm-3.1-3.32-.9-2.82a3.69,3.69,0,0,1-.14-.76h-.05a3,3,0,0,1-.14.73l-.92,2.85Z"/><path class="cls-97" d="M367.07,17.52h-2.4v6.86h-1.89V17.52h-2.39V16h6.68Z"/><path class="cls-97" d="M377.23,24.38h-1.86v-.82h0a2.09,2.09,0,0,1-1.86,1,2.3,2.3,0,0,1-1.81-.79,3.33,3.33,0,0,1-.68-2.22,3.62,3.62,0,0,1,.75-2.39,2.47,2.47,0,0,1,2-.89,1.67,1.67,0,0,1,1.62.83h0V15.5h1.86Zm-1.82-2.92V21a1.4,1.4,0,0,0-.34-1,1.2,1.2,0,0,0-1.85.1,2.23,2.23,0,0,0-.34,1.32,2,2,0,0,0,.33,1.22,1.18,1.18,0,0,0,1.84,0A1.87,1.87,0,0,0,375.41,21.46Z"/><path class="cls-97" d="M384.19,21.91h-3.92c.06.87.61,1.31,1.65,1.31a3.24,3.24,0,0,0,1.74-.47v1.33a4.56,4.56,0,0,1-2.16.45,2.79,2.79,0,0,1-3.06-3.05,3.2,3.2,0,0,1,.87-2.37,2.87,2.87,0,0,1,2.13-.87,2.63,2.63,0,0,1,2,.78,3,3,0,0,1,.72,2.11Zm-1.72-1.14c0-.86-.35-1.29-1-1.29a1,1,0,0,0-.77.37,1.72,1.72,0,0,0-.4.92Z"/><path class="cls-97" d="M395.85,24.38h-2.17l-1.31-2.16c-.09-.16-.19-.31-.28-.44a2.39,2.39,0,0,0-.27-.33,1.12,1.12,0,0,0-.29-.21.71.71,0,0,0-.32-.07h-.51v3.21h-1.9V16h3c2,0,3.06.76,3.06,2.29a2.37,2.37,0,0,1-.13.81,2.47,2.47,0,0,1-.38.67,2.29,2.29,0,0,1-.6.51,2.82,2.82,0,0,1-.77.34v0a1.26,1.26,0,0,1,.36.19,3.17,3.17,0,0,1,.34.3c.11.12.21.25.31.38l.28.4Zm-5.15-7v2.34h.82a1.36,1.36,0,0,0,1-.36,1.15,1.15,0,0,0,.37-.88c0-.73-.44-1.1-1.32-1.1Z"/><path class="cls-97" d="M401.56,21.91h-3.91c.06.87.61,1.31,1.64,1.31a3.24,3.24,0,0,0,1.74-.47v1.33a4.5,4.5,0,0,1-2.16.45,2.81,2.81,0,0,1-3.06-3.05,3.2,3.2,0,0,1,.87-2.37,2.9,2.9,0,0,1,2.13-.87,2.62,2.62,0,0,1,2,.78,3,3,0,0,1,.72,2.11Zm-1.72-1.14c0-.86-.34-1.29-1-1.29a1,1,0,0,0-.77.37,1.72,1.72,0,0,0-.4.92Z"/><path class="cls-97" d="M408.55,24.38h-1.86v-.82h0a2.09,2.09,0,0,1-1.86,1,2.3,2.3,0,0,1-1.81-.79,3.33,3.33,0,0,1-.68-2.22,3.62,3.62,0,0,1,.75-2.39,2.47,2.47,0,0,1,2-.89,1.67,1.67,0,0,1,1.62.83h0V15.5h1.86Zm-1.82-2.92V21a1.4,1.4,0,0,0-.34-1,1.2,1.2,0,0,0-1.85.1,2.23,2.23,0,0,0-.34,1.32,2,2,0,0,0,.33,1.22,1.1,1.1,0,0,0,.93.43,1.13,1.13,0,0,0,.92-.45A1.92,1.92,0,0,0,406.73,21.46Z"/><path class="cls-97" d="M415.51,21.91h-3.92c.07.87.61,1.31,1.65,1.31a3.24,3.24,0,0,0,1.74-.47v1.33a4.56,4.56,0,0,1-2.16.45,2.79,2.79,0,0,1-3.06-3.05,3.2,3.2,0,0,1,.87-2.37,2.88,2.88,0,0,1,2.13-.87,2.63,2.63,0,0,1,2,.78,3,3,0,0,1,.72,2.11Zm-1.72-1.14c0-.86-.35-1.29-1-1.29a1,1,0,0,0-.77.37,1.72,1.72,0,0,0-.4.92Z"/><path class="cls-97" d="M427.12,16l-2.89,8.4h-2.15L419.22,16h2L423,21.83a3.68,3.68,0,0,1,.17.84h0a5.41,5.41,0,0,1,.18-.87L425.14,16Z"/><path class="cls-97" d="M428.9,17.43a1.1,1.1,0,0,1-.77-.27.92.92,0,0,1-.3-.69.88.88,0,0,1,.3-.68,1.14,1.14,0,0,1,.77-.26,1.16,1.16,0,0,1,.77.26,1,1,0,0,1,0,1.37A1.11,1.11,0,0,1,428.9,17.43Zm.91,7H428v-6h1.85Z"/><path class="cls-97" d="M435.29,20.05a1.59,1.59,0,0,0-.77-.18,1.14,1.14,0,0,0-.95.44,2,2,0,0,0-.34,1.21v2.86h-1.85v-6h1.85V19.5h0a1.59,1.59,0,0,1,1.58-1.22,1.09,1.09,0,0,1,.45.07Z"/><path class="cls-97" d="M440.14,24.31a2.64,2.64,0,0,1-1.24.22c-1.3,0-1.95-.68-1.95-2V19.75h-1V18.38h1V17.09l1.84-.53v1.82h1.35v1.37h-1.35v2.42c0,.63.25.94.75.94a1.31,1.31,0,0,0,.6-.17Z"/><path class="cls-97" d="M446.9,24.38h-1.85v-.91h0a2.08,2.08,0,0,1-1.83,1.06c-1.39,0-2.09-.84-2.09-2.53V18.38H443v3.46c0,.85.33,1.27,1,1.27a1,1,0,0,0,.79-.35,1.4,1.4,0,0,0,.3-.94V18.38h1.85Z"/><path class="cls-97" d="M453.46,24.38h-1.75v-.86h0a2,2,0,0,1-1.78,1,1.9,1.9,0,0,1-1.38-.5,1.79,1.79,0,0,1-.5-1.32q0-1.74,2.07-2l1.63-.22c0-.66-.36-1-1.07-1a3.7,3.7,0,0,0-2,.63V18.74a4.67,4.67,0,0,1,1.06-.35,5.7,5.7,0,0,1,1.22-.15,2.27,2.27,0,0,1,2.57,2.56ZM451.72,22v-.41l-1.09.14c-.6.08-.9.35-.9.82A.64.64,0,0,0,450,23a.8.8,0,0,0,.59.21,1.1,1.1,0,0,0,.85-.36A1.31,1.31,0,0,0,451.72,22Z"/><path class="cls-97" d="M456.79,24.38h-1.85V15.5h1.85Z"/><path class="cls-98" d="M343.68,38.21V36.33a3.45,3.45,0,0,0,1.11.64,3.39,3.39,0,0,0,1.2.22,2.38,2.38,0,0,0,.63-.07,1.5,1.5,0,0,0,.44-.17.87.87,0,0,0,.27-.27.69.69,0,0,0,.09-.34.74.74,0,0,0-.14-.44,1.52,1.52,0,0,0-.39-.36,3.74,3.74,0,0,0-.57-.31l-.72-.32a3.56,3.56,0,0,1-1.47-1,2.38,2.38,0,0,1-.22-2.55,2.07,2.07,0,0,1,.72-.78,3.33,3.33,0,0,1,1.05-.45,5.18,5.18,0,0,1,1.26-.14,6.86,6.86,0,0,1,1.17.08,4.37,4.37,0,0,1,.93.24v1.75a2.9,2.9,0,0,0-.46-.26,4.4,4.4,0,0,0-.51-.18,3.33,3.33,0,0,0-.53-.11l-.49,0a2.68,2.68,0,0,0-.59.06,1.62,1.62,0,0,0-.44.17.73.73,0,0,0-.28.27.59.59,0,0,0-.1.34.61.61,0,0,0,.11.38,1.33,1.33,0,0,0,.31.32,3.3,3.3,0,0,0,.5.29l.66.3a7,7,0,0,1,.91.45,2.87,2.87,0,0,1,.69.53,2.08,2.08,0,0,1,.44.69,2.4,2.4,0,0,1,.15.89,2.37,2.37,0,0,1-.27,1.18,2.05,2.05,0,0,1-.72.77,3.15,3.15,0,0,1-1.06.43,6.61,6.61,0,0,1-1.28.13,7,7,0,0,1-1.32-.12A4.15,4.15,0,0,1,343.68,38.21Z"/><path class="cls-98" d="M358.36,38.53h-1.91L353,33.25c-.2-.31-.34-.54-.42-.7h0a11.68,11.68,0,0,1,0,1.36v4.62H350.8v-8.4h2l3.34,5.11q.22.34.42.69h0a9.81,9.81,0,0,1,0-1.16V30.13h1.78Z"/><path class="cls-98" d="M367.69,38.53h-2.07L365,36.66h-3l-.59,1.87H359.4l3.05-8.4h2.25Zm-3.1-3.32-.9-2.83a3.59,3.59,0,0,1-.14-.75h-.05a3.76,3.76,0,0,1-.14.73l-.92,2.85Z"/><path class="cls-98" d="M373.81,31.67h-2.4v6.86h-1.9V31.67h-2.38V30.13h6.68Z"/><path class="cls-98" d="M384,38.53h-1.85V37.7h0a2.08,2.08,0,0,1-1.86,1,2.28,2.28,0,0,1-1.81-.8,3.28,3.28,0,0,1-.68-2.22,3.59,3.59,0,0,1,.75-2.38,2.48,2.48,0,0,1,2-.9,1.68,1.68,0,0,1,1.62.84h0V29.65H384Zm-1.81-2.92v-.45a1.45,1.45,0,0,0-.34-1,1.2,1.2,0,0,0-1.85.09,2.28,2.28,0,0,0-.34,1.33,2,2,0,0,0,.33,1.22,1.18,1.18,0,0,0,1.84,0A1.87,1.87,0,0,0,382.15,35.61Z"/><path class="cls-98" d="M390.93,36.06H387c.06.87.61,1.3,1.65,1.3a3.23,3.23,0,0,0,1.74-.46v1.33a4.56,4.56,0,0,1-2.16.45,2.8,2.8,0,0,1-3.06-3.06,3.23,3.23,0,0,1,.86-2.36,2.87,2.87,0,0,1,2.14-.88,2.63,2.63,0,0,1,2,.78,3,3,0,0,1,.72,2.12Zm-1.72-1.14c0-.86-.35-1.29-1-1.29a1,1,0,0,0-.77.37,1.68,1.68,0,0,0-.4.92Z"/><path class="cls-98" d="M395,38.37v-1.5a3.66,3.66,0,0,0,.91.41,3,3,0,0,0,.86.14,1.76,1.76,0,0,0,.77-.14.43.43,0,0,0,.29-.41.36.36,0,0,0-.13-.29,1.33,1.33,0,0,0-.33-.21,4.53,4.53,0,0,0-.44-.15l-.47-.16a6.21,6.21,0,0,1-.63-.29,2.09,2.09,0,0,1-.45-.36,1.29,1.29,0,0,1-.28-.48,1.76,1.76,0,0,1-.1-.64,1.6,1.6,0,0,1,.22-.86,1.75,1.75,0,0,1,.58-.6,2.85,2.85,0,0,1,.84-.34,4.53,4.53,0,0,1,1-.11,4.43,4.43,0,0,1,.81.07,6.83,6.83,0,0,1,.81.17v1.43a2.74,2.74,0,0,0-.75-.3,3.13,3.13,0,0,0-.79-.11,1.76,1.76,0,0,0-.63.13.49.49,0,0,0-.19.16.34.34,0,0,0-.07.22.4.4,0,0,0,.1.28,1.18,1.18,0,0,0,.28.2,1.88,1.88,0,0,0,.38.15l.41.14a6.16,6.16,0,0,1,.67.28,1.94,1.94,0,0,1,.51.36,1.58,1.58,0,0,1,.33.48,1.63,1.63,0,0,1,.11.66,1.67,1.67,0,0,1-.23.91,1.87,1.87,0,0,1-.61.61,2.72,2.72,0,0,1-.89.35,5,5,0,0,1-1,.11A5.41,5.41,0,0,1,395,38.37Z"/><path class="cls-98" d="M405.65,38.53h-1.76v-.86h0a2,2,0,0,1-1.79,1,1.86,1.86,0,0,1-1.37-.5,1.79,1.79,0,0,1-.5-1.32c0-1.16.69-1.84,2.07-2l1.63-.21c0-.66-.36-1-1.07-1a3.67,3.67,0,0,0-2,.64V32.89a4.22,4.22,0,0,1,1.06-.35,5.05,5.05,0,0,1,1.22-.16,2.27,2.27,0,0,1,2.57,2.56Zm-1.74-2.44v-.4l-1.09.14c-.61.08-.91.35-.91.81a.69.69,0,0,0,.22.52.84.84,0,0,0,.6.2,1.1,1.1,0,0,0,.85-.36A1.29,1.29,0,0,0,403.91,36.09Z"/><path class="cls-98" d="M409.93,29.69l-1.84,1.89h-1.33l1.52-1.89Zm-1,8.84h-1.85v-6H409Z"/><path class="cls-98" d="M416.42,38.53h-1.86V37.7h0a2.08,2.08,0,0,1-1.86,1,2.28,2.28,0,0,1-1.81-.8,3.33,3.33,0,0,1-.68-2.22,3.59,3.59,0,0,1,.75-2.38,2.48,2.48,0,0,1,2-.9,1.67,1.67,0,0,1,1.62.84h0V29.65h1.86Zm-1.82-2.92v-.45a1.4,1.4,0,0,0-.34-1,1.2,1.2,0,0,0-1.85.09,2.28,2.28,0,0,0-.34,1.33,2,2,0,0,0,.33,1.22,1.18,1.18,0,0,0,1.84,0A1.87,1.87,0,0,0,414.6,35.61Z"/><path class="cls-98" d="M423,38.53h-1.75v-.86h0a2,2,0,0,1-1.78,1,1.88,1.88,0,0,1-1.38-.5,1.79,1.79,0,0,1-.5-1.32c0-1.16.69-1.84,2.07-2l1.63-.21c0-.66-.36-1-1.07-1a3.72,3.72,0,0,0-2,.64V32.89a4.22,4.22,0,0,1,1.06-.35,5.12,5.12,0,0,1,1.22-.16A2.27,2.27,0,0,1,423,34.94Zm-1.74-2.44v-.4l-1.09.14q-.9.12-.9.81a.69.69,0,0,0,.21.52.84.84,0,0,0,.6.2,1.1,1.1,0,0,0,.85-.36A1.29,1.29,0,0,0,421.24,36.09Z"/><path class="cls-98" d="M427.38,38.37v-1.5a3.72,3.72,0,0,0,.92.41,3,3,0,0,0,.85.14,1.84,1.84,0,0,0,.78-.14.42.42,0,0,0,.28-.41.38.38,0,0,0-.12-.29,1.23,1.23,0,0,0-.34-.21,3.76,3.76,0,0,0-.44-.15l-.46-.16a4.68,4.68,0,0,1-.63-.29,2.45,2.45,0,0,1-.46-.36,1.64,1.64,0,0,1-.28-.48,2,2,0,0,1-.1-.64,1.69,1.69,0,0,1,.22-.86,1.88,1.88,0,0,1,.59-.6,2.64,2.64,0,0,1,.84-.34,4.46,4.46,0,0,1,1-.11,4.51,4.51,0,0,1,.81.07,7.78,7.78,0,0,1,.81.17v1.43a2.94,2.94,0,0,0-.76-.3,3.06,3.06,0,0,0-.78-.11,1.29,1.29,0,0,0-.35,0,1.15,1.15,0,0,0-.28.09.43.43,0,0,0-.19.16.34.34,0,0,0-.07.22.4.4,0,0,0,.1.28.88.88,0,0,0,.28.2,2,2,0,0,0,.37.15l.42.14a7.13,7.13,0,0,1,.67.28,2.12,2.12,0,0,1,.51.36,1.58,1.58,0,0,1,.33.48,1.82,1.82,0,0,1,.11.66,1.76,1.76,0,0,1-.23.91,1.9,1.9,0,0,1-.62.61,2.66,2.66,0,0,1-.88.35,5.1,5.1,0,0,1-1,.11A5.51,5.51,0,0,1,427.38,38.37Z"/><path class="cls-98" d="M435.93,38.68a3.23,3.23,0,0,1-2.36-.84,3.49,3.49,0,0,1,0-4.62,3.38,3.38,0,0,1,2.41-.84,3.16,3.16,0,0,1,2.34.84,3,3,0,0,1,.85,2.23,3.19,3.19,0,0,1-.87,2.36A3.27,3.27,0,0,1,435.93,38.68Zm0-4.88a1.22,1.22,0,0,0-1,.45,2,2,0,0,0-.37,1.28c0,1.15.47,1.73,1.4,1.73s1.33-.59,1.33-1.78S436.87,33.8,436,33.8Z"/><path class="cls-98" d="M442.29,37.83h0v.7h-1.85V29.65h1.85v3.78h0a2.2,2.2,0,0,1,1.95-1,2.15,2.15,0,0,1,1.79.8,3.43,3.43,0,0,1,.63,2.18,3.73,3.73,0,0,1-.74,2.41,2.39,2.39,0,0,1-1.95.91A1.89,1.89,0,0,1,442.29,37.83Zm-.05-2.53v.62a1.44,1.44,0,0,0,.33,1,1.2,1.2,0,0,0,1.84-.11,2.4,2.4,0,0,0,.35-1.39,1.9,1.9,0,0,0-.32-1.16,1.08,1.08,0,0,0-.91-.42,1.16,1.16,0,0,0-.92.42A1.54,1.54,0,0,0,442.24,35.3Z"/><path class="cls-98" d="M457.06,38.53h-1.85V37.7h0a2.08,2.08,0,0,1-1.86,1,2.28,2.28,0,0,1-1.81-.8,3.28,3.28,0,0,1-.69-2.22,3.59,3.59,0,0,1,.76-2.38,2.45,2.45,0,0,1,2-.9,1.69,1.69,0,0,1,1.62.84h0V29.65h1.85Zm-1.81-2.92v-.45a1.45,1.45,0,0,0-.34-1,1.2,1.2,0,0,0-1.85.09,2.28,2.28,0,0,0-.34,1.33,2,2,0,0,0,.33,1.22,1.18,1.18,0,0,0,1.84,0A1.87,1.87,0,0,0,455.25,35.61Z"/><path class="cls-98" d="M464,36.06h-3.91c.06.87.61,1.3,1.65,1.3a3.23,3.23,0,0,0,1.74-.46v1.33a4.57,4.57,0,0,1-2.17.45,2.79,2.79,0,0,1-3.05-3.06,3.23,3.23,0,0,1,.86-2.36,2.87,2.87,0,0,1,2.14-.88,2.63,2.63,0,0,1,2,.78,3,3,0,0,1,.71,2.12Zm-1.71-1.14q0-1.29-1.05-1.29a1,1,0,0,0-.77.37,1.75,1.75,0,0,0-.39.92Z"/><path class="cls-98" d="M474.67,38.53h-1.85V35.11c0-.87-.32-1.31-1-1.31a.87.87,0,0,0-.74.39,1.58,1.58,0,0,0-.29,1v3.36H469V35.07c0-.84-.32-1.27-1-1.27a.92.92,0,0,0-.76.38,1.65,1.65,0,0,0-.28,1v3.33h-1.85v-6H467v.94h0a2.25,2.25,0,0,1,.81-.78,2.14,2.14,0,0,1,1.13-.31,1.73,1.73,0,0,1,1.74,1.12,2.24,2.24,0,0,1,2-1.12c1.3,0,2,.81,2,2.42Z"/><path class="cls-98" d="M481.13,38.53h-1.75v-.86h0a2,2,0,0,1-1.79,1,1.86,1.86,0,0,1-1.37-.5,1.75,1.75,0,0,1-.5-1.32c0-1.16.69-1.84,2.07-2l1.62-.21c0-.66-.35-1-1.06-1a3.67,3.67,0,0,0-2,.64V32.89a4.22,4.22,0,0,1,1.06-.35,5.05,5.05,0,0,1,1.22-.16,2.26,2.26,0,0,1,2.56,2.56Zm-1.74-2.44v-.4l-1.09.14q-.9.12-.9.81a.69.69,0,0,0,.22.52.84.84,0,0,0,.6.2,1.11,1.11,0,0,0,.85-.36A1.28,1.28,0,0,0,479.39,36.09Z"/><path class="cls-98" d="M488.41,38.53h-1.85V35.2c0-.93-.33-1.4-1-1.4a1,1,0,0,0-.79.37,1.46,1.46,0,0,0-.31.94v3.42h-1.85v-6h1.85v.95h0a2.12,2.12,0,0,1,1.92-1.1c1.33,0,2,.83,2,2.48Z"/><path class="cls-98" d="M495.75,38.53H493.9V37.7h0a2.08,2.08,0,0,1-1.86,1,2.28,2.28,0,0,1-1.81-.8,3.28,3.28,0,0,1-.68-2.22,3.59,3.59,0,0,1,.75-2.38,2.48,2.48,0,0,1,2-.9,1.67,1.67,0,0,1,1.62.84h0V29.65h1.85Zm-1.81-2.92v-.45a1.4,1.4,0,0,0-.34-1,1.2,1.2,0,0,0-1.85.09,2.28,2.28,0,0,0-.34,1.33,2,2,0,0,0,.33,1.22,1.18,1.18,0,0,0,1.84,0A1.87,1.87,0,0,0,493.94,35.61Z"/><path class="cls-98" d="M502.32,38.53h-1.75v-.86h0a2,2,0,0,1-1.79,1,1.86,1.86,0,0,1-1.37-.5,1.79,1.79,0,0,1-.5-1.32c0-1.16.69-1.84,2.07-2l1.63-.21c0-.66-.36-1-1.07-1a3.72,3.72,0,0,0-2,.64V32.89a4.22,4.22,0,0,1,1.06-.35,5.12,5.12,0,0,1,1.22-.16,2.27,2.27,0,0,1,2.57,2.56Zm-1.74-2.44v-.4l-1.09.14c-.6.08-.91.35-.91.81a.69.69,0,0,0,.22.52.84.84,0,0,0,.6.2,1.1,1.1,0,0,0,.85-.36A1.29,1.29,0,0,0,500.58,36.09Z"/><path class="cls-97" d="M105.52,152.1l-3.12,8.54h-1.09l-3.06-8.54h1.1l2.33,6.77a3.75,3.75,0,0,1,.18.75h0a4.22,4.22,0,0,1,.19-.76l2.39-6.76Z"/><path class="cls-97" d="M115.29,160.64h-1v-5.73c0-.45,0-1,.08-1.66h0a5.86,5.86,0,0,1-.25.83l-2.88,6.56h-.49l-2.87-6.52a4.69,4.69,0,0,1-.26-.87h0c0,.34.05.9.05,1.67v5.72h-1V152.1H108l2.59,6a7.92,7.92,0,0,1,.39,1h0c.17-.47.31-.82.41-1.05l2.64-5.93h1.23Z"/><path class="cls-97" d="M162,152.1l-3.12,8.54h-1.09l-3.06-8.54h1.1l2.34,6.77a4.63,4.63,0,0,1,.17.75h0a3.58,3.58,0,0,1,.2-.76l2.38-6.76Z"/><path class="cls-97" d="M171.76,160.64h-1v-5.73c0-.45,0-1,.09-1.66h0a5.86,5.86,0,0,1-.25.83l-2.88,6.56h-.48l-2.88-6.52a4.83,4.83,0,0,1-.25-.87h0c0,.34.05.9.05,1.67v5.72h-1V152.1h1.3l2.59,6a7.92,7.92,0,0,1,.39,1h0c.16-.47.3-.82.4-1.05l2.64-5.93h1.24Z"/><path class="cls-97" d="M217.07,152.1,214,160.64h-1.09l-3.06-8.54h1.1l2.34,6.77a4.63,4.63,0,0,1,.17.75h0a3.58,3.58,0,0,1,.2-.76L216,152.1Z"/><path class="cls-97" d="M226.85,160.64h-1v-5.73c0-.45,0-1,.09-1.66h0a5.86,5.86,0,0,1-.25.83l-2.88,6.56h-.48l-2.88-6.52a4.83,4.83,0,0,1-.25-.87h0c0,.34,0,.9,0,1.67v5.72h-.95V152.1h1.3l2.59,6a7.92,7.92,0,0,1,.39,1h0c.17-.47.31-.82.41-1.05l2.64-5.93h1.24Z"/><path class="cls-97" d="M272.08,152.1,269,160.64h-1.08l-3.06-8.54h1.1l2.33,6.77a3.77,3.77,0,0,1,.17.75h0a3.52,3.52,0,0,1,.19-.76L271,152.1Z"/><path class="cls-97" d="M281.85,160.64h-1v-5.73c0-.45,0-1,.08-1.66h0a7.61,7.61,0,0,1-.25.83l-2.89,6.56h-.48l-2.87-6.52a4.69,4.69,0,0,1-.26-.87h0c0,.34,0,.9,0,1.67v5.72h-1V152.1h1.31l2.59,6a7.92,7.92,0,0,1,.39,1h0c.17-.47.3-.82.41-1.05l2.64-5.93h1.23Z"/><path class="cls-97" d="M328,152.1l-3.12,8.54h-1.09l-3.06-8.54h1.1l2.34,6.77a4.63,4.63,0,0,1,.17.75h0a3.58,3.58,0,0,1,.2-.76l2.38-6.76Z"/><path class="cls-97" d="M337.78,160.64h-1v-5.73c0-.45,0-1,.08-1.66h0a4.77,4.77,0,0,1-.25.83l-2.88,6.56h-.48l-2.88-6.52a4.83,4.83,0,0,1-.25-.87h0c0,.34.05.9.05,1.67v5.72h-.95V152.1h1.31l2.58,6a7.92,7.92,0,0,1,.39,1h0c.17-.47.3-.82.4-1.05l2.64-5.93h1.24Z"/><path class="cls-97" d="M384.45,152.1l-3.12,8.54h-1.09l-3.06-8.54h1.1l2.34,6.77a4.63,4.63,0,0,1,.17.75h0a4.22,4.22,0,0,1,.19-.76l2.39-6.76Z"/><path class="cls-97" d="M394.23,160.64h-1v-5.73c0-.45,0-1,.09-1.66h0a5.86,5.86,0,0,1-.25.83l-2.88,6.56h-.49l-2.87-6.52a4.83,4.83,0,0,1-.25-.87h0c0,.34.05.9.05,1.67v5.72h-.95V152.1h1.3l2.59,6a7.92,7.92,0,0,1,.39,1h0c.17-.47.31-.82.41-1.05L393,152.1h1.24Z"/><path class="cls-97" d="M439.41,152.1l-3.12,8.54H435.2l-3.06-8.54h1.1l2.34,6.77a4.63,4.63,0,0,1,.17.75h0a3.58,3.58,0,0,1,.2-.76l2.38-6.76Z"/><path class="cls-97" d="M449.19,160.64h-1v-5.73c0-.45,0-1,.08-1.66h0a5.6,5.6,0,0,1-.26.83l-2.88,6.56h-.48l-2.88-6.52a5.84,5.84,0,0,1-.25-.87h0c0,.34,0,.9,0,1.67v5.72h-1V152.1h1.31l2.58,6a7.92,7.92,0,0,1,.39,1h0c.17-.47.3-.82.4-1.05L448,152.1h1.24Z"/><path class="cls-97" d="M494.6,152.1l-3.12,8.54h-1.09l-3.06-8.54h1.1l2.33,6.77a3.77,3.77,0,0,1,.17.75h0a3.52,3.52,0,0,1,.19-.76l2.38-6.76Z"/><path class="cls-97" d="M504.37,160.64h-1v-5.73c0-.45,0-1,.08-1.66h0a5.86,5.86,0,0,1-.25.83l-2.89,6.56h-.48L497,154.12a4.69,4.69,0,0,1-.26-.87h0c0,.34.05.9.05,1.67v5.72h-1V152.1h1.31l2.59,6a7.92,7.92,0,0,1,.39,1h0c.17-.47.3-.82.41-1.05l2.64-5.93h1.23Z"/><path class="cls-97" d="M20.43,95.21h-1.1l-.89-2.4H14.86L14,95.21h-1.1l3.24-8.54h1Zm-2.31-3.3-1.33-3.64a4.23,4.23,0,0,1-.13-.57h0a2.94,2.94,0,0,1-.14.57l-1.31,3.64Z"/><path class="cls-97" d="M22.44,95.21h-1v-9h1Z"/><path class="cls-97" d="M26.85,95.35a2.77,2.77,0,0,1-2.13-.86,3.18,3.18,0,0,1-.8-2.26,3.32,3.32,0,0,1,.83-2.4A3,3,0,0,1,27,89a2.73,2.73,0,0,1,2.11.83,3.38,3.38,0,0,1,.75,2.33A3.31,3.31,0,0,1,29,94.47,2.82,2.82,0,0,1,26.85,95.35Zm.07-5.56a1.81,1.81,0,0,0-1.47.64,2.63,2.63,0,0,0-.54,1.76,2.48,2.48,0,0,0,.55,1.71,1.83,1.83,0,0,0,1.46.63,1.74,1.74,0,0,0,1.44-.62,2.65,2.65,0,0,0,.5-1.74,2.69,2.69,0,0,0-.5-1.76A1.71,1.71,0,0,0,26.92,89.79Z"/><path class="cls-97" d="M35.44,94.93a3.11,3.11,0,0,1-1.65.42,2.7,2.7,0,0,1-2.08-.85,3.09,3.09,0,0,1-.79-2.2,3.45,3.45,0,0,1,.85-2.42A3,3,0,0,1,34.05,89a3.1,3.1,0,0,1,1.4.29v1A2.5,2.5,0,0,0,34,89.79a1.91,1.91,0,0,0-1.51.67,2.56,2.56,0,0,0-.59,1.76,2.46,2.46,0,0,0,.55,1.69,1.94,1.94,0,0,0,1.5.62A2.42,2.42,0,0,0,35.44,94Z"/><path class="cls-97" d="M41.15,95.21h-1v-1h0a2,2,0,0,1-1.85,1.1,2,2,0,0,1-1.41-.48,1.69,1.69,0,0,1-.51-1.28c0-1.14.66-1.81,2-2l1.8-.26c0-1-.41-1.55-1.24-1.55a2.94,2.94,0,0,0-2,.75v-1A3.68,3.68,0,0,1,39,89c1.42,0,2.13.75,2.13,2.27Zm-1-3.09-1.45.2a2.43,2.43,0,0,0-1,.34,1,1,0,0,0-.34.85.93.93,0,0,0,.31.73,1.21,1.21,0,0,0,.84.29A1.56,1.56,0,0,0,39.72,94a1.84,1.84,0,0,0,.46-1.29Z"/><path class="cls-97" d="M47,94.93a3.11,3.11,0,0,1-1.65.42,2.7,2.7,0,0,1-2.08-.85,3.14,3.14,0,0,1-.79-2.2,3.41,3.41,0,0,1,.86-2.42A2.93,2.93,0,0,1,45.62,89a3.1,3.1,0,0,1,1.4.29v1a2.45,2.45,0,0,0-1.43-.47,1.93,1.93,0,0,0-1.52.67,2.56,2.56,0,0,0-.59,1.76A2.46,2.46,0,0,0,44,93.91a1.9,1.9,0,0,0,1.49.62A2.42,2.42,0,0,0,47,94Zm-.51,1.8c0,.7-.54,1-1.61,1H44.5v-.54a4.12,4.12,0,0,0,.42,0c.55,0,.83-.18.83-.54s-.26-.47-.76-.47l-.24,0V95.21h.63v.61a1.27,1.27,0,0,1,.82.24A.81.81,0,0,1,46.5,96.73Z"/><path class="cls-97" d="M52.72,95.21h-1v-1h0a2,2,0,0,1-1.85,1.1,2,2,0,0,1-1.41-.48A1.69,1.69,0,0,1,48,93.59c0-1.14.66-1.81,2-2l1.8-.26c0-1-.41-1.55-1.24-1.55a2.94,2.94,0,0,0-2,.75v-1A3.69,3.69,0,0,1,50.6,89c1.41,0,2.12.75,2.12,2.27Zm-.32-8.69a1.74,1.74,0,0,1-.29,1,.88.88,0,0,1-.76.39,1.89,1.89,0,0,1-1-.31,1.63,1.63,0,0,0-.7-.25c-.35,0-.52.22-.52.67h-.55a1.65,1.65,0,0,1,.28-1,.92.92,0,0,1,.79-.39,1.77,1.77,0,0,1,.87.31,1.49,1.49,0,0,0,.76.27c.33,0,.49-.24.49-.7Zm-.65,5.6-1.45.2a2.48,2.48,0,0,0-1,.34,1,1,0,0,0-.34.85.93.93,0,0,0,.31.73,1.21,1.21,0,0,0,.84.29A1.54,1.54,0,0,0,51.29,94a1.84,1.84,0,0,0,.46-1.29Z"/><path class="cls-97" d="M57,95.35a2.77,2.77,0,0,1-2.13-.86,3.18,3.18,0,0,1-.79-2.26,3.31,3.31,0,0,1,.82-2.4A3,3,0,0,1,57.14,89a2.73,2.73,0,0,1,2.1.83A3.38,3.38,0,0,1,60,92.13a3.31,3.31,0,0,1-.81,2.34A2.82,2.82,0,0,1,57,95.35Zm.08-5.56a1.85,1.85,0,0,0-1.48.64,2.63,2.63,0,0,0-.54,1.76,2.53,2.53,0,0,0,.55,1.71,1.84,1.84,0,0,0,1.47.63,1.74,1.74,0,0,0,1.43-.62A2.65,2.65,0,0,0,59,92.17a2.7,2.7,0,0,0-.51-1.76A1.71,1.71,0,0,0,57.07,89.79Z"/><path class="cls-97" d="M12.32,141.14V132.6h2.33q4.46,0,4.46,4.16a4.25,4.25,0,0,1-1.24,3.18,4.57,4.57,0,0,1-3.32,1.2Zm1-7.64v6.73h1.25a3.56,3.56,0,0,0,2.59-.9,3.42,3.42,0,0,0,.92-2.55c0-2.18-1.15-3.28-3.45-3.28Z"/><path class="cls-97" d="M25.42,138.33H21.16a2.32,2.32,0,0,0,.54,1.57,1.87,1.87,0,0,0,1.43.56,3,3,0,0,0,1.87-.68v.92a3.46,3.46,0,0,1-2.1.58,2.56,2.56,0,0,1-2-.83,3.45,3.45,0,0,1-.73-2.34,3.37,3.37,0,0,1,.8-2.32,2.56,2.56,0,0,1,2-.89,2.23,2.23,0,0,1,1.83.77,3.27,3.27,0,0,1,.65,2.15Zm-1-.82a2,2,0,0,0-.41-1.32,1.36,1.36,0,0,0-1.1-.47,1.56,1.56,0,0,0-1.16.49,2.28,2.28,0,0,0-.59,1.3Z"/><path class="cls-97" d="M35.37,141.14h-1v-3.5a2.63,2.63,0,0,0-.31-1.47,1.16,1.16,0,0,0-1-.45,1.29,1.29,0,0,0-1,.57,2.2,2.2,0,0,0-.43,1.37v3.48h-1v-3.62c0-1.2-.46-1.8-1.37-1.8a1.26,1.26,0,0,0-1,.54,2.26,2.26,0,0,0-.41,1.4v3.48h-1V135h1v1h0a2.05,2.05,0,0,1,1.87-1.1,1.71,1.71,0,0,1,1.08.35,1.79,1.79,0,0,1,.63.91,2.14,2.14,0,0,1,2-1.26c1.32,0,2,.82,2,2.48Z"/><path class="cls-97" d="M41.44,141.14h-1v-1h0a2,2,0,0,1-1.85,1.1,2,2,0,0,1-1.41-.48,1.68,1.68,0,0,1-.51-1.28c0-1.14.66-1.8,2-2l1.8-.26c0-1-.41-1.55-1.24-1.55a2.94,2.94,0,0,0-2,.75v-1a3.69,3.69,0,0,1,2-.57c1.41,0,2.12.76,2.12,2.27Zm-1-3.09-1.45.21a2.35,2.35,0,0,0-1,.33,1,1,0,0,0-.34.86,1,1,0,0,0,.31.73,1.25,1.25,0,0,0,.84.28A1.54,1.54,0,0,0,40,140a1.84,1.84,0,0,0,.46-1.29Z"/><path class="cls-97" d="M48.2,141.14h-1v-3.48c0-1.29-.47-1.94-1.4-1.94a1.52,1.52,0,0,0-1.2.55,2.09,2.09,0,0,0-.47,1.39v3.48h-1V135h1v1h0a2.18,2.18,0,0,1,2-1.15,1.83,1.83,0,0,1,1.51.64,2.91,2.91,0,0,1,.53,1.87Z"/><path class="cls-97" d="M55.09,141.14h-1v-1h0a2.42,2.42,0,0,1-3.89.36,3.39,3.39,0,0,1-.68-2.23,3.69,3.69,0,0,1,.75-2.42,2.47,2.47,0,0,1,2-.91,1.93,1.93,0,0,1,1.81,1h0v-3.78h1Zm-1-2.76v-.9a1.76,1.76,0,0,0-.48-1.25,1.61,1.61,0,0,0-1.23-.51,1.64,1.64,0,0,0-1.38.65,2.88,2.88,0,0,0-.51,1.81,2.63,2.63,0,0,0,.48,1.67,1.59,1.59,0,0,0,1.31.61,1.67,1.67,0,0,0,1.31-.59A2.24,2.24,0,0,0,54.13,138.38Z"/><path class="cls-97" d="M61.3,141.14h-1v-1h0a2,2,0,0,1-1.85,1.1,2,2,0,0,1-1.41-.48,1.68,1.68,0,0,1-.51-1.28c0-1.14.66-1.8,2-2l1.8-.26c0-1-.41-1.55-1.24-1.55a2.94,2.94,0,0,0-2,.75v-1a3.68,3.68,0,0,1,2-.57c1.42,0,2.13.76,2.13,2.27Zm-1-3.09-1.45.21a2.3,2.3,0,0,0-1,.33,1,1,0,0,0-.34.86,1,1,0,0,0,.31.73,1.25,1.25,0,0,0,.84.28,1.56,1.56,0,0,0,1.19-.51,1.84,1.84,0,0,0,.46-1.29Z"/><path class="cls-97" d="M527.63,95.27h-1.09l-.9-2.4h-3.57l-.84,2.4h-1.1l3.23-8.54h1ZM525.32,92,524,88.34a2.71,2.71,0,0,1-.13-.57h0a3.51,3.51,0,0,1-.13.57L522.4,92Z"/><path class="cls-97" d="M529.65,95.27h-1v-9h1Z"/><path class="cls-97" d="M534.06,95.41a2.77,2.77,0,0,1-2.13-.85,3.16,3.16,0,0,1-.8-2.27,3.35,3.35,0,0,1,.83-2.4A3,3,0,0,1,534.2,89a2.67,2.67,0,0,1,2.1.84,3.32,3.32,0,0,1,.76,2.33,3.25,3.25,0,0,1-.82,2.33A2.81,2.81,0,0,1,534.06,95.41Zm.07-5.56a1.81,1.81,0,0,0-1.47.64,2.67,2.67,0,0,0-.54,1.77,2.5,2.5,0,0,0,.54,1.7,1.86,1.86,0,0,0,1.47.63,1.76,1.76,0,0,0,1.44-.61,2.72,2.72,0,0,0,.5-1.75,2.75,2.75,0,0,0-.5-1.76A1.77,1.77,0,0,0,534.13,89.85Z"/><path class="cls-97" d="M542.64,95a3.1,3.1,0,0,1-1.64.42,2.68,2.68,0,0,1-2.08-.85,3.08,3.08,0,0,1-.79-2.2,3.4,3.4,0,0,1,.85-2.42,3,3,0,0,1,2.28-.91,3.13,3.13,0,0,1,1.4.3v1a2.44,2.44,0,0,0-1.44-.48,1.9,1.9,0,0,0-1.51.67,2.54,2.54,0,0,0-.6,1.76,2.44,2.44,0,0,0,.56,1.69,1.92,1.92,0,0,0,1.49.62,2.4,2.4,0,0,0,1.48-.53Z"/><path class="cls-97" d="M548.35,95.27h-1v-1h0a2.19,2.19,0,0,1-3.26.61,1.68,1.68,0,0,1-.51-1.28c0-1.14.67-1.8,2-2l1.81-.26c0-1-.42-1.55-1.24-1.55a3,3,0,0,0-2,.75v-1a3.72,3.72,0,0,1,2.05-.57c1.41,0,2.12.76,2.12,2.27Zm-1-3.09-1.45.21a2.35,2.35,0,0,0-1,.33,1,1,0,0,0-.34.86,1,1,0,0,0,.32.73,1.25,1.25,0,0,0,.84.28,1.54,1.54,0,0,0,1.18-.51,1.84,1.84,0,0,0,.47-1.29Z"/><path class="cls-97" d="M554.21,95a3.1,3.1,0,0,1-1.64.42,2.7,2.7,0,0,1-2.08-.85,3.08,3.08,0,0,1-.79-2.2,3.4,3.4,0,0,1,.85-2.42,3,3,0,0,1,2.28-.91,3.13,3.13,0,0,1,1.4.3v1a2.44,2.44,0,0,0-1.44-.48,1.91,1.91,0,0,0-1.51.67,2.53,2.53,0,0,0-.59,1.76,2.44,2.44,0,0,0,.55,1.69,1.92,1.92,0,0,0,1.49.62,2.4,2.4,0,0,0,1.48-.53Zm-.5,1.8q0,1-1.62,1h-.38v-.54a2.41,2.41,0,0,0,.41,0c.55,0,.83-.18.83-.54s-.25-.46-.76-.46l-.24,0V95.27h.64v.62a1.31,1.31,0,0,1,.82.24A.79.79,0,0,1,553.71,96.79Z"/><path class="cls-97" d="M559.92,95.27h-1v-1h0a2,2,0,0,1-1.86,1.09,1.93,1.93,0,0,1-1.4-.48,1.68,1.68,0,0,1-.51-1.28c0-1.14.66-1.8,2-2L559,91.4c0-1-.41-1.55-1.24-1.55a3,3,0,0,0-2,.75v-1a3.74,3.74,0,0,1,2-.57c1.42,0,2.12.76,2.12,2.27Zm-.32-8.68a1.73,1.73,0,0,1-.28,1,.9.9,0,0,1-.77.39,2,2,0,0,1-.95-.31,1.55,1.55,0,0,0-.7-.25c-.34,0-.52.22-.52.67h-.55a1.76,1.76,0,0,1,.28-1,.91.91,0,0,1,.79-.38,1.67,1.67,0,0,1,.88.31,1.56,1.56,0,0,0,.75.26c.33,0,.5-.23.5-.69ZM559,92.18l-1.45.21a2.25,2.25,0,0,0-1,.33,1,1,0,0,0-.34.86,1,1,0,0,0,.31.73,1.25,1.25,0,0,0,.84.28,1.52,1.52,0,0,0,1.18-.51,1.84,1.84,0,0,0,.47-1.29Z"/><path class="cls-97" d="M564.2,95.41a2.77,2.77,0,0,1-2.13-.85,3.21,3.21,0,0,1-.8-2.27,3.35,3.35,0,0,1,.83-2.4,3,3,0,0,1,2.24-.86,2.67,2.67,0,0,1,2.1.84,3.32,3.32,0,0,1,.76,2.33,3.25,3.25,0,0,1-.82,2.33A2.81,2.81,0,0,1,564.2,95.41Zm.07-5.56a1.81,1.81,0,0,0-1.47.64,2.67,2.67,0,0,0-.54,1.77,2.45,2.45,0,0,0,.55,1.7,1.83,1.83,0,0,0,1.46.63,1.76,1.76,0,0,0,1.44-.61,2.72,2.72,0,0,0,.5-1.75,2.75,2.75,0,0,0-.5-1.76A1.77,1.77,0,0,0,564.27,89.85Z"/><path class="cls-97" d="M519.52,140.19v-8.54h2.33q4.46,0,4.46,4.16a4.21,4.21,0,0,1-1.24,3.18,4.55,4.55,0,0,1-3.31,1.2Zm1-7.63v6.72h1.26a3.56,3.56,0,0,0,2.58-.89,3.38,3.38,0,0,0,.93-2.55q0-3.28-3.45-3.28Z"/><path class="cls-97" d="M532.62,137.39h-4.25a2.26,2.26,0,0,0,.54,1.57,1.84,1.84,0,0,0,1.42.55,3,3,0,0,0,1.87-.68v.92a3.46,3.46,0,0,1-2.1.58,2.49,2.49,0,0,1-2-.83,3.39,3.39,0,0,1-.73-2.33,3.31,3.31,0,0,1,.8-2.32,2.53,2.53,0,0,1,2-.9,2.26,2.26,0,0,1,1.83.77,3.28,3.28,0,0,1,.65,2.15Zm-1-.83a2,2,0,0,0-.4-1.32,1.38,1.38,0,0,0-1.1-.47,1.55,1.55,0,0,0-1.16.5,2.21,2.21,0,0,0-.59,1.29Z"/><path class="cls-97" d="M542.57,140.19h-1v-3.5a2.75,2.75,0,0,0-.31-1.47,1.17,1.17,0,0,0-1-.45,1.29,1.29,0,0,0-1,.57,2.2,2.2,0,0,0-.43,1.37v3.48h-1v-3.62c0-1.2-.45-1.8-1.37-1.8a1.28,1.28,0,0,0-1.05.54,2.28,2.28,0,0,0-.41,1.4v3.48h-1v-6.1h1v1h0a2,2,0,0,1,1.87-1.11,1.75,1.75,0,0,1,1.7,1.26,2.16,2.16,0,0,1,2-1.26c1.33,0,2,.83,2,2.48Z"/><path class="cls-97" d="M548.64,140.19h-1v-.95h0a2,2,0,0,1-1.86,1.09,1.93,1.93,0,0,1-1.4-.48,1.68,1.68,0,0,1-.51-1.28c0-1.14.66-1.8,2-2l1.81-.25c0-1-.41-1.56-1.24-1.56a3,3,0,0,0-2,.75v-1a3.74,3.74,0,0,1,2-.57c1.42,0,2.12.76,2.12,2.27Zm-1-3.08-1.45.2a2.25,2.25,0,0,0-1,.33,1,1,0,0,0-.34.86.93.93,0,0,0,.31.73,1.2,1.2,0,0,0,.84.28,1.52,1.52,0,0,0,1.18-.51,1.84,1.84,0,0,0,.47-1.29Z"/><path class="cls-97" d="M555.4,140.19h-1v-3.48c0-1.29-.47-1.94-1.4-1.94a1.53,1.53,0,0,0-1.2.55,2,2,0,0,0-.47,1.39v3.48h-1v-6.1h1v1h0a2.16,2.16,0,0,1,2-1.15,1.83,1.83,0,0,1,1.51.65,2.88,2.88,0,0,1,.52,1.86Z"/><path class="cls-97" d="M562.3,140.19h-1v-1h0a2.41,2.41,0,0,1-3.88.36,3.34,3.34,0,0,1-.68-2.23,3.7,3.7,0,0,1,.75-2.42,2.46,2.46,0,0,1,2-.91,1.93,1.93,0,0,1,1.81,1h0v-3.78h1Zm-1-2.76v-.9a1.78,1.78,0,0,0-.48-1.25,1.61,1.61,0,0,0-1.22-.51,1.66,1.66,0,0,0-1.39.66,2.87,2.87,0,0,0-.51,1.81,2.62,2.62,0,0,0,.49,1.66,1.57,1.57,0,0,0,1.3.61,1.64,1.64,0,0,0,1.31-.59A2.19,2.19,0,0,0,561.33,137.43Z"/><path class="cls-97" d="M568.5,140.19h-1v-.95h0a2,2,0,0,1-1.85,1.09,2,2,0,0,1-1.41-.48,1.68,1.68,0,0,1-.51-1.28c0-1.14.67-1.8,2-2l1.81-.25c0-1-.42-1.56-1.24-1.56a3,3,0,0,0-2,.75v-1a3.72,3.72,0,0,1,2-.57c1.41,0,2.12.76,2.12,2.27Zm-1-3.08-1.46.2a2.35,2.35,0,0,0-1,.33,1,1,0,0,0-.34.86.94.94,0,0,0,.32.73,1.2,1.2,0,0,0,.84.28,1.54,1.54,0,0,0,1.18-.51,1.84,1.84,0,0,0,.47-1.29Z"/><path class="cls-98" d="M64.84,32.69V30.82a4,4,0,0,0,1.1.64,3.67,3.67,0,0,0,1.21.21,2.93,2.93,0,0,0,.63-.06,2,2,0,0,0,.44-.18.87.87,0,0,0,.27-.27.69.69,0,0,0,.09-.34.77.77,0,0,0-.14-.44,1.7,1.7,0,0,0-.39-.36,3.44,3.44,0,0,0-.58-.31c-.22-.1-.46-.21-.72-.31a3.79,3.79,0,0,1-1.46-1A2.18,2.18,0,0,1,64.8,27a2.22,2.22,0,0,1,.27-1.13,2.13,2.13,0,0,1,.71-.78,3.5,3.5,0,0,1,1.06-.45,5.66,5.66,0,0,1,1.26-.14,7.82,7.82,0,0,1,1.16.08,4.46,4.46,0,0,1,.94.24v1.75a3.37,3.37,0,0,0-.46-.25,3.52,3.52,0,0,0-.51-.19A5,5,0,0,0,68.7,26l-.49,0a2.68,2.68,0,0,0-.59.06,1.5,1.5,0,0,0-.44.17,1,1,0,0,0-.29.27.68.68,0,0,0-.1.35.66.66,0,0,0,.12.38,1.3,1.3,0,0,0,.31.31,2.87,2.87,0,0,0,.5.29l.66.3a7,7,0,0,1,.91.45,3.81,3.81,0,0,1,.69.53,2.26,2.26,0,0,1,.44.69,2.4,2.4,0,0,1,.15.89,2.37,2.37,0,0,1-.27,1.18,2.25,2.25,0,0,1-.72.78,3.42,3.42,0,0,1-1.07.42,5.85,5.85,0,0,1-1.28.13A6.86,6.86,0,0,1,65.92,33,3.81,3.81,0,0,1,64.84,32.69Z"/><path class="cls-98" d="M79.52,33H77.61l-3.46-5.28a7.53,7.53,0,0,1-.42-.69h0c0,.29,0,.75,0,1.36V33H72v-8.4h2l3.34,5.12c.15.23.29.45.42.68h0a8.94,8.94,0,0,1,0-1.15V24.61h1.79Z"/><path class="cls-98" d="M88.84,33H86.78l-.6-1.87h-3L82.6,33h-2l3.06-8.4h2.25Zm-3.09-3.32-.9-2.82a3.12,3.12,0,0,1-.14-.76h0a3.06,3.06,0,0,1-.15.73l-.91,2.85Z"/><path class="cls-98" d="M95,26.15h-2.4V33h-1.9V26.15H88.29V24.61H95Z"/><path class="cls-98" d="M105.12,33h-1.85v-.82h0a2.09,2.09,0,0,1-1.86,1,2.3,2.3,0,0,1-1.81-.79,3.28,3.28,0,0,1-.69-2.22,3.62,3.62,0,0,1,.76-2.39,2.44,2.44,0,0,1,2-.89,1.69,1.69,0,0,1,1.62.83h0V24.13h1.85Zm-1.81-2.92v-.45a1.45,1.45,0,0,0-.34-1,1.14,1.14,0,0,0-.89-.39,1.12,1.12,0,0,0-1,.49,2.22,2.22,0,0,0-.35,1.32,2,2,0,0,0,.34,1.22,1.09,1.09,0,0,0,.92.43,1.12,1.12,0,0,0,.92-.45A1.87,1.87,0,0,0,103.31,30.09Z"/><path class="cls-98" d="M112.08,30.54h-3.91c.06.87.61,1.31,1.65,1.31a3.24,3.24,0,0,0,1.74-.47v1.33a4.57,4.57,0,0,1-2.17.45,2.81,2.81,0,0,1-3.06-3,3.2,3.2,0,0,1,.87-2.37,2.9,2.9,0,0,1,2.13-.87,2.64,2.64,0,0,1,2,.78,3,3,0,0,1,.71,2.11Zm-1.71-1.14q0-1.29-1.05-1.29a1,1,0,0,0-.77.37,1.71,1.71,0,0,0-.39.92Z"/><path class="cls-98" d="M116.13,32.85v-1.5a3.66,3.66,0,0,0,.91.41,3,3,0,0,0,.86.14,1.83,1.83,0,0,0,.77-.14.43.43,0,0,0,.29-.41.41.41,0,0,0-.13-.29,1.08,1.08,0,0,0-.33-.2,3,3,0,0,0-.45-.16l-.46-.16a4.68,4.68,0,0,1-.63-.29,1.84,1.84,0,0,1-.46-.36,1.64,1.64,0,0,1-.28-.48,2,2,0,0,1-.09-.63,1.61,1.61,0,0,1,.22-.87,1.84,1.84,0,0,1,.58-.6,3.15,3.15,0,0,1,.84-.34,4.46,4.46,0,0,1,1-.1,5.52,5.52,0,0,1,.81.06,5.88,5.88,0,0,1,.81.18v1.43a3,3,0,0,0-.75-.31,3.11,3.11,0,0,0-.79-.1,1.79,1.79,0,0,0-.34,0,1.1,1.1,0,0,0-.29.09.51.51,0,0,0-.19.16.34.34,0,0,0-.07.22.4.4,0,0,0,.1.28.84.84,0,0,0,.28.2,2.72,2.72,0,0,0,.38.16l.41.13a6.16,6.16,0,0,1,.67.28,2.55,2.55,0,0,1,.51.36,1.58,1.58,0,0,1,.33.48,1.86,1.86,0,0,1,.11.66,1.67,1.67,0,0,1-.23.91,1.78,1.78,0,0,1-.61.61,2.81,2.81,0,0,1-.89.35,5,5,0,0,1-1,.11A5.17,5.17,0,0,1,116.13,32.85Z"/><path class="cls-98" d="M126.8,33h-1.75v-.86h0a2,2,0,0,1-1.79,1,1.86,1.86,0,0,1-1.37-.5,1.75,1.75,0,0,1-.5-1.32c0-1.16.68-1.83,2.06-2l1.63-.22c0-.66-.35-1-1.06-1a3.65,3.65,0,0,0-2,.63V27.37A4.57,4.57,0,0,1,123,27a5.71,5.71,0,0,1,1.23-.15,2.26,2.26,0,0,1,2.56,2.56Zm-1.74-2.44v-.4l-1.09.14c-.6.08-.9.35-.9.82a.64.64,0,0,0,.22.51.82.82,0,0,0,.59.21,1.08,1.08,0,0,0,.85-.36A1.31,1.31,0,0,0,125.06,30.57Z"/><path class="cls-98" d="M131.09,24.17l-1.84,1.89h-1.33l1.52-1.89Zm-1,8.84h-1.85V27h1.85Z"/><path class="cls-98" d="M137.57,33h-1.85v-.82h0a2.09,2.09,0,0,1-1.86,1,2.3,2.3,0,0,1-1.81-.79,3.28,3.28,0,0,1-.69-2.22,3.62,3.62,0,0,1,.76-2.39,2.44,2.44,0,0,1,2-.89,1.69,1.69,0,0,1,1.62.83h0V24.13h1.85Zm-1.81-2.92v-.45a1.45,1.45,0,0,0-.34-1,1.2,1.2,0,0,0-1.85.1,2.23,2.23,0,0,0-.34,1.32,2,2,0,0,0,.33,1.22,1.09,1.09,0,0,0,.92.43,1.11,1.11,0,0,0,.92-.45A1.87,1.87,0,0,0,135.76,30.09Z"/><path class="cls-98" d="M144.14,33h-1.76v-.86h0a2,2,0,0,1-1.79,1,1.86,1.86,0,0,1-1.37-.5,1.79,1.79,0,0,1-.5-1.32q0-1.74,2.07-2l1.63-.22c0-.66-.36-1-1.07-1a3.65,3.65,0,0,0-2,.63V27.37a4.67,4.67,0,0,1,1.06-.35,5.56,5.56,0,0,1,1.22-.15,2.27,2.27,0,0,1,2.57,2.56Zm-1.74-2.44v-.4l-1.09.14c-.61.08-.91.35-.91.82a.67.67,0,0,0,.22.51.84.84,0,0,0,.6.21,1.1,1.1,0,0,0,.85-.36A1.31,1.31,0,0,0,142.4,30.57Z"/><path class="cls-98" d="M150.81,32.32h0v3.45h-1.85V27h1.85v.9h0a2.19,2.19,0,0,1,1.93-1,2.14,2.14,0,0,1,1.8.8,3.4,3.4,0,0,1,.64,2.17,3.66,3.66,0,0,1-.75,2.41,2.4,2.4,0,0,1-2,.91A1.87,1.87,0,0,1,150.81,32.32Zm-.05-2.47v.48a1.53,1.53,0,0,0,.33,1,1.05,1.05,0,0,0,.86.39,1.12,1.12,0,0,0,1-.49,2.36,2.36,0,0,0,.35-1.38q0-1.59-1.23-1.59a1.18,1.18,0,0,0-.93.43A1.73,1.73,0,0,0,150.76,29.85Z"/><path class="cls-98" d="M160.3,28.68a1.61,1.61,0,0,0-.78-.18,1.14,1.14,0,0,0-.94.44,1.93,1.93,0,0,0-.34,1.21V33h-1.85V27h1.85v1.12h0a1.6,1.6,0,0,1,1.59-1.22,1.12,1.12,0,0,1,.45.07Z"/><path class="cls-98" d="M166.52,30.54h-3.91c.06.87.61,1.31,1.64,1.31a3.24,3.24,0,0,0,1.74-.47v1.33a4.5,4.5,0,0,1-2.16.45,2.79,2.79,0,0,1-3.06-3,3.2,3.2,0,0,1,.87-2.37,2.9,2.9,0,0,1,2.13-.87,2.62,2.62,0,0,1,2,.78,3,3,0,0,1,.72,2.11Zm-.77-6.37-1.84,1.89h-1.33l1.52-1.89Zm-.95,5.23c0-.86-.34-1.29-1-1.29a1,1,0,0,0-.77.37,1.72,1.72,0,0,0-.4.92Z"/><path class="cls-98" d="M170.9,30.46h-3.21v-1.3h3.21Z"/><path class="cls-98" d="M177.49,33h-1.75v-.86h0a2,2,0,0,1-1.78,1,1.88,1.88,0,0,1-1.38-.5,1.79,1.79,0,0,1-.5-1.32q0-1.74,2.07-2l1.63-.22c0-.66-.36-1-1.07-1a3.7,3.7,0,0,0-2,.63V27.37A4.67,4.67,0,0,1,173.7,27a5.7,5.7,0,0,1,1.22-.15,2.27,2.27,0,0,1,2.57,2.56Zm-1.74-2.44v-.4l-1.09.14c-.6.08-.9.35-.9.82a.64.64,0,0,0,.22.51.8.8,0,0,0,.59.21,1.1,1.1,0,0,0,.85-.36A1.31,1.31,0,0,0,175.75,30.57Z"/><path class="cls-98" d="M180.82,33H179V24.13h1.85Z"/><path class="cls-98" d="M185.25,33.16a3.23,3.23,0,0,1-2.36-.84A3.05,3.05,0,0,1,182,30a3.05,3.05,0,0,1,.89-2.33,3.38,3.38,0,0,1,2.41-.84,3.16,3.16,0,0,1,2.34.84,3,3,0,0,1,.85,2.22,3.18,3.18,0,0,1-.87,2.36A3.27,3.27,0,0,1,185.25,33.16Zm0-4.88a1.24,1.24,0,0,0-1,.46,2,2,0,0,0-.36,1.27c0,1.15.47,1.73,1.4,1.73s1.33-.59,1.33-1.77S186.19,28.28,185.29,28.28Z"/><path class="cls-98" d="M194.28,32.8a3.69,3.69,0,0,1-1.81.36,3.06,3.06,0,0,1-2.24-.84,2.89,2.89,0,0,1-.85-2.16,3.16,3.16,0,0,1,.92-2.41,3.36,3.36,0,0,1,2.45-.88,3.1,3.1,0,0,1,1.53.28v1.57a2.1,2.1,0,0,0-1.29-.44A1.62,1.62,0,0,0,191.26,30a1.75,1.75,0,0,0,.44,1.25,1.66,1.66,0,0,0,1.23.45,2.42,2.42,0,0,0,1.35-.43Z"/><path class="cls-98" d="M200.5,33h-1.75v-.86h0a2,2,0,0,1-1.78,1,1.9,1.9,0,0,1-1.38-.5,1.79,1.79,0,0,1-.5-1.32q0-1.74,2.07-2l1.63-.22c0-.66-.36-1-1.07-1a3.7,3.7,0,0,0-2,.63V27.37a4.67,4.67,0,0,1,1.06-.35,5.7,5.7,0,0,1,1.22-.15,2.27,2.27,0,0,1,2.57,2.56Zm-1.74-2.44v-.4l-1.09.14c-.6.08-.9.35-.9.82a.64.64,0,0,0,.22.51.8.8,0,0,0,.59.21,1.1,1.1,0,0,0,.85-.36A1.31,1.31,0,0,0,198.76,30.57Z"/><path class="cls-98" d="M207.85,33H206v-.82h0a2.08,2.08,0,0,1-1.85,1,2.32,2.32,0,0,1-1.82-.79,3.33,3.33,0,0,1-.68-2.22,3.57,3.57,0,0,1,.76-2.39,2.44,2.44,0,0,1,2-.89,1.66,1.66,0,0,1,1.61.83h0V24.13h1.85ZM206,30.09v-.45a1.4,1.4,0,0,0-.34-1,1.19,1.19,0,0,0-1.84.1,2.22,2.22,0,0,0-.35,1.32,2,2,0,0,0,.33,1.22,1.19,1.19,0,0,0,1.85,0A1.92,1.92,0,0,0,206,30.09Z"/><path class="cls-98" d="M214.41,33h-1.75v-.86h0a2,2,0,0,1-1.79,1,1.9,1.9,0,0,1-1.38-.5,1.79,1.79,0,0,1-.5-1.32q0-1.74,2.07-2l1.63-.22c0-.66-.36-1-1.07-1a3.7,3.7,0,0,0-2,.63V27.37a4.85,4.85,0,0,1,1.06-.35,5.7,5.7,0,0,1,1.22-.15,2.26,2.26,0,0,1,2.57,2.56Zm-1.74-2.44v-.4l-1.09.14c-.6.08-.9.35-.9.82a.64.64,0,0,0,.22.51.8.8,0,0,0,.59.21,1.1,1.1,0,0,0,.85-.36A1.31,1.31,0,0,0,212.67,30.57Z"/><path class="cls-98" d="M217.64,31.54l-.86,3h-1.44l.59-3Z"/><path class="cls-98" d="M66.92,46.72h0v.69H65V38.53h1.85v3.78h0a2.19,2.19,0,0,1,2-1,2.15,2.15,0,0,1,1.79.79,3.49,3.49,0,0,1,.62,2.18,3.71,3.71,0,0,1-.73,2.41,2.38,2.38,0,0,1-2,.91A1.88,1.88,0,0,1,66.92,46.72Zm-.06-2.54v.62a1.41,1.41,0,0,0,.34,1,1.09,1.09,0,0,0,.85.38,1.14,1.14,0,0,0,1-.49,2.37,2.37,0,0,0,.34-1.38,1.85,1.85,0,0,0-.32-1.17,1.06,1.06,0,0,0-.91-.42,1.18,1.18,0,0,0-.92.42A1.61,1.61,0,0,0,66.86,44.18Z"/><path class="cls-98" d="M77.37,47.41H75.62v-.86h0a2,2,0,0,1-1.79,1,1.9,1.9,0,0,1-1.38-.5,1.79,1.79,0,0,1-.5-1.32q0-1.74,2.07-2l1.63-.22c0-.66-.35-1-1.07-1a3.65,3.65,0,0,0-2,.63V41.77a4.57,4.57,0,0,1,1-.35,5.7,5.7,0,0,1,1.22-.15,2.26,2.26,0,0,1,2.57,2.56ZM75.63,45v-.4l-1.09.14c-.6.08-.9.35-.9.82a.64.64,0,0,0,.22.51.8.8,0,0,0,.59.21,1.1,1.1,0,0,0,.85-.36A1.31,1.31,0,0,0,75.63,45Z"/><path class="cls-98" d="M78.46,47.25v-1.5a3.5,3.5,0,0,0,.91.41,3,3,0,0,0,.85.14,1.84,1.84,0,0,0,.78-.14.43.43,0,0,0,.29-.41.41.41,0,0,0-.13-.29,1.08,1.08,0,0,0-.33-.2,3,3,0,0,0-.45-.16l-.46-.16a4.68,4.68,0,0,1-.63-.29,1.84,1.84,0,0,1-.46-.36,1.64,1.64,0,0,1-.28-.48,2,2,0,0,1-.09-.63,1.7,1.7,0,0,1,.21-.87,2,2,0,0,1,.59-.6,2.9,2.9,0,0,1,.84-.34,4.46,4.46,0,0,1,1-.1,5.52,5.52,0,0,1,.81.06,5.88,5.88,0,0,1,.81.18v1.43a3,3,0,0,0-.76-.31,3,3,0,0,0-.78-.1,2,2,0,0,0-.35,0,1.15,1.15,0,0,0-.28.09.51.51,0,0,0-.19.16.34.34,0,0,0-.07.22.4.4,0,0,0,.1.28.75.75,0,0,0,.28.2,3.17,3.17,0,0,0,.37.16l.42.13a7.13,7.13,0,0,1,.67.28,2.44,2.44,0,0,1,.51.36,1.58,1.58,0,0,1,.33.48,1.86,1.86,0,0,1,.11.66,1.76,1.76,0,0,1-.23.91,1.81,1.81,0,0,1-.62.61,2.66,2.66,0,0,1-.88.35,5,5,0,0,1-1,.11A5.17,5.17,0,0,1,78.46,47.25Z"/><path class="cls-98" d="M89.53,44.94H85.62c.06.87.61,1.31,1.64,1.31A3.24,3.24,0,0,0,89,45.78v1.33a4.5,4.5,0,0,1-2.16.45,2.79,2.79,0,0,1-3.06-3.05,3.2,3.2,0,0,1,.87-2.37,2.9,2.9,0,0,1,2.13-.87,2.62,2.62,0,0,1,2,.78,3,3,0,0,1,.72,2.11ZM87.81,43.8c0-.86-.34-1.29-1-1.29a1,1,0,0,0-.77.37,1.72,1.72,0,0,0-.4.92Z"/><path class="cls-98" d="M95.64,47.41H93.88v-.86h0a2,2,0,0,1-1.79,1,1.86,1.86,0,0,1-1.37-.5,1.75,1.75,0,0,1-.5-1.32q0-1.74,2.07-2l1.63-.22c0-.66-.36-1-1.07-1a3.65,3.65,0,0,0-2,.63V41.77a4.67,4.67,0,0,1,1.06-.35,5.56,5.56,0,0,1,1.22-.15,2.27,2.27,0,0,1,2.57,2.56ZM93.9,45v-.4l-1.09.14c-.61.08-.91.35-.91.82a.67.67,0,0,0,.22.51.84.84,0,0,0,.6.21,1.11,1.11,0,0,0,.85-.36A1.31,1.31,0,0,0,93.9,45Z"/><path class="cls-98" d="M103,47.41h-1.85v-.82h0a2.09,2.09,0,0,1-1.86,1,2.28,2.28,0,0,1-1.81-.8,3.23,3.23,0,0,1-.69-2.21,3.6,3.6,0,0,1,.76-2.39,2.44,2.44,0,0,1,2-.89,1.69,1.69,0,0,1,1.62.83h0V38.53H103Zm-1.81-2.92V44a1.45,1.45,0,0,0-.34-1,1.2,1.2,0,0,0-1.85.1,2.23,2.23,0,0,0-.34,1.32A2,2,0,0,0,99,45.71a1.18,1.18,0,0,0,1.84,0A1.87,1.87,0,0,0,101.17,44.49Z"/><path class="cls-98" d="M109.55,47.41h-1.76v-.86h0a2,2,0,0,1-1.79,1,1.86,1.86,0,0,1-1.37-.5,1.79,1.79,0,0,1-.5-1.32q0-1.74,2.07-2l1.63-.22c0-.66-.36-1-1.07-1a3.65,3.65,0,0,0-2,.63V41.77a4.67,4.67,0,0,1,1.06-.35,5.63,5.63,0,0,1,1.22-.15,2.27,2.27,0,0,1,2.57,2.56ZM107.81,45v-.4l-1.09.14c-.61.08-.91.35-.91.82A.67.67,0,0,0,106,46a.84.84,0,0,0,.6.21,1.1,1.1,0,0,0,.85-.36A1.31,1.31,0,0,0,107.81,45Z"/><path class="cls-98" d="M120.14,47.41h-1.85V44.08c0-.93-.33-1.4-1-1.4a1,1,0,0,0-.79.37,1.4,1.4,0,0,0-.31.94v3.42h-1.85v-6h1.85v1h0a2.11,2.11,0,0,1,1.93-1.09c1.33,0,2,.82,2,2.47Z"/><path class="cls-98" d="M124.48,47.56a3.23,3.23,0,0,1-2.36-.84,3.47,3.47,0,0,1,0-4.61,3.37,3.37,0,0,1,2.41-.84,3.18,3.18,0,0,1,2.34.84,3,3,0,0,1,.85,2.22,3.18,3.18,0,0,1-.87,2.36A3.27,3.27,0,0,1,124.48,47.56Zm0-4.88a1.24,1.24,0,0,0-1,.46,2,2,0,0,0-.36,1.27c0,1.15.47,1.73,1.4,1.73s1.33-.59,1.33-1.77S125.42,42.68,124.52,42.68Z"/><path class="cls-98" d="M134.16,46.72h0v3.45h-1.85V41.41h1.85v.9h0a2.19,2.19,0,0,1,1.93-1,2.14,2.14,0,0,1,1.8.8,3.34,3.34,0,0,1,.64,2.17,3.71,3.71,0,0,1-.74,2.41,2.42,2.42,0,0,1-2,.91A1.87,1.87,0,0,1,134.16,46.72Zm0-2.47v.48a1.53,1.53,0,0,0,.33,1,1.06,1.06,0,0,0,.86.39,1.12,1.12,0,0,0,1-.49,2.36,2.36,0,0,0,.35-1.38q0-1.59-1.23-1.59a1.18,1.18,0,0,0-.93.43A1.73,1.73,0,0,0,134.11,44.25Z"/><path class="cls-98" d="M142.6,47.56a3.23,3.23,0,0,1-2.36-.84,3.47,3.47,0,0,1,0-4.61,3.38,3.38,0,0,1,2.41-.84,3.2,3.2,0,0,1,2.35.84,3,3,0,0,1,.85,2.22,3.18,3.18,0,0,1-.88,2.36A3.24,3.24,0,0,1,142.6,47.56Zm.05-4.88a1.21,1.21,0,0,0-1,.46,2,2,0,0,0-.37,1.27c0,1.15.47,1.73,1.4,1.73s1.33-.59,1.33-1.77S143.54,42.68,142.65,42.68Z"/><path class="cls-98" d="M150,47.56a3.23,3.23,0,0,1-2.36-.84,3.47,3.47,0,0,1,0-4.61,3.38,3.38,0,0,1,2.41-.84,3.16,3.16,0,0,1,2.34.84,3,3,0,0,1,.85,2.22,3.18,3.18,0,0,1-.87,2.36A3.27,3.27,0,0,1,150,47.56Zm.05-4.88a1.21,1.21,0,0,0-1,.46,1.92,1.92,0,0,0-.37,1.27c0,1.15.47,1.73,1.4,1.73s1.33-.59,1.33-1.77S150.89,42.68,150,42.68Z"/><path class="cls-98" d="M156.29,47.41h-1.85V38.53h1.85Z"/><path class="cls-98" d="M167.05,47.41H165.2v-.82h0a2.09,2.09,0,0,1-1.86,1,2.28,2.28,0,0,1-1.81-.8,3.23,3.23,0,0,1-.69-2.21,3.6,3.6,0,0,1,.76-2.39,2.44,2.44,0,0,1,2-.89,1.69,1.69,0,0,1,1.62.83h0V38.53h1.85Zm-1.81-2.92V44a1.45,1.45,0,0,0-.34-1,1.2,1.2,0,0,0-1.85.1,2.23,2.23,0,0,0-.34,1.32,2,2,0,0,0,.33,1.22,1.09,1.09,0,0,0,.92.43,1.11,1.11,0,0,0,.92-.45A1.87,1.87,0,0,0,165.24,44.49Z"/><path class="cls-98" d="M174,44.94H170.1c.06.87.61,1.31,1.65,1.31a3.24,3.24,0,0,0,1.74-.47v1.33a4.57,4.57,0,0,1-2.17.45,2.79,2.79,0,0,1-3-3.05,3.24,3.24,0,0,1,.86-2.37,2.9,2.9,0,0,1,2.14-.87,2.63,2.63,0,0,1,2,.78,3,3,0,0,1,.71,2.11ZM172.3,43.8q0-1.29-1.05-1.29a1,1,0,0,0-.77.37,1.78,1.78,0,0,0-.39.92Z"/><path class="cls-98" d="M183.64,47.41h-5V39h1.89v6.87h3.12Z"/><path class="cls-98" d="M184.78,47.41V39h3.06a3.77,3.77,0,0,1,2.16.52,1.66,1.66,0,0,1,.76,1.45,1.76,1.76,0,0,1-.46,1.19,2.49,2.49,0,0,1-1.18.71v0a2.31,2.31,0,0,1,1.43.66,1.86,1.86,0,0,1,.54,1.34,2.28,2.28,0,0,1-.83,1.84,3.45,3.45,0,0,1-2.25.67Zm1.89-7v2h.83a1.42,1.42,0,0,0,.93-.29,1,1,0,0,0,.33-.78q0-.93-1.38-.93Zm0,3.4V46h1a1.56,1.56,0,0,0,1-.31,1,1,0,0,0,.37-.83.94.94,0,0,0-.37-.79,1.61,1.61,0,0,0-1-.29Z"/><path class="cls-97" d="M29,189.72v3.17H28v-8.38h2.3a3.08,3.08,0,0,1,2.09.65,2.32,2.32,0,0,1,.74,1.85,2.54,2.54,0,0,1-.82,2,3.13,3.13,0,0,1-2.22.76Zm0-4.32v3.43h1a2.32,2.32,0,0,0,1.56-.46,1.67,1.67,0,0,0,.53-1.31c0-1.11-.65-1.66-2-1.66Z"/><path class="cls-97" d="M36.6,193a2.79,2.79,0,0,1-2.12-.84,3.09,3.09,0,0,1-.79-2.22,3.24,3.24,0,0,1,.82-2.36,3,3,0,0,1,2.23-.85,2.71,2.71,0,0,1,2.1.83,3.26,3.26,0,0,1,.75,2.28,3.23,3.23,0,0,1-.81,2.3A2.87,2.87,0,0,1,36.6,193Zm.07-5.46a1.81,1.81,0,0,0-1.46.63,2.56,2.56,0,0,0-.54,1.73,2.46,2.46,0,0,0,.54,1.68,1.86,1.86,0,0,0,1.46.61,1.75,1.75,0,0,0,1.43-.6,2.57,2.57,0,0,0,.5-1.71,2.61,2.61,0,0,0-.5-1.73A1.73,1.73,0,0,0,36.67,187.57Z"/><path class="cls-97" d="M44.21,187.87a1.21,1.21,0,0,0-.72-.19,1.23,1.23,0,0,0-1,.58,2.72,2.72,0,0,0-.41,1.58v3h-1v-6h1v1.24h0a2.17,2.17,0,0,1,.63-1,1.44,1.44,0,0,1,.94-.35,1.65,1.65,0,0,1,.57.08Z"/><path class="cls-97" d="M48,192.83a1.87,1.87,0,0,1-.89.19c-1,0-1.58-.59-1.58-1.76v-3.54h-1v-.82h1v-1.46l1-.31v1.77H48v.82H46.49v3.37a1.35,1.35,0,0,0,.21.86.81.81,0,0,0,.68.26A1,1,0,0,0,48,192Z"/><path class="cls-97" d="M53.54,192.89h-1V192h0A2,2,0,0,1,50.71,193a2,2,0,0,1-1.4-.48,1.61,1.61,0,0,1-.51-1.25q0-1.68,2-2l1.8-.25q0-1.53-1.23-1.53a3,3,0,0,0-2,.74v-1a3.76,3.76,0,0,1,2-.56c1.41,0,2.11.75,2.11,2.24Zm-1-3-1.44.2a2.25,2.25,0,0,0-1,.33,1,1,0,0,0-.34.84.89.89,0,0,0,.31.71,1.2,1.2,0,0,0,.84.28,1.53,1.53,0,0,0,1.18-.5,1.76,1.76,0,0,0,.46-1.26Z"/><path class="cls-97" d="M58.3,192.55v-1.16a2.5,2.5,0,0,0,.48.32,4.51,4.51,0,0,0,1.2.38,3.09,3.09,0,0,0,.58.06,2.27,2.27,0,0,0,1.35-.34,1.14,1.14,0,0,0,.45-1,1.15,1.15,0,0,0-.15-.59,1.94,1.94,0,0,0-.41-.46,4.56,4.56,0,0,0-.63-.39l-.77-.4c-.29-.15-.57-.3-.82-.45a3.2,3.2,0,0,1-.66-.51,1.9,1.9,0,0,1-.44-.62,1.86,1.86,0,0,1-.17-.81,1.88,1.88,0,0,1,.26-1,2.1,2.1,0,0,1,.66-.7,3,3,0,0,1,.93-.41,4.29,4.29,0,0,1,1.07-.13,4.08,4.08,0,0,1,1.81.3v1.1a3.31,3.31,0,0,0-1.91-.51,3.47,3.47,0,0,0-.64.06,2,2,0,0,0-.58.22,1.27,1.27,0,0,0-.41.39,1.1,1.1,0,0,0-.16.59,1.18,1.18,0,0,0,.12.55,1.31,1.31,0,0,0,.36.43,3.75,3.75,0,0,0,.57.37c.22.13.48.26.78.4s.58.31.85.47a3.59,3.59,0,0,1,.71.54,2.53,2.53,0,0,1,.48.66,1.84,1.84,0,0,1,.18.83,2.09,2.09,0,0,1-.24,1,1.93,1.93,0,0,1-.66.7,2.8,2.8,0,0,1-1,.39,5.24,5.24,0,0,1-1.14.12l-.49,0-.6-.1a4.74,4.74,0,0,1-.57-.15A2,2,0,0,1,58.3,192.55Z"/><path class="cls-97" d="M71.8,192.89H70.59l-4.32-6.68a2.65,2.65,0,0,1-.27-.53h0a9.39,9.39,0,0,1,0,1.15v6.06H65v-8.38h1.28l4.2,6.57a5.88,5.88,0,0,1,.34.56h0a8.58,8.58,0,0,1-.06-1.23v-5.9h1Z"/><path class="cls-97" d="M80.47,192.89H79.38l-.89-2.35H74.93l-.84,2.35H73l3.22-8.38h1Zm-2.31-3.23-1.31-3.57a2.71,2.71,0,0,1-.13-.57h0a2.7,2.7,0,0,1-.13.57l-1.31,3.57Z"/><path class="cls-97" d="M85.77,185.4H83.35v7.49h-1V185.4H79.94v-.89h5.83Z"/><path class="cls-97" d="M91.16,192h0v3.62h-1V186.9h1V188h0a2.26,2.26,0,0,1,2.07-1.2,2.18,2.18,0,0,1,1.81.81,3.27,3.27,0,0,1,.65,2.15,3.72,3.72,0,0,1-.73,2.41,2.45,2.45,0,0,1-2,.9A2,2,0,0,1,91.16,192Zm0-2.41v.84a1.76,1.76,0,0,0,.48,1.25,1.72,1.72,0,0,0,2.59-.14,3.09,3.09,0,0,0,.5-1.86,2.38,2.38,0,0,0-.47-1.56,1.51,1.51,0,0,0-1.25-.57,1.66,1.66,0,0,0-1.34.58A2.15,2.15,0,0,0,91.14,189.61Z"/><path class="cls-97" d="M100.32,187.87a1.25,1.25,0,0,0-.73-.19,1.23,1.23,0,0,0-1,.58,2.72,2.72,0,0,0-.41,1.58v3h-1v-6h1v1.24h0a2.17,2.17,0,0,1,.63-1,1.46,1.46,0,0,1,.94-.35,1.75,1.75,0,0,1,.58.08Z"/><path class="cls-97" d="M106.14,190.14h-4.23a2.18,2.18,0,0,0,.54,1.54,1.85,1.85,0,0,0,1.41.54,3,3,0,0,0,1.87-.66v.9a3.52,3.52,0,0,1-2.09.57,2.52,2.52,0,0,1-2-.82,3.33,3.33,0,0,1-.73-2.29,3.29,3.29,0,0,1,.8-2.28,2.56,2.56,0,0,1,2-.88,2.28,2.28,0,0,1,1.82.76,3.17,3.17,0,0,1,.64,2.11Zm-1-.82a2,2,0,0,0-.4-1.29,1.37,1.37,0,0,0-1.1-.46,1.55,1.55,0,0,0-1.15.48,2.19,2.19,0,0,0-.59,1.27Zm-.15-5.47-1.54,1.92h-.74l1.3-1.92Z"/><path class="cls-97" d="M110.63,189.93h-3.2v-.75h3.2Z"/><path class="cls-97" d="M116.61,192.89h-1V192h0a2,2,0,0,1-1.85,1.08,2,2,0,0,1-1.4-.48,1.61,1.61,0,0,1-.5-1.25c0-1.12.65-1.77,2-2l1.8-.25q0-1.53-1.23-1.53a3,3,0,0,0-2,.74v-1a3.76,3.76,0,0,1,2-.56c1.41,0,2.11.75,2.11,2.24Zm-1-3-1.44.2a2.3,2.3,0,0,0-1,.33,1,1,0,0,0-.34.84.89.89,0,0,0,.31.71,1.2,1.2,0,0,0,.84.28,1.53,1.53,0,0,0,1.18-.5,1.76,1.76,0,0,0,.46-1.26Z"/><path class="cls-97" d="M119.35,192.89h-1V184h1Z"/><path class="cls-97" d="M123.76,193a2.79,2.79,0,0,1-2.12-.84,3.09,3.09,0,0,1-.79-2.22,3.24,3.24,0,0,1,.82-2.36,3,3,0,0,1,2.23-.85,2.71,2.71,0,0,1,2.1.83,3.26,3.26,0,0,1,.75,2.28,3.23,3.23,0,0,1-.81,2.3A2.87,2.87,0,0,1,123.76,193Zm.07-5.46a1.83,1.83,0,0,0-1.46.63,2.56,2.56,0,0,0-.54,1.73,2.46,2.46,0,0,0,.54,1.68,1.86,1.86,0,0,0,1.46.61,1.79,1.79,0,0,0,1.44-.6,2.62,2.62,0,0,0,.5-1.71,2.66,2.66,0,0,0-.5-1.73A1.76,1.76,0,0,0,123.83,187.57Z"/><path class="cls-97" d="M132.33,192.61a3.08,3.08,0,0,1-1.64.42,2.75,2.75,0,0,1-2.07-.83,3,3,0,0,1-.78-2.16,3.3,3.3,0,0,1,.85-2.38,3,3,0,0,1,2.26-.9,3.13,3.13,0,0,1,1.4.3v1a2.47,2.47,0,0,0-1.43-.47,1.92,1.92,0,0,0-1.51.66,2.49,2.49,0,0,0-.59,1.72,2.39,2.39,0,0,0,.55,1.66,1.91,1.91,0,0,0,1.49.61,2.38,2.38,0,0,0,1.47-.52Z"/><path class="cls-97" d="M138,192.89h-1V192h0a2,2,0,0,1-1.84,1.08,2,2,0,0,1-1.41-.48,1.64,1.64,0,0,1-.5-1.25q0-1.68,2-2l1.79-.25q0-1.53-1.23-1.53a3,3,0,0,0-2,.74v-1a3.76,3.76,0,0,1,2-.56c1.41,0,2.11.75,2.11,2.24Zm-1-3-1.44.2a2.3,2.3,0,0,0-1,.33,1,1,0,0,0-.34.84.92.92,0,0,0,.31.71,1.2,1.2,0,0,0,.84.28,1.53,1.53,0,0,0,1.18-.5,1.76,1.76,0,0,0,.46-1.26Z"/><path class="cls-97" d="M144.94,192.89h-1v-1h0a2.21,2.21,0,0,1-2.06,1.16,2.26,2.26,0,0,1-1.81-.81,3.27,3.27,0,0,1-.67-2.18,3.57,3.57,0,0,1,.75-2.38,2.46,2.46,0,0,1,2-.9,1.93,1.93,0,0,1,1.8,1h0V184h1Zm-1-2.71v-.88a1.73,1.73,0,0,0-.48-1.23,1.78,1.78,0,0,0-2.6.14,2.79,2.79,0,0,0-.51,1.78,2.48,2.48,0,0,0,.49,1.63,1.57,1.57,0,0,0,1.29.6,1.65,1.65,0,0,0,1.31-.58A2.16,2.16,0,0,0,144,190.18Z"/><path class="cls-97" d="M151.14,192.89h-1V192h0a2,2,0,0,1-1.84,1.08,1.93,1.93,0,0,1-1.4-.48,1.61,1.61,0,0,1-.51-1.25q0-1.68,2-2l1.8-.25c0-1-.41-1.53-1.24-1.53a3,3,0,0,0-1.95.74v-1a3.75,3.75,0,0,1,2-.56c1.41,0,2.12.75,2.12,2.24Zm-1-3-1.45.2a2.35,2.35,0,0,0-1,.33,1,1,0,0,0-.34.84.9.9,0,0,0,.32.71,1.19,1.19,0,0,0,.83.28,1.51,1.51,0,0,0,1.18-.5,1.77,1.77,0,0,0,.47-1.26Z"/><path class="cls-97" d="M161,190.14h-4.23a2.18,2.18,0,0,0,.54,1.54,1.85,1.85,0,0,0,1.41.54,2.94,2.94,0,0,0,1.86-.66v.9a3.47,3.47,0,0,1-2.09.57,2.51,2.51,0,0,1-2-.82,3.28,3.28,0,0,1-.73-2.29,3.33,3.33,0,0,1,.79-2.28,2.58,2.58,0,0,1,2-.88,2.28,2.28,0,0,1,1.82.76,3.17,3.17,0,0,1,.64,2.11Zm-1-.82a2,2,0,0,0-.4-1.29,1.37,1.37,0,0,0-1.1-.46,1.59,1.59,0,0,0-1.16.48,2.24,2.24,0,0,0-.58,1.27Z"/><path class="cls-97" d="M170.63,192.89h-1v-3.41c0-1.27-.47-1.91-1.4-1.91a1.5,1.5,0,0,0-1.19.54,2,2,0,0,0-.47,1.37v3.41h-1v-6h1v1h0a2.16,2.16,0,0,1,2-1.14,1.79,1.79,0,0,1,1.5.64,2.79,2.79,0,0,1,.53,1.83Z"/><path class="cls-97" d="M176.69,192.89h-1V192h0a2,2,0,0,1-1.85,1.08,2,2,0,0,1-1.4-.48,1.61,1.61,0,0,1-.51-1.25q0-1.68,2-2l1.8-.25q0-1.53-1.23-1.53a3,3,0,0,0-2,.74v-1a3.76,3.76,0,0,1,2-.56c1.41,0,2.11.75,2.11,2.24Zm-.32-8.52a1.64,1.64,0,0,1-.28,1,.89.89,0,0,1-.76.39,1.89,1.89,0,0,1-1-.31,1.69,1.69,0,0,0-.7-.25q-.51,0-.51.66h-.55a1.62,1.62,0,0,1,.28-1,.92.92,0,0,1,.78-.38,1.71,1.71,0,0,1,.87.31,1.56,1.56,0,0,0,.75.26c.33,0,.5-.23.5-.68Zm-.64,5.49-1.44.2a2.25,2.25,0,0,0-1,.33,1,1,0,0,0-.34.84.89.89,0,0,0,.31.71,1.2,1.2,0,0,0,.84.28,1.53,1.53,0,0,0,1.18-.5,1.76,1.76,0,0,0,.46-1.26Z"/><path class="cls-97" d="M181,193a2.79,2.79,0,0,1-2.12-.84,3.09,3.09,0,0,1-.79-2.22,3.24,3.24,0,0,1,.82-2.36,3,3,0,0,1,2.23-.85,2.71,2.71,0,0,1,2.1.83,3.26,3.26,0,0,1,.75,2.28,3.23,3.23,0,0,1-.81,2.3A2.87,2.87,0,0,1,181,193Zm.07-5.46a1.83,1.83,0,0,0-1.46.63,2.56,2.56,0,0,0-.54,1.73,2.46,2.46,0,0,0,.54,1.68,1.86,1.86,0,0,0,1.46.61,1.79,1.79,0,0,0,1.44-.6,2.62,2.62,0,0,0,.5-1.71,2.66,2.66,0,0,0-.5-1.73A1.76,1.76,0,0,0,181,187.57Z"/><path class="cls-97" d="M193.56,192.89h-1v-.95h0a2,2,0,0,1-1.85,1.09c-1.43,0-2.14-.85-2.14-2.55V186.9h.95v3.43c0,1.26.49,1.89,1.45,1.89a1.46,1.46,0,0,0,1.16-.52,2,2,0,0,0,.46-1.35V186.9h1Z"/><path class="cls-97" d="M195.1,192.67v-1a2.79,2.79,0,0,0,1.72.58c.85,0,1.27-.28,1.27-.84A.78.78,0,0,0,198,191a1,1,0,0,0-.29-.29,2.27,2.27,0,0,0-.44-.23l-.53-.22a6.87,6.87,0,0,1-.7-.31,2.23,2.23,0,0,1-.51-.37,1.37,1.37,0,0,1-.3-.45,1.66,1.66,0,0,1-.1-.61,1.41,1.41,0,0,1,.19-.74,1.58,1.58,0,0,1,.52-.54,2.21,2.21,0,0,1,.73-.33,3.06,3.06,0,0,1,.85-.12,3.46,3.46,0,0,1,1.4.27v1a2.71,2.71,0,0,0-1.53-.43,1.8,1.8,0,0,0-.48.06,1.15,1.15,0,0,0-.37.17.76.76,0,0,0-.24.27.67.67,0,0,0-.09.34.75.75,0,0,0,.09.39.74.74,0,0,0,.25.28,1.61,1.61,0,0,0,.39.23l.54.21a6.81,6.81,0,0,1,.71.32,2.12,2.12,0,0,1,.54.36,1.38,1.38,0,0,1,.34.46,1.54,1.54,0,0,1,.12.63,1.49,1.49,0,0,1-.19.77,1.61,1.61,0,0,1-.53.54,2.3,2.3,0,0,1-.75.32,3.82,3.82,0,0,1-.9.11A3.34,3.34,0,0,1,195.1,192.67Z"/><path class="cls-97" d="M204.8,192.89h-1V192h0A2,2,0,0,1,202,193a2,2,0,0,1-1.41-.48,1.64,1.64,0,0,1-.5-1.25q0-1.68,2-2l1.79-.25q0-1.53-1.23-1.53a3,3,0,0,0-2,.74v-1a3.76,3.76,0,0,1,2-.56c1.41,0,2.11.75,2.11,2.24Zm-1-3-1.44.2a2.3,2.3,0,0,0-1,.33,1,1,0,0,0-.34.84.89.89,0,0,0,.31.71,1.2,1.2,0,0,0,.84.28,1.53,1.53,0,0,0,1.18-.5,1.76,1.76,0,0,0,.46-1.26Z"/><path class="cls-97" d="M211.7,192.89h-1v-1h0a2.21,2.21,0,0,1-2.06,1.16,2.26,2.26,0,0,1-1.81-.81,3.27,3.27,0,0,1-.67-2.18,3.57,3.57,0,0,1,.75-2.38,2.46,2.46,0,0,1,2-.9,1.93,1.93,0,0,1,1.8,1h0V184h1Zm-1-2.71v-.88a1.73,1.73,0,0,0-.48-1.23,1.78,1.78,0,0,0-2.6.14,2.79,2.79,0,0,0-.51,1.78,2.48,2.48,0,0,0,.49,1.63,1.57,1.57,0,0,0,1.29.6,1.65,1.65,0,0,0,1.31-.58A2.16,2.16,0,0,0,210.74,190.18Z"/><path class="cls-97" d="M217.9,192.89h-1V192h0a2,2,0,0,1-1.84,1.08,1.93,1.93,0,0,1-1.4-.48,1.61,1.61,0,0,1-.51-1.25q0-1.68,2-2l1.8-.25c0-1-.41-1.53-1.24-1.53a3,3,0,0,0-1.95.74v-1a3.75,3.75,0,0,1,2-.56c1.41,0,2.12.75,2.12,2.24Zm-1-3-1.45.2a2.35,2.35,0,0,0-1,.33,1,1,0,0,0-.34.84.9.9,0,0,0,.32.71,1.18,1.18,0,0,0,.83.28,1.51,1.51,0,0,0,1.18-.5,1.77,1.77,0,0,0,.47-1.26Z"/><path class="cls-97" d="M29,205.51v3.17H28V200.3h2.3a3.08,3.08,0,0,1,2.09.65,2.32,2.32,0,0,1,.74,1.85,2.54,2.54,0,0,1-.82,1.95,3.13,3.13,0,0,1-2.22.76Zm0-4.32v3.43h1a2.32,2.32,0,0,0,1.56-.46,1.67,1.67,0,0,0,.53-1.31c0-1.11-.65-1.66-2-1.66Z"/><path class="cls-97" d="M36.6,208.82a2.79,2.79,0,0,1-2.12-.84,3.09,3.09,0,0,1-.79-2.22,3.24,3.24,0,0,1,.82-2.36,3,3,0,0,1,2.23-.85,2.71,2.71,0,0,1,2.1.83,3.26,3.26,0,0,1,.75,2.28,3.23,3.23,0,0,1-.81,2.3A2.87,2.87,0,0,1,36.6,208.82Zm.07-5.46a1.81,1.81,0,0,0-1.46.63,2.56,2.56,0,0,0-.54,1.73,2.46,2.46,0,0,0,.54,1.68,1.86,1.86,0,0,0,1.46.61,1.75,1.75,0,0,0,1.43-.6,2.57,2.57,0,0,0,.5-1.71,2.61,2.61,0,0,0-.5-1.73A1.73,1.73,0,0,0,36.67,203.36Z"/><path class="cls-97" d="M44.21,203.66a1.14,1.14,0,0,0-.72-.19,1.23,1.23,0,0,0-1,.58,2.7,2.7,0,0,0-.41,1.58v3.05h-1v-6h1v1.24h0a2.17,2.17,0,0,1,.63-1,1.44,1.44,0,0,1,.94-.35,1.65,1.65,0,0,1,.57.08Z"/><path class="cls-97" d="M48,208.62a1.87,1.87,0,0,1-.89.19c-1,0-1.58-.59-1.58-1.76v-3.54h-1v-.82h1v-1.46l1-.31v1.77H48v.82H46.49v3.37a1.37,1.37,0,0,0,.21.86.81.81,0,0,0,.68.26,1,1,0,0,0,.62-.2Z"/><path class="cls-97" d="M53.54,208.68h-1v-.94h0a2,2,0,0,1-1.85,1.08,2,2,0,0,1-1.4-.48,1.61,1.61,0,0,1-.51-1.25q0-1.68,2-2l1.8-.25q0-1.53-1.23-1.53a2.91,2.91,0,0,0-2,.74v-1a3.76,3.76,0,0,1,2-.56c1.41,0,2.11.75,2.11,2.24Zm-1-3-1.44.2a2.25,2.25,0,0,0-1,.33,1,1,0,0,0-.34.84.89.89,0,0,0,.31.71,1.2,1.2,0,0,0,.84.28,1.53,1.53,0,0,0,1.18-.5,1.76,1.76,0,0,0,.46-1.26Z"/><path class="cls-97" d="M58.3,208.34v-1.16a2.5,2.5,0,0,0,.48.32,4.51,4.51,0,0,0,1.2.38,3,3,0,0,0,.58.05,2.28,2.28,0,0,0,1.35-.33,1.14,1.14,0,0,0,.45-1,1.15,1.15,0,0,0-.15-.59,1.76,1.76,0,0,0-.41-.46,3.77,3.77,0,0,0-.63-.39l-.77-.4c-.29-.15-.57-.3-.82-.45a3.2,3.2,0,0,1-.66-.51,1.9,1.9,0,0,1-.44-.62,2,2,0,0,1,.09-1.81,2,2,0,0,1,.66-.7,3,3,0,0,1,.93-.41,4.29,4.29,0,0,1,1.07-.13,4.08,4.08,0,0,1,1.81.3v1.1a3.31,3.31,0,0,0-1.91-.51,3.47,3.47,0,0,0-.64.06,2,2,0,0,0-.58.22,1.27,1.27,0,0,0-.41.39,1.1,1.1,0,0,0-.16.59,1.18,1.18,0,0,0,.12.55,1.31,1.31,0,0,0,.36.43,3.75,3.75,0,0,0,.57.37c.22.12.48.26.78.4s.58.3.85.47a3.59,3.59,0,0,1,.71.54,2.53,2.53,0,0,1,.48.66,1.84,1.84,0,0,1,.18.83,2.14,2.14,0,0,1-.24,1.05,1.93,1.93,0,0,1-.66.7,2.8,2.8,0,0,1-1,.39,5.24,5.24,0,0,1-1.14.12l-.49,0-.6-.1a4.74,4.74,0,0,1-.57-.15A2,2,0,0,1,58.3,208.34Z"/><path class="cls-97" d="M71.8,208.68H70.59L66.27,202a2.94,2.94,0,0,1-.27-.53h0a9.28,9.28,0,0,1,0,1.15v6.06H65V200.3h1.28l4.2,6.57a5.88,5.88,0,0,1,.34.56h0a8.58,8.58,0,0,1-.06-1.23v-5.9h1Z"/><path class="cls-97" d="M80.47,208.68H79.38l-.89-2.35H74.93l-.84,2.35H73l3.22-8.38h1Zm-2.31-3.23-1.31-3.57a2.71,2.71,0,0,1-.13-.57h0a2.7,2.7,0,0,1-.13.57l-1.31,3.57Z"/><path class="cls-97" d="M85.77,201.19H83.35v7.49h-1v-7.49H79.94v-.89h5.83Z"/><path class="cls-97" d="M95,208.68h-1v-1h0a2,2,0,0,1-1.85,1.09c-1.43,0-2.14-.85-2.14-2.55v-3.58h1v3.43c0,1.26.48,1.89,1.45,1.89a1.46,1.46,0,0,0,1.16-.52,2,2,0,0,0,.45-1.35v-3.45h1Z"/><path class="cls-97" d="M96.56,208.46v-1a2.84,2.84,0,0,0,1.73.58c.84,0,1.27-.28,1.27-.84a.76.76,0,0,0-.11-.41,1,1,0,0,0-.3-.29,1.93,1.93,0,0,0-.43-.23l-.53-.22c-.27-.1-.5-.21-.71-.31a2.16,2.16,0,0,1-.5-.37,1.37,1.37,0,0,1-.3-.45,1.66,1.66,0,0,1-.11-.61,1.39,1.39,0,0,1,.2-.74,1.78,1.78,0,0,1,.51-.55,2.77,2.77,0,0,1,.74-.33,3.56,3.56,0,0,1,2.24.16v1a2.7,2.7,0,0,0-1.52-.43,1.75,1.75,0,0,0-.48.06,1.33,1.33,0,0,0-.38.17,1,1,0,0,0-.24.27.77.77,0,0,0-.08.34.87.87,0,0,0,.08.39.83.83,0,0,0,.25.28,2.11,2.11,0,0,0,.4.23l.53.21c.27.1.51.21.72.31a2.44,2.44,0,0,1,.54.37,1.38,1.38,0,0,1,.34.46,1.64,1.64,0,0,1-.08,1.4,1.58,1.58,0,0,1-.52.54,2.26,2.26,0,0,1-.76.32,3.68,3.68,0,0,1-.89.11A3.41,3.41,0,0,1,96.56,208.46Z"/><path class="cls-97" d="M106.27,208.68h-1v-.94h0a2,2,0,0,1-1.85,1.08,2,2,0,0,1-1.4-.48,1.61,1.61,0,0,1-.51-1.25q0-1.68,2-2l1.8-.25q0-1.53-1.23-1.53a2.91,2.91,0,0,0-2,.74v-1a3.76,3.76,0,0,1,2-.56c1.41,0,2.11.75,2.11,2.24Zm-1-3-1.44.2a2.25,2.25,0,0,0-1,.33,1,1,0,0,0-.34.84.89.89,0,0,0,.31.71,1.2,1.2,0,0,0,.84.28,1.53,1.53,0,0,0,1.18-.5,1.76,1.76,0,0,0,.46-1.26Z"/><path class="cls-97" d="M113.16,208.68h-1v-1h0a2.21,2.21,0,0,1-2.06,1.16,2.24,2.24,0,0,1-1.81-.81,3.27,3.27,0,0,1-.67-2.18,3.57,3.57,0,0,1,.75-2.38,2.46,2.46,0,0,1,2-.9,1.93,1.93,0,0,1,1.8,1h0v-3.7h1Zm-1-2.71v-.88a1.73,1.73,0,0,0-.48-1.23,1.61,1.61,0,0,0-1.21-.5,1.67,1.67,0,0,0-1.39.64,2.85,2.85,0,0,0-.5,1.78,2.53,2.53,0,0,0,.48,1.63,1.73,1.73,0,0,0,2.6,0A2.11,2.11,0,0,0,112.2,206Z"/><path class="cls-97" d="M119.37,208.68h-1v-.94h0a2,2,0,0,1-1.84,1.08,2,2,0,0,1-1.41-.48,1.64,1.64,0,0,1-.5-1.25q0-1.68,2-2l1.8-.25c0-1-.42-1.53-1.24-1.53a2.94,2.94,0,0,0-2,.74v-1a3.76,3.76,0,0,1,2-.56c1.41,0,2.12.75,2.12,2.24Zm-1-3-1.45.2a2.3,2.3,0,0,0-1,.33,1,1,0,0,0-.34.84.9.9,0,0,0,.32.71,1.16,1.16,0,0,0,.83.28,1.51,1.51,0,0,0,1.18-.5,1.77,1.77,0,0,0,.47-1.26Z"/></g></svg>