<svg xmlns="http://www.w3.org/2000/svg" xmlns:xlink="http://www.w3.org/1999/xlink" viewBox="0 0 668 155"><defs><symbol id="a" viewBox="0 0 49.9 49.9"><path d="M19.5,39.9a12,12,0,0,0,13.7,9.9,11.9,11.9,0,0,0,10-11.9,16.4,16.4,0,0,0-.2-2.2,8.2,8.2,0,0,0,6.9-8.3c0-4.6-3.5-8.4-7.7-8.4H20.3A10.5,10.5,0,0,0,10.1,29.6,10.3,10.3,0,0,0,19.5,39.9Z" fill="#59b4d9"/><path d="M15,22a.9.9,0,0,0-1,1v5a.9.9,0,0,0,1,1H26a.9.9,0,0,0,1-1V23a.9.9,0,0,0-1-1Z" fill="#dd5900"/><path d="M26,28V23H15v5H26m0,2H15a2,2,0,0,1-2-2V23a2,2,0,0,1,2-2H26a2,2,0,0,1,2,2v5A2,2,0,0,1,26,30Z" fill="#a0a1a2"/><path d="M28,22a.9.9,0,0,0-1,1v5a.9.9,0,0,0,1,1H39a.9.9,0,0,0,1-1V23a.9.9,0,0,0-1-1Z" fill="#ba141a"/><path d="M39,28V23H28v5H39m0,2H28a2,2,0,0,1-2-2V23a2,2,0,0,1,2-2H39a2,2,0,0,1,2,2v5A2,2,0,0,1,39,30Z" fill="#a0a1a2"/><path d="M2,22a.9.9,0,0,0-1,1v5a.9.9,0,0,0,1,1H13a.9.9,0,0,0,1-1V23a.9.9,0,0,0-1-1Z" fill="#ba141a"/><path d="M13,28V23H2v5H13m0,2H2a2,2,0,0,1-2-2V23a2,2,0,0,1,2-2H13a2,2,0,0,1,2,2v5A2,2,0,0,1,13,30Z" fill="#a0a1a2"/><path d="M15,15a.9.9,0,0,0-1,1v5a.9.9,0,0,0,1,1H26a.9.9,0,0,0,1-1V16a.9.9,0,0,0-1-1Z" fill="#ba141a"/><path d="M26,21V16H15v5H26m0,2H15a2,2,0,0,1-2-2V16a2,2,0,0,1,2-2H26a2,2,0,0,1,2,2v5A2,2,0,0,1,26,23Z" fill="#a0a1a2"/><path d="M2,8A.9.9,0,0,0,1,9v5a.9.9,0,0,0,1,1H13a.9.9,0,0,0,1-1V9a.9.9,0,0,0-1-1Z" fill="#dd5900"/><path d="M13,14V9H2v5H13m0,2H2a2,2,0,0,1-2-2V9A2,2,0,0,1,2,7H13a2,2,0,0,1,2,2v5A2,2,0,0,1,13,16Z" fill="#a0a1a2"/><path d="M2,15a.9.9,0,0,0-1,1v5a.9.9,0,0,0,1,1H13a.9.9,0,0,0,1-1V16a.9.9,0,0,0-1-1Z" fill="#ba141a"/><path d="M13,21V16H2v5H13m0,2H2a2,2,0,0,1-2-2V16a2,2,0,0,1,2-2H13a2,2,0,0,1,2,2v5A2,2,0,0,1,13,23Z" fill="#a0a1a2"/><path d="M15,1a.9.9,0,0,0-1,1V7a.9.9,0,0,0,1,1H26a.9.9,0,0,0,1-1V2a.9.9,0,0,0-1-1Z" fill="#ba141a"/><path d="M26,7V2H15V7H26m0,2H15a2,2,0,0,1-2-2V2a2,2,0,0,1,2-2H26a2,2,0,0,1,2,2V7A2,2,0,0,1,26,9Z" fill="#a0a1a2"/><path d="M28,8a.9.9,0,0,0-1,1v5a.9.9,0,0,0,1,1H39a.9.9,0,0,0,1-1V9a.9.9,0,0,0-1-1Z" fill="#ba141a"/><path d="M39,14V9H28v5H39m0,2H28a2,2,0,0,1-2-2V9a2,2,0,0,1,2-2H39a2,2,0,0,1,2,2v5A2,2,0,0,1,39,16Z" fill="#a0a1a2"/><path d="M28,15a.9.9,0,0,0-1,1v5a.9.9,0,0,0,1,1H39a.9.9,0,0,0,1-1V16a.9.9,0,0,0-1-1Z" fill="#ba141a"/><path d="M39,21V16H28v5H39m0,2H28a2,2,0,0,1-2-2V16a2,2,0,0,1,2-2H39a2,2,0,0,1,2,2v5A2,2,0,0,1,39,23Z" fill="#a0a1a2"/><path d="M15,8a.9.9,0,0,0-1,1v5a.9.9,0,0,0,1,1H26a.9.9,0,0,0,1-1V9a.9.9,0,0,0-1-1Z" fill="#ba141a"/><path d="M26,14V9H15v5H26m0,2H15a2,2,0,0,1-2-2V9a2,2,0,0,1,2-2H26a2,2,0,0,1,2,2v5A2,2,0,0,1,26,16Z" fill="#a0a1a2"/><path d="M28,1a.9.9,0,0,0-1,1V7a.9.9,0,0,0,1,1H39a.9.9,0,0,0,1-1V2a.9.9,0,0,0-1-1Z" fill="#dd5900"/><path d="M39,7V2H28V7H39m0,2H28a2,2,0,0,1-2-2V2a2,2,0,0,1,2-2H39a2,2,0,0,1,2,2V7A2,2,0,0,1,39,9Z" fill="#a0a1a2"/><path d="M2,1A.9.9,0,0,0,1,2V7A.9.9,0,0,0,2,8H13a.9.9,0,0,0,1-1V2a.9.9,0,0,0-1-1Z" fill="#ba141a"/><path d="M13,7V2H2V7H13m0,2H2A2,2,0,0,1,0,7V2A2,2,0,0,1,2,0H13a2,2,0,0,1,2,2V7A2,2,0,0,1,13,9Z" fill="#a0a1a2"/></symbol></defs><title>OJ104467218</title><rect width="668" height="155" fill="#fff"/><rect x="128" y="15" width="230" height="120" fill="#fff"/><rect x="128" y="15" width="230" height="120" fill="#0072c6" opacity="0.25" style="isolation:isolate"/><rect x="468" y="15" width="200" height="140" fill="#fff"/><rect x="468" y="15" width="200" height="140" fill="#3c3c41" opacity="0.15" style="isolation:isolate"/><rect y="15" width="105" height="120" fill="#fff"/><rect y="15" width="105" height="120" fill="#3c3c41" opacity="0.15" style="isolation:isolate"/><rect x="143" y="65" width="95" height="55" fill="#fff"/><rect x="143" y="65" width="95" height="55" fill="#50e6ff" opacity="0.05" style="isolation:isolate"/><rect x="263" y="65" width="80" height="55" fill="#fff"/><rect x="263" y="65" width="80" height="55" fill="#50e6ff" opacity="0.05" style="isolation:isolate"/><path d="M147.3,7.9a8,8,0,0,1,9.1-6.8,7.8,7.8,0,0,1,6.8,6.6,5.4,5.4,0,0,1,7.7.6h.1a5.3,5.3,0,0,1,1.1,2.1,4.8,4.8,0,0,1,5.8,3.5,4.8,4.8,0,0,1-3.5,5.9H146.2a6.1,6.1,0,0,1,1.1-12.1Z" fill="#fff"/><path d="M147.3,7.9a8,8,0,0,1,9.1-6.8,7.8,7.8,0,0,1,6.8,6.6,5.4,5.4,0,0,1,7.7.6h.1a5.3,5.3,0,0,1,1.1,2.1,4.8,4.8,0,0,1,5.8,3.5,4.8,4.8,0,0,1-3.5,5.9H146.2a6.1,6.1,0,0,1,1.1-12.1Z" fill="#0078d4"/><path d="M147.3,7.9a8,8,0,0,1,9.1-6.8,7.8,7.8,0,0,1,6.8,6.6,5.4,5.4,0,0,1,7.7.6h.1a5.3,5.3,0,0,1,1.1,2.1,4.8,4.8,0,0,1,5.8,3.5,4.8,4.8,0,0,1-3.5,5.9H146.2a6.1,6.1,0,0,1,1.1-12.1Z" fill="none" stroke="#fff" stroke-miterlimit="10"/><path d="M146.4,7.9a8.2,8.2,0,0,0-9.2-6.8,8.3,8.3,0,0,0-6.8,6.6,5.3,5.3,0,0,0-7.7.7h0a5.3,5.3,0,0,0-1.1,2.1,4.8,4.8,0,0,0-5.8,3.5,4.9,4.9,0,0,0,3.5,5.9h28.2a6.1,6.1,0,0,0-1.1-12.1Z" fill="#fff"/><path d="M146.4,7.9a8.2,8.2,0,0,0-9.2-6.8,8.3,8.3,0,0,0-6.8,6.6,5.3,5.3,0,0,0-7.7.7h0a5.3,5.3,0,0,0-1.1,2.1,4.8,4.8,0,0,0-5.8,3.5,4.9,4.9,0,0,0,3.5,5.9h28.2a6.1,6.1,0,0,0-1.1-12.1Z" fill="#0078d4"/><path d="M146.4,7.9a8.2,8.2,0,0,0-9.2-6.8,8.3,8.3,0,0,0-6.8,6.6,5.3,5.3,0,0,0-7.7.7h0a5.3,5.3,0,0,0-1.1,2.1,4.8,4.8,0,0,0-5.8,3.5,4.9,4.9,0,0,0,3.5,5.9h28.2a6.1,6.1,0,0,0-1.1-12.1Z" fill="none" stroke="#fff" stroke-miterlimit="10"/><path d="M138.5,9.7a6.9,6.9,0,0,1,13.6-.2,4.6,4.6,0,0,1,6.6.6h0a4,4,0,0,1,1,1.8,4.1,4.1,0,0,1,5,3,4.2,4.2,0,0,1-3,5H137.5a5.3,5.3,0,0,1-4.1-5.2A5.1,5.1,0,0,1,138.5,9.7Z" fill="#fff"/><path d="M138.5,9.7a6.9,6.9,0,0,1,13.6-.2,4.6,4.6,0,0,1,6.6.6h0a4,4,0,0,1,1,1.8,4.1,4.1,0,0,1,5,3,4.2,4.2,0,0,1-3,5H137.5a5.3,5.3,0,0,1-4.1-5.2A5.1,5.1,0,0,1,138.5,9.7Z" fill="#0078d4"/><path d="M138.5,9.7a6.9,6.9,0,0,1,13.6-.2,4.6,4.6,0,0,1,6.6.6h0a4,4,0,0,1,1,1.8,4.1,4.1,0,0,1,5,3,4.2,4.2,0,0,1-3,5H137.5a5.3,5.3,0,0,1-4.1-5.2A5.1,5.1,0,0,1,138.5,9.7Z" fill="none" stroke="#fff" stroke-miterlimit="10"/><line x1="468" y1="55" x2="363.4" y2="55" fill="none" stroke="#3c3c41" stroke-miterlimit="10"/><polygon points="364.5 51.3 358 55 364.5 58.7 364.5 51.3" fill="#3c3c41"/><line x1="462.6" y1="90.5" x2="358" y2="90.5" fill="none" stroke="#3c3c41" stroke-miterlimit="10"/><polygon points="461.5 86.8 468 90.5 461.5 94.3 461.5 86.8" fill="#3c3c41"/><line x1="137.6" y1="90.5" x2="105.1" y2="90.5" fill="none" stroke="#3c3c41" stroke-miterlimit="10"/><polygon points="136.5 86.8 143 90.5 136.5 94.3 136.5 86.8" fill="#3c3c41"/><line x1="257.6" y1="90.5" x2="238" y2="90.5" fill="none" stroke="#3c3c41" stroke-miterlimit="10"/><polygon points="256.5 86.8 263 90.5 256.5 94.3 256.5 86.8" fill="#3c3c41"/><path d="M21.5,73.9a.6.6,0,0,0,.2.5l.4.5.6.4.5.2a8.6,8.6,0,0,0,.6,2.3l-1.4-.5a6.7,6.7,0,0,1-1.4-.9,5.2,5.2,0,0,1-1-1.1,2.3,2.3,0,0,1-.4-1.4V56.2a3.2,3.2,0,0,1,.3-1.4,4.7,4.7,0,0,1,1-1,3.8,3.8,0,0,1,1.3-.9l1.5-.6,1.5-.4,1.3-.3a26.2,26.2,0,0,1,7.9,0l1.3.3,1.5.4,1.6.6a5.1,5.1,0,0,1,1.3.9,2.8,2.8,0,0,1,.9,1,2.3,2.3,0,0,1,.4,1.4v9.6a7,7,0,0,0-2-.8V59.1a8.8,8.8,0,0,1-2,.9l-2.3.7-2.4.3H28.2l-2.3-.3L23.6,60a7.2,7.2,0,0,1-2-.9Zm8.9-20.7h-2l-2.3.3-2.2.6a7.7,7.7,0,0,0-1.8,1l-.4.5a.8.8,0,0,0,0,1.1l.4.4a7.7,7.7,0,0,0,1.8,1l2.2.6,2.3.3h4l2.3-.3,2.2-.6,1.8-1c.1-.2.3-.3.4-.4a.8.8,0,0,0,0-1.1l-.4-.5-1.8-1-2.2-.6-2.3-.3ZM43,71a4.9,4.9,0,0,1,1.7.6,4.1,4.1,0,0,1,1.3,1,3.8,3.8,0,0,1,.9,1.5,4.7,4.7,0,0,1,.3,1.7,4.1,4.1,0,0,1-.4,1.9,4.4,4.4,0,0,1-1,1.6,5.4,5.4,0,0,1-1.6,1,4.3,4.3,0,0,1-1.9.4H31.4A5.9,5.9,0,0,1,27.2,79a5,5,0,0,1-1.3-1.9,6.1,6.1,0,0,1,0-4.6,5.7,5.7,0,0,1,3.2-3.1,5.9,5.9,0,0,1,2.3-.4l1.4.2a5.3,5.3,0,0,1,2-1.6,6.4,6.4,0,0,1,4.3-.3A5.6,5.6,0,0,1,42,69.4,3.9,3.9,0,0,1,43,71Zm-.7,7.8,1.2-.2.9-.6a3,3,0,0,0,.1-4.2h-.1a1.8,1.8,0,0,0-.9-.6,2.7,2.7,0,0,0-1.2-.3h-1a3.7,3.7,0,0,0-.3-1.5,5.7,5.7,0,0,0-.8-1.3,3.5,3.5,0,0,0-1.3-.8,2.2,2.2,0,0,0-1.6-.3,2.5,2.5,0,0,0-1.2.1,3.3,3.3,0,0,0-1,.6,3.6,3.6,0,0,0-1.5,1.9,3.8,3.8,0,0,0-5,.5,2.7,2.7,0,0,0-.9,1.2,4.2,4.2,0,0,0,0,3.1,4.2,4.2,0,0,0,3.7,2.4Z"/><rect x="625.4" y="24" width="30.5" height="16.45" fill="#fff"/><path d="M657.2,20.3a.6.6,0,0,0-.5-.6H624.8a.6.6,0,0,0-.6.6h0V40.2a.6.6,0,0,0,.6.6h31.9a.6.6,0,0,0,.5-.6Zm-28.5,3.1h-1.6V21.8h1.6Zm3.3,0h-1.6V21.8H632Zm3.3,0h-1.6V21.8h1.6Zm-9.9,1.3H656V39.5H625.4Z"/><path d="M146.3,64.3l-.6-1.4,1.5-.7a3.7,3.7,0,0,1,0-2.1l-1.5-.6.6-1.5,1.5.6a5.4,5.4,0,0,1,1.5-1.5l-.6-1.5,1.4-.6.7,1.5h2.1l.6-1.5,1.5.6-.6,1.5a5.4,5.4,0,0,1,1.5,1.5l1.5-.6.6,1.5-1.5.6a7.4,7.4,0,0,1,0,2.1l1.5.7-.6,1.4-1.5-.6a5.4,5.4,0,0,1-1.5,1.5l.6,1.5-1.5.6-.6-1.5h-2.1l-.7,1.5-1.4-.6.6-1.5a8,8,0,0,1-1.5-1.5Zm6.8-.2,1-.7a2.1,2.1,0,0,0,.6-1,2.7,2.7,0,0,0,.3-1.2,2.4,2.4,0,0,0-.3-1.2,1.7,1.7,0,0,0-.6-1,3,3,0,0,0-1-.7,2.8,2.8,0,0,0-1.3-.3,2.7,2.7,0,0,0-1.2.3,2.3,2.3,0,0,0-1,.7,2.6,2.6,0,0,0-.7,1,2.3,2.3,0,0,0-.2,1.2,2.5,2.5,0,0,0,.2,1.2,3.6,3.6,0,0,0,.7,1l1,.7a2.7,2.7,0,0,0,1.2.3,2.8,2.8,0,0,0,1.3-.3Zm-18.6,4.4-1.7-.7.6-1.4,1.7.7a6.4,6.4,0,0,1,2-2l-.7-1.7,1.4-.6.7,1.7h2.8l.7-1.7,1.5.6-.7,1.7a6.1,6.1,0,0,1,1.9,2l1.7-.7.6,1.4-1.7.7a5,5,0,0,1,0,2.8l1.7.7-.6,1.5-1.7-.7a5.2,5.2,0,0,1-2,1.9l.8,1.7L142,77l-.7-1.7-1.4.2-1.4-.2-.6,1.7-1.5-.6.7-1.7a7.3,7.3,0,0,1-2-1.9l-1.7.7-.6-1.5,1.7-.7a6.1,6.1,0,0,1-.1-1.4A7.1,7.1,0,0,1,134.5,68.5Zm7,5a5,5,0,0,0,1.2-.8,3.8,3.8,0,0,0,.9-1.3,4,4,0,0,0,.3-1.5,4.1,4.1,0,0,0-.3-1.6,5.3,5.3,0,0,0-2.1-2.1,4.1,4.1,0,0,0-1.6-.3,4,4,0,0,0-1.5.3,3.8,3.8,0,0,0-1.3.9,5,5,0,0,0-.8,1.2,3.2,3.2,0,0,0,0,3.1,5.7,5.7,0,0,0,.8,1.3,5.7,5.7,0,0,0,1.3.8,4,4,0,0,0,1.5.3,3,3,0,0,0,1.6-.2Z" fill="#0078d7"/><path d="M273,55H262V77h11Z" fill="#50e6ff"/><path d="M262,60.8h-5.2V71.2H262Z" fill="#0078d4"/><path d="M267.2,60.8H262V71.2h5.2Z" fill="#0078d4"/><path d="M255.6,72.4H251V77h4.6Z" fill="#0078d4"/><path d="M504.3,144.9a.6.6,0,0,1-.6-.6h0c0-.2,0-.4.2-.5l.4-.2.5.2a.8.8,0,0,1,.2.5.7.7,0,0,1-.7.6Z" fill="#1e1e1e"/><path d="M510.2,144.9a.6.6,0,0,1-.5-.2l-.2-.4a.8.8,0,0,1,.2-.5c.3-.2.7-.3.9,0h.1a.6.6,0,0,1,0,.9A.6.6,0,0,1,510.2,144.9Z" fill="#1e1e1e"/><path d="M516.1,144.9c-.2,0-.4,0-.5-.2l-.2-.4a.8.8,0,0,1,.2-.5l.5-.2a.8.8,0,0,1,.7.7.5.5,0,0,1-.3.4C516.4,144.9,516.3,144.9,516.1,144.9Z" fill="#1e1e1e"/><path d="M21.4,34.7V32.9a6.7,6.7,0,0,0,1.2.6l1.2.2h.6l.4-.2.3-.3a.4.4,0,0,0,.1-.3.7.7,0,0,0-.1-.5l-.4-.3-.6-.4-.7-.3a2.8,2.8,0,0,1-1.5-1,2.4,2.4,0,0,1-.5-1.4,1.8,1.8,0,0,1,.3-1.1,1.4,1.4,0,0,1,.7-.8l1.1-.5h2.4l.9.2v1.8l-.4-.3-.5-.2H24.2l-.4.2-.3.3a.4.4,0,0,0-.1.3c0,.2,0,.3.1.4l.3.3.5.3.7.3.9.5a1.8,1.8,0,0,1,.7.5l.5.7a2.2,2.2,0,0,1,.1.9,2.1,2.1,0,0,1-.3,1.2,1.8,1.8,0,0,1-.7.8l-1.1.4H22.5Z"/><path d="M33.8,32.6H29.9c.1.9.6,1.3,1.7,1.3a3.4,3.4,0,0,0,1.7-.5v1.4a4.8,4.8,0,0,1-2.2.4,3.1,3.1,0,0,1-2.2-.8,2.8,2.8,0,0,1-.8-2.3,2.8,2.8,0,0,1,.8-2.3,2.9,2.9,0,0,1,2.2-.9,2.4,2.4,0,0,1,2,.8,2.8,2.8,0,0,1,.7,2.1Zm-1.7-1.2c0-.8-.3-1.3-1-1.3a1.2,1.2,0,0,0-.8.4,1.8,1.8,0,0,0-.4.9Z"/><path d="M40.7,35.1H38.8v-1h0a2.1,2.1,0,0,1-1.9,1.1c-1.4,0-2.1-.8-2.1-2.5V29h1.9v3.5c0,.9.3,1.3,1,1.3a.9.9,0,0,0,.8-.4,1.2,1.2,0,0,0,.3-.9V29h1.9Z"/><path d="M41.8,34.9V33.4l1,.4h1.6c.2-.1.3-.2.3-.4s-.1-.2-.1-.3l-.4-.2-.4-.2h-.5l-.6-.3a1,1,0,0,1-.5-.4l-.3-.5a3.5,3.5,0,0,1-.1-.6,1.6,1.6,0,0,1,.3-.9,1.7,1.7,0,0,1,.6-.6l.8-.3h1.8l.8.2v1.5a1.1,1.1,0,0,0-.7-.3H43.7v.3c0,.1,0,.2.1.2a.2.2,0,0,0,.2.2l.4.2h.4l.7.3a2.9,2.9,0,0,1,.9.9c0,.1.1.4.1.6a1.2,1.2,0,0,1-.3.9,1.3,1.3,0,0,1-.6.7l-.9.3h-1A5.8,5.8,0,0,1,41.8,34.9Z"/><path d="M56.8,35.1H54.9v-.9h0a2.1,2.1,0,0,1-1.9,1,2.5,2.5,0,0,1-1.8-.8,3.1,3.1,0,0,1-.7-2.2,3.6,3.6,0,0,1,.8-2.4,2.4,2.4,0,0,1,2-.9,1.8,1.8,0,0,1,1.6.8h0V26.1h1.9Zm-1.8-3v-.4a1.8,1.8,0,0,0-.4-1,1,1,0,0,0-.9-.4,1.1,1.1,0,0,0-.9.5,1.8,1.8,0,0,0-.4,1.3,2.3,2.3,0,0,0,.3,1.3,1.8,1.8,0,0,0,1,.4,1.1,1.1,0,0,0,.9-.5A2.1,2.1,0,0,0,55,32.1Z"/><path d="M63.4,35.1H61.6v-.9h0a1.9,1.9,0,0,1-1.8,1,2,2,0,0,1-1.4-.5,1.9,1.9,0,0,1-.5-1.3c0-1.2.7-1.9,2.1-2l1.6-.3c0-.6-.3-.9-1.1-.9a3.6,3.6,0,0,0-2,.6V29.4l1.1-.4h1.2a2.3,2.3,0,0,1,2.6,2.6Zm-1.8-2.5v-.4H60.5q-.9.2-.9.9a.8.8,0,0,0,.2.5l.6.2a1,1,0,0,0,.9-.4A1.2,1.2,0,0,0,61.6,32.6Z"/><path d="M70.7,35.1H68.9v-.9h0a2.2,2.2,0,0,1-1.9,1,2.2,2.2,0,0,1-1.8-.8,3.1,3.1,0,0,1-.7-2.2,3.6,3.6,0,0,1,.7-2.4,2.5,2.5,0,0,1,2-.9,1.9,1.9,0,0,1,1.7.8h0V26.1h1.8Zm-1.8-3v-.4a1.7,1.7,0,0,0-.3-1,1.1,1.1,0,0,0-.9-.4,1.4,1.4,0,0,0-1,.5,2.5,2.5,0,0,0-.3,1.3,2.3,2.3,0,0,0,.3,1.3,1.3,1.3,0,0,0,.9.4,1.4,1.4,0,0,0,1-.5A2.1,2.1,0,0,0,68.9,32.1Z"/><path d="M75.2,35.2a3.6,3.6,0,0,1-2.4-.8,3.1,3.1,0,0,1-.8-2.3,3.6,3.6,0,0,1,.8-2.4,3.9,3.9,0,0,1,2.5-.8,3.2,3.2,0,0,1,2.3.8,3,3,0,0,1,.9,2.3,2.9,2.9,0,0,1-.9,2.3A3.2,3.2,0,0,1,75.2,35.2Zm0-4.9a1.4,1.4,0,0,0-1,.5,2.1,2.1,0,0,0-.4,1.2c0,1.2.5,1.8,1.4,1.8s1.4-.6,1.4-1.8S76.1,30.3,75.2,30.3Z"/><path d="M79.3,34.9V33.4l.9.4h1.7a.5.5,0,0,0,.2-.4.4.4,0,0,0-.1-.3l-.3-.2-.5-.2h-.4l-.7-.3c-.1-.1-.3-.2-.4-.4s-.2-.3-.3-.5-.1-.3-.1-.6a2.9,2.9,0,0,1,.2-.9l.6-.6.8-.3h1.8l.9.2v1.5a1.3,1.3,0,0,0-.8-.3H81.2a.4.4,0,0,0-.1.3c0,.1,0,.2.1.2l.3.2.4.2h.4l.7.3.5.4.3.5c.1.1.1.4.1.6a2,2,0,0,1-.2.9l-.6.7-.9.3H81.1A5.7,5.7,0,0,1,79.3,34.9Z"/><path d="M165.5,32.1V35h-1.9V26.6h3c2.2,0,3.2.8,3.2,2.6a2.6,2.6,0,0,1-.9,2.1,3.6,3.6,0,0,1-2.4.8Zm0-4.1v2.6h.8c1,0,1.5-.4,1.5-1.3s-.5-1.3-1.5-1.3Z"/><path d="M175.9,32.5H172c.1.9.6,1.3,1.7,1.3a3.3,3.3,0,0,0,1.7-.4v1.3a4.8,4.8,0,0,1-2.2.4,2.8,2.8,0,0,1-3-3,3.2,3.2,0,0,1,.8-2.4,2.9,2.9,0,0,1,2.2-.9,2.6,2.6,0,0,1,2.7,2.9Zm-1.7-1.1c0-.9-.3-1.3-1-1.3a1.1,1.1,0,0,0-.8.3,1.8,1.8,0,0,0-.4,1Z"/><path d="M176.6,34.8V33.3a2.6,2.6,0,0,0,1,.4l.8.2a1.5,1.5,0,0,0,.8-.2c.2,0,.3-.2.3-.4s-.1-.2-.1-.3l-.4-.2h-.4l-.5-.2-.6-.3-.5-.3-.3-.5c0-.2-.1-.4-.1-.7a1.1,1.1,0,0,1,.3-.8.9.9,0,0,1,.6-.6,2,2,0,0,1,.8-.4h1.8l.8.2v1.4l-.7-.3h-1.5l-.2.2v.2a.4.4,0,0,0,.1.3c0,.1.1.1.2.2h.4l.4.2.7.3.5.3.4.5c0,.2.1.4.1.7a1.6,1.6,0,0,1-.3.9,1.7,1.7,0,0,1-.6.6,1.9,1.9,0,0,1-.9.3h-1A5.8,5.8,0,0,1,176.6,34.8Z"/><path d="M188.3,37.8h-1.9V34.2h0a2.3,2.3,0,0,1-1.9.9,2.3,2.3,0,0,1-1.8-.7,3.3,3.3,0,0,1-.7-2.3,3.6,3.6,0,0,1,.7-2.4,2.7,2.7,0,0,1,2-.9,1.9,1.9,0,0,1,1.7.9h0V29h1.9Zm-1.9-5.7v-.5a1.7,1.7,0,0,0-.3-1,1.3,1.3,0,0,0-.9-.4,1.4,1.4,0,0,0-1,.5,2.9,2.9,0,0,0-.3,1.4,2.1,2.1,0,0,0,.3,1.2,1.2,1.2,0,0,0,.9.4,1.3,1.3,0,0,0,1-.4A2.1,2.1,0,0,0,186.4,32.1Z"/><path d="M195.6,35h-1.9v-.9h0a2.2,2.2,0,0,1-1.9,1c-1.4,0-2.1-.8-2.1-2.5V29h1.9v3.4c0,.9.3,1.3,1,1.3a1.1,1.1,0,0,0,.8-.3,1.7,1.7,0,0,0,.3-1V29h1.9Z"/><path d="M198.1,28a1,1,0,0,1-.8-.3.9.9,0,0,1-.3-.7.7.7,0,0,1,.3-.6,1,1,0,0,1,.8-.3.9.9,0,0,1,.7.3.7.7,0,0,1,.3.6.8.8,0,0,1-.3.7A.9.9,0,0,1,198.1,28Zm.9,7h-1.9V29H199Z"/><path d="M200.2,34.8V33.3a1.8,1.8,0,0,0,.9.4l.8.2a1.5,1.5,0,0,0,.8-.2c.2,0,.3-.2.3-.4a.4.4,0,0,0-.1-.3l-.4-.2h-.4l-.5-.2-.6-.3-.5-.3-.3-.5v-.7a1.1,1.1,0,0,1,.2-.8.9.9,0,0,1,.6-.6,2,2,0,0,1,.8-.4h1.8l.8.2v1.4l-.7-.3h-1.5c0,.1-.1.1-.2.2v.2a.4.4,0,0,0,.1.3c0,.1.1.1.3.2h.3l.5.2.6.3.5.3.4.5c0,.2.1.4.1.7a2.9,2.9,0,0,1-.2.9l-.7.6a1.9,1.9,0,0,1-.9.3h-1A4.8,4.8,0,0,1,200.2,34.8Z"/><path d="M210.9,35h-1.8v-.9h0a1.9,1.9,0,0,1-1.8,1,1.6,1.6,0,0,1-1.4-.5,1.7,1.7,0,0,1-.5-1.3c0-1.1.7-1.8,2.1-2l1.6-.2c0-.7-.3-1-1-1a3.9,3.9,0,0,0-2.1.6V29.3l1.1-.3,1.2-.2a2.3,2.3,0,0,1,2.6,2.6Zm-1.8-2.5v-.4l-1.1.2c-.6.1-.9.3-.9.8a.8.8,0,0,0,.2.5.7.7,0,0,0,.6.2,1.2,1.2,0,0,0,.9-.3A1.7,1.7,0,0,0,209.1,32.5Z"/><path d="M221.9,34.7a5.5,5.5,0,0,1-2.4.4,4.1,4.1,0,0,1-3.1-1.1,4.4,4.4,0,0,1-1.1-3,4.2,4.2,0,0,1,1.3-3.3,4.1,4.1,0,0,1,3.2-1.3,5.8,5.8,0,0,1,2.1.3v1.9A3.1,3.1,0,0,0,220,28a2.4,2.4,0,0,0-1.9.8,2.8,2.8,0,0,0-.8,2,3.2,3.2,0,0,0,.7,2,2.5,2.5,0,0,0,1.9.7,4.6,4.6,0,0,0,2-.5Z"/><path d="M226.1,35.1a3.2,3.2,0,0,1-2.4-.8,3,3,0,0,1-.9-2.3,2.9,2.9,0,0,1,.9-2.3,3.3,3.3,0,0,1,2.5-.9,2.9,2.9,0,0,1,2.3.9,2.8,2.8,0,0,1,.9,2.2,3.2,3.2,0,0,1-.9,2.4A3.2,3.2,0,0,1,226.1,35.1Zm0-4.9a1.2,1.2,0,0,0-1,.5,2.2,2.2,0,0,0-.4,1.3c0,1.1.5,1.7,1.4,1.7s1.4-.6,1.4-1.8S227,30.2,226.1,30.2Z"/><path d="M236.5,34.3a3.3,3.3,0,0,1-1,2.6,3.9,3.9,0,0,1-2.8.9,5,5,0,0,1-1.9-.3V35.9a3.3,3.3,0,0,0,1.9.6,2,2,0,0,0,1.4-.5,1.7,1.7,0,0,0,.5-1.4v-.5h0a2,2,0,0,1-1.9,1,2.2,2.2,0,0,1-1.8-.8,2.8,2.8,0,0,1-.7-2.1,3.7,3.7,0,0,1,.8-2.5,2.4,2.4,0,0,1,2-.9,1.8,1.8,0,0,1,1.6.9h0V29h1.9Zm-1.8-2.2v-.5a1.8,1.8,0,0,0-.4-1,1.3,1.3,0,0,0-.9-.4,1.1,1.1,0,0,0-.9.5,2.1,2.1,0,0,0-.4,1.4,1.6,1.6,0,0,0,.4,1.2,1.2,1.2,0,0,0,1.8,0A2.1,2.1,0,0,0,234.7,32.1Z"/><path d="M243.9,35H242V31.6c0-.9-.3-1.4-1-1.4a1.2,1.2,0,0,0-.8.4,1.7,1.7,0,0,0-.3,1V35h-1.8V29h1.8v.9h0a2.3,2.3,0,0,1,2-1.1c1.3,0,2,.8,2,2.5Z"/><path d="M246.3,28a1.1,1.1,0,0,1-.8-.3.9.9,0,0,1-.3-.7.7.7,0,0,1,.3-.6,1.2,1.2,0,0,1,1.6,0,.7.7,0,0,1,.3.6.8.8,0,0,1-.3.7A1.1,1.1,0,0,1,246.3,28Zm.9,7h-1.8V29h1.8Z"/><path d="M252.4,34.9c-.2.2-.7.2-1.2.2a1.8,1.8,0,0,1-2-2V30.3h-1V29h1V27.7l1.9-.6V29h1.3v1.3h-1.3v2.5c0,.6.2.9.7.9h.6Z"/><path d="M254.4,28a1.1,1.1,0,0,1-.8-.3.9.9,0,0,1-.3-.7.7.7,0,0,1,.3-.6,1.2,1.2,0,0,1,1.6,0,.7.7,0,0,1,.3.6.8.8,0,0,1-.3.7A1.1,1.1,0,0,1,254.4,28Zm.9,7h-1.8V29h1.8Z"/><path d="M262.7,29l-2.3,6h-2.1l-2.2-6h2l1.1,3.7a5.2,5.2,0,0,1,.2,1.1h0a5.2,5.2,0,0,1,.2-1.1l1.1-3.7Z"/><path d="M268.3,35h-1.8v-.9h0a1.9,1.9,0,0,1-1.8,1,1.7,1.7,0,0,1-1.9-1.8c0-1.1.7-1.8,2.1-2l1.6-.2c0-.7-.3-1-1-1a3.9,3.9,0,0,0-2.1.6V29.3l1.1-.3,1.2-.2a2.3,2.3,0,0,1,2.6,2.6Zm-1.8-2.5v-.4l-1.1.2c-.6.1-.9.3-.9.8a.5.5,0,0,0,.3.5c.1.2.3.2.6.2a1.1,1.1,0,0,0,.8-.3A1.7,1.7,0,0,0,266.5,32.5Z"/><path d="M279,35h-1.9v-.8h0a2.1,2.1,0,0,1-1.9.9,2.2,2.2,0,0,1-1.8-.8,3.4,3.4,0,0,1-.7-2.2,3.6,3.6,0,0,1,.8-2.4,2.5,2.5,0,0,1,2-.9,1.6,1.6,0,0,1,1.6.9h0V26.1H279Zm-1.8-2.9v-.5a1.8,1.8,0,0,0-.4-1,1.3,1.3,0,0,0-.9-.4,1.1,1.1,0,0,0-.9.5,2.1,2.1,0,0,0-.4,1.4,1.6,1.6,0,0,0,.4,1.2,1.2,1.2,0,0,0,1.8,0A2.1,2.1,0,0,0,277.2,32.1Z"/><path d="M283.4,35.1a2.8,2.8,0,0,1-2.3-.8,3,3,0,0,1-.9-2.3,2.9,2.9,0,0,1,.9-2.3,3.7,3.7,0,0,1,4.8,0,3.1,3.1,0,0,1,.8,2.2,3.2,3.2,0,0,1-.9,2.4A2.9,2.9,0,0,1,283.4,35.1Zm.1-4.9a1.1,1.1,0,0,0-1,.5,1.7,1.7,0,0,0-.4,1.3c0,1.1.5,1.7,1.4,1.7s1.3-.6,1.3-1.8S284.4,30.2,283.5,30.2Z"/><path d="M298.9,35h-2.1l-.6-1.9h-3l-.6,1.9h-2.1l3.1-8.4h2.3Zm-3.1-3.3-.9-2.9a1.4,1.4,0,0,1-.2-.7h0c-.1.2-.1.5-.2.7l-.9,2.9Z"/><path d="M304.5,35h-5.4v-.8l3-3.9h-2.7V29h5.1v.9l-2.9,3.7h2.9Z"/><path d="M311.3,35h-1.9v-.9h0a2.2,2.2,0,0,1-1.9,1c-1.4,0-2.1-.8-2.1-2.5V29h1.9v3.4c0,.9.3,1.3,1,1.3a1.1,1.1,0,0,0,.8-.3,1.7,1.7,0,0,0,.3-1V29h1.9Z"/><path d="M316.8,30.6H316a1.3,1.3,0,0,0-1,.4,2.1,2.1,0,0,0-.3,1.2V35h-1.9V29h1.9v1.1h0a1.6,1.6,0,0,1,1.6-1.2h.5Z"/><path d="M323,32.5h-3.9c0,.9.6,1.3,1.6,1.3a3.4,3.4,0,0,0,1.8-.4v1.3a4.8,4.8,0,0,1-2.2.4,3,3,0,0,1-2.3-.8,3.1,3.1,0,0,1-.8-2.2,3.2,3.2,0,0,1,.9-2.4,3,3,0,0,1,4.2-.1,2.8,2.8,0,0,1,.7,2.1Zm-1.7-1.1c0-.9-.4-1.3-1.1-1.3a.9.9,0,0,0-.7.3,1.3,1.3,0,0,0-.4,1Z"/><path d="M507.7,34.7V32.8a3,3,0,0,0,1.1.6,2.7,2.7,0,0,0,1.2.3h.7l.4-.2.3-.3c0-.1.1-.2.1-.3a.5.5,0,0,0-.2-.4.8.8,0,0,0-.4-.4l-.5-.3-.8-.3a3.9,3.9,0,0,1-1.4-1,2,2,0,0,1-.5-1.5,3.6,3.6,0,0,1,.2-1.1,3,3,0,0,1,.8-.8l1-.4,1.3-.2h1.2l.9.2v1.8l-.5-.3h-.5l-.5-.2h-1.5c-.2.1-.2.2-.3.3s-.1.2-.1.4a.4.4,0,0,0,.1.3l.3.4.5.3.7.3.9.4.7.5a2.5,2.5,0,0,1,.4.7,2.9,2.9,0,0,1,.2.9,2.1,2.1,0,0,1-.3,1.2,2.7,2.7,0,0,1-.7.8l-1.1.4h-2.6A3.5,3.5,0,0,1,507.7,34.7Z"/><path d="M520.1,32.5h-3.9c0,.9.6,1.3,1.6,1.3a3.4,3.4,0,0,0,1.8-.4v1.3a4.8,4.8,0,0,1-2.2.4,3,3,0,0,1-2.3-.8,3.1,3.1,0,0,1-.8-2.2,3.2,3.2,0,0,1,.9-2.4,3,3,0,0,1,4.2-.1,2.8,2.8,0,0,1,.7,2.1Zm-1.7-1.1c0-.9-.4-1.3-1.1-1.3a.9.9,0,0,0-.7.3,1.3,1.3,0,0,0-.4,1Z"/><path d="M526.9,35h-1.8v-.9h0a2.2,2.2,0,0,1-1.9,1c-1.4,0-2.1-.8-2.1-2.5V29H523v3.4c0,.9.3,1.3,1,1.3a1.1,1.1,0,0,0,.8-.3,1.7,1.7,0,0,0,.3-1V29h1.8Z"/><path d="M536.9,35h-1.8v-.9h0a1.9,1.9,0,0,1-1.8,1,1.6,1.6,0,0,1-1.4-.5,1.7,1.7,0,0,1-.5-1.3c0-1.1.7-1.8,2.1-2l1.6-.2c0-.7-.3-1-1.1-1a3.6,3.6,0,0,0-2,.6V29.3l1.1-.3,1.2-.2a2.3,2.3,0,0,1,2.6,2.6Zm-1.8-2.5v-.4l-1.1.2c-.6.1-.9.3-.9.8a.8.8,0,0,0,.2.5.7.7,0,0,0,.6.2,1.2,1.2,0,0,0,.9-.3A1.7,1.7,0,0,0,535.1,32.5Z"/><path d="M540.2,34.3h0v3.5h-1.9V29h1.9v.9h0a2.3,2.3,0,0,1,2-1.1,2.5,2.5,0,0,1,1.8.8,3.8,3.8,0,0,1,.6,2.2,3.6,3.6,0,0,1-.7,2.4,2.5,2.5,0,0,1-2,.9A1.9,1.9,0,0,1,540.2,34.3Zm0-2.5v.5a1.5,1.5,0,0,0,.3,1,1,1,0,0,0,.9.4,1.1,1.1,0,0,0,1-.5,2.6,2.6,0,0,0,.3-1.4c0-1-.4-1.6-1.2-1.6a1.4,1.4,0,0,0-1,.5A1.8,1.8,0,0,0,540.2,31.8Z"/><path d="M547.7,35h-1.9V26.1h1.9Z"/><path d="M550.2,28a1.1,1.1,0,0,1-.8-.3.9.9,0,0,1-.3-.7.7.7,0,0,1,.3-.6,1.2,1.2,0,0,1,1.6,0,.7.7,0,0,1,.3.6.8.8,0,0,1-.3.7A1.1,1.1,0,0,1,550.2,28Zm.9,7h-1.9V29h1.9Z"/><path d="M557.2,34.8a4.2,4.2,0,0,1-1.8.3,2.9,2.9,0,0,1-2.2-.8,2.9,2.9,0,0,1-.9-2.2,3.2,3.2,0,0,1,.9-2.4,3.7,3.7,0,0,1,2.5-.9,2.8,2.8,0,0,1,1.5.3v1.6a1.9,1.9,0,0,0-1.3-.5,1.7,1.7,0,0,0-1.2.5,1.9,1.9,0,0,0,0,2.6,1.6,1.6,0,0,0,1.2.4,2,2,0,0,0,1.3-.4Z"/><path d="M563.5,35h-1.8v-.9h0a1.9,1.9,0,0,1-1.8,1,1.7,1.7,0,0,1-1.9-1.8c0-1.1.7-1.8,2.1-2l1.6-.2c0-.7-.3-1-1-1a3.9,3.9,0,0,0-2.1.6V29.3l1.1-.3,1.2-.2a2.3,2.3,0,0,1,2.6,2.6Zm-1.8-2.5v-.4l-1.1.2c-.6.1-.9.3-.9.8a.5.5,0,0,0,.3.5c.1.2.3.2.6.2a1.1,1.1,0,0,0,.8-.3A1.7,1.7,0,0,0,561.7,32.5Z"/><path d="M568.6,34.9a2.2,2.2,0,0,1-1.2.2,1.8,1.8,0,0,1-2-2V30.3h-1V29h1V27.7l1.9-.6V29h1.3v1.3h-1.3v2.5c0,.6.2.9.7.9h.6Z"/><path d="M570.6,28a1.1,1.1,0,0,1-.8-.3.9.9,0,0,1-.3-.7.7.7,0,0,1,.3-.6,1.2,1.2,0,0,1,1.6,0,.7.7,0,0,1,.3.6.8.8,0,0,1-.3.7A1.1,1.1,0,0,1,570.6,28Zm.9,7h-1.8V29h1.8Z"/><path d="M578.8,29l-2.2,6h-2.1l-2.2-6h2l1.1,3.7a5.2,5.2,0,0,1,.2,1.1h0a5.2,5.2,0,0,1,.2-1.1l1.1-3.7Z"/><path d="M582.4,35.1a3.2,3.2,0,0,1-2.4-.8,3,3,0,0,1-.9-2.3,2.9,2.9,0,0,1,.9-2.3,3.3,3.3,0,0,1,2.5-.9,2.9,2.9,0,0,1,2.3.9,2.8,2.8,0,0,1,.9,2.2,3.2,3.2,0,0,1-.9,2.4A3.2,3.2,0,0,1,582.4,35.1Zm0-4.9a1.2,1.2,0,0,0-1,.5A2.2,2.2,0,0,0,581,32c0,1.1.5,1.7,1.4,1.7s1.4-.6,1.4-1.8S583.3,30.2,582.4,30.2Z"/><path d="M163.7,81.3h-1.9V72.8h1.9Z"/><path d="M171.2,81.3h-1.9V77.9c0-.9-.3-1.4-1-1.4a1,1,0,0,0-.7.4,1.8,1.8,0,0,0-.4.9v3.5h-1.8V75.2h1.8v1h.1a2.1,2.1,0,0,1,1.9-1.1c1.3,0,2,.8,2,2.5Z"/><path d="M178.5,81.3h-1.8v-.8h0a2.4,2.4,0,0,1-1.9,1,2.2,2.2,0,0,1-1.8-.8,3.3,3.3,0,0,1-.7-2.3,3.6,3.6,0,0,1,.8-2.4,2.3,2.3,0,0,1,1.9-.9,1.9,1.9,0,0,1,1.7.8h0V72.3h1.8Zm-1.8-2.9v-.5a1.7,1.7,0,0,0-.3-1,1.5,1.5,0,0,0-.9-.4,1.4,1.4,0,0,0-1,.5,2.6,2.6,0,0,0-.3,1.4,2.1,2.1,0,0,0,.3,1.2,1,1,0,0,0,.9.4,1.3,1.3,0,0,0,1-.4A2.1,2.1,0,0,0,176.7,78.4Z"/><path d="M185.5,78.8h-3.9c0,.9.6,1.3,1.6,1.3a3.4,3.4,0,0,0,1.8-.4V81a4.8,4.8,0,0,1-2.2.5,3,3,0,0,1-2.3-.9,3.1,3.1,0,0,1-.8-2.2,3.2,3.2,0,0,1,.9-2.4,3,3,0,0,1,4.2-.1,3.3,3.3,0,0,1,.7,2.1Zm-1.7-1.1c0-.9-.4-1.3-1.1-1.3a.9.9,0,0,0-.7.3,1.3,1.3,0,0,0-.4,1Z"/><path d="M192.4,75.2l-2,3,2,3.1h-2.2l-.8-1.6a3.3,3.3,0,0,1-.3-.6h0c-.1.2-.1.4-.2.6l-.9,1.6h-2.1l2-3L186,75.2h2.1l.9,1.7.2.6h0l.3-.6.9-1.7Z"/><path d="M198.2,81.3h-1.7v-.9h-.1a2,2,0,0,1-1.7,1.1,2,2,0,0,1-1.4-.5,1.7,1.7,0,0,1-.5-1.4c0-1.2.7-1.8,2-2l1.7-.2c0-.7-.4-1-1.1-1a3.6,3.6,0,0,0-2,.6V75.6l1-.3a3,3,0,0,1,1.2-.2,2.3,2.3,0,0,1,2.6,2.6Zm-1.7-2.5v-.4l-1.1.2c-.6.1-.9.3-.9.8a.8.8,0,0,0,.2.5c.1.2.3.2.6.2a1.1,1.1,0,0,0,.8-.3A1.3,1.3,0,0,0,196.5,78.8Z"/><path d="M204.2,81.1a4,4,0,0,1-1.8.4,2.8,2.8,0,0,1-2.2-.9,2.9,2.9,0,0,1-.9-2.2,3.2,3.2,0,0,1,.9-2.4,3.7,3.7,0,0,1,2.5-.9,2.8,2.8,0,0,1,1.5.3V77a2.1,2.1,0,0,0-1.3-.5,1.7,1.7,0,0,0-1.2.5,1.7,1.7,0,0,0-.5,1.3,1.9,1.9,0,0,0,.5,1.3,1.5,1.5,0,0,0,1.2.4,2.2,2.2,0,0,0,1.3-.4ZM201.4,84v-.8h.4c.5,0,.7-.1.7-.4s-.2-.4-.6-.4h-.2V81.3h1v.5a1,1,0,0,1,1.1,1c0,.8-.6,1.2-1.9,1.2Z"/><path d="M210.4,81.3h-1.7v-.9h0a2.1,2.1,0,0,1-3.2.6,2.2,2.2,0,0,1-.5-1.4c0-1.2.7-1.8,2.1-2l1.6-.2c0-.7-.4-1-1.1-1a3.6,3.6,0,0,0-2,.6V75.6l1-.3a3.2,3.2,0,0,1,1.3-.2c1.7,0,2.5.9,2.5,2.6Zm-.4-8.9a2.3,2.3,0,0,1-.3,1.3,1.4,1.4,0,0,1-.9.5,1.7,1.7,0,0,1-1-.3l-.7-.3c-.4,0-.5.3-.5.7h-.8a2.3,2.3,0,0,1,.3-1.3,1,1,0,0,1,.9-.4,2,2,0,0,1,1,.2l.7.3c.3,0,.4-.2.4-.7Zm-1.3,6.4v-.4l-1.1.2c-.6.1-.9.3-.9.8a.8.8,0,0,0,.2.5.7.7,0,0,0,.6.2,1.2,1.2,0,0,0,.9-.3A1.7,1.7,0,0,0,208.7,78.8Z"/><path d="M214.8,81.5a3.2,3.2,0,0,1-2.4-.9,3,3,0,0,1-.9-2.3,3.2,3.2,0,0,1,.9-2.4,4,4,0,0,1,4.8,0,3.1,3.1,0,0,1,.8,2.3,3.2,3.2,0,0,1-.8,2.4A3.2,3.2,0,0,1,214.8,81.5Zm0-5a1.2,1.2,0,0,0-1,.5,2.2,2.2,0,0,0-.4,1.3c0,1.1.5,1.7,1.4,1.7s1.4-.6,1.4-1.8S215.7,76.5,214.8,76.5Z"/><path d="M165,50.2h-1V44.5a9.7,9.7,0,0,1,.1-1.6h0l-.3.8-2.9,6.5h-.5l-2.9-6.5a3.1,3.1,0,0,0-.2-.8h0v7.3h-.9V41.7h1.3l2.6,5.9.4,1h0c.2-.4.3-.8.4-1l2.6-5.9H165Z"/><path d="M171.9,47.4h-4.2a2.5,2.5,0,0,0,.5,1.6,2,2,0,0,0,1.4.5,2.8,2.8,0,0,0,1.9-.7v.9a3.3,3.3,0,0,1-2.1.6,2.6,2.6,0,0,1-2-.8,3.3,3.3,0,0,1-.7-2.3,3,3,0,0,1,.8-2.3,2.3,2.3,0,0,1,1.9-.9,2.6,2.6,0,0,1,1.9.8,3.3,3.3,0,0,1,.6,2.1Zm-1-.8a1.7,1.7,0,0,0-.4-1.3,1.3,1.3,0,0,0-1.1-.5,1.9,1.9,0,0,0-1.7,1.8Z"/><path d="M177.5,49.9a3.1,3.1,0,0,1-1.7.4,2.8,2.8,0,0,1-2-.8,2.9,2.9,0,0,1-.8-2.2,3.6,3.6,0,0,1,.8-2.4,3,3,0,0,1,2.3-.9,3.2,3.2,0,0,1,1.4.3v1a2.4,2.4,0,0,0-1.4-.5,1.9,1.9,0,0,0-1.6.7,2.9,2.9,0,0,0-.5,1.7,2.3,2.3,0,0,0,.5,1.7,2,2,0,0,0,1.5.6,3,3,0,0,0,1.5-.5Z"/><path d="M183.3,50.2h-1v-1h0a2,2,0,0,1-1.9,1.1,1.7,1.7,0,0,1-1.4-.5,1.7,1.7,0,0,1-.5-1.2c0-1.2.7-1.8,2-2l1.8-.3q0-1.5-1.2-1.5a3,3,0,0,0-2,.8v-1a3.6,3.6,0,0,1,2-.6,1.9,1.9,0,0,1,2.2,2.2Zm-1-3.1-1.5.2-1,.4c-.2.1-.3.4-.3.8a.9.9,0,0,0,.3.7,1.1,1.1,0,0,0,.8.3,1.7,1.7,0,0,0,1.2-.5,1.9,1.9,0,0,0,.5-1.3Z"/><path d="M190.1,50.2h-1V46.7c0-1.3-.4-1.9-1.4-1.9a1.4,1.4,0,0,0-1.2.6,1.8,1.8,0,0,0-.4,1.3v3.5h-1V44.1h1v1h0a2.2,2.2,0,0,1,2-1.1,2,2,0,0,1,1.5.6,3.6,3.6,0,0,1,.5,1.9Z"/><path d="M192.4,42.6a.5.5,0,0,1-.4-.2c-.2-.1-.2-.2-.2-.4s0-.4.2-.5h.9a.7.7,0,0,1,.1.5c0,.2,0,.3-.1.4Zm.5,7.6h-1V44.1h1Z"/><path d="M194.5,50V48.9a2.7,2.7,0,0,0,1.7.6c.9,0,1.3-.3,1.3-.8s-.1-.3-.1-.5l-.3-.3-.5-.2-.5-.2-.7-.3-.5-.4-.3-.5c-.1-.1-.1-.3-.1-.6a1.9,1.9,0,0,1,.2-.7l.5-.6.7-.3h.9a3.2,3.2,0,0,1,1.4.3v.9a3.7,3.7,0,0,0-1.5-.4h-.9l-.2.3c-.1.1-.1.2-.1.4a.8.8,0,0,0,.1.4.2.2,0,0,0,.2.2l.4.3.5.2.8.3a1,1,0,0,1,.5.4.8.8,0,0,1,.4.4c0,.2.1.4.1.7a1.4,1.4,0,0,1-.2.7l-.5.6-.8.3h-.9A3.8,3.8,0,0,1,194.5,50Z"/><path d="M208.5,50.2h-.9V46.7a2.4,2.4,0,0,0-.3-1.4,1.4,1.4,0,0,0-1.1-.5,1.1,1.1,0,0,0-1,.6,2.1,2.1,0,0,0-.5,1.3v3.5h-.9V46.6c0-1.2-.5-1.8-1.4-1.8a1.6,1.6,0,0,0-1.1.5,3.3,3.3,0,0,0-.4,1.4v3.5H200V44.1h.9v1h.1a2,2,0,0,1,1.8-1.1,2,2,0,0,1,1.1.3,2.4,2.4,0,0,1,.6.9,2.2,2.2,0,0,1,2-1.2c1.4,0,2,.8,2,2.5Z"/><path d="M212.9,50.3a3.3,3.3,0,0,1-2.2-.8,3.4,3.4,0,0,1-.8-2.3,2.9,2.9,0,0,1,.9-2.3A2.8,2.8,0,0,1,213,44a2.9,2.9,0,0,1,2.1.8,3.4,3.4,0,0,1,.8,2.3,3.2,3.2,0,0,1-.8,2.3A2.9,2.9,0,0,1,212.9,50.3Zm0-5.5a1.7,1.7,0,0,0-1.4.6,2.6,2.6,0,0,0-.6,1.8,2.4,2.4,0,0,0,.6,1.7,1.7,1.7,0,0,0,1.4.6,1.8,1.8,0,0,0,1.5-.6,2.9,2.9,0,0,0,.5-1.7,3,3,0,0,0-.5-1.8A1.8,1.8,0,0,0,212.9,44.8Z"/><path d="M217.1,50V48.9a2.7,2.7,0,0,0,1.7.6c.8,0,1.3-.3,1.3-.8s-.1-.3-.1-.5l-.3-.3-.5-.2-.5-.2-.7-.3-.5-.4a.5.5,0,0,1-.3-.5c-.1-.1-.1-.3-.1-.6a1,1,0,0,1,.2-.7l.5-.6.7-.3h.9a3.2,3.2,0,0,1,1.4.3v.9a4.2,4.2,0,0,0-1.5-.4h-.9l-.3.3v.8l.3.2.4.3.5.2.8.3.5.4c.1.1.3.2.3.4a1.3,1.3,0,0,1,0,1.4l-.6.6-.7.3h-.9A3.8,3.8,0,0,1,217.1,50Z"/><path d="M231,50.2h-1V49.1h0a2.1,2.1,0,0,1-2.1,1.2,2.5,2.5,0,0,1-1.8-.8,3.6,3.6,0,0,1-.7-2.2,3.6,3.6,0,0,1,.8-2.4,2.5,2.5,0,0,1,2-.9,1.9,1.9,0,0,1,1.8,1h0V41.2h1Zm-1-2.8v-.8a1.7,1.7,0,0,0-1.7-1.8,1.6,1.6,0,0,0-1.4.7,3.1,3.1,0,0,0,0,3.4,1.6,1.6,0,0,0,1.3.6,1.5,1.5,0,0,0,1.3-.6A2,2,0,0,0,230,47.4Z"/><path d="M237.8,47.4h-4.3a2.6,2.6,0,0,0,.6,1.6,2,2,0,0,0,1.4.5,2.8,2.8,0,0,0,1.9-.7v.9a3.3,3.3,0,0,1-2.1.6,2.6,2.6,0,0,1-2-.8,3.7,3.7,0,0,1,0-4.6,2.7,2.7,0,0,1,2-.9,2.6,2.6,0,0,1,1.9.8,3.3,3.3,0,0,1,.6,2.1Zm-1-.8a1.7,1.7,0,0,0-.4-1.3,1.4,1.4,0,0,0-1.1-.5,1.8,1.8,0,0,0-1.2.5,1.9,1.9,0,0,0-.5,1.3Z"/><path d="M244.4,41.1,242.9,43h-.8l1.3-1.9Zm-.9,9.1h-.9V44.1h.9Z"/><path d="M250.5,50.2h-1V46.7c0-1.3-.4-1.9-1.4-1.9a1.4,1.4,0,0,0-1.2.6,1.8,1.8,0,0,0-.4,1.3v3.5h-1V44.1h1v1h0a2.2,2.2,0,0,1,2-1.1,2,2,0,0,1,1.5.6,3.6,3.6,0,0,1,.5,1.9Z"/><path d="M257.5,50.2h-1V49.1h0a2.4,2.4,0,0,1-2.1,1.2,2.2,2.2,0,0,1-1.8-.8,3.1,3.1,0,0,1-.7-2.2,3.6,3.6,0,0,1,.8-2.4,2.4,2.4,0,0,1,2-.9,1.9,1.9,0,0,1,1.8,1h0V41.2h1Zm-1-2.8v-.8a2.1,2.1,0,0,0-.5-1.3,1.7,1.7,0,0,0-1.2-.5,1.5,1.5,0,0,0-1.4.7,3.1,3.1,0,0,0,0,3.4,1.5,1.5,0,0,0,1.3.6,1.6,1.6,0,0,0,1.3-.6A2.5,2.5,0,0,0,256.5,47.4Z"/><path d="M259.9,42.6a.7.7,0,0,1-.6-.6.8.8,0,0,1,.2-.5h.9a.8.8,0,0,1,.2.5.5.5,0,0,1-.2.4Zm.5,7.6h-1V44.1h1Z"/><path d="M266.5,49.9a3.3,3.3,0,0,1-1.7.4,3.2,3.2,0,0,1-2.1-.8,3.3,3.3,0,0,1-.8-2.2,3.2,3.2,0,0,1,.9-2.4,3,3,0,0,1,2.3-.9,3.2,3.2,0,0,1,1.4.3v1a3,3,0,0,0-1.5-.5,1.8,1.8,0,0,0-1.5.7,2.7,2.7,0,0,0,0,3.4,2,2,0,0,0,1.5.6,3,3,0,0,0,1.5-.5Z"/><path d="M272.8,47.4h-4.3a2.1,2.1,0,0,0,.6,1.6,2,2,0,0,0,1.4.5,2.8,2.8,0,0,0,1.9-.7v.9a3.8,3.8,0,0,1-2.2.6,2.8,2.8,0,0,1-2-.8,3.9,3.9,0,0,1-.7-2.3,3.4,3.4,0,0,1,.8-2.3,2.5,2.5,0,0,1,2-.9,2.2,2.2,0,0,1,1.8.8,2.8,2.8,0,0,1,.7,2.1Zm-1-.8a2.2,2.2,0,0,0-.4-1.3,1.6,1.6,0,0,0-1.1-.5,1.7,1.7,0,0,0-1.2.5,2.6,2.6,0,0,0-.6,1.3Z"/><path d="M282.4,47.4h-4.3a2.1,2.1,0,0,0,.6,1.6,2,2,0,0,0,1.4.5,2.8,2.8,0,0,0,1.9-.7v.9a3.7,3.7,0,0,1-2.1.6,2.5,2.5,0,0,1-2-.8,3.7,3.7,0,0,1,0-4.6,2.7,2.7,0,0,1,2-.9,2.2,2.2,0,0,1,1.8.8,2.8,2.8,0,0,1,.7,2.1Zm-1-.8a1.7,1.7,0,0,0-.4-1.3,1.4,1.4,0,0,0-1.1-.5,1.7,1.7,0,0,0-1.2.5,2.6,2.6,0,0,0-.6,1.3Z"/><path d="M291.3,49.9a3.1,3.1,0,0,1-1.7.4,3.2,3.2,0,0,1-2.1-.8,3.3,3.3,0,0,1-.8-2.2,3.2,3.2,0,0,1,.9-2.4,3,3,0,0,1,2.3-.9,3.2,3.2,0,0,1,1.4.3v1a2.7,2.7,0,0,0-1.5-.5,1.8,1.8,0,0,0-1.5.7,2.7,2.7,0,0,0,0,3.4,2,2,0,0,0,1.5.6,3,3,0,0,0,1.5-.5Z"/><path d="M295.2,50.3a3,3,0,0,1-2.1-.8,3.4,3.4,0,0,1-.8-2.3,3.2,3.2,0,0,1,.8-2.3,3,3,0,0,1,2.3-.9,2.9,2.9,0,0,1,2.1.8,3.4,3.4,0,0,1,.8,2.3,2.9,2.9,0,0,1-.9,2.3A2.7,2.7,0,0,1,295.2,50.3Zm.1-5.5a2,2,0,0,0-1.5.6,3.2,3.2,0,0,0-.5,1.8,2.4,2.4,0,0,0,.6,1.7,1.7,1.7,0,0,0,1.4.6,2,2,0,0,0,1.5-.6,2.9,2.9,0,0,0,.5-1.7,3,3,0,0,0-.5-1.8A2,2,0,0,0,295.3,44.8Z"/><path d="M304.8,50.2h-1V46.7c0-1.3-.4-1.9-1.4-1.9a1.7,1.7,0,0,0-1.2.6,1.8,1.8,0,0,0-.4,1.3v3.5h-1V44.1h1v1h0a2.2,2.2,0,0,1,2-1.1,2,2,0,0,1,1.5.6,3.6,3.6,0,0,1,.5,1.9Z"/><path d="M306.3,50V48.9a2.7,2.7,0,0,0,1.7.6c.8,0,1.3-.3,1.3-.8s-.1-.3-.1-.5l-.3-.3-.5-.2-.5-.2-.7-.3-.5-.4a.5.5,0,0,1-.3-.5c-.1-.1-.1-.3-.1-.6a1,1,0,0,1,.2-.7l.5-.6.7-.3h.9a3.2,3.2,0,0,1,1.4.3v.9a4.2,4.2,0,0,0-1.5-.4h-.9l-.3.3v.8l.3.2.4.3.5.2.8.3.5.4c.1.1.3.2.3.4a1.3,1.3,0,0,1,0,1.4,1.7,1.7,0,0,1-.6.6l-.7.3h-.9A3.8,3.8,0,0,1,306.3,50Z"/><path d="M316.6,50.2h-.9v-1h-.1a2,2,0,0,1-1.8,1.1c-1.5,0-2.2-.8-2.2-2.6V44.1h1v3.5c0,1.3.5,1.9,1.4,1.9a1.7,1.7,0,0,0,1.2-.5,2.2,2.2,0,0,0,.5-1.4V44.1h.9Z"/><path d="M319.5,50.2h-.9v-9h.9Z"/><path d="M324.3,50.1l-.9.2c-1.1,0-1.6-.6-1.6-1.8V45h-1v-.9h1V42.7l1-.3v1.7h1.5V45h-1.5v3.4c0,.4,0,.7.2.8s.3.3.7.3l.6-.2Z"/><path d="M329.9,50.2h-1v-1h0a1.8,1.8,0,0,1-1.8,1.1,2,2,0,0,1-1.5-.5,1.7,1.7,0,0,1-.5-1.2c0-1.2.7-1.8,2-2l1.8-.3q0-1.5-1.2-1.5a3.2,3.2,0,0,0-2,.8v-1a3.7,3.7,0,0,1,2.1-.6c1.4,0,2.1.7,2.1,2.2Zm-1-3.1-1.4.2a1.9,1.9,0,0,0-1,.4c-.3.1-.4.4-.4.8a.9.9,0,0,0,.3.7,1.4,1.4,0,0,0,.9.3,1.7,1.7,0,0,0,1.2-.5,1.8,1.8,0,0,0,.4-1.3Z"/><path d="M377.6,29.6V27.7l1.2.7,1.2.2h.6l.5-.2.2-.2a.9.9,0,0,0,0-.8c-.1-.1-.2-.3-.4-.4l-.6-.3-.7-.3a3.6,3.6,0,0,1-1.5-1,2.4,2.4,0,0,1-.5-1.4,1.8,1.8,0,0,1,.3-1.1,1.4,1.4,0,0,1,.7-.8l1.1-.5h2.4l1,.2v1.8l-.5-.3-.5-.2h-1.6l-.5.2-.3.3a.4.4,0,0,0-.1.3c0,.2.1.3.1.4l.3.3.6.3.6.3a1.9,1.9,0,0,1,.9.5,2.6,2.6,0,0,1,1.2,1.2,2.2,2.2,0,0,1,.1.9,3.6,3.6,0,0,1-.2,1.1,2,2,0,0,1-.8.8l-1,.4-1.3.2-1.4-.2A3.5,3.5,0,0,1,377.6,29.6Z"/><path d="M387.6,30.1a3,3,0,0,1-2.4-.9,2.9,2.9,0,0,1-.9-2.3,3.2,3.2,0,0,1,.9-2.3,4,4,0,0,1,4.8,0,2.9,2.9,0,0,1,.9,2.2,3.1,3.1,0,0,1-3.3,3.3Zm0-4.9a1.2,1.2,0,0,0-1,.4,1.8,1.8,0,0,0-.4,1.3c0,1.2.5,1.7,1.4,1.7s1.4-.5,1.4-1.7S388.5,25.2,387.6,25.2Z"/><path d="M394,29.9h-1.9V21.1H394Z"/><path d="M396.5,23a1.1,1.1,0,0,1-.8-.3,1,1,0,0,1,0-1.4l.8-.2.8.2a1,1,0,0,1,0,1.4A1.1,1.1,0,0,1,396.5,23Zm.9,6.9h-1.9v-6h1.9Z"/><path d="M403.6,29.7a4,4,0,0,1-1.8.4,3,3,0,0,1-2.3-.9,2.7,2.7,0,0,1-.9-2.1,3.1,3.1,0,0,1,1-2.4,3.3,3.3,0,0,1,2.5-.9,2.8,2.8,0,0,1,1.5.3v1.5a2,2,0,0,0-1.3-.4,1.9,1.9,0,0,0-1.3.5,1.7,1.7,0,0,0-.5,1.2,1.7,1.7,0,0,0,.5,1.3,1.6,1.6,0,0,0,1.2.4,2.3,2.3,0,0,0,1.4-.4Z"/><path d="M405.8,23a1.1,1.1,0,0,1-.8-.3,1,1,0,0,1,0-1.4l.8-.2.8.2a1,1,0,0,1,0,1.4A1.1,1.1,0,0,1,405.8,23Zm.9,6.9h-1.9v-6h1.9Z"/><path d="M412,29.8a2.3,2.3,0,0,1-1.3.3,1.8,1.8,0,0,1-2-2.1V25.3h-1V23.9h1V22.6l1.9-.5v1.8H412v1.4h-1.4v2.4c0,.6.3.9.8.9h.6Z"/><path d="M418.1,29.9h-1.8v-.8h0a2.1,2.1,0,0,1-1.8,1,2,2,0,0,1-1.4-.5,1.7,1.7,0,0,1-.5-1.4c0-1.1.7-1.8,2.1-2l1.6-.2c0-.6-.3-1-1.1-1a3.7,3.7,0,0,0-2,.7V24.3l1-.4h1.3c1.7,0,2.6.8,2.6,2.5Zm-1.8-2.4v-.4h-1.1c-.6.1-.9.4-.9.8a.8.8,0,0,0,.2.5.7.7,0,0,0,.6.2,1.2,1.2,0,0,0,.9-.3A1.4,1.4,0,0,0,416.3,27.5Z"/><path d="M424.2,29.7a4.5,4.5,0,0,1-1.9.4,2.9,2.9,0,0,1-2.2-.9,2.7,2.7,0,0,1-.9-2.1,3.1,3.1,0,0,1,.9-2.4,3.7,3.7,0,0,1,2.5-.9,3.2,3.2,0,0,1,1.6.3v1.5a2,2,0,0,0-1.3-.4,1.7,1.7,0,0,0-1.3.5,1.7,1.7,0,0,0-.5,1.2,1.7,1.7,0,0,0,.5,1.3,1.6,1.6,0,0,0,1.2.4,2.5,2.5,0,0,0,1.4-.4Zm-2.9,2.8v-.8h.4c.5,0,.8-.2.8-.5s-.2-.3-.7-.3h-.2V29.9h1v.5c.8,0,1.1.3,1.1,1s-.6,1.2-1.9,1.2Z"/><path d="M428.3,30.1a3.2,3.2,0,0,1-2.4-.9,2.9,2.9,0,0,1-.9-2.3,3.2,3.2,0,0,1,.9-2.3,4.1,4.1,0,0,1,2.5-.8,3.6,3.6,0,0,1,2.4.8,3.3,3.3,0,0,1,.8,2.2,3.1,3.1,0,0,1-3.3,3.3Zm2.2-8.9a1.6,1.6,0,0,1-.4,1.2,1.1,1.1,0,0,1-.9.5l-1-.3a1.2,1.2,0,0,0-.7-.2c-.3,0-.5.2-.5.6h-.8a2.3,2.3,0,0,1,.3-1.3,1,1,0,0,1,.9-.4,1.7,1.7,0,0,1,1,.3l.7.2c.4,0,.5-.2.5-.6Zm-2.1,4a1.4,1.4,0,0,0-1.1.4,2.5,2.5,0,0,0-.3,1.3c0,1.2.4,1.7,1.4,1.7s1.3-.5,1.3-1.7S429.3,25.2,428.4,25.2Z"/><path d="M438.3,27.4h-4c.1.9.7,1.3,1.7,1.3a3.4,3.4,0,0,0,1.8-.4v1.3a4.8,4.8,0,0,1-2.2.5,3.2,3.2,0,0,1-2.3-.8,3,3,0,0,1-.8-2.3,2.9,2.9,0,0,1,.9-2.3,2.7,2.7,0,0,1,2.1-.9,2.5,2.5,0,0,1,2.1.8,2.8,2.8,0,0,1,.7,2.1Zm-1.7-1.1c0-.8-.4-1.3-1.1-1.3a1.2,1.2,0,0,0-.8.4,1.9,1.9,0,0,0-.4.9Z"/><path d="M439,29.8V28.3l.9.4h1.7a.5.5,0,0,0,.3-.4.4.4,0,0,0-.1-.3.5.5,0,0,0-.4-.2l-.4-.2-.5-.2-.6-.2-.5-.4-.3-.5c0-.2-.1-.4-.1-.6a2.9,2.9,0,0,1,.2-.9l.6-.6.9-.3h1.8l.8.2v1.4l-.7-.3h-1.7v.2c0,.2,0,.2.1.3l.2.2.4.2h.4l.7.3a1,1,0,0,1,.5.4l.4.4c0,.2.1.4.1.7a2.9,2.9,0,0,1-.2.9l-.7.6a1.9,1.9,0,0,1-.9.4h-1A5.8,5.8,0,0,1,439,29.8Z"/><path d="M389.4,105.4h-2.2l-1.4-2.2-.2-.4-.3-.4-.3-.2h-.9v3.3h-1.9V97h3.1c2,0,3.1.7,3.1,2.3a3.1,3.1,0,0,1-.2.8l-.4.6a1,1,0,0,1-.6.5l-.7.4h0l.3.2.4.3.3.4.3.4Zm-5.3-7v2.3h.9a1.7,1.7,0,0,0,1-.3,1.8,1.8,0,0,0,.4-.9c0-.7-.5-1.1-1.4-1.1Z"/><path d="M395.1,102.9h-3.9c0,.9.6,1.3,1.6,1.3a3.5,3.5,0,0,0,1.8-.5v1.4a4.8,4.8,0,0,1-2.2.4,3.4,3.4,0,0,1-2.3-.8,3.1,3.1,0,0,1-.8-2.2,3.2,3.2,0,0,1,.9-2.4,2.9,2.9,0,0,1,2.2-.9,2.6,2.6,0,0,1,2.7,2.9Zm-1.7-1.1c0-.9-.3-1.3-1.1-1.3a.9.9,0,0,0-.7.3,1.3,1.3,0,0,0-.4,1Z"/><path d="M395.9,105.2v-1.5l.9.4h1.6c.2-.1.3-.2.3-.4a.4.4,0,0,0-.1-.3l-.3-.2-.5-.2h-.5l-.6-.3-.5-.4a.8.8,0,0,1-.2-.4,1.5,1.5,0,0,1-.1-.7,1.1,1.1,0,0,1,.2-.8.9.9,0,0,1,.6-.6,2,2,0,0,1,.8-.4h1.8l.9.2v1.4l-.8-.3H398l-.2.2c-.1,0-.1.1-.1.2a.4.4,0,0,0,.1.3l.3.2h.4l.4.2.7.2.5.4.3.5a1.3,1.3,0,0,1,.1.6c0,.4,0,.7-.2.9a1.7,1.7,0,0,1-.6.6l-.9.4h-1.1A5.2,5.2,0,0,1,395.9,105.2Z"/><path d="M403.5,104.7h0v3.4h-1.9V99.4h1.9v.9h0a2.3,2.3,0,0,1,2-1.1,2.2,2.2,0,0,1,1.8.8,3.8,3.8,0,0,1,.6,2.2,3.6,3.6,0,0,1-.7,2.4,2.5,2.5,0,0,1-2,.9A2.1,2.1,0,0,1,403.5,104.7Zm0-2.5v.5a1.7,1.7,0,0,0,.3,1,1,1,0,0,0,.9.4,1.4,1.4,0,0,0,1-.5,2.6,2.6,0,0,0,.3-1.4c0-1-.4-1.6-1.2-1.6a1.4,1.4,0,0,0-1,.5A1.8,1.8,0,0,0,403.5,102.2Z"/><path d="M412,105.5a2.9,2.9,0,0,1-3.2-3.1,2.9,2.9,0,0,1,.9-2.3,3.6,3.6,0,0,1,4.8,0,2.8,2.8,0,0,1,.9,2.2,2.9,2.9,0,0,1-.9,2.3A3.3,3.3,0,0,1,412,105.5Zm.1-4.9a1.2,1.2,0,0,0-1,.5,1.7,1.7,0,0,0-.4,1.3c0,1.1.5,1.7,1.4,1.7s1.4-.6,1.4-1.8S413,100.6,412.1,100.6Z"/><path d="M416.2,105.2v-1.5l.9.4h1.7c.2-.1.3-.2.3-.4s-.1-.2-.2-.3l-.3-.2-.5-.2h-.4l-.7-.3c-.1-.1-.3-.2-.4-.4s-.2-.3-.3-.4a1.5,1.5,0,0,1-.1-.7,1.9,1.9,0,0,1,.2-.8l.6-.6.9-.4h1.8l.8.2v1.4l-.8-.3h-1.4l-.2.2c-.1,0-.1.1-.1.2v.3l.3.2h.4l.4.2.7.2.5.4a.5.5,0,0,1,.3.5,1.4,1.4,0,0,1,.2.6,1.2,1.2,0,0,1-.3.9.9.9,0,0,1-.6.6l-.9.4H418A5.7,5.7,0,0,1,416.2,105.2Z"/><path d="M425.6,105.3l-1.2.2a1.8,1.8,0,0,1-2-2v-2.8h-1V99.4h1V98.1l1.8-.5v1.8h1.4v1.3h-1.4v2.5c0,.6.3.9.8.9l.6-.2Z"/><path d="M431.7,105.4H430v-.9h-.1a1.9,1.9,0,0,1-1.8,1,2.2,2.2,0,0,1-1.4-.5,1.9,1.9,0,0,1-.5-1.3c0-1.2.7-1.8,2.1-2l1.7-.2c0-.7-.4-1-1.1-1a4.2,4.2,0,0,0-2.1.6V99.7l1.1-.3,1.2-.2a2.3,2.3,0,0,1,2.6,2.6Zm-1.7-2.5v-.4l-1.1.2c-.6,0-1,.3-1,.8a.5.5,0,0,0,.3.5.8.8,0,0,0,.6.2.9.9,0,0,0,.8-.4A1,1,0,0,0,430,102.9Z"/><path d="M432.8,105.2v-1.5l.9.4h1.7c.2-.1.3-.2.3-.4s-.1-.2-.1-.3l-.4-.2-.4-.2h-.5l-.6-.3a1,1,0,0,1-.5-.4l-.3-.4a1.5,1.5,0,0,1-.1-.7,1.9,1.9,0,0,1,.2-.8,1.7,1.7,0,0,1,.6-.6l.9-.4h1.8l.8.2v1.4l-.7-.3h-1.5l-.2.2v.2l.2.3.2.2h.4l.4.2.7.2.5.4a1,1,0,0,1,.4.5c0,.2.1.4.1.6a1.2,1.2,0,0,1-.3.9.9.9,0,0,1-.6.6,1.9,1.9,0,0,1-.9.4h-1A5.8,5.8,0,0,1,432.8,105.2Z"/><path d="M375.1,46.4h-.8a7.4,7.4,0,0,1-1.8-5.1,7.8,7.8,0,0,1,1.8-5.2h.8a8,8,0,0,0-1.8,5.2A7.6,7.6,0,0,0,375.1,46.4Z"/><path d="M382.3,44.5h-1.1l-1.4-2.3a1.3,1.3,0,0,0-.4-.6l-.3-.4-.4-.2h-1.3v3.6h-.9V36.1h3.4l.8.5a1.8,1.8,0,0,1,.5.7,2.4,2.4,0,0,1,.2.9,2.9,2.9,0,0,1-.2.9c0,.2-.2.4-.3.6l-.6.5-.7.3h0l.3.3.3.2.3.4.3.5ZM377.4,37v3.1h1.3l.7-.2a.5.5,0,0,0,.5-.3.9.9,0,0,0,.3-.5,1.4,1.4,0,0,0,.2-.7,1.2,1.2,0,0,0-.5-1c-.2-.3-.6-.4-1.2-.4Z"/><path d="M387.9,44.5h-4.3V36.1h4.1V37h-3.2v2.8h3v.9h-3v2.9h3.4Z"/><path d="M389.3,44.2V43l.4.3.6.3h1.1a1.7,1.7,0,0,0,1.3-.4,1.1,1.1,0,0,0,.5-.9.8.8,0,0,0-.2-.6l-.4-.5a1.5,1.5,0,0,0-.6-.4l-.7-.4-.8-.4-.7-.5a4.3,4.3,0,0,1-.4-.7,1.9,1.9,0,0,1-.1-.8,1.6,1.6,0,0,1,.2-1l.6-.7.9-.4h1.1a3.4,3.4,0,0,1,1.7.3v1.1a2.7,2.7,0,0,0-1.8-.5h-.6l-.6.2-.4.4a1.8,1.8,0,0,0,0,1.2l.3.4.6.4.7.4.8.5a2.6,2.6,0,0,1,1.2,1.2,1.9,1.9,0,0,1,.2.8,2,2,0,0,1-.3,1.1,1.9,1.9,0,0,1-.6.7l-.9.4h-2.7Z"/><path d="M400.7,37h-2.3v7.5h-.9V37h-2.4v-.9h5.6Z"/><path d="M407.9,44.7a2.6,2.6,0,0,1-2.1-.9,3.1,3.1,0,0,1-.7-2.2,3.2,3.2,0,0,1,.8-2.4,2.9,2.9,0,0,1,2.1-.8,2.3,2.3,0,0,1,2,.8,3.3,3.3,0,0,1,.7,2.3,3.3,3.3,0,0,1-.7,2.3A2.9,2.9,0,0,1,407.9,44.7Zm0-5.5a1.8,1.8,0,0,0-1.4.6,3,3,0,0,0-.5,1.8,2.5,2.5,0,0,0,.5,1.6,1.6,1.6,0,0,0,1.4.7,1.7,1.7,0,0,0,1.4-.6,3,3,0,0,0,.5-1.8,2.9,2.9,0,0,0-.5-1.7A1.7,1.7,0,0,0,407.9,39.2Z"/><path d="M417.1,44.5h-.9v-.9h-.1a1.8,1.8,0,0,1-1.7,1.1c-1.4,0-2.1-.9-2.1-2.6V38.5h.9V42c0,1.2.5,1.9,1.4,1.9a1.3,1.3,0,0,0,1.1-.6,1.9,1.9,0,0,0,.5-1.3V38.5h.9Z"/><path d="M422.8,44.7l-.4-.2c-.1-.2-.2-.3-.2-.5s.1-.3.2-.5l.4-.2.5.2c.1.2.2.3.2.5s-.1.3-.2.5Z"/><path d="M431.9,44.5h-1.2l-4.2-6.7c-.1-.2-.2-.3-.2-.5h-.1a3.1,3.1,0,0,1,.1,1.1v6.1h-1V36.1h1.3l4,6.6a1.5,1.5,0,0,1,.3.6h.1a4.5,4.5,0,0,1-.1-1.3V36.1h1Z"/><path d="M438.5,44.5h-4.3V36.1h4.1V37h-3.2v2.8H438v.9h-2.9v2.9h3.4Z"/><path d="M445,37h-2.3v7.5h-1V37h-2.3v-.9H445Z"/><path d="M446.4,46.4h-.9a7.6,7.6,0,0,0,1.8-5.1,8,8,0,0,0-1.8-5.2h.9a8.3,8.3,0,0,1,1.7,5.2A7.8,7.8,0,0,1,446.4,46.4Z"/><path d="M376.1,121.8h-.8a7.6,7.6,0,0,1-1.8-5.1,7.7,7.7,0,0,1,1.8-5.2h.8a7.8,7.8,0,0,0-1.8,5.2A7.9,7.9,0,0,0,376.1,121.8Z"/><path d="M383.3,119.9h-1.1l-1.4-2.4a1,1,0,0,0-.4-.5l-.3-.4-.4-.2h-1.3v3.6h-.9v-8.4h3.4l.8.4a1.8,1.8,0,0,1,.5.7,3,3,0,0,1,.2,1,1.9,1.9,0,0,1-.2.8,1.5,1.5,0,0,1-.3.7l-.6.5-.7.3h0l.3.2.3.3.3.4.3.4Zm-4.9-7.6v3.1h2l.5-.3c.1-.2.3-.3.3-.5a1.9,1.9,0,0,0,.2-.7,1.4,1.4,0,0,0-.5-1.1,1.7,1.7,0,0,0-1.2-.4Z"/><path d="M388.9,119.9h-4.3v-8.4h4.1v.8h-3.2v2.8h3v.9h-3v3h3.4Z"/><path d="M390.3,119.5v-1.1l.4.3.6.2.6.2h.5a2.3,2.3,0,0,0,1.3-.3,1.2,1.2,0,0,0,.5-1,1.4,1.4,0,0,0-.2-.6l-.4-.4a.9.9,0,0,0-.6-.4l-.7-.4-.8-.5a1.8,1.8,0,0,1-.7-.5l-.4-.6a2.2,2.2,0,0,1-.1-.8,1.5,1.5,0,0,1,.2-1,2.2,2.2,0,0,1,.6-.7l.9-.5h1.1a3.4,3.4,0,0,1,1.7.3v1.1a3.5,3.5,0,0,0-1.8-.5h-.6l-.6.2-.4.4c-.1.1-.1.3-.1.6a.7.7,0,0,0,.1.5l.3.5.6.3.7.4.8.5.7.6.5.6a2.4,2.4,0,0,1,.2.9,1.7,1.7,0,0,1-.3,1,1.3,1.3,0,0,1-.6.7l-.9.4h-2.2l-.5-.2A.5.5,0,0,1,390.3,119.5Z"/><path d="M401.7,112.3h-2.3v7.6h-.9v-7.6h-2.4v-.8h5.6Z"/><path d="M408.9,120a2.9,2.9,0,0,1-2.1-.8,3.3,3.3,0,0,1-.7-2.3,2.8,2.8,0,0,1,.8-2.3,2.6,2.6,0,0,1,2.1-.9,2.6,2.6,0,0,1,2,.8,3.5,3.5,0,0,1,.7,2.3,3.6,3.6,0,0,1-.7,2.4A3.2,3.2,0,0,1,408.9,120Zm0-5.5a1.6,1.6,0,0,0-1.4.7,3.1,3.1,0,0,0,0,3.4,1.8,1.8,0,0,0,1.4.6,1.7,1.7,0,0,0,1.4-.6,2.9,2.9,0,0,0,.5-1.7,3.2,3.2,0,0,0-.5-1.8A1.7,1.7,0,0,0,408.9,114.5Z"/><path d="M418.1,119.9h-.9v-1h-.1a1.6,1.6,0,0,1-1.7,1.1c-1.4,0-2.1-.8-2.1-2.5v-3.6h.9v3.4c0,1.3.5,1.9,1.4,1.9a1.4,1.4,0,0,0,1.1-.5,2.2,2.2,0,0,0,.5-1.4v-3.4h.9Z"/><path d="M423.8,120l-.4-.2-.2-.4a.8.8,0,0,1,.2-.5l.4-.2.5.2a.8.8,0,0,1,.2.5l-.2.4Z"/><path d="M432.9,119.9h-1.2l-4.2-6.7a1.4,1.4,0,0,1-.2-.6h-.1a3.5,3.5,0,0,1,.1,1.2v6.1h-1v-8.4h1.3l4,6.6a.9.9,0,0,1,.3.5h.1a3.5,3.5,0,0,1-.1-1.2v-5.9h1Z"/><path d="M439.5,119.9h-4.3v-8.4h4.1v.8h-3.2v2.8H439v.9h-2.9v3h3.4Z"/><path d="M446,112.3h-2.3v7.6h-1v-7.6h-2.3v-.8H446Z"/><path d="M447.4,121.8h-.9a7.9,7.9,0,0,0,1.8-5.1,7.8,7.8,0,0,0-1.8-5.2h.9a8.1,8.1,0,0,1,1.7,5.2A8,8,0,0,1,447.4,121.8Z"/><path d="M13.4,100.4h-.8A6.9,6.9,0,0,1,11,95.7a7.1,7.1,0,0,1,1.6-4.8h.8a7.6,7.6,0,0,0-1.7,4.8A7.3,7.3,0,0,0,13.4,100.4Z"/><path d="M18.8,98.6h-.9V95.5c0-1.2-.4-1.8-1.3-1.8a1.6,1.6,0,0,0-1.1.5,2,2,0,0,0-.4,1.3v3.1h-.9V93.1h.9V94h0a2.1,2.1,0,0,1,1.8-1,1.7,1.7,0,0,1,1.4.6,2.6,2.6,0,0,1,.5,1.7Z"/><path d="M24.1,98.6h-.8v-.8h-.1a1.8,1.8,0,0,1-1.7,1,1.7,1.7,0,0,1-1.2-.5,1.3,1.3,0,0,1-.5-1.1q0-1.7,1.8-1.8l1.7-.3c0-.9-.4-1.4-1.2-1.4a3.4,3.4,0,0,0-1.8.7v-.9a4.1,4.1,0,0,1,1.9-.5c1.3,0,1.9.7,1.9,2.1Zm-.8-2.8-1.4.2-.9.3a1,1,0,0,0-.3.8.9.9,0,0,0,.3.7l.7.2a1.4,1.4,0,0,0,1.1-.4,1.7,1.7,0,0,0,.5-1.2Z"/><path d="M32.9,98.6h-.8V95.5c0-1.2-.5-1.8-1.3-1.8a1.4,1.4,0,0,0-1.1.5,2,2,0,0,0-.4,1.3v3.1h-.9V93.1h.9V94h0a2.1,2.1,0,0,1,1.8-1,1.8,1.8,0,0,1,1.4.6,2.7,2.7,0,0,1,.4,1.7Z"/><path d="M38.8,98.6h-.9v-.8h0a1.8,1.8,0,0,1-1.7,1c-1.3,0-1.9-.8-1.9-2.4V93.1h.8v3.2c0,1.1.5,1.7,1.4,1.7a1.1,1.1,0,0,0,1-.5,1.6,1.6,0,0,0,.4-1.2V93.1h.9Z"/><path d="M44.7,93.1l-2.2,5.5h-.9l-2-5.5h.9l1.4,4a3.1,3.1,0,0,1,.2.8h0c.1-.3.1-.5.2-.8l1.5-4Z"/><path d="M49.8,96.1H46a1.6,1.6,0,0,0,.5,1.4,1.4,1.4,0,0,0,1.3.5,2.9,2.9,0,0,0,1.7-.6v.8a3.2,3.2,0,0,1-2,.6,2.5,2.5,0,0,1-1.8-.8,3.3,3.3,0,0,1-.6-2.1,3,3,0,0,1,.7-2.1,2.5,2.5,0,0,1,1.8-.8,2.1,2.1,0,0,1,1.7.7,2.9,2.9,0,0,1,.5,1.9Zm-.9-.7a1.9,1.9,0,0,0-.3-1.2,1.4,1.4,0,0,0-1-.5,1.6,1.6,0,0,0-1.1.5,1.7,1.7,0,0,0-.5,1.2Z"/><path d="M58.8,98.6h-.9V95.5a2.1,2.1,0,0,0-.3-1.3,1.1,1.1,0,0,0-.9-.5,1.2,1.2,0,0,0-1,.6,1.6,1.6,0,0,0-.4,1.2v3.1h-.9V95.4c0-1.1-.4-1.7-1.2-1.7a1.4,1.4,0,0,0-1,.5,2.8,2.8,0,0,0-.4,1.3v3.1H51V93.1h.8V94h.1a1.8,1.8,0,0,1,1.7-1,1.9,1.9,0,0,1,1,.3,2.2,2.2,0,0,1,.5.8A2,2,0,0,1,57,93c1.2,0,1.8.7,1.8,2.2Z"/><path d="M65.3,98.8a2.4,2.4,0,0,1-1.9-.8,3.2,3.2,0,0,1,0-4.2,2.8,2.8,0,0,1,2-.8,2.6,2.6,0,0,1,2,.8,3.3,3.3,0,0,1,.6,2.1,3.1,3.1,0,0,1-.7,2.1A2.8,2.8,0,0,1,65.3,98.8Zm.1-5.1a1.8,1.8,0,0,0-1.4.6,2.8,2.8,0,0,0,0,3.2,2.2,2.2,0,0,0,1.4.5,1.9,1.9,0,0,0,1.3-.5,3.4,3.4,0,0,0,0-3.2A1.6,1.6,0,0,0,65.4,93.7Z"/><path d="M73.7,98.6h-.9v-.8h0a2.1,2.1,0,0,1-1.7,1c-1.3,0-2-.8-2-2.4V93.1H70v3.2c0,1.1.4,1.7,1.3,1.7a1.2,1.2,0,0,0,1.1-.5,1.6,1.6,0,0,0,.4-1.2V93.1h.9Z"/><path d="M78.9,97.8h0v3.4H78V93.1h.9v1h0A2.3,2.3,0,0,1,80.8,93a2.1,2.1,0,0,1,1.7.7,3.2,3.2,0,0,1,.6,2,3.1,3.1,0,0,1-.7,2.2,2,2,0,0,1-1.8.9A1.9,1.9,0,0,1,78.9,97.8Zm0-2.2v.8a1.6,1.6,0,0,0,.5,1.1,1.2,1.2,0,0,0,1.1.5,1.4,1.4,0,0,0,1.2-.6,2.9,2.9,0,0,0,.5-1.7,2.6,2.6,0,0,0-.4-1.4,1.5,1.5,0,0,0-2.4,0A1.9,1.9,0,0,0,78.9,95.6Z"/><path d="M86.6,98.8a2.6,2.6,0,0,1-2.7-2.9,2.9,2.9,0,0,1,.8-2.1,2.6,2.6,0,0,1,2-.8,2.4,2.4,0,0,1,1.9.8,2.8,2.8,0,0,1,.7,2.1,3.1,3.1,0,0,1-.7,2.1A2.8,2.8,0,0,1,86.6,98.8Zm0-5.1a1.6,1.6,0,0,0-1.3.6,2.8,2.8,0,0,0,0,3.2,1.9,1.9,0,0,0,1.3.5,2.2,2.2,0,0,0,1.4-.5,3.4,3.4,0,0,0,0-3.2A1.8,1.8,0,0,0,86.6,93.7Z"/><path d="M93.4,94l-.7-.2a1,1,0,0,0-.9.6,2,2,0,0,0-.4,1.4v2.8h-.9V93.1h.9v1.2h0a1.5,1.5,0,0,1,.6-.9.9.9,0,0,1,.8-.4h.6Z"/><path d="M11,111.8h-.8c-1,0-1.4-.5-1.4-1.6v-3.2h-1v-.8h1V105l.8-.3v1.6H11v.8H9.6v3.1a1.5,1.5,0,0,0,.2.8l.6.2.6-.2Z"/><path d="M14.8,107.2a.8.8,0,0,0-.6-.2,1.2,1.2,0,0,0-1,.6,2.6,2.6,0,0,0-.3,1.4v2.8H12v-5.5h.9v1.2h0a1.5,1.5,0,0,1,.6-.9.9.9,0,0,1,.8-.4h.5Z"/><path d="M19.5,111.8h-.9V111h0a1.9,1.9,0,0,1-1.7,1,1.9,1.9,0,0,1-1.3-.5,1.4,1.4,0,0,1-.4-1.1q0-1.7,1.8-1.8l1.6-.3c0-.9-.3-1.4-1.1-1.4a2.9,2.9,0,0,0-1.8.7v-.9a4.1,4.1,0,0,1,1.9-.5c1.3,0,1.9.7,1.9,2.1Zm-.9-2.8-1.3.2-.9.3a1,1,0,0,0-.3.8.9.9,0,0,0,.3.7l.7.2a1.4,1.4,0,0,0,1.1-.4,1.6,1.6,0,0,0,.4-1.2Zm.2-5.5-1.5,1.8h-.6l1.2-1.8Z"/><path d="M20.6,111.6v-.9a3,3,0,0,0,1.6.5c.8,0,1.2-.2,1.2-.8s-.1-.2-.1-.3l-.3-.3-.4-.2-.5-.2-.6-.3-.5-.3-.3-.5a4.3,4.3,0,0,1-.1-.5,1.4,1.4,0,0,1,.2-.7l.5-.5.7-.3h.7l1.3.2v.9a3.3,3.3,0,0,0-1.4-.4h-.4l-.4.2c-.1,0-.1.1-.2.2s-.1.2-.1.3.1.3.1.4.1.2.2.2l.4.2.5.2.7.3.4.4a.8.8,0,0,1,.4.4,3.5,3.5,0,0,1,.1.6,1.9,1.9,0,0,1-.2.7c-.1.2-.3.3-.5.5l-.7.3h-.8A2.4,2.4,0,0,1,20.6,111.6Z"/><path d="M32.9,111.8H32v-.9h0a2,2,0,0,1-1.9,1.1,2.3,2.3,0,0,1-1.7-.8,3,3,0,0,1-.6-2,3.8,3.8,0,0,1,.7-2.2,2.5,2.5,0,0,1,1.8-.8,1.9,1.9,0,0,1,1.7.9h0v-3.4h.9Zm-.9-2.5v-.8a1.5,1.5,0,0,0-.4-1.1,1.6,1.6,0,0,0-1.1-.5,1.5,1.5,0,0,0-1.3.6,2.9,2.9,0,0,0-.5,1.7,2.5,2.5,0,0,0,.5,1.5,1.7,1.7,0,0,0,1.2.5,2.1,2.1,0,0,0,1.2-.5A2.1,2.1,0,0,0,32,109.3Z"/><path d="M38.9,109.3H35a2,2,0,0,0,.5,1.4,1.4,1.4,0,0,0,1.3.5,2.7,2.7,0,0,0,1.7-.6v.8a2.9,2.9,0,0,1-1.9.6,2.6,2.6,0,0,1-1.9-.8,3.3,3.3,0,0,1-.6-2.1,3,3,0,0,1,.7-2.1,2.5,2.5,0,0,1,1.8-.8,2.1,2.1,0,0,1,1.7.7,2.9,2.9,0,0,1,.6,1.9Zm-.9-.7a1.9,1.9,0,0,0-.4-1.2,1.2,1.2,0,0,0-1-.5,1.6,1.6,0,0,0-1.1.5,3.3,3.3,0,0,0-.5,1.2Z"/><path d="M47.2,111.8h-.9V111h0a1.8,1.8,0,0,1-1.7,1c-1.3,0-1.9-.8-1.9-2.4v-3.3h.8v3.2c0,1.1.5,1.7,1.4,1.7a1,1,0,0,0,1-.5,1.6,1.6,0,0,0,.4-1.2v-3.2h.9Z"/><path d="M56.6,111.8h-.9v-3.1a2.1,2.1,0,0,0-.3-1.3,1.1,1.1,0,0,0-.9-.5,1.2,1.2,0,0,0-1,.6,2.1,2.1,0,0,0-.4,1.2v3.1h-.8v-3.2c0-1.1-.5-1.7-1.3-1.7a1.4,1.4,0,0,0-1,.5,2.8,2.8,0,0,0-.3,1.3v3.1h-.9v-5.5h.9v.9h0a1.8,1.8,0,0,1,1.7-1,1.7,1.7,0,0,1,1,.3,1.6,1.6,0,0,1,.6.8,2,2,0,0,1,1.8-1.1c1.2,0,1.8.7,1.8,2.2Z"/><path d="M63.6,104.5l-.6-.2c-.6,0-1,.4-1,1.2v.8h1.3v.8H62v4.7h-.8v-4.7h-1v-.8h1v-.9a1.5,1.5,0,0,1,.5-1.3,1.3,1.3,0,0,1,1.2-.5h.7Z"/><path d="M64.5,104.9h-.4l-.2-.4a.5.5,0,0,1,.2-.4.4.4,0,0,1,.4-.2c.2,0,.3,0,.4.2a.5.5,0,0,1,.2.4.8.8,0,0,1-.2.4Zm.4,6.9h-.8v-5.5h.8Z"/><path d="M69.4,107.2l-.7-.2a1,1,0,0,0-.9.6,2,2,0,0,0-.4,1.4v2.8h-.9v-5.5h.9v1.2h0a1.5,1.5,0,0,1,.6-.9.9.9,0,0,1,.8-.4h.6Z"/><path d="M74.5,109.3H70.6a2.6,2.6,0,0,0,.5,1.4,1.7,1.7,0,0,0,1.3.5,2.5,2.5,0,0,0,1.7-.6v.8a2.7,2.7,0,0,1-1.9.6,2.3,2.3,0,0,1-1.8-.8,3.3,3.3,0,0,1-.7-2.1,3,3,0,0,1,.8-2.1,2.2,2.2,0,0,1,1.8-.8,1.9,1.9,0,0,1,1.6.7,2.9,2.9,0,0,1,.6,1.9Zm-.9-.7a1.9,1.9,0,0,0-.3-1.2,1.4,1.4,0,0,0-1.1-.5,1.4,1.4,0,0,0-1,.5,1.7,1.7,0,0,0-.5,1.2Z"/><path d="M82.6,106.3l-1.7,5.5H80l-1.1-3.9a.9.9,0,0,1-.1-.5h0a4.3,4.3,0,0,0-.1.5l-1.3,3.9h-.9l-1.6-5.5h.9l1.1,4.2a.7.7,0,0,1,.1.5h.1a.7.7,0,0,1,.1-.5l1.2-4.2h.8l1.2,4.2v.5h.1a.9.9,0,0,1,.1-.5l1.1-4.2Z"/><path d="M87.3,111.8h-.9V111h0a1.9,1.9,0,0,1-1.7,1,1.9,1.9,0,0,1-1.3-.5,1.4,1.4,0,0,1-.4-1.1q0-1.7,1.8-1.8l1.6-.3c0-.9-.4-1.4-1.1-1.4a2.9,2.9,0,0,0-1.8.7v-.9a3.8,3.8,0,0,1,1.9-.5c1.3,0,1.9.7,1.9,2.1Zm-.9-2.8-1.3.2-.9.3a1,1,0,0,0-.3.8,1.4,1.4,0,0,0,.2.7l.8.2a1.4,1.4,0,0,0,1.1-.4,1.6,1.6,0,0,0,.4-1.2Z"/><path d="M89.6,111.8h-.9v-8.1h.9Z"/><path d="M92.1,111.8h-.9v-8.1h.9Z"/><path d="M93.7,113.6h-.8a7.2,7.2,0,0,0,1.6-4.7,7.5,7.5,0,0,0-1.6-4.8h.8a7.1,7.1,0,0,1,1.6,4.8A6.9,6.9,0,0,1,93.7,113.6Z"/><path d="M168.4,96.5h-.8a7,7,0,0,1-1.7-4.7,7.1,7.1,0,0,1,1.7-4.7h.8a7.1,7.1,0,0,0-1.7,4.7A6.7,6.7,0,0,0,168.4,96.5Z"/><path d="M170.1,91.8v3h-.9V87.1h2.1a2.9,2.9,0,0,1,1.9.6,2.2,2.2,0,0,1,.7,1.7,2.1,2.1,0,0,1-.8,1.7,2.7,2.7,0,0,1-2,.7Zm0-3.9V91h.9a2,2,0,0,0,1.4-.4,1.3,1.3,0,0,0,.5-1.2q0-1.5-1.8-1.5Z"/><path d="M178.4,94.8h-.8v-.9h-.1a1.8,1.8,0,0,1-1.7,1,2.1,2.1,0,0,1-1.2-.4,1.3,1.3,0,0,1-.5-1.2q0-1.5,1.8-1.8l1.7-.2c0-1-.4-1.4-1.2-1.4a3.2,3.2,0,0,0-1.8.6v-.9a4.1,4.1,0,0,1,1.9-.5c1.3,0,1.9.7,1.9,2.1Zm-.8-2.8-1.4.2a1.2,1.2,0,0,0-.9.3.8.8,0,0,0-.3.7.9.9,0,0,0,.3.7.8.8,0,0,0,.7.2,1.4,1.4,0,0,0,1.1-.4,1.7,1.7,0,0,0,.5-1.2Z"/><path d="M184.5,94.8h-.9v-1h0a2.3,2.3,0,0,1-1.9,1.1,2.1,2.1,0,0,1-1.7-.8,3.6,3.6,0,0,1,.1-4.1,2,2,0,0,1,1.8-.9,1.9,1.9,0,0,1,1.7.9h0V86.6h.9Zm-.9-2.5v-.8a1.7,1.7,0,0,0-.5-1.2,1.4,1.4,0,0,0-1.1-.4,1.4,1.4,0,0,0-1.2.6,2.1,2.1,0,0,0-.5,1.6,2.4,2.4,0,0,0,.4,1.5,1.7,1.7,0,0,0,2.4,0A1.9,1.9,0,0,0,183.6,92.3Z"/><path d="M188.8,90.1h-.7a.9.9,0,0,0-.9.5,2.2,2.2,0,0,0-.4,1.5v2.8h-.9V89.3h.9v1.1h0a1.5,1.5,0,0,1,.6-.9,1.2,1.2,0,0,1,.9-.3h.5Z"/><path d="M193.3,94.8h-.8v-.9h-.1a1.7,1.7,0,0,1-1.7,1,2.1,2.1,0,0,1-1.2-.4,1.7,1.7,0,0,1-.5-1.2q0-1.5,1.8-1.8l1.7-.2c0-1-.4-1.4-1.2-1.4a3.2,3.2,0,0,0-1.8.6v-.9a4.1,4.1,0,0,1,1.9-.5c1.3,0,1.9.7,1.9,2.1Zm-.3-7.9c0,.4,0,.7-.2.9a.8.8,0,0,1-.7.4l-.9-.3-.6-.2c-.3,0-.5.2-.5.6h-.5a1.2,1.2,0,0,1,.3-.9.7.7,0,0,1,.7-.4l.8.3a1.1,1.1,0,0,0,.7.3c.3,0,.4-.3.4-.7Zm-.5,5.1-1.4.2a1.2,1.2,0,0,0-.9.3.8.8,0,0,0-.3.7.9.9,0,0,0,.3.7c.2.2.4.2.8.2a1.2,1.2,0,0,0,1-.4,1.7,1.7,0,0,0,.5-1.2Z"/><path d="M197,94.9a2.8,2.8,0,0,1-2-.8,2.7,2.7,0,0,1-.7-2,2.8,2.8,0,0,1,2.8-3,2.4,2.4,0,0,1,1.9.8,2.9,2.9,0,0,1-2,5Zm0-5a1.9,1.9,0,0,0-1.3.5,2.8,2.8,0,0,0-.5,1.6,2.5,2.5,0,0,0,.5,1.6,1.5,1.5,0,0,0,1.3.5,1.7,1.7,0,0,0,1.4-.5,3.4,3.4,0,0,0,0-3.2A2.2,2.2,0,0,0,197,89.9Z"/><path d="M205.8,94.9a2.8,2.8,0,0,1-2-.8,2.7,2.7,0,0,1-.7-2,2.8,2.8,0,0,1,2.8-3,2.4,2.4,0,0,1,1.9.8,2.9,2.9,0,0,1-2,5Zm0-5a1.9,1.9,0,0,0-1.3.5A2.8,2.8,0,0,0,204,92a2.5,2.5,0,0,0,.5,1.6,1.5,1.5,0,0,0,1.3.5,1.4,1.4,0,0,0,1.3-.5,2.8,2.8,0,0,0,0-3.2A1.7,1.7,0,0,0,205.8,89.9Z"/><path d="M214,94.8h-.8v-.9h-.1a1.7,1.7,0,0,1-1.7,1c-1.3,0-1.9-.8-1.9-2.4V89.3h.8v3.1c0,1.2.5,1.7,1.4,1.7a1.2,1.2,0,0,0,1-.4,1.9,1.9,0,0,0,.5-1.3V89.3h.8Z"/><path d="M151.5,105.4h-3.9a2,2,0,0,0,.5,1.4,1.4,1.4,0,0,0,1.3.5,2.7,2.7,0,0,0,1.7-.6v.9a3.6,3.6,0,0,1-1.9.5,2.6,2.6,0,0,1-1.9-.8,3.3,3.3,0,0,1-.6-2.1,3.1,3.1,0,0,1,.7-2.1,2.5,2.5,0,0,1,1.8-.8,2.4,2.4,0,0,1,1.7.7,3,3,0,0,1,.6,2Zm-.9-.7a2.1,2.1,0,0,0-.4-1.2,1.2,1.2,0,0,0-1-.4,1.5,1.5,0,0,0-1.1.4,3.3,3.3,0,0,0-.5,1.2Z"/><path d="M157,108h-.8v-3.2c0-1.1-.5-1.7-1.3-1.7a1.2,1.2,0,0,0-1.1.5,1.6,1.6,0,0,0-.4,1.2V108h-.9v-5.5h.9v.9h0a2,2,0,0,1,1.8-1.1,1.8,1.8,0,0,1,1.4.6,2.9,2.9,0,0,1,.4,1.7Z"/><path d="M161.2,103.4c-.1-.2-.3-.2-.6-.2a1.4,1.4,0,0,0-1,.5,3.1,3.1,0,0,0-.3,1.5V108h-.9v-5.5h.9v1.1h0a1.5,1.5,0,0,1,.6-.9,1.1,1.1,0,0,1,.8-.3h.5Z"/><path d="M162.3,101.1l-.4-.2c-.1-.1-.1-.2-.1-.4s0-.3.1-.4l.4-.2.4.2a.5.5,0,0,1,.2.4.8.8,0,0,1-.2.4Zm.4,6.9h-.8v-5.5h.8Z"/><path d="M168.9,110.5H168V107h0a2,2,0,0,1-1.9,1.1,1.9,1.9,0,0,1-1.6-.8,2.4,2.4,0,0,1-.7-2,3.8,3.8,0,0,1,.7-2.2,2.6,2.6,0,0,1,1.9-.8,1.7,1.7,0,0,1,1.6.9h0v-.7h.9Zm-.9-5v-.8a1.4,1.4,0,0,0-1.6-1.6,1.4,1.4,0,0,0-1.2.6,2.5,2.5,0,0,0-.5,1.6,2.5,2.5,0,0,0,.5,1.5,1.3,1.3,0,0,0,1.1.5,1.5,1.5,0,0,0,1.3-.5A1.8,1.8,0,0,0,168,105.5Z"/><path d="M174.8,108h-.9v-.9h0a1.8,1.8,0,0,1-1.7,1c-1.3,0-2-.8-2-2.4v-3.2h.9v3.1c0,1.2.5,1.7,1.3,1.7a1.4,1.4,0,0,0,1.1-.4,1.8,1.8,0,0,0,.4-1.3v-3.1h.9Z"/><path d="M180.7,105.4h-3.9a2,2,0,0,0,.5,1.4,1.4,1.4,0,0,0,1.3.5,2.7,2.7,0,0,0,1.7-.6v.9a3.6,3.6,0,0,1-1.9.5,2.6,2.6,0,0,1-1.9-.8,3.3,3.3,0,0,1-.6-2.1,3.1,3.1,0,0,1,.7-2.1,2.5,2.5,0,0,1,1.8-.8,2.4,2.4,0,0,1,1.7.7,3,3,0,0,1,.6,2Zm-.9-.7a2.1,2.1,0,0,0-.4-1.2,1.2,1.2,0,0,0-1-.4,1.5,1.5,0,0,0-1.1.4,2.2,2.2,0,0,0-.5,1.2Z"/><path d="M185.4,107.7a2.4,2.4,0,0,1-1.5.4,2.6,2.6,0,0,1-1.9-.8,2.7,2.7,0,0,1-.7-2,2.9,2.9,0,0,1,.8-2.1,2.8,2.8,0,0,1,3.3-.6v.9a2,2,0,0,0-1.3-.4,2,2,0,0,0-1.4.6,2.5,2.5,0,0,0-.5,1.6,2.5,2.5,0,0,0,.5,1.5,1.6,1.6,0,0,0,1.4.5,2.2,2.2,0,0,0,1.3-.4Z"/><path d="M186.9,101.1l-.4-.2a.5.5,0,0,1,0-.8l.4-.2.4.2c.1.1.1.2.1.4a.6.6,0,0,1-.1.4Zm.4,6.9h-.9v-5.5h.9Z"/><path d="M193.4,108h-.8v-1h-.1a2,2,0,0,1-1.8,1.1,2.1,2.1,0,0,1-1.7-.8,3.6,3.6,0,0,1,.1-4.1,2,2,0,0,1,1.8-.9,1.6,1.6,0,0,1,1.6.9h.1V99.8h.8Zm-.8-2.5v-.8a1.7,1.7,0,0,0-.5-1.2,1.4,1.4,0,0,0-1.1-.4,1.6,1.6,0,0,0-1.3.6,2.5,2.5,0,0,0-.4,1.6,2.4,2.4,0,0,0,.4,1.5,1.7,1.7,0,0,0,2.4,0A1.9,1.9,0,0,0,192.6,105.5Z"/><path d="M197.2,108.1a2.4,2.4,0,0,1-1.9-.8,2.8,2.8,0,0,1-.8-2,2.9,2.9,0,0,1,.8-2.2,2.8,2.8,0,0,1,2-.8,2.4,2.4,0,0,1,1.9.8,2.9,2.9,0,0,1-2,5Zm.1-5a2.2,2.2,0,0,0-1.4.5,2.8,2.8,0,0,0-.5,1.6,2.5,2.5,0,0,0,.5,1.6,1.7,1.7,0,0,0,1.4.5,1.5,1.5,0,0,0,1.3-.5,3.4,3.4,0,0,0,0-3.2A1.9,1.9,0,0,0,197.3,103.1Z"/><path d="M204.6,107.2h0v3.3h-.9v-8h.9v.9h0a2.2,2.2,0,0,1,3.6-.3,2.9,2.9,0,0,1,.6,1.9,3.9,3.9,0,0,1-.7,2.3,2.5,2.5,0,0,1-1.8.8A1.9,1.9,0,0,1,204.6,107.2Zm0-2.3v.8a1.6,1.6,0,0,0,.4,1.2,1.5,1.5,0,0,0,1.1.4,1.5,1.5,0,0,0,1.3-.6,2.6,2.6,0,0,0,.5-1.7,2,2,0,0,0-.5-1.4,1.2,1.2,0,0,0-1.1-.5,1.7,1.7,0,0,0-1.3.5A2,2,0,0,0,204.6,104.9Z"/><path d="M212.1,108.1a2.6,2.6,0,0,1-1.9-.8,2.7,2.7,0,0,1-.7-2,2.9,2.9,0,0,1,.7-2.2,2.9,2.9,0,0,1,2.1-.8,2.6,2.6,0,0,1,1.9.8,3.3,3.3,0,0,1,.7,2.1,2.9,2.9,0,0,1-.8,2.1A2.6,2.6,0,0,1,212.1,108.1Zm.1-5a1.7,1.7,0,0,0-1.3.5,2.2,2.2,0,0,0-.5,1.6,2.1,2.1,0,0,0,.5,1.6,1.9,1.9,0,0,0,2.6,0,2.8,2.8,0,0,0,0-3.2A1.7,1.7,0,0,0,212.2,103.1Z"/><path d="M218.8,103.4c-.1-.2-.4-.2-.6-.2a1.4,1.4,0,0,0-1,.5,3,3,0,0,0-.4,1.5V108H216v-5.5h.8v1.1h.1a1.9,1.9,0,0,1,.5-.9,1.6,1.6,0,0,1,.9-.3h.5Z"/><path d="M223.1,108h-.9v-7.7h.9Z"/><path d="M230.8,108h-1l-.8-2.2h-3.3L225,108h-1l2.9-7.7h.9Zm-2.1-3-1.2-3.3a.7.7,0,0,1-.1-.5h-.1a.7.7,0,0,1-.1.5L226,105Z"/><path d="M231.5,109.7h-.8a7.3,7.3,0,0,0,0-9.4h.8a7.1,7.1,0,0,1,1.7,4.7A7,7,0,0,1,231.5,109.7Z"/><path d="M289.2,71.8l-1.4,1.8h-.6l1.2-1.8ZM288.4,82h-.9V74.3h.9Z"/><path d="M294.8,82h-.9V78.8c0-1.1-.4-1.7-1.3-1.7a1.5,1.5,0,0,0-1.5,1.7V82h-.9V76.5h.9v.9h0a1.9,1.9,0,0,1,1.8-1,2,2,0,0,1,1.4.5,2.9,2.9,0,0,1,.5,1.7Z"/><path d="M301,82h-.9v-.9h0a2,2,0,0,1-1.9,1,1.9,1.9,0,0,1-1.6-.7,3.2,3.2,0,0,1-.6-2,3.6,3.6,0,0,1,.6-2.2,2.2,2.2,0,0,1,1.9-.8,1.8,1.8,0,0,1,1.6.8h0V73.8h.9Zm-.9-2.5v-.8a1.4,1.4,0,0,0-.4-1.1,1.6,1.6,0,0,0-2.4.1,2.5,2.5,0,0,0-.4,1.6,2.1,2.1,0,0,0,.4,1.5,1.5,1.5,0,0,0,2.4,0A1.8,1.8,0,0,0,300.1,79.5Z"/><path d="M303.2,75.1l-.4-.2c-.2-.1-.2-.2-.2-.4a.4.4,0,0,1,.2-.4l.4-.2.4.2a.6.6,0,0,1,.1.4c0,.2,0,.3-.1.4Zm.4,6.9h-.9V76.5h.9Z"/><path d="M309,81.7a2.4,2.4,0,0,1-1.5.4,2.2,2.2,0,0,1-1.9-.8,2.5,2.5,0,0,1-.7-1.9,2.7,2.7,0,0,1,.8-2.2,2.4,2.4,0,0,1,2-.8,2.7,2.7,0,0,1,1.3.2v.9a2,2,0,0,0-1.3-.4,1.8,1.8,0,0,0-1.4.6,2.5,2.5,0,0,0-.5,1.6,2.5,2.5,0,0,0,.5,1.5,1.7,1.7,0,0,0,1.4.6,2.4,2.4,0,0,0,1.3-.5Z"/><path d="M314.6,79.5h-3.8a1.7,1.7,0,0,0,1.8,1.9,2.9,2.9,0,0,0,1.7-.6v.8a3.8,3.8,0,0,1-1.9.5,2.5,2.5,0,0,1-1.9-.7,3.3,3.3,0,0,1-.6-2.1,2.8,2.8,0,0,1,.7-2.1,2.2,2.2,0,0,1,1.8-.8,2.1,2.1,0,0,1,1.7.7,2.7,2.7,0,0,1,.5,1.9Zm-.9-.8a2.1,2.1,0,0,0-.3-1.2,1.3,1.3,0,0,0-1-.4,1.5,1.5,0,0,0-1.1.4,1.7,1.7,0,0,0-.5,1.2Z"/><path d="M315.5,81.8v-1a2.5,2.5,0,0,0,1.6.6c.8,0,1.2-.3,1.2-.8v-.4l-.3-.2-.4-.3-.5-.2-.6-.2-.5-.4-.3-.4c0-.2-.1-.3-.1-.6a1.4,1.4,0,0,1,.2-.6l.5-.5a.9.9,0,0,1,.7-.3h.8a2.3,2.3,0,0,1,1.2.2v.9a2.1,2.1,0,0,0-1.4-.4h-.8c0,.1-.1.2-.2.3v.6l.3.3.3.2.5.2.7.3.5.3.3.4c0,.2.1.4.1.6a1.4,1.4,0,0,1-.2.7l-.5.5a.9.9,0,0,1-.7.3H317A3.7,3.7,0,0,1,315.5,81.8Z"/><path d="M289.2,92.7h-3.9a1.7,1.7,0,0,0,1.8,1.9,2.7,2.7,0,0,0,1.7-.6v.8a3.8,3.8,0,0,1-1.9.5,2.5,2.5,0,0,1-1.9-.7,3.3,3.3,0,0,1-.6-2.1,2.8,2.8,0,0,1,.7-2.1,2.2,2.2,0,0,1,1.8-.8,2.1,2.1,0,0,1,1.7.7,2.7,2.7,0,0,1,.6,1.9Zm-1-.8a2.1,2.1,0,0,0-.3-1.2,1.3,1.3,0,0,0-1-.4,1.5,1.5,0,0,0-1.1.4,1.7,1.7,0,0,0-.5,1.2Z"/><path d="M295.6,95.3a2.4,2.4,0,0,1-2-.8,2.7,2.7,0,0,1-.7-2,3.3,3.3,0,0,1,.8-2.2,2.6,2.6,0,0,1,2-.7,2.4,2.4,0,0,1,1.9.7,3.5,3.5,0,0,1,0,4.2A2.4,2.4,0,0,1,295.6,95.3Zm0-5a1.6,1.6,0,0,0-1.3.6,2.5,2.5,0,0,0-.5,1.6,2.5,2.5,0,0,0,.5,1.5,1.6,1.6,0,0,0,1.3.6A1.8,1.8,0,0,0,297,94a2.4,2.4,0,0,0,.4-1.6,2.2,2.2,0,0,0-.4-1.5A1.8,1.8,0,0,0,295.6,90.3Z"/><path d="M304.1,95.2h-.9v-.9h0a1.9,1.9,0,0,1-1.7,1c-1.4,0-2-.8-2-2.3V89.7h.9v3.1c0,1.2.4,1.8,1.3,1.8a1.6,1.6,0,0,0,1.1-.5,2.1,2.1,0,0,0,.4-1.2V89.7h.9Z"/><path d="M308.3,95.1l-.8.2c-1,0-1.5-.5-1.5-1.6V90.4h-.9v-.7h.9V88.3l.9-.2v1.6h1.4v.7h-1.4v3.1a1.3,1.3,0,0,0,.2.8.6.6,0,0,0,.6.3l.6-.2Z"/><path d="M312.2,90.6l-.7-.2a1.4,1.4,0,0,0-.9.5,3.3,3.3,0,0,0-.4,1.5v2.8h-.9V89.7h.9v1.1h0a3.5,3.5,0,0,1,.6-.9,1.6,1.6,0,0,1,.9-.3h.5Z"/><path d="M317,95.2h-.9v-.9h0a2.1,2.1,0,0,1-3,.6,1.7,1.7,0,0,1-.5-1.2c0-1,.7-1.6,1.9-1.8l1.6-.2c0-.9-.4-1.4-1.1-1.4a2.4,2.4,0,0,0-1.8.7v-.9a3,3,0,0,1,1.9-.5c1.2,0,1.9.6,1.9,2Zm-.9-2.8-1.3.2a1.2,1.2,0,0,0-.9.3c-.2.1-.3.4-.3.8a.7.7,0,0,0,.2.6,1.1,1.1,0,0,0,.8.3,1.6,1.6,0,0,0,1.1-.5,1.5,1.5,0,0,0,.4-1.1Z"/><path d="M318.2,95V94a2.5,2.5,0,0,0,1.6.6c.8,0,1.2-.3,1.2-.8v-.4l-.3-.2-.4-.3-.5-.2-.6-.2-.5-.4-.3-.4c0-.2-.1-.3-.1-.6a1.4,1.4,0,0,1,.2-.6l.5-.5.6-.3h.8a2.7,2.7,0,0,1,1.3.2v.9a2.3,2.3,0,0,0-1.4-.4h-.8l-.2.3c0,.1-.1.2-.1.3s.1.2.1.3l.2.3.4.2.5.2.6.3.5.3a.5.5,0,0,1,.3.4,1.4,1.4,0,0,1,.2.6,1.4,1.4,0,0,1-.2.7,1.2,1.2,0,0,1-.5.5.9.9,0,0,1-.7.3h-.8A3.3,3.3,0,0,1,318.2,95Z"/><path d="M284.8,105.9h-3.9a2.2,2.2,0,0,0,.5,1.4,1.7,1.7,0,0,0,1.3.5,2.7,2.7,0,0,0,1.7-.6v.8a3.6,3.6,0,0,1-1.9.5,2.5,2.5,0,0,1-1.9-.7,3.3,3.3,0,0,1-.6-2.1,2.8,2.8,0,0,1,.7-2.1,2.2,2.2,0,0,1,1.8-.8,2.1,2.1,0,0,1,1.7.7,2.7,2.7,0,0,1,.6,1.9Zm-.9-.8a2.1,2.1,0,0,0-.4-1.2,1.2,1.2,0,0,0-1-.4,1.5,1.5,0,0,0-1.1.4,2.2,2.2,0,0,0-.5,1.2Z"/><path d="M285.7,108.2v-1a2.2,2.2,0,0,0,1.5.6c.8,0,1.2-.3,1.2-.8a.6.6,0,0,0-.1-.4l-.3-.2-.4-.3-.5-.2-.6-.2-.5-.4a.5.5,0,0,1-.2-.4,1.1,1.1,0,0,1-.1-.6,1.3,1.3,0,0,1,.1-.6l.5-.5a.9.9,0,0,1,.7-.3h.8a3,3,0,0,1,1.3.2v.9a2.5,2.5,0,0,0-1.4-.4h-.8l-.3.3v.6l.3.3.3.2.5.2.7.3.5.3.3.4a1.3,1.3,0,0,1,.1.6,1.4,1.4,0,0,1-.2.7l-.5.5-.6.3h-.9A3.2,3.2,0,0,1,285.7,108.2Z"/><path d="M293.1,108.3l-.8.2c-1,0-1.5-.5-1.5-1.6v-3.3h-.9v-.7h.9v-1.4l.9-.2v1.6h1.4v.7h-1.4v3.1a1.3,1.3,0,0,0,.2.8.6.6,0,0,0,.6.3l.6-.2Z"/><path d="M297,103.8l-.6-.2a1.4,1.4,0,0,0-1,.5,3.3,3.3,0,0,0-.4,1.5v2.8h-.8v-5.5h.8V104h.1a1.9,1.9,0,0,1,.5-.9,1.6,1.6,0,0,1,.9-.3h.5Z"/><path d="M302.3,108.4h-.9v-.9h0a1.7,1.7,0,0,1-1.7,1c-1.3,0-1.9-.8-1.9-2.3v-3.3h.8V106c0,1.2.5,1.8,1.4,1.8a1.2,1.2,0,0,0,1-.5,1.6,1.6,0,0,0,.4-1.2v-3.2h.9Z"/><path d="M306.5,108.3a1.5,1.5,0,0,1-.8.2c-.9,0-1.4-.5-1.4-1.6v-3.3h-1v-.7h1v-1.4l.9-.2v1.6h1.3v.7h-1.3v3.1c0,.4,0,.7.1.8a.9.9,0,0,0,.7.3l.5-.2Z"/><path d="M312.1,108.4h-.9v-.9h0a1.9,1.9,0,0,1-1.7,1c-1.4,0-2-.8-2-2.3v-3.3h.9V106c0,1.2.4,1.8,1.3,1.8a1.6,1.6,0,0,0,1.1-.5,2.1,2.1,0,0,0,.4-1.2v-3.2h.9Z"/><path d="M316.6,103.8l-.7-.2a1.2,1.2,0,0,0-.9.5,2.4,2.4,0,0,0-.4,1.5v2.8h-.9v-5.5h.9V104h0a2,2,0,0,1,.6-.9l.9-.3h.5Z"/><path d="M321.4,108.4h-.9v-.9h0a1.9,1.9,0,0,1-1.7,1,1.7,1.7,0,0,1-1.3-.4,1.7,1.7,0,0,1-.5-1.2q0-1.5,1.8-1.8l1.7-.2c0-.9-.4-1.4-1.1-1.4a2.4,2.4,0,0,0-1.8.7v-.9a2.7,2.7,0,0,1,1.8-.5,1.8,1.8,0,0,1,2,2Zm-.9-2.8-1.3.2a1.7,1.7,0,0,0-1,.3c-.2.1-.3.4-.3.8a.9.9,0,0,0,.3.6,1.1,1.1,0,0,0,.8.3,1.6,1.6,0,0,0,1.1-.5,1.5,1.5,0,0,0,.4-1.1Z"/><path d="M322.6,108.2v-1a2.5,2.5,0,0,0,1.6.6c.8,0,1.1-.3,1.1-.8a.6.6,0,0,0-.1-.4.2.2,0,0,0-.2-.2l-.4-.3-.5-.2-.7-.2-.4-.4-.3-.4a1.1,1.1,0,0,1-.1-.6,1.4,1.4,0,0,1,.2-.6,1.2,1.2,0,0,1,.5-.5.9.9,0,0,1,.6-.3h.8a2.7,2.7,0,0,1,1.3.2v.9a2.3,2.3,0,0,0-1.4-.4h-.8l-.2.3a.5.5,0,0,0,0,.6c0,.1.1.2.2.3l.4.2.5.2.6.3.5.3a.5.5,0,0,1,.3.4,1.3,1.3,0,0,1,.1.6,1.5,1.5,0,0,1-.1.7l-.5.5a1.1,1.1,0,0,1-.7.3h-.8A3.3,3.3,0,0,1,322.6,108.2Z"/><path d="M485.2,58.8h-.9V52.1q0,.1-.3.3l-.4.2-.5.3h-.5v-.9l.6-.2.6-.3.6-.3.5-.4h.3Z"/><path d="M488.3,58.9l-.4-.2c-.1-.1-.1-.2-.1-.4s0-.3.1-.4l.4-.2.5.2a.5.5,0,0,1,0,.8Z"/><path d="M498.6,58.5a4.6,4.6,0,0,1-2.1.4,3.6,3.6,0,0,1-2.7-1,4.5,4.5,0,0,1-1-2.8,4.1,4.1,0,0,1,1.1-3,3.8,3.8,0,0,1,2.9-1.1,4.8,4.8,0,0,1,1.8.3v.9a3.9,3.9,0,0,0-1.8-.4,2.9,2.9,0,0,0-2.2.9,3.2,3.2,0,0,0-.8,2.3,3.3,3.3,0,0,0,.7,2.3,3,3,0,0,0,2.1.8,4.6,4.6,0,0,0,2-.5Z"/><path d="M502.2,58.9a2.2,2.2,0,0,1-1.9-.8,2.8,2.8,0,0,1-.8-2,3.3,3.3,0,0,1,.8-2.2,2.7,2.7,0,0,1,2-.7,2.6,2.6,0,0,1,2,.7A3.3,3.3,0,0,1,505,56a2.9,2.9,0,0,1-.8,2.1A2.6,2.6,0,0,1,502.2,58.9Zm.1-5a1.8,1.8,0,0,0-1.4.6,2.5,2.5,0,0,0-.5,1.6,2.5,2.5,0,0,0,.5,1.5,1.8,1.8,0,0,0,1.4.6,1.5,1.5,0,0,0,1.3-.6,2.5,2.5,0,0,0,.5-1.6,2.3,2.3,0,0,0-.5-1.5A1.5,1.5,0,0,0,502.3,53.9Z"/><path d="M507.1,58.8h-.8V50.6h.8Z"/><path d="M513.2,56.3h-3.9a2.9,2.9,0,0,0,.5,1.4,2.1,2.1,0,0,0,1.3.5,2.5,2.5,0,0,0,1.7-.6v.8a3.3,3.3,0,0,1-1.9.5,2.3,2.3,0,0,1-1.8-.7,3.3,3.3,0,0,1-.7-2.1,2.9,2.9,0,0,1,.8-2.1,1.9,1.9,0,0,1,1.8-.8,1.9,1.9,0,0,1,1.6.7,2.7,2.7,0,0,1,.6,1.9Zm-.9-.8a2.1,2.1,0,0,0-.3-1.2,1.3,1.3,0,0,0-1-.4,1.4,1.4,0,0,0-1.1.4,1.7,1.7,0,0,0-.5,1.2Z"/><path d="M517,58.7l-.8.2c-1,0-1.5-.5-1.5-1.6V54h-.9v-.7h.9V51.9l.9-.2v1.6H517V54h-1.4v3.1a1.3,1.3,0,0,0,.2.8.6.6,0,0,0,.6.3l.6-.2Z"/><path d="M522,58.8h-.9v-.9h0a1.8,1.8,0,0,1-1.7,1,1.8,1.8,0,0,1-1.3-.4,1.6,1.6,0,0,1-.4-1.2q0-1.5,1.8-1.8l1.6-.2c0-.9-.4-1.4-1.1-1.4a2.4,2.4,0,0,0-1.8.7v-.9a3,3,0,0,1,1.9-.5c1.3,0,1.9.6,1.9,2Zm-.9-2.8-1.3.2a1.2,1.2,0,0,0-.9.3c-.2.1-.3.4-.3.8a1.4,1.4,0,0,0,.2.6,1.1,1.1,0,0,0,.8.3,1.4,1.4,0,0,0,1.1-.5,1.6,1.6,0,0,0,.4-1.2Z"/><path d="M526.9,51.9l-.4-.2a.5.5,0,0,1-.2-.4l.2-.4.4-.2a.5.5,0,0,1,.4.2l.2.4a.7.7,0,0,1-.6.6Zm.4,6.9h-.8V53.3h.8Z"/><path d="M533.6,58.8h-.9V55.6c0-1.1-.4-1.7-1.3-1.7a1.5,1.5,0,0,0-1.5,1.7v3.2H529V53.3h.9v.9h0a1.9,1.9,0,0,1,1.8-1,1.6,1.6,0,0,1,1.4.5,2.9,2.9,0,0,1,.5,1.7Z"/><path d="M537.8,51.4h-.5c-.7,0-1,.4-1,1.1v.9h1.3V54h-1.3v4.8h-.8V54h-1v-.7h1v-.9A1.7,1.7,0,0,1,536,51a1.7,1.7,0,0,1,1.2-.5h.6Z"/><path d="M540.8,58.9a2.3,2.3,0,0,1-2-.8,2.7,2.7,0,0,1-.7-2,3.2,3.2,0,0,1,.7-2.2,2.8,2.8,0,0,1,2.1-.7,2.5,2.5,0,0,1,1.9.7,2.9,2.9,0,0,1-2,5Zm0-5a1.6,1.6,0,0,0-1.3.6,2.5,2.5,0,0,0-.5,1.6,2.5,2.5,0,0,0,.5,1.5,1.6,1.6,0,0,0,1.3.6,1.5,1.5,0,0,0,1.3-.6,2.5,2.5,0,0,0,.5-1.6,2.3,2.3,0,0,0-.5-1.5A1.5,1.5,0,0,0,540.8,53.9Z"/><path d="M547.7,54.2,547,54a1.1,1.1,0,0,0-.9.5,2.4,2.4,0,0,0-.4,1.5v2.8h-.9V53.3h.9v1.1h0a1.5,1.5,0,0,1,.6-.9,1.1,1.1,0,0,1,.8-.3h.6Z"/><path d="M556.3,58.8h-.9V55.6a3.9,3.9,0,0,0-.2-1.3,1.2,1.2,0,0,0-1.9.1,1.9,1.9,0,0,0-.4,1.2v3.2H552V55.5c0-1.1-.4-1.6-1.3-1.6a1.1,1.1,0,0,0-.9.5,1.6,1.6,0,0,0-.4,1.2v3.2h-.9V53.3h.9v.9h0a1.9,1.9,0,0,1,1.7-1,1.7,1.7,0,0,1,1,.3,1.6,1.6,0,0,1,.6.8,1.8,1.8,0,0,1,1.8-1.1c1.2,0,1.8.7,1.8,2.2Z"/><path d="M561.8,58.8h-.9v-.9h0a1.8,1.8,0,0,1-1.7,1,1.8,1.8,0,0,1-1.3-.4,1.6,1.6,0,0,1-.4-1.2q0-1.5,1.8-1.8l1.6-.2c0-.9-.3-1.4-1.1-1.4a2.4,2.4,0,0,0-1.8.7v-.9a3,3,0,0,1,1.9-.5c1.3,0,1.9.6,1.9,2Zm-.9-2.8-1.3.2a1.2,1.2,0,0,0-.9.3c-.2.1-.3.4-.3.8a.9.9,0,0,0,.3.6.8.8,0,0,0,.7.3,1.4,1.4,0,0,0,1.1-.5,1.6,1.6,0,0,0,.4-1.2Z"/><path d="M567.1,58.5a2.4,2.4,0,0,1-1.5.4,2.2,2.2,0,0,1-1.9-.8,2.5,2.5,0,0,1-.7-1.9,2.7,2.7,0,0,1,.8-2.2,2.4,2.4,0,0,1,2-.8,2.5,2.5,0,0,1,1.3.2v.9a2,2,0,0,0-1.3-.4,1.8,1.8,0,0,0-1.4.6,2.5,2.5,0,0,0-.5,1.6,2.5,2.5,0,0,0,.5,1.5,1.7,1.7,0,0,0,1.4.6,2.4,2.4,0,0,0,1.3-.5Zm-.5,1.7c0,.6-.4.9-1.4.9h-.4v-.5h.4c.5,0,.8-.1.8-.4s-.3-.5-.7-.5H565v-1h.6v.5a1.1,1.1,0,0,1,.8.3C566.6,59.7,566.6,59.9,566.6,60.2Z"/><path d="M570.6,58.9a2.2,2.2,0,0,1-1.9-.8,2.7,2.7,0,0,1-.7-2,3.2,3.2,0,0,1,.7-2.2,2.8,2.8,0,0,1,2.1-.7,2.5,2.5,0,0,1,1.9.7,3.3,3.3,0,0,1,.7,2.1,2.9,2.9,0,0,1-.8,2.1A2.6,2.6,0,0,1,570.6,58.9Zm.1-5a1.5,1.5,0,0,0-1.3.6,2.1,2.1,0,0,0-.5,1.6,2,2,0,0,0,.5,1.5,1.7,1.7,0,0,0,2.6,0,2.5,2.5,0,0,0,.5-1.6,2.3,2.3,0,0,0-.5-1.5A1.5,1.5,0,0,0,570.7,53.9Zm1.7-2.9a1.5,1.5,0,0,1-.2.9.9.9,0,0,1-.7.3l-.9-.2-.6-.3c-.3,0-.5.2-.5.6H569a1.2,1.2,0,0,1,.3-.9.8.8,0,0,1,.7-.3l.8.2a1.1,1.1,0,0,0,.7.3c.3,0,.4-.2.4-.6Z"/><path d="M579.1,56.3h-3.9a2.2,2.2,0,0,0,.5,1.4,1.7,1.7,0,0,0,1.3.5,2.7,2.7,0,0,0,1.7-.6v.8a3.6,3.6,0,0,1-1.9.5,2.1,2.1,0,0,1-1.8-.7,3.5,3.5,0,0,1,0-4.2,2.2,2.2,0,0,1,1.8-.8,2.1,2.1,0,0,1,1.7.7,2.7,2.7,0,0,1,.6,1.9Zm-.9-.8a1.6,1.6,0,0,0-.4-1.2,1.4,1.4,0,0,0-2,0,2.3,2.3,0,0,0-.6,1.2Z"/><path d="M580,58.6v-1a2.5,2.5,0,0,0,1.6.6c.7,0,1.1-.3,1.1-.8a.6.6,0,0,0-.1-.4.2.2,0,0,0-.2-.2l-.4-.3-.5-.2-.7-.2-.4-.4c-.2-.1-.3-.2-.3-.4a1.1,1.1,0,0,1-.1-.6.7.7,0,0,1,.2-.6,1,1,0,0,1,.4-.5,1.1,1.1,0,0,1,.7-.3h.8a2.7,2.7,0,0,1,1.3.2v.9a2.3,2.3,0,0,0-1.4-.4h-.8c-.1.1-.2.2-.2.3s-.1.2-.1.3a.4.4,0,0,0,.1.3c0,.1.1.2.2.3l.4.2.4.2.7.3.5.3.3.4a1.3,1.3,0,0,1,.1.6.8.8,0,0,1-.2.7,1,1,0,0,1-.4.5,1.1,1.1,0,0,1-.7.3h-.9A3.2,3.2,0,0,1,580,58.6Z"/><path d="M592.5,58.8h-.9v-1h0a2,2,0,0,1-1.9,1.1,2.1,2.1,0,0,1-1.7-.7,3.2,3.2,0,0,1-.6-2,3.1,3.1,0,0,1,.7-2.2,2.1,2.1,0,0,1,1.8-.8,2,2,0,0,1,1.7.8h0V50.6h.9Zm-.9-2.5v-.8a1.4,1.4,0,0,0-.5-1.1c-.2-.4-.6-.5-1.1-.5a1.4,1.4,0,0,0-1.2.6,2.5,2.5,0,0,0-.5,1.6,2.1,2.1,0,0,0,.4,1.5,1.5,1.5,0,0,0,2.4,0A1.9,1.9,0,0,0,591.6,56.3Z"/><path d="M596.4,58.9a2.2,2.2,0,0,1-1.9-.8,2.7,2.7,0,0,1-.7-2,3.2,3.2,0,0,1,.7-2.2,2.8,2.8,0,0,1,2.1-.7,2.5,2.5,0,0,1,1.9.7,3.3,3.3,0,0,1,.7,2.1,2.9,2.9,0,0,1-.8,2.1A2.6,2.6,0,0,1,596.4,58.9Zm.1-5a1.5,1.5,0,0,0-1.3.6,2.1,2.1,0,0,0-.5,1.6,2,2,0,0,0,.5,1.5,1.7,1.7,0,0,0,2.6,0,2.5,2.5,0,0,0,.5-1.6,2.3,2.3,0,0,0-.5-1.5A1.5,1.5,0,0,0,596.5,53.9Z"/><path d="M607.8,58.8h-.9v-.9h0a1.7,1.7,0,0,1-1.7,1c-1.3,0-1.9-.8-1.9-2.3V53.3h.8v3.1c0,1.2.5,1.8,1.4,1.8a1.4,1.4,0,0,0,1-.5,1.6,1.6,0,0,0,.4-1.2V53.3h.9Z"/><path d="M609.2,58.6v-1a2.2,2.2,0,0,0,1.5.6c.8,0,1.2-.3,1.2-.8a.6.6,0,0,0-.1-.4l-.3-.2-.4-.3-.5-.2-.6-.2-.5-.4a.5.5,0,0,1-.2-.4,1.1,1.1,0,0,1-.1-.6,1.3,1.3,0,0,1,.1-.6l.5-.5a.9.9,0,0,1,.7-.3h.8a2.7,2.7,0,0,1,1.3.2v.9a2.5,2.5,0,0,0-1.4-.4h-.8c-.1.1-.2.2-.2.3s-.1.2-.1.3a.4.4,0,0,0,.1.3c0,.1.1.2.2.3l.3.2.5.2.7.3.5.3.3.4a1.3,1.3,0,0,1,.1.6,1.4,1.4,0,0,1-.2.7l-.5.5a.9.9,0,0,1-.6.3h-.9A3.2,3.2,0,0,1,609.2,58.6Z"/><path d="M618.5,58.8h-.9v-.9h0a1.8,1.8,0,0,1-1.7,1c-1.3,0-2-.8-2-2.3V53.3h.9v3.1c0,1.2.5,1.8,1.3,1.8a1.4,1.4,0,0,0,1.1-.5,1.6,1.6,0,0,0,.4-1.2V53.3h.9Z"/><path d="M624.1,58.8h-.9v-.9h0a1.8,1.8,0,0,1-1.7,1,1.8,1.8,0,0,1-1.3-.4,1.6,1.6,0,0,1-.4-1.2q0-1.5,1.8-1.8l1.6-.2c0-.9-.4-1.4-1.1-1.4a2.4,2.4,0,0,0-1.8.7v-.9a3,3,0,0,1,1.9-.5c1.3,0,1.9.6,1.9,2Zm-.9-2.8-1.3.2a1.2,1.2,0,0,0-.9.3c-.2.1-.3.4-.3.8a1.4,1.4,0,0,0,.2.6,1.1,1.1,0,0,0,.8.3,1.5,1.5,0,0,0,1.5-1.7Zm.1-5.5-1.4,1.7h-.7l1.2-1.7Z"/><path d="M628.5,54.2l-.6-.2a1.4,1.4,0,0,0-1,.5,3.3,3.3,0,0,0-.4,1.5v2.8h-.8V53.3h.8v1.1h.1a1.9,1.9,0,0,1,.5-.9,1.6,1.6,0,0,1,.9-.3h.5Z"/><path d="M629.8,51.9l-.4-.2a.5.5,0,0,1-.2-.4.8.8,0,0,1,.2-.4l.4-.2.4.2.2.4a.7.7,0,0,1-.6.6Zm.4,6.9h-.8V53.3h.8Z"/><path d="M634.2,58.9a2.2,2.2,0,0,1-1.9-.8,2.8,2.8,0,0,1-.8-2,3.3,3.3,0,0,1,.8-2.2,2.7,2.7,0,0,1,2-.7,2.6,2.6,0,0,1,2,.7A3.3,3.3,0,0,1,637,56a2.9,2.9,0,0,1-.8,2.1A2.6,2.6,0,0,1,634.2,58.9Zm.1-5a1.8,1.8,0,0,0-1.4.6,2.5,2.5,0,0,0-.5,1.6,2.5,2.5,0,0,0,.5,1.5,1.8,1.8,0,0,0,1.4.6,1.5,1.5,0,0,0,1.3-.6,2.5,2.5,0,0,0,.5-1.6,2.3,2.3,0,0,0-.5-1.5A1.5,1.5,0,0,0,634.3,53.9Z"/><path d="M485.8,73.7a1.3,1.3,0,0,0-.1-.6l-.3-.4-.5-.3h-1l-.5.2-.5.3-.4.4v-1l.9-.5a2,2,0,0,1,1.1-.2h.9l.7.4a1.6,1.6,0,0,1,.4.7,2,2,0,0,1,.2.9,2.2,2.2,0,0,1-.1.8l-.3.7-.6.6-.7.6-.9.7-.6.5-.3.5v.5H487v.8h-4.8V79c0-.3.1-.6.1-.8a1.6,1.6,0,0,1,.4-.7,2.3,2.3,0,0,1,.7-.7,3.6,3.6,0,0,1,.9-.8l.7-.6.5-.5a1.4,1.4,0,0,0,.2-.6A1.3,1.3,0,0,0,485.8,73.7Z"/><path d="M488.7,79.5h-.4a.6.6,0,0,1-.2-.5.4.4,0,0,1,.2-.4.5.5,0,0,1,.4-.2l.4.2a.8.8,0,0,1,.2.4c0,.2-.1.3-.2.5Z"/><path d="M497.6,72.5h-3v2.7h2.7V76h-2.7v3.4h-.9V71.7h3.9Z"/><path d="M501.1,79.5a2.4,2.4,0,0,1-1.9-.7,3.2,3.2,0,0,1,0-4.2,2.4,2.4,0,0,1,2-.8,2.6,2.6,0,0,1,2,.7,3.3,3.3,0,0,1,.6,2.1,3.2,3.2,0,0,1-.7,2.2A2.7,2.7,0,0,1,501.1,79.5Zm.1-5a1.8,1.8,0,0,0-1.4.6,2.5,2.5,0,0,0-.5,1.6,2.1,2.1,0,0,0,.5,1.5,1.8,1.8,0,0,0,1.4.6,1.9,1.9,0,0,0,1.3-.5,3.4,3.4,0,0,0,0-3.2A1.6,1.6,0,0,0,501.2,74.5Z"/><path d="M508,74.8l-.7-.2a1.2,1.2,0,0,0-.9.6,2,2,0,0,0-.4,1.4v2.8h-.9V73.9h.9V75h0l.6-.9a1.6,1.6,0,0,1,.9-.3h.5Z"/><path d="M516.7,79.4h-.9V76.3a2.4,2.4,0,0,0-.3-1.4,1.3,1.3,0,0,0-.9-.4,1.4,1.4,0,0,0-1,.5,2,2,0,0,0-.4,1.3v3.1h-.9V76.2c0-1.1-.4-1.7-1.2-1.7a1.4,1.4,0,0,0-1,.5,2.5,2.5,0,0,0-.4,1.3v3.1h-.8V73.9h.8v.9h.1a1.7,1.7,0,0,1,1.7-1,1.9,1.9,0,0,1,1,.3,2.2,2.2,0,0,1,.5.8,2,2,0,0,1,1.9-1.1c1.2,0,1.8.7,1.8,2.2Z"/><path d="M522.7,79.4h-.9v-.9h0a1.9,1.9,0,0,1-1.7,1c-1.3,0-2-.7-2-2.3V73.9h.9v3.2c0,1.1.4,1.7,1.3,1.7a1.6,1.6,0,0,0,1.1-.5,2.1,2.1,0,0,0,.4-1.2V73.9h.9Z"/><path d="M525.2,79.4h-.9V71.3h.9Z"/><path d="M530.8,79.4h-.9v-.8h0a1.9,1.9,0,0,1-1.7.9,2,2,0,0,1-1.3-.4,1.5,1.5,0,0,1-.4-1.1q0-1.6,1.8-1.8l1.6-.3c0-.9-.3-1.4-1.1-1.4a3.4,3.4,0,0,0-1.8.7v-.9a4.1,4.1,0,0,1,1.9-.5c1.3,0,1.9.7,1.9,2Zm-.9-2.8-1.3.2-.9.3a1,1,0,0,0-.3.8.6.6,0,0,0,.3.6.9.9,0,0,0,.7.3,1.2,1.2,0,0,0,1.1-.5,1.4,1.4,0,0,0,.4-1.1Z"/><path d="M539.7,76.9h-3.9a2,2,0,0,0,.5,1.4,1.9,1.9,0,0,0,1.3.5,2.7,2.7,0,0,0,1.7-.6V79a2.9,2.9,0,0,1-1.9.5,2.1,2.1,0,0,1-1.8-.7,3.5,3.5,0,0,1,0-4.2,2.5,2.5,0,0,1,1.8-.8,1.9,1.9,0,0,1,1.7.7,2.9,2.9,0,0,1,.6,1.9Zm-.9-.8a1.2,1.2,0,0,0-.4-1.1,1.1,1.1,0,0,0-1-.5,1.4,1.4,0,0,0-1,.5,2.4,2.4,0,0,0-.6,1.1Z"/><path d="M548.2,76.9h-3.8a1.6,1.6,0,0,0,.5,1.4,1.7,1.7,0,0,0,1.3.5,2.9,2.9,0,0,0,1.7-.6V79a3.1,3.1,0,0,1-2,.5,2.4,2.4,0,0,1-1.8-.7,3.3,3.3,0,0,1-.6-2.1,2.8,2.8,0,0,1,.7-2.1,2.5,2.5,0,0,1,1.8-.8,2.1,2.1,0,0,1,1.7.7,3.6,3.6,0,0,1,.5,1.9Zm-.9-.8A1.6,1.6,0,0,0,547,75a1.4,1.4,0,0,0-1-.5,1.7,1.7,0,0,0-1.6,1.6Z"/><path d="M554,79.4h-.8V76.3c0-1.2-.5-1.8-1.3-1.8a1.4,1.4,0,0,0-1.1.5,2.1,2.1,0,0,0-.5,1.3v3.1h-.8V73.9h.8v.9h.1a1.9,1.9,0,0,1,1.8-1,1.8,1.8,0,0,1,1.4.6,2.7,2.7,0,0,1,.4,1.7Z"/><path d="M559.9,73.9l-2.2,5.5h-.8l-2.1-5.5h.9l1.4,4a3.1,3.1,0,0,1,.2.8h0c.1-.3.1-.5.2-.8l1.5-4Z"/><path d="M561.2,72.5h-.4l-.2-.4a.8.8,0,0,1,.2-.5h.8a.8.8,0,0,1,.2.5l-.2.4Zm.4,6.9h-.9V73.9h.9Z"/><path d="M567.2,79.4h-.8v-.8h-.1a1.9,1.9,0,0,1-1.7.9,1.6,1.6,0,0,1-1.2-.4,1.3,1.3,0,0,1-.5-1.1q0-1.6,1.8-1.8l1.7-.3c0-.9-.4-1.4-1.2-1.4a3.4,3.4,0,0,0-1.8.7v-.9a4.1,4.1,0,0,1,1.9-.5c1.3,0,1.9.7,1.9,2Zm-.8-2.8-1.4.2-.9.3a1,1,0,0,0-.3.8.6.6,0,0,0,.3.6.9.9,0,0,0,.7.3,1.2,1.2,0,0,0,1.1-.5,1.4,1.4,0,0,0,.5-1.1Z"/><path d="M571.4,79.2v-.9a2.7,2.7,0,0,0,1.5.5c.8,0,1.2-.3,1.2-.8a.4.4,0,0,0-.1-.3l-.3-.3a.5.5,0,0,0-.4-.2l-.5-.2-.6-.3-.5-.3c-.1-.2-.2-.3-.2-.5a.7.7,0,0,1-.1-.5,1.5,1.5,0,0,1,.1-.7c.2-.2.3-.4.5-.5l.7-.3h.8l1.2.2v.9a2.8,2.8,0,0,0-1.3-.4h-.8l-.3.3v.7l.3.2.3.2.5.2.7.3.5.3.3.5a.7.7,0,0,1,.1.5,1.9,1.9,0,0,1-.2.8c-.1.2-.3.3-.5.5l-.7.2h-.8A3.2,3.2,0,0,1,571.4,79.2Z"/><path d="M578.5,79.5a2.5,2.5,0,0,1-1.9-.7,3.5,3.5,0,0,1,0-4.2,2.5,2.5,0,0,1,2.1-.8,2.5,2.5,0,0,1,1.9.7,2.8,2.8,0,0,1,.7,2.1,3.3,3.3,0,0,1-.8,2.2A2.6,2.6,0,0,1,578.5,79.5Zm.1-5a1.5,1.5,0,0,0-1.3.6,2.1,2.1,0,0,0-.5,1.6,1.7,1.7,0,0,0,.5,1.5,1.5,1.5,0,0,0,1.3.6,1.7,1.7,0,0,0,1.3-.5,2.8,2.8,0,0,0,0-3.2A1.5,1.5,0,0,0,578.6,74.5Z"/><path d="M583.5,79.4h-.9V71.3h.9Z"/><path d="M585.6,72.5h-.4L585,72a.8.8,0,0,1,.2-.5h.8a.8.8,0,0,1,.2.5l-.2.4Zm.4,6.9h-.9V73.9h.9Z"/><path d="M591.4,79.2a3.3,3.3,0,0,1-1.5.3,2.5,2.5,0,0,1-1.9-.7,3.2,3.2,0,0,1-.7-2,3.3,3.3,0,0,1,.8-2.2,2.9,2.9,0,0,1,2.1-.8,2.1,2.1,0,0,1,1.2.3V75a2.1,2.1,0,0,0-1.3-.5,1.6,1.6,0,0,0-1.3.6,2.3,2.3,0,0,0-.6,1.6,2.1,2.1,0,0,0,.5,1.5,1.8,1.8,0,0,0,1.4.6,2.1,2.1,0,0,0,1.3-.5Z"/><path d="M593.1,72.5h-.4l-.2-.4a.8.8,0,0,1,.2-.5h.8a.8.8,0,0,1,.2.5l-.2.4Zm.4,6.9h-.8V73.9h.8Z"/><path d="M597.8,79.4h-.9c-.9,0-1.4-.5-1.4-1.6V74.7h-.9v-.8h.9V72.6l.9-.3v1.6h1.4v.8h-1.4v3.1a1.1,1.1,0,0,0,.2.8.8.8,0,0,0,.6.2l.6-.2Z"/><path d="M602.8,79.4h-.9v-.8h0a2,2,0,0,1-1.7.9,1.7,1.7,0,0,1-1.3-.4,1.6,1.6,0,0,1-.5-1.1q0-1.6,1.8-1.8l1.7-.3c0-.9-.4-1.4-1.1-1.4a2.9,2.9,0,0,0-1.8.7v-.9a3.5,3.5,0,0,1,1.8-.5,1.8,1.8,0,0,1,2,2Zm-.9-2.8-1.3.2-1,.3a1,1,0,0,0-.3.8.6.6,0,0,0,.3.6,1.1,1.1,0,0,0,.8.3,1.3,1.3,0,0,0,1.1-.5,1.8,1.8,0,0,0,.4-1.1Z"/><path d="M608.1,79.2a4,4,0,0,1-1.5.3,2.4,2.4,0,0,1-1.9-.7,2.8,2.8,0,0,1-.8-2,3.3,3.3,0,0,1,.8-2.2,2.9,2.9,0,0,1,2.1-.8,2.8,2.8,0,0,1,1.3.3V75a2.4,2.4,0,0,0-1.3-.5,1.7,1.7,0,0,0-1.4.6,2.3,2.3,0,0,0-.6,1.6,1.8,1.8,0,0,0,.6,1.5,1.5,1.5,0,0,0,1.3.6,2.7,2.7,0,0,0,1.4-.5Zm-.5,1.6q0,.9-1.5.9h-.3v-.5h.4c.5,0,.7-.2.7-.5s-.2-.4-.7-.4H606v-1h.6V80a.8.8,0,0,1,.7.2A.6.6,0,0,1,607.6,80.8Z"/><path d="M611.6,79.5a2.7,2.7,0,0,1-2-.7,3.3,3.3,0,0,1-.7-2.1,2.9,2.9,0,0,1,.8-2.1,2.4,2.4,0,0,1,2-.8,2.4,2.4,0,0,1,1.9.7,2.8,2.8,0,0,1,.7,2.1,3.2,3.2,0,0,1-.7,2.2A2.7,2.7,0,0,1,611.6,79.5Zm.1-5a1.7,1.7,0,0,0-1.4.6,2.5,2.5,0,0,0-.5,1.6,2.1,2.1,0,0,0,.5,1.5,1.7,1.7,0,0,0,1.4.6,1.9,1.9,0,0,0,1.3-.5,3.4,3.4,0,0,0,0-3.2A1.6,1.6,0,0,0,611.7,74.5Zm1.7-2.9a1.2,1.2,0,0,1-.3.9.8.8,0,0,1-.7.4l-.8-.3a1.1,1.1,0,0,0-.7-.2c-.3,0-.4.2-.4.6H610a1.6,1.6,0,0,1,.2-1,.9.9,0,0,1,.7-.3,1.3,1.3,0,0,1,.8.3l.7.2c.3,0,.5-.2.5-.6Z"/><path d="M620,76.9h-3.8a1.6,1.6,0,0,0,.5,1.4,1.7,1.7,0,0,0,1.3.5,2.9,2.9,0,0,0,1.7-.6V79a3.1,3.1,0,0,1-2,.5,2.4,2.4,0,0,1-1.8-.7,3.3,3.3,0,0,1-.7-2.1,2.9,2.9,0,0,1,.8-2.1,2.5,2.5,0,0,1,1.8-.8,2.1,2.1,0,0,1,1.7.7,3.6,3.6,0,0,1,.5,1.9Zm-.9-.8a1.6,1.6,0,0,0-.3-1.1,1.4,1.4,0,0,0-1-.5,1.7,1.7,0,0,0-1.6,1.6Z"/><path d="M620.9,79.2v-.9a3,3,0,0,0,1.6.5c.8,0,1.2-.3,1.2-.8v-.3l-.3-.3a.5.5,0,0,0-.4-.2l-.5-.2-.6-.3-.5-.3-.3-.5a4.3,4.3,0,0,1-.1-.5,1.4,1.4,0,0,1,.2-.7,1.2,1.2,0,0,1,.5-.5l.7-.3h.7l1.3.2v.9a2.9,2.9,0,0,0-1.4-.4h-.8l-.2.3v.3c0,.1.1.3.1.4l.3.2.3.2.5.2.7.3.5.3.3.5a4.3,4.3,0,0,1,.1.5,1.9,1.9,0,0,1-.2.8l-.5.5-.7.2h-.8A3.3,3.3,0,0,1,620.9,79.2Z"/><path d="M486.1,97.7a1.5,1.5,0,0,1-.2.9,2.2,2.2,0,0,1-.5.8,1.9,1.9,0,0,1-.9.4l-1.1.2a2.9,2.9,0,0,1-1.7-.4v-1a2.8,2.8,0,0,0,1.8.6h.7a.9.9,0,0,0,.6-.3l.3-.4a1.3,1.3,0,0,0,.1-.6c0-1-.7-1.6-2.1-1.6h-.6v-.7h.6c1.2,0,1.9-.5,1.9-1.4s-.5-1.3-1.5-1.3a3,3,0,0,0-1.5.5v-.8a3.4,3.4,0,0,1,1.7-.5l.9.2.7.3.4.6a1.9,1.9,0,0,1,.2.8,1.9,1.9,0,0,1-1.6,1.9h0l.8.2.5.4a2.1,2.1,0,0,1,.4.6A1.5,1.5,0,0,1,486.1,97.7Z"/><path d="M488,100l-.4-.2a.8.8,0,0,1-.2-.4c0-.2.1-.3.2-.5h.9a.9.9,0,0,1,.1.5.6.6,0,0,1-.1.4Z"/><path d="M497,99.9h-4V92.2h.9V99H497Z"/><path d="M498.4,93l-.4-.2c-.1-.1-.1-.2-.1-.4s0-.3.1-.4l.4-.2a.5.5,0,0,1,.4.2c.2.1.2.2.2.4s0,.3-.2.4A.5.5,0,0,1,498.4,93Zm.5,6.9H498V94.4h.9Z"/><path d="M505.2,99.9h-.9v-1h0a2,2,0,0,1-1.9,1.1,1.9,1.9,0,0,1-1.6-.8,2.8,2.8,0,0,1-.6-2,3.3,3.3,0,0,1,.6-2.1,2.3,2.3,0,0,1,1.9-.9,1.7,1.7,0,0,1,1.6.9h0V91.7h.9Zm-.9-2.5v-.8a1.6,1.6,0,0,0-.4-1.2,1.5,1.5,0,0,0-1.1-.4,1.6,1.6,0,0,0-1.3.6,2.5,2.5,0,0,0-.4,1.6,2.4,2.4,0,0,0,.4,1.5,1.7,1.7,0,0,0,2.4,0A1.8,1.8,0,0,0,504.3,97.4Z"/><path d="M510.8,99.9H510V99h-.1a1.7,1.7,0,0,1-1.7,1,2.1,2.1,0,0,1-1.2-.4,1.3,1.3,0,0,1-.5-1.2q0-1.5,1.8-1.8l1.7-.2c0-1-.4-1.4-1.2-1.4a3.2,3.2,0,0,0-1.8.6v-.9a4.1,4.1,0,0,1,1.9-.5c1.3,0,1.9.7,1.9,2.1Zm-.8-2.8-1.4.2a1.2,1.2,0,0,0-.9.3.8.8,0,0,0-.3.7.9.9,0,0,0,.3.7.8.8,0,0,0,.7.2,1.4,1.4,0,0,0,1.1-.4,1.7,1.7,0,0,0,.5-1.2Z"/><path d="M519,99.6a2.4,2.4,0,0,1-1.5.4,2.7,2.7,0,0,1-1.9-.8,3,3,0,0,1-.7-2,2.9,2.9,0,0,1,.8-2.1,2.6,2.6,0,0,1,2.1-.9,2.8,2.8,0,0,1,1.3.3v.9a2.5,2.5,0,0,0-1.4-.4,1.6,1.6,0,0,0-1.3.6,2.1,2.1,0,0,0-.6,1.6,2.5,2.5,0,0,0,.5,1.5,1.7,1.7,0,0,0,1.4.5,2,2,0,0,0,1.3-.4Z"/><path d="M522.6,100a2.6,2.6,0,0,1-2-.8,2.7,2.7,0,0,1-.7-2,2.9,2.9,0,0,1,.7-2.2,2.9,2.9,0,0,1,2.1-.8,2.6,2.6,0,0,1,1.9.8,2.9,2.9,0,0,1-2,5Zm0-5a1.9,1.9,0,0,0-1.3.5,2.8,2.8,0,0,0-.5,1.6,2.5,2.5,0,0,0,.5,1.6,1.5,1.5,0,0,0,1.3.5,1.4,1.4,0,0,0,1.3-.5,2.8,2.8,0,0,0,0-3.2A1.7,1.7,0,0,0,522.6,95Z"/><path d="M534.4,99.9h-.9V96.7a2.3,2.3,0,0,0-.3-1.3c-.1-.3-.5-.4-.9-.4a1.1,1.1,0,0,0-1,.5,2.1,2.1,0,0,0-.4,1.2v3.2h-.8V96.6c0-1.1-.5-1.6-1.3-1.6a.9.9,0,0,0-.9.5,1.6,1.6,0,0,0-.4,1.2v3.2h-.9V94.4h.9v.8h0a2.1,2.1,0,0,1,1.7-1,1.7,1.7,0,0,1,1,.3,1.8,1.8,0,0,1,.6.9,1.9,1.9,0,0,1,1.8-1.2c1.2,0,1.8.8,1.8,2.3Z"/><path d="M542.8,99.9h-.9V99h0a1.8,1.8,0,0,1-1.7,1,2.5,2.5,0,0,1-1.3-.4,1.6,1.6,0,0,1-.4-1.2q0-1.5,1.8-1.8l1.6-.2c0-1-.4-1.4-1.1-1.4a2.8,2.8,0,0,0-1.8.6v-.9a3.8,3.8,0,0,1,1.9-.5c1.3,0,1.9.7,1.9,2.1Zm-.9-2.8-1.3.2a1.2,1.2,0,0,0-.9.3.8.8,0,0,0-.3.7,1.4,1.4,0,0,0,.2.7,1.1,1.1,0,0,0,.8.2,1.5,1.5,0,0,0,1.1-.4,1.6,1.6,0,0,0,.4-1.2Z"/><path d="M544,99.7v-1a2.4,2.4,0,0,0,1.6.5c.8,0,1.2-.2,1.2-.7s-.1-.3-.1-.4l-.3-.3-.4-.2-.5-.2-.6-.3-.5-.3-.3-.4c0-.2-.1-.4-.1-.6a1.9,1.9,0,0,1,.2-.7c.1-.2.3-.3.5-.5l.7-.3h.7a2.8,2.8,0,0,1,1.3.3v.9A2.3,2.3,0,0,0,546,95h-.4l-.4.2-.2.2c0,.1-.1.2-.1.3s.1.3.1.4l.2.3.4.2.5.2.6.3.5.3.4.4c0,.2.1.4.1.6a1.4,1.4,0,0,1-.2.7,1.2,1.2,0,0,1-.5.5l-.7.3h-.8A3.3,3.3,0,0,1,544,99.7Z"/><path d="M554.7,95.3a.8.8,0,0,0-.7-.2,1.1,1.1,0,0,0-.9.5,2.2,2.2,0,0,0-.4,1.5v2.8h-.9V94.4h.9v1.1h0a1.5,1.5,0,0,1,.6-.9,1.2,1.2,0,0,1,.9-.3h.5Z"/><path d="M559.9,97.3h-3.8a1.6,1.6,0,0,0,.5,1.4,1.4,1.4,0,0,0,1.3.5,2.9,2.9,0,0,0,1.7-.6v.9a3.9,3.9,0,0,1-2,.5,2.5,2.5,0,0,1-1.8-.8,3.3,3.3,0,0,1-.6-2.1,3.1,3.1,0,0,1,.7-2.1,2.5,2.5,0,0,1,1.8-.8,2.4,2.4,0,0,1,1.7.7,3,3,0,0,1,.5,2Zm-.9-.7a2.1,2.1,0,0,0-.3-1.2,1.3,1.3,0,0,0-1-.4,1.5,1.5,0,0,0-1.1.4,1.7,1.7,0,0,0-.5,1.2Z"/><path d="M560.8,99.7v-1a2.4,2.4,0,0,0,1.6.5c.8,0,1.2-.2,1.2-.7s-.1-.3-.1-.4l-.3-.3-.4-.2-.5-.2-.6-.3-.5-.3-.3-.4c0-.2-.1-.4-.1-.6a1.9,1.9,0,0,1,.2-.7l.5-.5.7-.3h.8a2.4,2.4,0,0,1,1.2.3v.9a2.1,2.1,0,0,0-1.4-.4h-.4l-.4.2-.2.2c0,.1-.1.2-.1.3s.1.3.1.4l.3.3.3.2.5.2.7.3.5.3.3.4c0,.2.1.4.1.6a1.4,1.4,0,0,1-.2.7,1.2,1.2,0,0,1-.5.5l-.7.3h-.8A3.7,3.7,0,0,1,560.8,99.7Z"/><path d="M566.6,99.1h0v3.3h-.9v-8h.9v.9h0a2.3,2.3,0,0,1,1.9-1.1,2.1,2.1,0,0,1,1.7.8,2.9,2.9,0,0,1,.6,1.9,3.3,3.3,0,0,1-.7,2.3,2.2,2.2,0,0,1-1.8.8A2,2,0,0,1,566.6,99.1Zm0-2.3v.8a1.7,1.7,0,0,0,.5,1.2,1.2,1.2,0,0,0,1.1.4,1.4,1.4,0,0,0,1.2-.6,2.6,2.6,0,0,0,.5-1.7,2.6,2.6,0,0,0-.4-1.4,1.7,1.7,0,0,0-2.4,0A2.1,2.1,0,0,0,566.6,96.8Z"/><path d="M574.4,100a2.8,2.8,0,0,1-2-.8,3.2,3.2,0,0,1-.7-2,2.9,2.9,0,0,1,.8-2.2,2.8,2.8,0,0,1,2-.8,2.4,2.4,0,0,1,1.9.8,2.9,2.9,0,0,1-2,5Zm0-5a1.9,1.9,0,0,0-1.3.5,2.8,2.8,0,0,0-.5,1.6,2.5,2.5,0,0,0,.5,1.6,1.5,1.5,0,0,0,1.3.5,1.6,1.6,0,0,0,1.4-.5,3.4,3.4,0,0,0,0-3.2A2,2,0,0,0,574.4,95Z"/><path d="M578.1,99.7v-1a2.4,2.4,0,0,0,1.6.5c.7,0,1.1-.2,1.1-.7s0-.3-.1-.4l-.2-.3-.4-.2-.5-.2-.7-.3-.4-.3c-.2-.1-.2-.3-.3-.4a1.3,1.3,0,0,1-.1-.6,1.9,1.9,0,0,1,.2-.7l.4-.5.7-.3h.8a2.8,2.8,0,0,1,1.3.3v.9a2.3,2.3,0,0,0-1.4-.4h-.5l-.3.2c-.1.1-.2.1-.2.2a.4.4,0,0,0-.1.3c0,.2,0,.3.1.4s.1.2.2.3l.4.2.5.2.6.3.5.3.3.4a1.3,1.3,0,0,1,.1.6,1.5,1.5,0,0,1-.1.7l-.5.5-.7.3h-.8A3.3,3.3,0,0,1,578.1,99.7Z"/><path d="M585.5,99.8l-.8.2c-1,0-1.4-.6-1.4-1.6V95.1h-1v-.7h1V93l.8-.3v1.7h1.4v.7h-1.4v3.1a1.5,1.5,0,0,0,.2.8.8.8,0,0,0,.7.2h.5Z"/><path d="M590.5,99.9h-.8V99h-.1a1.8,1.8,0,0,1-1.7,1,2.1,2.1,0,0,1-1.2-.4,1.3,1.3,0,0,1-.5-1.2q0-1.5,1.8-1.8l1.7-.2c0-1-.4-1.4-1.2-1.4a3.2,3.2,0,0,0-1.8.6v-.9a4.1,4.1,0,0,1,1.9-.5c1.3,0,1.9.7,1.9,2.1Zm-.8-2.8-1.4.2a1.2,1.2,0,0,0-.9.3.8.8,0,0,0-.3.7.9.9,0,0,0,.3.7.8.8,0,0,0,.7.2,1.4,1.4,0,0,0,1.1-.4,1.7,1.7,0,0,0,.5-1.2Z"/><path d="M591.7,99.7v-1a2.5,2.5,0,0,0,1.6.5c.8,0,1.2-.2,1.2-.7s0-.3-.1-.4l-.3-.3-.4-.2-.5-.2-.6-.3-.5-.3a.8.8,0,0,1-.2-.4,1.3,1.3,0,0,1-.1-.6,1.7,1.7,0,0,1,.1-.7l.5-.5.7-.3h.8a2.4,2.4,0,0,1,1.2.3v.9a2.1,2.1,0,0,0-1.4-.4h-.4l-.3.2-.3.2v.7l.3.3.3.2.5.2.7.3.5.3.3.4a1.3,1.3,0,0,1,.1.6,1.4,1.4,0,0,1-.2.7l-.5.5-.7.3h-.8A4,4,0,0,1,591.7,99.7Z"/><path d="M508.8,116.3h-.9v-.9h0a1.9,1.9,0,0,1-1.7,1c-1.3,0-2-.8-2-2.3v-3.3h.9v3.1c0,1.2.4,1.8,1.3,1.8a1.4,1.4,0,0,0,1.1-.5,1.8,1.8,0,0,0,.4-1.3v-3.1h.9Z"/><path d="M518.3,116.3h-.9v-3.2a2.3,2.3,0,0,0-.3-1.3,1.2,1.2,0,0,0-1.9.1,1.6,1.6,0,0,0-.4,1.2v3.2h-.9V113c0-1.1-.4-1.6-1.2-1.6a1.1,1.1,0,0,0-1,.5,2.1,2.1,0,0,0-.4,1.2v3.2h-.9v-5.5h.9v.8h.1a1.8,1.8,0,0,1,1.7-1,1.4,1.4,0,0,1,.9.3,1.8,1.8,0,0,1,.6.9,1.9,1.9,0,0,1,1.8-1.2c1.3,0,1.9.8,1.9,2.3Z"/><path d="M526.5,116a2.8,2.8,0,0,1-1.5.4,2.4,2.4,0,0,1-1.9-.8,2.6,2.6,0,0,1-.8-2,2.9,2.9,0,0,1,.8-2.1,2.6,2.6,0,0,1,2.1-.9,2.8,2.8,0,0,1,1.3.3v.9a2.2,2.2,0,0,0-1.3-.4,1.7,1.7,0,0,0-1.4.6,2.1,2.1,0,0,0-.6,1.6,2,2,0,0,0,.6,1.5,1.5,1.5,0,0,0,1.3.6,2.7,2.7,0,0,0,1.4-.5Z"/><path d="M530,116.4a2.8,2.8,0,0,1-2-.8,3.2,3.2,0,0,1-.7-2,3.1,3.1,0,0,1,.8-2.2,2.8,2.8,0,0,1,2-.8,2.4,2.4,0,0,1,1.9.8,2.9,2.9,0,0,1-2,5Zm.1-5a1.7,1.7,0,0,0-1.4.6,2.3,2.3,0,0,0-.5,1.5,2.5,2.5,0,0,0,.5,1.6,1.7,1.7,0,0,0,1.4.6,1.6,1.6,0,0,0,1.3-.6,3.4,3.4,0,0,0,0-3.2A1.9,1.9,0,0,0,530.1,111.4Z"/><path d="M538.6,116.3h-.9v-3.2c0-1.1-.4-1.7-1.3-1.7a1.3,1.3,0,0,0-1.1.5,1.6,1.6,0,0,0-.4,1.2v3.2H534v-5.5h.9v.9h0a2,2,0,0,1,1.8-1.1,1.7,1.7,0,0,1,1.4.6,2.9,2.9,0,0,1,.5,1.7Z"/><path d="M541,116a4.1,4.1,0,0,1-.5,2.1,1.9,1.9,0,0,1-1.6.8l-.7-.2v-.8l.7.2c.8,0,1.2-.6,1.2-1.9v-5.4h.9Zm-.4-6.6a.6.6,0,0,1,0-1.2l.4.2a.5.5,0,0,1,0,.8Z"/><path d="M547.1,116.3h-.8v-.9h-.1a1.7,1.7,0,0,1-1.7,1c-1.3,0-1.9-.8-1.9-2.3v-3.3h.8v3.1c0,1.2.5,1.8,1.4,1.8a1.2,1.2,0,0,0,1-.5,1.9,1.9,0,0,0,.5-1.3v-3.1h.8Z"/><path d="M553.4,116.3h-.9v-3.2c0-1.1-.4-1.7-1.3-1.7a1.3,1.3,0,0,0-1.1.5,1.6,1.6,0,0,0-.4,1.2v3.2h-.9v-5.5h.9v.9h0a2,2,0,0,1,1.8-1.1,1.7,1.7,0,0,1,1.4.6,2.9,2.9,0,0,1,.5,1.7Z"/><path d="M557.5,116.2l-.8.2a1.4,1.4,0,0,1-1.5-1.6v-3.3h-.9v-.7h.9v-1.4l.9-.3v1.7h1.4v.7h-1.4v3.1a1.5,1.5,0,0,0,.2.8c.1.2.3.2.6.2h.6Z"/><path d="M560.8,116.4a2.6,2.6,0,0,1-1.9-.8,2.7,2.7,0,0,1-.7-2,3.1,3.1,0,0,1,.7-2.2,2.9,2.9,0,0,1,2.1-.8,2.6,2.6,0,0,1,1.9.8,3.3,3.3,0,0,1,.7,2.1,2.9,2.9,0,0,1-.8,2.1A2.6,2.6,0,0,1,560.8,116.4Zm.1-5a1.5,1.5,0,0,0-1.3.6,1.8,1.8,0,0,0-.5,1.5,2.1,2.1,0,0,0,.5,1.6,1.7,1.7,0,0,0,2.6,0,2.8,2.8,0,0,0,0-3.2A1.7,1.7,0,0,0,560.9,111.4Z"/><path d="M572.5,116.3h-.9v-1h0a2.1,2.1,0,0,1-1.9,1.1,2.4,2.4,0,0,1-1.7-.7,3.3,3.3,0,0,1-.6-2.1,2.8,2.8,0,0,1,.7-2.1,2.1,2.1,0,0,1,1.8-.9,1.9,1.9,0,0,1,1.7.9h0v-3.4h.9Zm-.9-2.5V113a2.1,2.1,0,0,0-.4-1.2,1.6,1.6,0,0,0-1.2-.4,1.4,1.4,0,0,0-1.2.6,2.5,2.5,0,0,0-.5,1.6,3.3,3.3,0,0,0,.4,1.5,1.5,1.5,0,0,0,2.4,0A1.9,1.9,0,0,0,571.6,113.8Z"/><path d="M578.6,113.7h-3.9a2.5,2.5,0,0,0,.5,1.5,1.7,1.7,0,0,0,1.3.5,2.8,2.8,0,0,0,1.7-.7v.9a3.6,3.6,0,0,1-1.9.5,2.6,2.6,0,0,1-1.9-.8,3.3,3.3,0,0,1-.6-2.1,3.1,3.1,0,0,1,.7-2.1,2.5,2.5,0,0,1,1.8-.8,2.4,2.4,0,0,1,1.7.7,3,3,0,0,1,.6,2Zm-.9-.7a2.1,2.1,0,0,0-.4-1.2,1.2,1.2,0,0,0-1-.4,1.5,1.5,0,0,0-1.1.4,2.2,2.2,0,0,0-.5,1.2Z"/><path d="M585.6,111.7a.8.8,0,0,0-.7-.2,1.1,1.1,0,0,0-.9.5,2.2,2.2,0,0,0-.4,1.5v2.8h-.9v-5.5h.9v1.1h0a1.5,1.5,0,0,1,.6-.9,1.1,1.1,0,0,1,.8-.3h.6Z"/><path d="M590.8,113.7h-3.9a3.3,3.3,0,0,0,.5,1.5,2.1,2.1,0,0,0,1.3.5,2.6,2.6,0,0,0,1.7-.7v.9a3.3,3.3,0,0,1-1.9.5,2.3,2.3,0,0,1-1.8-.8,3.3,3.3,0,0,1-.7-2.1,3.2,3.2,0,0,1,.8-2.1,2.3,2.3,0,0,1,3.4-.1,3,3,0,0,1,.6,2Zm-.9-.7a2.1,2.1,0,0,0-.3-1.2,1.4,1.4,0,0,0-1.1-.4,1.3,1.3,0,0,0-1,.4,1.7,1.7,0,0,0-.5,1.2Z"/><path d="M591.7,116.1v-1a2.5,2.5,0,0,0,1.6.6c.8,0,1.2-.3,1.2-.8s-.1-.3-.1-.4l-.3-.3-.4-.2-.5-.2-.6-.3-.5-.3-.3-.4c0-.2-.1-.4-.1-.6a1.9,1.9,0,0,1,.2-.7l.5-.5.6-.3h.8a2.8,2.8,0,0,1,1.3.3v.9a2.3,2.3,0,0,0-1.4-.4h-.4l-.4.2-.2.2c0,.1-.1.2-.1.3s.1.3.1.4l.2.3.4.2.5.2.6.3.5.3c.2.1.3.3.4.4s.1.4.1.6a1.4,1.4,0,0,1-.2.7l-.5.5-.7.3h-.8A3.3,3.3,0,0,1,591.7,116.1Z"/><path d="M601.1,116.3h-.9v-.9h0a1.9,1.9,0,0,1-1.7,1c-1.4,0-2-.8-2-2.3v-3.3h.9v3.1c0,1.2.4,1.8,1.3,1.8a1.6,1.6,0,0,0,1.1-.5,2.5,2.5,0,0,0,.4-1.3v-3.1h.9Z"/><path d="M603.6,116.3h-.9v-8.2h.9Z"/><path d="M607.8,116.2l-.8.2c-1,0-1.4-.6-1.4-1.6v-3.3h-1v-.7h1v-1.4l.8-.3v1.7h1.4v.7h-1.4v3.1a1.5,1.5,0,0,0,.2.8.8.8,0,0,0,.7.2h.5Z"/><path d="M612.8,116.3h-.9v-.9h0a1.8,1.8,0,0,1-1.7,1,2.8,2.8,0,0,1-1.3-.4,1.6,1.6,0,0,1-.4-1.2q0-1.5,1.8-1.8l1.6-.2c0-1-.3-1.4-1.1-1.4a2.7,2.7,0,0,0-1.8.7v-1a4.1,4.1,0,0,1,1.9-.5c1.3,0,1.9.7,1.9,2.1Zm-.9-2.8-1.3.2a1.2,1.2,0,0,0-.9.3.8.8,0,0,0-.3.7,1,1,0,0,0,1,1,1.4,1.4,0,0,0,1.1-.5,1.6,1.6,0,0,0,.4-1.2Z"/><path d="M619.1,116.3h-.9v-1h0a2.1,2.1,0,0,1-1.9,1.1,2.4,2.4,0,0,1-1.7-.7,3.3,3.3,0,0,1-.6-2.1,2.8,2.8,0,0,1,.7-2.1,2.1,2.1,0,0,1,1.8-.9,1.9,1.9,0,0,1,1.7.9h0v-3.4h.9Zm-.9-2.5V113a2.1,2.1,0,0,0-.4-1.2,1.6,1.6,0,0,0-1.2-.4,1.4,1.4,0,0,0-1.2.6,2.5,2.5,0,0,0-.5,1.6,3.3,3.3,0,0,0,.4,1.5,1.5,1.5,0,0,0,2.4,0A1.9,1.9,0,0,0,618.2,113.8Z"/><path d="M623,116.4a2.6,2.6,0,0,1-1.9-.8,2.7,2.7,0,0,1-.7-2,3.1,3.1,0,0,1,.7-2.2,2.9,2.9,0,0,1,2.1-.8,2.6,2.6,0,0,1,1.9.8,2.8,2.8,0,0,1,.7,2.1,2.9,2.9,0,0,1-.8,2.1A2.6,2.6,0,0,1,623,116.4Zm.1-5a1.5,1.5,0,0,0-1.3.6,1.8,1.8,0,0,0-.5,1.5,2.1,2.1,0,0,0,.5,1.6,1.6,1.6,0,0,0,1.3.6,1.5,1.5,0,0,0,1.3-.6,2.8,2.8,0,0,0,0-3.2A1.7,1.7,0,0,0,623.1,111.4Z"/><path d="M626.7,116.1v-1a2.7,2.7,0,0,0,1.6.6c.8,0,1.2-.3,1.2-.8s0-.3-.1-.4l-.3-.3-.4-.2-.5-.2-.6-.3-.5-.3a.8.8,0,0,1-.2-.4,1.3,1.3,0,0,1-.1-.6,1.7,1.7,0,0,1,.1-.7l.5-.5.7-.3h.8a2.4,2.4,0,0,1,1.2.3v.9a2.1,2.1,0,0,0-1.4-.4h-.4l-.3.2-.3.2v.7l.3.3.3.2.5.2.7.3.5.3.3.4a1.3,1.3,0,0,1,.1.6,1.4,1.4,0,0,1-.2.7l-.5.5-.7.3h-.8A4,4,0,0,1,626.7,116.1Z"/><path d="M508,130.4h-.9v-.8h0a1.9,1.9,0,0,1-1.7,1c-1.3,0-2-.8-2-2.4v-3.3h.9v3.2c0,1.2.5,1.7,1.4,1.7a1.3,1.3,0,0,0,1-.4,2,2,0,0,0,.4-1.3v-3.2h.9Z"/><path d="M517.5,130.4h-.9v-3.1a2.1,2.1,0,0,0-.3-1.3,1,1,0,0,0-.9-.4,1.1,1.1,0,0,0-1,.5,2.1,2.1,0,0,0-.4,1.2v3.1h-.9v-3.2c0-1.1-.4-1.6-1.2-1.6a1.3,1.3,0,0,0-1,.4,2.8,2.8,0,0,0-.3,1.3v3.1h-.9v-5.5h.9v.9h0a1.8,1.8,0,0,1,1.7-1,1.7,1.7,0,0,1,1,.3,1.3,1.3,0,0,1,.5.9,2.2,2.2,0,0,1,1.9-1.2c1.2,0,1.8.8,1.8,2.3Z"/><path d="M526.4,130.4h-.9v-.8h0a1.9,1.9,0,0,1-1.7,1c-1.3,0-2-.8-2-2.4v-3.3h.9v3.2c0,1.2.4,1.7,1.3,1.7a1.4,1.4,0,0,0,1.1-.4,2,2,0,0,0,.4-1.3v-3.2h.9Zm-.8-8.3-1.4,1.8h-.7l1.2-1.8Z"/><path d="M532.6,130.4h-.9v-3.1c0-1.2-.4-1.7-1.2-1.7a1.2,1.2,0,0,0-1.1.5,1.7,1.7,0,0,0-.5,1.2v3.1h-.8v-5.5h.8v1h.1a2,2,0,0,1,1.8-1.1,1.8,1.8,0,0,1,1.4.6,2.7,2.7,0,0,1,.4,1.7Z"/><path d="M534.6,123.5h-.4a.6.6,0,0,1-.1-.4c0-.2,0-.3.1-.4l.4-.2.4.2c.2.1.2.2.2.4a.4.4,0,0,1-.2.4Zm.5,6.9h-.9v-5.5h.9Z"/><path d="M540.5,130.2a3.3,3.3,0,0,1-1.5.4,2.6,2.6,0,0,1-1.9-.8,2.7,2.7,0,0,1-.7-2,3.2,3.2,0,0,1,.7-2.2,3,3,0,0,1,2.1-.8,2.8,2.8,0,0,1,1.3.3v.9a2.2,2.2,0,0,0-1.3-.4,1.8,1.8,0,0,0-1.4.6,2,2,0,0,0-.5,1.5,2.1,2.1,0,0,0,.5,1.6,1.9,1.9,0,0,0,1.3.5,2.3,2.3,0,0,0,1.4-.4Z"/><path d="M544,130.6a2.4,2.4,0,0,1-1.9-.8,2.8,2.8,0,0,1-.8-2,2.9,2.9,0,0,1,.8-2.2,2.8,2.8,0,0,1,2-.8,2.6,2.6,0,0,1,2,.8,3.3,3.3,0,0,1,.6,2.1,3,3,0,0,1-.7,2.1A2.8,2.8,0,0,1,544,130.6Zm.1-5a1.7,1.7,0,0,0-1.4.5,2.8,2.8,0,0,0,0,3.2,2.2,2.2,0,0,0,1.4.5,1.9,1.9,0,0,0,1.3-.5,3.4,3.4,0,0,0,0-3.2A1.5,1.5,0,0,0,544.1,125.6Z"/><path d="M555.6,130.4h-.8v-.9h-.1a2,2,0,0,1-1.9,1.1,2.1,2.1,0,0,1-1.6-.8,3,3,0,0,1-.6-2,3.2,3.2,0,0,1,.7-2.2,2.2,2.2,0,0,1,1.8-.8,1.7,1.7,0,0,1,1.6.9h.1v-3.4h.8Zm-.8-2.4v-.9a1.6,1.6,0,0,0-.5-1.1,1.5,1.5,0,0,0-1.1-.4,1.9,1.9,0,0,0-1.3.5,2.9,2.9,0,0,0-.4,1.7,2.4,2.4,0,0,0,.4,1.5,1.7,1.7,0,0,0,1.2.5,1.3,1.3,0,0,0,1.2-.5A2.1,2.1,0,0,0,554.8,128Z"/><path d="M559.6,130.6a2.4,2.4,0,0,1-1.9-.8,2.8,2.8,0,0,1-.8-2,2.9,2.9,0,0,1,.8-2.2,2.8,2.8,0,0,1,2-.8,2.6,2.6,0,0,1,2,.8,3.3,3.3,0,0,1,.6,2.1,3,3,0,0,1-.7,2.1A2.8,2.8,0,0,1,559.6,130.6Zm.1-5a1.7,1.7,0,0,0-1.4.5,2.8,2.8,0,0,0,0,3.2,2.2,2.2,0,0,0,1.4.5,1.9,1.9,0,0,0,1.3-.5,3.4,3.4,0,0,0,0-3.2A1.5,1.5,0,0,0,559.7,125.6Z"/><path d="M567.4,130.2a3.3,3.3,0,0,1-1.5.4,2.6,2.6,0,0,1-1.9-.8,2.7,2.7,0,0,1-.7-2,2.6,2.6,0,0,1,2.8-3,2.8,2.8,0,0,1,1.3.3v.9a2,2,0,0,0-1.3-.4,1.8,1.8,0,0,0-1.4.6,2.5,2.5,0,0,0-.5,1.5,2.1,2.1,0,0,0,.5,1.6,1.9,1.9,0,0,0,1.3.5,2.3,2.3,0,0,0,1.4-.4Z"/><path d="M573.1,130.4h-.9v-.8h0a2.1,2.1,0,0,1-1.7,1c-1.3,0-2-.8-2-2.4v-3.3h.9v3.2c0,1.2.4,1.7,1.3,1.7a1.5,1.5,0,0,0,1.1-.4,2.8,2.8,0,0,0,.4-1.3v-3.2h.9Z"/><path d="M582.5,130.4h-.8v-3.1a2.1,2.1,0,0,0-.3-1.3,1.1,1.1,0,0,0-1-.4,1,1,0,0,0-.9.5,1.6,1.6,0,0,0-.4,1.2v3.1h-.9v-3.2c0-1.1-.4-1.6-1.3-1.6a1.1,1.1,0,0,0-.9.4,2,2,0,0,0-.4,1.3v3.1h-.9v-5.5h.9v.9h0a1.9,1.9,0,0,1,1.7-1,1.7,1.7,0,0,1,1,.3,1.5,1.5,0,0,1,.6.9,1.9,1.9,0,0,1,1.8-1.2c1.2,0,1.8.8,1.8,2.3Z"/><path d="M588.5,127.9h-3.9a2,2,0,0,0,.5,1.4,1.5,1.5,0,0,0,1.3.5,2.7,2.7,0,0,0,1.7-.6v.8a2.7,2.7,0,0,1-1.9.6,2.2,2.2,0,0,1-1.8-.8,2.8,2.8,0,0,1-.7-2.1,3.8,3.8,0,0,1,.7-2.1,2.6,2.6,0,0,1,1.9-.8,1.9,1.9,0,0,1,1.6.7,3,3,0,0,1,.6,2Zm-.9-.7a1.6,1.6,0,0,0-.4-1.2,1.1,1.1,0,0,0-1-.4,1.3,1.3,0,0,0-1,.4,2.3,2.3,0,0,0-.6,1.2Z"/><path d="M594.3,130.4h-.9v-3.1c0-1.2-.4-1.7-1.3-1.7a1,1,0,0,0-1,.5,1.7,1.7,0,0,0-.5,1.2v3.1h-.9v-5.5h.9v1h0a2.2,2.2,0,0,1,1.8-1.1,1.7,1.7,0,0,1,1.4.6,2.6,2.6,0,0,1,.5,1.7Z"/><path d="M598.4,130.4l-.8.2a1.4,1.4,0,0,1-1.5-1.6v-3.3h-.9v-.8h.9v-1.3l.9-.3v1.6h1.4v.8H597v3.1a1.5,1.5,0,0,0,.2.8l.6.2c.3,0,.4,0,.6-.2Z"/><path d="M601.8,130.6a2.8,2.8,0,0,1-2-.8,2.7,2.7,0,0,1-.7-2,2.8,2.8,0,0,1,2.8-3,2.4,2.4,0,0,1,1.9.8,2.8,2.8,0,0,1,.7,2.1,3,3,0,0,1-.7,2.1A2.8,2.8,0,0,1,601.8,130.6Zm0-5a1.5,1.5,0,0,0-1.3.5,2.8,2.8,0,0,0,0,3.2,1.9,1.9,0,0,0,1.3.5,1.7,1.7,0,0,0,1.3-.5,2.8,2.8,0,0,0,0-3.2A1.4,1.4,0,0,0,601.8,125.6Z"/><use width="49.9" height="49.94" transform="matrix(0.64, 0, 0, -0.64, 58.02, 81.94)" xlink:href="#a"/></svg>